<?xml version="1.0" standalone="no"?>
<!DOCTYPE svg PUBLIC "-//W3C//DTD SVG 1.1//EN" "http://www.w3.org/Graphics/SVG/1.1/DTD/svg11.dtd" >
<svg xmlns="http://www.w3.org/2000/svg">
<metadata></metadata>
<defs>
<font id="thirsty_roughlight" horiz-adv-x="1019" >
<font-face units-per-em="2048" ascent="1638" descent="-410" />
<missing-glyph horiz-adv-x="512" />
<glyph unicode="&#xfb01;" horiz-adv-x="1282" d="M993 1032l33 33l64 -6h51l22 -29l2 -22l-6 -4l-10 -39l-23 -50l-22 -55l-2 -12l-6 -6l-2 -13l-23 -53l-4 -4v-10l-12 -12l-21 -60l-22 -61l-27 -62l-6 -18l-10 -8l-19 -58l-18 -45v-10h-4l-25 -61l-45 -119l-6 -27l-4 -71l16 -29l13 -12l18 -9l31 2l57 33l37 21l20 22 l9 4l38 51l29 31l4 12l15 11l4 12l22 25l17 30l36 56l21 24v8l18 15v8l37 47l2 14l21 23l35 4l26 -12l12 -15l5 -30l-25 -54l-18 -32l-23 -29l-8 -23l-10 -12l-4 -14l-43 -53l-58 -72v-10l-12 -9l-2 -10l-14 -8l-5 -14l-12 -11l-6 -14l-14 -8l-4 -14l-56 -39l-12 -4l-21 -27 l-32 -19l-11 -12l-49 -22l-65 -17l-29 -6l-35 8l-32 2l-29 11l-29 16l-24 20l-15 19l-4 20l-6 7l-2 16l-12 27l-2 18l6 23l-2 18l-6 12l-13 13h-16l-57 -33l-9 -10l-14 -3l-29 -16l-18 -4v-4h-8l-58 -23l-63 -18l-59 -8l-19 -6l-63 -2l-13 -5l-10 -10l-8 -31l4 -51l-4 -4 l-2 -26l-19 -66l-6 -33l-10 -33h-4l-8 -49l-10 -26l-29 -56l-21 -61l-34 -59v-7l-15 -20l-2 -14l-33 -35l-6 -17l-14 -8l-45 -47l-21 -8l-12 -12l-24 -6l-5 -7l-12 -2l-14 -10l-60 -10h-34l-5 4l-32 2l-19 8l-18 23h-10l-7 6l-4 14l-16 23h-4l-12 30l-9 35l2 29l13 31l2 65 l2 8l6 4l10 37l21 56l10 10l31 92l6 6l26 60l50 118l24 62l23 61l4 15l16 28l23 64l20 53l23 61l14 29l6 25l12 12l25 57l10 29l6 6l19 62l22 61l15 35l6 24l10 13l12 43l11 8v12l26 64l15 30l16 54l31 55l18 61l10 31l9 8l4 25l10 12l24 62l7 8l2 12l6 6l20 58l15 24l20 64 l27 43l22 26l25 51l41 54l20 22l6 12h9l14 19l12 2l53 35l9 6l20 2l4 6l66 4l31 2l65 -16v-4l23 -4l43 -54l8 -30l12 -21l8 -45l-6 -65l-8 -66l-23 -59l-16 -64l-10 -14l-13 -35l-16 -59l-24 -47l-15 -21l-6 -27l-16 -49l-13 -12l-26 -57l-19 -45l-30 -60l-27 -59l-6 -12h-4 l-21 -45l-10 -15l-2 -14l-29 -33v-8l-6 -4l-2 -10l-12 -9l-2 -16l-23 -23l-2 -8l-18 -14l-4 -14l-47 -41l-2 -9l-21 -10l-4 -6l-27 -16l-118 -33l-9 -6l-65 -4l-12 -7l-25 -22v-8l-10 -15l-15 -61l9 -29l24 -20l33 -10l65 -9l15 -6l33 6l30 -8h29l14 4v4l47 9l9 6l14 2l10 6 l14 2l13 12l30 11l3 4l12 2l6 6l29 12l39 27l24 24l49 41l29 29l2 10l10 4l4 15l33 47l21 22l2 15l18 22l16 29l5 14l16 25l37 118l6 5l12 26l19 53l24 60l15 28l2 15l10 10v8l12 13l14 59zM227 494l19 4h12l6 10h10l5 8h10l8 14l14 15h8l41 51l41 55l27 49l12 31l17 25 l22 49l29 61l18 56l9 4v8l22 24v9h4v10h4v8l13 8l4 33l10 33l26 57l13 31v10l10 8l21 52l16 63l20 59l13 68l2 29l-25 24l-16 6l-31 -8l-27 -18l-41 -47l-6 -4l-10 -23h-4v-10h-6l-12 -29v-8l-11 -14v-9l-8 -14l-6 -4l-18 -43v-8l-9 -10v-9h-6l-12 -47h-6l-8 -33l-23 -55h-6 v-8h-4v-10l-6 -2l-17 -54h-6v-10h-4v-8l-25 -57l-6 -31l-26 -49l-13 -49h-4v-9h-4l-8 -28l-27 -62l-26 -63l-25 -60l-8 -24l-6 -8l-2 -33l4 -6zM16 61l-2 -4l-22 -55l-15 -37l-10 -10v-8h-4l-8 -31l-14 -35l-7 -4l-12 -47l-6 -4l-8 -33l-33 -59l-6 -13l-4 -32l-12 -35 l-13 -12l-6 -21l-6 -4l-2 -16l-19 -58v-18l7 -17l24 -14l17 4l24 19v4l49 47l2 12l13 10l12 23h4v8h4v10h4v9h6v10h4v8h5v10l6 2l22 62v6l6 2l4 16l29 33l8 27l-2 55l15 29l14 55l4 6l4 62v59l-10 14l-23 17l-20 -9l-16 -24zM1145 1417h39l8 4l33 -4l4 -6l14 -6l41 -43 l16 -33l-2 -47l-4 -4l-2 -14l-14 -27l-16 -20l-15 -5l-10 -8l-20 -4l-3 -6h-55l-24 12l-29 21l-2 14l-8 4l-13 27l-4 31l4 40l7 19l18 22zM776 285l-2 -4l-18 -27v-6l14 -4l10 2l4 6l23 -4l4 4l-23 37l-8 6zM88 444l-4 -2l4 -30l-8 -25l8 -10l8 2l25 31h-10l-9 12l4 20l-8 4 zM788 352l-4 -2l-12 8h-20l-4 -16l6 -6l45 8l18 16v9h-10zM864 545l-2 -4l29 -19l8 4v15l-12 10l-17 2zM840 471v-6l20 -10l10 2l7 8l-19 14l-14 -2zM797 412l-4 -2l6 -13l22 -2v15l-14 6zM61 324l5 -2l6 12l-9 14l-8 2l-4 -14zM8 199l2 -6l15 4l4 8l-2 8l-9 6zM735 291 l-2 -2l2 -15l6 -4l9 11l2 14zM47 205v-4l14 -6l5 2l-3 10l-6 4zM522 1432l2 -2l6 16l-10 4zM47 270v-8l8 -4v8z" />
<glyph unicode="&#xfb02;" horiz-adv-x="1282" d="M1292 1468h4l25 -22l2 -10l-18 -62l-17 -61l-26 -62l-9 -30l-53 -115l-10 -37h-4v-8l-17 -23l-24 -65l-23 -62l-24 -61l-15 -25l-8 -39h-4l-8 -32l-14 -27l-2 -14h-5l-10 -33l-26 -59l-23 -56l-27 -61l-20 -55l-6 -5l-15 -53l-16 -26l-2 -15l-25 -63l-20 -60l-4 -26 l-6 -15v-34l4 -17l22 -26l25 -13l27 -2l16 6l4 11h10v4h8v4l52 39l26 20l43 49l33 41l27 27l35 47l16 18v7l18 18l6 16l29 41l2 11h6v10l33 45l31 45l35 2l24 -14l12 -23v-35l-26 -51l-35 -53l-35 -51l-12 -31l-37 -53l-45 -47l-37 -52l-6 -12l-49 -39l-39 -39h-8l-19 -24 l-16 -2l-12 -13l-25 -6l-24 -18l-27 -10l-49 -11l-62 -2l-51 11l-39 26l-12 4l-25 23l-6 16l-12 8l-2 33l-8 31v33l4 8l-2 16l-17 21l-10 2l-14 -6l-11 -11h-6l-39 -32l-14 -5l-12 -12l-39 -10v-4l-16 -4l-7 -6h-8l-6 -7l-22 -2l-62 -18l-59 -8l-72 -4l-29 -11l-12 -16 l-4 -68l-16 -51l-9 -30l-8 -68l-16 -61l-25 -64l-24 -57l-29 -56l-31 -55l-18 -33l-12 -8l-7 -14l-45 -51l-4 -9l-10 -2l-4 -8l-53 -33l-17 -14l-55 -6l-35 -4l-53 6v4l-25 4l-4 6l-16 4l-25 23l-16 25l-14 30l-2 33l-7 14l7 66l4 31l20 61l14 31l17 53l8 23l10 10l13 28 l18 62l27 55l20 64l25 59l24 49l2 10l6 7l2 14l15 25l24 59l11 33l24 55l25 59l28 60l15 47l4 4l4 33l6 4l8 14l2 14l13 23l8 33l6 4l20 59l23 60l22 55l3 8l10 8v15l10 6l18 53l9 25l10 6l18 61l17 56l6 2v8h4v10h6v8h4v10h4v9h6l17 61l16 41h4v10h4v8h4v11h5v8h6v10h4v8 l6 13l2 18l27 61l12 29l18 25l2 14l11 12l20 45l6 15l13 10l28 39l4 14l9 4l16 25l24 22l29 19l4 6l53 31l27 12l37 4l4 4h33l45 8l14 -8h10v-4l23 -4l4 -10l10 -2l43 -45l17 -27l10 -35l4 -69l-2 -64l-12 -63l-17 -60l-14 -43h-4l-10 -41l-11 -10l-2 -14l-20 -56l-19 -41 l-10 -10l-20 -61l-2 -8l-11 -11l-12 -41l-12 -12l-2 -10l-12 -12l-23 -54l-8 -28l-10 -13l-5 -16l-32 -57l-4 -17l-17 -30l-6 -5l-16 -26l-4 -17l-13 -12l-14 -29l-23 -26l-14 -27l-18 -16l-4 -15l-52 -40l-12 -15l-12 -2l-4 -8l-60 -29l-57 -16l-70 -10l-16 -2l-27 -19 l-24 -24l-2 -15l-11 -10l-10 -29v-18l19 -29l51 -24h8l10 -11l64 -8h20l4 -6l31 2l66 17l59 14l35 10l55 33l14 8l9 10l16 2l47 39l43 47l45 52l23 24l4 12l22 27v6l13 12l28 60l15 43h4v10h4v8h6v11h4v8l10 10l9 18v9h4l4 28h6l8 47l6 4l19 52h4v8l30 53l23 66l18 47l27 63 l29 60l6 32l24 60l23 59v6h4v9h6v10h4v8h4l7 31l24 57l21 59l4 2v9l32 30l62 7zM307 539l2 2l49 45l2 12l9 4l32 60l31 47l8 26h4l23 58l10 4v8l19 24l22 56l4 14l10 8l11 27l6 6l8 35l8 12v8l6 6l4 15l13 12v14l10 13l8 32l8 15l2 14l11 12l6 33l26 58l13 28l12 64l6 24 l10 13l17 67l-4 25l-23 20l-47 8l-49 -47l-19 -24l-8 -19l-14 -12l-6 -18l-12 -13l-5 -12l-6 -6l-10 -29l-6 -4l-2 -12l-17 -31l-4 -22l-10 -15l-24 -74l-13 -22l-2 -12l-6 -6l-2 -15l-31 -55l-20 -59l-2 -17l-10 -8l-23 -51l-4 -29l-12 -12l-23 -66l-20 -51l-25 -47 l-12 -55l-19 -29l-22 -64l-8 -20l12 -10l2 -6h31l30 16zM-31 -352l2 4l11 29l10 12l6 16l12 12l17 31l4 25l6 8l2 25l22 63l21 61l8 31l4 35l-2 41l-8 35l-14 22l-13 6h-12l-18 -8l-27 -53l-23 -61l-2 -11l-6 -2l-4 -20l-22 -58l-25 -57l-6 -12l-4 -33l-27 -49l-26 -62v-8 h-5l-2 -14l-24 -62l-10 -30l-7 -47l9 -2l22 -21h17l36 21l29 28l27 64zM778 352h-6v-10l10 -18v-15h27l12 8l2 7l-14 8l-8 10l4 2l-2 18l-8 3zM885 559h-4l4 -18l-15 -13v-14h9l28 18l11 15l-7 14l-12 2zM776 254l2 -4v-4l-10 -10v-5l14 -4l19 4v31l-23 10l-4 -8zM725 231 l-12 -6l10 -22l8 -4l19 8l-5 18zM745 268h5l2 13l-7 16l-14 8v-18l6 -15zM666 305v-4l12 2l6 29h-12zM745 373l5 -2h10l8 14l-4 6l-10 2l2 -6zM737 156l4 -4l9 10h10l-2 10h-15zM309 1047v-5l6 -4h17v9l-10 6zM426 1270h4l4 6v10l-4 6h-4l-4 -6v-10zM815 55h4l4 19h-12z M834 383v-8h16l2 8h-18zM713 383v-12l4 -2l6 4v8l-6 4zM754 324h6l-2 8l-8 6l-5 -6l3 -6zM74 408h4l2 8l-12 10v-10zM86 459v-10h14l-8 10h-6zM-133 2l-2 -4l8 -4l4 10l-8 4zM741 360v-8h9v8h-9z" />
<glyph horiz-adv-x="0" />
<glyph horiz-adv-x="0" />
<glyph horiz-adv-x="682" />
<glyph unicode="&#xd;" horiz-adv-x="778" />
<glyph unicode=" "  horiz-adv-x="512" />
<glyph unicode="&#x09;" horiz-adv-x="512" />
<glyph unicode="&#xa0;" horiz-adv-x="512" />
<glyph unicode="!" horiz-adv-x="636" d="M831 1380l-2 -4l-12 -47l-26 -55l-3 -8l-10 -11l-24 -59l-27 -59l-10 -31l-10 -14l-2 -13h-5l-24 -55l-8 -14l-2 -17l-13 -20v-8h-4l-4 -25l-10 -18l-10 -9l-2 -14l-17 -27l-8 -30l-31 -60l-20 -41l-4 -32l-21 -23l-2 -14l-10 -15l-14 -57l-33 -53l-14 -47l-19 -25 l-4 -20h-4l-12 -31l-7 -6v-10l-34 -31l-17 -6l-39 -2l-22 12l-15 16l7 31l22 61l4 21l13 12l16 62l2 18l8 14l2 23l12 29l13 8v8l10 10l18 60l11 30l2 23l33 59l10 66l18 51l25 49l16 64l25 59l26 59l17 64l6 35l6 4l8 33l15 28l6 23l14 31l27 18l8 10l61 15l8 4l72 -17 l27 -14l8 -8l2 -17l-4 -14zM195 229l4 2l28 7l39 -5l21 -16l12 -2l25 -25l24 -32l12 -43l-18 -64l-6 -12l-2 -16l-25 -29h-8l-4 -8l-12 -2l-6 -7l-62 -6l-41 4l-45 33l-33 45l-6 23v39l6 32l13 29l24 25l27 12l4 8zM233 63l-2 -4l9 -4l6 8l-10 7z" />
<glyph unicode="&#x22;" horiz-adv-x="821" d="M750 1030l-5 -2v-18l-10 -27v-10l-18 -25l-23 -61l-2 -8l-49 -41h-8v-4l-33 -5l-24 21l-9 12l15 62l8 16l12 64l17 59l16 65l18 62l21 63l16 62l15 63l14 49l10 9v8l21 22l22 17l66 14h26l23 -16l12 -15l12 -6v-8l11 -10l12 -31l4 -31l-14 -51l-11 -10l-2 -12h-6v-11h-4 v-8h-4v-10h-6l-4 -23l-8 -4l-4 -14l-11 -10v-8l-18 -25l-10 -31l-13 -18l-2 -10l-16 -29l-4 -16l-23 -23l-12 -20zM414 1497h6l6 4l35 -4l20 -10l25 -19l8 -14l14 -8l9 -27v-57h-5v-8l-24 -54l-29 -59l-16 -29v-8l-21 -37l-8 -4l-2 -12l-10 -6l-2 -10l-6 -7l-29 -59l-10 -22 v-9l-15 -14v-10h-4v-8l-6 -5l-12 -24v-8h-6v-11h-4v-8h-4l-2 -12l-13 -12l-4 -19l-10 -4v-10h-4v-8h-4v-11h-4v-8h-7l-16 -28l-6 -4h-10l-8 -11l-23 -4l-12 6l-8 11l-9 34l11 62l12 67l14 66l19 63l20 64l12 31l9 65l6 10l4 23h4v8l14 33l4 4l6 43l5 4l4 29l10 4v8l18 14 l4 11h11v4h8v4zM825 1280l4 -2l7 8l-5 12l-8 5l-4 -17zM774 1260v-15l8 2v13h-8z" />
<glyph unicode="#" horiz-adv-x="1374" d="M1182 952h-41l-23 -20l-8 -12l-6 -31l-25 -58l-24 -59l-25 -65l-10 -15v-8l-6 -6l-17 -41h-4l-20 -45l-6 -49l16 -23l59 -12l70 -4l70 4l16 -2l23 -17l2 -16l-6 -31l-23 -41l-10 -14l-15 -10l-63 -4l-66 8l-65 -4l-35 -2l-31 -8l-20 -13l-10 -12l-7 -25l-6 -4l-22 -63 l-4 -21l-11 -10v-8l-20 -49l-6 -6l-6 -37h-4v-10h-5l-4 -27l-22 -35l-4 -14l-25 -25l-22 -12l-54 -4v4l-16 4l-25 20l-14 19l21 61l18 52l8 4l25 43l12 59l23 45l6 4l8 29l-2 18l-8 11l-29 10l-72 2h-65l-66 8l-30 -2l-31 -16l-21 -27l-22 -59l-6 -23l-11 -14l-4 -17 l-16 -20l-18 -62l-7 -18l-10 -8v-15l-12 -26l-8 -33l-37 -41l-27 -10l-37 -2l-30 4l-29 20l-6 21l22 61l9 29l8 14v9l26 55l33 57l14 55l7 15l-2 18l-15 19l-26 8l-33 4l-76 -4l-70 2l-14 6l-8 12l-8 4l12 66l16 25l27 16l65 -4l66 8l66 -4l59 8l27 19l24 57l17 51l10 31 l16 28l21 60l8 14l6 4l6 21l8 10l6 31l29 67l2 21l-10 12l-2 8l-39 11l-37 -9h-65l-66 4l-20 9l-7 14l-4 2l2 33l19 53l35 23l65 -7l68 4l67 -2l27 5l27 16l32 55l2 15l29 61l27 63l4 5l2 12l10 14l19 62l30 57l19 16l8 2l33 -4l65 2l19 -16v-31l-17 -41l-28 -61l-5 -6v-17 l-26 -59l-10 -23l-2 -24l-29 -53l4 -27l22 -21l23 -4l66 4l59 -2l76 2l28 3l25 14l20 26l7 27l22 47l8 37l6 4l27 51l18 64l25 51l8 14v9l35 36l62 3h24l27 -23l10 -27l-4 -24h-4v-10h-6v-9h-4v-10h-5v-10h-4v-8l-22 -43l-8 -33l-17 -27l-2 -14l-12 -23v-8h-4l-21 -59 l-6 -17v-16l6 -12l13 -10l30 -5l66 7h72l30 -7l23 -12l12 -24v-17l-14 -37l-19 -26l-12 -2l-4 -6l-41 -11l-57 13l-60 -9zM502 514l4 -2l31 -6h65l33 -2l33 4l32 -4l33 2l37 8l23 16l16 27l27 64l28 61l21 59l16 41l10 13l23 63l2 16l12 13l6 37l-6 22l-26 17h-37l-29 -7 h-129l-61 -2l-25 -22l-27 -58l-6 -18l-12 -20l-23 -64l-26 -59l-23 -62l-6 -4l-22 -61l-13 -31l-2 -25zM330 438v4l-15 4v-8h15zM582 991l2 -2l4 6l-2 6l-6 3z" />
<glyph unicode="$" horiz-adv-x="933" d="M797 1010l-4 2l2 32l20 62l4 33l6 12l-4 68l-14 26l-19 19l-26 -17l-29 -57l-26 -62l-23 -61l-14 -23l-23 -59l-6 -29l-6 -4l-4 -16l-10 -12l-7 -23l-14 -22l-10 -62l2 -16l16 -29l21 -24l6 -15l6 -4l12 -29l37 -53l17 -29l16 -59l14 -65l-10 -62l-6 -67l-25 -58l-28 -59 l-45 -49l-50 -41l-2 -4l-14 -4l-18 -19l-58 -25l-28 -16l-29 -8l-66 -10l-51 -2l-45 -35l-2 -10h-4v-11h-4l-10 -30l-4 -33l-23 -47l-20 -17l-17 -4l-33 11l-20 14l-4 14l6 35l6 12l2 19l21 41l2 18l-27 39l-31 14l-41 27l-16 18v9l-23 24l-10 31l-6 6l-10 51l-4 76l4 33 l20 67l6 33l31 31h15l4 6l63 4l41 -6l12 -8l7 -17l-3 -30l-8 -27l-6 -4v-14l-8 -25l-4 -72l12 -39l10 -4l2 -12l13 -10h12l6 -6l17 6l22 22v15l14 24l21 60l10 28l6 6l13 46l18 28l20 60l2 8l11 12l24 59l21 62l10 29l-12 30l-35 54l-21 22l-6 14l-12 13l-4 16l-10 14l-2 13 l-13 24l-4 33l-16 66l4 63l4 66l25 49l2 12l32 51l13 13l18 28l51 41l41 41h9l4 6l10 2v4h10v7h8v4h11v4h8v4h10v6h8v4l29 4l61 23l49 2l17 6l28 39l3 14h4l2 12l6 7l2 14h4l8 37l10 4v10l7 6l12 2l10 11l35 4l12 -4l25 -25l2 -16l-17 -31l-10 -10l-10 -35h-4l-4 -29l10 -29 l25 -24l16 -4l47 -37l41 -53l10 -23l10 -74l-4 -65l-8 -66l-6 -30l-10 -27l-21 -27l-61 -12l-70 2zM369 252l2 -4l14 -10l14 4l4 6h15l28 16l13 15l12 6l39 51l18 31l19 63l6 33v31l-6 4v32l-8 15l-4 22l-7 2l-12 17h-14l-15 -11l-8 -14l-8 -31l-18 -45l-13 -16l-8 -33 l-16 -47l-27 -57l-4 -15h-4v-10h-4v-8h-6v-10h-4l-5 -33zM602 1245l-4 -2l-27 -12l-14 -19h-10l-6 -14l-21 -24l-18 -31l-4 -15l-6 -4l-11 -47h-4l-4 -63l6 -35l17 -33l14 -4l25 23l8 20l10 19l10 30l25 49l12 47l6 7l25 59l4 39l-23 12zM512 762l-2 -4l18 -15l11 5l-7 14 l-14 4zM473 821v-8h10v8h-10zM465 1188v-8h12l-2 6z" />
<glyph unicode="%" horiz-adv-x="1318" d="M352 1174h4l4 6l68 -4l33 -7l47 -18l24 -8l5 -6l20 -7l4 -8l27 -18l24 -31l17 -29l6 -4l10 -22l12 -10v-11h5l2 -12l4 -4l10 -70l-2 -63v-27l-19 -41v-6l-82 -102l-24 -17l-14 -4l-9 -12l-24 -12l-45 -15h-15v-4l-57 -4l-33 2l-35 6l-10 9l-33 14l-26 16l-14 2l-29 21 l-31 26l-2 11l-22 28v9h-5l-26 57l-6 31h-4l-5 57l5 59l4 4l2 29l30 59l43 46l46 38l6 7l12 2l27 16l16 2l22 10zM983 561h4l4 6l66 -6h37l26 -4l29 -10l55 -37l49 -49l31 -37l21 -59l12 -33l-6 -62v-51l-13 -33l-22 -53l-37 -51l-53 -39l-25 -16l-35 -19l-65 -2l-31 -8h-33 l-30 6l-23 10h-8l-47 19l-10 12l-21 14l-4 13l-27 26l-24 17l-23 28l-14 27l-18 61l-7 35v31l17 65l16 52l12 22l19 19l6 14l12 10l11 19h10l22 22l29 12l4 7l62 18zM209 8l-2 2l-6 2v8l-8 19l26 47l12 8l5 15l18 18v8l8 4l6 15l15 10l4 14l20 15l17 26l45 47l39 53l24 23v8 l19 15l18 26l14 10l9 19l47 47l18 22l8 17l13 10l6 14l8 5l12 22l45 49l43 49l21 27l12 10l37 51l2 9l24 22l23 14l4 15l23 28l6 15l8 4v8l45 47l45 51l16 23l5 14l22 21l43 53l16 25l13 8l2 12l8 4l6 14l49 39l64 9h24l13 -9l10 -14v-22h-6l-2 -15l-11 -8v-10l-45 -53 l-18 -25l-27 -18l-22 -25l-12 -8l-5 -15l-32 -53l-25 -24l-18 -25l-19 -14v-9l-41 -47l-43 -47l-24 -24l-2 -13l-11 -4v-8l-45 -47l-37 -53h-4l-16 -27l-20 -14l-5 -12l-47 -50l-26 -36l-39 -50l-15 -12l-16 -27l-14 -14l-6 -12l-11 -8v-11l-45 -45l-6 -4l-35 -53l-61 -51 l-8 -23l-33 -43l-43 -49l-12 -12v-8l-39 -25l-31 -6l-33 4zM991 424h-4l-31 -12l-24 -19l-17 -26l-12 -9l-20 -45v-30l6 -17l6 -49l47 -45l25 -22l14 -7v-4h20l5 -4l67 6l14 4l11 9h10l2 6l33 24l12 25h4l15 39l-5 65l-4 19l-12 16l-2 17l-37 34h-6l-16 17l-31 8l-4 4h-56z M444 1026h-4l-14 6l-74 -4l-26 -8l-17 -12l-14 -4l-21 -27l-14 -27l-10 -67v-15l4 -4l4 -28l8 -19l37 -45l12 -4l4 -6l23 -12l41 -7l61 9l5 6h14l24 20l39 47l11 29l2 35l-4 33l-13 32l-4 2v9l-20 22l-52 37z" />
<glyph unicode="&#x26;" horiz-adv-x="1419" d="M502 375l-2 2l-4 33l8 63l18 47l8 12l2 11h5l36 53l45 51l11 12l12 3l57 34l39 23l60 12l8 6l47 4v4l33 5l26 12l60 6l35 4l63 12l66 15l65 12l14 2l58 27l12 10l19 31l-9 65l13 29l26 20l60 19l18 4l23 -8l12 -15l18 -65l9 -66l-13 -57l-26 -39l-27 -23l-10 -14l-13 -6 l-8 -10h-10v-4h-8l-12 -13l-13 -6l-4 -6l-26 -8l-37 -4l-43 -19l-15 -2v-4l-65 -8h-23l-8 -14l-14 -11l-8 -26l-7 -70v-10h-4l-10 -70l-14 -57l-27 -55l-18 -31l-23 -59l-12 -11l-37 -55l-6 -4l-12 -23l-50 -39l-16 -16l-16 -6l-29 -27l-23 -10v-4h-8v-6h-10v-4h-8l-53 -21 l-9 -2v-6h-8v-4l-26 -6l-11 -8l-59 -9l-64 -6h-36l-31 6l-64 5l-63 16l-31 12l-29 21l-32 10l-19 14h-8l-43 37v4l-35 27l-2 12l-22 19v6l-41 45v8l-19 33l-24 55l-4 66l-27 59l-4 63l2 17l6 4l-2 70l16 57l17 55l20 27l6 24l13 13l6 26l22 21l41 49l37 29l2 8l15 4l22 25 l12 2v4h9l22 14v4h10v4h9v4l28 8l25 13l33 4l8 4l65 6l9 2l22 25l-4 69v64l8 63l14 66l27 61l19 29l6 4v10l10 4v9l6 4l4 12l25 18l45 48l31 26l14 8h8l12 13l17 4l10 12l31 4l65 27l62 2l30 4l31 -2l64 -19l47 -10l59 -35l23 -18h10l4 -8l14 -6l19 -27l18 -18l6 -25l11 -12 l20 -52l14 -59l11 -63l-5 -35l-16 -58v-4h-4v-8h-4l-6 -24l-13 -19l-2 -10l-6 -4l-4 -13l-47 -49l-14 -6l-13 -12l-53 -21l-67 -16l-31 -2l-33 4l-29 10l-22 15l-14 4l-48 49l-2 10l-10 8l-4 29h-4v68l2 14l8 16l13 13l4 14l53 35h35l28 -6v-7h9v-4l26 -18l17 -27l8 -28 l14 -27l14 -10h17l16 6l19 16l4 15l10 10l2 20l6 11l2 30l-4 37l-8 31l-8 14l-2 15l-39 51l-4 6l-11 2l-4 8l-12 2l-27 17l-63 20h-29l-65 -10l-35 -2l-27 -10l-28 -19l-47 -43l-7 -14l-22 -21l-19 -26v-9l-6 -12l-8 -41l-8 -26l-4 -64l8 -65l4 -23l12 -29l15 -20l6 -21 l18 -14l2 -12l11 -4l10 -27v-16l-17 -31l-43 -45l-26 -8l-21 4l-12 10l-25 4l-28 12l-64 11l-32 -4l-7 4l-28 -9l-58 -32l-28 -19l-4 -6l-17 -2l-41 -45l-10 -16l-12 -11v-8l-6 -4l-2 -10l-19 -25l-18 -47l-13 -71l-6 -66l4 -31l21 -61l18 -62l39 -55l45 -47l35 -25l4 -8 l12 -2l15 -8l67 -14l31 -13h66l61 4l51 19l31 10l10 10l29 13l43 30h8l10 15l25 20l39 51l24 25l6 18l13 13l8 30l4 2l2 13l10 14l15 59l10 68l-4 33l-14 18l-31 6l-68 -14l-59 -20l-27 -15l-51 -43l-10 -12l-15 -8l-2 -13l-10 -10l-6 -24l-10 -9l-11 -49l-16 -20h-10v-6 l-31 -9l-35 3zM606 1010v-17h19l-2 17l-5 6h-8zM938 1124l2 -6l18 4l-6 4l6 15l-14 4zM135 338l2 -4h8l7 14v10l-15 -6l-4 -8zM571 932l2 -4l15 8l4 10l-6 4l-15 -8v-10zM561 971l4 -2l-2 8l-16 10l6 -14zM1014 674v-10h10v10h-10zM532 1114v-10h9v10h-9z" />
<glyph unicode="'" horiz-adv-x="425" d="M211 961l2 4v32l-4 17l16 61l17 55l10 56l20 63l23 60l10 67l6 27l39 57l4 6l13 2l24 21l64 10l28 -16h6l25 -25l6 -2v-8l8 -6l15 -58l-2 -32l-13 -31l-36 -55l-17 -19l-16 -47l-19 -22l-2 -15l-12 -10v-8l-10 -15l-2 -14l-8 -2l-27 -57l-29 -58l-20 -34l-4 -21l-9 -4 l-30 -57l-27 -35h-10l-8 -10l-17 2l-4 -4l-16 -2l-6 10h-9l-14 24l-2 13l4 18l10 12l2 13z" />
<glyph unicode="(" horiz-adv-x="757" d="M924 1731l4 -2l20 -27l13 -31l-7 -33l-20 -22l-33 -25l-12 -4l-4 -8l-15 -6l-51 -43l-49 -47l-47 -41l-4 -15l-10 -4v-10h-4l-3 -12l-12 -12v-9l-12 -10l-14 -31l-19 -22l-29 -57l-24 -64l-19 -43l-20 -61l-29 -58l-10 -14l-8 -29l-14 -30l-5 -21h-6v-8h-4l-6 -58l-6 -6 l-23 -57l-24 -57l-15 -45l-10 -11l-2 -14l-26 -41l-17 -65l-6 -19h-4l-25 -61l-12 -45h-4v-9h-6v-10h-4v-8l-11 -14l-2 -15l-10 -14v-12l-10 -6v-9l-18 -14l-5 -16l-4 -2l-2 -54l-28 -51l-15 -43l-26 -57l-2 -15l-11 -8v-10h-4l-10 -61l-10 -66l12 -63l27 -60l14 -29l-2 -18 l-6 -12l-17 -15l-2 -8l-20 -14l-8 -12l-29 -17l-10 -10l-43 -6l-10 4l-25 27l-25 59l-12 20l-6 29l-23 53l3 29l-7 27l4 55l5 6l2 47l4 4l2 17l6 6l4 33l6 4l8 14v8l15 15l2 12l10 12l8 31l2 43h4l21 45v10h4l18 60l8 10l11 26v11h4v8h6l2 12l27 55l18 52l29 59l12 31l4 24 l4 4v15l23 47l14 35v8l8 12l4 17l7 2v8h6l2 12l26 43l2 33l7 4v16l22 56l27 59l22 61l12 45l11 21l12 12v8h4v11h4v8h6l9 33l4 4l2 18l4 6h4l8 45l27 43l4 15l10 16l4 16l10 13l4 14l11 10v9l14 10v8l18 23l31 53l49 47l9 14l45 45l49 41l24 23l31 14l51 41l23 21l37 10 l10 -2l2 -6l10 -9v-8l12 -10zM760 1575v-4l10 -10l14 8l13 24h-19l-12 -8zM666 1534h-2l-2 -10l14 -6l24 -2l-8 14l-18 6zM717 1587l-17 -16l17 -4l16 8v18zM756 1626h4v10l-4 4h-15v-8zM709 1509v-4l14 6v13h-8z" />
<glyph unicode=")" horiz-adv-x="757" d="M680 653l-2 -4h-4v-24h-4l-25 -60v-10h-4l-2 -23l-18 -24l-3 -12l-8 -7l-2 -12h-4v-10h-4v-8l-8 -13l-6 -34l-11 -21l-12 -43l-10 -10v-8l-27 -58l-10 -8l-4 -28l-12 -27l-2 -16l-23 -54l-24 -18l-2 -15l-11 -14l-20 -55l-4 -14l-25 -33l-2 -15l-20 -12l-15 -26l-49 -46 l-47 -47l-6 -14l-12 -2l-21 -25l-49 -32l-53 -43l-41 -25l-23 -4l-16 2l-29 18l-12 23l-19 22l-12 39l6 25l23 33l12 2l25 24h10l8 15l12 2l54 45l22 24l8 15l45 45l43 39l2 12h5v8l32 49l19 39h4v10l14 13l19 61l26 58l21 49l4 32l10 9v14l19 25l14 30l8 33v14l31 56l20 59 l6 6l25 62l22 59l21 55l14 27l19 59l14 31l8 31h6v10l9 4v10h4v9l8 10l10 33l8 14l6 4l5 18l6 5l4 32l10 33l14 27l19 61l14 23l2 14h4l23 61l20 48l19 63l16 29l4 26l-10 23l-4 33l-23 61l-24 59l2 15l20 26h11l8 15h10l37 33l31 8l30 -13l23 -24l4 -14l29 -56l22 -53v-16 l4 -9v-73l4 -58l-4 -4l-2 -33l-8 -14l-4 -22h-4l-15 -52h-4l-6 -34l-20 -41l-23 -56l-12 -32l-14 -25l-7 -31l-6 -12v-16l-49 -111l-33 -55l-20 -56l-10 -22l-17 -60l-20 -59l-8 -24l-23 -37zM487 502v-6l7 -4l4 -11l24 2l8 4l-2 9l-16 10v16l-4 8l-6 2zM612 709l2 4l25 14 l2 18l-27 -4l-6 -8l10 -10v-4l-8 -4zM477 424l-2 -2l6 -14l17 -5l14 5v10l-10 8zM502 461v-6l10 -2l16 4l2 6l-10 10zM653 774l2 -4l15 8l4 17l-10 6l-2 -8l-11 -13zM449 291l2 -4h8l6 6v12l-14 4l-5 -6zM561 535l-4 -3l6 -12l8 -2l9 4l2 6l-4 7h-17zM575 625v-9h11v9h-11z M483 375v-8h11v8h-11z" />
<glyph unicode="*" horiz-adv-x="866" d="M584 1491h49l41 -43l8 -33l-2 -20l-10 -23l-2 -16l-39 -56l-25 -30l-2 -15l-6 -4l-18 -37l-7 -4l-2 -10l-8 -4l-2 -10l-8 -4l-6 -15l2 -16l8 -12l27 -9l18 3l33 12h10v4l64 4l65 4l47 6v-4l17 -4l36 -33l5 -12l6 -4l8 -31l-6 -31l-21 -26l-26 -17l-31 -10l-6 4h-33 l-25 11h-22v4l-35 2l-14 10l-62 18l-32 9l-9 8l-18 -6l-10 -9v-30l24 -58l8 -36l17 -23l4 -12l12 -15l19 -55l8 -33v-30l-4 -17l-15 -22l-26 -17l-35 -10l-25 2l-8 10h-8l-23 25v6l-16 18l-2 64l-4 6v64l-6 65l-4 49l-23 21l-28 -15l-48 -45l-4 -6h-8l-45 -41l-47 -47 l-39 -20l-29 -4l-16 2l-37 18l-22 33l-7 33l13 30l6 6v11l24 20l31 17l60 24l10 2v4l43 15l33 10l26 14l27 21l2 16l-6 12l-37 29l-19 4v4l-18 15h-8l-19 18l-14 4l-14 10l-33 11l-4 8l-29 16l-37 41v8l-6 11l2 30l13 31l36 33l31 2l27 -6l12 -11l12 -4l4 -8l35 -24l2 -13 l8 -4l7 -14l12 -8l6 -15l12 -8l6 -14l15 -10l4 -15l14 -8l4 -14l33 -31h27l12 12l14 64l25 127l6 32l16 25z" />
<glyph unicode="+" horiz-adv-x="1187" d="M719 670l2 -4h197l61 4l16 -2l21 -17l4 -8l-6 -47h-6v-10h-4l-9 -31l-14 -29l-25 -18l-14 -4h-22l-27 10l-51 -10l-4 4l-64 -2l-29 -2l-67 6l-33 -4l-27 -14l-20 -25l-4 -12l-6 -6l-15 -43l-26 -62l-6 -18h-4l-5 -17l-6 -6l-2 -16l-20 -43l-23 -56l-6 -28l-18 -19l-15 -4 l-4 -6h-4v-4l-65 -2l-31 6l-35 29l4 47h6l21 59l24 51v9h7v10h4l8 41h6v10l8 4l4 25h4l17 55l-8 14l-13 11l-4 8l-61 -2l-68 4l-65 2l-37 -4l-43 6l-25 20l-4 17l6 31l15 8l22 61l10 12l17 7l65 -4l62 10h67l66 -4l28 -2l29 4l27 18l33 60l16 59l8 10l23 64l6 14l4 2l8 33 l33 55l26 45l13 10l30 7l70 -7l19 -2l20 -22v-25l-27 -65l-22 -62l-25 -55l-24 -43l-2 -12h-4l-11 -49l2 -11zM483 528v-6l19 2l12 8l2 9l-14 4l-15 -8zM584 623l2 -5h8l10 15l-4 14h-4l-2 -8l-12 -14zM625 610h4l-8 15l-11 4l2 -17z" />
<glyph unicode="," horiz-adv-x="509" d="M190 233h5l8 5l65 -15l31 -10l20 -14l19 -21l2 -12l6 -6l10 -54v-38l-16 -66l-10 -29l-6 -4v-14l-9 -4v-8l-12 -11l-6 -14l-12 -10l-2 -12l-13 -9l-6 -14l-24 -23l-21 -26l-22 -21l-15 -8l-20 -24h-10l-5 -11h-8v-4h-10v-4h-8v-6l-21 -2l-8 -10h-8l-6 -10h-8l-25 -19 l-37 -8v-4l-6 -2l-14 6l-31 41v14l6 19l17 20l10 2l10 14l14 7l11 14l12 2l14 18h8l15 19l24 14l25 23l20 28l9 31l-2 17l-37 51l-9 14l-6 61l2 35l9 31l22 27l23 18z" />
<glyph unicode="-" horiz-adv-x="983" d="M821 641l8 -4v-16l-18 -54l-10 -6v-8h-4v-10h-4v-8l-25 -19l-23 -10l-32 -6l-74 6l-33 -4l-63 6l-68 -6l-63 4l-68 -4h-25l-28 10l-10 12l-2 33l14 68l2 6l12 8l2 8l10 10l19 7h22l15 6l47 -2l16 6l64 -10l63 6l66 2h65l66 -2h22l25 -11l10 -10zM700 575h5l10 19l-2 14 h-15l-4 -6v-16z" />
<glyph unicode="." horiz-adv-x="509" d="M109 37l-5 2l-4 65l9 68l28 37l15 4l12 12l24 8l35 5l37 -2l21 -7l4 -6l14 -4l39 -43l10 -26l10 -70l-10 -31l-33 -43l-10 -12l-10 -2v-4h-10v-4h-9v-7l-59 -10l-20 2l-4 4h-17l-22 13zM223 125l-4 -2l6 -14l15 6l4 12zM281 82l4 2v8l-6 6h-13v-10l4 -6h11z" />
<glyph unicode="/" horiz-adv-x="909" d="M979 1694l4 -2v-31l-25 -62l-24 -59l-21 -59l-12 -39l-6 -4l-18 -52h-5v-10h-4v-8l-14 -25l-18 -59l-29 -55l-12 -51h-7v-9h-4v-10h-4v-8h-4v-10h-6l-6 -27l-19 -33l-6 -4l-2 -10h-4l-14 -61l-25 -64l-4 -14l-16 -19v-10h-6v-8l-4 -4l-7 -43l-8 -8l-18 -60l-4 -2v-8h-4 v-10l-9 -19l-6 -4v-10h-4v-8l-16 -29l-2 -14l-25 -60l-8 -28h-4v-9h-6v-10l-6 -4l-2 -14l-15 -29l-4 -37h-4l-20 -45l-25 -57l-18 -45l-9 -4l-20 -60l-23 -61l-6 -29h-4l-8 -30l-12 -21l-9 -31l-6 -6l-20 -55l-25 -60l-26 -61l-15 -25l-10 -8l-12 -30l-6 -33l-23 -58 l-16 -16l-31 -10l-29 8l-24 23l2 28l22 68l27 57l24 60l31 45l2 32l21 60l2 18l10 8l14 43l11 11l22 61l4 6l2 25l13 12l6 25l12 12l6 31l25 61l16 51l12 25v8l31 59l4 17l15 26l18 52l6 4v10l8 2l6 21l7 8l6 32l12 41l29 60l22 61l2 17l10 12v14l11 11l2 16l6 6v10l4 2 l20 43l5 17l14 16l6 29l6 8l6 33l31 55l14 47l7 4l22 58l16 63l27 59l31 58l6 33l25 59l10 14l2 15l6 6l2 16l10 8l8 29l11 4l10 25l35 22l33 -4z" />
<glyph unicode="0" horiz-adv-x="993" d="M55 643l4 4l-2 33l6 33l19 49l22 57l19 51h6v9h4v10l8 4l6 25l15 26l22 62l31 53l35 55l35 51l16 29l41 49l23 27l6 14l94 90l20 25l15 4l4 10l12 2l25 19l43 20l4 6l28 13l5 6l61 14l61 6l54 -6l4 -4l63 -16l49 -39l29 -37l2 -8l10 -9l2 -12l17 -29l14 -57l8 -63v-72 l-8 -66l-10 -61l-4 -49l-6 -13l-4 -32l-5 -8v-21h-4l-20 -61l-4 -31l-17 -64l-20 -45l-25 -63l-22 -60l-29 -57l-31 -59l-2 -8l-12 -11v-8l-10 -14l-2 -15h-4l-2 -14l-9 -4v-8l-18 -25l-31 -57v-8l-24 -23l-10 -20h-5l-14 -17l-2 -8l-35 -41l-26 -20l-2 -9l-25 -22l-16 -27 l-31 -28l-12 -2l-23 -23l-49 -16l-6 -6l-15 -3l-28 -14l-17 -4v-4l-63 -27h-64l-61 11l-16 2l-5 6h-8l-51 35l-8 6l-8 18l-23 25l-24 35l-5 2v8l-6 12l-2 35l-4 6v16l-6 11l-4 69l-4 64l8 65v66l16 63l13 64zM698 1339h-4l-14 -10h-8l-29 -18h-10v-4h-8l-21 -25l-12 -8 l-17 -31l-28 -24l-2 -11l-13 -10v-4l-6 -4l-37 -55l-8 -15l-6 -4l-2 -12l-6 -6l-29 -56l-37 -57l-10 -29l-4 -2l-2 -14l-31 -57l-22 -60l-10 -30l-7 -7l-24 -59l-17 -47l-20 -62l-23 -59l-20 -61l-14 -66l-15 -63l-10 -66l-8 -74l6 -22l14 -31l21 -26l45 -21l55 8l6 13l33 8 l6 12l15 4l41 51l38 33l5 14l36 37l4 15l13 12l8 31l10 12l6 16l25 31l27 59l18 27l2 16l10 15l10 30l29 60l23 53l16 35l10 8l17 64l4 16l10 10l14 64l21 59l16 62l19 61l4 33l4 8l4 65l6 29l-4 70l-10 26l-25 27l-16 12v4l-37 4zM731 487l4 -2l-8 29h-33l-4 -8l6 -12z M799 766l-2 -2l6 -14l14 -9l21 4l-11 23zM147 621h-6l-8 -15v-14l17 4l10 18zM786 649l-4 -2l2 -10l9 -6l12 10v6l-8 4zM272 918h4v16l-10 10l-6 -2l2 -16zM154 555h6v18h-13v-16zM877 977h-7l2 -8h17l4 8l-6 4zM291 985v-12h8l6 8zM104 295l-4 -8l15 -6l-2 8zM782 551v4h-8 l-4 4l-2 -8l8 -4zM115 489l-4 -8h8l4 8h-8z" />
<glyph unicode="1" horiz-adv-x="765" d="M139 20l-4 3l-2 14l19 63l4 15l10 14v12l14 21l10 37h5l22 61l21 49l22 60l8 14l2 12l17 25l6 33l18 43l27 59l22 63l9 23l6 2v10h6v9h4v10h4v8h4v10h6l2 23l13 22l2 25l24 41l11 30l12 21l20 61l11 13l8 30v21l-17 4l-45 -45l-49 -47l-6 -4l-2 -13l-49 -45l-45 -49 l-43 -45l-47 -47l-54 -47l-24 -16l-23 -2l-26 20l-21 27l-4 28l16 27l50 47l41 41h8l16 25l37 34l4 13l47 45l47 49l41 49l37 35l2 8l25 25l41 51l22 22v9l25 20l2 8l12 10v9l43 47l41 49l33 49l2 12l41 50l25 30l12 2l6 6l16 5l74 -5l29 -6l16 -10l12 -18v-31l-14 -31 l-6 -4l-4 -12l-10 -13l-11 -30l-18 -53l-14 -23l-9 -33l-6 -4l-4 -24l-8 -23l-12 -12l-19 -60l-20 -49l-10 -8l-19 -61l-18 -50l-2 -14l-7 -6l-4 -14l-10 -13l-4 -14l-10 -14l-6 -31l-62 -154l-10 -14l-14 -47l-11 -8v-15l-22 -59l-19 -53l-14 -23l-24 -59l-13 -29v-8 l-10 -10l-6 -29l-14 -31l-21 -61l-12 -19l-8 -32l-7 -6l-22 -60l-12 -12l-7 -25l-12 -12l-12 -27l-12 -12l-13 -6l-32 -4l-39 2l-31 6l-12 6zM674 1169l4 -2l8 13l-4 16l-14 8l-4 -6l2 -16zM455 541v4l-13 4l-2 -8h15zM631 1087v-8h8v8h-8z" />
<glyph unicode="2" horiz-adv-x="888" d="M150 199v-4l4 -9l12 -8l63 -4h68l63 -2l50 -6l63 10l31 -4l67 2l15 -4l12 -12v-23l-20 -65l-13 -31l-18 -27l-17 -14h-63l-25 -2v-4l-63 2l-66 4l-30 2l-31 -4l-64 4l-65 -4l-66 -2h-65l-68 2l-65 6l-15 2l-14 10l-4 15l14 63l6 8l4 17l29 51l10 27l25 28l53 39l13 12 l14 7l12 12l27 14l24 21l21 26l43 37l26 19l23 24l47 39l49 45l49 43l25 23l10 4l47 45l90 94l39 29l4 14l41 51l45 49l9 15l28 24l6 19l9 2l6 20l10 15l4 14l8 4l9 14l10 9v10l12 12l21 62l12 43l6 59v70l-6 18l-37 49l-27 14l-26 5h-35l-66 -17l-30 -14l-19 -14h-8 l-45 -46l-35 -51l-20 -22l-6 -13l-15 -63l-4 -4l-10 -64l-27 -20l-24 -10l-64 -4l-43 10l-14 31l-4 32l4 33l10 33v16l25 58l16 47l12 10l8 16l15 8l10 21l25 22l18 27l29 21l33 12l47 45l6 6l57 23l68 12l61 10h10l15 -6h55l4 -4l43 -10l4 -4h15l12 -7l4 -6l10 -2v-4h10v-4 l54 -35l28 -31l4 -16l9 -8l12 -59l4 -5v-14l10 -8l6 -66l-6 -61v-41l-6 -4v-14l-12 -41h-6l-13 -52h-6l-8 -26l-16 -29l-9 -6v-8h-4l-2 -13l-20 -26l-4 -17l-11 -6v-8h-4l-2 -12h-4l-16 -21l-2 -12l-15 -8l-20 -25l-20 -16l-7 -16l-14 -13l-14 -26l-45 -50l-23 -20l-4 -8 l-33 -25l-2 -8l-18 -20l-13 -5l-49 -51l-22 -24l-12 -4l-48 -48l-26 -16l-47 -43l-49 -39l-52 -39l-49 -41l-47 -41l-12 -8zM6 143v-4l-10 -20l6 -17h18l5 7l-7 47l-8 2zM59 109l2 -3h19l4 9l-10 10l-4 25l-4 4l-9 -15zM-39 76l-2 -2v-8l10 -13h25l4 8l-2 7l-8 6zM145 59v-4 h9l4 11l-8 4z" />
<glyph unicode="3" horiz-adv-x="960" d="M-18 465l38 39h66l31 4l33 -4l10 -15l14 -10l-6 -33l-14 -30l-11 -62l-8 -14l-10 -59l2 -39l6 -31l12 -33l17 -24l26 -21l64 -20h35l59 18l31 10l26 17l11 12l16 6l8 12h8l43 50l46 49l30 39l2 8l4 2l2 35l9 32l22 60l2 55l2 37l-4 37l-12 29l-31 43l-16 6l-10 10l-64 8 l-72 6l-22 15l-8 30l22 64l17 22l14 31l22 16l7 11l34 4l31 -2l47 6l64 29l16 4l49 34l15 13l14 6l22 27l19 14v10h4v8h6v11l8 4l11 30l30 54l6 18l-4 66l-4 34l-8 31l-20 29l-21 18l-31 17l-20 4h-33l-39 -6l-61 -23l-8 -12l-15 -6l-49 -45l-2 -11l-12 -8l-6 -14l-19 -15 v-8h-6l-16 -59l-19 -41l-28 -21l-29 -4l-70 2l-26 6l-17 19l-4 33l6 32l21 58l18 22l14 25l5 12l12 12l4 15l43 47l20 27l35 34l56 35h8v4h10v6l39 13l63 10l66 6l33 4l32 -4l29 -12l33 -8h47l29 -13l10 -10h8l4 -10l27 -17l10 -10l6 -14l19 -19l4 -14l10 -8l12 -59l8 -68 v-59l-12 -62l-14 -45l-14 -33l-7 -6l-6 -16l-45 -49l-41 -54l-20 -22l-54 -37l-22 -8l-12 -13l-15 -2l-30 -18l-21 -20l2 -25l43 -49l6 -12l15 -13v-8h4v-10l10 -10l12 -31v-15l8 -12l7 -31l-2 -67l-9 -70l-14 -59l-16 -47l-6 -4l-5 -31l-24 -39l-4 -16l-23 -27l-16 -27 l-31 -41l-22 -24l-9 -14l-51 -37l-18 -15l-43 -18l-25 -16l-39 -21l-12 -2l-6 -6l-66 -10l-47 -15l-65 6l-64 5l-33 2l-30 10l-39 24l-15 2l-8 13l-28 10l-19 18l-35 64l-12 22v11h-4l-4 22l-8 10l-6 58l4 71l8 31l2 35l6 29l20 34zM702 596h5l4 6l-2 8l-13 4v-10z" />
<glyph unicode="4" horiz-adv-x="1015" d="M475 -2l-2 -4l-65 6h-35l-31 6l-8 12l12 33l16 27v33l17 65l22 33l2 12h5v10h6l14 58l8 12l4 18l-2 19l-10 12l-27 8h-67l-68 -2l-65 4l-66 -4l-63 4l-66 -6l-33 4l-18 11l-10 16l2 16l28 50l11 12l2 31l4 2v16l18 35l43 45l51 45l23 25l12 20l15 8v10l8 5v8l47 47l45 49 l70 70l2 12l24 20l19 27l47 45l43 51l41 45l43 37l2 12l24 23l21 29l43 45l45 45l2 12l25 23l20 26l16 12l2 13l99 90l26 16l62 11h74l47 -9l18 -20v-33l-12 -25l-17 -51l-26 -57l-2 -8l-6 -4l-9 -25l-2 -22l-22 -31l-4 -14l-11 -15l-2 -22l-6 -7l-6 -22l-20 -45l-23 -70 l-10 -28h-4v-11h-6v-8l-9 -14v-10h-6v-9h-4l-8 -32h-6l-6 -33l-21 -53l-4 -13l-10 -4v-8h-4v-10h-4v-8h-6l-21 -62l-18 -53l-2 -6h-4v-10h-7l-8 -33l-4 -4v-17l21 -24h34l4 4h15l12 10l31 4l31 -12l28 -23l8 -12v-16l-14 -27l-51 -41l-31 -27h-10v-4l-25 -8l-12 -12h-10v-4 l-64 -13l-18 -2l-27 -14l-24 -22l-6 -15l-17 -16l-18 -60l-19 -57l-30 -61l-19 -60l-4 -14l-10 -10l-4 -17zM739 1165l-6 -6l-41 -49l-90 -98l-39 -41l-6 -15l-49 -47l-47 -49l-17 -16l-41 -56l-43 -45l-45 -45l-43 -51l-22 -26l-27 -23l-20 -25l-4 -26l10 -12l16 -11l31 -4 l66 4h30l15 -6v6h131l12 4l4 9l12 2l17 22l24 66l25 59l24 62l27 61l21 55l26 49l4 37l8 27l29 47l8 33l11 10l2 23l12 24l10 39l-8 14zM588 520l-4 -2l-9 -12v-10l-10 -11l-4 -12h21l16 25l10 2l6 -4l13 4v18l-31 4zM559 406l2 -3l4 -22l15 -6l4 4l-2 14l-13 13l-4 12h-14 l2 -8zM954 1315l-4 -2l6 -15l17 2l2 9l-4 6h-17zM672 645h10v19l-10 8l-4 -6zM219 412l-2 -4l6 -7l15 2l4 15l-19 -2zM145 408l-2 -5h19v19l-15 -6zM729 741v-14h8l4 10z" />
<glyph unicode="5" horiz-adv-x="978" d="M471 1059l2 -4l10 -4l62 16l10 6l61 2l56 -6l4 -6l33 -4l51 -33l31 -25l4 -12l12 -8l22 -33l7 -24l2 -31l10 -25l10 -63l4 -6l-6 -33v-31l-8 -63l-4 -64h-4l-17 -63l-16 -62l-27 -55l-14 -31l-6 -6v-14l-10 -8l-2 -15l-29 -55l-27 -39l-41 -53l-16 -25l-10 -8v-10h-4 l-9 -17l-45 -43l-49 -36v-5l-55 -36l-29 -19l-47 -18l-49 -13l-8 3l-2 4l-27 -9l-63 -8l-50 6l-22 2l-27 13l-35 8l-30 12l-51 41l-5 4v8l-22 23l-16 51l-13 58l-4 65l2 70l12 67l11 47l10 13l6 20l6 6l2 13l8 2l11 12l63 6l35 -4l29 -8l20 -17l6 -14l-10 -55l-18 -56 l-4 -10v-39l-9 -61l9 -51l10 -17l2 -14l16 -23l35 -26l35 -2l63 16l29 14l49 35l27 23l16 28l45 46l13 10l6 20l12 13l8 14v8l19 29l14 37l10 4v10h4l13 47l24 55l21 64l24 61l21 62l6 59v74l-4 28l-17 31l-20 25l-12 8l-35 6h-33l-31 -6l-45 -25l-14 -2l-19 -18l-12 -2 l-37 -51l-24 -41l-9 -2l-14 -27l-22 -27l-21 -16l-14 -6h-15l-18 8l-4 6l-61 25l-9 4l-20 24l20 64l4 22l11 13v10h4l20 61l8 23l9 10l14 35l10 10l2 23l23 53l6 2l4 25l8 12l21 53v8l10 9v10h4l6 31l25 53l6 12l8 35l23 53l24 33h8l7 10l12 2l6 6l27 -2l38 -10l64 -8 l68 -10l57 -11l67 -4l64 -2l66 13l16 2l43 16l31 -2l28 -16l25 -29l8 -27l-18 -45l-39 -39l-11 -2v-4h-10v-4h-8v-4l-57 -14v-4l-47 -17l-15 -6h-53l-10 12l-51 4l-31 -10l-19 -2l-6 4v4l-61 8l-66 11l-12 -2l-25 -21l-28 -61l-10 -33l-11 -8l-16 -60zM379 1028v-6l10 -10 l33 -13l-2 9l-14 18l-3 14l-20 -8zM360 922v-7l11 3l4 34l-19 4l6 -30zM285 938h6v10l-6 4l-6 -6zM782 743l-4 -8l10 -6l5 10zM694 1296v-10h11v10h-11zM330 901l-2 4l-13 -8v-4h7zM788 1296v-10h9v10h-9z" />
<glyph unicode="6" horiz-adv-x="964" d="M809 1051l-4 2l-4 30l10 68l12 41l-4 63l-2 33l-6 15l-31 34l-20 4l-2 5l-29 4l-63 -25l-27 -16l-45 -43l-43 -54l-31 -38h-4l-6 -15l-12 -10l-31 -55l-31 -45l-2 -15l-10 -10l-18 -51l-11 -8l-2 -15l-10 -14l-4 -25l4 -8l14 -6l17 2l28 16l58 19l26 12l27 6h74l63 -14 l29 -8l33 -25l4 -12l20 -23l31 -55l6 -18h6l6 -60l2 -71l-8 -64l-6 -63l-4 -7v-18l-4 -4v-14l-23 -50l-18 -65l-23 -39l-28 -59l-15 -29l-8 -2l-4 -14l-12 -11v-10l-8 -4l-39 -53l-39 -45l-45 -29l-45 -47l-23 -10l-10 -11l-23 -6l-47 -24l-55 -13l-72 -4h-53l-4 6l-33 7 l-20 8l-13 10l-28 10l-47 41l-9 17l-16 14l-4 18l-10 13l-2 14l-6 6l-17 45l-4 70l-4 67l2 64l14 65l13 66l2 23l6 10l6 65l16 64l23 63l26 56l9 30l12 25l4 33l6 4l19 43l8 22l31 56l16 28l2 15l37 49l6 4l6 28l21 25l2 14l22 23v8l10 10l7 15l43 47l22 24l17 25l26 22 l33 39l12 2l17 19l28 14l23 17l8 2l10 10h10l11 10l30 14l64 15l63 8l31 6l47 -6v-4l31 -6l29 -13l39 -26l8 -12l20 -19l4 -12l13 -15l20 -36l12 -58l9 -30v-68l-5 -57h-4v-19h-6v-18h-4l-2 -19l-14 -24l-27 -21l-31 -4h-69l-15 2l-4 8zM526 825h-4l-47 -14l-57 -31l-8 -2 l-4 -8h-11l-49 -47l-29 -27l-2 -14l-14 -8l-12 -21l-13 -8l-14 -29l-10 -8v-8l-8 -6l-21 -66l-8 -18l-14 -51l-8 -51l-7 -9l-12 -65l-4 -72l4 -63l4 -13l10 -10l5 -14l20 -12l2 -7l14 -4l13 -12l34 -4l31 2l29 10l57 29l8 2l21 27l37 32l6 17l14 8v10l10 4l3 15l32 34l4 13 l7 4l28 59l23 41l20 51l25 64l12 59l10 68l2 35l-14 57v6h-4v8l-51 41l-31 10h-20zM147 643l-2 -4l19 -12h10l4 6l-4 20h-10zM231 881l-6 -4v-15l6 -4l17 2l4 4v8l-8 11zM283 754l2 2l-2 14l-7 4h-14l4 -18l13 -4zM184 721l4 -2l5 8l-5 8l-10 6l-4 -6zM229 696h4l5 6l-2 9 l-7 4l-4 -8zM350 1010v-4h8l4 8l-8 6zM383 1141v-11h8v11h-8z" />
<glyph unicode="7" horiz-adv-x="888" d="M793 1233v4l-25 23l-59 4l-68 6l-98 6l-64 14l-30 -8l-21 -14l-14 -19l-4 -14l-9 -2l-2 -12l-10 -17v-6l-16 -24l-17 -64l-20 -43l-25 -31l-69 -14l-49 2l-25 18l-6 19l-6 4l6 14l6 35l16 35l11 10l2 15l22 63l4 16l13 7l16 53l14 35l6 6l2 14l27 59l16 25l31 16l64 -8 l63 -6l62 -8l69 -4l64 -10l63 -5l35 -4l10 -6h66l14 -4l66 12l26 9l29 14l35 10l26 -6l31 -29l8 -32l-14 -43l-25 -19l-16 -31l-41 -47l-31 -51l-41 -45l-12 -25l-2 -16l-14 -24l-17 -19l-4 -14l-10 -4l-4 -15l-12 -10l-33 -51l-2 -8l-13 -11l-30 -49l-19 -26l-2 -13h-6 l-4 -14l-12 -8l-6 -23l-13 -10l-6 -12l-20 -19l-2 -10h-6l-7 -24l-12 -13l-2 -14l-18 -27l-2 -10h-5l-12 -33l-10 -10l-6 -18l-8 -4l-15 -27l-10 -10l-31 -60l-30 -53l-31 -59l-29 -60l-35 -53l-30 -57l-15 -31l-6 -6l-10 -31l-29 -55l-20 -29l-2 -12h-4l-21 -60l-18 -18 l-31 -6h-66l-28 4l-47 14l-19 13l-8 30l12 35l6 21h5v8h6l2 12l33 62l16 43l8 4l2 12l31 57l2 8l12 11l4 14l11 4l2 12l32 56l25 35l12 30l29 47l37 52l6 6v8h4l20 47l25 25l25 30v11l4 2l2 10l22 24l4 15l9 4l30 39l2 12l37 51v6l43 50l4 14l13 8l6 14l20 25l4 14l13 13v6 l41 51l45 47l20 25l2 12h4l31 39l2 12l10 10zM438 1364l2 -6h17l6 4l-2 16l-4 6l-8 2zM373 1311l2 -4l-2 -9h6v31l-4 4l-15 2v-10zM324 1266h-5v-13l7 -6h6l18 17l-4 6l-8 -6zM356 1372v-6l23 -4v10l-14 14zM453 573v-4l16 4l8 15l-18 -2zM418 1305l-2 -2l10 -5l4 9l-8 4z " />
<glyph unicode="8" horiz-adv-x="962" d="M526 37l-4 -2l-61 -19l-60 -32l-51 -4l-4 -5l-61 -4h-70l-33 4l-55 25l-23 8l-16 -2l-2 6l-33 8l-8 13l-27 16l-26 27l-2 10l-10 4l-3 14l-10 13l-20 61l-6 27l-7 67l9 64l10 63l18 64v8h4l5 25l32 55v8l37 51l19 29l43 47l22 25l8 2l33 32h10v5l15 4l4 10l14 4l31 20 l16 3l27 14l14 18l-14 47l-10 9l-2 14l-11 14l-10 54v34h-4v64l20 61l11 66l6 22l16 19l10 33l35 49l45 51l19 20l18 9l4 10h11l4 8l12 2l8 14l51 37l68 13l14 4l12 12l58 6l72 2l30 -4l66 -18l39 -19l12 -4l23 -22l28 -21l15 -18l2 -11l6 -2l26 -41l15 -65l4 -31l-8 -33 v-63l-19 -47l-6 -6l-10 -50l-17 -38l-12 -13l-6 -24l-31 -39l-49 -49l-33 -39l-18 -6l-8 -13l-11 -2l-6 -10l-32 -14l-23 -21v-31l23 -28l16 -45l10 -13l8 -28l9 -15v-8h6l6 -59l2 -70l-17 -63v-35l-12 -35l-16 -31l-6 -24l-33 -49l-21 -29l-2 -14l-10 -11l-2 -8l-31 -43 l-14 -6l-47 -41l-25 -20zM129 203l16 -23l48 -47l28 -14h64l65 10l64 25l24 14l47 43l39 53l27 41h4v8h4v11h4v8h6l9 28l6 5l10 30l14 27v33l6 32l7 13l4 30l-17 82l-12 17l-2 14l-37 31l-20 6v4h-11v4l-55 10l-61 -4h-9l-4 -6l-30 -10l-54 -33l-53 -43l-16 -14l-6 -17 l-13 -8l-10 -20l-31 -39v-8l-18 -39l-6 -2l-10 -35l-9 -8l-10 -64l-6 -33l4 -65v-47zM590 1309l-2 -2h-10l-43 -47l-13 -23l-10 -10l-10 -23l-13 -10l-2 -16l-10 -15l-14 -47l-10 -10l-11 -55l-4 -37l4 -51l7 -9v-10l8 -4l8 -20l24 -23l29 -12l70 -4l26 4l19 8h14l27 20 l10 13l16 6l43 49l33 55l25 62l10 24l2 17l4 4l10 53l-6 61l-10 27l-35 43l-22 12l-33 9h-55l-50 -21zM551 776v-4l18 -8l4 27h-10zM516 766l6 2l-2 20l-12 3l-4 -15zM639 700l4 -2v11l-8 10l-14 2l2 -8zM596 764v-6l8 2l6 22h-8zM371 965l4 -2l-2 16l-4 6h-9l5 -14z M383 881v-7h10l8 11l-6 4l-8 -2zM387 1092v-5l8 3l2 18l-4 4zM633 688l-4 -8l10 -4l4 8z" />
<glyph unicode="9" horiz-adv-x="948" d="M150 166v-4l8 -4l20 -25l55 -12l31 6l31 14l18 15l9 2l20 22l27 21l16 24l45 51l23 25l2 12l16 29h4v10h4v8l10 7v8h5v10l20 25l6 20l12 12l3 13l10 4v10h4v8l16 37l15 25l6 26l-8 6l-15 2l-53 -26l-59 -21l-9 -2l-4 -6l-65 -2l-27 -4l-35 2l-47 16l-18 9l-17 18l-14 4 l-29 27l-4 14l-8 4l-20 56l-21 65l-4 29l6 65l6 68l15 65l4 25l4 4l4 33h6l8 33l4 4l9 34l12 25l33 49l12 31l18 27l13 26l22 23l14 24l15 15l12 20l51 49l56 37v4l22 13l4 6l15 6l8 10l24 4l60 23l30 12l60 10l65 -6l13 -2v-4l45 -14l28 -11l11 -10l12 -2l4 -10l12 -2 l33 -27l4 -14l15 -8l2 -15l8 -2l2 -16l4 -4l14 -64l13 -33l6 -57l-2 -70l-7 -67l-8 -59l-12 -64l-8 -20l-4 -37l-21 -62l-16 -63l-15 -49l-6 -4l-14 -56h-4l-21 -57l-22 -55l-35 -60l-27 -57l-10 -17l-4 -14l-10 -14v-8l-37 -50l-37 -55l-39 -51l-45 -49l-20 -29l-27 -20 l-33 -37l-26 -17l-4 -8l-52 -33l-53 -22l-67 -14h-15l-14 -7l-64 2l-38 -6l-52 17l-12 12l-12 2l-47 39l-33 55l-17 27l-16 55l-4 68l2 35l6 24v37l15 45l28 33l35 10l66 2l24 -6l14 -10l11 -15v-32l-15 -64l-12 -63l16 -62zM643 1343l-2 -4h-8l-10 -8h-9l-47 -33l-69 -69 l-17 -25l-24 -26l-4 -11l-13 -10l-32 -55l-19 -35l-24 -59l-17 -27l-10 -29l-4 -32l-19 -66l-8 -29v-75l6 -33l9 -27l28 -26l27 -17l24 -2l19 -6l31 4l51 16l24 9v4h9l8 12l16 6l19 25l14 6l43 47l37 47l12 10l8 15l8 6l5 12l16 23l18 59l17 68l8 14l2 16l6 4v31l8 45l6 4 l5 66l-5 67l-6 35l-16 25l-16 16h-9l-12 10l-29 7l-34 2l-9 -7h-12zM739 639h4l17 4l6 14l-6 13l-4 24l2 15l-19 14l-10 -4l12 -21l7 -26l-19 -15l-6 5l-16 -3l-9 -10l23 -22h8zM748 739l6 -12l16 4l8 12l2 13l-8 4l-14 -2zM567 340l4 -2l11 22l-11 11h-8l-4 -6l2 -17z M834 866l-3 -4l7 -4h16l-2 8l-12 4zM659 602v-18h11v18h-11zM256 690l-4 -8l10 -6l4 10zM797 815l-2 -4l10 -4l4 8l-10 6zM680 481l-2 -4l10 -4l4 8l-8 6zM711 715v-10h10v10h-10zM57 272l-4 -8l15 -4l-2 8zM674 709v-9h6l4 9h-10z" />
<glyph unicode=":" horiz-adv-x="606" d="M598 696l-2 -4l-61 -12v-4l-31 -12l-43 6l-23 14l-47 47l-20 31v31l16 67l16 23l52 39l26 12l64 -8l37 -31l24 -25l17 -26l18 -56l-4 -32l-16 -31zM129 203l2 4l47 8l29 12l33 6l16 -2l14 -8l2 -8l15 -8l12 -14l31 -11l20 -20v-12l8 -19v-33l-6 -28l-18 -47l-29 -33 l-10 -2v-4l-33 -11l-29 -4l-34 2l-33 11l-47 30l-2 13l-6 6l-11 28l-6 33l2 35l15 18v25zM240 123l-2 -4l18 -15l16 7l4 10l-2 6zM178 109v-5l12 5v14l-12 4l-4 -8zM526 768h4l7 14l-2 6l-9 3v-23z" />
<glyph unicode=";" horiz-adv-x="606" d="M25 -184l4 2l47 45l51 45l16 14l4 12l11 13l2 16l-15 31l-22 24l-6 13l-8 4l-11 28l-4 29l2 45l13 19l2 14l10 8v10l24 19l11 12l30 14l31 -2l62 -18l18 -2l39 -41l6 -25l12 -12l8 -61l-14 -64l-10 -33l-31 -57l-47 -49l-24 -23l-11 -14l-10 -2l-14 -10l-21 -4l-43 -49 l-20 -25h-8l-43 -27h-9l-26 -18l-17 -6l-14 2l-25 20l-16 31l2 18l16 23l25 20zM475 930h4l4 4l52 -2l36 -21l13 -2l30 -37l19 -30l8 -27v-37l-4 -20l-12 -21l-23 -26l-53 -33l-31 -12l-65 10l-41 29l-6 16l-15 10l-16 31l-6 43l8 33l8 16l10 10l2 17l35 34l12 3zM260 53h6 v10l-6 5l-6 -5v-6z" />
<glyph unicode="&#x3c;" horiz-adv-x="1290" d="M385 567l-2 -4l6 -14l27 -19l55 -26l12 -12l21 -3v-4l22 -6v-4h9v-4h10v-6h8l45 -23l31 -14h8v-4h10v-4h8l4 -8l11 -2v-4h10v-5h8v-6l57 -24l31 -15l23 -6l4 -8l10 -2v-4h10v-4h8v-6l60 -25l29 -20l10 -13l4 -12l-2 -16l-17 -35l-8 -4l-12 -29l-27 -31l-32 9l-60 26 l-57 23l-17 10l-14 4l-12 10l-27 13l-10 10l-31 10l-4 6l-35 19l-45 14l-12 10l-14 4l-15 10l-51 19l-12 12l-33 8l-18 15l-15 4l-12 12l-25 6l-10 11l-20 4l-47 26l-33 10l-10 11l-15 4l-12 12l-39 10l-8 11l-14 4l-15 24l-4 29l14 31l11 12l14 55l29 27l16 2l4 6l62 18 l61 21l31 14l28 8l15 11l28 6l60 22l67 23l60 24l67 13l25 6l57 29l25 6l8 12h8l15 10l65 15l14 8l15 2l26 16l56 15l61 12l10 12l35 17l33 4l8 6l60 20l14 4l27 -4l10 -12l6 -18v-15l-14 -14l-25 -68l-14 -37l-23 -18l-61 -21l-58 -22l-61 -16l-23 -7v-4l-49 -20l-33 -4v-4 l-63 -21l-23 -6l-55 -25l-67 -18l-54 -22l-127 -41l-59 -23l-31 -16zM332 639l4 -2l18 29l-2 8l-6 4l-14 -19l-4 -14zM215 547l-4 -2v-15h10l10 11l2 8zM250 614l-2 -6h4v-8l16 2l2 6l-14 8z" />
<glyph unicode="=" horiz-adv-x="1216" d="M1114 852l4 -2l2 -16l-8 -31l-14 -29l-6 -26l-11 -7l-12 -22h-10l-4 -8l-62 -4l-67 2h-250l-70 2h-57l-6 4l-64 -8l-59 -2h-70l-69 2l-62 4l-14 2l-21 14l-4 33l17 39l6 22l12 10l4 13l27 22l69 8l58 -2l65 5l27 -3l14 -6l64 4l32 -4l66 4h64l65 -2l66 7l65 -7l62 4l67 5 l39 -2l39 -15zM27 309l-2 2l-5 31l5 31l22 59l25 23l63 10l31 4l63 -8l66 4l61 2l62 -2l69 4l33 -8h55l7 4h16l6 4l33 -6h63l72 2l64 4l49 2l45 -18l18 -23l-4 -31l-10 -32l-14 -29l-21 -23l-25 -10l-71 -8l-64 -4l-61 2l-64 8l-36 -2l-15 -4l-6 6l-65 -6l-66 6l-64 -2 l-65 -4h-41l-4 6l-68 -2l-65 -4h-29l-10 6l-4 -6zM438 377v-4l15 -4l22 16l-16 6l-17 -4zM666 748h4l8 24l-2 6l-19 2l-2 -4l4 -6l3 -20zM729 776h4l-4 25l-8 2l-4 -17zM776 805l-4 -2l4 -15l10 3l9 12l-9 4zM670 399v-4l14 -10l4 18z" />
<glyph unicode="&#x3e;" horiz-adv-x="1294" d="M813 612l2 4v9l-8 14l-53 29l-31 16l-29 10l-43 21l-10 10l-63 27l-60 26l-59 29l-58 29l-28 10l-27 20l-31 17l-22 18l-21 27l-2 26l15 54l28 26l15 6l32 -2l33 -12l43 -25l41 -22l4 -6l33 -6l51 -31l23 -8l12 -13l14 -2l11 -10l57 -20l23 -6l8 -11l26 -10l13 -10 l41 -12l12 -11l14 -2l10 -10h9l24 -18l60 -31l14 -10l22 -7l5 -4l32 -4l49 -39l17 -8l22 -4l23 -24l4 -15l-2 -26h-6v-9h-4l-4 -28l-7 -4l-4 -15l-6 -6l-2 -12h-6l-2 -12l-25 -21l-4 -8l-57 -19l-33 -8l-55 -26l-35 -9l-33 -16l-59 -18l-64 -19l-61 -24l-61 -23l-64 -20 l-61 -19l-123 -45l-47 -14h-23l-47 -21l-18 -16l-54 -16l-59 -25l-61 -18l-17 -7l-16 2l-27 19l-8 22l6 23l6 8l10 31l29 55l29 31l16 2l12 12l23 2l10 6l60 4l47 33l33 8l81 33l62 15l29 12l12 12l33 4l61 23l29 8l26 6l29 12l33 9l31 14l14 2v4l24 4l13 10l22 4l19 9l14 2 l27 12zM711 449l2 -5l10 2l12 21l-18 10l-8 -22zM932 551l-2 -4l6 -4l16 2l2 6l-10 10zM918 606v-8h8v8h-8z" />
<glyph unicode="?" horiz-adv-x="884" d="M266 399l-4 2l2 33l10 33l15 29l10 8v10h4v8h4l2 13l25 32l10 25l12 12l4 12l13 9l10 20l8 4l6 15l25 22l16 29l49 45l45 47l31 37l8 4l13 20l12 6l4 15l47 43l41 49l8 12l6 2v11l9 4v10l28 31l2 16l13 12l12 56l6 4l8 65v31l-12 45l-10 12v11l-37 32l-68 4l-28 -2 l-27 -10l-51 -39l-12 -14l-9 -4l-34 -53l-11 -13l-2 -8l-10 -10l-8 -33l-23 -49l-10 -72l-10 -26l-21 -19l-30 -6h-35l-35 8l-27 17l-8 18l-2 33l10 65l9 33l24 62l10 32l21 43l16 15v10l8 4l4 14l41 47l50 48l12 2v4l12 2l55 28l64 21l61 6l68 -8l63 -8l60 -31l20 -12l4 -7 l15 -4l37 -49l14 -20v-11h4v-8l6 -10l4 -33l4 -4l9 -65l2 -35l-13 -60l-26 -61l-6 -20l-13 -13l-18 -37l-4 -16l-25 -37l-43 -51l-45 -43l-37 -43l-2 -10l-47 -45l-51 -45l-4 -2v-11l-29 -18l-20 -27l-47 -47l-41 -53l-21 -25l-14 -10l-2 -12l-19 -19l-2 -12l-24 -22 l-35 -56l-23 -18l-24 -10l-51 14zM352 150l2 -3l-2 -14l6 -37l-8 -18l-8 -43l-10 -8l-2 -13l-56 -39h-63l-51 5l-21 20l-14 6l-33 49l-4 39l4 37l10 31l17 26l45 39l24 6l56 3l4 -5h14l23 -10l24 -18l25 -25zM809 971l4 -2l4 14l-4 8h-8l-4 -4v-8zM754 936v-4l14 6l8 16 l-10 -2zM809 1049l4 -2l4 14l-12 4z" />
<glyph unicode="@" horiz-adv-x="2015" d="M1038 141l-2 4h-16l-37 -28l-25 -23l-53 -28l-33 -13l-34 -6l-11 -6l-34 4l-54 18l-8 3l-33 36l-4 19l-14 18l-2 11l-10 10l-11 55l-2 35l11 74l4 49l16 55l6 6l17 55l14 66l4 2l12 43l9 6l18 60l37 53l2 14l14 19v8l35 45l16 18l4 17l11 6v8l43 49l12 2l8 13l10 2l13 12 l10 2v4h10v4l31 8l61 25l62 -8l16 -4l25 -21l22 -10l25 -25l20 -28l23 -17l16 -2l62 31h6l35 16l20 -4l10 -6l7 -14l-13 -58l-12 -12v-14l-16 -43l-11 -13l-24 -59l-25 -61l-14 -29l-10 -33l-25 -59l-6 -33l-27 -59l-12 -19l-18 -51l-5 -21l-6 -10l-16 -63l-4 -53l4 -27 l14 -29l19 -22l22 -19l33 -8h31l28 6l4 4l17 2l57 35l33 23l2 8l21 12l6 15l47 47l12 8l23 41l12 8l6 14l18 19l5 14l10 14l4 15l12 12l19 55l2 23l14 31l16 57l19 65l2 64l6 98l-10 64l-2 28l-13 50h-4l-10 41h-4l-8 32l-35 49l-27 39l-28 23l-2 12l-54 43l-55 39l-59 19 l-58 16l-67 12l-66 8h-43l-18 -8l-64 -4l-61 -10l-37 -14v-5l-25 -4l-18 -8l-12 -10l-62 -23l-110 -69l-49 -41l-50 -45l-45 -47l-12 -11l-2 -12l-10 -10l-13 -23l-8 -6l-8 -22l-6 -9h-4l-27 -41l-8 -4l-2 -12l-27 -59l-2 -8l-10 -9l-8 -28l-10 -19l-2 -12l-7 -6l-2 -15 l-8 -14l-10 -33l-8 -39l-2 -30l-6 -6l-13 -60l-8 -67l-2 -66l2 -65l4 -66l8 -66l19 -63l10 -33l10 -12l2 -12l25 -52l6 -6l4 -14l39 -49l47 -47l49 -45l47 -31l33 -12l29 -7l53 -22l66 -10l63 -8l66 4l69 2l62 4l22 8l29 4l63 23l62 24l10 10l12 2v7l56 28l28 13l4 10l17 2 l35 -12l10 -9l16 -39l2 -18l-10 -31l-10 -12l-17 -8l-10 -10l-10 -2v-5l-31 -16l-18 -14l-43 -17l-12 -12l-60 -20l-61 -19l-62 -24l-61 -5l-68 -6l-65 -4l-62 -2l-63 12l-35 9l-27 2l-39 16l-63 14l-41 21h-8v4h-10v4h-9v4h-10v6l-14 2l-39 27l-23 25l-49 38l-2 13l-49 43 l-45 51l-6 4l-2 12l-19 29l-4 16l-12 13v10l-19 47l-28 59v9l-6 10l-2 55l-13 51l-4 66v63l2 68l4 70l2 30l19 64l8 28l2 33l16 66l5 4l4 29l6 4l33 55l12 22l4 29l18 43l7 4l10 27l12 14v8l23 35l6 23l43 47l30 31l9 16l10 8l18 27l15 4l18 24l14 5l41 49l39 32l11 15l12 2 l22 20l29 15l4 6h8l25 16l33 15l22 14l23 6l6 6l59 21h8v6l52 14v4l63 2l64 15l63 2l60 4l51 -4l63 -4l64 -15l61 -24l60 -23l59 -27l10 -10h8l4 -10h11l4 -8h10l6 -12h8l41 -48l43 -49l11 -12l4 -16l26 -35l13 -19v-8l16 -43l16 -24l17 -50l2 -32l20 -66l6 -59l-2 -72 l-6 -63v-23h-4l-8 -59l-4 -33l-21 -64l-20 -61l-25 -57l-14 -19v-8h-4v-10h-6v-8l-35 -54l-4 -16l-12 -10v-9l-46 -47l-18 -24l-10 -8v-9l-21 -22l-37 -27l-16 -20l-8 -2l-10 -13l-56 -32l-37 -23l-43 -14l-45 -19h-14l-14 -6l-68 2l-63 15l-23 8l-8 10h-10v4l-17 6l-37 47 l-6 21l-6 4l-22 51zM1085 829l-2 -2h-10l-4 -8l-27 -14l-14 -21l-10 -2l-4 -10l-19 -14l-4 -15l-10 -6l-12 -26l-31 -47l-8 -15h-4v-8l-11 -10l-16 -43l-14 -58h-6l-2 -14l-13 -20l-20 -64l-17 -63l-8 -29l-8 -66v-30l4 -6v-15l6 -18l21 -19v-4l24 -4l31 4l6 6l12 2l7 11 l14 4l49 43l41 53l23 23l2 12l16 16l23 62l22 57l14 31l11 30l10 13l20 63l9 19v10h6v8h4l2 12l18 25l4 33l-2 37h-4v16l-12 23l-25 22l-28 18l-33 5zM1749 934h6l4 8l-2 16l-14 7l-8 -15v-8zM1780 836v-9h8v9h-8z" />
<glyph unicode="A" horiz-adv-x="1695" d="M891 881l2 2l12 10l6 22l11 19l10 10l4 14l18 19v8l15 16l2 11l6 2v8l24 51l35 55l15 29l10 4l2 13l10 12v8l10 4v10h4v9l35 53l33 47l2 12l10 4v10h4l5 19l16 16l2 15l23 24l2 15l6 4l18 28l12 31h5v10h4l12 27l39 47l2 12l39 45l12 4l14 21l13 2v4h8l10 12l68 2h28 l13 7l30 -11l27 -16l43 -41l8 -23l10 -73v-33l-18 -59l-18 -66l-29 -123l-21 -63l-10 -33l-14 -68l-19 -61l-6 -33l-4 -4v-14l-6 -11l-14 -51l-15 -65l-2 -17l-8 -20l-4 -27l-12 -24l-15 -62l-4 -35l-10 -18l-6 -31l-10 -14v-12l-15 -31l-10 -66l-18 -63l-4 -27l-21 -67 l-10 -39l-2 -27l4 -12l24 -15l33 -4l37 4l29 9l12 10l33 12l53 33l37 31l12 22l19 15l2 12l22 29l8 16l15 12v8l31 37v10h6l2 15l20 24l6 15l13 10l14 4l39 -14l18 -29l-2 -29l-16 -36l-37 -56l-35 -55l-20 -31l-2 -12h-6l-35 -43l-6 -12l-37 -35v-4l-13 -2l-22 -25l-49 -33 l-19 -4l-8 -10l-31 -8l-30 -15l-35 -4l-68 2l-26 -2l-41 -26l-13 -25l-10 -35l-6 -49l-25 -65l-8 -64l-4 -29l-6 -4l-12 -55l-6 -6l-2 -14l-13 -13v-12l-22 -12l-15 2l-37 37v8h-4l-2 12l-22 23l-25 14l-2 10l-6 6l-4 31l8 64l12 67l21 58l16 63l4 47l-6 12l-22 23l-23 6v4 h-8v4l-29 8l-28 15l-17 4l-57 33l-57 30l-23 11l-12 12h-10v4l-31 4l-27 -16l-45 -49l-4 -5v-8l-12 -10l-2 -6l-19 -16l-2 -13l-49 -43l-45 -39l-23 -24l-14 -2l-4 -6l-10 -3l-4 -10l-13 -2l-6 -8l-28 -12l-4 -11l-13 -2l-14 -10l-53 -14l-4 -6l-58 -11l-65 -4l-66 4l-53 3 l-4 4l-23 4v6l-51 12l-4 8l-14 4l-29 21h-8l-29 24l-14 5l-4 14l-33 31v10h-4l-4 14l-13 6l-6 27l-6 4l-8 37l-6 4l-10 53l-5 35l2 37l13 61l22 62l11 22l16 23l31 29v8l24 20l23 27l53 29l16 4l15 10l49 16h31l28 6l66 5h51l6 -7l31 -4l43 4l4 -4h14l17 -10l67 -18l64 -19 l26 -16l21 -6l12 -11l51 -18h19l14 6l29 33v8l41 51l30 56l35 51l27 61l16 19v8h4zM1409 1427l-2 -2l-31 -59l-24 -47l-6 -4l-13 -29l-8 -4v-8l-10 -6l-4 -15l-8 -4l-13 -28l-8 -4v-9l-37 -55l-35 -59l-10 -25l-6 -4l-8 -25l-6 -2l-19 -26l-12 -31l-10 -4l-2 -12l-37 -56 l-31 -57l-70 -111l-30 -55l-35 -55l-31 -58l-6 -6l-2 -14l-10 -8v-8l-17 -19l-2 -14l-18 -25l-6 -18l2 -15l20 -24l60 -35l57 -31l55 -28v-6h11v-5h8v-4h10l4 -10l25 -4v-4h18l18 6l19 21l8 32h4l10 37l9 62l22 65l4 29l23 53l6 51l14 60l23 63l6 12l10 64l19 55l12 53 l16 68l6 35l11 16l10 43h4l14 60v10h4l19 61l4 31l16 64l2 16l15 45l6 23l-4 6l-17 4l-8 -2zM137 496l-4 -2l-29 -19l-14 -4l-8 -14l-16 -8l-19 -25l-2 -8l-10 -10l-19 -60l-4 -6l6 -64l17 -51l10 -4l4 -14h4l2 -14l49 -39l66 -21l31 -6l71 4l52 14l10 11l28 8l11 2l53 37 l51 39l43 45l19 28l14 11l10 20h6v8l13 17l4 22l-31 37l-37 16l-6 7l-33 6l-12 12l-61 21l-66 14l-66 4l-49 2l-6 -4l-67 -8zM1204 123h-33v-8l21 -4l6 -7h6v19zM1167 25v-5l11 -8h8l4 15l-8 8zM874 662v4h-18l-2 -7l10 -8l8 2zM1552 1516l4 -3v11l-4 6l-14 8l10 -22h4z M1329 856h4l4 6l-2 8l-6 4l-4 -8zM1198 299h6l-2 8l-8 6l-4 -6l2 -6zM1460 1538h4l-6 12h-8v-8z" />
<glyph unicode="B" horiz-adv-x="1687" d="M1518 246v-6l-7 -11l-8 -59l-30 -51l-15 -27l-45 -47l-6 -4v-10l-10 -4l-2 -13l-37 -37l-12 -2l-25 -22l-59 -27l-31 -12l-31 -4l-59 -21l-64 -6l-69 2l-33 4l-14 9l-29 2l-62 20l-53 23h-4l-4 10l-16 4l-52 37l-55 35l-27 20h-8l-37 27l-18 2l-14 -4l-13 -13l-12 -2 l-22 -24l-13 -2l-35 -35h-8l-24 -18l-23 -5l-12 -12l-25 -6l-10 -10l-63 -15l-27 -6l-66 -4l-65 8l-62 19l-32 14l-27 17h-10v6l-37 34l-14 11v10l-9 4l-4 18l-6 5l-12 32l-6 4l-4 66l-4 33l2 28l20 66l18 35l19 18l16 29l15 16l16 6l10 13l15 4l22 16l70 17l28 8l68 6 l33 -4l22 -12l66 -21l51 -31l23 -8l4 -6l26 -8l43 -25l35 8l12 11l19 43h4v8l22 49l29 57l25 58l24 59l15 29l4 18l20 41l12 47l13 8l2 15l8 14l2 19l6 4l23 61l12 23l6 4v10h4v8h6l7 37l20 57l10 9l2 12l15 24l20 66l25 61l20 45l10 11l7 22l14 21l2 12l29 37l47 41l55 41 l47 20l51 10l17 -2l22 -18l13 -29l4 -35l-2 -16l-45 -45l-13 -8l-18 -29l-45 -47l-15 -20l-2 -13h-6v-8h-4v-10h-4v-8h-6v-11h-4v-8h-4v-10h-4v-8h-7l-2 -12l-8 -11l-10 -37v-16l-10 -12l-27 -58v-32l21 -23l32 -12l31 -6h35l8 4l66 4l28 6l60 25l28 12l19 14h8l10 13l29 20 l33 37l12 22l10 4v11h4l17 61l10 21l12 61l-4 72l-14 65l-4 15l-11 12l-2 12l-26 31l-4 12l-37 43l-10 13l-54 28l-6 6l-26 11l-23 14l-12 2v4l-29 4l-4 4l-37 4l-14 6h-129l-15 -6l-32 2l-29 -4l-33 -10v-4l-63 -21l-54 -28l-47 -27l-51 -45l-41 -39l-2 -14h-6v-8h-4v-11 h-4v-8h-4v-10h-6v-8h-5l-2 -12l-22 -33l-8 -6v-11h-4v-8h-5l-14 -51l-16 -43l-2 -23l-11 -24l-8 -35v-65l15 -66l-2 -16l16 -56l4 -35l-16 -28l-45 -41l-50 -19l-8 2l-24 23l-15 55v8l-24 52v65l-8 64l4 28l-2 35l6 31l18 59l10 33l5 4l4 21l6 4l2 33l22 59l11 14l2 17 l20 39l14 10l17 26l22 25l13 23l37 36l2 9l36 28l11 15l45 24l33 27l28 6l4 8l33 4l8 4l6 11l17 2l57 28l23 11h10v4l63 6l7 4h67l55 8l70 -4h43l4 -4h14l11 -6h16l53 -19l4 -4l31 -4l23 -8l2 -6h10v-4h8l4 -11l15 -2l30 -28l21 -6l49 -41l35 -33l4 -15l10 -4v-10l8 -4 l4 -18l7 -4l6 -21l28 -43l17 -66l2 -24l6 -8l14 -66l-8 -65l-4 -68l-6 -31l-8 -14l-2 -12l-7 -6l-18 -56l-39 -49l-41 -49l-55 -35l-2 -4h-8l-25 -18l-59 -29l-43 -25l-9 -18l21 -25l29 -18l18 -23l29 -45l8 -2l2 -12l25 -20l18 -27l2 -10l8 -9l23 -65l8 -31l4 -4l12 -63 l6 -31l-4 -62l-4 -63v-4h-4l-10 -31zM944 788l-2 -2v-8h-4v-10l-6 -2l-4 -18l-6 -11l-7 -28h-6l-2 -13l-10 -12l-18 -43l-5 -31l-22 -61l-2 -8l-10 -9l-21 -45l-26 -51l-19 -63l-4 -4v-9h-4v-10h-4v-8h-4v-10h-6v-8h-4v-11h-5v-8h-4v-10l-10 -4l-20 -41l-9 -37l33 -39l15 -2 l10 -10h4l4 -6l22 -9l11 -12l10 -2l45 -22l10 -11l19 -4l59 -28l68 -17l34 -6l31 2l25 12l53 11l2 4l33 8v4h10v6h8v4l13 2l49 45l12 23l14 8v10l13 9l6 24l12 12l2 15l16 28l17 66l10 63l4 7l2 36l-12 60l-6 35l-19 49l-16 28l-37 46l-31 34h-8l-10 15l-12 4l-13 12l-28 10 l-29 17l-12 12l-15 4l-14 10l-33 6l-26 17l-64 14l-16 -2l-19 -10zM147 297l-2 -2l-12 -2l-24 -25l-5 -14l-16 -29l-4 -32l6 -29l21 -31l36 -35l25 -10l68 -8l39 2v4l30 8l15 8l12 2l4 9l53 32l27 23l16 27l-8 24l-27 25l-57 35l-59 26l-43 17l-23 -3l-6 -6l-39 -4zM549 203 v-4l29 -13l4 -8l-15 -28l-16 -7h-16v-12l10 -6l18 8l4 -6l15 6l8 -12l10 -2l4 4v8l-10 12l6 4v9l8 12v6l-12 10l-10 23l-19 2zM612 244v-4l15 6l10 12l-2 16l-8 15l-9 2l-12 -15zM516 240v-4l10 4l23 -9v13l-14 10l-15 4zM516 162h-4l-6 6l-8 -2l8 -19l18 3l11 6zM1006 1204 l-9 -4v-8l15 -6l14 6v4zM651 231v-24h8l7 14l-7 10h-8zM881 866h10l4 11l-12 12l-6 -15zM1063 1229v-10h18l4 4l-2 6l-8 4zM993 1032h4v19l-8 6l-4 -17zM946 938l-4 -8l25 -8l-9 14zM616 193h7v10l-11 10l-4 -8l2 -8zM938 844l4 -2l4 8l-2 8l-6 4l-4 -8z" />
<glyph unicode="C" horiz-adv-x="1349" d="M311 1528v-4l19 -19l14 -41l-12 -26l-43 -39l-6 -13l-52 -49l-4 -2l-4 -14l-10 -8l-4 -17l-10 -12l-4 -16l-17 -27v-8l-10 -10l-4 -41l-6 -11l-6 -71l2 -35l20 -64l27 -57l41 -53l45 -41l18 -19l10 -2l9 -10l24 -8l10 -10h9l28 -13l33 -2l21 19l14 29l18 61l17 29l4 22 l10 17l4 14l10 14l15 43l10 13l10 28l6 4l6 25l13 12l6 25l12 12l14 43l11 10l33 47l2 13l12 12l12 27l19 16v8l18 19l2 8l16 16l9 23l43 47l16 28l20 23l52 41l49 45l6 14l25 19l2 6l14 4l4 6l39 21l12 10l33 12l6 6l62 21l63 16l53 2l66 -8l12 -4l2 -4h8l56 -33l45 -51 l41 -53l18 -62l6 -55l2 -72l-2 -65l-2 -6h-4l-8 -58l-8 -14l-6 -41l-7 -4l-34 -56l-2 -28l-4 -4l-5 -23l-14 -18v-10l-18 -29l-4 -17l-9 -4l-34 -51l-25 -26l-2 -13l-19 -10l-47 -45l-10 -14l-14 -7l-33 -36l-12 -2l-25 -23l-55 -35l-27 -18l-57 -25l-59 -30l-60 -15l-33 -8 l-30 -14l-60 -11l-71 -8l-31 -4l-41 4l-31 -6l-20 -12l-19 -27l-10 -31l-2 -30l-4 -4l-4 -31l-13 -41l-4 -31l-8 -26l2 -41l-8 -23l6 -53l-4 -6l8 -66l6 -31l15 -26l41 -49l59 -27l4 -4l99 -6l63 16l2 4l55 11l29 12l29 18l26 8l4 11l15 4l4 6l45 27l55 38l47 48l45 32 l21 27l14 27l45 49l21 24l12 23l20 14l5 15l41 51l4 14l30 35h31l19 -6l24 -19l4 -18l-2 -23l-8 -18l-33 -55l-37 -50l-2 -14l-39 -53l-24 -25l-15 -26l-43 -47l-43 -50l-47 -45l-26 -24l-25 -15l-18 -20l-15 -4l-34 -33l-50 -14l-4 -10h-8l-24 -23l-29 -16l-23 -7l-4 -6 l-14 -2l-23 -14l-61 -18l-59 -13h-74l-64 4l-39 4l-28 17l-33 10l-33 16l-51 41l-31 54l-16 28l-6 23l-6 4l-19 61l-8 60l-2 67l2 70l10 66l4 53l4 4l15 59l8 60l2 20l-4 16l-21 19l-47 20l-4 9l-59 26l-29 13l-39 28l-4 8l-26 19l-5 14l-47 45l-4 4l-2 13l-35 57l-34 59 l-9 29l-8 63v13l-6 4v127l14 63l17 25l20 65l4 15l29 39l4 14l14 8l19 43l51 45l12 13l9 18l34 27h11v4l22 4l21 -6l22 -21zM766 768h4l64 18l57 15l10 10l29 12l22 15h9l4 10l26 10l19 14l12 2l39 33h6l29 23l22 24l15 9l8 16l26 22l7 13l36 43v8l19 16l10 31h4v8h6l2 13 l25 41l24 63l11 23l8 65l4 72l-10 61l-6 15l-23 28l-41 29l-35 4l-65 -16l-10 -7h-11v-6h-8l-10 -10l-17 -8l-51 -45l-12 -8l-2 -7l-12 -2l-29 -32l-14 -27l-25 -25l-18 -26l-19 -19l-33 -55l-28 -49l-35 -51l-4 -4l-6 -25l-11 -10l-24 -39l-2 -12h-4v-9l-29 -57l-29 -59 l-20 -60l-25 -57v-4h-6l-2 -6l4 -19l23 -20l33 -6zM608 995v-4h4l11 -10h4l2 10l10 6l2 9l-12 10l-15 -4zM520 719l-4 -2l10 -25l15 -4l6 14l-12 17h-15zM670 1069v-27h8l6 23l-4 8l-6 2zM469 641l-4 -2l6 -14l14 4l4 8l-2 6zM457 707l4 -2l8 12v10l-14 4zM535 604l4 -2 l10 27l-17 -8l-2 -9zM608 889h4l4 4v8l-12 10l-2 -8zM475 676h12l-6 12l-12 2v-8zM588 727h6l-2 10l-6 4l-4 -12z" />
<glyph unicode="D" horiz-adv-x="1863" d="M1393 258l2 4l14 21l18 12v10l19 23l2 8l12 10v10l6 2l35 58l31 57l35 59l14 27l12 66l13 22l6 25l6 8l4 25l6 4l10 63l17 66l6 16l-2 45l6 4l4 33l-4 61l2 66l-2 31l-4 10v37l-6 30l-23 60l-26 59l-27 64l-14 28l-41 48l-51 45l-33 24l-13 4l-12 10l-55 21l-62 14v4 l-127 13l-67 -9l-43 -4l-62 -16l-30 -14l-15 -2l-10 -9l-33 -14l-34 -20l-11 -13l-32 -22h-9l-26 -27l-17 -6l-20 -27l-25 -20l-16 -27l-12 -10l-21 -37l-20 -22l-29 -62l-27 -59l-12 -31l-6 -2v-10l-8 -17l-4 -65l4 -68v-67l2 -15l6 -4l16 -41l2 -20l-4 -17l-18 -24 l-25 -23l-8 -12l-14 -2l-6 -10l-23 -4l-22 4l-41 51l-17 61l-8 66l-2 66v67l4 64l14 61l7 33l20 55l6 23l6 2v8h6l2 12l21 29l4 14l10 6v8h4v11h4l15 30l10 9l12 20l25 23l10 14l8 4l15 27l51 41l24 24l41 27l17 6l18 14h10l23 19l8 2l10 12h11v4h8l24 15l66 24l59 23l64 8 h14l4 6l66 4l59 2l35 4l16 -2l7 -4l65 -6l16 -2l11 -6l22 -4v-4l25 -7l4 -8h8l27 -12l43 -6l43 -19v-6l14 -6l25 -20l8 -2l12 -13l12 -6l11 -12l26 -19l45 -47l13 -12l6 -14l18 -15l29 -47l12 -12l41 -119l10 -20l9 -33l4 -4l2 -33l6 -33l2 -16l8 -10l6 -56l-4 -67v-66 l-4 -63l-20 -131l-17 -62l-14 -57l-6 -6l-4 -31l-21 -61l-8 -11l-12 -41l-6 -4l-13 -47l-10 -8v-10h-4v-8h-4v-11h-6v-8l-19 -29v-10h-4v-8h-4l-14 -29l-37 -51l-17 -26l-43 -48l-20 -26l-10 -21l-94 -90l-25 -24l-12 -4l-31 -29h-8l-23 -19l-14 -4l-4 -10h-10v-4h-9l-10 -8 l-47 -15v-4l-29 -12l-6 -6l-16 -2l-4 -4h-15l-30 -15l-25 -4l-135 -4l-59 4l-5 4h-14l-10 11h-15l-28 14l-33 10l-47 31l-39 29l-25 10l-22 22l-27 17l-30 10l-29 -2l-29 -14l-18 -17l-12 -2l-31 -22l-27 -17h-10l-2 -4l-29 -8l-30 -14l-62 -15l-63 -4l-76 -2l-60 4h-6l-6 6 l-33 9l-18 12l-23 6l-8 12l-14 7l-8 12l-15 6l-10 14l-10 4l-2 13l-8 6l-2 10l-11 4l-10 29l-6 4l-16 29v129l6 4l2 30l10 27l39 57l8 13l14 8l52 41l51 24l63 15l17 -6l65 4l66 -11l33 -6l28 -14l4 -10l15 -2l24 -21l37 -14l8 -14l15 -5l4 -10l53 -31l12 -6l19 -2l26 21 l8 14l15 12l29 52l10 28l30 58l25 61l10 31l13 18l24 62l10 28l23 45l6 29l25 55l8 17l4 24l12 19l23 59l10 33l10 14l13 47l10 9l6 28l29 55l6 23l6 8l18 56l6 12l7 4v8h4l4 14l20 29l23 23l16 24l49 47l56 37l14 8h8v4l60 13l16 -2l22 -21l17 -31l6 -22l-6 -31l-21 -24 l-51 -45l-26 -23l-17 -27l-18 -18l-2 -14l-11 -13l-22 -59l-25 -59l-12 -37l-20 -27l-21 -61l-25 -60l-22 -61l-10 -33l-31 -59l-23 -60l-10 -14l-18 -59l-12 -39l-11 -13l-10 -30l-6 -6l-17 -50l-10 -12l-24 -61v-4l-11 -9v-10l-6 -8l-4 -16l-16 -19l-2 -12l-8 -4v-11h-5 v-8h-6v-10l-8 -4v-10l-18 -13l-2 -12l-13 -10l-4 -8l2 -21l31 -37l2 -6l16 -8l9 -12l18 -6l8 -11l31 -8l57 -24l21 -9h14l27 -8l69 -8h21l10 6l64 17l30 8l43 22l11 13l12 2l4 8l12 2l6 10l17 10l2 6h8l6 9l12 2l43 49l25 24v9zM170 307l-4 -2l-47 -47l-31 -43v-33l18 -43 l29 -28l25 -13l65 -18l35 -6l62 6l8 2v4l16 2l2 4l31 6l37 29l14 4l12 12l7 13l12 8v26l-23 25l-53 37l-18 16l-25 6l-12 13l-56 20l-69 6zM596 117l-2 -2l-16 -2l-3 -9l31 -12l2 8l10 11l7 18l-17 -2zM905 727l-2 -4l19 -14h6l8 12v6l-27 4zM606 244h-4v-4l-20 -11l-2 -8 l41 10v9zM559 154l-4 -2l6 -13l8 -2l9 4l2 6l-5 7h-16zM649 217v-18h8l7 18h-15zM668 170h4v14h-15l2 -8z" />
<glyph unicode="E" horiz-adv-x="1253" d="M786 1587l2 -4l17 4l51 35l21 2v4l24 6l27 21l16 4l6 6l25 6l35 2l63 15l68 2l67 -4h6l5 -7l47 -18h8v-4l24 -4l9 -11h10v-4h8v-4h10v-6h8v-4h11v-4l47 -41l20 -35l2 -12l21 -25l2 -12h6l16 -51l2 -74v-31l-6 -30l-4 -4v-15l-8 -22l-6 -4l-2 -15l-17 -28l-34 -47l-31 -31 h-8v-6l-15 -4l-4 -9l-32 -14l-5 -10l-61 -19l-55 -14l-72 -6l-68 8l-30 10l-21 2l-4 6h-16l-51 25l-7 6l-14 4l-8 11l-12 2l-7 10l-14 6l-6 10h-8l-47 47l-27 17h-10l-12 -8l-9 -31l-4 -68l-2 -61l21 -60l26 -59l39 -49l23 -23l20 -28l6 -25l-2 -14l-14 -33l-31 -41l-14 -8 h-27l-63 31l-43 14l-39 8l-27 8l-61 4l-68 -12l-63 -18l-58 -29l-4 -10l-16 -6l-8 -15l-15 -4l-8 -12l-16 -6l-39 -49l-31 -39l-8 -47l-4 -5v-14l-16 -43l-17 -67l17 -132l16 -45v-10h4v-8h4l4 -21h4l4 -14l11 -8v-8l43 -49l47 -45l22 -21l15 -2l4 -8l51 -19l55 -14l70 -8 h63l64 10l16 4l19 15l24 6l12 12l25 6l8 12l15 7l45 49l41 51l32 55l19 64l16 63l-4 62l-6 69v8l22 25l58 25l33 4l16 -2l31 -25l2 -20l6 -7v-14l10 -29v-61l-2 -35l-4 -4v-65l-16 -52l-11 -34l-4 -33l-35 -43v-8h-4v-11h-4v-8h-6v-10h-4v-8l-18 -29l-9 -4l-2 -12l-47 -45 l-45 -43l-18 -17l-60 -20l-28 -17l-4 -8l-25 -8l-12 -12h-15l-6 -7l-12 -2l-14 -10h-9v-4l-61 -6l-68 -4l-63 -2l-51 10l-35 4l-29 12h-8l-14 11l-29 8h-16l-29 10l-51 37l-35 35l-12 2v4h-9v4h-10v6l-26 17l-13 14l-4 12l-26 21l-5 14l-10 4v10l-8 4l-18 48l-11 6v8l-10 12 l-4 15l-10 14l-17 61l-10 35h-4l-4 64l-4 65l4 66l6 30l21 62l18 61l8 15l2 14l13 12l2 10l22 25v8l23 23v10h6v8h4l16 25l47 47l45 39l13 2l4 8l14 4l60 29l47 24l59 17l64 10h67l14 2l25 18v33l-18 66l-7 61v72l5 49h4v18h4v19h6l18 59l4 17l17 26l6 4l2 13l10 12l6 33 l7 12l-2 16l6 15l-9 35l-12 30l-8 60l2 69l-2 17l-4 6v33l18 36l13 11l12 4l33 -4l16 -6l12 -13l13 -6l6 -22l-4 -68l2 -37l12 -31l6 -6zM1042 1509h-4l-41 -6v-4l-22 -4l-10 -10l-58 -25l-4 -2v-6h-8l-39 -35l-16 -39l4 -16l20 -27l2 -12l27 -20l2 -13l47 -41l29 -14 l65 -18l64 -17l45 2l16 6h17l30 13h6v4h11l4 10h8l35 37l2 14l6 2l18 27l9 31v32l-4 4l-5 35l-6 19l-22 24l-33 25l-45 20v4l-66 7l-30 2l-11 -5zM713 1407v-10h10v10h-10z" />
<glyph unicode="F" horiz-adv-x="1390" d="M1534 1661h6l21 -19l10 -14l4 -26l12 -25l-2 -16l-18 -27l-51 -45l-43 -49l-5 -13l-6 -4l-16 -26l-2 -11l-10 -6v-8l-11 -12l-16 -43l-21 -37l-16 -63l-20 -43l-7 -7l-6 -22l-6 -4l-8 -33l-6 -8l-6 -33l-19 -29l-4 -14l-10 -14l-23 -64l-22 -57l-14 -25l-2 -16l6 -17 l10 -8l65 -6h37l25 -10l8 -16l-6 -33l-10 -21l-25 -16l-18 -6l-62 -4l-37 4l-36 -4v-4l-15 -9l-10 -12l-2 -14l-25 -56l-26 -61l-4 -8h-5l-10 -21l-8 -30l-25 -45l-8 -48h-4l-22 -61l-6 -23l-11 -8l-8 -28l-12 -19l-19 -59l-10 -31l-10 -6v-10l-25 -23v-10l-8 -4v-10h-4v-9 h-6l-2 -14l-15 -25l-6 -2l-2 -12l-12 -6l-4 -14l-49 -47l-10 -13l-27 -18l-27 -10l-45 -45l-22 -21l-47 -18l-23 -4l-10 -11l-60 -18l-135 -8l-63 4l-21 4l-24 14l-68 19h-4v4l-18 4l-25 16l-47 49l-25 21l-37 43l-2 10l-10 6l-2 15l-10 10v8l-10 8l-11 60l-16 63l-6 66 l6 69l12 49h4l25 62l27 49l10 14l18 15v6l52 49l4 4l16 2l53 35l37 18l31 11l61 10l33 8l6 -6h6l27 -31v-33l4 -6l-4 -30l-14 -31l-11 -12l-20 -13l-21 -2l-47 -12l-53 -39l-29 -31h-10l-18 -28l-13 -11l-2 -12l-6 -6l-4 -16l-8 -11l-6 -32l-6 -7l-2 -22l-4 -8l2 -31l8 -31 l-6 -10l10 -29l37 -55l35 -47l12 -2l12 -19l12 -2l54 -24l67 -12h64l65 12l31 8l57 35l43 33l11 20l18 14v7l47 49v10l10 4v8l11 10l2 15l6 4l14 29l37 45l4 24l4 4l17 58l10 43l24 59l15 31v8h4l10 29l8 4l17 61l24 62l2 16l-6 14l-12 11l-31 8l-33 2l-30 8l-19 14l-6 23 l6 24l23 21l24 8l70 6h35l28 8l23 19l27 61l20 52v8l10 10l17 49l18 49l12 13l2 22l9 18l2 15l22 39l6 4v8l6 12l3 17l6 4l4 33l8 10l10 31l10 10l15 47l-4 26l-21 19l-63 8l-33 8l-62 2l-4 7l-61 8l-64 14l-53 12l-65 15l-64 14l-65 10l-60 6l-69 2h-15l-4 -4l-65 -8 l-17 -4l-18 -14l-14 -6l-23 -25l-12 -4l-13 -23l-10 -4v-8l-10 -14l-2 -15l-6 -4l-13 -28l-10 -56l2 -37l13 -32l38 -51l25 -21l10 -2l4 -10l60 -17l53 2l4 7l37 4l53 22l15 8l20 2l33 -28l4 -15l10 -8l4 -14l10 -8v-25l-16 -27l-27 -24l-14 -2l-41 -25h-6l-16 -10l-58 -8 l-16 -6l-14 2l-31 -4l-53 12l-4 4l-58 14l-18 9l-8 10h-11v4l-30 14l-43 47v9l-19 14v6l-31 37l-6 22l-12 13l-10 59l-8 29l-5 35l3 22l4 4v17l16 59l29 59l4 15l12 8l4 14l10 4l4 15l9 4l6 14l47 43l41 31h8l27 14l61 23l37 10l55 2l72 2l16 4l64 -16h24l2 4l66 -12l31 -9 l4 -4l55 -10l68 -14l8 -2l8 -11l62 -6l65 -12l61 -10l64 -4l4 -4l14 4l68 -9l57 13l31 14l51 41l51 27zM1366 1440l-6 2v-15l10 -12l10 2l17 17l-6 14l-9 8l-8 -14zM1118 758v4l-18 4l2 -10l6 -4zM1374 1475l-4 -9l12 -6v8z" />
<glyph unicode="G" horiz-adv-x="1554" d="M1303 643l4 -2l4 -16l-17 -64l-4 -24l-14 -17l-23 -39l-16 -63l-4 -15h-4l-4 -22l-11 -10l-8 -31l-10 -10v-11h-4v-8h-6l-12 -41l-7 -32l-12 -19l-2 -10l-10 -10l-25 -60l-6 -14l2 -23l12 -12l11 -2l28 12l49 41l50 35l47 43l47 45l47 47l20 27l13 10l6 14l45 46l2 14 l18 16l70 105l27 14l30 -4l21 -16l8 -23l-12 -45l-8 -4v-10h-5l-10 -15l-2 -14l-12 -12v-8l-39 -50l-25 -45l-18 -14v-8l-45 -45l-45 -47l-47 -45l-4 -7l-13 -4l-24 -22l-35 -21l-45 -39l-53 -39l-58 -36l-6 -7h-10v-4h-8v-6l-29 -10l-45 -31l-29 -18l-16 -17l-2 -16l-8 -10 l-21 -55l-24 -56l-21 -51h-4l-27 -43l-8 -22l-16 -27l-6 -4l-4 -15l-11 -4l-2 -12l-45 -43l-47 -45l-26 -20l-58 -25l-35 -8l-65 -4l-64 6l-24 16l-15 4l-49 47l-10 9l-2 16l-10 12l-6 27v16l-6 17l12 65l12 39l43 53l14 19l48 30l16 17h10l23 20l28 15l60 22l18 13l62 20 l6 6l57 27l45 37l21 22l8 25l6 2v10h4l8 27l-4 18l-8 6l-16 2l-56 -33l-53 -32l-29 -11l-55 -26l-31 -10l-65 -7l-31 -4l-45 4l-47 19l-6 6l-12 2l-37 43l-9 4l-2 12l-12 11l-12 18l-12 53l-19 68l-4 31l6 65v64l12 63l11 62l12 69l6 33l-12 25l-17 16l-20 4l-59 29l-56 35 l-51 36l-22 17l-43 51l-13 8l-2 13l-8 4l-2 12l-21 27l-4 16l-14 16l-2 13l-27 59l-14 61l-4 66v57l6 68l12 65l9 19l34 51l17 29l6 18l41 45l43 47l29 19l24 22l21 13l26 -2l29 -17l41 -55l6 -17l-2 -14l-21 -26l-47 -33l-16 -29l-47 -47l-19 -25l-14 -30l-2 -17l-20 -43 l-2 -61l-5 -64l7 -32l24 -56l31 -61l45 -49l51 -41l51 -37l45 -21h27l14 9l11 12l6 2l4 24l12 23l12 8l2 12l7 7l10 57l6 6l2 17l10 8l6 28l29 37l4 15l12 10l5 22l4 4l4 23h6l2 12l6 6l4 15h6v10h4l9 25l14 16l2 12l12 10l2 13l29 47l39 55l37 51l20 19l2 12l13 8l6 15l8 2 l2 12l47 45l6 10l47 45l39 33l15 6l8 12l33 23l53 27l12 2l25 18l49 17l18 2l60 16l67 8l17 4l26 -4h35v-4l35 -4l24 -12l25 -6l16 -15l13 -4l41 -51l20 -23l12 -20l11 -31l12 -20l8 -62l2 -53l-6 -14v-136l-12 -28l-2 -19h-4v-8h-4l-19 -51l-6 -29h-4l-4 -22l-23 -31 l-28 -57l-11 -11l-6 -16l-10 -12l-6 -17l-12 -10l-7 -14l-16 -17v-8l-43 -41l-21 -16v-4l-6 -2l-16 -19l-14 -4l-13 -18l-12 -2l-4 -8l-55 -37l-25 -21l-57 -30l-4 -9h-11v-4l-12 -2l-53 -22l-62 -25l-30 -6l-4 -6l-62 -10l-63 -11l-66 -12l-65 -2h-95l-16 -4l-33 -27v-8 l-16 -43l-2 -12h-4l-4 -33l-9 -29l-12 -63l-6 -70v-67l16 -60l23 -26l27 -21l24 -8v-4l64 2l32 6l31 12l12 13l21 6l12 10l23 6l4 6l53 35l49 45l47 43l47 47l41 51l13 31l6 6l12 31l6 6l4 25h6l23 63l16 27l23 18l63 23l33 8l4 4l31 4l20 -2zM1260 1526h-5l-55 -4l-8 -11 l-23 -6l-6 -6l-14 -4l-55 -35l-52 -43l-45 -47l-45 -45l-32 -45l-25 -27v-10l-39 -51l-8 -14l-8 -4l-6 -15l-9 -4v-8l-10 -10v-11l-8 -4l-27 -43l-2 -12l-35 -55l-6 -4l-6 -21l-6 -6l-23 -59l-24 -50l-16 -26l-11 -31l-6 -6l-8 -31l2 -18l8 -10l15 -9l63 4l63 7l68 8l57 18 l45 17v4l33 8l6 6l31 8v4h10l11 11l49 28l18 15l10 2l48 47l49 45l45 47l2 10l10 4l4 15l14 10l19 41l22 33l4 14l13 12l6 43h6v8h4l2 15l25 61l12 62l-4 65l-6 39l-6 4l-9 33l-51 37l-49 10zM772 -203l-2 4h-16l-25 -14l-27 -6l-10 -10l-28 -13l-15 -10l-10 -2l-12 -12 l-15 -4l-51 -43l-18 -25l-13 -27l2 -28l17 -27l12 -10l19 -2l45 10v4h10v6h8v4l12 2l13 17l18 10l41 53l33 54l4 8h6l10 31l2 20zM1042 319v-4l13 -8l10 2l8 10l2 17l-4 8h-10l-12 -8zM901 1376l2 -4l27 2l6 4v4l-18 4l-3 15l-6 10h-14zM1001 178l-4 -2v-8l23 -23l8 -2l4 17 l-10 14l-14 6zM428 487l-2 -4l47 -6l-6 17l-16 6l-17 -4zM1063 211l4 -2l8 18l-6 15l-6 4h-10l4 -27zM915 -193l7 3v10l-9 14l-10 8l-4 -22l8 -10zM948 -102l-2 -4l8 2l4 6v16l-4 12h-14l10 -30zM1006 18l-9 -4l2 -8l15 -8l4 -6l6 4l-4 18zM528 774v-4l15 -8l8 12v10l-6 4 l-13 -6zM1098 340v-6h10l6 4l8 14l-18 6zM973 209v-4l16 2l8 16l-14 4l-6 -2zM526 612l-2 -4l4 -4h11l12 10v9l-19 -2zM1022 293l-2 -4l14 -6l10 12l-2 6h-10zM539 684l4 2l-2 10l-13 9l-6 -9l8 -12h9zM483 643l4 -2l5 18h-19v-10zM1022 74l-2 -4l6 -4l8 2l8 12l-8 4z M918 -104l4 -2l4 6v10l-4 6l-7 -2l-2 -8zM872 -106l-2 -5l9 -4l8 2l4 7l-8 4zM580 688l4 -2l4 14l-13 5zM1014 260h6v10l-6 4l-6 -6zM496 526l4 -2l6 15l-10 4v-17zM1188 492l-2 -5l10 -4l4 9l-8 6z" />
<glyph unicode="H" horiz-adv-x="1855" d="M1737 170l-2 -2l-60 -25l-4 -8l-14 -4l-8 -12l-17 -4l-12 -13l-37 -8l-6 -6l-33 -6l-65 6l-33 2l-53 10l-17 -4l-12 -8l-21 -29l-20 -63l-12 -35l-6 -6v-12l-19 -49l-10 -9l-2 -14l-10 -12l-15 -39l-20 -58l-6 -16l-6 -6l-5 -31l-8 -4l-10 -20l-16 -11l-13 -2l-14 4 l-33 27v10l-14 8l-2 13l-10 12l-19 55l-4 31l8 43h4v10h4v9h7v10h4l16 55l10 35l15 20l26 68l8 31l9 10l8 35l-2 10l-6 4v6l-11 12l-14 9l-12 2v4l-25 4l-8 10h-10v4h-8l-58 35l-28 12l-5 6l-12 3v4h-10v6h-8v4l-25 8v4l-14 4l-8 13h-15l-10 6l-14 2l-23 -15l-24 -26 l-27 -51l-12 -11l-13 -20l-6 -2l-6 -15l-47 -45l-47 -47l-51 -49l-11 -2l-2 -6l-59 -27l-29 -16l-26 -6l-4 -6h-15v-4l-32 -2l-15 -7h-63l-64 -2l-35 6l-61 25l-4 4l-23 4l-8 6l-24 7l-48 36l-12 23l-12 12l-8 21l-33 24l-2 15h-6l-10 32l-15 33l-12 64v39l6 4l-2 32l12 62 l2 8l6 4l3 14l16 27l24 27l39 49l50 47l12 2v6h8v4l27 8l34 21l64 10l31 10l63 7h68l43 -5l6 -4h16l6 -6l64 -14l24 -2l56 -23l63 -24l17 -6l16 2l12 8l21 26l12 41l6 7l23 55l22 57l23 62l12 32l6 29l17 25v14l10 8l20 58l13 12v14l20 49l10 43l11 11l24 61l10 29l7 6l8 28 l26 62l9 31l-2 8l-23 22l-14 4l-41 -2l-4 4l-66 3l-131 16l-20 6v4l-62 8l-70 7l-65 8l-62 4l-65 -6l-31 -2l-59 -19v-4l-29 -12l-43 -45l-6 -13l-25 -24v-8l-14 -19l-4 -55l-4 -6l6 -68l12 -31l17 -26l35 -35l26 -10v-6l62 -13h32l33 7l53 22l4 6l29 10h17l26 -16l25 -25h4 l2 -12l10 -14l6 -25l-6 -4l-10 -31l-23 -20l-41 -18h-8l-10 -11l-59 -16l-66 -4l-66 6h-18l-4 6h-14l-37 10l-13 11l-12 4l-12 12l-12 2l-50 41l-40 45l-5 14l-10 9l-4 18h-4l-10 33l-13 24l-10 58l2 61l2 27l6 20l2 35l17 45l6 6l4 13l12 12l2 14l39 47l33 37l14 4l15 15h8 v4h10v4h8l11 10l32 8v6l58 17l10 6l39 4v4l65 12l64 2l65 -4l33 -4l4 -6l64 -8l63 -12l62 -17h65l64 -8l69 -4l66 4l61 12l29 11l51 34l37 31h8v4l29 8l18 13l35 12l33 -4l27 -17l14 -26l2 -55l-12 -9l-2 -12l-52 -45l-20 -25l-20 -16l-5 -14l-12 -8l-33 -58l-16 -51 l-29 -55l-20 -60l-17 -28l-20 -60l-8 -12l-6 -21l-13 -12l-8 -31l-8 -16l-2 -14l-14 -37l-23 -35l-2 -20l-10 -15l-6 -33l-19 -47l-6 -6l-2 -12l-10 -12l-25 -62l-10 -33l-6 -4v-14l-33 -57l-16 -64l-6 -4l-19 -49l6 -29l41 -39h8l25 -14l33 -12l41 -29l8 -2l10 -12l29 -13 l12 -12l62 -27l16 -2l29 13l20 47l25 59l4 15l10 12l2 14l27 64l26 65l25 60l22 57l21 51l12 35l10 22v9l11 10l12 45l6 6l8 23v14l10 10v13l27 61l16 27l23 67l23 49l10 13l16 61v8h6l21 60l2 10h4v10h4v8h6l19 64l8 20l6 4l2 15l18 30l23 19l29 6h69l35 -6l23 -17l6 -14 l-4 -33l-19 -26l-8 -21l-6 -6l-14 -53l-15 -31l-10 -10l-12 -29l-4 -24l-7 -13l-6 -4l-4 -32l-6 -7l-4 -18l-6 -6l-8 -27l-25 -49l-20 -61l-19 -48l-12 -30l-10 -15l-2 -14l-7 -6l-4 -19l-6 -6l-18 -65l-15 -33l-12 -12l-6 -25l-10 -8l-19 -59l-16 -48l-27 -61l-12 -31 l-6 -28l-14 -19l-23 -59l-12 -31v-8l-11 -10l-4 -19l-4 -4v-8l-10 -10l-12 -35l-6 -31l2 -14l12 -17l14 -10l66 4l65 9l62 26l43 33l47 49l4 14l14 9l4 14l13 8l37 55l6 7v8h6l2 14l20 25l15 30l22 21l15 8h22l14 -6l19 -27l4 -30l-2 -15l-33 -59l-26 -49l-39 -56l-21 -39 l-37 -34l-8 -17l-10 -10l-17 -8zM340 506h-4l-62 -21l-32 -16l-45 -41l-9 -25l-10 -14l-6 -24l-10 -21l-4 -35l12 -55l4 -14l10 -13l15 -28l26 -23l41 -22v-4h8l29 -15h14l11 -6l73 2l60 12l31 9l24 18l14 6l5 10l14 4l14 19h6l17 12l18 29l35 37l14 28l19 21l2 8l8 4v10 l12 13l13 28v15l-11 8l-2 12l-12 12l-23 5v4h-8v4h-10v6h-8v4h-10v4l-54 14l-63 15l-70 8h-88zM1389 362h-7l-6 -6l2 -49l4 -2l7 4v17l18 8l-8 22zM823 414h4l2 4l17 4v10l-10 12l-15 7l-4 -15l2 -16zM795 397l-4 2l-11 -10v-8l4 -4l43 16l4 10l-28 -8zM825 522l-4 -2l6 -14 h27l10 14l-22 4zM770 465v-6l23 6l6 18l-15 4l-12 -10zM1327 242v-4h8l11 14v6l-9 2zM1208 1440l-2 -2l6 -15l13 7v12zM1305 164h4v8l-6 4h-13v-8zM1180 1411v-18h8l4 6l-2 8zM1051 1006l-2 -5l14 -4l-2 11l-6 4zM1268 195v-9h8v9h-8z" />
<glyph unicode="I" horiz-adv-x="1144" d="M236 637h22l23 -19l14 -22v-14l4 -4l-4 -62v-8l-10 -4l-2 -12l-11 -9l-67 -16l-33 -10l-33 -17l-12 -16l-27 -16l-10 -11l-4 -14l-18 -14v-11h-5l-16 -28l-2 -13l-8 -12l-6 -59l4 -72v-14h4l14 -56l33 -49l14 -2l45 -47l64 -18l24 -6l72 -5l35 3l61 18l56 25l12 14l16 6 l9 10l14 4l43 47l41 41l2 13l22 30l5 15l6 6l2 12h4v8l10 11l2 8l12 10l5 23l6 6l2 12h6v10h4v8l8 15v8h6v10h4l15 56l22 51l8 30l13 25l20 29l21 61l8 31l18 51l8 14l9 29l12 23v8h4l25 59l4 10h4l2 25l12 12l2 15l29 51l18 59l13 47l10 13l4 18l6 6l8 31l25 53l14 33v8h4 l4 29l7 4l10 31l12 20v14l4 11l-6 8l-27 14v-4l-59 -22l-61 -23l-58 -25l-119 -49l-6 -6l-20 -6l-4 -8l-29 -12l-49 -39l-10 -11h-11l-49 -41l-20 -28l-13 -11l-2 -12l-8 -4v-10l-28 -33v-14l-7 -10l-4 -68l4 -39l9 -33l22 -51l4 -8l8 -4l9 -15l26 -20l51 -18l31 -31l6 -33 l-6 -66l-20 -20l-31 -8l-37 2l-61 26l-29 13l-4 8l-14 8l-43 41l-5 12l-12 13l-29 57l-18 29l-12 57v10h-4l-4 62l6 67l6 52l6 4l4 32l23 33l2 12h4l10 15l2 10l12 10l17 29l43 49l37 27l4 6h8l22 22h11v7h8v4l12 2l45 37l12 10l25 6l8 10l58 25l59 26l14 9h9l10 10l28 8 l33 6l6 6l27 8l45 23l23 4v4h10v4h8l12 8l11 3v4l61 20l29 12l12 11l35 8l22 12l45 53l47 49l23 23l8 2l6 10l15 4l41 27h8l26 16l23 5l35 -7l26 -30l15 -54l2 -16l-19 -27l-55 -39l-18 -24l-13 -10l-2 -13l-22 -24l-11 -27l-8 -2l-22 -59l-17 -27l-22 -59l-4 -11l-10 -8 l-25 -57l-8 -31l-31 -61l-6 -31l-25 -51l-14 -45l-12 -35l-23 -51l-8 -12l-10 -35h-4l-15 -41l-6 -4l-18 -62l-21 -33l-16 -61l-14 -27l-3 -14l-14 -29v-8l-24 -49l-19 -41l-16 -29l-21 -65l-24 -60l-25 -63l-33 -53l-2 -33l-28 -59l-11 -15l-2 -10l-12 -12l-10 -23l-25 -24 v-11h-4l-39 -49l-49 -49l-43 -41l-14 -6l-4 -6l-15 -8l-4 -7l-14 -4l-12 -10l-21 -6l-6 -6l-21 -6l-10 -11l-30 -4l-7 -4l-61 -14l-64 -8h-57l-63 8l-33 2l-10 8l-19 2l-10 8l-35 11l-18 16l-27 16l-47 41l-16 19l-11 2l-8 14l-12 10l-6 15l-6 4l-15 31l-12 10l-6 28l-6 5 l-6 32l-21 60l-6 61l4 70l10 63l6 4l9 39l28 41l19 19l10 22l49 47l25 23l2 8l12 4l8 12h8l29 19l29 12l4 6l53 15zM1233 1425h4l4 7v16l-6 6l-6 -2v-25z" />
<glyph unicode="J" horiz-adv-x="1064" d="M1174 510l4 -2l-19 -49l-12 -10l-10 -29l-7 -4l-8 -21l-24 -24l-41 -54l-43 -47l-23 -24l-22 -10l-29 -29h-8l-25 -23l-18 -4v-4l-23 -10l-4 -6l-14 -2l-14 -8l-5 -7l-36 -14l-7 -6l-32 -6l-11 -8l-32 -13l-17 -2l-14 -8h-8l-25 -16l-37 -35l-14 -62l-4 -8h-4v-8h-4 l-2 -12l-13 -21v-10h-4v-8l-10 -15v-8h-4v-10h-4v-8h-6l-27 -58l-31 -57l-6 -6l-12 -31l-14 -12l-5 -14l-22 -25l-35 -53l-45 -45l-6 -15l-49 -41l-27 -18l-16 -16l-17 -2l-12 -11l-59 -22l-27 -12l-55 -9l-72 -2l-65 9l-66 22l-51 27l-4 8l-15 4l-22 25l-19 14l-4 29l-8 6 l-6 30l-12 25l-8 68l-3 30l5 31l22 59l19 47l10 5l2 12l14 10l19 27l36 33l5 8l12 2l10 10l53 35l15 6l10 10l57 23l15 4l30 18l62 19l35 6v4l55 22l6 7l55 6l51 20l64 10l68 17l47 37l22 61l17 47l10 8v15l6 6l2 18l6 4l23 60l24 61l10 29l11 12v10h6v9h4l14 51l4 4l5 29h6 l12 41h6l6 32l15 21l22 61l27 62l12 57h6v8l27 58l22 63l27 59l20 58v4h4l13 31v8l8 10l6 19l6 6l2 14l-4 18l-12 13h-16l-15 -11l-31 -8l-12 -8l-16 -2l-23 -16l-30 -15l-19 -4v-4l-31 -12l-6 -6h-8v-6l-29 -7l-24 -16h-8l-7 -6l-30 -12l-41 -25l-29 -16h-8l-12 -13l-13 -2 l-8 -12l-10 -2l-45 -33l-21 -20l-14 -4l-22 -25l-27 -20l-19 -27l-16 -16l-2 -13l-10 -4l-2 -12l-33 -53l-14 -66l-4 -33l10 -65l2 -27l35 -53l47 -47l10 -2v-4l14 -2l13 -11l45 -10l14 -8l25 -25v-65l-9 -31l-8 -12l-10 -2l-6 -13l-29 -2l-33 5l-69 24l-58 27l-47 43 l-16 24l-23 25l-34 61l-17 25l-6 63l-10 29l-4 29l6 71l8 66l21 39l6 8v8l14 15v8l21 24l20 52l25 22l6 16l18 9l45 47l35 37l10 2l8 12l17 6l10 12l16 7l5 6l26 14l12 12l9 2l18 17l12 2l60 26l26 13l13 10l12 2l12 12h8l15 13l14 4l8 12l29 4l33 12l37 21l6 6l12 2l14 10 h9l12 6l57 9l15 10l10 2l6 12l16 4l4 6l58 23l57 16l53 41l41 51l47 48l15 4l8 12l14 2v4h8l7 10h8v4l12 2l25 13l26 6l19 -4l22 -23l15 -24l12 -35v-19l-17 -26l-26 -19l-47 -24l-29 -37l-10 -31l-29 -49v-4l-12 -12l-6 -25l-11 -8v-14l-14 -29l-18 -64l-11 -30l-16 -29 l-22 -57l-23 -62l-14 -30l-6 -7l-23 -59l-18 -55l-11 -11v-14l-10 -10l-18 -59l-23 -60l-4 -18l-27 -47l-2 -17l-8 -10v-12l-31 -60l-2 -16l-10 -10l-2 -17l-24 -57l-17 -47l-10 -12l-8 -27l-10 -16l-9 -29l-16 -27l-6 -22l10 -21l14 -8l27 6v4l39 11l8 12l29 8l26 25h11 l2 6h8l8 12l27 16l51 43l43 48l41 51v6l20 31l21 16l28 2l27 -18zM332 -2h-4l-62 -18l-63 -21l-62 -18l-35 -17h-10v-4h-8l-33 -14v-4h-10v-6h-8l-6 -7l-17 -4l-49 -37l-43 -51l-2 -8l-16 -16l-19 -41l-4 -37l6 -45l11 -8l4 -15l14 -8l39 -35l2 -4l70 -6l59 14l39 11v6h8v4 h10l52 45l24 22l39 54l23 24l30 47l13 25l14 18l10 29l29 55l20 45v17l-14 10l-16 4zM590 227l-2 -2l2 -18l4 -6l27 -8l10 -21l14 -2l4 4l-2 10l-22 19l10 26l-19 11h-6v-9zM1059 1331l2 -2l22 4v10l-8 13l-18 6zM1028 1296h4l17 -18l4 4h-4l-2 25l-37 4v-13zM532 63v-4l9 2 l2 11l8 12v12l-8 -2l-8 -12zM606 111v-7l10 2l11 11l2 12l-17 -4zM492 102l4 -2l4 6l-2 9l-6 4l-5 -6zM580 84l4 -2l4 6l-2 8l-6 4l-5 -6zM459 14l4 -2v4h4l-2 9l-6 2v-13z" />
<glyph unicode="K" horiz-adv-x="1636" d="M2105 1647l4 -2l-2 -33l-12 -27l2 -26l-33 -37l-22 -4l-68 2l-14 -2l-12 -13l-15 -4l-39 -28l-12 -13l-4 -14l-10 -4v-10h-4v-11l-6 -2l-13 -26l-14 -21v-10h-4l-10 -33l-19 -41v-10h-4v-8h-4l-2 -13l-16 -38l-7 -5l-6 -30l-20 -58l-4 -14l-13 -20l-12 -13v-10h-4v-8h-4 l-14 -51l-27 -47l-14 -31l-7 -25l-20 -24l-2 -13h-4l-6 -14l-9 -4l-4 -14l-6 -4l-12 -23l-10 -10v-8h-4l-7 -15l-8 -4l-16 -26l-49 -43l-51 -39l-25 -21l-16 -6l-5 -10l-14 -2l-57 -29l-8 -6l-23 -6l-14 -21l2 -14l37 -55l12 -15l6 -20l10 -10l9 -66l8 -25v-55l4 -4l-2 -68 l-13 -63l-4 -4v-14l-8 -27l-4 -37l-10 -25l-6 -65l-8 -64l-13 -67l-2 -12l-4 -5v-14l-4 -4l-6 -70l-4 -28l10 -62l6 -28l25 -21v-4l37 -4l30 -12l25 -19l4 -33l-2 -45l4 -6l-6 -28l2 -21l-25 -22l-32 -7h-33l-29 7l-31 14l-14 2l-8 10h-10l-19 27l-47 43l-10 8l-2 16l-17 23 l-22 57l-12 68v31l14 53l-4 14l4 45l12 54l8 63l2 18l5 5v14l6 10l10 68l4 30l10 31l6 68l7 30l18 45l-4 33l-10 33l-2 66l-21 59l-14 29l-39 47l-21 22l-28 21l-31 10h-22l-17 -6l-14 -12v-9h-4l-21 -57l-2 -8l-6 -4l-22 -51l-19 -56l-22 -57l-27 -60l-16 -43l-23 -40 l-2 -15l-29 -43v-10l-6 -2v-8h-6v-11l-8 -4l-4 -18l-11 -4v-10l-45 -50l-22 -22l-19 -29l-45 -43l-59 -33l-4 -8h-8v-6l-17 -2l-26 -18l-15 -2v-5l-61 -16l-66 -14l-61 -4l-131 12l-29 8l-18 10h-8l-58 33l-12 8l-4 11l-12 2l-31 28l-4 15l-19 14v8h-4l-6 15l-10 10l-2 8 l-12 10l-7 15l-10 8l-8 28l-14 29v23l-4 4v14l-9 6l-8 27l-4 67l-4 33l6 31l23 61v6l10 13l2 8l6 2l21 57l2 9l10 4v10h4v8l29 37l12 8l6 14l23 21l53 37l16 6l12 10l31 12l58 13l34 4l37 -2l15 -4l14 -23l10 -35l2 -37l-6 -24l-23 -23l-45 -14l-8 2l-61 -22l-25 -15 l-47 -49l-20 -22l-15 -25l-18 -64l-4 -36l6 -66l14 -63l15 -27l20 -25l51 -43l4 -4h9l2 -6l49 -18l69 -4l64 -2l61 16l62 27l53 34l49 47l23 23l4 14l12 9l2 14l19 27l4 16l10 8v8l6 4l2 11l10 4l2 12l7 6l45 123l22 47l23 64l20 47l25 59l14 29l6 24l10 13l19 63l26 57 l27 62l21 63l6 9l10 32l29 60l6 33l22 57l8 8l3 14l12 13l6 32l25 62l6 18h-6l-7 13l-14 10l-47 -14l-43 -13l-51 -20h-8l-15 -8h-10l-2 -5h-8l-60 -24l-49 -19l-24 -8l-9 -10l-12 -2l-57 -35l-25 -20l-28 -17l-41 -41l-5 -14l-10 -4l-16 -31l-8 -26l-4 -66v-66l8 -16 l12 -41h4l8 -22l31 -25l53 -20l15 -7l20 -24l8 -23l2 -35l-4 -34l-16 -25l-14 -10l-15 -2l-63 12l-33 14l-29 17l-14 4l-53 43l-4 12l-9 4l-4 13l-12 10v6l-16 18l-27 60l-6 22v17l-8 24v76l6 74l8 47l10 4v8l6 4l4 13l7 4l12 28l6 6l2 19l17 24l34 23h6l39 43l2 8l52 37 l45 29l8 2l12 10l31 10l12 8l58 23l61 20l31 15l53 16l18 10l15 2l24 11l39 4l33 10l12 10l29 6l59 25l60 29l39 30v9l41 47l10 12l53 41l21 16l59 11l6 4h47l25 -19l16 -53l-2 -20l-6 -17l-21 -20l-51 -35l-16 -25l-41 -41l-16 -45h-5l-10 -33l-6 -18l-10 -12l-2 -17l-8 -4 l-9 -28l-28 -56l-6 -32l-31 -60l-6 -29h-4l-11 -30h-4l-8 -33l-27 -59l-24 -62l-21 -49l-10 -35l-26 -65v-13l14 -22l24 -8l66 -2l37 2l63 16l52 35l53 39l28 35l11 6l2 12l24 20l21 25l10 29l33 53l20 55l17 29l22 63l21 56l2 8l16 18l2 13h4v10h6v8l7 12l4 37l22 64l27 59 l24 62l15 26l43 47l39 51h8l22 21l29 10l10 10l29 11l10 8l49 4l11 6l63 8l6 -4l68 -4zM1163 1370v-4l15 6l8 19l-12 4l-9 -13zM889 532v-10h10v10h-10zM1090 1354v-11h8v11h-8z" />
<glyph unicode="L" horiz-adv-x="1452" d="M649 -123v4l-26 19l-43 49l-25 20l-31 19l-22 6l-31 -12l-22 -25l-39 -31l-13 -2l-2 -8l-20 -6l-10 -8l-31 -13h-8l-58 -26l-63 -6l-31 -7h-33l-67 13l-45 12l-25 16l-14 5l-8 12l-15 4l-24 25l-15 8l-12 20l-10 4l-2 15l-27 57l-10 61l2 70l2 12l4 4v15l14 30l9 25 l22 23v6l49 43l25 16l33 12l10 11l31 12l6 6l57 6l72 6l49 -16l63 -12l60 -29l55 -37l29 -4l14 8l8 19l11 8l2 14l18 31l23 57l18 43l12 13l4 32l27 66v22l-21 25l-28 12l-10 11l-17 2l-6 6h-14l-8 10l-27 8l-29 14l-10 13l-16 6l-48 43l-22 24l-18 15l-5 12l-20 23v8 l-29 33l-2 18l-10 12l-20 56l-15 55l-12 72l4 61v33l14 63l19 62l24 47l9 22l18 19l6 14l12 8l4 15l41 49l46 45l24 20l33 13l29 -2l4 -11h8l20 -18v-8l8 -4l3 -13l14 -10l2 -16l4 -4v-15l-16 -26l-50 -47l-16 -19l-37 -53l-20 -25v-10h-4v-8h-4v-10h-5l-18 -58l-16 -67 l-4 -31l6 -29l2 -32l20 -62l6 -14l13 -13l8 -24l16 -29l47 -45l54 -41l14 -10l14 -4l8 -10l15 -2l14 -11l33 -6l18 15l15 4l18 57l16 27l7 18l10 10l2 17l6 6l4 28h4l8 31l19 31l2 12l14 25l10 35l31 55l27 61l4 15l12 8l4 14l11 4l20 58l18 22l3 8l22 29v8h6l33 60l6 18 l43 51l27 37l26 23l21 24l24 19l9 10h8l53 41l14 10h7l57 27l37 14l32 6h66l68 -4l30 -2l4 -4l33 -8l4 -6l29 -13l51 -37l19 -14l2 -12l6 -4l8 -17l10 -10v-8h4l2 -12l25 -43l12 -60l4 -26l-2 -76l-12 -66l-12 -63l-23 -64l-20 -49l-11 -10v-8l-10 -11l-4 -14l-8 -4v-10 l-10 -8l-2 -15l-13 -12l-14 -27l-16 -16l-27 -41l-10 -25l-15 -8l-4 -14l-49 -45l-53 -43l-55 -37l-7 -10h-8l-4 -8h-8l-23 -23l-20 -6l-14 -10l-17 -4l-26 -17l-19 -6l-8 -10l-25 -2l-59 -23l-63 -20l-60 -8l-16 -3l-4 -4l-68 -6l-33 2l-30 -4l-9 -6l-14 -2l-27 -20 l-26 -58l-4 -14l-6 -6l-19 -58l-10 -32l-31 -72l-10 -14l-8 -31l-12 -12l-3 -15l-24 -45l-2 -12l-8 -10l-9 -35l2 -8l13 -11l4 -14l8 -4l19 -21l14 -6l18 -24l49 -43l48 -47l47 -43l20 -27l27 -18l47 -45l12 -9l10 -14l21 -10l20 -25l27 -18l16 -19l54 -34l30 -27h8v-6h11 v-4l51 -15v-4h8v-4l53 -18l31 -8l37 -5l14 7h15l12 8l33 6l57 33l31 16l47 41l4 8l45 21l35 -21h8l10 -10l6 -14l23 -23l18 -27l4 -14l-8 -31l-18 -24l-55 -39l-13 -12h-8l-25 -19l-8 -10l-12 -2l-51 -27l-17 -4l-24 -16l-17 -2l-20 -8l-64 -11l-30 -4l-62 4l-51 17l-59 22 l-31 13l-49 30l-37 17l-51 39l-15 6l-4 6l-8 2l-10 10h-8l-29 27l-6 6h-6l-49 49l-50 43l-47 45l-49 43zM969 762h4l65 18l60 25l57 33l27 8v6h10v4h8l53 43l21 12l47 45l45 48l39 49l6 4l21 41l10 4l4 14l12 12l4 25l13 12l6 33l14 21l16 49l5 32l10 33v82l-6 6l-4 33 l-17 25l-2 12l-47 29l-35 10h-31l-57 -19l-39 -24h-8l-49 -43l-17 -19h-10l-43 -53l-8 -6v-10l-45 -51l-8 -21l-19 -27l-8 -18l-8 -4v-8l-8 -4v-11l-10 -4v-10h-5v-8l-6 -2l-24 -62l-29 -59l-27 -57l-24 -64l-29 -57l-20 -58l-13 -30l-4 -31l4 -8l17 -10l33 -4zM100 236 l-4 -3l-4 -8h-10l-14 -18l-25 -23l-2 -10l-8 -4l-8 -23v-36l26 -58l27 -26l61 -17l56 -4l4 6l24 2l27 19l33 12l47 43l18 21l4 16l-2 14l-18 27l-51 43l-39 22l-23 5l-2 4l-67 4h-31zM778 735h-4l-8 10l-8 -4l-2 -16l32 -8l7 -12l20 -3l2 11l-8 14zM426 119v-6l16 -27l2 -10 h9l10 10l-2 16h-19l-2 7l13 10l2 8h-4l-11 10h-4zM682 633v-29l23 -18h12l6 14l-6 4h-17l-14 29h-4zM717 664l-4 -2l4 -17l14 -8h8l11 10l-2 6l-23 13zM750 780l-5 2l-8 -2l2 -16l9 -2l16 16l6 -2v23l-6 2l-6 -17l-8 -8v4zM649 465v-4l15 -4l18 18l-8 4l-17 -2zM453 170h6 l8 23l-8 4l-6 -2l-4 -17zM893 1071l6 -2l8 14l-10 4l-8 -10zM471 154l-4 -9l18 -4v11l-6 4zM537 55v-6l20 2l-8 10h-8zM969 1249v-14h14l-6 14h-8zM557 350l-2 -4l18 -6v14zM1507 1552l4 -2l5 9l-5 10h-4l-4 -6zM797 842v-11h10v11h-10zM612 76v-8h9v8h-9z" />
<glyph unicode="M" horiz-adv-x="1918" d="M1075 1462l6 4l2 7h11l43 28l8 4l10 13l27 10l28 16l37 10v7l66 4l67 -2l35 -9v-4h10v-4h9v-6h10l2 -6l16 -6l8 -15l15 -10l24 -45l13 -26l24 -13l27 21l18 8l4 10l13 2l37 25l2 6l43 27l18 4l12 12l15 2l10 10l57 15l66 4l67 -13l25 -2l20 -10v-4h11l4 -8l10 -6v-9 l12 -10l23 -45l12 -63l-2 -39l-4 -4l-4 -33h-6l-8 -66l-9 -18l-2 -14l-8 -11l-2 -20l-16 -25l-17 -53l-8 -6v-14l-6 -7l-4 -14l-12 -12l-19 -58l-14 -45h-4l-2 -22l-27 -39l-41 -123l-6 -12v-10l-10 -15l-21 -57l-8 -8l-27 -68l-2 -16l-16 -33l-10 -35l-11 -16v-15h-4 l-32 -57l-15 -49l-6 -8l-2 -25l-6 -8l-10 -33l-29 -57l-25 -64l-10 -12l-14 -61l-19 -27l-22 -61l-6 -29l-17 -27l-6 -28l-4 -4l-4 -41l4 -33l14 -39l41 -43l23 -25l2 -12l8 -12l-4 -33l-20 -55l-13 -19v-6l-34 -27l-31 5l-29 10l-8 14l-37 33l-6 14l-21 23l-16 33l-8 4v10 l-14 8v10l-7 4l-8 15l-6 63l-4 68l10 65l15 64l24 61l4 2l2 13l13 20l20 59l23 60l6 6l2 14l8 15l8 28l6 9l4 26l31 55l8 33l27 62l6 6l6 28l6 13h4l11 28l14 25l6 31l19 43l20 53l4 29l14 18l3 12l18 33l23 64l12 20v10h4v9h6l2 12l8 4l2 12h6v8h5v11h4l8 65l22 49l17 25 l8 45l14 18l23 64l20 57l4 8l-2 37l-12 29l-12 12l-29 6l-70 -4l-32 -6l-56 -31l-14 -8l-10 -12l-53 -37l-39 -39h-9l-45 -49l-18 -63l-20 -52l-11 -8l-8 -29l-8 -12l-2 -12l-23 -45l-18 -60l-10 -20l-4 -23l-13 -12l-18 -61l-6 -23l-11 -10l-10 -29l-10 -10l-8 -35l-23 -55 v-14l-22 -45l-23 -62l-22 -63l-27 -58l-20 -55l-5 -4l-6 -25l-10 -12l-2 -29l-6 -4l-4 -24l-31 -56l-27 -61l-18 -62l-10 -30l-27 -43l-12 -2v-4l-62 -11l-12 -4l-41 2l-31 11l-10 8l-4 26l27 64l20 61l25 52l20 61l21 53l10 23l2 16l21 35l14 43l8 33l6 4l10 31l9 10l2 14 l8 14l6 5l12 30l6 31l17 41l24 57l21 56l22 59l31 57l23 64l22 59l8 19v10l13 12l4 25l8 8l22 61l5 17l10 10l18 61l17 39l12 35l2 35l-6 29l-8 14l-21 20l-31 5l-67 -13l-29 -10l-41 -29h-8l-51 -34l-51 -41l-45 -48l-11 -12v-8h-6l-2 -12l-24 -49v-7l-17 -20l-18 -41 l-2 -16l-6 -5l-5 -32l-32 -51l-19 -64l-18 -55l-17 -29l-18 -63l-2 -17l-18 -41l-11 -8v-14l-26 -56l-4 -14l-11 -10l-20 -62l-2 -8l-6 -4l-21 -61l-8 -19v-8l-10 -12l-21 -58l-4 -14l-12 -12l-12 -23l2 -8l-15 -53l-6 -6l-4 -19l-6 -8l-12 -47h-4v-8h-7l-2 -21l-10 -8v-8 h-6v-10h-4l-6 -33l-8 -14l-13 -46l-10 -4l-2 -12l-21 -20l-61 -11l-70 2h-8l-18 13l-4 8l8 43l16 55l17 33v14l22 49l2 11l6 6l21 47l14 31l6 32l11 31l6 2l8 31l14 20l2 15l8 16l5 25l26 55l23 61l20 45l12 11l3 12h4l8 43l28 59l23 62l25 59l8 33l24 55l11 33l22 43l25 59 l22 64l2 14l6 4l25 52l31 98l4 4l2 25l-19 16l-26 -4l-70 -31l-43 -12l-20 -14l-31 -11l-6 -6l-60 -22l-61 -27l-61 -23l-27 -20h-8v-6l-54 -27l-8 -10h-8v-4l-20 -10l-4 -9h-9l-32 -32l-5 -15l-18 -14l-22 -35l-11 -33h-6v-10h-4l-14 -63l-4 -31l4 -33l24 -61l15 -27 l24 -24l29 -19l41 -12l20 -25l11 -6v-14l4 -4l2 -64l-4 -16l-31 -33l-29 2l-41 12l-4 7l-59 12l-6 10l-41 23l-37 51l-6 14l-9 4l-16 29l-6 4l-8 25l-13 8l-12 65l-6 62l2 73l8 29l8 12l13 58l2 16l12 25l45 51l6 14l13 11l43 51l18 18l12 2l49 33l21 12l4 10h8l23 17l39 20 l14 2l8 13l43 12v4l58 25l59 30l45 15l61 24l19 11l65 16l21 14l24 6l29 17l62 24l53 21l31 -4l24 -19l23 -26v-9h6l14 -30l25 -35l16 -8l16 -2zM915 1282l-2 4h-18v-4l-18 -12v-6l14 -9l33 9v10zM893 1380l-2 -6l18 -2l15 -26l-15 -7l-4 -6l8 -4l25 14l-23 39l-12 7z M1212 776l-2 -4l25 8l2 13l12 12l4 12l-16 -6l-20 -23zM1452 -133v4l-22 14l-7 -8l13 -12l10 -19l6 7l-6 4zM1962 1415v-22h10l6 4l9 14l-7 4h-18zM1407 1307l-2 -2v-15l18 2l7 4v9l-7 4zM1395 1382l-2 -4l20 -10l6 2l2 6l-6 10h-16zM877 1114h6l-2 16l-4 7h-13v-17z M1403 1423l-2 -2l2 -8l14 -2l8 4l5 10zM854 1225v-4l8 2l15 12v12l-5 2zM1327 1022v-14h8l6 10zM1466 1364h4v8l-6 6h-8l2 -8zM938 1399v4h-14l2 -6l6 -2z" />
<glyph unicode="N" horiz-adv-x="1452" d="M287 -8l-2 2l-4 8v14l20 62l6 14l6 4v8h4v11l15 18l8 4l16 66l15 28l18 60l27 57l8 31l10 8v14l17 52l28 59l25 57l12 45l6 7l8 22v10h5v9h6l2 12l16 28l2 15l12 18v10h5l6 29l8 4l8 41h4v10h6v9l25 61l20 59h7v11h4v8h4v10h4l6 23l6 6l23 57l22 64l8 30h4v9l23 47l22 59 l9 8l6 43l-15 21l-14 2l-29 -10l-16 -3l-57 -24l-66 -21l-20 -6l-41 -28h-15l-57 -25l-59 -25l-15 -4l-53 -39l-37 -22l-24 -27l-9 -2l-45 -47l-22 -22l-14 -23l-7 -4v-10h-6v-8h-4l-6 -25l-2 -45l-8 -31v-31l4 -22h4l6 -33l33 -55l53 -35l29 -14l26 -23l11 -30l4 -35 l-4 -33l-17 -27l-32 -8l-33 2l-45 14l-23 17l-14 2l-33 16l-4 11l-14 4l-15 22l-18 15l-27 47l-10 6v8l-10 12l-10 33l-11 14l-10 56l-6 59l2 72l10 41l19 45l6 4l4 14l37 43l2 14l18 19v8l45 47l47 45l21 11l8 10l12 2l56 39l57 32l14 5l4 10l25 2l12 12h11v4h10v4h8l29 17 l20 4l6 6l15 2v4h10v4l28 8l41 7v4h9l22 20l31 14l63 19l58 31l65 26l64 21h8v-4l33 -21v-8l10 -14l16 -64l25 -63l6 -15l12 -12l17 -4l12 2l31 18l4 9l12 2v4l27 18l16 21h10l23 18l45 27l6 6h14l25 16l14 4l4 9l31 16l4 6l53 18l29 9l58 4l10 -2l4 -6l61 -21l23 -6l41 -51 l24 -64l-10 -53l-12 -59l-4 -47l-19 -37l-4 -19l-26 -55l-19 -33l-10 -55l-14 -45l-29 -64l-23 -61l-18 -41l-16 -29l-21 -63l-20 -56l-27 -61l-25 -53l-10 -4l-12 -33l-6 -31l-25 -45l-16 -26l-4 -15l-11 -12l-6 -31l-2 -37l-16 -39l-10 -32l-27 -60l-16 -28l-21 -62v-10 h-4v-8l-20 -25l-15 -24l-4 -35l-10 -31l-4 -31l-6 -12l-2 -16l-5 -7h-4v-10h-4v-8h-4l-2 -12l-6 -6l-2 -17l4 -18l21 -27l10 -20l45 -47l12 -11l8 -16l2 -31l-4 -28l-6 -5l-8 -22v-10h-4l-19 -25l-28 -18l-15 -2l-4 -4l-24 6l-17 8l-16 18l-16 6l-7 7l-4 14l-24 22l-17 29 l-12 12l-2 11l-12 12l-2 18l-21 60l-6 59l6 68l10 53l23 63l10 13l21 57l8 35l29 59l8 31l28 47l5 23l20 61l25 62l10 26l10 8v11h4v8h4l15 57l20 51l4 15l17 26l6 27h4l2 12l29 62l10 43l8 8l20 51l2 10l11 13l22 59l37 92l2 17l10 14v8l27 57l23 60l24 67l12 31l7 31 l-5 28l-8 17l-20 18l-25 8l-65 -16l-21 -12h-10l-57 -35l-52 -33l-12 -12h-8l-23 -23l-55 -38l-10 -13l-14 -4l-19 -24l-27 -17l-45 -49l-18 -23l-21 -63l-10 -18l-20 -64l-10 -31l-9 -12l-6 -25l-12 -12l-14 -55l-15 -27l-6 -26l-6 -9l-2 -16l-29 -55l-18 -37l-10 -8v-8 l-11 -15l-16 -65l-6 -4l-17 -56l-22 -57l-25 -74h-4l-24 -45l-13 -31l-6 -30h-4l-18 -56l-27 -63l-20 -62l-15 -38l-6 -5l-4 -12l-12 -14l-13 -2l-10 -8l-33 -9l-45 5l-8 6l-12 -6l-33 2zM858 1247l-2 -2l2 -10l12 -10l9 -17l4 9l10 6l-6 26l-8 6l-2 -6zM760 1010l-2 -4 l10 -15l25 2l2 6l-15 9v20l-8 -2l-12 -12v-4zM868 1208h-18l-4 -8l-23 -18h33zM1495 1409h4l4 16l-4 7l-12 4l-4 -17zM1509 1364l4 -2l11 12v10h-13l-10 -10zM893 1278h4l4 6l-8 27l-6 -23zM944 1274v-4l6 -4l11 8l2 10h-11zM498 305v-6l10 2l4 6l-2 8l-6 4zM1389 1464h4 l4 15l-8 4l-5 -8zM932 1339h6l-2 9l-16 4l2 -9zM915 1180v-4h11l2 8l-8 6z" />
<glyph unicode="O" horiz-adv-x="1384" d="M940 1706h4l4 4l68 -4l65 -10l29 -8l4 -7l21 -6l32 -26l45 -47l23 -21l29 -57l22 -64l12 -65l7 -66l4 -35l-6 -61l-5 -64l-8 -67l-4 -60l-4 -4l-2 -16l-16 -35v-61l-19 -47l-18 -68l-19 -61l-22 -62l-21 -59l-2 -15l-12 -12l-2 -16l-14 -27l-23 -65l-2 -9l-10 -12l-4 -14 l-15 -25l-4 -22l21 -23l35 -10l65 8l29 6l63 31l39 29l45 47l41 49l33 10l27 -12l18 -21v-32l-14 -29l-45 -55l-52 -43l-45 -29l-8 -2l-10 -12l-53 -25l-68 -16l-63 -7l-68 5l-49 6l-27 -17l-18 -16l-8 -12l-2 -17l-9 -2l-12 -26l-37 -41v-9l-41 -51l-43 -47l-47 -49 l-51 -41l-45 -45l-62 -25l-28 -12l-53 -37l-33 -6l-31 -12l-61 -4l-66 -2l-68 8l-26 6l-6 6l-25 4l-41 25h-8l-10 14l-13 2l-47 49l-37 54l-24 57l-10 8l-15 60l-8 32l-6 56v69l2 74l4 61v21l4 4l6 33l4 4l11 63l10 60l20 57l7 4l4 33l6 10l20 70l19 59l16 31l6 31l6 4 l13 30l10 13l25 59l8 14l10 9v10h4l27 59l4 13l6 6l2 12l14 31l8 8l3 8l22 33l12 10l41 51l6 11l15 12l2 14h6v8l10 11l2 14l8 2l3 12l26 21l21 26l45 43l47 45l24 25l13 2l10 10l33 11l45 32l51 43l14 6l8 13l15 6l18 18l12 6l11 13l14 4l10 10l29 10l6 7l60 16zM508 1204 v-4l-14 -18l-5 -19l-14 -10v-8l-10 -6v-9l-8 -4l-4 -18l-19 -27l-31 -59l-32 -53l-6 -37h-7l-8 -31l-14 -31l-4 -18l-6 -4l-19 -47v-8h-4l-8 -33l-6 -4l-21 -66l-24 -57l-4 -33l-15 -57l-10 -25l-14 -65l-13 -66l-4 -12l-4 -64v-69l4 -66l9 -61l6 -21l8 -2v-10l8 -4l10 -29 l17 -26l22 -21l17 -4l30 -16l58 -11l12 -4l70 15l32 6l27 12l80 61l16 19l15 4l2 8l47 47l47 49l2 13l14 10l2 10l8 4v11l15 8l4 14l37 51l4 15l12 18l-4 33l-6 4v10l-14 8l-5 11l-12 2l-45 51l-39 51l-6 20l-37 52l-33 57l-20 61l-21 66l-12 63l-12 56l-4 61v99l-4 32l4 4 l2 72l6 41l-2 14l-21 13l-8 -2zM895 1507l-2 -2h-10v-4h-9l-24 -22h-8l-21 -27l-12 -10l-18 -37h-5v-10h-6l-6 -25l-26 -59l-21 -66l-14 -59l-13 -64l-6 -35l4 -10v-35l-6 -32l2 -60l8 -69v-47l19 -56l8 -30l12 -25l21 -64l26 -57l35 -45l23 -31l22 -20l13 -2l26 16l13 12v9 h6v10h4v8l20 35l17 35v14l10 14l4 19h4l14 47l15 29l16 61l10 21v14l15 31l14 59v16l21 62l14 67l6 11l6 65l12 64l2 75l-2 29l-12 55l-22 66l-7 16l-43 37h-8l-4 10l-26 13l-35 6l-56 -12zM680 1425v-8l12 -8h10l5 8l-2 17l-15 2zM922 387l4 2l-4 14l-25 5l4 -19l14 -6z M864 1585h-4l6 -14l6 -4h11v10l-11 10l-8 2v-4zM1096 733v-6l18 2l6 6l-6 4l-2 9l-6 2zM1106 803l4 2v8l-6 6h-12v-10l4 -6h10zM655 1378l-4 -2v-10h4v-4h11v4h4v10h-4v4zM330 1034l-4 -2l6 -12h12l-2 14l-10 4zM623 1405v-14h14v14h-14zM694 1317h4l4 6l-2 8l-12 4v-10z M682 1362l-2 -4l18 -10v10l-12 8zM614 1358v-4l11 -4l12 12l-8 2zM926 287v-11h8v11h-8z" />
<glyph unicode="P" horiz-adv-x="1302" d="M94 -14l-4 2l-4 10l6 12l12 10l15 35l-4 43l28 66l25 61l10 33l12 12l3 29l4 4l2 14l22 37l8 29l11 6v8l10 13l4 14l10 14l17 64l22 63l25 53l22 58l21 63l6 6l18 50l29 61l18 45v6l7 4l-3 15l9 22l12 10l8 23l10 14l2 33l25 47v8l6 4l10 33l29 60l21 57l6 14l41 54l4 14 h4v10h6v8l16 23l39 33l11 16l14 6l8 10l55 25l64 20l28 -12l11 -8l4 -14l10 -13l8 -34l-4 -25l-12 -10l-2 -11l-15 -14l-12 -2l-20 -27h-8l-23 -24l-8 -16l-12 -11l-5 -8l-10 -8l-8 -23l-8 -4l-15 -41h-4l-28 -61l-13 -31l-6 -31l-16 -22l-25 -66l-4 -16l-10 -16l-23 -54 l-24 -61l-8 -33l-6 -2v-10l-11 -10l-12 -31l6 -31l21 -24l22 -13l43 -8l37 -2l31 -8l67 -4l64 8l61 12l47 23l43 18l11 13l10 2l10 14l14 4l9 14l14 4l18 25l9 4l18 27l25 22l26 35l23 59l26 58l17 67l6 62l6 69l-4 31l-10 25l-2 18l-19 51l-28 60l-35 53l-39 49l-21 23 l-49 39l-47 30l-33 11l-4 4l-22 4l-4 6l-66 14l-61 6l-70 2l-33 -2l-61 -12l-37 -6l-29 -10l-6 -6l-45 -17l-14 -6l-11 -10l-14 -4l-8 -11h-10v-4l-58 -34l-47 -41l-22 -25l-31 -25l-4 -14l-12 -8l-27 -53l-12 -13l-27 -39l-10 -12l-19 -53l-18 -68l-10 -30l-4 -64l4 -69 l14 -64l8 -33l2 -28l-14 -31l-25 -23l-41 -24l-18 -4l-12 2l-21 20l-20 29l-15 33l-10 61l-4 62l-2 71l-2 64l12 63l4 17l11 10l2 22l12 29l4 27l21 24l12 29l4 20h4v11h4l4 14l10 8v10h5l4 15l39 45l2 12l45 49l47 43l10 15l12 4l37 36l17 5l22 20l57 35l37 22l33 9l4 6 l33 6l61 22l9 2l4 7l65 4l62 12l69 2l68 -4l61 -12l25 -13l33 -10l34 -4l27 -16l61 -21l15 -14l14 -2l19 -17h8l4 -6l12 -4l4 -8l51 -33l50 -53l36 -45l23 -27l16 -26l4 -15l7 -6l22 -61l4 -2v-9l10 -14l3 -33l6 -4l8 -61l4 -68l2 -59l-4 -70l-4 -33l-12 -28l-9 -39l-6 -8 l-4 -25l-8 -18l-10 -4v-9l-13 -12l-2 -12l-8 -4l-4 -23l-8 -4l-6 -29h-4l-15 -28l-10 -8l-4 -15l-10 -4l-4 -14l-9 -4l-6 -15l-43 -49l-24 -22l-13 -4l-12 -19h-8l-27 -18l-35 -13l-24 -22l-31 -12l-6 -7l-22 -4l-25 -18l-39 -12v-4l-127 -5l-16 -4l-58 4l-4 5l-63 6l-60 18 l-53 12l-31 15h-16l-14 -6l-23 -23l-12 -27l-23 -65l-22 -62l-25 -59l-10 -33l-10 -12l-23 -59l-24 -62l-15 -22l-6 -25l-6 -8l-20 -64l-9 -14l-22 -24l-66 -15l-63 4zM707 1266l-5 2l7 -15l14 -2l35 9l-2 18l-17 8l-6 -14l-12 -8zM354 387v-8h11v8h-11z" />
<glyph unicode="Q" horiz-adv-x="1320" d="M813 70l-2 -4l4 -17l45 -47l94 -94l52 -43l24 -23l17 -8l30 -29l29 -38l24 -13l58 -39l53 -34l53 -29l9 -12l22 -9l6 -6l68 -4l59 -2l60 19l8 2l4 10h14l12 10l11 2v6l12 2l2 8l14 5l13 12l14 6l37 31l16 6l29 -4l51 -41l43 -53v-13l-16 -26l-43 -45l-29 -17l-22 -22 l-15 -2l-8 -11l-33 -10l-37 -16l-10 -10l-55 -9l-47 -18h-72l-33 4l-55 18l-16 5l-4 6l-13 4h-16v4l-41 4l-23 18h-10v7l-41 8l-22 22l-39 31l-15 6l-10 12l-16 9l-47 41l-11 12l-12 2l-45 35l-51 47l-49 45l-15 18l-12 2l-35 37l-12 4l-23 25l-26 18l-51 49l-13 7l-28 -4 l-86 -50l-27 -6l-8 -10l-51 -16l-74 -11l-59 -10l-68 -4l-64 4l-55 19l-63 16l-43 22l-11 13l-16 8l-39 51l-10 17l-23 63l-4 27l2 71l4 29l13 31l16 26l2 11h4l37 51l25 16l24 25l15 4l14 10l10 2v4l33 8l4 4l21 5l4 4l65 4l64 -2l55 -11l33 -12l47 -8l51 -29l55 -34l13 -9 l16 -2l8 -12h8l41 -39l13 -4l12 -14l29 -6l14 2l45 34l16 29l43 47l9 14l8 5l10 20l14 10l2 15l9 4l14 33l10 8l2 14l19 25l6 16l10 6v8l35 58l2 8l8 4v10l12 12l9 31l4 2l6 31l30 55l9 31l6 4l4 29l14 30l8 29l15 19l12 63l14 66l13 63l2 8l6 4v41h4l8 62l4 65v31l-14 66 l-21 63l-26 55l-12 11l-3 16l-49 47l-28 16l-17 15l-14 4l-8 10h-8l-2 4l-70 2h-64l-51 -6l-10 -10l-55 -23l-31 -12l-51 -33l-54 -43l-28 -20l-23 -23l-16 -24l-29 -31v-8l-12 -12l-37 -54l-14 -20l-2 -12h-4l-7 -17l-10 -12l-2 -19l-10 -8l-2 -12l-6 -6l-2 -15l-33 -57 l-16 -55l-3 -39l-10 -27l-2 -16l-4 -4v-68l-4 -33l4 -30l10 -17l4 -14l7 -6l10 -29l16 -28l53 -54h11v-4l61 -26l21 -15l14 -16l-2 -35l-10 -29l-19 -28l-28 -29l-31 2l-45 14l-60 23l-4 8h-8l-24 19l-15 4l-31 36l-14 11l-35 57l-20 35v10h-6v8h-4v11h-5l-10 63l-16 66 l4 67l8 62l2 30l15 62l14 63l6 19h4l4 22l10 15l3 14l12 12l24 60l11 28l39 51l12 15l6 14l6 4l4 15l45 45l19 28l47 49l28 17l48 45l26 22l55 25l21 6l27 21l65 22l12 6l123 33l35 2l62 -4l34 2l31 -8l51 -6l23 -8l4 -7l43 -14l12 -10l23 -6l10 -15l14 -4l8 -14l15 -4 l43 -51l37 -43l2 -15l24 -55l21 -62l12 -63l14 -66v-65l-4 -68l-4 -63l-4 -31l-10 -35l-12 -24l-4 -19l6 -34l-11 -54l-4 -4l-4 -33l-16 -49l-2 -12l-27 -57l-12 -56l-6 -6l-6 -24h-4v-9h-7l-4 -16l-20 -33l-2 -16l-6 -4v-8l-17 -31l-20 -23v-8l-6 -6l-27 -61l-10 -21 l-13 -10l-32 -55l-19 -33l-18 -15v-8l-43 -49l-21 -24l-2 -13l-8 -4l-8 -14l-14 -12v-9l-46 -45zM227 215h-24l-27 -4l-4 -6l-33 -10l-14 -9l-21 -24l-10 -29l-6 -39l6 -28l12 -13l5 -14l45 -35l34 -6l5 -6l63 -10l68 6l16 2l14 8l29 4v4l64 14l14 9h10l27 24l8 13l2 14 l-6 14l-41 41h-8l-11 12l-16 5l-12 12h-8l-29 18h-8v4l-60 19l-65 14h-15zM635 133v-6l4 -18l-18 -25v-4l32 -6l17 18l12 4l-6 23l-14 6l-9 14l-10 2zM584 59v-16l14 -4l-2 -10h-21v-19l13 4l18 -4l12 29l3 14h-19l-14 13zM719 25v-15l6 -4l18 2l13 8l-15 11l-4 8l4 6l-2 8 l-6 4zM760 -31h4l8 11l23 -9l2 6l-41 21v-21zM692 88l-2 -2v-8l6 -6l23 4v8l-6 6zM1108 752v-4h8l4 8l-8 6z" />
<glyph unicode="R" horiz-adv-x="1292" d="M948 569l-4 -2l-2 -10l4 -16l19 -25l4 -14l10 -13l4 -14l10 -12l4 -12l9 -68l16 -61l-4 -64l-4 -55l-4 -6l-11 -64l-10 -61l-10 -68l-12 -57l-19 -53v-62l-10 -51l-4 -70l8 -55l10 -6v-8l19 -25l57 -25l21 -18l14 -25l6 -34l-4 -70l-14 -8l-11 -15l-30 -2l-66 11l-57 32 l-8 2l-5 9h-10l-8 14l-12 2l-39 53l-14 25l-17 67l-12 62v67l12 66l2 33l6 6l6 61l3 13l4 4l14 65v23h4v16l6 2v19h4l11 65l4 64l4 43l4 4l4 61l2 70l-14 61l-4 17l-29 55l-47 43l-19 18l-14 5l-4 10l-41 8v4l-31 6l-55 23l-31 10l-24 -4l-21 -27l-16 -39l-10 -12l-3 -12 l-14 -29l-8 -31l-10 -10l-2 -14l-27 -62l-25 -61l-18 -62l-16 -40l-31 -52l-16 -32l-11 -13l-2 -24l-6 -6l-16 -60l-15 -43h-4l-6 -12l-29 -25l-81 2l-27 6l-19 17l-14 31l4 30l21 54l6 18h4l2 12l27 21v10h4v8h4l6 62l16 41l29 59l23 57l24 64l6 20l11 13l6 32l6 4l6 25 l14 29l6 26l11 8l8 29l12 21l23 55l12 27l6 28l23 51l22 50l8 30l23 56l24 57l27 61l8 29l13 12l2 17l22 63l14 23l5 24l36 49l21 29v8l8 4l6 15l37 33l10 14h9l22 27l12 4l4 6l48 20l38 13l39 -5l21 -22l6 -23v-16h4v-33l-12 -28l-51 -39l-27 -21l-33 -57l-28 -39l-23 -64 l-6 -16l-6 -4l-2 -14l-13 -17l-22 -63l-6 -6l-2 -11h-4l-21 -57l-22 -64l-29 -67v-29l22 -22l25 -13l72 -18l59 -8l33 -4l67 6l62 8l55 25l58 39l8 10l14 4l21 24l34 33l6 17l13 10l8 14l10 8v11h6l2 14l11 12l2 15l16 28l2 13h4l4 32l4 4l13 60l12 63v45l-8 31l-6 47l-6 6 l-5 33l-20 47l-31 49l-45 47l-45 50l-6 6h-10l-2 6l-82 33l-13 12l-28 4l-10 6l-66 6l-68 8h-63l-45 -8l-57 -2l-60 -26l-24 -7l-11 -10l-57 -26l-53 -33l-10 -14l-15 -5l-47 -47l-25 -22l-40 -47l-17 -19v-8l-10 -6l-2 -14l-10 -19l-13 -12l-2 -14l-28 -56l-15 -28l-8 -29 l-16 -25v-14l-6 -16l4 -66l4 -63l10 -64l2 -16l8 -21l2 -16l-10 -29l-20 -29l-23 -20l-31 -12l-16 -2l-16 4l-21 24l-14 31l-13 64l-14 67l-6 33l4 61l-4 17l6 63l2 21l6 4l15 65l20 60l16 49l11 18l12 13l14 26l27 33l2 12l39 49l41 54l24 24l15 6l14 19h10v4l15 6l10 14 l12 2v5l15 8l4 6l53 31l59 32l60 19l10 8l61 20l17 3l4 4l59 6l37 8l64 -2l63 4h33l65 -10l66 -13l31 -10l22 -12h8l62 -25l8 -2l10 -10l25 -6l22 -21l56 -36l12 -13l12 -4l41 -49l39 -53l31 -53l16 -37l10 -11l2 -30l13 -54l4 -4v-32l10 -58l-2 -69l-8 -68l-19 -61l-20 -64 l-18 -61l-3 -9l-6 -4l-14 -28l-23 -33l-8 -4v-10l-10 -4v-9l-14 -10l-4 -14l-50 -45l-49 -43l-18 -8v-5l-27 -10l-4 -10l-12 -2l-6 -6l-21 -6l-6 -7l-39 -10l-4 -6l-14 -2l-15 -8l-32 -2l-15 -10zM936 227l4 -2l8 6l-24 19l-9 2l13 -23zM444 600h9l-2 18l-5 7h-8l2 -19z M631 1092l-2 -5l4 -4l6 9l-6 6z" />
<glyph unicode="S" horiz-adv-x="1308" d="M41 -471l-2 -2l-12 -10l-33 -4l-49 4l-37 28v33l10 64l-2 67l6 41l4 4v8l11 7v8l14 18l6 27l2 35l33 59l33 55l6 6l2 13l20 28l4 31l-8 31l-10 22h-4l-21 37l-10 11l-16 63l-15 37v10l-6 10l-4 66l-8 61v72l4 12v29l16 49l5 16l6 7l10 53l10 14l6 21l21 24l18 39l8 2 l4 13l13 12l4 10h8l8 14l25 21l20 24l39 29l10 14h11v5h8l33 18l14 2l10 12h8l5 9h10l8 12l22 8l25 2l4 6l29 6l65 4l68 2l63 -10l60 -18l16 -2l21 -19l10 -14l2 -18l-12 -29l-27 -49l-20 -15l-17 -2l-55 15l-66 2l-63 -6l-45 -15h-10v-4l-31 -6l-31 -12l-53 -43l-25 -23 l-12 -22l-43 -47l-22 -64l-27 -53l-4 -37l6 -59l2 -70l14 -66l15 -34l20 -29l12 -6l25 8l51 47l15 21l14 4l49 51l43 45l47 47l47 43l94 94l50 45l94 90l47 47l49 46l92 92l15 26l4 29l-9 68v8l-6 6v22l-12 56l-2 63v68l-2 63l2 54l10 40l2 33l8 15l9 63l4 4l2 12l10 13 l6 22l10 11l33 55l43 51l6 6l11 2l4 10h10l4 9l57 24l27 13l61 8h68l18 -2l15 -6l51 -13v-6h10v-4h8v-4h11v-4h8v-6l16 -6l41 -44l31 -61l6 -6l4 -23h4l6 -65l2 -33l-10 -63l-22 -62l-19 -55l-12 -12v-11l-10 -4l-2 -12l-43 -47l-25 -17l-29 -53l-43 -47l-6 -4l-16 -27 l-94 -86l-50 -41l-14 -30l-4 -35l4 -35l17 -61v-43l4 -4l8 -64l6 -63l4 -66l-2 -68l4 -63v-23l-16 -67l-4 -47l-21 -58l-12 -20l-12 -41l-7 -4l-18 -43l-41 -49l-45 -45l-45 -50l-25 -20l-10 -2l-47 -31l-4 -6h-10v-6h-9v-4h-10v-4h-8v-4l-53 -21l-66 -10l-35 -6l-4 -6h-65 l-66 6l-61 2l-35 2l-61 20l-23 9l-25 2l-32 18l-21 6l-12 10l-10 2l-21 19l-33 16l-16 -2l-12 -6l-27 -24v-11h-4v-8h-4l-10 -33h-4v-10l-13 -12l-2 -10l-10 -5v-10l-6 -4l-16 -61l-11 -23l-2 -33l-10 -34l4 -68l-2 -31zM924 696l-4 -2l-52 -37l-49 -49l-20 -22l-27 -19 l-47 -49l-43 -47l-47 -47l-47 -45l-23 -23l-16 -8l-21 -29l-12 -8l-18 -28l-15 -4l-47 -46l-43 -45l-49 -49l-27 -24l-18 -25l-2 -20l10 -15l27 -14l8 -10l39 -17l4 -6l25 -4l8 -6l43 -8l4 -4l67 -6l68 6l66 8l53 16l29 10l43 23l47 45l47 47l30 49l17 25l24 61l19 66l6 61 l8 66v33l-14 65l-2 66l-12 57l-11 12l-16 9zM1196 1573l-4 -2l-47 -41l-23 -37l-8 -4l-12 -31l-6 -6l-15 -61l-10 -66l-4 -33l6 -22l-6 -15v-10l6 -12l2 -33l-4 -35l2 -28l8 -29l15 -10l14 -2l31 16l43 49l47 49l24 21l37 57l49 49l9 17l10 63l4 60l-4 20h-4l-2 14l-6 7 l-5 14l-12 8v8l-43 29l-63 4l-4 -4zM1044 979h-14l-4 18h-14l-8 -10v-14l-15 -4v-8l6 -7h15l16 7l8 -15h10l13 8l6 15zM1067 881v4h-25l-18 -17v-8l39 -2l6 12zM997 825h-4l2 -8l15 -6l12 2l6 10l-2 6h-18zM989 913l4 -4h11l4 6l-2 9l-13 4zM1081 432l4 -2l5 6l-3 17l-6 2 l-4 -17zM1114 487h-18l2 -10l6 -4l10 8v6zM1069 817l4 -2v14l-10 5v-9zM1030 801v-4h10l2 8l-8 6z" />
<glyph unicode="T" horiz-adv-x="1232" d="M2009 1552l4 -4v-37l-6 -22l-27 -37l-14 -4l-12 -16l-12 -2l-5 -11l-61 -18l-25 -6l-10 -6l-37 -5v-4l-61 -2l-68 2h-65l-64 9l-67 10h-68l-20 -13l-19 -26l-24 -66l-25 -61l-25 -64l-22 -57l-23 -61l-26 -62l-25 -63l-8 -15h-4l-21 -45v-16l-16 -51l-18 -25l-11 -26 l-6 -31l-14 -19l-2 -14l-19 -27l-12 -30l-6 -31l-6 -12v-9l-10 -10l-2 -24l-11 -15l-2 -14l-18 -31l-6 -22l-6 -6l-25 -60l-27 -57l-22 -62l-29 -57l-18 -14l-4 -15l-15 -8l-12 -24l-21 -27l-10 -6v-8l-20 -17l-2 -12l-25 -20l-10 -15l-16 -6l-11 -12l-43 -23l-6 -6h-10v-6 l-23 -8l-10 -10h-8l-19 -15h-6l-6 -6l-12 -2l-2 -4l-64 -16l-30 -9l-58 -6l-69 4l-64 17l-33 4l-59 18v6l-12 2l-49 39l-25 17l-27 26l-32 51l-19 17l-4 14l-6 6l-21 64l-18 53v72l-6 14l2 64l20 59l9 41l24 31l2 12h4l25 33l4 12l6 2l19 27l28 18l23 25l18 8l10 12l54 27 l67 16l64 12l26 -2l27 -26v-64l-2 -20l-12 -29l-11 -10l-63 -19l-33 -8l-28 -12l-46 -41l-28 -25v-8l-6 -4l-2 -10h-7l-24 -61l-12 -27v-68l10 -61l18 -33l11 -12l2 -8l41 -47l24 -23l14 -4v-4l33 -8l4 -7l33 -6l31 -12l31 -4l69 10l31 4l59 21l29 16l47 41l27 23l41 49 l20 28l14 13v8l9 4v10l8 2l6 21l10 10l8 33l15 20l14 31l14 43l23 63l27 60l8 14l8 31l12 20l4 19l6 4l3 12l6 6l2 15l32 55l5 31l4 2l6 33l6 8v8l10 10l2 23l25 65l24 60l13 30l6 4l2 15l26 61l11 33l10 14l4 19l6 6l2 12l10 6l3 11l16 20l16 57l15 52l22 51l2 12l-4 19 l-10 12l-43 22l-62 6l-22 3l-4 6l-66 8l-37 10l-28 6l-13 6h-24v4l-64 13l-32 2l-62 16l-24 6l-31 2l-4 4h-31l-29 7h-65l-70 -2h-33l-47 -17l-53 -24l-10 -11l-14 -4l-5 -14l-12 -6l-14 -23l-12 -35l-11 -36l-4 -35l8 -64l31 -51l39 -31l2 -6h10l11 -10l67 -10h35l31 6 l28 12l27 19l37 12l4 -6l29 -15l18 -18v-8l16 -25l7 -16v-21l-27 -37l-16 -2l-9 -10l-53 -26l-70 -15l-30 -6l-64 4l-33 2l-32 8l-56 27l-32 18l-47 41l-39 50l-4 18l-13 12l-8 29l-12 25l-10 67v33l-7 16l13 62l8 33l29 57l34 57l45 43l43 25v4h11l10 10l10 2l2 6h10l11 11 l53 18l8 4l64 8h18l16 6l66 2l70 -2l67 -6l58 -8l12 -4h16l6 -8l13 -4l51 -2l4 -6l65 -9l64 -18l59 -12l64 -11l61 -12l60 -16l63 -19l68 -12l65 -10l39 -6l4 -5l64 -6l61 -8l33 -4l63 4l66 -2l33 8l65 4l62 21l30 8l33 -2zM1300 1413v-18l9 2l4 6l-2 6z" />
<glyph unicode="U" horiz-adv-x="1632" d="M606 96l2 -4l64 4h8l27 10v7h8v4h10l4 8l14 4l9 10h8l6 11h10v4l15 2l47 41l49 47l20 22l4 15l47 47l43 53l11 8v10l39 52l12 20l12 10l6 15l11 6l8 24l35 56l28 53l27 61l12 29l10 12l9 43l4 4v15l28 61l29 60l4 4l8 32h4l13 27l14 66l16 22l2 14l31 33l15 60v18l28 55 l21 43l12 56l6 6l10 41l15 18l6 21l12 12v8l31 29l26 6l64 -4l33 6l24 -20l2 -17l7 -4l-13 -45l-22 -41l-4 -29l-19 -43l-22 -59l-7 -12l-12 -13l-8 -32l-6 -4l-4 -33l-31 -58l-10 -24l-8 -35l-15 -39l-16 -24l-12 -33v-8l-25 -56l-20 -55l-25 -53l-25 -64l-8 -18h-4v-10h-6 l-4 -29l-27 -62v-8l-6 -4l-2 -14l-12 -12l-8 -33l-13 -27l-18 -63l-21 -52l-24 -55l-21 -67l-12 -64l4 -27l8 -16l25 -25l12 -4l31 7l29 16h8l10 10l23 10l45 45l45 48l22 22l19 29l34 35l5 14l12 10l2 12l20 25l21 37l12 10v8l19 25l2 8l12 10l14 29l17 18l2 9l24 12l21 2 l24 -12l23 -37l-8 -33l-23 -43l-4 -14l-20 -25l-35 -55l-9 -12l-14 -11v-10l-8 -4v-8l-43 -53l-8 -9v-6l-45 -49l-39 -47l-27 -27l-12 -2l-45 -47l-4 -6h-8l-11 -14h-8l-6 -11h-8l-4 -8l-62 -20l-63 -15l-31 -4l-31 2l-32 9l-31 16l-33 22l-35 56l-12 63l-10 19h-8v4l-31 -8 l-45 -50l-49 -45l-50 -41l-10 -4l-22 -22l-31 -25h-8l-49 -22l-45 -13l-13 -4l-73 -6l-62 4l-18 15h-11v4l-30 12l-39 45l-31 66l-12 57l-2 72l10 63l4 31l21 61l10 47l6 4l20 58l31 61l23 64l8 30l6 7l2 10l10 16l19 62l28 61l23 62l24 57v8l17 29l10 33l8 6l19 59l24 59 l23 41l10 33l14 29v16l-6 13l-12 10l-25 -4l-65 -27l-66 -25l-57 -20l-43 -25l-27 -8l-55 -31l-57 -34l-31 -19l-47 -41l-14 -10l-9 -14l-14 -8v-11l-10 -4v-8l-10 -10l-2 -15h-5l-28 -59v-16l-6 -13l8 -65l6 -41h4l12 -29l6 -6l5 -14l20 -23l25 -18l32 -13l29 -16l21 -25 l6 -32l-11 -64l-8 -22l-14 -4l-6 -7l-17 -4l-30 9l-64 24l-10 8l-14 2l-9 11l-12 2l-45 49l-35 37v10l-12 8l-6 25l-8 6l-4 18l-7 6l-14 39l-4 62l-2 35l8 69l16 62l19 49l16 26l15 9l8 20l12 6l10 25l47 47h9l10 14l12 4l15 19l53 37l43 30l10 11l14 2l4 6l58 24l31 19 l61 24l59 25l52 16l63 25l57 20l50 19l34 16l60 31l94 94l35 31h8l4 6l10 2l8 12l17 2l10 11l66 8l32 -23l2 -14l9 -10l6 -54l-17 -26l-51 -43l-41 -51l-12 -21l-12 -8l-25 -55l-27 -56l-26 -53l-17 -59l-6 -11l-4 -18l-26 -55v-4h-7l-2 -23l-16 -29l-14 -43l-6 -6l-9 -28 l-24 -54l-21 -59v-4h-4l-14 -45h-4l-6 -25l-7 -6l-4 -18l-6 -6l-8 -29l-6 -4v-10h-6l-8 -29l-9 -14l-16 -48l-12 -34l-6 -4l-2 -15l-11 -14v-10h-6v-9h-4l-8 -36l-6 -5l-4 -32l-17 -25l-22 -59l-19 -66l-6 -33l-6 -12l4 -65l4 -15l21 -26zM1118 289l-12 -6l6 -15l10 -10 l21 -8l2 16l-12 19zM1087 326v-7l21 -6l10 13l-18 12v20l-13 4l-4 -6zM831 1262h5l18 -13l14 4l-2 9l-16 10v4h-29l2 -10zM696 899v-4l11 -4l8 2l14 27l-29 -13zM1149 299l6 -6v10l14 27h-10l-10 -13v-18zM1059 311h-4l-17 11l-8 -7l8 -10l25 -4zM1190 385h4l-2 29h-8 l-4 -23zM1194 436v-18l14 6l4 8zM502 205v-4h10l8 12l-14 6zM860 1335v-4h8l4 6v13h-8zM1233 541l2 2h-4l-10 10h-4v-8l6 -6zM1049 227l-5 -8l11 -6l4 10zM1210 315l2 4l-10 7l-4 -4l4 -7h8zM762 1016v-8h10v8h-10z" />
<glyph unicode="V" horiz-adv-x="1536" d="M506 2l-4 2v33l16 61v35l21 57l4 48l20 61l10 63l13 41v15l20 55l6 14l-4 41l17 60l12 61l12 31l10 65l11 64l20 61l6 62l21 59h4v43l4 4l8 56l6 6l13 61l16 64l8 32l-12 19l-12 8h-27l-18 -12l-66 -23l-59 -22l-62 -23l-59 -33l-29 -10l-31 -16h-6l-10 -8l-35 -11 l-51 -36l-49 -48l-31 -26l-4 -15l-10 -4v-10h-4l-23 -57l-18 -66l-2 -30l12 -68l12 -29l43 -45l29 -14l16 -14l27 -9l12 -8l15 -26l8 -35l-4 -54l-25 -32l-63 4l-17 2l-4 4l-16 2l-29 18l-14 2l-23 21l-26 16l-25 23l-6 20l-14 25l-31 29l-2 12l-17 24l-14 70l-6 31l6 65 l4 64l10 41h4l3 14l10 10v9l10 10v8l10 10l4 15l17 28l6 4l6 15l47 49l35 33l12 2l10 12l54 39l53 31l39 18v4h8l37 21l14 2l4 6l45 20l17 4l10 9l31 8l10 8l31 10l28 17l60 20l61 23l15 2v4h8l18 14h10v4l33 8l4 6l15 3l30 16l23 18l43 52l51 45l39 26l4 6h8l11 11l63 14 l27 2l6 -10l14 -6l19 -25l8 -33l-2 -14l-17 -29l-28 -28l-13 -5l-8 -10h-10l-41 -39v-8h-6l-23 -61l-22 -58l-8 -30l-11 -23l-6 -61l-10 -27l-2 -37l-6 -4l-2 -31l-17 -63l-4 -4l-8 -64v-6h-6v-18h-4v-17l-6 -10l-2 -29h-7l-8 -63l-16 -64l-12 -65l-9 -16l-12 -66l-10 -35 l-12 -63l-5 -2l-4 -39l-4 -4l-12 -64l-14 -63l-9 -62l-8 -33l2 -43l17 -4l14 2l39 31l14 6l11 15l12 2l49 45l20 24l25 19l47 49l47 45l43 49l23 25l6 14l20 14l4 13l13 8l4 14l33 43l6 14l6 5v8l12 8l17 20l2 9l6 4l6 20l10 12l4 15l35 55l29 59l35 54l16 55l18 23l17 28 l6 47l20 52l7 41l10 12l4 12v16l16 33l4 33l4 4l3 31l12 31l4 32l6 8l6 29l6 68l13 59l2 17l-4 4l6 61l18 47l10 10l31 11l33 4l29 12l18 4l31 -18l10 -25l-6 -14l4 -64l-6 -61l-10 -33l-11 -65l-6 -25l-4 -72l-18 -61l-11 -31l-2 -33l-18 -63l-21 -62l-12 -28v-15l-20 -55 l-17 -31l-8 -30l-29 -60l-22 -57l-6 -6l-4 -15l-11 -10v-8l-14 -10v-8h-4l-4 -15l-12 -8l-5 -24l-16 -33l-10 -6v-9l-27 -36v-9l-22 -26l-13 -25l-47 -51l-18 -29l-8 -20l-47 -47l-45 -47l-48 -50l-47 -47l-47 -45l-49 -43l-33 -26l-12 -2l-4 -11l-14 -4l-19 -18l-12 -6 l-10 -13h-11l-4 -10l-14 -4l-4 -10l-27 -17l-10 -10l-21 -4v-4l-22 -6l-51 -37l-25 -16l-26 -2l-5 -5l-28 -6h-19l-14 6l-39 -4l-16 2l-19 9zM844 1120l-4 -2l2 -8l16 -10l-6 24l-6 2zM874 1366l5 -2l6 12l-4 15l-9 4zM846 1307v-13h8v13h-8z" />
<glyph unicode="W" horiz-adv-x="1873" d="M2322 1647l5 -2l-3 -35l-22 -60l-12 -20l-68 -8l-59 -15l-9 -2l-4 -10l-16 -4l-23 -21l-32 -40l-2 -13l-11 -4l-8 -27l-28 -53l-5 -18l-12 -12l-2 -31l-22 -68l-9 -10l-26 -64l-2 -10l-6 -4l-2 -14l-17 -29l-24 -59l-25 -62l-20 -59l-3 -14l-10 -13l-20 -57l-10 -12 l-5 -13l-6 -4l-6 -22l-10 -8l-4 -33l-21 -58l-16 -45l-10 -8v-14l-23 -60l-14 -24l-4 -14l-10 -9l-13 -43h-4l-4 -16l-16 -27v-8l-19 -24l-8 -21l-10 -10l-4 -25l-17 -20l-2 -10l-12 -13l-16 -26l-7 -4l-26 -50l-17 -28l-24 -23l-2 -12l-27 -21l-39 -49l-22 -22l-39 -31 l-15 -4l-22 -16l-61 -27l-58 -16l-4 -5l-29 -6l-71 -4l-64 4l-55 23l-16 14h-9l-10 15l-8 4l-25 41l-22 16l-17 6l-16 -2l-22 -20l-15 -7l-24 -22l-45 -27h-9l-14 -10l-16 -4l-15 -10l-55 -13l-27 -6l-67 -2h-39l-59 23l-5 10l-14 6l-12 14l-17 7l-2 12l-6 4l-24 53l-15 25 l-6 31l2 67l10 66l9 65l6 2l4 33l27 59l14 56l6 4l20 45l23 61l12 29l2 16l13 25h4v10h4l2 12l8 11l21 59l22 62l23 59l26 61l25 62l2 8l6 4v14l29 58l8 26l6 9l18 59l25 59l14 43l-4 11l-14 10l-45 -10l-62 -25l-61 -20l-57 -25l-58 -33l-22 -8l-13 -12l-24 -6l-31 -23 l-26 -12l-7 -6l-12 -4l-49 -39l-25 -19l-41 -51l-20 -61l-14 -66l2 -45l6 -8l2 -25l10 -12l2 -16l35 -52l31 -18l16 -14l21 -5l12 -12h8l18 -24l7 -23l4 -4l-4 -35l-9 -31l-24 -22l-31 -4l-59 10l-31 16l-4 7h-10l-4 8l-15 4l-8 14l-14 4l-11 15l-32 24v8l-27 48l-16 32 l-4 2l-7 19l-6 2v8l-6 10l-8 66l-4 8l6 68l8 65l4 21l11 14l8 29l14 26l21 25l2 12h4l6 14l8 4l8 17l49 45l52 43l24 25l27 16l12 12h10v4h8l23 17l61 30l29 17l60 22l53 19l61 24l15 6l10 11h14l16 6l7 6l51 16l59 23l64 20l53 37l45 47l12 13l2 12l7 6l12 2l22 23l66 41 l67 16l15 -2l20 -12l17 -29l8 -45l-4 -16l-19 -27l-51 -43l-55 -68l-10 -22l-13 -10l-2 -15h-4v-8h-6v-10h-4v-8h-4v-11h-6v-8h-4v-10h-5l-16 -47l-16 -29l-21 -61l-24 -62l-11 -22v-11h-4l-22 -59l-23 -57l-4 -4l-6 -27l-20 -37l-19 -61l-14 -27l-23 -61l-20 -33l-21 -62 l-18 -49h-4l-17 -59l-8 -10l-4 -23h-4l-21 -57l-2 -10l-6 -2v-11h-4v-8l-14 -24l-19 -60l-12 -24l-8 -31l-14 -33l-7 -33l-12 -28v-52l12 -26l3 -15l30 -34l35 -2l68 16l55 29l25 20l40 49l31 39v8l41 50l12 12l21 51h6l10 29l6 6l3 10h4l6 25l20 24l27 64l20 61l4 19l7 2 l20 61l18 51l13 13v12l24 59l13 13l8 43l10 10l8 35h4l25 61l20 61l2 9l11 8l16 43l2 18h4v8h4v11h6v8l23 22v11h4l10 59l9 25l10 14l10 31l8 10l8 33l7 4l12 41h6l2 12l12 21l11 28l2 19l18 30l12 13l27 10l53 6l10 -4l31 2l2 -6l23 -6l10 -13l4 -32l-14 -56h-4l-2 -12 l-11 -12l-12 -31l-2 -16l-12 -27l-23 -63l-43 -93l-6 -28l-6 -6l-8 -31l-27 -47l-22 -62l-19 -32l-18 -64l-6 -22l-11 -11l-20 -57l-23 -61l-24 -62l-8 -14l-3 -15l-12 -12l-2 -14l-10 -10l-16 -64l-13 -37l-8 -10l-14 -33l-11 -14v-14l-8 -15l-2 -14l-14 -31l-2 -14h-4 l-2 -13l-6 -6l-3 -14l-8 -10l-8 -35l-6 -10l-4 -47h-4l-6 -31l2 -35l10 -33l35 -30l26 -2l37 4l10 6l31 2l29 14l45 47l86 99l8 16h4l6 14l9 6l2 11h4l2 12l18 25l31 57l8 4l19 47l6 4l20 64l27 57l2 8l10 10v9h4l4 24l25 60l18 53l27 63l2 13h4l2 12l29 59l30 56l15 65l2 8 l6 4l8 31l12 21l11 32l6 4l16 50l13 24l2 15l10 10l4 18l6 4l23 60l10 30l8 13l14 55l17 41l30 61l5 17l18 33l18 24h9l47 45l26 25l15 18l57 17l27 12l32 8l19 10l63 -6l33 2l39 -6l8 -14zM985 264l-4 -2l-10 6l-13 -6l-4 -8v-14l35 6l19 14l4 14l-2 17l-15 -8zM1038 309h4 l9 13h6l-8 34l-13 9l-6 -50zM979 330l2 -2l4 4l16 -6l11 10l2 10l-8 12l-11 2l-16 -22v-8zM727 944v-4l10 -10l2 -8l15 -7l2 11l-17 26l-4 15h-4l2 -6zM1139 641l-4 2l-5 4l-18 -4v-14l12 -4l15 4v12zM809 1313l-4 -2l6 -15l16 -4l7 4v11l-5 6h-20zM872 174l-2 -4l19 -4v8 l6 6l2 10l-4 3zM936 156h4l4 6v10l-4 6h-4l-4 -6v-10zM1010 193v-5h14v15h-10zM573 551v-6h11l8 10l-6 4l-8 -2zM831 1366l3 4l-19 4v-8l6 -4zM846 1366l2 -4l14 2l4 6l-16 2zM987 182v-4h8l4 15h-8zM932 1407l-2 -4l10 -4l4 8l-8 6zM739 991l2 4l-14 4l-2 -4l12 -6z" />
<glyph unicode="X" horiz-adv-x="1464" d="M1384 -426h5l26 -39v-14l17 -68v-8l-23 -23l-27 -14l-30 -8h-72l-61 27l-25 4l-12 14h-11l-8 14l-47 47l-20 25l-2 16l-9 2l-22 56l-21 49l-6 65l-8 62l-4 67l-4 64l-2 63v35l-8 64l4 30l-6 66l-9 61l-4 35l-14 8l-20 -2v-8l-43 -53l-37 -55l-13 -13l-6 -12l-12 -12 l-4 -13l-19 -16l-4 -14l-24 -25l-2 -12h-6l-39 -55l-35 -50l-47 -47l-47 -45l-13 -12l-6 -12l-29 -29l-12 -4l-26 -21l-23 -10l-10 -12h-10l-23 -25h-8v-4h-10v-4h-9v-4l-32 -10l-37 -8l-62 -25l-32 -2l-66 8l-65 10l-48 13l-34 18l-7 6l-12 2l-43 50l-12 12l-19 8v10l-10 4 v11l-8 4v10h-4v8l-8 10l-21 58l-14 65l4 72l20 63v9l27 57v8l27 41l6 2l2 12l47 45l10 9l15 4l4 10l12 2l27 16l22 9l12 12l25 4l14 8l66 4l26 -6l17 -22l8 -35v-35l-6 -23l-16 -24l-7 -4h-10v-4l-14 -2l-12 -9h-11v-4h-8v-4l-18 -4l-33 -20l-47 -45l-15 -15v-8h-4v-10h-4 v-8l-16 -27l-6 -27v-69l8 -21l6 -6l4 -14l43 -47l12 -13h9v-4h10v-6h8v-4l59 -6h35l64 14l26 19l21 6l12 10l15 4l51 41l6 4l2 8l27 17l40 47l43 51l46 49l38 52l9 22l14 10l39 54l6 2l31 53l2 8l37 49l37 51l14 27l16 18l2 13l13 18h4l2 8l24 35l13 8l6 15l41 51l4 8v64 l-4 63l-2 68l-9 65v64l-6 59l-4 68l-2 67l-4 68l-4 63l-2 68l-4 14l-10 15l-17 4l-59 -11l-4 -6l-62 -22l-39 -17l-61 -24l-23 -6l-6 -7l-33 -10l-26 -18l-47 -23l-60 -32l-55 -39l-14 -9l-10 -12h-9l-10 -14l-20 -19l-25 -45l-14 -10v-8l-11 -8l-4 -17l-8 -10l-4 -65 l-2 -35l8 -31l2 -25l15 -28l10 -11l14 -28l12 -12h9l14 -15l18 -8h17l22 -12l23 -25l6 -31l-2 -67l-14 -23l-33 -6h-23l-61 19l-23 6v4l-20 6l-47 39l-25 20v9l-14 10l-2 14l-15 12l-2 11l-10 4l-2 14l-10 14l-16 62l-17 59l2 66l2 22l4 4l11 66l4 18l26 31l6 21l13 12 l12 26l41 39l6 21l8 4l17 27l22 16l10 12l15 4l4 11l57 30l49 33l7 6l14 4l12 11l57 22l60 29l51 16l59 25l29 8l60 27l59 22l61 23l31 12l27 16l43 47l35 39l14 4l31 25l18 8l27 19l67 28l29 2l16 -6l25 -28l2 -13l6 -6l6 -33l-10 -28l-49 -45l-53 -39l-13 -13l-30 -55 l-3 -6l-10 -8v-13l-8 -16l-6 -55l-2 -72l2 -67l12 -64l2 -66v-65l10 -66v-65l7 -14l16 -9l14 6l35 54l41 47l27 33l4 14l39 51l35 55l32 43l35 52l37 51l2 8l19 18v9l10 4l4 14l41 51l12 13l2 16l19 18l6 15l18 18l6 17l41 49l35 53l94 94l56 33l22 12l10 10l33 5l60 14 l67 -4l16 -2l7 -6l59 -19l33 -14l12 -12l4 -11l-4 -30l-31 -64l-16 -14l-16 -2l-62 16l-31 2l-38 -6v-6h-11v-4l-18 -4v-4l-12 -11l-17 -2l-20 -22l-21 -13l-12 -14v-6l-25 -23v-8l-22 -24v-8l-21 -25l-2 -10l-35 -47l-20 -25l-33 -53l-41 -51l-20 -25l-4 -14l-11 -11 l-16 -28l-25 -27l-2 -8l-6 -4l-4 -15l-10 -10v-10l-6 -2l-23 -35l-22 -22v-7l-13 -10l-16 -26l-6 -4l-2 -13l-39 -49l-21 -25l-6 -14l-10 -6v-8l-12 -8l-15 -25l-8 -6l-2 -12l-8 -4v-11h-4v-8l-21 -14l-6 -15l-16 -14v-8l-12 -10l-4 -15l-19 -28l-16 -17v-10l-23 -23v-10 l-10 -4l-2 -12l-35 -51l6 -62l2 -63v-66l4 -65l2 -66l7 -61l4 -68l6 -65l4 -66l4 -63l4 -66l6 -63l2 -35h4l2 -33l9 -27l12 -22l22 -25l35 -22l8 -11l23 -8zM1057 674h-6l14 -27l18 -2v14l-10 15l10 10v8h-10zM1130 737l-6 2l6 -37l9 -10l14 8l-14 43l-4 -6h-5zM1063 408 l2 -2l20 10l2 16h-4l-10 10h-4l-6 -18v-16zM1159 637h4l4 25l-4 6l-14 2l2 -31zM1040 309l-4 -2l8 -14h17l-6 14l-8 4zM1206 756l2 6l-16 14l-10 -4l18 -18zM1042 598v-4l7 -4l8 2l4 12h-10zM1069 1194h4l8 6l-12 12l-4 -8zM1120 645h4l-2 17l-10 2l2 -15zM1081 1444l-2 4v2 l-12 -4l-2 -6l4 -4l8 2zM1075 487l8 -4l4 19h-8zM1008 395l-2 4l-15 -8v-4l13 2zM1112 354v-10h8v10h-8zM1255 836v-9h9v9h-9z" />
<glyph unicode="Y" horiz-adv-x="1572" d="M942 1227l-2 -4l-16 -25l-11 -31l-2 -26l-4 -2l-2 -15l-16 -28l-19 -60l-20 -53l-25 -59l-14 -45l-10 -9l-6 -20l-7 -6l-6 -21l-10 -10l-20 -59l-4 -15l-11 -12l-14 -41l-4 -31l-27 -53l-8 -33l-25 -59l-26 -57l-4 -15l-11 -12l-18 -59l-20 -62l-5 -16l-8 -13l-6 -32 l-16 -51v-33l16 -31l35 -39l27 -4l69 16l21 7l10 10l8 2l10 12l37 19l4 8l27 16l10 2l4 10l15 5l49 45l14 22l45 51l41 51l33 35l6 15l43 45v10l8 2l10 31l7 4l2 14l12 12l6 13l19 18l2 10l10 7l22 59l27 61l25 60l8 24l6 4l6 33l16 41h5l24 62l25 59l22 53l23 64l8 22l10 8 v15l12 26l9 31l10 23v8h6l4 24l10 9v10h4v8h5v10l4 2l4 19l6 2v10h4l10 31h4l15 47v10h4v8l8 11l14 32l33 27l66 -2l22 -6l10 4l21 -2l20 -12l4 -25l-4 -33l-22 -61l-23 -41l-10 -39l-23 -55l-6 -15v-10h-4v-8l-8 -15v-10h-6l-4 -22l-10 -11v-8h-5v-10h-4v-8h-4v-10h-6v-9 h-4v-10h-4v-8l-6 -10l-4 -19l-4 -4l-2 -22l-7 -6v-13l-28 -49l-2 -16l-6 -6l-5 -25l-6 -2l-22 -62l-25 -51v-8l-14 -14v-8h-4v-11h-4v-8l-6 -10l-5 -27l-12 -37l-14 -39l-10 -8v-10h-5l-4 -22l-10 -11l-8 -30l-10 -11v-8h-4v-10h-4l-9 -29l-20 -63h-4v-10h-4v-9l-15 -24 l-18 -56l-12 -28l-2 -17l-23 -55l-27 -53l-8 -29v-18l15 -13h8l28 17l11 12l12 2l49 41l25 19l10 14l27 18l40 47l46 48l47 47l4 14l8 4l2 12l12 11l39 53l6 6l2 10h4v10h5l32 52l15 10l14 4h20l31 -25v-8l6 -6v-31l-20 -32l-2 -13l-6 -4l-17 -33l-37 -49l-45 -51l-71 -86 l-27 -20l-43 -45l-12 -19h-8l-15 -18h-10l-23 -25l-28 -18l-8 -15h-11l-4 -8h-8v-4h-10v-6l-14 -2l-15 -17h-8l-18 -22h-9l-14 -18l-12 -3l-13 -10l-36 -10l-9 -10h-10v-4h-8l-41 -45l-16 -27l-21 -66l-10 -20v-10h-6l-6 -29l-25 -39l-29 -49v-6l-36 -55l-41 -58l-9 -12 l-51 -37l-24 -20l-13 -2l-4 -7l-22 -6l-9 -6l-61 -8l-18 -8l-29 -4l-35 2l-24 6l-5 8h-8v6l-14 2l-29 17l-20 6l-21 24l-20 45l-6 6l-9 43l7 60l10 14l6 29l8 4l35 57l18 23l43 37l13 2l16 10v4l14 6l9 10l28 5l47 20l9 2l6 10h8l12 11l33 10l57 29l52 22l26 21l17 24l26 62 l6 24l-8 14l-10 7h-8l-49 -39l-13 -11l-4 -8l-14 -8l-12 -14l-15 -4l-8 -13l-10 -2l-2 -6l-54 -37l-12 -2l-61 -26l-51 -17h-76l-64 17l-10 12l-29 20l-8 15l-22 24l-2 8l-9 7v8h-4v10h-4l-10 51l-4 4v58l4 69l2 33l14 62l19 65l49 119l22 51l13 31l6 30l10 11l8 33l9 6 l18 57v16l27 45l22 60l19 51l16 29l6 22l10 10l4 33l23 49l22 41l23 60l10 30v48l-14 6l-27 -2l-49 -23l-29 -12l-32 -8l-29 -13h-8l-10 -8l-62 -24l-33 -11l-28 -14l-49 -31l-5 -6l-14 -2l-8 -10h-10l-9 -14l-12 -3l-4 -8l-24 -16l-15 -14l-12 -5l-21 -24l-18 -14l-4 -15 l-12 -12l-23 -57l-14 -29l-6 -23l2 -65v-41l6 -4l2 -17l24 -20v-10l25 -27l47 -31l12 -2l37 -22l15 -43l-5 -4v-31l5 -10l-11 -27l-20 -16l-31 -6l-39 6l-41 20l-26 17h-6l-56 41l-10 8l-14 24l-13 8l-20 50l-19 28l-20 58l-6 65l4 58l16 65l4 31l7 4l24 53l29 37l6 16 l14 11l4 14l50 43l18 18l12 2l4 11l15 4l10 12l41 25v4l8 2l27 20l16 6l4 11l41 14l55 31l62 26l57 19l31 8l55 31l64 20l61 25l43 14l4 6l19 4l12 13l31 10l45 47l37 41l14 6l37 37l14 4l8 10h11v4h8l12 9l57 14l4 -4l23 -2l25 -27l10 -41l-2 -37l-21 -24l-24 -17l-23 -24 l-28 -19v-8l-21 -16l-2 -13l-18 -22l-13 -31l-10 -12l-4 -14l-6 -5v-8l-17 -16zM807 -197l-2 4l-23 -4l-39 -20l-20 -12l-18 -4l-48 -31l-10 -2l-53 -39l-2 -12l-8 -5l-11 -18l-4 -33l4 -28h5v-9l32 -20l33 4l33 10l8 10h8l43 41l19 25l2 8h4l4 15l8 4l6 14l8 4l7 14h4l2 13 l16 28l4 33zM1114 287l-2 -2v-11l23 -26l8 10l2 14l12 9v10l-6 4zM1059 217l-2 4l-17 -4l-2 -8l4 -6l9 -2l20 -25l8 -2l6 12l-2 9zM1133 365l2 -5h10l18 9l-10 30l-8 2l-15 -20zM1114 168l2 -2l2 4l17 4v10l-11 17l2 6l-14 4l-2 -29zM1069 305v-6l6 -4h17l6 4l-8 14l-15 4z M1075 248v-4l6 -4l21 4v10l-10 8l-15 -6zM1018 104l2 -4l8 2l10 17l-12 8h-6l-6 -16zM1022 295l-2 -4l6 -4l21 4l-7 14l-12 4zM625 600v-27h8l4 5l2 22h-14zM1061 -45l4 2v8l-6 4h-17l-2 -6l11 -12zM1219 449h4l-9 18h-10l2 -16zM1038 322v-5h9l10 11v4l-17 -2zM1114 225h6 l-2 15l-6 4l-4 -15zM936 -201v-6h4l8 10l-4 9h-4zM1100 350l-2 4l-4 2l-9 -4l-2 -6h15zM1139 430v-10l10 -4v8zM1200 489v-10h8v10h-8z" />
<glyph unicode="Z" horiz-adv-x="1189" d="M1673 1657h4l4 -8l15 -7l16 -28l8 -33l-8 -31l-20 -22l-54 -41l-24 -21l-82 -102l-27 -41l-12 -10v-8l-29 -29v-8l-43 -47l-24 -23l-27 -47l-41 -51l-8 -15l-10 -8l-2 -12l-47 -51l-31 -39l-2 -14l-6 -5l-11 -20l-34 -35l-2 -12l-15 -8l-2 -13l-12 -10l-25 -31l-2 -10 l-37 -43v-8l-41 -49l-34 -37l-7 -16l-10 -5v-10h-4v-8h-4v-10l-14 -19h-4l-13 -22l-28 -29l-11 -22l-26 -29l-39 -57l-39 -50l-43 -49l-39 -51l-16 -27l-19 -14l-6 -16l-12 -8l-17 -19v-10l-20 -23l-19 -30l-2 -13l7 -18l22 -27l49 -43l51 -49l43 -43l43 -45l13 -10l4 -8 l18 -11l4 -14l50 -47l16 -8l4 -8h10l23 -25h10l49 -41l55 -35l56 -37l16 -2v-4l60 -14l28 -14l31 -7l33 11l32 4l48 20l36 17l9 10l12 2l25 22l61 33l29 6l12 -2l24 -18l46 -57l8 -27l-2 -14l-9 -17l-51 -43l-10 -10l-39 -21l-24 -20l-31 -18l-25 -5l-45 -18l-26 -14l-25 -6 l-68 -5h-69l-45 15l-2 4l-66 12l-55 33l-27 18l-51 25l-29 22l-14 5l-16 12l-31 33l-14 4l-13 16h-8l-10 14l-12 2l-2 9l-27 16l-49 47l-25 19l-45 49l-47 43l-47 45l-45 51l-17 6l-10 14l-30 15l-31 -4l-51 -35l-48 -43l-59 -29l-63 -20l-60 -8h-69l-21 6l-49 8l-57 29 l-33 10l-12 16l-15 4l-41 51l-28 60l-5 20l-6 9v73l2 29l11 27l8 36l31 54l22 32l39 33l10 2v4l60 29l61 10h4v4l66 2l63 -8l64 -16l34 -15l15 -14h8l10 -12l54 -33l20 -14h8l21 -10l26 4l2 8l13 6l18 25l49 43l2 12l19 22l2 9l12 10l2 12l41 49l16 29l13 10l6 17l12 10 l10 22l43 45l41 52l37 55l41 51l6 6v6l27 39l25 23l2 12l43 49l24 25l2 10l12 12l17 27l6 4l2 12l41 52l16 16v8l27 27l6 16l10 4l2 12l25 25l12 21l13 12l10 22l20 21l37 51l23 25l26 45l17 16l-2 25l-27 20l-65 4l-64 17l-66 8l-43 6l-65 18l-64 15l-63 8l-37 14h-14v4 l-66 4l-63 7l-33 -2l-53 -19h-8l-46 -20l-24 -19l-43 -45l-2 -12l-14 -19l-17 -67v-33l14 -53l13 -12l4 -15l8 -4l6 -14l33 -33l22 -14l13 -2l4 -5l72 -4l30 4l60 25l28 12h33l14 -8l19 -24l20 -39l4 -23l-4 -14l-20 -23l-31 -24l-12 -2l-62 -27l-38 -8h-74l-64 4l-39 12 l-43 17l-39 30l-14 13l-12 4l-31 41l-14 8l-4 14l-15 15v8l-8 14l-2 12l-14 29l-10 61l4 68v31l20 61l10 45h4l37 51l13 13l6 14l35 37l8 2l4 6l12 4l8 13h9l24 18l31 8l10 10l59 17l62 14h70l67 -4l64 -10l63 -13l64 -14l65 -10l62 -23l61 -10l27 -2v-4l65 -8l66 -10h61 l66 2l28 12l19 12l14 2l14 17h9l4 8l16 4l12 10l60 21zM76 236l-2 -3h-11l-6 -12l-28 -24l-13 -19l-10 -33l-2 -34l6 -29l23 -27l28 -24l29 -15l27 -8h65l6 2l2 6l21 2l10 11l15 4v4h8l10 10l14 4l21 15l4 8l18 8l2 12l17 10l12 27l-14 27l-37 26l-8 2l-27 23l-16 4l-64 29 l-43 4l-4 -4l-39 -2zM418 125h4l4 33l-2 16l-16 2l-5 -33l9 -14zM504 168v-4l16 -6l21 10l-2 10l-11 8l-14 -4zM453 164v-6l26 -11l10 3v8l-16 4l-4 16l-10 8zM551 244l-4 -2l10 -31l8 -2l4 33l-8 4zM481 76v4l-6 4h-16l-2 -6l10 -8zM203 -92v-4l12 -8l6 4l-2 8l-6 4z M555 80v-14h10l4 14h-14zM410 205h6l-2 14l-6 4l-5 -8zM516 121h6v10l-6 4l-6 -6zM514 102v-8h8v8h-8z" />
<glyph unicode="[" horiz-adv-x="757" d="M647 1786l4 2l23 10h37l6 -6l33 6h264l28 -39l-6 -4v-18h-4l-12 -31l-19 -25l-24 -22l-62 -8h-67l-31 4l-24 -8l-35 -39l-6 -33l-25 -59l-22 -43l-21 -60l-29 -61l-22 -60l-25 -57l-16 -45l-25 -49l-20 -66l-25 -59l-4 -12h-4l-14 -27l-11 -33l-16 -24l-18 -46l-2 -22h-4 l-23 -61l-25 -62l-22 -43l-14 -49l-25 -59l-23 -62l-26 -55l-21 -53l-20 -62l-27 -57l-8 -33l-29 -63l-22 -52l-10 -12l-7 -33l-10 -28l-35 -58l-16 -63l-20 -58l-15 -43l15 -22l32 -6l25 4l6 -4h68l26 -17l13 -26l-7 -33l-14 -31l-22 -20l-48 -13l-4 -6l-61 6l-49 -6 l-66 11l-65 -7l-45 -4l-27 11l-14 12l-9 26l17 54l28 59l19 53l4 4l4 33l8 10l6 17l11 12l14 45l4 15l10 12l2 14l9 14l2 15l8 10v8l14 31l10 10l19 64l22 53l19 41l12 12l8 31l23 57l20 62l25 61l27 60l49 118v9l10 14l6 26l6 5l4 32l23 52l8 6l2 12h4l17 29l18 61l16 47 l19 29l14 63l4 17l15 22l22 51v5l10 4l25 61l22 64l23 61l12 27v8l8 12l2 12h5l14 48h4v10h6l2 14l15 27l20 63l14 23l13 30l6 5l14 53l16 31l17 45z" />
<glyph unicode="\" horiz-adv-x="749" d="M233 1710h5l24 -29l8 -63l-2 -66l13 -61l8 -66l10 -69l8 -60l6 -69l11 -62l8 -22l-4 -64l12 -28l8 -33v-66l19 -63l6 -66l10 -65l4 -66l6 -65l2 -13l6 -4l17 -131l8 -61l-2 -62l-4 -32l6 -48l20 -24v-31l5 -4l-5 -8l7 -27l-7 -22l5 -4l2 -19l4 -4v-14l12 -64l12 -61 l2 -70l13 -63l6 -35l-6 -49l-23 -21l-33 -10l-28 6l-15 12l-8 27l-8 68l-6 26l-2 70l-4 20l-11 23l7 49l-23 62l-2 65l-8 29l-4 65l-6 31l-5 6l-2 57l-4 70l-10 33l-6 63l-10 64l-6 61l-9 31l2 16l7 13l2 35l-5 16l-14 14l-10 64l-8 65l-6 11l-7 65l-4 64l-2 22l-6 8l-6 72 l-10 61l-17 131v33l-10 62l-8 65l-8 33v63l-17 66l4 31l27 18l33 4z" />
<glyph unicode="]" horiz-adv-x="755" d="M27 -180h92l26 16l11 12l14 29l6 27l27 53l16 43l25 59l8 33l29 55l12 31l24 31l5 55l6 4l14 29l8 33l27 55l24 64l9 28l8 12l10 33l41 72l2 14h4l14 45h5v11h4v8l6 10l18 68l13 38l6 5l20 53l25 61l8 31l12 27h4v8l8 10l27 61l14 58l27 59l19 31l20 45l6 33l23 51l2 14 l24 41l8 47l33 56l19 61l10 33l14 22l10 27l-2 10l-20 19h-104l-46 10l-10 8l-8 27l18 47l19 26l24 19l29 8h62l69 -2h66l14 -4l64 8h28l25 -12l14 -33v-10h-4l-18 -60l-23 -61l-14 -18l-19 -62l-24 -63l-27 -62l-20 -59h-4l-19 -49l-29 -64l-20 -61l-23 -60l-12 -30 l-10 -15l-4 -26h-4v-11l-4 -2l-4 -18l-7 -2l-4 -23l-10 -10v-8h-4v-10h-4v-8h-4v-11h-6v-8h-4v-10h-5l-2 -12l-8 -15l-8 -47l-6 -4l-12 -35l-15 -28l-8 -27l-14 -25l-23 -63l-8 -27l-6 -6l-23 -61l-22 -43l-13 -19l-6 -24l-6 -7l-2 -12l-8 -14l-16 -55l-23 -66l-2 -8 l-10 -10l-17 -37l-14 -49l-6 -7v-8l-19 -28l-4 -15l-12 -10l-10 -59l-6 -9v-8l-11 -10l-22 -64l-12 -30l-11 -13l-4 -20l-8 -6l-12 -31l-21 -61l-22 -62l-37 -92l-8 -10l-25 -17l-16 -4l-31 7l-67 -7l-33 -4l-66 8l-63 -4h-37l-4 7h-17l-22 14l-12 12l-5 12l5 35l8 15l6 4v8 l24 22l25 13z" />
<glyph unicode="^" horiz-adv-x="989" d="M881 1448l2 -2l4 -8l-4 -31l6 -10l4 -31l-4 -63l4 -64l-2 -65l6 -31l-4 -64v-65l-4 -64l4 -24l-6 -11l8 -131l2 -65v-31l-4 -4v-18l-10 -19l-23 -24l-14 -9l-27 -4l-61 4l-27 29l-6 33l6 63l-6 33l4 62l-4 63v66l2 61l2 68l-4 65l2 35l-10 12l-17 2l-26 -16l-43 -51 l-39 -52l-25 -22l-16 -29l-43 -51l-41 -43l-4 -12l-39 -51l-16 -25l-19 -16l-2 -11l-47 -47l-25 -32l-22 -21l-37 -51l-47 -49l-12 -2l-9 -7l-71 -6h-31l-33 11l-12 8l-6 20l4 19l35 55l43 51l41 51l45 50l41 49l41 51l45 49l37 51l45 49l43 50l34 36l5 15l45 45l41 49l6 16 l39 49l12 13l6 14l19 19l4 14l59 29h68l26 -2l4 -5l47 -12zM725 1300v-4l6 -4h19l-2 17l-5 6h-12zM811 1257l-2 -2l2 -8l8 -6l4 6l15 8l-7 5z" />
<glyph unicode="_" horiz-adv-x="1069" d="M-78 -221l-2 -4h-65l-7 -2l-26 12l-15 12l3 35l6 27l24 30l29 11l63 -4l35 4l31 -6h70l57 -5l61 -6l72 13h61l68 -5l66 9l65 -2h66l63 2l66 -6l32 -3l66 9h53l23 -17l6 -10v-33l-16 -28l-25 -21l-55 -20l-66 -2l-74 4l-61 2l-66 -4l-65 2h-64l-61 -4l-66 2l-61 4l-25 2 l-32 -6l-52 4l-4 -4l-65 4l-33 -2l-14 6l-4 6l-31 4zM350 -160v-10h15l-3 8z" />
<glyph unicode="`" horiz-adv-x="757" d="M635 1225v-17l-6 -6l-31 -4l-25 6l-41 -8l-28 16l-49 41l-35 41l-12 2l-50 37l-34 33l-2 12l-23 21l-20 28l-7 15l23 22l33 9l65 -5h33l25 -14l41 -49l10 -16l49 -50l6 -14l35 -35v-6l22 -20z" />
<glyph unicode="a" d="M883 1018l4 -4l6 -15l-4 -26l-17 -41h-4v-10h-4v-11h-4v-8l-14 -24l-19 -56h-4l-4 -16l-28 -57l-13 -27l-14 -57l-21 -50l-10 -10l-6 -24l-12 -13l-13 -55l-12 -20v-11l-8 -2v-10h-4v-8h-4v-10h-4v-9h-6v-10h-5l-8 -37h-4l-2 -22l-20 -51l-7 -29l-12 -29l-2 -16h-4 l-16 -62v-30l8 -27l16 -27l17 -4l2 -4l32 6l23 15l14 2l19 10l10 14h8l15 19l12 2l41 41l2 12l18 19l15 8l4 14l24 25v8l47 45l21 26l6 21l10 6v8l8 4v9l11 6v10l8 4v10l10 4v9l16 20l7 23l10 4v8l10 10v8l23 25l16 6l31 -8l22 -25l6 -12l2 -16l-10 -33l-10 -14l-2 -15 l-37 -55l-22 -39l-17 -27l-35 -45l-12 -20l-20 -19l-7 -16l-47 -45l-43 -49l-49 -43l-39 -37l-12 -2v-6l-33 -23h-8v-4l-59 -16l-64 -17l-59 2l-45 19l-11 12l-14 4l-24 27l-33 55l-6 6l-11 2l-14 -6l-41 -35l-8 -2l-10 -12l-19 -6l-8 -10h-10v-4l-15 -7l-4 -8h-10v-4 l-55 -14l-55 -13l-37 -4l-33 7l-47 22l-37 37l-12 29h-7l-22 61l-8 66l4 63l4 33h4l8 57l8 33l2 31l7 4l14 55l20 68l23 63l6 27h6v10h4v8h4v10h5v9h6l6 30l12 27v8h4l4 25l11 4v8l6 4l2 10l10 4v9l8 6v10l12 8l17 33l2 14l43 45l6 15l12 12l31 51l31 31l14 4l8 14l25 11 l12 12l12 2l58 22l26 7l70 -2h27l55 -29l27 -23l32 -51l19 -29l14 -8l31 4l41 21l16 16h8v4l31 15l23 6l2 4l26 4zM197 137h26l6 6l15 2l10 11l16 6l11 10l41 23l4 8l14 4l41 51l25 25v8l8 4l2 12l8 2l2 15l18 30l25 62l27 59l16 31l20 61l25 62l25 57l20 62l6 34v47l6 23 l-10 31l-45 32l-29 9h-32l-58 -19l-8 -2l-4 -10h-10l-49 -47l-2 -12l-39 -41l-4 -15l-15 -12l-12 -29l-12 -20l-2 -15l-35 -57l-6 -20l-17 -27l-22 -63l-6 -21l-7 -6l-2 -16l-6 -7v-8l-16 -24l-6 -66v-8l-6 -4l-17 -60l-14 -61l-2 -29h6l14 -61l21 -14l2 -7zM471 266l4 -4 l4 -2l8 4l7 15l-7 12h-4l-2 -8l-10 -11v-6zM547 143h-2v-8l6 -6h12v10l-4 6l-10 2zM627 514h6v18l-10 -2l-5 -6zM117 537v4l-13 4l-2 -8l9 -5z" />
<glyph unicode="b" horiz-adv-x="935" d="M549 1452l2 -4l8 -35l-8 -2v-8l-16 -29l-13 -61l-2 -8l-6 -5l-4 -14l-10 -4l-21 -57l-8 -13l-2 -24l-10 -8l-2 -15l-23 -43l-20 -49v-20l4 -9l16 -6l21 2l55 23l22 10v4l29 10l60 -4l34 -4l23 2l4 -6h10l10 -14l13 -2l33 -37l8 -4l2 -12l12 -13l12 -30l11 -60l2 -72 l-4 -32l-7 -15l-4 -65l-20 -62l-12 -65l-17 -64l-8 -22l-10 -12l-4 -17l-9 -12v-8l-10 -11l-2 -14l-14 -29l-4 -16l-6 -6l-2 -14l-17 -31v-8l-10 -11l4 -32l23 -11l30 9l60 30l53 37l6 8l47 29l14 12l29 54l14 18l5 16l38 56l11 8l32 2l17 -4l18 -14l8 -29l-6 -33l-34 -59 l-17 -19l-4 -14l-45 -49l-12 -19l-49 -43l-21 -12l-12 -16h-8l-27 -17l-27 -8l-12 -12l-14 -4l-6 -6l-19 -7l-16 2l-13 -8h-16l-47 -18l-64 -4l-32 -8l-27 -17l-43 -41l-14 -4l-37 -43l-14 -4l-5 -8h-10l-6 -12l-16 -5l-17 -10l-12 -2l-2 -4l-51 -16l-68 -9l-65 -2l-62 19 l-51 18l-20 23l-9 4l-12 29l-14 22l-4 14l-11 15l-6 65l-6 60l2 67l8 66l15 61l4 23h6l-2 16l26 58l9 32l28 60l4 32l9 29l26 62l8 32l21 49l29 52l18 61l29 60l20 59l15 43h4l24 63l43 101l29 55l10 31l2 26l19 43l20 23l23 16l32 4l76 -2zM477 918l-4 -3l-27 -8l-53 -35 l-49 -43l-8 -4l-6 -16l-13 -8l-16 -33v-6l-29 -55l-10 -31l-10 -66l-2 -69l12 -56l17 -53l10 -12l4 -14l6 -5l4 -14l47 -47l29 -21l29 -8l28 17l19 26l8 23h6v10h4l27 59l22 41l19 64l22 65l19 58l14 67l2 25h4l10 53l-6 49l-4 4v11h-4v8l-25 20l-32 13h-9l-12 6l-6 -6z M156 371l-2 -2l-13 -25l-16 -70l-2 -67l6 -29l12 -33l21 -26l26 -13l35 -2l31 11l33 18l10 12h8l23 25l6 14v17l-6 16l-52 41l-45 49l-12 15l-4 12l-10 10v10l-23 21l-10 2zM150 500l4 -2l12 18v19l-8 4l-13 -7l-4 -8v-14zM426 156v-6h18l13 8l2 10l-8 4l-21 -2zM256 887h-6 l2 -6l31 -7l4 13l-6 4zM727 780h6l4 15l-4 8h-10l-4 -15zM166 608h6v10l-10 9l-4 -6l2 -9zM319 1016v-4l19 6v8l-16 -2zM723 819l4 -2l6 19h-14zM436 219h4v8l-6 6h-6l-2 -4zM719 678v-14h8v14h-8zM254 971v-10h10v10h-10zM639 952v-10h10v10h-10zM477 285v-11h10v11h-10z " />
<glyph unicode="c" horiz-adv-x="831" d="M905 551l33 -33v-33l-29 -55l-18 -29l-6 -16l-13 -10l-6 -17l-18 -24l-12 -10l-5 -15l-24 -18l-39 -53l-43 -48l-49 -43l-51 -38l-13 -13l-20 -6l-10 -12l-15 -6l-49 -43l-12 -2v-4h-8v-7h-11v-4l-36 -8l-5 -6l-28 -4l-4 -4l-60 -10l-69 -9h-64l-63 13l-35 6l-25 10v4 h-10v4h-8v4l-29 19l-43 45l-2 16l-12 12l-19 43l-2 19l-4 4l-6 66l4 63l8 63l7 66l16 64l22 59l21 47l8 33l14 28l17 21v14l18 33v8l11 6v9h4l8 32l6 4v5l12 10l6 14l23 25l22 41l9 2l16 26l25 25l20 29l8 2l21 22l39 31l12 2l22 20l17 4l2 7h10v6l23 4l43 18l69 11l31 6 l14 -2l4 -4h15l12 -9l35 -10l27 -18l45 -49l4 -13l12 -10l14 -31l6 -61l5 -25l-17 -61l-8 -58l-6 -4l-10 -30l-9 -13l-6 -20l-45 -37l-57 -2l-33 -2l-31 8l-12 12l-4 15l8 30l8 17l15 51l2 14l10 13l6 32l10 27v21l-4 14l-32 33l-17 4l-33 -6l-45 -21l-8 -12l-14 -4l-10 -13 l-17 -10l-6 -14l-41 -43l-2 -8l-12 -11l-31 -49l-20 -39l-19 -22l-20 -60l-27 -57l-20 -59l-19 -60l-14 -61l-15 -60l-6 -14l-2 -63l2 -35h6v-8h5l14 -37l18 -25l23 -12l4 -6h6l6 -6l12 -2l13 -11h10v-4l35 -4l69 8l56 17l51 24l6 11h14l11 10h8v4l16 6l17 16l28 19l47 45 l39 33l47 51l7 6v8l41 49l4 11l41 49l38 53l25 33l35 10z" />
<glyph unicode="d" d="M1126 483l-2 -6l-12 -18l-4 -17l-27 -28v-6l-32 -60l-23 -41l-10 -8v-8l-41 -51l-25 -21l-32 -41l-39 -49l-45 -45l-23 -27h-8l-4 -8h-11l-4 -10l-12 -2l-41 -29l-20 -6l-15 -10l-61 -17h-14l-13 -6h-65l-11 6h-8l-37 19l-4 8l-12 2l-35 49v6l-22 25l-15 6l-18 -2 l-27 -16l-39 -41h-8l-6 -11h-8l-19 -14l-57 -22l-59 -15h-37l-62 23l-4 6l-14 2l-25 16l-30 29l-23 41l-12 47l-2 66v53l6 20l6 66l16 61l21 66l6 53l6 4l4 23l11 14v14l26 58l23 59l14 33l8 31l15 28l24 31l2 16l37 54l21 28l18 19l4 14l49 45l17 19l51 39l26 16l48 20 l57 4h55l4 -4l62 -20l8 -2l2 -8l12 -2l8 -15l25 -18l14 -27l21 -14l20 4l9 29l6 4l18 37l6 6l27 59l4 33l8 37l23 47l20 53l25 62l26 61l15 25l24 26l13 8l30 7l66 -2l20 -11l23 -18l6 -25l-4 -20l-19 -27l-12 -33l-6 -32l-23 -56l-22 -59l-8 -10l-25 -58l-14 -28l-19 -58 l-24 -63l-31 -60l-2 -14l-27 -55l-14 -31l-16 -61l-11 -17l-2 -18l-20 -43l-2 -12l-8 -13l-2 -10l-13 -12v-17l-12 -20v-12l-29 -62l-16 -29l-18 -57l-2 -16l-19 -25l-4 -18l-10 -11l-15 -63l-4 -14l-10 -9l-12 -65l-6 -4l-4 -27l4 -43l6 -4l6 -14l22 -19h31l17 4l12 11 l14 2l25 14l49 41l22 25h11l47 47l2 8l18 24l2 9l19 18l4 14l8 5l19 28l6 4v11h4l4 14l24 22l33 56l27 37l6 22l39 41l12 2l17 -4v-6h10v-4h8l14 -23zM457 909l-2 -2h-11l-22 -26l-23 -9l-16 -26l-27 -23l-8 -18l-24 -27l-11 -22l-12 -11l-10 -30l-10 -13l-7 -22l-10 -10 l-20 -37l-13 -31l-4 -20l-10 -9l-4 -22l-14 -29l-23 -59l-29 -123l-8 -31l-4 -65l-6 -15l8 -53l13 -20l12 -13l41 -10l35 8l59 33l8 4l4 8l13 4l24 23l45 51l35 53l10 29l21 31l4 24l16 27v14l6 7l2 14l15 20v9l24 57l23 61l12 31l8 10l19 56h4l22 61v37l-4 29l-10 22v8 l-16 29l-35 18v4h-19v7h-41l-4 -7zM510 176v-6l-8 -14v-11l16 5l14 34l-8 2l-10 11l-2 10h-6l-4 -8zM668 791v-5l6 -4l12 11l4 8l-2 8l-6 4zM715 786v-14h8l6 10zM496 225v-10h10v10h-10zM575 309v-10h9v10h-9z" />
<glyph unicode="e" horiz-adv-x="831" d="M487 1083h5l6 4l65 3l23 -3l4 -4h14l58 -24l30 -23v-8l35 -49l14 -31l7 -59l-7 -68l-8 -63l-18 -49l-17 -27l-26 -57l-4 -15l-43 -51l-21 -24l-12 -7l-23 -24l-32 -21l-13 -2v-6l-14 -2l-16 -14l-11 -2v-4l-41 -15l-12 -6l-68 -8l-71 -6h-70l-26 -6l-21 -13l-18 -26 l-6 -41l-7 -4l-4 -27l2 -72l6 -32l13 -31l20 -27l25 -20l14 -4l4 -9l15 -2l10 -6l71 -6l58 10l29 9l6 6l34 10l9 10l14 4l23 19l51 24l26 15l45 47l48 45l45 49l41 51l43 49l6 4l2 13l8 4v10l10 4l12 31l31 41h35l16 -6l21 -25l6 -14v-17l-12 -28l-13 -13l-2 -14l-20 -27 l-4 -14l-15 -10l-2 -8l-24 -27l-6 -20l-19 -27l-43 -47l-47 -49l-26 -19l-23 -26l-23 -33h-10l-4 -8l-33 -15l-4 -10l-12 -2l-43 -39l-31 -12l-6 -6h-10l-10 -13l-21 -4l-6 -6l-41 -14l-31 -4l-18 -8l-64 -11l-69 -2l-68 8l-59 21l-58 27l-36 32v11l-11 4v10l-8 4l-24 53 l-7 70l-4 61l2 70l13 98l10 23l14 67l2 11l6 2l17 61l8 8v8l10 11l17 28v9h4l4 24l10 12l12 29l11 12l2 11h4v10h4v8l37 53l14 17l2 12l12 12v8l13 11l2 6l22 22l6 15l52 45l38 39l15 2l26 18l21 8l8 11l14 4l11 10l61 14zM479 922h-2l-4 -7l-29 -6l-4 -6h-8l-4 -10l-12 -2 l-45 -49l-19 -23l-2 -12l-20 -27l-13 -24l-16 -21v-8l-22 -33l-3 -12l-28 -49l-25 -60l-4 -24l23 -25l34 -4l68 8l25 4l53 39l51 39l19 27l4 16l36 58l23 59l27 68l4 30l-6 9v8l-27 41l-66 -2z" />
<glyph unicode="f" horiz-adv-x="761" d="M-143 -641h-4l-66 -2l-23 2l-4 4l-28 2l-56 35l-20 27l-8 20l-10 72l2 53l4 4l2 31l26 61l17 64l4 14l31 59l2 17l14 24l6 4v9h4v10h6v8h4v10l7 2l4 31l12 37l8 10l21 64l14 37l6 6l2 12h4v10h6l21 60l12 30l12 11v10h7v8h4l12 61l10 23l2 27l19 24l8 4v11h4v8l16 30 l4 31l33 58l12 51l25 63l23 56l16 45l20 57l13 33l8 10l10 31l10 8l2 14l11 12l6 27l14 35l10 14l23 62l12 26l8 35l19 41l12 23l17 55l6 4l18 55l6 4l4 13l11 10l24 61l23 60l6 16l14 12v11l23 22v10l10 5l2 12l10 16h4l39 49l45 39l15 4l6 11l61 20l29 6l33 -4l32 4l33 -2 l58 -20l22 -23l33 -47l4 -37h4l8 -61l-2 -37l-10 -60l-2 -34l-19 -52l-6 -6l-8 -28l-4 -4l-2 -19l-45 -113l-8 -22l-8 -4l-3 -12l-28 -56l-10 -45h-5v-8h-6l-8 -33h-6l-8 -33l-12 -24l-11 -12v-11h-6v-8h-4v-10h-4v-8h-4v-10h-6v-9h-4l-2 -12l-31 -57l-33 -58l-10 -20 l-12 -10l-5 -15l-6 -4l-4 -14l-8 -4v-10l-12 -13l-15 -28l-41 -50l-49 -45l-12 -10l-10 -2l-13 -10l-22 -6l-6 -6l-43 -15h-10v-6l-66 -10l-59 -17l-33 -32l-15 -54l-2 -18l11 -29l26 -18l64 -16l63 -7h62l63 15l31 6l12 10l62 25l22 6l37 31l47 40l19 23l14 4l45 47v8l10 5 l6 14l11 10l2 8l12 11v8l10 14l8 4l4 14l13 11l14 28l27 27l8 4l29 -4l24 -20l10 -31v-10l-8 -25l-14 -16l-2 -17l-8 -2v-10h-4v-8l-39 -54l-9 -14l-16 -12v-8l-47 -45l-21 -25l-24 -20l-8 -2l-21 -27l-16 -6l-8 -13l-43 -24h-7l-8 -10l-12 -2l-10 -13l-13 -2l-53 -28 l-67 -19l-39 -6l-6 4l-64 -6l-39 -8l-28 -10l-17 -23l-12 -70l-14 -65l-15 -64l-10 -63l-25 -51l-22 -60l-10 -32l-35 -56l-27 -41l-6 -20l-35 -53l-20 -21v-10l-15 -8l-10 -15h-8l-10 -12l-23 -6l-12 -12l-31 -9zM283 520l2 2l37 35l36 31v8l9 4l30 53l2 9l11 8l4 14l32 59 l25 48l8 10l23 59l14 19l16 49l25 49l25 37l4 28l14 37l14 31l9 29l8 12l45 119l20 61l13 66l2 43l-21 24l-12 6l-19 3l-14 -5l-8 -10h-10l-25 -24l-39 -54l-22 -26l-25 -58l-22 -51l-17 -49l-8 -10v-10h-4v-9h-4v-10h-4v-8h-6v-10l-9 -4l-10 -29l-6 -2l-2 -19l-14 -24 l-4 -29l-7 -4l-8 -47l-12 -12l-21 -43v-11l-10 -8l-8 -30l-8 -15l-17 -61l-26 -62l-4 -6v-12l-13 -12l-2 -25h-4v-8l-10 -10l-25 -62l-22 -63l-8 -23l18 -29h17zM20 80v-2l-18 -43l-25 -66l-28 -59l-12 -51l-19 -27l-24 -61l-11 -31l-8 -10l-20 -62l-17 -33l-4 -22l-20 -37 v-49l8 -16l16 -11l29 4l24 21l43 55l31 55l25 41l2 17l10 8l18 61l3 15l10 12l12 29l2 14l6 4l17 62l14 63l12 64l2 24l-4 4l-4 35l-16 23l-17 4l-8 -2l-24 -25zM381 530h6v21l10 8l2 14l-12 5l-8 -3l-10 -24l2 -14zM137 449h4l4 14l-2 8l-16 10l-4 -6l2 -16zM170 436l2 2v8 l-12 7h-10v-11l4 -6h16zM428 563v-4l18 -4l-4 12zM123 406l-2 -5l10 -4l4 9l-8 6zM178 541v4l-12 4l-2 -8l6 -4zM391 1176v-9h8v9h-8zM471 623l-2 -5l8 3l6 8z" />
<glyph unicode="g" horiz-adv-x="999" d="M864 1022l6 -2l11 -14l4 -17l-17 -61l-18 -49l-6 -27l-6 -4l-9 -14l-16 -56l-14 -20l-13 -31v-10h-4l-10 -31l-6 -4l-2 -10h-4l-2 -13l-6 -4l-15 -28l-18 -64l-25 -59l-22 -51l-25 -62l-20 -43l-4 -16l-17 -29l-22 -57l-23 -64l-20 -59l-4 -19l10 -14l16 -2l43 16l10 11 l27 12l21 18l8 2l4 9l24 16l5 8l14 8l51 48l49 43l43 34l2 13l17 12v8h4l8 21l14 10l2 12l33 33l2 12l10 6v9l13 20l18 18l4 13l8 4v10l33 35l17 6l16 -2l29 -18l16 -25l-8 -45l-17 -21l-4 -14l-20 -24l-8 -17l-19 -18l-4 -15l-18 -18l-2 -12l-45 -52l-45 -49l-44 -49 l-30 -29l-15 -4l-34 -37l-13 -2l-4 -8l-14 -4l-23 -24l-24 -17l-29 -12l-51 -39l-8 -2l-13 -10l-28 -11l-29 -16l-22 -4l-9 -10h-14l-12 -6l-47 -47l-21 -29l-22 -58l-4 -22l-11 -14v-9l-14 -26v-6h-4v-9h-4l-29 -57l-31 -57l-6 -8v-7l-39 -53l-45 -49l-4 -6l-14 -4l-4 -10 l-15 -5l-8 -12l-20 -8l-6 -6l-11 -2v-4l-59 -15l-35 -8h-65l-29 6l-49 17l-8 12l-15 4l-12 10l-4 9l-21 14v12h-6l-8 31l-12 26l-4 33l10 31l12 61l27 31l12 21l6 2l2 12l15 10l10 15l24 18l52 31l30 16l25 18h8v5h10v4h9l24 14l66 18h4l4 7l29 10l12 12l14 4l10 10h9v5 l14 4l43 43l4 18l-6 12l-14 11l-23 -4l-4 -11h-10l-4 -8l-56 -24l-30 -9h-33l-66 19l-41 30l-14 15l-4 14l-23 23l-18 57v70l2 30l-4 33l10 53l8 68l6 31l21 61l14 66l15 28l10 9v8l10 10l10 29l6 32l17 43l12 13v12l29 59l16 27l6 18l11 13l8 24l8 4v11l10 4v8l15 10l2 12 l43 50l49 47l43 39h10l10 10l62 22l24 9l72 -2l31 -5l10 -6l22 -4l50 -37l22 -26l12 -33l21 -25l27 -6l18 2l25 15l24 20l33 10v6l53 21h6zM455 905l-2 -2h-9v-4h-10l-51 -45l-23 -25l-18 -14l-4 -14l-12 -13l-7 -18l-28 -43l-6 -20l-11 -13l-6 -18l-10 -8l-2 -15l-18 -22 l-15 -29l-16 -61h-4v-9h-4v-10h-4v-8h-7l-18 -61l-10 -41l-10 -56l-21 -63l-4 -68l8 -39v-16l10 -4l2 -12l25 -19l29 -4l34 6l29 13l43 30h8l25 23l41 49l41 53l16 37l13 18v15l10 8l4 25h4v8h4v10h6v8h4v10h4l19 58l6 16h4v10h4l19 52l4 8h6v10h4v8l6 2l18 64l23 61l4 12h4 l2 64l-6 33l-16 43l-13 8l-10 14l-26 13l-41 2l-29 -9zM178 -217l-4 2l-29 -8l-51 -25l-55 -28l-51 -37l-21 -25l-10 -6v-10l-8 -4l-8 -33v-19l6 -14l22 -16l31 -4l41 2l12 12l29 20l12 2l37 39l4 13l8 2l2 14l11 10v8l16 19l2 14l14 15l7 18l6 2l2 16l-17 19zM389 59h-6 v-22l8 2l17 12v12zM561 324h4l2 6l-12 22h-8l-4 -8l6 -12zM176 696l-2 -2l6 -14l19 -4l-4 22zM444 197l-4 -2l2 -19l9 -2l6 4l6 17zM236 797h4l10 22l-10 6l-7 -2l-2 -18zM346 -168h10l4 14l-4 9h-10l-4 -15zM268 -272l4 -2l15 28l-11 8l3 -10l-15 -20zM41 295v-4h14l8 14 l-6 4l-8 -2zM440 -2l9 -4v4l10 10v4l-15 4l-4 -6v-12zM537 293l4 -2l4 4v8l-13 10l-4 -10zM334 -86l-2 -4l10 -4l4 10l-8 4zM100 74v-15h9v15h-9zM420 -14v-11h10v11h-10zM76 141l-2 -4l12 -4v8l-8 6z" />
<glyph unicode="h" horiz-adv-x="983" d="M412 1024l2 -4l16 -4l14 2l27 18l16 6l2 7h9v4h10l4 10l14 2l25 12l63 13l66 -5l57 -30l39 -31l12 -63l9 -31l2 -31l-17 -65l-18 -64l-21 -57l-28 -60l-19 -63l-12 -19l-4 -14l-10 -10l-4 -21l-15 -30l-6 -23l-8 -14l-10 -43l-6 -6l-19 -48l-22 -61l-21 -63l-8 -25 l-6 -37l4 -14v-23l37 -41l26 -2l39 15l8 10l15 4l49 43l82 82l4 14l18 19l4 14l43 51l35 51l4 9l25 24l35 51l31 54l10 12l16 6l29 -4l14 -10l14 -23v-10h5l-7 -31l-12 -28l-35 -56l-37 -53l-16 -27l-14 -12v-8l-19 -19l-2 -12l-43 -53l-18 -29l-23 -24l-43 -47l-45 -48 l-39 -28h-10v-4h-8v-6h-10v-5h-9v-4l-12 -2l-57 -30h-10v-5l-45 -4l-7 -6h-30l-35 8l-29 13l-2 4l-29 6l-28 16l-12 15l-3 8l-12 10l-14 45h-4l-2 64l6 67l4 33l18 47l11 31l6 47l10 16l20 58l13 30l12 19l10 31l8 10v8l9 18l12 13l4 32l23 62l24 57l23 64l20 67l-2 29 l-12 18l-19 15h-32l-56 -15l-55 -28l-14 -8l-8 -11l-13 -2l-47 -43l-45 -51l-2 -14l-10 -8l-19 -58l-26 -59l-4 -15l-11 -14l-18 -59l-16 -25l-27 -59l-6 -29l-17 -45l-10 -14l-14 -52l-12 -18l-13 -10l-22 -35l6 -31l-4 -28l-27 -62l-20 -49v-8l-29 -55l-12 -13l-25 -14 l-67 4l-43 -4l-23 16l-14 17l2 22l12 33l10 8l17 60l10 16l18 59l6 11v8l27 41l4 14l10 10v8l15 29l16 62l19 51l12 12l16 29v8h6l2 33l7 22l10 10l20 64l13 29l18 28l20 64l19 49l12 31l6 6l2 12h5v8h6l12 43v15l22 57l29 59l14 31l3 12l14 27l14 49l17 19v10h4v8l6 10 l6 31l16 35l6 31l29 53l2 8l10 12l9 51l10 17l27 18l30 8l64 7l20 -2l23 -9l18 -22l4 -35l-6 -8v-10l-8 -7l-19 -59l-18 -27l-12 -8v-10h-4v-8h-4v-10h-5v-11l-6 -8v-18l-4 -4l-4 -33l-8 -21l-10 -8v-8l-25 -59l-22 -52zM662 774h4l4 14l-4 9l-15 6v-19zM559 436h4l8 13v10 l-12 6l-4 -6zM635 594h-6v-10l6 -4l8 2l4 12l-4 4zM535 311h6l-2 8l-9 7l-4 -7l2 -6z" />
<glyph unicode="i" horiz-adv-x="520" d="M-55 31l-2 2l-6 4l-21 57l-6 4l-2 68v29l18 63l4 47l27 62l10 51h4v10h4v8h5l14 43l6 8l8 29l6 8l13 43h4v8h6v11h4v8h4l4 24l6 5l15 45l18 43l23 59l22 55l27 62l14 41l6 4l2 16l29 60l8 20l39 33l25 10l36 2l35 -4l31 -14l16 -25l2 -16l-20 -62l-10 -14l-2 -14l-11 -11 l-8 -45l-10 -10l-4 -22l-6 -5l-2 -24l-11 -23l-8 -2l-2 -12l-12 -10l-12 -29l-9 -35l-26 -57l-25 -59l-20 -54l-23 -53l-20 -63l-29 -62l-18 -55l-4 -4l-5 -25h-4l-16 -53l-4 -35l12 -53l15 -19l12 -6h26l19 11l24 6l29 18l8 14l17 7l47 41l22 24l25 19v8l18 24l13 11l16 30 l41 49l29 37v9l20 22l10 37l7 2l16 27l10 10v8h4l4 14l23 23l12 6l17 2l16 -4l29 -25l4 -45l-6 -18l-19 -19l-2 -8l-8 -6v-10h-4l-29 -55l-31 -52l-12 -12l-4 -14l-12 -10l-4 -15l-11 -4l-4 -14l-20 -15l-12 -26l-13 -10l-2 -9l-12 -10l-21 -29l-24 -22l-31 -37l-20 -12 l-2 -6l-23 -9l-6 -10h-8l-11 -14h-8l-4 -6l-10 -2l-4 -11h-10l-4 -8h-15l-43 -16l-63 -21l-31 -4l-66 13l-26 6l-21 12zM406 1415h6l4 4l55 -4l12 -6l27 -23l18 -24l11 -33v-33l-4 -16l-25 -39l-39 -35l-22 -4v-4l-35 -2l-23 4l-24 14l-23 31l-10 6l-8 31l-7 10v19l-6 18 l11 31l18 24l29 27z" />
<glyph unicode="j" horiz-adv-x="557" d="M106 100l5 -4l16 -4l59 33l41 29l15 18h8l4 8l20 4l2 9l13 4l8 12h8l4 6l13 4l47 47l47 49l28 27v10l11 4l2 13l28 30l9 15l6 4v8l14 10v8h6v11h4l21 37l12 10l4 14l35 37h29l16 -6l14 -12l11 -27l-9 -35l-30 -55l-37 -58l-41 -47l-17 -12l-4 -16l-20 -25l-2 -10l-12 -8 l-7 -15l-14 -10l-10 -14h-8l-47 -47l-43 -33l-7 -10l-14 -7l-49 -43l-27 -12v-4l-26 -10v-4l-56 -33l-10 -10h-10v-4h-8v-4h-11l-2 -5l-16 -4l-53 -34l-58 -23l-32 -45l-4 -33l-21 -61l-18 -43l-31 -60l-14 -30l-35 -56l-37 -51l-47 -47l-35 -33h-8l-19 -18l-49 -19l-65 -10 h-68l-61 21l-54 34l-18 25l-18 55l-5 64l7 39l18 39l41 51l47 43l25 18h10v6l14 5l8 12l23 8l4 6l57 25l13 10l30 10l13 13l57 20l61 27l37 30l17 29v8l10 10l4 33l23 51l10 9v14l6 6l4 16l6 7l17 45l4 24l8 23l8 6l4 20l6 7v8l9 14l2 14l16 27l4 14l16 27l5 25l6 10l4 18 l8 10v35l-10 19l-8 32l8 31l37 58l6 24l30 53l29 56l2 16l17 27l14 32l33 54l26 61l13 25l34 30l13 31l16 27l8 -2l31 12h72l30 -8l11 -8l2 -13l8 -12l-6 -31l-13 -26v-8h-4l-16 -54l-16 -26l-9 -37h-6v-10h-4v-9h-4v-10h-4v-8l-19 -25l-18 -55l-10 -33l-29 -59l-6 -6 l-16 -54l-27 -63l-20 -63l-11 -13l-8 -30l-27 -50l-4 -14l-8 -4l-10 -33v-16l-25 -60l-16 -30l-18 -62l-7 -28zM393 1376v6l39 31l27 8l30 4l33 -10l21 -12l4 -6l14 -6l21 -27l16 -39l-2 -29l-8 -16l-8 -33l-21 -22l-55 -29l-35 -4l-29 12l-28 19l-21 22l-14 27l-2 16l16 62 zM-272 -217l-2 -2l-31 -6l-31 -13l-2 -4l-12 -2l-49 -37l-50 -32l-38 -54l-9 -26l4 -21l19 -22l14 -10h31l25 6v4h8l28 18l60 60l6 14l6 4l4 12l6 4l6 17l11 10l6 18l22 33v15l-10 14h-22zM186 469h4l9 12v15l-6 4l-9 -2l-4 -9l2 -16zM-66 -125v-6l15 -4l4 6l-6 14l-8 9z M23 88v-14h10l8 10zM-174 -324l2 -2l-2 17l-12 12l-2 -6zM174 553l-2 4h-4l-10 -10h12zM274 866v-8h13l-2 6z" />
<glyph unicode="k" horiz-adv-x="931" d="M432 1079l-6 -6l-12 -29l2 -16l14 -10h14l58 35l30 14l7 6l55 12l65 5l33 -9l37 -14l25 -20l20 -27l14 -27l9 -26l-2 -64l-15 -76l-18 -65l-25 -57l-26 -58l-29 -59l-29 -43v-8l-18 -15l-6 -16l-35 -33l-12 -6l-11 -14l-20 -9l-2 -8l-14 -4l-11 -12l-55 -23l-68 -20 l-16 -2l-29 -33l2 -63l4 -68l5 -4v-33l14 -24l25 -27l30 -19l29 -4l27 2l30 15l17 2l18 14l14 4l9 10l14 5l45 30l6 6l14 5l5 6l8 2l10 14l25 10l45 47l12 11l18 28l9 4l8 19l49 47l6 6v10l8 4l4 15l19 14l35 53l32 56l15 14l39 -2l32 -37v-33l-18 -30l-16 -19l-3 -12 l-40 -53l-13 -25l-24 -27l-6 -2v-8l-35 -43l-21 -22v-4l-49 -46l-33 -36l-49 -35l-2 -4l-12 -2l-27 -33l-12 -2l-6 -10h-8l-11 -13l-55 -32l-18 -11h-7l-16 -10l-57 -16l-70 -17l-63 6l-33 9l-8 10h-11l-4 8l-14 6l-4 8l-29 19l-31 55l-8 25l-6 6l-24 74l-5 55v72l5 65l4 33 l6 4v8l16 25l25 22l24 10l19 3l12 -7l37 4l47 15v4h8v4h10v6l13 2l53 41l16 17l2 8l23 24l2 13l12 10l19 51l12 21l16 45v8h4v10h5v10h4v8l12 29l12 49l-2 17l-8 16l-23 21l-30 8l-35 -2l-33 -11l-51 -26l-53 -37l-47 -47l-29 -47l-18 -47h-5v-11h-6v-8h-4l-6 -28l-16 -31 l-21 -60l-16 -26l-39 -117l-21 -47l-22 -55l-10 -31l-13 -19l-14 -36l-16 -62l-21 -45l-10 -12l-21 -55l-8 -25l-30 -31l-56 -14l-71 4l-13 6l-20 21l4 30l12 31l8 35l27 61l6 6l4 13l10 12l21 57l22 64l27 55l10 47l6 6l21 56l12 12l10 31l7 6l18 57l23 62l18 43l4 12l6 6 l6 21l11 12l4 16l8 10l4 21l6 6l8 45l11 10l2 15l14 33l20 59l9 14l16 51l12 13l6 24l13 13l18 61l19 29l4 18l12 12l4 33l27 58l12 30l4 35l27 47l10 23l33 30l63 7l15 2l51 -17l12 -10v-10l6 -4l4 -15l-6 -32l-12 -21l-10 -35l-11 -8l-2 -14l-10 -15l-4 -24l-6 -2l-4 -25 l-8 -6l-5 -20l-6 -7l-4 -22l-22 -39l-2 -12h-4zM293 825l4 -2l4 8l-8 11h-6v-8zM274 801v-10h9v10h-9z" />
<glyph unicode="l" horiz-adv-x="520" d="M563 1438l2 -4l-6 -33l-22 -60l-27 -61l-25 -61l-20 -64l-6 -4l-13 -37h-6l-6 -47l-10 -18l-12 -13l-27 -61l-2 -17l-25 -55l-10 -20l-4 -23l-12 -20l-6 -31l-15 -18l-2 -15l-8 -14l-2 -12l-16 -27l-4 -16l-27 -58l-49 -123l-13 -32l-10 -11l-2 -22l-22 -62l-6 -12v-8 l-11 -10l-14 -39l-14 -51l-19 -46h-4l-6 -67l6 -31l23 -31l14 -6l33 4l26 11l6 6l11 2l8 10h10l47 47l49 45l13 13l16 26l35 33l6 16l10 6v9l11 14l12 8v10h4v11h4v8h6l2 12l8 2l11 21l12 12l14 27l17 18l2 12l41 56l22 20l14 4l19 -8l10 -12l10 -4l2 -15l13 -16v-14 l-13 -35l-10 -11l-4 -16l-22 -24l-2 -17l-37 -49l-4 -12l-15 -15l-2 -10l-10 -4l-4 -14l-19 -19l-4 -14l-39 -47l-41 -51l-16 -27l-49 -43l-12 -12l-15 -6l-10 -13l-53 -37l-47 -24l-62 -21l-30 -2l-72 6h-31l-29 21l-20 10l-33 47l-18 58l-2 69l10 66l14 61l21 64l10 30 l14 27l9 29l10 10l22 59l9 31l30 57l8 31l11 14l14 48l16 36l21 60l22 63l29 60l23 61l4 17l6 6l14 43l6 14l11 10v8h4l6 17l12 8v8h4v10h4v9l6 10l13 65l26 56l19 63l26 62l19 37h4l2 12l14 16l31 12l68 5l32 -7l25 -18z" />
<glyph unicode="m" horiz-adv-x="1441" d="M1030 111l4 -5l70 9l29 12l47 37l49 47l45 47l6 16l14 9l4 14l11 14l4 15l14 8l4 14l15 10l2 9l22 24l33 55l22 41l13 11l22 41l15 10l38 4l23 -16l14 -23l-2 -27l-6 -18l-20 -25l-9 -20l-32 -57l-2 -9l-11 -10l-28 -45l-2 -10h-4l-19 -29v-8l-12 -10l-2 -6l-19 -17 l-2 -12l-26 -21l-41 -51l-53 -45l-33 -35l-23 -14l-12 -12h-8l-2 -6l-41 -17l-8 -10h-11v-4h-8l-10 -10l-55 -4l-5 -5l-32 -4l-33 2l-33 9l-59 28l-23 23l-2 8l-8 4l-4 29l-8 6l-13 49v68l5 32l6 15l4 33l6 10l12 63h6l2 13l27 57l16 45l9 31l24 59l15 41l10 6l20 58l21 63 l26 55l11 33l4 4l10 66l-10 26l-25 15l-35 6l-32 -6l-29 -11l-23 -12l-8 -10h-10v-4l-14 -4l-9 -13l-10 -2l-8 -12l-12 -4l-45 -49l-27 -23l-2 -12l-29 -59l-22 -62l-4 -16l-7 -6l-2 -13l-6 -6l-2 -12l-6 -4l-2 -25l-29 -45v-10h-6v-8h-4l-16 -60l-13 -20l-6 -33l-22 -47 l-21 -59l-14 -41l-10 -9l2 -16l-27 -61l-16 -43l-10 -11l-25 -43l-10 -30l-23 -25l-12 -8l-66 -2l-57 10l-18 23v26l16 49l10 11l19 59l14 18l6 25l12 12l4 29l27 59l49 119l27 62l12 28l17 54l10 12l18 53v8l13 13l18 61l10 29l17 28l20 64l4 35l-2 14l-35 33l-32 2l-33 -6 l-43 -19l-8 -10h-11v-4l-22 -8l-31 -27l-25 -16l-45 -49l-18 -25l-25 -61l-6 -21l-16 -27l-21 -63l-14 -29l-16 -55h-4l-23 -59l-10 -33l-27 -29l-6 -20l-10 -11v-36l-8 -29l-15 -29l-22 -63l-17 -27l-24 -63l-10 -13l-15 -61v-4h-4l-10 -15l-33 -18l-65 -4l-48 6l-22 14 l-8 15l16 63l10 29l29 57l4 21l6 4l6 33l27 45l19 61l12 37l10 10l23 60l8 12l16 55l19 31l4 22l6 7l18 55l2 12h6l25 57l23 64l14 47l8 10v8l6 7l2 16l11 8l20 53l25 64l14 31l18 22l13 8h24l29 -16l35 -33l30 -14l15 -2l57 33l25 22l26 12l25 19l29 10l8 8l65 11h70 l37 -15l16 -4l31 -27l8 -32l8 -17l35 -24h18l23 18h8l10 10l15 7l26 24l29 23l47 16l64 18l26 7h35l37 -7l31 -10l24 -16l23 -23l22 -65l6 -29l-4 -65v-21l-6 -4l-4 -27l-26 -63l-11 -45l-4 -4l-8 -31l-29 -57l-22 -62l-10 -37h-5v-8l-18 -37l-6 -4l-10 -33l-15 -28l-10 -33 l-6 -8l-6 -27l-8 -10l-9 -33l-6 -6l-16 -59l-10 -78l2 -27zM1042 518l2 -2l15 12l-2 29h-8l-9 -33zM649 967v-6h13l6 6v16l-9 6l-8 -12zM510 352h6l4 8l-2 7l-12 10l-4 -17zM1133 899v-4l18 -8l4 4l-4 12l-8 2zM528 473v-4l13 6l2 12h-8zM621 584l2 -4l4 -5l6 3l-4 14 l-13 -6zM729 901v-14h8v12zM242 836v-11h10v11h-10zM51 307v-10h10v10h-10zM1190 803l-2 4l-14 -8l4 -4l8 2z" />
<glyph unicode="n" horiz-adv-x="980" d="M1036 557l8 2l29 -20l17 -27l-5 -29l-32 -59l-33 -55l-16 -29l-5 -14h-4l-37 -54l-16 -26l-43 -51l-16 -27l-45 -45l-25 -27l-43 -28l-31 -25l-22 -25l-12 -4l-7 -6l-10 -2v-4h-10v-4h-8v-6h-13l-20 -10l-29 -9l-16 2l-10 -4l-68 4l-39 -2l-4 7l-14 4l-4 6l-11 2l-4 10 h-10l-8 14l-25 25l-14 27l-6 26l-4 74l2 63l6 31l8 14l2 15l6 10l19 68v8l22 55l6 21h4v8l27 57l12 31l13 10l6 29l22 59l21 55l24 62l25 67l8 31v21l-31 39l-34 4l-33 -6l-27 -11l-57 -32l-10 -11l-23 -8l-47 -37l-4 -14l-21 -16v-11l-12 -8l-6 -22l-10 -11v-14l-17 -27 l-20 -59l-10 -25v-10h-4l-9 -22l-10 -11l-12 -30l-2 -21l-31 -59l-14 -45l-10 -21l-19 -55l-2 -14l-12 -13l-4 -24l-4 -2l-9 -29l-26 -61l-23 -64l-24 -63l-29 -56l-10 -12l-68 -10h-35l-26 10l-17 23l-4 32l2 37l10 41l17 21v8h4l16 61l2 8l7 5l12 32l16 29l13 27v20l16 39 l29 59l22 64l27 57l18 58l27 59l26 61l21 56h4l23 57l28 59l19 62l8 31l35 28l20 2l59 -37l46 -26l28 8l31 21h8v4l47 32h8v4l21 9l8 12l57 20l29 7l70 -2l49 -19l35 -31l2 -8l20 -16l2 -12l6 -3l13 -59v-37l-17 -67v-19l-12 -24l-4 -19h-4l-17 -55l-26 -64l-21 -51l-8 -31 l-26 -57l-25 -55l-23 -51l-2 -21l-6 -4l-8 -29l-20 -45l-17 -63l-6 -2l-12 -35l-2 -37l4 -45l8 -14l37 -21h14l35 15l12 10l27 12l22 19l23 12l2 12l49 41l29 21l8 20l12 10l9 25l14 12l4 12l12 9l29 47l37 53l10 14l2 13l23 24l30 55l19 21zM557 494v-11h10v11h-10z" />
<glyph unicode="o" horiz-adv-x="958" d="M641 340v-8l16 -21l23 -6l39 -2l55 25l25 18l14 4v4h10l45 47l45 41l5 13l34 45v8l13 10l24 33l15 4l14 -2l29 -18l14 -21v-8l4 -4v-17l-16 -34l-11 -11l-6 -14l-20 -25v-8l-45 -47l-41 -51l-52 -41l-57 -37l-12 -8l-66 -14l-24 -11l-70 -6l-31 4l-36 11l-31 -13l-41 -51 l-49 -53l-13 -10l-12 -5l-10 -14l-12 -2l-52 -37h-8l-14 -10l-51 -14l-29 -13l-63 4l-33 -4l-4 4h-25l-4 5h-14l-9 10l-14 2l-55 39l-12 12l-7 16l-12 9l-6 22l-10 10l-4 29l-13 27l-6 59l-4 66l12 47l9 61l6 64l24 57l19 61l22 62l8 33h7l8 32h4v11h6v8l16 31l19 24l8 21 l12 12v10l6 2l15 23l2 12l6 2l8 16l12 11l35 45l45 49l17 18l12 2l23 19h4l6 10h8v4l14 2l19 17l12 2l41 24h8l4 6l68 13l63 -5l29 -10l49 -8l25 -16l47 -49l18 -27l27 -62l8 -28v-68l-4 -63v-33l-16 -64l-4 -2l-9 -32v-25l-24 -47l-4 -2v-35l-4 -22l-7 -11l-14 -12l-4 -14 l-14 -23l-4 -33zM393 879l-2 -5l-41 -51l-35 -45l-2 -10l-18 -23l-4 -14l-31 -59l-10 -15l-4 -14l-19 -27l-10 -32l-8 -11l-2 -10l-6 -4l-11 -65l-10 -13l-20 -45l-13 -57l-4 -4l-8 -68l-6 -28v-74l6 -33l10 -20v-11l25 -20l31 -12l24 -5l41 11l4 8l13 2l49 43l24 20l39 58 l11 20l-17 51l-4 17l4 65l2 7l6 2l2 10l19 24l10 9l55 20l27 21l20 22l23 61l10 39h4l11 29l6 33l6 6l4 63l14 68l2 14l-8 58l-12 33l-19 22h-8l-4 8l-8 2l-2 4h-41l-31 -8l-26 -12l-23 -16zM535 303v-4l2 -10l12 -8l4 6v26h-10zM508 313v-22l4 -2l6 12l-6 14zM594 352 l-2 -2v-8h8v12z" />
<glyph unicode="p" horiz-adv-x="929" d="M498 125v-4l14 -8l31 8l47 35l20 14l13 2v4l53 35l49 45l49 47l14 10l27 39l21 21v6l41 41l2 12h4v10h4l12 23l12 8l7 16l24 27v8l29 31l16 2l29 -12l24 -31v-16l-8 -21l-20 -26l-13 -29l-12 -12l-2 -11l-12 -12l-4 -14l-35 -49l-43 -54l-41 -51l-47 -45l-49 -43l-56 -41 l-30 -16l-13 -11l-59 -26l-27 -17l-34 -10l-9 -10h-14l-29 -12l-63 -11l-64 -4l-65 -4l-60 15l-63 20l-29 14l-53 50l-8 12l-2 14l4 17l18 24l29 10h33v-4l28 -8l35 -2l27 12l51 45l43 54l21 22l32 53l33 58l27 63l18 23l14 37l9 4v8l10 10l12 60l19 51l6 24l6 11l14 63 l8 27l9 65l2 35l-6 31l-19 26l-20 15l-64 -13l-31 -12l-51 -37l-45 -49l-35 -37l-6 -14l-8 -4v-10h-6v-9h-4v-10h-4l-19 -51l-20 -59l-29 -60l-12 -20l-21 -54l-24 -63l-25 -59l-8 -31l-25 -60l-16 -38l-20 -56l-5 -14h-4l-24 -64l-23 -57l-22 -51l-4 -23l-7 -4l-8 -32 l-24 -58l-29 -63l-16 -37l-2 -12l-15 -31l-8 -29l-4 -2l-4 -24l-19 -39l-10 -25l-26 -20l-62 -7l-33 -4l-41 6l-8 13l-6 2l-6 12l-2 27l35 55l18 61l19 60l10 31l16 22l2 14l15 23l4 29l22 55l25 55l24 62l11 30l12 21l4 18h4l16 45h5l20 62l23 61l16 45l27 54l26 63l21 61 l26 56l21 59l24 62l17 26l4 15l16 26l23 62l16 30v6l10 13l4 33l15 45l12 22l12 2l9 10l18 7l18 -7l58 -36l35 -11l30 13l31 26l14 2l23 25l20 6l13 12l65 8l33 7h27l4 -7h8l43 -22l45 -45l2 -14l10 -11l4 -14l11 -12l8 -62l4 -65l-4 -64l-10 -33l-9 -65l-10 -60h-4l-6 -32 l-10 -25l-19 -65l-26 -56l-27 -63l-21 -33l-10 -29l-16 -28l-2 -11l-6 -2v-10l-11 -10l-2 -10l-22 -23l-2 -12l-21 -25l-16 -30l-14 -19zM76 399h4v19h-12l2 -17zM274 94v-6h11l8 10l-6 4zM465 285v-15h10l4 9zM635 610l-2 -2l14 2l4 13l-14 -5zM344 39v-10h14l-8 10h-6z M82 449l4 -3l4 5l-2 8l-8 2z" />
<glyph unicode="q" horiz-adv-x="1005" d="M827 858v-31l-24 -47l-23 -59l-20 -64l-25 -57l-28 -57l-9 -35l-24 -62l-27 -59l-10 -29l-6 -6l-21 -59l-2 -8l-12 -13l-6 -24l-12 -21l-5 -24l-10 -10l-10 -43l6 -27l16 -8l33 2l62 20l55 33l49 39l47 47l15 8l4 12l34 41h7l26 27l17 27l6 22l35 56l12 12l2 12l33 43 l2 12l24 23h37l33 -27l6 -30l-8 -29l-16 -21l-7 -20l-12 -12l-6 -25l-10 -4v-10l-8 -4v-9l-25 -22l-33 -57l-26 -33h-9l-24 -23l-17 -28l-6 -4v-9l-33 -39h-8l-18 -18h-4l-49 -43l-56 -35l-30 -14v-4l-13 -2l-30 -41l-2 -17l16 -61v-31l-12 -63l-6 -41l-19 -47l-20 -64 l-29 -59l-19 -54l-34 -49l-9 -12l-6 -2l-2 -12l-12 -6v-11l-43 -39l-6 -12l-14 -4l-11 -14l-14 -2l-10 -11h-8l-7 -8l-59 -10l-33 -6l-35 2l-65 16l-4 11l-13 4l-22 18l-2 14l-8 7l-23 61l6 63l6 31l13 29v51h4l10 29l10 16l9 29l6 4l6 29l20 36l4 19l11 8l4 20l10 9l2 14 l10 14l17 60l10 20v17l-6 8l-17 6l-30 -6l-7 -4l-59 -15l-35 -4l-65 13l-33 8l-45 35l-6 14l-10 6v8l-9 10l-14 66l-6 27l-4 69l2 60l24 131l2 14l17 39l22 61l19 64l6 22l6 2l6 27l23 43l6 6l14 47l12 13l15 28l12 13l4 20l10 10l17 31l82 107l49 41l22 24l15 4l10 10 l39 25l55 14l31 9l37 2l47 -9l55 -32l27 -23l2 -12l10 -6l4 -11l6 -4l13 -28l12 -13l16 -8h31l43 29l51 37l31 6l20 -17l2 -20l5 -4l-9 -35l-10 -20l-12 -11l-14 -26zM471 915h-4l-47 -26l-21 -27l-49 -43l-4 -14l-10 -4l-4 -15l-33 -32l-8 -33l-25 -37l-2 -14l-18 -33 l-21 -59l-24 -64l-11 -18l-18 -64l-22 -61l-9 -27l-4 -49h-4l-6 -31l-2 -37l8 -59l2 -8l25 -23l28 -6l35 4l39 12v5l17 10l12 2l18 24l15 5l8 14l45 35l2 12l18 12l2 15l13 10l16 26l6 5l15 38l14 19l4 33l10 20l-2 8l8 11l23 59l26 61l17 43l10 15l6 20l17 27l6 26h4l16 64 l4 39l-4 37l-10 28l-18 21l-39 24l-33 7h-27zM459 -66l-2 -2l14 -6l-20 -6l-21 -57l-8 -29l-31 -61l-12 -39v-15l-10 -8l-2 -14l-11 -14l-4 -15l-20 -37l-19 -61l-10 -45l6 -17l23 -18l10 -2l18 4l29 19l33 45l12 10l25 53l6 6l27 58l24 59l23 61l10 64l2 24l-6 5l2 32 l-10 29l-33 23l-29 -17zM342 117v-13h33l14 -8l4 8l-8 21h-33zM449 68v-5l6 -4l10 11l10 2l-4 16l-8 2zM512 238v-5l4 -6l14 2l15 11v4l-31 -2zM582 496v-7h20v11l-4 6l-10 2zM592 401v-14h10l4 14h-14zM504 285v-4h8l6 14h-10zM94 295l2 -4l8 -6v14h-12l-2 -4h4z" />
<glyph unicode="r" horiz-adv-x="780" d="M858 551l12 -12l15 -19l2 -26l-6 -27l-15 -31l-14 -18l-2 -12l-23 -25l-28 -59l-6 -15l-13 -10l-6 -14h-4l-35 -56l-20 -24l-10 -23l-46 -45l-30 -47l-27 -18l-10 -13l-27 -16l-24 -23l-56 -26l-6 -8l-51 -11h-72l-16 2l-39 21l-14 14l-15 8l-32 54v8l-11 12l-6 29l2 69 l8 70l11 47h6l8 55l6 5l6 24l15 25l22 63l6 23l29 59l14 23l2 14l11 12l10 39l20 62l2 18l-6 14l-6 5v8l-10 4v10l-8 4l-4 8l-11 2l-39 37l-12 4l-29 -18l-24 -59l-31 -56l-35 -53l-14 -25l-10 -34l-6 -5l-13 -22v-10h-4v-8h-6v-11h-4v-10l-6 -2l-19 -27l-14 -10l-18 -2 l-35 27l-14 28l2 17l18 33l12 12l8 28l19 27l12 27l6 24l11 9l2 14l16 18l12 27l6 24l7 7l2 12h6l6 24l12 13l6 28l13 29l-6 33l-23 31l-2 12l-12 20l-6 60v20l10 29l22 27l4 14l39 53l23 23l20 10l8 10l25 8l47 -10l55 -20l13 -25l6 -4l2 -31l-4 -33l-29 -51l-20 -61l4 -31 l24 -33l13 -2l45 -47l49 -45l12 -10v-6l33 -37l18 -39l2 -76l-4 -59l-26 -58l-23 -47l-2 -18l-20 -43l-2 -12l-23 -45l-4 -23l-6 -6l-23 -57l-4 -21l-8 -10l-12 -35l-13 -61l-6 -50l4 -14l7 -4l4 -12l10 -11l24 -8l31 8l31 21l53 47l10 8v10l43 50l37 53l6 6l2 12l29 27v10 h4v8l19 27l30 57l13 27l12 10l2 12l6 5l37 55l12 8l17 -4l6 4zM377 383l-2 -2l6 -4h16l-6 14l-12 4z" />
<glyph unicode="s" horiz-adv-x="722" d="M449 188l4 -4l22 2l47 41l41 49l41 52l6 14l8 4l3 12l32 45l25 25l2 12h4v9h8v10h4v8h6v10h5v8l22 25v10h4l27 35l24 4l31 -22l16 -27l-4 -33l-8 -14l-6 -4l-2 -15l-8 -14l-17 -14v-8l-10 -5l-2 -12l-10 -12l-12 -33l-70 -102l-25 -25l-2 -12l-41 -47l-51 -49l-51 -41 l-51 -37l-31 -17l-33 -10l-59 -24l-33 -9h-14l-33 -8h-65l-33 2l-6 4l-50 2l-10 9h-14l-45 28l-33 10l-25 21l-26 29l-8 16v16l6 15l26 22l33 13l31 -2l57 -29l29 -6l33 -2l32 4l29 14l29 21v10h4v8l6 10l14 66l9 67v62l2 31l-7 67v96l-10 64l2 35l-4 30l-10 13l-16 -4 l-27 -50l-10 -4l-2 -12l-11 -16h-4l-6 -15l-12 -12l-27 -57l-33 -54l-14 -10h-35l-24 21l-10 18l4 37l30 53l15 19v10h4v8h4v10h6v9h4l2 12l12 12v8l27 43v8h6v11h4v8h4v10h5v8l10 11l8 32l10 9v10h4v8h6v10h5v8l32 58l19 35l6 6l12 30l6 7l4 14l7 6l4 14l6 7l6 18l10 12 l2 13h6v8l35 24l33 -8l51 -27l23 -20l12 -20v-39l-25 -62v-63l-2 -33l-12 -66l-2 -63v-68l8 -131v-30l4 -15l-4 -65l6 -64v-65l-2 -64l2 -16zM332 135v-6l22 -8l15 4v8l-33 14zM383 731v-8h8v8h-8z" />
<glyph unicode="t" horiz-adv-x="555" d="M561 1460l2 -2l4 -10l-2 -33l-20 -59l-13 -29l-18 -24l-14 -50l-13 -24l-10 -33l2 -8l21 -19l69 -4l23 -2l26 -18l9 -25l-13 -30l-28 -27l-15 -4h-34l-29 8h-47v-4h-10v-4h-9v-4h-10v-6l-20 -15l-9 -10l-8 -31l-14 -32v-9h-4l-8 -32h-7v-11h-4v-8h-4v-10h-4v-8h-6v-11h-4 l-8 -28l-19 -60l-24 -59l-31 -61l-22 -60l-25 -61l-23 -64l-22 -61l-33 -56l-10 -24l-10 -64l-17 -38l-12 -70l4 -29l8 -14l29 -25l10 -4l31 4l29 13l6 6l12 2l41 24l20 23l29 16l23 21l43 53l47 49l4 10l12 11v6l39 55l4 8l21 15l2 14l22 22v11h6v8h4v10l9 4l24 45l23 25 l16 6h14l15 -6l28 -33l3 -33l-7 -14l-12 -14l-33 -58l-2 -12h-4l-8 -23l-14 -8l-2 -12l-13 -12l-2 -13l-41 -55l-43 -51l-39 -45l-45 -51l-37 -27l-8 -14l-51 -33l-12 -12h-8l-11 -9l-43 -12l-12 -12l-14 -2l-23 -14l-24 -7h-70l-33 4l-10 7h-16l-37 10l-19 16l-12 2l-20 27 l-27 59l-6 29v37l4 8v51l6 6l16 62l15 59l14 37l18 66v4h7v8h4l22 55l23 62l28 51v8l5 4l16 64l12 16l4 18l8 2l17 46l8 10l19 57l2 16l22 54l8 24l11 9l2 12l14 31v30l-16 19l-27 10h-49l-6 8l-29 16l-16 21l4 27l36 24l35 6l64 -4h14l4 4l25 2l39 33l16 45l6 21l17 30 l22 64l29 61l14 29l23 18l30 5l78 -3l31 -4zM332 1055h4l4 14l-14 21l-9 2l-4 -9v-14l11 -12zM330 1128l2 -4l16 2l2 7l-8 14l-6 4l-8 -12zM168 641l-4 -8l10 -6l4 10z" />
<glyph unicode="u" horiz-adv-x="987" d="M858 1047l8 -5v-34l-22 -62l-27 -59l-22 -60l-21 -45v-10h-4v-8l-10 -14l-2 -13l-8 -10l-19 -65h-4v-11l-10 -10l-21 -59l-22 -45l-6 -23l-6 -6l-19 -49l-29 -56l-18 -59l-23 -61l-16 -60l-8 -35l-2 -32l8 -33l20 -21l21 -4l31 6l67 31l29 17l37 43l45 53l22 20l13 19v8 l41 55l10 12l2 9l20 16l5 14l10 5l4 14l8 4l12 31l6 2v10l7 2l4 16l32 52l29 16l19 2l26 -14l17 -27v-35l-7 -16l-10 -10l-12 -29l-14 -18l-5 -15l-30 -49l-10 -18l-11 -11l-6 -14l-14 -8l-4 -15l-15 -10l-2 -8l-43 -53l-16 -27l-31 -31l-2 -12l-49 -41l-33 -22l-8 -13 l-14 -6l-51 -39l-13 -10l-10 -2v-4h-12l-31 -14l-31 -9h-69l-66 11l-27 10l-24 18l-23 27l-16 31l-21 26l-16 4l-12 -4l-51 -45l-56 -37l-14 -6l-10 -12h-8l-15 -10l-14 -4l-10 -9l-66 -4h-33l-59 15l-37 28l-24 37l-13 8l-2 15l-10 18l-6 55v41l16 64l15 61l16 66l18 45 l2 12l11 13l6 22l4 4v8l10 11l10 30l4 2l2 13l7 6l6 26l16 29l19 64l22 59l27 59l10 29l18 27l2 14l13 12l8 45l6 6l14 52h7l22 61l14 19l21 12l63 2l33 6l27 -2l22 -18l4 -15l-14 -65l-6 -6l-6 -21l-8 -4v-8l-11 -10l-6 -31l-4 -2l-18 -60l-21 -49l-10 -12l-12 -35l-13 -27 l-22 -67l-19 -43l-10 -14v-9h-4l-20 -63l-13 -21l-8 -28l-18 -45v-6l-11 -13l-18 -57l-20 -60l-13 -30l-18 -68v-22l18 -29l27 -18l27 2l30 14l53 43l91 90l16 27l12 10v10l8 4v8h7v11h4v8l39 53l4 8l8 4v11h4v8h4v10h6v8l6 4l2 11h5v10h6v8h4l6 27l12 28h4v11h4v8h7v10h4v8 l16 23l23 65l22 60l18 61l27 57l23 60l4 14l10 15l4 18l6 4l23 59l10 31l27 27l63 4l29 6h35l22 -12v-8zM481 193v-5l11 -2l12 9l-2 12l-6 4h-11zM477 309h8l7 10l-5 13h-10l-4 -15zM207 754h6l-2 8l-8 6l-4 -6l2 -6zM459 225v-8h8v8h-8z" />
<glyph unicode="v" horiz-adv-x="878" d="M905 545l2 2l27 8l33 -18l20 -29l-4 -31l-35 -57l-20 -25l-19 -30l-43 -48l-51 -43l-55 -36l-60 -31l-24 -4l-19 -8l-63 -15l-35 -2l-82 10l-4 5l-24 6v4l-27 8h-35l-31 -12l-22 -25l-21 -12l-12 -15l-29 -16l-22 -20l-14 -7l-15 -20l-20 -8l-13 -17l-26 -14l-12 -12 l-11 -2v-4h-10v-4h-8v-7h-10v-4l-111 -18l-33 4l-16 -2l-17 4l-22 25l-2 18l20 53v15l4 4v37l13 45l14 65l8 64l6 30l21 45l4 66l4 4l2 29l10 30v11l7 14l4 29h4l10 30l4 66l6 10l10 51l15 62l6 6l8 33v32l16 66l25 92l21 25l65 8l31 4l37 -14l14 -27l6 -27l-4 -6v-32l-4 -7 v-16l-6 -10l-8 -41h-4l-9 -64l-6 -16l-2 -31l-16 -61l-17 -66l-16 -63l-12 -64l-8 -45l-5 -33l-18 -63l-14 -64l-9 -26l-4 -31l7 -24l24 -13l12 6l50 41l49 43l8 4l45 52l49 47l16 16l5 15l10 4l2 12l22 22l7 17l26 31l4 12l35 45v8l37 47v10h6v9h4v10h4v8h4v10h6v8h5l20 58 l2 18h4v8h6l6 27l17 43h4l6 23l8 14l13 51l20 66l8 32l21 23h8v4l47 14h29l24 -12l11 -27l-11 -63l-2 -37h-4l-20 -61l-11 -33l-8 -12l-20 -62l-6 -16l-7 -6l-10 -39l-18 -25l-2 -10l-13 -12l-10 -33l-26 -47l-2 -10l-13 -13l-4 -12l-10 -12l-2 -9l-35 -51l-33 -43l-16 -18 l-4 -14l-25 -27l-16 -31l2 -20l24 -19h70l35 4l25 9l26 16l31 10l51 37l49 49l25 23l35 53zM129 479v6h-18l2 -10l6 -4zM92 96v-6h10l9 10l-13 4zM86 166l-2 4l-4 2l-8 -4l-2 -6l4 -4l12 4v4zM33 174v-8h8v8h-8z" />
<glyph unicode="w" horiz-adv-x="1384" d="M1274 1065l4 -2v-33l-16 -61l-13 -60l-8 -18l-14 -64l-21 -63l-2 -16h-6l-4 -25l-6 -6l-2 -12h-6v-9h-4l-17 -57l-12 -23v-8h-4l-21 -57l-14 -37l-10 -12v-10h-6v-9h-5l-2 -12l-30 -63l-25 -58l4 -14l23 -23l10 -4h57l33 2l45 21l4 6l11 2v4l16 6l10 10l12 2l9 13l12 6 l18 20l13 5l18 28l23 21l4 14l12 6l35 55l24 23h31l16 -8l11 -10l12 -25l-8 -41l-6 -4l-2 -8l-11 -8l-2 -15l-41 -51l-51 -51l-2 -13l-20 -14l-2 -12l-50 -41l-2 -6h-10l-4 -8h-8l-10 -13l-62 -22l-31 -10l-65 -7l-35 -4l-61 8l-27 11l-35 4l-30 -12l-48 -46l-53 -43l-6 -4 v-8l-41 -43l-12 -2l-10 -10l-23 -8l-8 -11l-12 -2l-5 -6l-28 -12l-15 -10l-53 -13l-69 -4l-23 2l-4 4l-43 11l-27 20l-41 49l-10 31l-16 27l-15 6l-2 4l-14 -4l-23 -23l-10 -20l-24 -25l-13 -2l-4 -6l-51 -27l-53 -34l-66 -9l-47 -8l-24 10h-13v5h-10v4h-8v6l-17 2l-40 51 l-29 39l-2 66l4 57l12 63l10 64l17 22l16 66l15 27l10 30l10 15l2 16l10 16l23 54v8l10 10l2 25l6 18l10 10l3 21l6 2l12 31l6 6v8l10 18l9 37l12 31l10 10l6 21l10 12l7 33l10 28l10 4v11h4v8l6 10l21 68l12 20l6 4l2 8l23 15l37 10h47v4l37 -2l26 -14l8 -29l-10 -33 l-14 -28l-8 -7l-9 -22l-4 -33l-10 -29l-6 -6l-4 -14l-19 -33l-10 -28l-4 -25l-6 -6l-6 -21l-6 -6l-4 -18l-7 -6l-6 -29l-16 -29l-4 -14l-12 -10l-19 -58l-22 -63l-17 -29l-10 -47l-6 -4l-31 -51l-14 -58l-8 -18l-7 -33l-10 -26l-6 -31l-12 -29l-4 -24l22 -33l29 -6l33 8 l14 8l14 2l19 13l4 8h8l47 47l49 47l21 18v9l8 4v10l8 2l6 20l37 52l10 10v8l9 4l4 17l35 53l6 4l4 12l10 12l4 25l23 47l22 66l23 61l28 55l21 50l6 28l14 31l4 18l13 13l6 24l12 13l10 53l2 16l5 6h4l6 23l30 43h11l4 6l14 2v4l64 -4l36 -4l29 -12l4 -7l-2 -32l-22 -62 l-21 -59l-28 -60l-19 -43l-10 -12l-12 -63l-19 -45h-6v-9h-4l-6 -26l-8 -10l-25 -62l-2 -14h-6l-12 -49h-7v-11h-4v-10h-4v-8h-4v-10h-6v-8l-25 -62l-6 -22l-24 -56l-17 -57l-16 -66l4 -34l16 -27l29 -10l31 6l33 14l22 19l23 12l12 12l12 2l43 51l17 23l14 33l-8 63l4 47h4 v9h4v10h4l21 28l18 9l8 12l33 6l47 25l18 24l23 49l10 13l6 24l7 8v9l10 10l2 16l12 13l23 61l20 63l14 58l11 31l20 32l6 37v33l4 14l9 11l8 26l33 39l55 12l14 4zM932 352l8 -8l12 4l17 29v16l-6 6l-33 -34zM487 193l-2 -3l9 -20l14 -2l4 6l-10 14l2 7zM496 369l-2 -7h8 l6 7v10l-6 10h-4zM475 311v-14h14v14h-14zM561 389l-2 -4h14l5 14l-11 -2zM610 473h4l-6 12l-8 2l2 -8zM406 246v-8h14l-2 6z" />
<glyph unicode="x" horiz-adv-x="1040" d="M651 799l19 -19l16 4l47 43l12 11l7 16l24 18l4 15l8 10l13 2l43 47l43 51l45 52l24 20l15 4l6 6l12 2l4 6l29 -10l29 -20l18 -21l6 -22l-6 -13l-8 -4l-4 -14l-41 -31l-8 -16l-19 -16l-4 -15l-49 -41l-47 -45l-4 -4v-8l-47 -43l-17 -21l-14 -6l-27 -30l-14 -5l-39 -49 l-6 -6l-4 -12l-47 -47l-49 -47l-13 -23l-2 -18l-4 -4l-2 -17l-6 -12l-4 -33l-8 -24l-11 -70l-6 -59l-8 -68l8 -63l17 -27l28 -19h15l45 13l8 10h10v4h8l11 12l14 9l12 2v6l27 18l33 35l12 4l47 47l43 45l41 53l39 44v8l20 30l13 13v8h4v10h4v8l41 54l10 10l23 6l36 -8 l21 -21l2 -30l-27 -58l-12 -26l-6 -4v-5l-12 -10l-2 -8l-13 -10v-8l-20 -27l-2 -12h-6l-5 -15l-10 -4l-4 -14l-8 -4l-10 -23l-13 -10l-2 -6l-18 -17l-4 -14l-8 -4l-6 -14l-95 -90l-51 -43l-24 -19l-13 -4l-35 -22l-22 -19l-33 -14l-31 -8l-16 -9h-63l-48 -4l-49 19l-45 26 l-8 15l-14 10v8h-4l-2 12l-25 56l-2 20l-6 10l-2 70l-2 23l-15 8l-26 -6l-4 -13l-45 -49l-50 -45l-94 -94l-20 -25h-8v-4h-13l-2 -4l-61 -16l-35 8l-25 22v13l15 28l53 52l45 45l43 49l23 16l38 47l15 4l2 13l47 45l47 49l47 45l47 49l17 19l2 14l6 8l8 66l4 4l12 59l5 68 l10 32l6 64l4 65v33l-4 17l-19 14h-14l-26 -18l-21 -9l-41 -47l-18 -18v-10l-11 -5l-8 -22l-18 -14v-7l-13 -14l-2 -12l-18 -14v-9l-16 -22l-15 -39l-35 -55l-14 -29l-10 -10l-2 -9l-6 -4l-4 -14l-9 -4v-8l-10 -10l-16 -31l-21 -23l-16 -6l-16 2l-27 21l-14 22v25l28 55 l15 29l6 4l2 14l33 53l10 25l6 4l33 57l37 56l18 28l12 29l37 53l17 25l47 49l39 29l16 6l10 12h8v4l27 8l63 9l60 -7v-4l29 -12l4 -8l14 -6l20 -27l13 -10l2 -12h6v-9h4l14 -61l4 -64l-4 -47l-4 -6v-22zM561 635l25 -12l4 -15h4l6 15l-14 28l-11 -2l-32 10zM393 334l-2 -4 l17 -17l10 -2l14 6l4 13l-22 12l-15 -2zM504 410l-2 4h-19l-12 -6l-2 -9l4 -6l43 -6zM539 731l-4 -2l2 -8l16 -19h4l10 33l-4 8h-8zM514 535l2 -5l33 -10l-17 27l-2 14l-10 2l-6 -16v-12zM555 860l-2 -6l29 -23l8 23l-29 12zM457 244l4 -2l4 8l-6 20l-8 4h-15l4 -16l11 -12z M600 870v-6l14 2l4 13l-14 4zM563 545v-6l6 -4l9 2l4 8l-9 4zM506 369v-11h10v11h-10zM426 391h-2v-10l8 2v12z" />
<glyph unicode="y" horiz-adv-x="966" d="M401 1032l2 -2l-6 -33l-24 -59l-25 -61l-22 -58l-15 -33l-14 -16v-8h-4v-10h-6v-9h-4l-2 -12l-9 -10l-14 -66l-29 -59l-4 -16l-6 -7l-20 -59l-23 -59l-14 -27l-17 -63l-28 -58l-21 -49v-16l-6 -6l-10 -52l8 -49l25 -18l20 -2l4 4l17 2v6l32 6l54 39l45 47l43 49l8 4l2 13 l35 51l20 37l15 8l2 12l16 25l14 33l15 14v8l8 10l33 64l14 53l8 12v11h6v8h4v10h4l5 25l22 49l23 59l6 21h6v8h4l2 12l14 29l4 24l9 9l22 63l21 61l8 27l10 12l8 4l9 15l22 6l74 8l33 -2l24 -14l12 -13l2 -8l-20 -63l-14 -29l-7 -31l-26 -59l-14 -49l-7 -2l-24 -62l-15 -30 l-6 -6l-2 -13h-4v-10h-6l-18 -59l-11 -15l-2 -22l-26 -54l-19 -61l-12 -20l-12 -35l-25 -60l-8 -22l-10 -4v-8h-4l-15 -43l-4 -33l-16 -17l-2 -20l-15 -27l-6 -20l-10 -12l-2 -15l-10 -18l2 -15l8 -8l14 -6l31 8l16 17h9l10 12l55 33l49 37l41 41l13 4l45 49l49 45l32 47 l11 10v8l12 13l12 6l2 12l9 4l2 12l8 3l2 12h4v8h6l25 33v10l8 4v8l35 37l14 2l33 -14l16 -33v-31l-35 -57l-14 -29l-35 -51l-45 -49l-31 -39l-4 -14l-22 -21l-19 -26l-45 -39l-10 -15l-14 -6l-15 -18l-16 -4l-27 -19l-10 -12l-16 -6l-10 -12l-15 -5l-24 -18l-17 -6l-53 -39 l-27 -16h-8l-59 -27l-29 -18l-14 -2l-4 -11l-13 -2l-36 -39l-3 -14l-10 -8l-20 -60l-4 -6l-2 -33l-13 -10l-12 -28l-16 -23l-9 -33l-8 -10l-4 -16l-10 -13l-2 -10h-6v-10h-4l-19 -27l-4 -14l-10 -4l-2 -12l-8 -5l-7 -14l-22 -27l-55 -34l-27 -15l-23 -24l-16 -8l-67 -15h-84 v4h-15l-57 25l-25 18l-35 37l-8 21l-12 63l12 64l27 61l18 25l27 22l8 12l12 3l50 43l4 6l22 8l4 6l29 14l33 9l24 16l62 27l55 26l31 15l26 18l23 22l14 21v27l-18 10l-23 -6l-4 -9l-28 -16l-60 -14l-33 -13l-65 3l-53 14l-33 29l-4 12l-27 31l-10 30l-4 64l8 73l4 33 l19 58l12 32l4 31l18 41l29 45l14 62l21 32l18 62l13 20l20 51l10 33l6 4v15l25 59l18 45l29 64l23 69l10 33l22 35l13 2l4 6l26 4l78 -4l17 -2l24 -16zM135 -217h-6l-41 -16l-59 -31l-25 -19h-8l-49 -45l-23 -26l-12 -27v-16l12 -27l27 -20l16 -5l4 5l29 4l4 6l14 2l52 41 l30 29l4 14l31 33v10l8 4v10h4v8h7v11h4l8 41l-10 10zM438 311l2 -4l-22 -22l6 -15l10 -10l2 -18l8 2l5 6l6 47l-6 20l2 9l-15 4l-2 -8zM348 -45h-6l-27 -21l-4 -8l17 4l10 -4l10 11l17 2l2 10zM377 193l-2 -3l2 -8l18 -12l4 -12h9l2 14l-7 18l-10 11zM348 86v-6l8 2l6 14 l-2 8l-12 15l-6 2l-2 -6zM440 193v-7h11l10 11l8 18l-16 -6zM324 -111v-4h10l6 4l8 23l-20 -10zM487 264v-18h9l6 14l-4 8l-6 2zM35 106l2 -4l12 4l2 9l-10 12l-8 -18zM383 -4h10v8l-10 10h-8zM524 360l4 2v9l-18 6l2 -10l6 -7h6zM383 43l2 4l-18 4v-8l6 -4zM41 154v-15h8 v15h-8zM356 20h4v9l-12 4l2 -10zM313 -203l-2 4l-14 -8v-4l12 2z" />
<glyph unicode="z" horiz-adv-x="993" d="M352 270v-4l6 -16l9 -10l32 -15l15 -2l57 -35l59 -26l31 -6l12 -6l66 4l63 22l52 31l49 47l49 43l41 53l14 19l6 18l21 23l29 51l8 20l41 56l16 16l14 6h15l30 -16l15 -31l-4 -31l-23 -49l-12 -10l-10 -31l-6 -4l-13 -27l-43 -53l-20 -26l-2 -11l-15 -10l-2 -8l-12 -10 l-27 -41v-8l-12 -9v-8l-49 -45l-33 -37l-8 -2l-10 -12l-29 -12l-22 -23l-19 -6l-6 -12l-31 -13l-10 -10l-16 -4l-11 -8l-47 -8l-10 -7l-63 -10l-66 10l-59 23l-58 29l-30 10l-29 18l-29 11l-65 -2l-33 -9l-51 -34l-13 -9l-32 -2l-17 8l-10 15l-14 8l-21 25l-6 18l6 29l45 51 l49 47l25 16l16 27l19 16l18 27l49 41l45 47l7 4l4 15l47 43l26 20l46 47l40 49l46 45l53 43l6 6l4 15l49 43l35 22v9l45 49l18 16v16l-14 21l-31 12l-14 2l-12 10l-25 3l-14 10l-31 4l-63 18h-31l-35 -6l-63 -24l-47 -50l-27 -30l-37 -54l-25 -30l-2 -13l-10 -6v-8l-8 -4 l-2 -12l-10 -10l-27 -60l-31 -57l-34 -56l-29 -12h-14l-11 4l-28 31l-2 31l28 63l15 27l6 4v8h4l2 12l29 60l32 57l11 10v11h4l10 26l16 21l2 12h4v10h7v8l36 56l37 51l45 51l19 17l10 2l4 10h10l4 8l58 23l65 4l66 -4l10 -3l6 -6h17l22 -8l64 -10l4 -4l65 -10l8 -5h66 l66 -6l63 17l16 -4l45 -39l7 -17l6 -6l2 -35l-39 -49l-51 -43l-11 -14l-12 -6l-6 -17l-49 -45l-94 -94l-43 -45l-45 -47l-13 -10l-18 -27l-45 -43l-49 -45l-47 -47l-45 -47l-48 -45l-34 -35zM754 891l2 -4h18l2 16l-10 39h-6l2 -10l-10 -31zM313 182v-22h11l4 6v16h-15z M537 963l4 -2l6 18h-10l-5 -6zM248 199l2 -2l4 16l-8 2zM467 993v-8h10v8h-10z" />
<glyph unicode="{" horiz-adv-x="839" d="M1087 1757l3 -4l-15 -55l-18 -27h-8l-11 -10l-63 -12l-35 -4l-41 -11l-2 -8l-12 -4l-8 -12h-9l-4 -6l-10 -2l-6 -11h-8l-29 -26l-4 -15l-10 -10l-29 -57l-14 -47l-15 -41v-9l-16 -26l-21 -62l-22 -57l-8 -35l-27 -51l-4 -51h-4l-21 -60l-4 -4l-6 -32l-10 -29l-31 -55 l-20 -23l-23 -53l-45 -53l-37 -29l-22 -8l-8 -13l-23 -8l-12 -10l-4 -16l8 -27l24 -45l3 -18l8 -3l4 -30l-8 -64l-23 -63l-25 -62l-28 -59l-27 -43v-8l-12 -13l-2 -10h-6l-13 -61l-6 -4l-8 -15l-2 -14l-12 -18l-25 -60l-22 -55l-19 -14l-2 -13l-6 -6l-12 -59l-21 -51v-25 l31 -39l63 -12l41 -15l17 -22v-25l-4 -4v-14l-11 -14l-2 -13l-36 -32l-35 2l-62 -7h-24l-15 11l-63 12l-8 4l-2 6l-13 2l-41 51l-14 29l-8 27v35l10 24v64l23 61l6 4l22 60l25 57l12 31l10 10l2 14l27 41l2 14l12 13l7 24l6 4l12 29l6 4l4 15l17 18l4 14l12 13l6 47l10 12 l2 14l25 43l4 15l10 12l4 16l19 27l8 33l-6 35l-14 26l-2 12l-19 15h-65l-31 10l-14 10l-7 29l9 35l20 26l25 17l12 4l27 -2l4 -4l32 2l62 16l4 10l14 2l25 19l45 53l6 6l2 13l45 51l10 57v31h7l12 55l12 23l6 32l25 62l2 31l8 30l23 47l10 47l10 21l19 68l2 14l28 51l25 62 l8 8l4 14l19 18l6 13l12 10l12 23l13 6l18 18l8 2l4 6l60 35l57 23l31 12l63 2l53 6l19 -2l47 -16z" />
<glyph unicode="|" horiz-adv-x="749" d="M430 1126l-2 -2l6 -30l-2 -66l6 -33l-6 -63l4 -62l-4 -65l6 -6l-6 -23l2 -16l4 -6l-2 -33l4 -12l-4 -33l2 -70v-35l-10 -43l10 -65l-6 -47l6 -33v-66l4 -30l-6 -64l-4 -33l6 -65l-6 -66l6 -63l-4 -64l4 -32l-4 -66l-2 -57l-18 -15l-4 -10l-29 -4l-33 2l-12 12l-10 31 l-2 64v127l2 65l-4 31l4 61l-2 66l2 33l6 22l-6 33v63l4 70l2 64l-6 32l4 66l-4 63l-4 31l2 68v32l8 33l-2 33l-8 31l10 63l-6 64l6 65l4 47l-12 62v131l-2 53l28 51v10l-16 15l-6 26l-2 68v39l-4 29l8 63l12 23l39 30l16 -2l25 -20l10 -27l6 -53l-6 -6v-64l4 -69v-58 l-4 -69l-2 -68l4 -14l-6 -29l10 -61l4 -17l-2 -18z" />
<glyph unicode="}" horiz-adv-x="841" d="M739 1767l2 5l17 8l63 10l10 6l29 2l70 -8l16 -2l25 -12l12 -15l12 -2l43 -49l15 -24l6 -68l-2 -37l-13 -57l-18 -41l-10 -37l-10 -8v-13l-13 -30l-16 -27l-21 -61l-10 -19l-12 -12l-4 -14l-6 -7v-8l-11 -10l-26 -59l-25 -60l-28 -59l-19 -35l-10 -12l-4 -13l-17 -24 l-22 -55l-10 -35l14 -45l37 -31l33 -2l4 -4h18l4 -6l23 -2l22 -27l-2 -35h-6l-8 -24l-23 -25l-14 -2l-10 -10l-66 -4l-63 -23l-51 -41l-48 -45l-12 -12l-26 -60l-19 -55l-6 -61l-12 -29l-2 -18h-7v-9h-4v-10l-6 -4l-2 -14h-6l-14 -60l-11 -28l-4 -35l-18 -47l-6 -35l-21 -62 l-6 -22l-6 -6l-2 -15l-29 -59l-24 -51l-6 -12l-21 -19l-2 -12h-6l-16 -27l-50 -41l-18 -12l-4 -8h-8l-11 -15l-18 -4l-8 -10l-33 -4l-12 -6l-35 -6l-23 -10l-65 4l-51 -4v-5l-17 -2l-16 4l-23 21l-4 18l-6 9l6 4l8 30l19 25l27 25l47 14h22l64 20l14 11l2 6l27 16l8 14 l24 19l5 12l12 8l4 15l24 28l3 13l10 14v8h4v10h4v9h6l4 32l19 47l18 66l18 45l11 10l4 33l28 59l7 33l22 60l4 12l6 6l9 47l28 60l8 30l15 25l47 51l6 14l49 45l55 23l15 8l14 23l2 10l-28 37l-3 14l-14 21l-4 26l8 68l10 65l9 29l10 14l4 19l10 10l8 16l3 15l26 39l8 28h4 l2 25l15 16l4 15l27 39l8 32l10 23l-2 16l6 2v8h4v11h4v10h6v8h4l3 12l10 13l10 30l6 9l4 24l15 15l2 14l16 27l16 55l-2 45l-24 22l-15 2l-2 5l-28 6l-58 4l-6 12l-10 8l-6 17l4 32z" />
<glyph unicode="~" horiz-adv-x="1423" d="M426 537h-4v-5l-25 -2l-22 -20l-15 -6l-26 2l-21 20l-2 13l-14 24v35l27 33l10 2l4 10l14 4l15 15l26 16l15 4l8 12h10v4l31 7l32 12l25 4l18 10l68 2l55 -2l25 -6v-4l33 -4v-4l12 -2l20 -11l66 -16l23 -18h10v-4h8v-7h10v-4h8l15 -10l30 -10l25 -17l49 -6l70 4l51 21 l57 35l29 6l12 -6l45 -54l7 -14v-18l-11 -15l-45 -43l-24 -24l-27 -17l-63 -26l-25 -6l-41 -2l-4 -7l-43 -4h-31l-65 13l-62 14l-63 24l-37 27l-14 4l-25 23l-59 24l-66 -4l-63 -4h-15zM575 637h5v14l-25 15l-2 -7l6 -14zM717 645l-4 -2l6 -12l22 -2v10l-4 6h-20zM604 614h6 l-2 17l-6 2l-4 -15zM498 651l-2 4l-4 2l-9 -4l-2 -6l11 -2zM797 549v-8h10v8h-10z" />
<glyph unicode="&#xa1;" horiz-adv-x="649" d="M379 664l4 -2l-4 -31l-25 -62l-18 -59l-21 -64l-6 -12v-14l-10 -17l-12 -34v-13h-6l-7 -34l-12 -27l-14 -19v-12l-8 -16v-8l-4 -4l-7 -33l-6 -6l-2 -19l-16 -16l-17 -62v-4h-4l-4 -24l-6 -4l-8 -37l-12 -11l-4 -14l-5 -2l-16 -33l-6 -65l-21 -41l-6 -15v-10h-4l-4 -24 l-12 -25l-19 -65l-16 -52l-6 -6l-6 -22l-6 -4v-11l-9 -2l-6 -16l-24 -14l-29 -7l-72 -2h-10l-4 4l-55 13l-11 22l11 45h4v9h4v10h4v8l12 10l6 15l6 4v8l17 39l10 12l8 29l25 41l2 14l25 55l6 4l6 33l28 58l21 57l10 10l4 14l11 11v8h4l6 24l12 13l16 61l29 60l12 24l13 12 l18 60l25 57l6 6l20 60l27 41l18 63l7 17l10 10l14 28l25 21l20 8l21 2l34 -6l15 -8zM555 995v-4l6 -8l2 -16h4v-31l-12 -31l-27 -43l-14 -6l-10 -10l-23 -10l-18 -2v-7l-31 -2l-31 4l-39 17l-24 20l-8 15l-6 4l-15 57l-8 51l16 31l15 12v11l14 4l21 24l65 17l35 -2l37 -11 v-6l31 -16l6 -15h4zM68 6v-4l28 14l4 7l-8 12l-8 -15l-6 -2zM111 129v-10l6 -4l14 8v10l-8 4l-4 -6zM82 -61v4l-12 4l-2 -8l8 -5zM469 967l-2 -4l8 -5l6 9l-10 6z" />
<glyph unicode="&#xa2;" horiz-adv-x="811" d="M770 1370l2 -2l6 -18l-6 -54l-29 -55l-6 -27l4 -16l21 -27l8 -2l39 -32l6 -15l8 -4l2 -12l17 -16v-11l8 -4l6 -24v-39l4 -6v-15h4l4 -59l-6 -72l-2 -33l-14 -49l-4 -4l-2 -22l-13 -29l-22 -25l-14 -8l-33 -2l-13 -8l-18 2l-6 4l-66 4l-8 2l-10 13v32l22 60l21 51l12 61 l4 41l-8 31l-10 8l-16 2l-17 -6l-10 -12l-6 -33l-11 -8l-2 -25l-12 -12l-24 -45l-11 -53l-10 -15v-8h-4l-8 -33l-6 -10l-4 -20l-19 -47l-10 -11v-8h-4v-10h-4v-10h-6l-2 -23l-19 -31l-8 -26l-10 -17l-6 -28l-29 -58l-19 -61v-6h-4l-12 -35l-25 -61l-26 -60l-15 -31l-10 -41 l23 -26l33 2l22 6l10 10l15 2l12 13l33 10l4 8l12 2l4 6l15 8l12 15h8l43 39h8v4h10v4l17 4l16 -2l27 -16l33 -39l4 -17l-2 -16l-19 -25l-55 -41l-47 -35l-43 -24l-23 -6l-12 -13l-33 -10l-16 -10l-23 -2l-6 -6l-24 -4l-2 -6l-66 -9l-35 -4l-28 -14l-19 -27l-22 -63l-11 -31 l-18 -27l-21 -16h-34l-37 12l-11 21l5 31l16 53l18 43l7 35l-7 16l-49 43l-30 39l-3 8l-8 4v10h-4v9l-12 26l-6 35l-6 14h-4l-5 29l5 68l-5 32l2 31l21 62l10 63l2 19l19 43l4 36l24 58l6 4l5 33l26 59l8 21l13 12l12 28v9l10 10l4 14l13 13l6 24l28 37l39 51l15 21l4 12 l22 22l8 15l48 45l102 82l16 6l11 10l34 8l31 15l31 4l33 12l49 43l20 59l11 27l18 31l20 22l25 9l31 -9zM434 922l-4 -4l-10 -5l-2 -12l-12 -6v-10l-9 -4v-9l-12 -10l-2 -14l-39 -55l-16 -19v-10l-13 -10l-4 -17l-10 -14l-8 -29l-12 -12l-2 -12l-29 -64l-12 -14l-17 -64 l-2 -8l-12 -12l-19 -41v-31l-16 -65l-2 -15l-10 -20l-4 -66l-4 -37l4 -32l8 -11l14 -6l25 11l12 36h6l8 29l19 29l24 59l11 33l14 29l16 53l19 49l18 33l21 57l49 119l18 43l15 51h4v10l10 4l6 23l14 20l7 31l14 29l4 33l-4 8l-14 6l-23 -10zM174 676h4v8l-6 6h-12l6 -12z M59 225l-2 -4l21 -4l-2 8l-8 6zM758 909v-14h8v14h-8zM350 936l-4 -8l14 -6l-2 8zM766 805l2 -2h8v8h-12z" />
<glyph unicode="&#xa3;" horiz-adv-x="1273" d="M1053 403l2 -2l8 -26l-2 -10l-6 -5l-8 -32l-19 -43h-4l-23 -47l-26 -56l-12 -12v-10l-7 -2l-18 -29l-43 -43l-25 -23h-6l-45 -47l-28 -16l-41 -2l-48 -27l-24 -4l-66 8l-32 2l-62 19l-63 20l-68 13h-29l-59 -31l-68 -8l-28 4l-35 10l-27 12l-24 23l-17 33l-4 30l6 33 l13 23v6l26 39l49 28l35 13l29 4l63 -6l19 4l26 18l44 53l12 13l2 12l10 4v8h4v11h4v8h4v10h7l10 33l14 18l21 60l14 65l4 4l16 66v33l-4 12l-12 10l-31 6h-37l-32 6l-21 21l-6 12v16l14 31l33 37l62 2l47 12l2 7l22 20l8 31l2 33l17 47l8 34l25 60l12 26l2 15l10 16l21 60 l14 32l16 21l2 12h5l36 53l15 27l33 45l12 2l16 21l15 6l16 20l12 4l10 15l17 2l4 10l12 2l29 16l53 17l49 20l66 -6h47l27 -6l28 -12l4 -9h11l8 -14l12 -2l39 -35l4 -14l12 -8l21 -58l10 -30l-8 -31v-33l6 -35v-30l-14 -66l-13 -29l-22 -24l-25 -17l-69 -6l-39 2l-29 9 l-8 10l-6 16l6 29l16 28l10 46h5v67l-25 49h-8l-4 8l-13 5l-69 -5l-29 -12l-49 -45l-43 -45l-33 -59l-8 -33l-10 -12l-2 -11l-6 -6l-25 -59l-18 -62l-19 -59l-8 -37l4 -26l10 -11l31 -10l63 6l41 -6l39 4l19 -8l20 -27l-4 -34l-18 -27l-21 -16l-26 -11l-72 -6l-68 4l-28 -10 l-23 -25l-14 -28l-6 -51l-6 -5l-5 -22l-8 -12v-9l-6 -4l-4 -32l-16 -43l-6 -2v-11h-5v-8h-6v-10h-4v-8h-4v-11l-18 -22l-17 -29l-6 -16l-6 -6l-2 -13l-12 -10l-7 -16l-16 -17l-37 -51l-14 -18v-33l27 -16l65 -13h70l30 11l52 32l45 49l20 23l25 43v10h4l24 53l15 31l14 21 l31 6v4l14 -4h70zM682 707l-2 -5l14 -8h8l-4 13l7 14l26 18l-6 23l2 6h-14l-4 -18zM643 811v-6l12 -10l7 -27l14 8l4 10l-4 17l-19 20zM375 125l-2 -2l6 -4l4 -10l29 10l12 -4v8l-12 8l-19 2l-16 -4zM258 123v-4h10l17 14l-9 17l-8 4l-8 -4zM340 125l2 -2l14 8l2 19l-4 6 l-14 -2l-4 -9zM299 147v-6l14 -4l9 4l6 13l-2 8l-9 4zM641 686l-4 -2l4 -16l21 -11l4 7l-2 8l-13 14h-10zM608 725l2 -4l8 2l11 31l-17 -6l-6 -17zM713 979v-6l18 -10v18l-10 10zM199 111l-2 -2l2 -9l14 -4l8 4l-6 13l-8 2zM621 842l8 -4l8 20l-8 8l-8 -12v-12zM702 1038 l5 -2v11l-11 8h-8l8 -15zM623 545h6l-2 8l-9 6l-4 -6l2 -6zM262 82v-4h10l2 8l-8 4zM344 178l-2 -4l12 -4l-2 10l-6 4zM645 582l-2 -4l8 2l6 8z" />
<glyph unicode="&#xa4;" horiz-adv-x="1165" d="M1036 1139l2 -4l-6 -35l-6 -13l-6 -4v-8h-6l-2 -16l-13 -6l-2 -13l-49 -43l-18 -18l-8 -21l2 -14l28 -59l15 -33l12 -61l6 -64v-31l-16 -90l-6 -4l-11 -31l-12 -16l-14 -47v-16l16 -27l45 -43l27 -21l26 -36v-27l-30 -37l-17 -8l-14 -2l-27 12l-45 47l-49 45l-24 15 l-29 -2l-31 -19l-16 -4l-13 -10l-28 -4l-12 -11l-64 -6l-61 -4l-68 12l-31 7l-63 30l-43 13l-17 -4l-47 -46l-39 -43l-26 -22l-25 -8l-18 4l-25 18l-16 31l2 18l14 27l21 25l24 16l49 49l13 35l-4 10l2 17l-7 2l-2 16l-32 59l-11 9v16l-6 25l-4 69l-2 27l4 37l19 61l28 55 l6 33l-6 35l-90 94l-10 10l-6 15l-2 18l8 21l12 2l6 8l29 12l29 2l45 -41l49 -47l10 -16l29 -8l43 14l12 12h10v4h9l20 11l64 14l61 8l68 -4l63 -20l12 -2v-5l33 -10l17 -12l26 -10l31 4l2 6h8l8 12l49 47l46 43l4 4h36zM578 958h-5l-41 -10l-6 -6l-22 -6l-8 -10l-33 -11 l-23 -18l-20 -25l-29 -59l-2 -12l-6 -4l-6 -68l6 -57l6 -21l4 -2l4 -24l11 -9l12 -26l53 -45l29 -21l55 -14l33 -6h69l41 16l54 41l24 19l8 18l13 12l8 23l6 6l14 57l4 70l-2 12h-6v15l-4 4l-8 32l-33 43l-20 25l-43 31l-6 6l-62 20h-8l-4 4l-47 5z" />
<glyph unicode="&#xa5;" horiz-adv-x="964" d="M768 967l-8 -17l18 -26l66 -2l14 -4l23 -19l-2 -35l-21 -41l-24 -20l-64 -4l-33 -2l-65 6l-29 -17l-22 -22l-23 -45l6 -14l10 -9l15 -4l69 2l66 -8l24 -22l-8 -35l-14 -27l-25 -22l-22 -11l-37 -4l-64 4l-49 2l-12 -6h-37l-28 -6l-29 -20l-21 -60l-6 -6v-10h-6l-8 -23 l-10 -8l-9 -29l-14 -28l-8 -41l-6 -4l-4 -33l-15 -25l-4 -16l-10 -10l-20 -64l-19 -59l-10 -12l-4 -15l-10 -12l-7 -29l-4 -4v-14l-18 -23l-25 -12l-69 -8l-2 -4l-33 6l-21 14l-4 10l2 39l11 47l20 23l8 31l2 24l8 21h7v8h4l14 51l16 29l2 12h5l16 64l27 37l4 16h4l8 51l6 4 l21 60l-5 10l-12 12l-14 6l-64 -2l-24 8h-66l-16 4l-25 19l4 51l11 8l4 15l18 18l55 10l66 -4l74 -2l22 4l23 19l10 24l-4 35l-19 19l-28 8l-74 4l-33 4l-22 18l-6 15v28l14 25l27 22l65 3l62 12l20 16l8 27l6 69v33l13 66l4 67l2 66l6 59l2 49l4 11l-2 37l25 36l63 7l49 -3 l25 -16l8 -10l8 -21l-6 -59l-6 -68l-8 -61l-6 -66l-9 -30l-2 -68l-4 -41l-6 -6l-4 -68v-14l-4 -6l2 -14l12 -11l17 -2l14 9l35 55l31 47l6 14l18 19l4 14l8 4l35 53l13 13l4 14l10 4l4 14l41 52l8 14l6 4v8h6v10h4v9h5l2 12l20 27l2 10l27 24l6 17l14 10l2 12l33 47l23 27 l43 18l69 7h33l29 -13l10 -12l4 -33l-8 -14l-8 -4l-7 -17l-14 -10l-37 -53l-6 -12l-29 -29v-10l-18 -13l-2 -12l-33 -35l-2 -14l-10 -4l-2 -12l-33 -43l-41 -50l-2 -12l-18 -14v-6l-29 -31v-8zM467 664h-4l-8 -19v-31l12 -16h6v20l14 31l19 -2l8 -10l10 2v10l-14 17z M424 801l-2 -4l29 -13h8l4 7l-2 10l-15 8h-14zM455 760v-4h12l12 14l2 8l-18 -2zM367 637l4 -2l4 6l-2 14l-13 4l-4 -8zM627 852l4 2l-6 12h-13l2 -16zM510 1225v-15h14l-6 13z" />
<glyph unicode="&#xa6;" horiz-adv-x="749" d="M414 -254l-2 -4l-31 2l-33 16l-10 13l-8 26l-4 70l4 70l-8 32l-3 29l9 63l-2 66v64l2 32l-9 64l5 61l-5 33l13 66l-8 63v66l18 26l25 17l22 2l31 -17l10 -12l6 -16l-2 -33l-8 -33l2 -63l-2 -21h-4l-2 -31l14 -63l-4 -64l6 -63v-68l-10 -61l-2 -35l10 -18l-4 -50l4 -32 l4 -6l-6 -31l4 -66l-8 -67l-2 -17zM365 1714h4l20 2l25 -10l14 -20l10 -62l-4 -33l6 -61l-2 -35l-12 -61l4 -64v-67l4 -56l-4 -8v-63l4 -70l-4 -62l4 -63l2 -33l-6 -28l2 -29l-6 -2l-2 -17l-18 -30l-17 -8h-18l-27 16l-10 24l-10 52l4 49l10 45l-4 16l-10 15l4 65l-4 31 l4 65l4 64l-10 63l-3 68l3 66l8 65l8 64l-4 32l-10 25v12l14 29l14 6l4 6zM414 1718l-25 -2l-6 2h31z" />
<glyph unicode="&#xa7;" horiz-adv-x="1001" d="M727 1122l2 4l-10 17l-12 10l-29 6h-23l-28 -8l-27 -14l-22 -23l-15 -20l-14 -31l-12 -68l6 -47l18 -37l43 -51l29 -18l8 -13l25 -16l51 -47l41 -47l22 -55l25 -62v-70l-8 -40h-4l-9 -29l-6 -4l-6 -29l-12 -12l-12 -27l-15 -14l-2 -12l-43 -43l-12 -5l-4 -6h-8l-5 -10 h-10v-4h-8v-4l-61 -25l-27 -20l-16 -27l-23 -51l-20 -66l-41 -49l-2 -4l-15 -4l-14 -24l-60 -27l-28 -16l-33 -7h-31l-30 -6l-56 8l-41 17l-4 8l-12 2l-43 39v8l-23 23l-26 55l-2 16h-4v66l2 49l30 51l27 29h10l2 8l27 12h63l15 -2v-4h8v-4l12 -2l21 -27l14 -30l8 -29 l-2 -37l-14 -28l-41 -41l-6 -17l2 -10l12 -14l14 -7h31l35 7l49 26l17 25l18 41l6 65l-4 33l-29 59l-43 48l-51 39l-16 16l-15 4l-10 14l-26 21l-7 18h-4l-16 21v10h-6v8l-23 43l-14 64l4 61l12 66l17 41l35 47l28 24l4 13l17 8l8 14l12 2l57 37l29 10l31 23l16 57l13 33 l32 55l4 15l11 10l6 14l24 27l29 24l14 8v5l62 18l63 12l66 -8l57 -12l23 -17l14 -4l25 -24l24 -35l4 -14l13 -13l16 -47v-22l4 -6l-6 -66l-6 -31l-6 -6l-13 -29l-20 -26l-25 -19l-32 -12l-29 -4l-57 16l-25 23l-2 10l-10 15l-6 26v37l12 31l43 51zM360 846l-4 -2l-16 -6 l-10 -15l-11 -4l-24 -39l-10 -65l2 -43h6v-8l8 -19l10 -10v-8l19 -15v-8l22 -18l37 -43l19 -8l47 -48l37 -47l14 -20l8 -2l10 -10l13 -5l28 11l27 20l20 25l17 30l12 62v16l-12 31l-2 16l-31 43l-16 21h-9l-45 43l-12 12l-14 6l-23 25v6l-20 16l-2 13l-39 43l-13 2v6h-10v4z M326 487v-4l14 -4l35 8v15l-10 10l-3 8l-14 4l-6 -16zM287 545l-4 -2l2 -8l12 -11v-4h-10l-8 -10l10 -4l6 4h10l2 27l-8 10zM229 653h2l11 11l-2 8l-17 10l-6 -12zM240 575h6l-2 9l-13 12l-8 2l8 -20zM252 629l4 -2v22h-14v-10zM213 707v8l-4 4h-14l-2 -8l14 -6zM180 645v-4 l8 2l7 16l-13 -6zM690 692h-4v-10l4 -2l6 4l-2 12h-4v-4z" />
<glyph unicode="&#xa8;" horiz-adv-x="727" d="M244 1450h6l4 6l18 2l31 -8l23 -12h6l39 -43l10 -58l-2 -39l-10 -22l-21 -29l-8 -6l-12 -2l-56 -25l-16 -2l-25 7l-8 6l-18 4l-43 49l-4 14h-4l-4 29l4 51l14 25l25 24l4 9l26 16zM575 1444l5 2l4 4l53 -4l20 -8l25 -19l14 -6v-8l19 -29l8 -26v-37l-8 -25h-4l-11 -31 l-24 -22l-31 -12l-37 -6h-30l-27 12l-23 18l-32 53l-9 35l7 23l30 57l11 15l26 12zM571 1337l-2 -2l13 -12v-8l20 -12l14 -23h9l14 12l-21 11l-2 8l5 10l-19 12v17zM653 1350h4l-4 16l-8 2l4 -16z" />
<glyph unicode="&#xa9;" horiz-adv-x="1441" d="M1325 868l4 -2v-32l6 -41l15 -23l-2 -25l6 -4l-4 -63l4 -33l-11 -65l-8 -56l-6 -6l-8 -33l-18 -43l-7 -2v-10h-4l-18 -59l-12 -11l-11 -22l-18 -14l-16 -25l-13 -31l-14 -14v-8l-45 -47l-51 -41l-43 -37l-19 -12l-10 -15l-12 -2l-4 -8h-11l-8 -12l-24 -6l-9 -11l-57 -20 l-4 -6l-16 -4l-7 -7l-86 -28l-71 -8l-4 -5l-60 -6l-67 -4l-66 8l-63 17l-31 10l-6 6h-8l-21 15h-8l-8 10h-11v4l-28 14l-21 17l-10 2v4l-53 32l-12 15v6l-29 31l-17 26l-22 27l-2 12l-6 2l-6 27l-15 27l-20 57l-13 61l-6 70l6 65l5 64l6 53l8 8l16 54l23 59l35 59l4 15 l33 37l12 20l6 2l2 12l20 17l3 12l26 21l43 47l74 61l57 31l51 31l64 24l29 15l55 10l31 4l4 4l28 4l4 4h33l15 6l22 -6l66 2l22 -2l4 -4l33 -2l29 -6l43 -17l14 -2l43 -20l16 -2l13 -8l4 -9h10l4 -8h10l4 -10h9l4 -6l12 -4l39 -39l10 -2l4 -8l11 -4l2 -13l39 -39v-10l14 -8 l2 -12l14 -25l6 -18l7 -6v-9l22 -32v-9zM748 1090h-3l-63 -15l-66 -20l-18 -6l-6 -7l-14 -2l-17 -8l-10 -12l-14 -4l-23 -19l-29 -10v-4h-8l-90 -90l-27 -23l-38 -53l-3 -10h-6v-10l-8 -4l-4 -15l-10 -8l-2 -12l-13 -13l-10 -18h-4v-8l-10 -14l-23 -60l-10 -31l-6 -65 l-4 -72l2 -63l2 -25l8 -33l12 -28l7 -27l12 -12l6 -21l12 -8l35 -55l33 -29l18 -10l11 -12l18 -13l14 -4l4 -6l37 -14l13 -13l57 -18l72 -8h71l58 10l30 4l13 6l32 4l37 9l11 10l22 8l10 10h8l56 35l53 37l14 4l4 8l15 6l4 7h8l43 49l45 49l12 10l27 45l4 14l27 33l6 21l4 2 l14 53l23 61l8 68l6 66l-2 26l-18 64l-13 67l-12 25l-6 6v8l-10 6v9l-21 16l-2 12l-45 49l-49 41l-14 4l-13 11l-65 18l-59 23l-70 8h-14l-5 -6l-67 -2zM842 670l-4 2l18 98l-2 29l-16 20l-15 6h-30l-41 -24l-13 -13l-12 -4l-8 -16l-21 -16l-28 -56l-29 -59l-23 -59l-2 -9 l-12 -10l-4 -33l-18 -61l-4 -66l2 -12l32 -39l27 -8l31 -2l35 8l26 16l14 5l13 12l24 14l45 49l25 21l16 8l21 2l33 -18l-4 -37l-15 -27l-43 -47l-20 -27l-11 -2l-10 -12l-8 -2l-37 -29l-14 -4l-4 -8l-13 -2l-6 -6l-53 -16l-63 -7l-43 2l-31 15l-21 8l-24 20l-19 25l-2 12 l-14 25l-12 59l-6 35l6 66l18 63l12 57h4l7 33l26 53l33 58l16 26l45 50l21 28l16 17h9l20 22l18 4l33 23l27 6l14 8l57 4l68 -6v-4l29 -16l22 -23l17 -25l12 -32l8 -64l-8 -30l-4 -35l-10 -33l-19 -16l-65 -13l-11 -2z" />
<glyph unicode="&#xaa;" horiz-adv-x="872" d="M866 1432l4 -2l9 -31l-11 -33l-10 -57l-6 -6l-8 -27l-17 -29l-14 -16l-4 -14l-8 -11l2 -20l-23 -58l-8 -32l-18 -23v-8h-4v-10l-13 -11l-6 -30l-6 -6l-2 -33l-29 -55l-24 -64l-15 -61v-9h-4l-10 -47l25 -32h32l31 6l33 -13l16 -22l2 -16l-8 -19l-20 -18l-64 -19l-67 4 l-33 11l-27 16l-20 25l-15 26l-10 8l-14 2l-43 -20l-4 -8l-45 -31l-60 -29l-18 -6h-15l-4 4l-34 4l-35 -2l-51 35l-31 35l-15 33l-2 22h-4l2 66l4 67l11 62l8 22h4l8 62l21 57l24 62l6 22l11 10v13l14 30l14 21l11 31l10 12l16 41l43 51l43 55l21 19l45 26l14 4l6 7l12 4 l13 10l59 12h19l26 -10l19 -2l18 -14l12 -5l47 -51l17 -26l14 -7l23 -2l20 9l21 22l14 4l10 8l25 9zM578 1360h-15l-26 -12l-54 -48l-41 -51l-32 -55l-29 -59l-25 -62l-6 -14l-10 -8l-16 -64l-21 -57l-2 -33l-12 -70v-47l12 -20l31 -25l30 4l35 15l27 16l43 49l25 21l12 20 l12 8l25 56l28 57l23 59l14 29l19 59v7h4v8h4v10l12 12l19 58v71l-9 17v8h-4l-2 12l-39 31l-26 4zM604 942l-4 2l2 -8l10 -10h25v26l-8 6l-11 -14zM653 1034l2 -2l15 6l10 17l-21 10l-6 -2v-29zM614 780h4l7 -8l4 19l-25 4l2 -9zM543 848l-2 -2v-8l22 -7l-6 15l-6 4z M543 762h6v10l-6 4l-6 -6zM707 1092l-5 -9l11 -6l4 10z" />
<glyph unicode="&#xab;" horiz-adv-x="1476" d="M1270 891l2 -2l2 -19l-21 -43l-8 -41l-6 -4l-4 -14l-47 -43l-55 -25l-56 -38l-59 -31l-27 -15l-53 -41l-29 -16l-18 -22l-2 -15l16 -33l39 -51l41 -51l16 -27l21 -22l14 -25v-37l-12 -20l-2 -16l-21 -27l-36 -8l-25 18l-35 35l-16 27l-43 43l-2 8l-39 47l-51 45l-47 55 l-7 6l-4 13l2 35l19 43l2 10l41 47l6 6l14 4l13 10l30 11l27 20l14 4l10 13l27 12l29 20l14 4l6 7l13 4l30 24h11v6l26 13l6 6l23 6l10 12l59 25l58 37l31 12l18 14h8zM805 899l4 -2l2 -25l-14 -26l-13 -58l-10 -12l-8 -4l-4 -14l-27 -17l-24 -22l-56 -33l-20 -8l-12 -10 l-9 -2l-51 -35l-24 -19l-19 -6l-59 -41l-21 -20l-8 -33l6 -4l2 -14l11 -9v-10l14 -8v-10l10 -4v-11l8 -4v-10l25 -22l10 -21l14 -8l3 -12l10 -5v-10l8 -4v-10l12 -8l6 -33l-18 -55l-6 -15l-23 -16h-22l-33 20l-12 23l-23 20l-41 50l-43 49l-45 49l-41 51l-16 27l-4 39l-6 16 l6 6v6l18 29l37 43h8v6l43 19l45 24l56 37l28 20l43 19l13 10h10l4 10h8l10 11l15 2l22 18l47 18l8 15h11l4 10l12 2l25 16l61 31l16 2l15 -4zM340 584v-6l29 -19l4 6l14 6l-2 9l-20 14h-15zM834 586l-3 -4l7 2l8 -11l14 5v10l-14 12zM387 457h4l15 16v6h-25l2 -16zM365 512 h4v14h-15v-8zM862 465l-2 -4l12 -4v8l-8 6z" />
<glyph unicode="&#xac;" horiz-adv-x="1183" d="M164 666l4 2l4 4l68 2l65 -4l62 -2h131l65 -4l66 4l63 4l64 -2l69 -2l11 -6l12 6l65 -4l64 6l16 -6l23 -23l6 -29l-10 -37l-6 -4l-13 -43l-12 -12l-4 -33l-12 -28v-11h-4l-5 -24l-10 -12l-6 -17l-6 -4l-2 -12h-4l-13 -31l-6 -6v-8l-12 -25l-8 -37l-17 -28l-22 -23l-12 -6 l-70 4l-31 8l-16 21v28l16 54l11 10l8 31l14 32v9l25 47l2 22l-19 23l-18 8l-68 -6l-65 -2l-66 4l-63 6l-62 -8l-33 4l-34 -4l-58 6h-67l-72 -4h-29l-30 10l-21 18l-2 23l8 33l37 57l12 14zM299 567l2 4l-12 9h-10v-15l14 -4zM403 575v-4l17 2l2 11l-16 -2zM440 575h4l5 7 l-3 8l-6 4l-4 -8z" />
<glyph unicode="&#xae;" horiz-adv-x="860" d="M598 1495h4l4 4h72l61 -12l58 -19l49 -26l49 -43l18 -15l5 -14l10 -4l4 -14l8 -4l6 -15l8 -4v-10h4v-8l21 -43l16 -41v-25h6l7 -59l-7 -68l-10 -67l-22 -58l-33 -61l-16 -27l-17 -16v-6l-47 -49l-35 -46l-10 -10l-14 -4l-52 -37l-34 -22l-58 -21l-14 -10l-25 -8l-63 -4 l-68 -8l-65 2h-15l-6 6l-59 20l-62 29l-24 14l-49 49l-43 52l-13 34l-4 4l-6 68l-18 53l-6 33l4 70l18 65l4 17l25 37l20 55l2 8l21 25l31 49l53 49l10 10l14 4l50 41l28 19l29 10l2 4l59 27l64 14zM713 780h18l10 11l15 4l45 45l43 47l18 24v9l17 26l26 62l4 12l4 2l13 63 v74l-6 45l-13 27l-2 14l-26 60l-25 22l-20 27l-39 35l-54 20l-61 10l-66 8l-59 -14l-59 -18l-4 -6l-33 -9v-6h-10v-4h-9l-10 -10l-29 -17l-51 -43l-49 -40l-18 -25l-17 -31l-12 -10l-4 -14l-12 -13l-5 -16l-20 -27v-10l-12 -12l-8 -29l2 -65l2 -68l14 -66l14 -24l4 -14 l13 -11l16 -30l39 -41h8l4 -11h10l5 -8l32 -10l15 -8h8l6 -6l66 -13h73l23 4l20 17l6 31l2 59l15 70l8 51l-6 31l-10 14l-13 6l-14 -2l-16 -10l-2 -13l-13 -18l-12 -29l-6 -6l-21 -57v-8l-8 -11l-31 -14h-38v6l-13 2l-12 15l-4 30l14 45l10 9l19 59l20 37l11 24v33l-4 10 l-15 2l-24 -16h-25l-23 23l-2 22l-6 16l15 62l14 45l10 12l4 15l47 41l58 34l28 13l62 4l65 -8l56 -19v-6h12l25 -25l32 -55l9 -12l10 -47l-4 -45l-9 -27l-14 -29l-29 -39l-28 -18l-21 -27l-6 -14l8 -63l2 -35l-8 -70l2 -12zM666 1112l2 2l18 43v35l-12 29l-23 20l-30 6 l-19 -2l-2 -12l6 -14l19 -21l-4 -33l-17 -39v-22l12 -17l15 3zM492 1217h-7l-20 -27l-10 -29l-2 -16l4 -15l14 -6l10 2l27 58l6 14v10z" />
<glyph unicode="&#xaf;" horiz-adv-x="757" d="M211 1288l-2 2l-6 2l-8 25l6 39l18 24l12 11l62 16l65 -6l64 6l63 -4l70 -6l63 4h46l4 -4h16l33 -21l6 -22l-8 -27l-35 -33l-25 -10l-69 -8l-64 4l-30 2l-33 -6l-62 4l-65 -4l-66 -2l-35 4z" />
<glyph unicode="&#xb0;" horiz-adv-x="653" d="M471 1497h4l4 4l66 -8l63 -12l58 -33l28 -18l35 -39v-11h4l10 -24l17 -19l16 -30l10 -64l2 -33l-12 -65l-4 -25l-6 -4l-8 -14l-4 -25l-6 -2v-10h-5l-10 -25l-51 -45h-8l-10 -12l-13 -2l-24 -23h-9v-4l-53 -16l-59 -8h-70l-4 6l-63 20l-27 19l-12 4l-43 43l-19 25l-12 28 l-8 4v8l-10 11l-5 14l-10 8l-4 43l-4 66l4 35l21 63l6 12l6 4v9l22 24l15 23v6l22 27l56 28l24 17l15 2l8 6zM344 1272v-2l-6 -13l6 -63l4 -4l12 -51l13 -9l4 -14l18 -18h11l8 -15h10l4 -8l25 -4l8 -6l65 -6l9 2v4l28 4l51 39l23 25l16 28l6 29l3 39l-5 33l-22 41l-23 16 l-26 29h-11l-12 14l-71 6l-27 -2l-31 -10l-28 -19l-48 -45z" />
<glyph unicode="&#xb1;" horiz-adv-x="1179" d="M1036 680l4 -2l-2 -33l-16 -37l-2 -16l-8 -2v-8h-4l-2 -13l-17 -16h-10l-4 -6l-27 -6l-37 -2l-61 8h-66l-67 -4l-62 -4l-39 -31l-2 -14l-6 -5l-2 -16l-14 -24l-53 -123l-17 -25l-22 -10l-39 -8h-66l-22 20l-4 8l2 31l18 53l6 6l2 23l11 12l10 35l14 31l-2 18l-10 12 l-14 9l-29 -2l-4 6l-64 2h-63l-53 -6l-62 6l-14 10l-4 12l-4 2l2 27l12 29l6 28l14 19l47 33l66 -5l61 -2h70l62 7l38 -2l25 14l18 16v8l25 58l23 63l22 51l12 9l6 14l27 20l66 11l32 -2l11 -6l20 -29l4 -14l-8 -33l-10 -19v-10l-10 -10l-2 -15l-9 -14v-8l-16 -29l-2 -18h-6 l-4 -19l8 -26l12 -10l62 -7l67 2l64 3l65 -3h23zM827 143l13 -12l-4 -49l-11 -27l-16 -26l-14 -4l-4 -9l-31 -10l-53 -8l-72 -4l-66 4l-127 -4l-67 4h-68l-63 2l-33 2l-64 -6h-133l-61 4l-29 16l-12 23l6 41h4v10h4l11 27l22 24l23 17l24 6h211l62 -4l65 -4l66 4h63l68 2 h127l28 2l60 -8l6 4h35zM590 600v-4l43 -10l-2 10l-13 18l3 13l-11 -2l-12 -11zM291 39l2 -4h8l10 12v19l-8 6l-14 -23zM475 633h-6v-15l6 -2l19 7l12 10l-6 4zM201 57v-4l26 -2l11 6v4l-27 2zM575 571h7l-7 15l-12 10l-4 -10l8 -13zM604 659v-4l12 4l2 9l-6 10l-6 -2z M311 86h11v8l-7 4l-6 -4zM483 553l-4 -8l15 -6l-2 8z" />
<glyph unicode="&#xb2;" horiz-adv-x="602" d="M227 825v-4l21 -18l28 -4l70 4l35 -4l29 -13l6 -6l4 -32l-6 -29l-13 -10l-2 -15l-41 -20l-51 -8l-78 2h-67l-62 4l-63 -4l-21 8l-34 2l-27 16l-2 8l18 64l43 49l17 27l22 22l31 17l10 12l31 16l20 25l13 4l51 45l6 2l18 21h7l10 14l29 18l34 35v8l25 23l12 20l53 41l11 9 v8l8 4l14 33l19 28l16 62l12 49l-12 28l-22 21l-31 8l-29 -6l-49 -37l-21 -18l-2 -13l-10 -10l-12 -33l-6 -28l-6 -4l-11 -21l-16 -12l-18 -2l-11 -6l-47 6l-14 10l-6 12l-4 25l12 65h4v11h4v10h4v8l35 53l43 43l31 19l14 4l8 10h8v6l15 2l14 9l66 12l67 -4l31 -10l27 -15 l4 -8l14 -6l37 -39l10 -31l10 -59l-8 -70l-14 -39l-2 -16l-6 -4l-11 -31l-12 -16l-2 -15l-43 -51l-33 -45l-14 -2l-39 -51l-20 -25l-52 -43l-36 -35l-13 -4l-47 -45l-33 -32zM526 1257l9 5v8l-11 10h-4l-4 -14zM537 1321l-2 -4l10 -4l8 10l-10 8z" />
<glyph unicode="&#xb3;" horiz-adv-x="622" d="M467 1114l-2 -4l12 -37l12 -8l17 -49v-19l4 -8l-6 -33v-32l-12 -52l-5 -4l-2 -22l-6 -6l-6 -17l-10 -10l-29 -45l-12 -10l-19 -29h-8l-26 -20l-56 -29l-6 -6l-24 -4l-11 -6l-30 -5l-4 -4l-33 -4l-66 8l-37 7l-10 10l-22 8l-41 51l-19 62l-4 28l6 66l6 33l15 26l14 17 l66 4l20 2l25 -17l2 -36l-17 -56l-2 -41l29 -45l12 -2l4 -4l29 -4l35 2l43 25l8 14l35 35l4 16l14 29l19 61l4 35l-15 31l-22 22l-25 17l-30 6l-15 8l-18 27l6 32l12 29l9 10h8l6 11l65 10l37 14l8 12l21 9l4 8l25 16l39 49l8 29l-2 21h-6l-9 30l-22 23l-17 8h-34l-29 -12 l-19 -17l-10 -4v-8l-12 -10l-31 -58l-8 -12l-12 -6l-6 -8h-41l-27 -4l-25 6l-16 22l4 29l31 64l10 22l8 4v8l43 43l56 37l59 13l35 10l29 4l67 -12l31 -11l10 -12h10l8 -12l15 -6v-11l22 -22v-21l11 -34l4 -35l-6 -62l-11 -26l-16 -21l-4 -14l-29 -37l-47 -35l-27 -18z M332 1073l-2 -4l6 2l16 25l-18 4zM358 1077v-4h9l4 14h-9z" />
<glyph unicode="&#xb4;" horiz-adv-x="757" d="M604 1470l25 -24l-15 -31l-43 -49l-47 -43l-24 -16l-47 -43l-21 -25l-12 -2l-23 -23l-41 -16l-34 -8l-13 2l-30 27l-5 16l2 20l11 7v10l14 8l6 14l25 21l2 14l26 19l7 14l14 12l12 25l47 45l21 12l43 2l4 6l61 9z" />
<glyph unicode="&#xb5;" horiz-adv-x="987" d="M94 137l19 -18l65 16l55 33l43 49l48 49l38 51l15 19l12 29l10 10v8l35 51l31 58l29 59l20 61l27 58l22 55l4 14l11 15l8 32l26 60l25 59l18 53l11 19l18 61l14 21l29 6l64 6l34 4l31 -10l14 -10l7 -31l-19 -57l-8 -27l-10 -10v-8h-4l-13 -27l-6 -6v-10h-4l-14 -45 l-11 -11v-14l-6 -6l-2 -12h-4l-8 -31l-6 -10l-4 -29l-29 -55l-14 -19v-14l-6 -6l-7 -27l-24 -59l-27 -62l-26 -59l-19 -58l-16 -30l-17 -64l-14 -59l-2 -19l-6 -10l4 -35l16 -26l27 -13l18 -4l33 9l27 12l49 43l47 45l43 47l16 18v11l9 4l6 14l20 14l2 13l9 4l6 14l12 10 l6 15l14 8l5 14l22 25l10 22v9l35 51l10 10v10h4v8l29 27h17l28 -16l21 -25l2 -16l-11 -31l-16 -31l-8 -24l-10 -4l-2 -17l-17 -12v-8l-35 -53l-24 -31v-10l-6 -2l-41 -52l-17 -18l-4 -12l-20 -19v-8l-47 -43l-47 -47l-27 -21l-8 -14l-21 -4l-2 -8l-10 -2l-6 -11h-8l-6 -6 l-15 -4l-12 -10l-23 -6l-10 -10l-33 -2l-57 -9l-68 7l-28 12l-35 26l-2 13l-21 24l-22 45l-21 11l-26 -13l-51 -41l-25 -26l-8 -2l-10 -13l-25 -6l-12 -10l-33 -6l-29 -12l-35 -7l-57 7l-33 8l-26 -19l-25 -43l-10 -12v-14l-10 -17l-6 -26l-9 -11l-14 -45l-16 -49l-23 -41 l-6 -22l-6 -6l-6 -29l-23 -47l-16 -2l-21 -8l-55 -5l-16 -6l-52 15l-8 10l-8 4l8 64l15 34l30 56l8 30l23 60l29 63l22 60l17 26v8l24 60l8 12l19 62l4 14l10 12l4 17l6 8v8l17 29l4 24l14 27l8 33l13 12l22 57l23 60l10 18l4 29h4l21 51v8l10 23l4 2l14 51l4 8l9 4v10l10 9 l4 14l10 14l4 33l4 4l13 45l22 31l4 18l6 6l7 29l12 29l10 14v8l10 11l11 53l10 35l14 16l4 12l25 23l28 14l33 -6l66 -2l14 -4l21 -25l2 -12l-11 -35l-24 -57l-29 -57l-22 -64l-25 -55l-23 -58l-24 -59l-6 -16v-11h-4l-4 -22l-13 -19l-2 -14h-4l-18 -51l-4 -14h-7v-9h-4 l-20 -61l-31 -49l-33 -123l-8 -41l-6 -4l-2 -23l-6 -18zM403 227l-4 -2l-14 -8l6 -4l19 4l10 14l16 9l-6 4zM489 309l3 -4h8l6 6v13l14 8l-18 4zM-2 225l-2 -4l6 -4l16 2l7 4v13l-17 -3zM516 412h-6l2 -9l18 -6l9 15l-11 4zM-78 90v-4l6 -2l27 20h-23zM-35 43l4 2l-39 14 l2 -6l15 -10h18zM-18 137h6v19l-11 -2l-4 -7zM571 518h-4v-10l8 2v12h-4v-4zM528 272h-4v-10l8 2l3 12z" />
<glyph unicode="&#xb6;" horiz-adv-x="1320" d="M565 -133l-2 4l10 29l45 47l3 6l26 20v11l8 4v10h4v8l11 10v9h4l24 57l27 57l18 62h5v10h6v8h4v10h4v9h4l20 55l27 61l21 60l22 47l25 61l6 27h6l12 45l19 57l6 4l22 62l6 10l5 18l32 54l13 24l6 37l6 4l2 10l12 9l19 55l6 33l12 28v27l-10 12l-12 6l-66 5l-33 -2 l-32 -13l-31 -26v-15l-25 -53l-28 -61l-17 -43l-12 -41h-6l-23 -66l-31 -51l-18 -62l-25 -59l-24 -63l-8 -29l-13 -29l-14 -24l-20 -64l-9 -31l-10 -10l-2 -16l-6 -6v-15l-10 -8l-8 -29l-9 -14l-2 -12h-4l-20 -64l-11 -30l-10 -13l-2 -14l-10 -14l-2 -23l-6 -6l-8 -31 l-15 -24l-4 -19l-12 -10l-12 -29l-45 -49l-25 -22l-25 -17l-32 -10l-33 -2l-33 18l-8 13v28l20 27l47 45l7 6l2 13l8 2l20 61l17 29l6 22l6 4l12 39l13 13l20 57l23 61l10 31l10 8l8 29l8 12l21 60l4 12l-23 26l-36 5l-64 -5h-31l-55 13l-65 14l-25 14l-25 23l-38 49v8h-5 l-2 13l-10 10l-2 14h-4l-6 98l4 33l16 64l25 57l20 27l7 14l40 47l41 53l21 25l27 18l18 19h10l8 14h11l4 10l14 2l53 31l21 12l43 17l33 10l61 10l35 11l65 -5h62l14 -4l39 4l21 7l77 -2l64 -5l63 5l60 4l67 -4l64 -2l65 4h33l33 -21l4 -16l-6 -31l-15 -31l-18 -24l-31 -13 l-45 -4l-24 -16l-19 -29l-18 -61l-29 -49l-6 -31l-10 -25h-4v-10h-6v-8h-5v-10h-4v-8h-4v-11h-6l-6 -30l-6 -11v-14l-8 -12l-2 -11h-5v-10h-6l-6 -30l-14 -29l-2 -15h-4l-19 -57l-16 -33l-4 -20l-6 -6l-2 -13h-4v-10h-5l-8 -28l-16 -27l-8 -33l-9 -14l-2 -12h-4v-11h-4v-10 l-4 -2l-6 -20h-4v-9h-4l-21 -53l-4 -22h-4v-9h-4l-2 -12l-21 -43l-4 -14l-14 -19v-10l-10 -8l-10 -31l-15 -65l-12 -33l-12 -21l-4 -14l-41 -49l-45 -49l-29 -21l-53 -14h-11l-18 8zM330 768h-4l-4 2l-5 -8l33 -23l23 9l-4 -31l14 -4l18 4l9 8l-9 10l-4 35h-51zM362 915v-22 l-28 -14l-2 -19l8 -10l33 8l26 16l7 19h-27l-6 4l10 18v11l-14 4zM659 887v-4l-22 -19l-4 -4v-18l-4 -4l-19 4l-10 -4v-11l10 -10l15 4l8 8l14 5l12 -3l15 27l6 33l-2 10l-8 4l-6 -2zM809 1073v4l-16 4l-15 -6l-10 -12l-2 -8l6 -15l23 -14l6 2l6 12zM494 739v-4l14 -18 l29 12l8 12v17h-33l-12 -8zM406 799v-4l40 -15l-2 19l-16 32l-14 7zM670 680v4l-13 8h-10l-24 -20l2 -8l26 -13l17 2zM305 659l-2 -4v-8l10 -10l-4 -16l2 -9l15 -10l10 2v10l-10 19l10 18l-2 8l-6 5h-17zM700 989l-2 4l-14 21l-16 4l-9 -4l13 -23l22 -20l17 4l-2 10z M510 791l2 -5l41 5l6 8l-4 4l-29 -8l-10 14v27l-8 6l-8 -25zM238 711v-4l18 -5l10 5l-12 28l-6 4h-10l-5 -6zM438 850v-4l4 -4h9l24 14l8 12l-8 4l-16 -2l-15 -10zM692 893v-6l43 -13v11l-4 6l-14 6l-6 8h-13zM653 752l-2 -4l35 -25l6 2v8l-14 21l-12 4zM702 809v-4l33 -10 l4 28l-18 -2l-14 -6zM594 573l2 -2l10 2l17 -10l14 8v7l-47 14zM451 506l2 -4l8 2l18 -6v8l-14 10l-6 14l-6 5l-9 -3zM545 506v-4l26 -8l7 22l-9 4l-16 -2zM276 809h5l4 8l-11 10l-2 17l-10 2l-6 -15l12 -20zM545 610h-4l-4 -8l2 -14l6 -6h8l10 10l-6 14zM489 930v-4l15 -4 l18 12l-2 10l-14 2zM504 983l4 -2l8 12l-4 21h-14l-4 -6zM313 563v-14h31v8l-12 10zM434 643l-10 -10l22 -8l11 4v12l-6 4zM668 621l-2 -3l2 -16h12l10 12l2 9l-8 2zM647 938l4 -4l15 2l4 6v10l-4 4l-15 -2l-4 -6v-10zM580 815l-2 2l-19 17h-12l-2 -7l14 -6l10 -12l13 -4z M438 1006l4 -2l11 -11h4l-4 11l-11 10l-18 6l-4 -2v-10zM424 602v-6l-6 -12l6 -13l14 39h-10zM571 737l-4 -2v-14h11l10 6l2 12zM575 950l7 -2l12 8l2 11l-14 4l-9 -17zM526 981v-10l19 4l8 12l-8 6l-4 -6zM856 1063v-4l16 2l7 4v8l-9 4l-12 -6zM575 647h-4v-10l15 -4l4 4 v10l-4 4h-8zM582 1018h-4v-10l4 -4l14 4v10l-14 4v-4zM489 537l5 -2l4 16l-4 6l-11 2l2 -18zM229 684h9l2 8l-7 15l-6 -2l-2 -9zM332 961v-5h22l4 7l-6 4l-16 -2zM309 870l4 -2l4 19h-14v-8zM346 502l-2 -4l18 -4v14h-8zM373 985v-14h10l4 14h-14zM786 920v-5l15 3l4 12h-10 zM618 1077h5v19l-9 -2l-4 -7zM758 885l4 -2l4 8l-4 10h-4l-4 -6zM307 776h6l-2 8l-8 7l-4 -7l2 -6zM494 526v-10h14l-2 8zM336 915v-10h8v10h-8z" />
<glyph unicode="&#xb7;" horiz-adv-x="749" d="M289 520l-4 2l-4 66l8 67l28 37l15 4l12 13l25 8l34 4l37 -2l21 -6l4 -6l14 -5l39 -43l10 -26l11 -70l-11 -31l-32 -43l-11 -12l-10 -2v-4h-10v-4h-8v-6l-60 -10l-20 2l-4 4h-17l-22 12zM403 608l-4 -2l7 -14l14 6l4 12zM461 565l4 2v8l-6 7h-13v-11l5 -6h10z" />
<glyph unicode="&#xb8;" horiz-adv-x="757" d="M420 -18l2 -5v-10l-19 -43l3 -16l8 -12l43 -17l14 -12l16 -37v-10h5v-8l6 -11l4 -32l-2 -35l-13 -33l-12 -20l-2 -13l-47 -45l-23 -16l-30 -13l-6 -6l-62 -12l-63 -6l-60 4v4h-10v6l-12 2l-19 29l-2 12l17 29l20 16l25 4h37l65 15l31 12l24 16l17 19l6 16v21l-6 16l-8 10 l-31 17l-31 8l-14 18l-2 15l8 41h4l10 41l15 14l4 12l22 25l21 6l16 10l12 -6z" />
<glyph unicode="&#xb9;" horiz-adv-x="505" d="M256 1133l-4 4l-16 -2l-27 -21l-4 -14l-25 -21l-20 -24l-21 -15v-4l-20 -10l-17 2l-14 8l-10 13l-4 16l2 14l8 19l18 24l21 13l45 47l45 49l43 47l41 53l18 25l35 35l10 30l13 13l2 12l49 47l18 14l41 6l6 5l19 -2l29 -19l8 -27l-8 -32l-15 -31l-10 -39h-6l-21 -65 l-30 -60l-4 -4l-19 -59l-8 -25l-12 -12l-4 -13l-11 -12l-2 -14l-4 -4l-4 -37l-29 -57l-4 -23l-10 -8l-6 -21l-6 -6l-8 -28l-5 -5l-2 -18l-12 -29l-10 -12l-19 -59l-20 -60l-16 -24v-8l-23 -23l-16 -10l-15 -4h-20l-35 12l-20 20l-5 11l7 30l16 25l10 37l11 10l18 64l22 59 l7 16l8 11l18 53l10 10l3 14l24 64v18zM377 1245l-4 -2l8 -14l29 4l4 6l-13 6h-24z" />
<glyph unicode="&#xba;" horiz-adv-x="741" d="M588 725l-2 -4l-25 -19l-49 -47l-18 -18l-25 -4l-25 -15l-63 -14l-4 -4l-29 -4l-29 4l-67 25l-27 16l-39 37l-12 47l-10 10l-4 64l-4 32l4 62l4 33l4 4l12 65l19 62l20 63l19 45l10 11l24 59l9 22l34 52l41 43l35 45l23 24l51 37l12 10l17 5l6 6l55 12l35 4l6 4l70 -8 l30 -8l23 -15l47 -47v-10h6l8 -29l4 -16l7 -6l4 -51h4l6 -31v-39h-4l-6 -12l-7 -62l-18 -67l-6 -33l-25 -57l-16 -66l-29 -55l-26 -58l-2 -12h-4l-41 -49zM295 889l4 -2l-2 -33l-8 -37v-29l10 -26v-8l25 -27l12 -8l33 -8l14 2l31 16l43 45l26 21l6 14l15 12l16 25l2 14 l17 27h6l2 12l18 29l4 12l33 49l16 70l11 16l-2 17h6l2 30l18 64l6 45h7v18h4v31l-6 37l-13 33l-16 22l-21 6v6h-32l-39 -16l-4 -8l-27 -19l-33 -36l-14 -5l-2 -12l-6 -6l-13 -31l-24 -39l-6 -4l-17 -26l-6 -31l-14 -27v-10h-4v-8l-13 -12l-22 -37l-12 -70l-11 -31l-2 -18 l-6 -4l-6 -33zM637 924v-4l12 -7h8l13 13l-6 4h-17zM666 981v-6h8l10 10v14h-14zM707 1026h4v8l-6 6h-9l2 -8zM748 1212v-14h8v14h-8zM336 633v-10h8v10h-8z" />
<glyph unicode="&#xbb;" horiz-adv-x="1476" d="M709 209h-4l-23 22v35l4 17l14 20l15 35l16 27l23 18l59 33l12 12l15 4l37 33l14 4l8 12l25 6l8 11l14 4l51 37l41 20l21 25l4 14l-8 29l-19 28l-43 52l-30 36l-39 56l-11 28l2 23l9 20l20 29l27 21l20 -5l49 -49l43 -45l19 -30l45 -46l20 -22l43 -35l9 -16l24 -21v-10h4 v-8h6v-12l7 -7l2 -10l-5 -4l-8 -31l-16 -24l-4 -15l-19 -28l-47 -35l-4 -6l-55 -29l-23 -8l-10 -10l-14 -6l-13 -13l-24 -6l-12 -12l-29 -12l-55 -35l-15 -4l-6 -7l-12 -2l-10 -10l-56 -37l-16 -6l-51 -31zM231 240l-4 2v34l15 46l12 12l4 18l6 10l27 23l4 8l12 2l4 11l13 2 l28 20l60 29l57 35l14 10l29 10l51 47l29 14l12 17v16l-10 17l-4 14l-12 8l-5 14l-18 27l-45 47l-35 58l-10 12l-2 12l-8 12v23l12 35l27 33l14 6l16 -2l15 -9l45 -51l39 -47l45 -47l47 -47l22 -25l6 -14l35 -33l21 -33l-2 -32l-4 -13l-25 -41l-2 -8l-25 -30l-55 -33l-4 -4 l-23 -6l-10 -13l-24 -6l-25 -18l-12 -4l-13 -11l-8 -2l-51 -33l-53 -34l-53 -23l-39 -20v-4l-13 -11l-12 -2l-6 -12h-10l-4 -8h-11l-22 -17l-33 -12zM668 586v-4l14 -9l12 2l11 15l-3 8l-8 4l-14 -2zM1139 614l-2 -2l4 -12l16 4l8 14zM590 524v-4l6 -4h10l6 4v4l-16 6z M471 403l-2 -4l6 -4l8 2l4 13h-8zM649 530v-10h10v10h-10zM1141 567v-10h10v10h-10zM1133 539l-5 -9l9 -6l4 11zM1161 649l-2 -4l12 2l3 8h-9zM1049 733v-8h10v8h-10z" />
<glyph unicode="&#xbc;" horiz-adv-x="1419" d="M1194 375v-4l18 -23l21 -6l12 2l33 -33l2 -24l-25 -33l-10 -2l-10 -14l-18 -5v-4l-15 -6l-8 -10l-33 -4l-4 -4l-31 -8l-20 -27l-25 -59l-14 -54l-29 -45l-16 -2l-10 -6l-35 -4l-16 2l-33 18l-6 11l-2 14l24 61l23 62l-6 18l-23 19h-61l-66 4l-51 -6l-23 6l-14 12l-2 12 l-4 5l4 32h4v9h4l10 32l39 51l45 52l41 47l43 49l45 49l86 98l39 43l6 15l47 47l35 41l15 18l55 15l72 8l30 -2l23 -25l-4 -29l-23 -65l-18 -45l-6 -14h-4l-11 -29l-6 -6l-28 -86l-11 -19l-20 -59l-25 -51zM1364 1454l2 -2v-16l-16 -29l-33 -35l-4 -14l-8 -4l-17 -27 l-41 -43l-41 -51l-24 -35l-25 -16l-41 -52l-39 -51l-35 -35l-6 -14l-69 -69l-35 -50l-19 -28l-12 -11l-20 -26l-13 -10l-12 -21l-6 -2l-2 -12l-23 -23l-16 -24l-47 -52l-33 -38l-8 -5v-10l-14 -8v-10l-9 -4l-8 -15l-10 -8v-10l-25 -23l-18 -28l-23 -21l-45 -51l-2 -12 l-12 -8l-39 -56l-45 -49l-43 -47l-20 -27l-13 -8v-8l-22 -23l-37 -53l-23 -22l-10 -21l-12 -4l-27 -24l-35 -52l-26 -24l-41 -29l-35 -4l-16 4l-23 21l-2 8l6 16l37 51l72 82v8h6l4 15l16 16l4 12l45 48l19 20l6 14l18 21l3 8l49 45l12 21l18 12l5 14l40 49l48 47l36 48 l39 49l17 30l49 48l24 22v8l9 4l6 15l12 10l23 33l2 14l18 12l2 13l43 45l41 49l43 49l23 25l4 12l22 20l21 27l8 20l27 21l10 14l14 10l35 54l10 8l2 12l17 13v8l43 45l14 18l12 6l4 15l9 4l18 28l25 23l4 14l20 17l2 10l8 4l7 14l43 39l32 2l29 6h31zM236 639l-3 2v18 l19 41l8 66l8 35l13 18l26 64l10 30l31 54l14 63l13 55l-15 9l-43 -35l-8 -17l-22 -18l-23 -27l-26 -14l-13 2l-30 29l-5 16l3 17l49 51l43 47l45 49l28 41l13 8l2 8l18 15l4 14l45 49l43 47l13 13l6 16l16 16l4 13l13 10l2 8l14 8l2 6l70 9h12l24 -21l7 -14l-4 -31l-15 -41 l-6 -4l-16 -37l-11 -14l-14 -56l-16 -24l-15 -31l-2 -14l-18 -45l-25 -60l-16 -49l-6 -4l-13 -29l-6 -30l-12 -33h-6v-10h-4v-8l-15 -33h-4l-18 -60l-4 -24l-6 -4l-23 -60l-8 -28h-6l-8 -27l-35 -45l-27 -6l-4 -6h-35zM1133 616h-13l-26 -20l-17 -27l-41 -47l-45 -51 l-26 -22l-19 -29l-37 -37l-8 -16v-15l8 -12l31 -10l68 6l22 6l23 27l18 30v25l21 41l8 31l16 28l25 60l2 14zM1094 254l-2 -2v-8l14 -8l24 6v12h-36zM895 911l2 2l-10 11h-8v-9l6 -6zM1032 250v-4l19 -4l-2 10l-7 4zM453 1100v-4l6 -4l8 2l4 6l-8 4z" />
<glyph unicode="&#xbd;" horiz-adv-x="1443" d="M1001 160l-2 -4l7 -13l24 -14l35 -2l72 6l30 -2l29 -18l6 -27l-10 -33l-18 -20l-9 -17l-14 -4l-8 -10l-62 -6h-127l-69 -2l-66 8l-55 -2l-33 33l-2 8l4 14v27l37 49l45 51l29 17l22 18l27 14l31 27l12 2l12 16h8l23 27l12 2l47 47l49 45l5 9l20 10l2 14l33 27v10l24 18 l15 21l2 12l12 10l31 45l12 60l6 35l-2 32l-6 15l-29 24l-6 -2l-35 6l-6 -4v-4l-28 -8l-23 -22l-33 -58l-24 -59l-23 -25l-26 -14l-35 4l-23 16l-16 19l8 65v9l6 4l17 49l10 6v10l14 8l41 52l12 2l25 24l43 25l41 4l4 6l59 2l62 -8v-4l39 -11l24 -28l13 -8v-9l26 -28l8 -21 l7 -6v-69l-13 -62l-6 -22l-10 -9l-6 -30l-12 -31l-17 -25l-14 -8l-4 -14l-11 -8v-11l-8 -2l-4 -14l-20 -14l-2 -13l-25 -20l-12 -21l-47 -43l-19 -18l-12 -2l-45 -47l-29 -17l-24 -24l-49 -39zM889 1018l2 4l82 102l86 99l43 45l10 12l12 31l13 8l18 29l14 8l17 26l45 48 l26 20l33 16l27 7l18 -3l15 -8l14 -14l2 -10l-12 -27l-41 -53l-25 -25l-18 -26l-13 -11l-4 -14l-45 -47l-41 -47l-26 -21l-17 -28l-10 -9v-10h-4l-25 -43l-26 -22l-41 -47l-39 -52l-39 -32l-10 -21l-8 -4l-2 -10l-11 -4l-2 -13l-20 -26l-21 -15l-6 -14l-10 -8v-8l-21 -15 l-2 -14l-45 -49l-32 -37l-5 -12l-12 -10l-18 -27l-49 -41l-13 -12l-4 -13l-10 -10l-6 -16l-41 -49l-17 -27l-24 -23l-21 -26l-4 -14l-14 -9l-43 -47l-23 -28v-9l-34 -37l-4 -12l-21 -16l-2 -8l-43 -50l-35 -43l-18 -14l-4 -14l-43 -49l-6 -15l-43 -45l-29 -16l-47 4l-23 16 l-12 23l2 12l8 2l2 12l21 15l30 41l5 14l14 8l2 13l45 49l12 8l6 14l54 39l2 12l8 5l12 26l12 17v8l9 4l4 14l14 10l6 15l47 51l39 41l15 22l12 9l6 14l8 4l37 53l25 23l6 14l12 8l6 15l12 10l41 51l35 37l17 27l24 24l29 37v8l18 15v8l25 20l14 25l47 49l41 49zM362 715 l-4 -2v-35l-4 -21l-14 -10l-10 -14h-8v-4l-68 2l-23 14l-8 21v18l17 45l14 21l2 22l12 29l11 12l2 10h4v11h4l14 59h4l4 29l6 4l11 30l14 27l14 47l6 6v15l7 4l2 8l10 10l4 19l-4 14l-16 2l-15 -8l-43 -49l-45 -39l-10 -15l-10 -6l-31 8l-12 23v16l6 17l12 10l4 14l47 49 l45 48l39 51l21 26l47 45l18 17l4 14l9 4l6 15l8 4l4 14l18 14l19 37l16 21l35 30l37 7l39 -7l18 -22v-31l-18 -59l-10 -23v-8h-5v-10h-4v-8h-6v-11h-4v-8h-4v-10h-6l-8 -47l-17 -23l-22 -59l-21 -59l-26 -62l-6 -24h-5l-20 -62l-12 -20l-6 -27l-29 -61l-23 -62l-6 -14 l-22 -25zM340 750l4 -5h8l6 7l-4 14l-6 2zM1257 453v-11h11v11h-11z" />
</font>
</defs>
</svg>
