<?xml version="1.0" standalone="no"?>
<!DOCTYPE svg PUBLIC "-//W3C//DTD SVG 1.1//EN" "http://www.w3.org/Graphics/SVG/1.1/DTD/svg11.dtd" >
<svg xmlns="http://www.w3.org/2000/svg">
<metadata></metadata>
<defs>
<font id="thirsty_roughregular_shadow" horiz-adv-x="1105" >
<font-face units-per-em="2048" ascent="1638" descent="-410" />
<missing-glyph horiz-adv-x="512" />
<glyph unicode="&#xfb01;" horiz-adv-x="1380" d="M887 1057l4 -2l6 -15l-18 -59h-7l-2 -27l-24 -34v-9l-4 -4l-11 -53l-32 -55l-17 -31l-6 -20l-10 -9l-10 -49l-15 -20l-12 -11l-6 -14l-16 -14l-7 -33l-10 -27l-18 -28l-6 -17l-9 -4l-2 -10l-14 -10v-8l-8 -5l-37 -51l-47 -47l-23 -18l-14 -6l-4 -9l-47 -10l-23 -16 l-28 -13l-52 -2l-36 -16l-35 -2l-27 -16l-35 -39h-10l-10 16l4 31l29 37l59 12l10 4l33 -4l29 14l16 2l6 6l62 11l8 4l4 10l12 2l21 25l12 2l2 8l29 16l24 23l33 51l39 53l41 54l10 6v18l6 37l19 25l24 61l11 31l10 10v8l33 57l4 5v8l14 26l45 119l8 15l17 12zM1561 465h4 l14 -23v-16l-12 -27l-23 -34l-14 -11l-17 -28l-28 -27l-2 -12l-21 -45l-39 -54l-26 -28v-10l-6 -3l-9 -16l-22 -20l-6 -15l-49 -43l-45 -47l-29 -29l-14 -2l-15 -10l-14 -4l-12 -10l-17 -4l-22 -17l-29 -8h-53l-19 -12l-45 -8l-37 8l-20 10l-4 8l2 17l6 6l63 -4l25 4l4 4 l35 4l53 18h10l50 35l47 37l14 8l14 19l13 2l28 39l15 6l41 49l36 51l23 25l2 8l12 10l7 15l12 10l2 12l24 33l13 8l16 29l6 4v10h6l9 33l14 29zM1323 999l29 -14v-29h-6l-5 -22l-12 -12l-2 -11h-4l-14 -61l-23 -59l-22 -46l-25 -57l-2 -14l-12 -8l-6 -31l-13 -33l-26 -39 l-11 -63l-8 -11l-6 -26l-18 -43l-17 -25l-16 -43l-10 -12l-19 -64l-16 -57l-10 -14l-5 -17l-14 -14l-16 8l-6 15l4 32l24 60l6 28l27 64l10 14l4 31l4 2l11 41l12 29h4l12 30l7 7l4 14l28 41l13 63l10 39h6v10h4l10 31l6 4l3 11h4l16 57l27 57l18 49v9l10 14l15 47l12 10z M770 160l2 -4v-9l-43 -49l-14 -4l-4 -8l-60 -23l-14 -10l-14 -4l-15 -10l-51 -4v-4l-31 -4l-65 -21h-43l-8 -6l-23 6l-27 -18l-4 -66l-8 -18l-8 -66l-10 -31l-4 -28l-25 -23l-12 -4l4 23l-4 6l2 16l12 29l2 70l8 61l9 63v5l16 8l6 10l70 2l63 8l62 15l28 10l17 2l2 6l51 12 v6h8v5h10v4h11v4h8v6l49 39l14 8h23zM274 -262h11l8 -2l4 -6l-8 -66l-10 -31l-19 -28l-18 -54l-9 -4l-12 -30l-20 -25l-6 -24l-9 -13l-14 -10l-4 -14l-45 -49l-45 -41l-31 -19l-18 -6l-9 -10l-24 -4v-4l-64 -9l-30 -2l-70 8l-6 15l8 14l12 4l35 -4l33 2l31 8l47 17l59 28 l45 43l41 50l25 24l20 29l4 31l17 26l18 19l6 12l6 4v8h5l4 29l6 4v14l14 52zM131 61h23l4 -12l-4 -2l-19 -59l-10 -29l-12 -12v-17l-17 -26l-2 -15h-4l-18 -61l-6 -31l-27 -51v-8h-4v-10h-6v-9l-17 -28l-2 -15l-18 -45v-10h-4v-8h-4l-11 -33l-20 -26l-6 -15v-33l-15 -6 l-16 8l-2 7l4 14l19 29l2 10l-11 35l2 8l7 2v8l28 53l19 70l24 49l25 51l20 66l4 22l21 23l31 61l2 9l6 4l2 12zM762 1399l4 -2l2 -11l-4 -16l-10 -10l-21 -8l-8 -13l-27 -20l-18 -25l-14 -28l-21 -21v-10h-4l-8 -47h-4l-33 -55l-12 -43l-2 -13l-7 -4l-2 -14l-10 -15v-8h-6 l-31 -59l-24 -14l2 8l-8 26l4 19l28 63l9 15l6 4l16 65l12 29l19 25l12 28l12 12l13 29l30 47l5 15l6 4l6 14l57 31l25 6zM481 932l2 2l11 -10l-11 -64l-8 -29l-6 -4l-2 -24l-14 -27l-17 -45l-20 -59l-27 -58l-22 -59l-13 -39l-30 -47l-9 -4l-20 10l-2 17l8 30l8 13l17 51 l24 49l23 59l20 56l13 12l4 33l22 47l12 28l23 25zM1444 1309h29l12 -39v-33l-4 -16l-13 -11l-10 -22l-12 -8l-16 -29l-23 -21l-25 -12l-34 -8h-27l-16 6l-11 12l2 11l13 8l61 12l12 10l25 11l6 6l2 12l8 8l15 66l2 28zM983 1405l2 -2l-12 -127l-2 -14l-10 -15l-9 -2l-10 6 l-4 66l10 61l4 33l11 2zM952 1204l4 -2l-4 -35l-8 -22l-6 -2l-8 -33l-21 -14h-8l-4 8v26l25 60l12 22h10z" />
<glyph unicode="&#xfb02;" horiz-adv-x="1380" d="M932 1167v-4l10 -20l-22 -53l-7 -7v-14l-12 -29l-16 -63l-11 -12l-4 -13l-6 -6l-4 -18l-8 -6l-8 -31l-21 -45l-12 -12v-11h-4v-8h-4l-19 -61l-22 -41l-6 -4l-6 -21l-11 -12l-2 -10l-20 -27l-23 -49l-10 -12l-25 -56l-38 -51l-7 -6l-2 -12l-47 -45l-20 -27l-13 -2l-22 -21 l-14 -8h-9l-8 -10l-35 -4l-59 -23l-12 -4l-35 4l-33 -6l-57 -33l-8 -18l-19 -27l-14 -8h-8l-11 15l-4 18l6 4l21 45l10 12l6 2l9 15l26 8l72 6l63 16l35 9l29 12l51 39l12 8l4 8l25 19l22 24v8l41 54l23 45l10 8l2 12l23 27l24 57l11 15l4 16l10 12l12 31l6 6l13 31l18 22 l2 9l10 8l4 30l11 29l20 29l12 26l7 54l10 28l29 64l28 51l6 2l11 12h10zM1456 1284l4 -2l4 -12l-18 -64l-29 -61l-10 -15l-4 -47l-14 -20l-27 -62l-21 -61l-6 -14l-10 -8l-2 -17l-10 -12l-17 -62l-4 -14l-8 -4l-6 -14l-23 -25l-12 -63l-18 -60l-6 -14h-5l-18 -49l-2 -11 l-10 -12l-2 -16l-8 -19l-9 -6l-6 -31l-26 -57l-11 -16l-4 -17l-8 -10l-2 -10h-4v-10h-4v-9l-13 -26l-16 -66l-14 -24l-8 -62l-15 -24l-24 -6l-9 14l11 61l14 56l27 61l8 49l6 4l33 60l12 43l23 63l20 51v11h4l6 28l21 37l4 17l8 10l14 33l25 32l14 62v4h4v8h7l8 47l6 4l8 31 l16 25l3 14l10 8l4 29l18 55h4v10h7l2 25l20 39h4v10h4l10 47l19 27v8l14 16v9l33 28zM754 1393l2 -4l2 -17l-31 -39h-8l-45 -47l-6 -4l-11 -31l-30 -57l-11 -10l-2 -17l-24 -63l-6 -21l-15 -14v-8h-4l-2 -12l-10 -13l-10 -30l-2 -19l-29 -55l-20 -62h-5l-20 -63l-4 -14 l-21 -25l-16 -29l-2 -34l-8 -31l-29 -56l-20 -43l-31 -57l-14 -47l-29 -4l-10 22l14 37l6 4l2 11h6v10h4l15 55l6 6l2 13l10 4l2 12l17 21l6 55l18 28l4 15l13 12l4 33l24 59l13 21l2 14l18 31l2 12l12 21l25 59l18 61l11 13l10 28l10 11l6 28l8 17l2 24l11 19l10 8l2 16 l25 41l10 8l4 15l27 22l43 49l22 21h16zM1569 449l2 -5l4 -18l-29 -37l-6 -20h-6v-9h-4l-4 -24l-23 -23v-6l-24 -24l-35 -54l-14 -28l-19 -19l-4 -16l-33 -37l-6 -14l-43 -47l-27 -19l-47 -43l-18 -12l-10 -12l-13 -2l-4 -9h-10l-10 -10l-23 -8v-6h-8v-4l-57 -25l-68 -8 l-43 2l-4 8l2 12l12 11l66 16l33 4l30 10l37 29h11l2 8l12 4l8 13l27 16l47 45l43 35v10h4l4 14l18 13l2 12l9 4l4 12l47 52l14 18l6 18l11 13l20 39l18 18l5 14l34 52l15 28l20 17h17zM319 -80h15l6 -8l4 -16l-12 -60l-13 -63l-8 -21l-12 -65l-29 -58l-14 -30l-6 -23 l-27 -47l-20 -27l-33 -53l-35 -57l-53 -39l-31 -27l-31 -6l-30 -12l-13 -10l-22 -5l-74 -4h-31l-20 9l-18 14l-2 10l65 4l33 8l63 7l19 4l18 16l33 4l25 21l40 51l41 33v8l15 28v11l10 8l25 57l2 8l12 13l6 24l10 11l11 28l6 6l16 60l21 61l6 14l4 66zM150 70l4 -2l4 -9 l-13 -28l-18 -64l-16 -53l-9 -10l-28 -64l-19 -45l-10 -10l-18 -51v-8l-9 -15v-10h-4l-10 -33l-18 -22v-8l-11 -27l-8 -37l-22 -57l-11 -9l-18 -2l-12 15l10 43l14 16l6 31v20l25 56l23 49l28 53l17 55l6 6l2 33l22 35l2 14l11 11l16 61l14 27l13 12l16 29zM760 154l4 -2v-9 l-45 -43l-39 -26l-68 -17l-28 -8l-29 -16l-14 -4l-4 -6l-56 -13l-69 -6l-25 -2l-25 -18l-14 -31h-18l-11 8l-6 16l2 35l23 23l4 10h70l61 2l31 2l57 25l68 24l51 33l27 23l30 16l19 -4zM950 1321h11l14 -8l4 -15l-4 -34l-10 -41h-4l-21 -37l-12 -4l-8 63l8 10l20 62z M1483 1395l28 -15l-6 -34l-18 -25l-23 -10l-8 32v15l14 18l7 15zM952 1397l2 2l17 -2l8 -17l-18 -10l-9 2v25z" />
<glyph horiz-adv-x="0" />
<glyph horiz-adv-x="0" />
<glyph horiz-adv-x="682" />
<glyph unicode="&#xd;" horiz-adv-x="778" />
<glyph unicode=" "  horiz-adv-x="512" />
<glyph unicode="&#x09;" horiz-adv-x="512" />
<glyph unicode="&#xa0;" horiz-adv-x="512" />
<glyph unicode="!" horiz-adv-x="722" d="M999 1397l2 -2l3 -17l-11 -30h-4l-14 -29l-12 -14l-2 -13h-5v-8l-10 -10l-12 -27l-10 -51l-13 -12l-2 -13h-4v-8l-20 -24l-17 -45l-6 -4l-18 -62l-23 -51h-4v-8l-18 -23l-23 -63l-28 -60v-4h-5l-6 -12l-24 -29l-6 -47l-21 -33l-2 -14l-12 -12l-4 -23l-21 -35l-2 -12 l-10 -4l-2 -14l-27 -58l-16 -43l-10 -6v-10h-5v-8h-4v-10h-6v-9h-4v-10h-4v-8h-4v-10h-6v-11h-4v-8l-39 -31l-33 -6h-37l-24 4l-7 7v16l11 10l47 2l26 17l23 24l14 27l21 55l8 4l12 31l6 6l2 16l17 27l22 60l15 18l26 57l11 27l24 22l12 19v39l9 10l12 41l8 10l23 49v15 l30 57l15 33l20 31l27 59l6 4l6 33l18 49l7 2v10l10 10l2 11l12 8l25 61l26 62l19 10l14 -4zM459 18h14l6 -14l-8 -33l-18 -24l-33 -29l-21 -2v-6h-65l-51 -2l-15 14v8l8 13h31l62 16l61 29l25 22zM469 127v2l18 -2l15 -12l-4 -43l-15 -17h-8l-8 11l-4 34z" />
<glyph unicode="&#x22;" horiz-adv-x="909" d="M698 692l-18 6v23l10 6l27 2l24 12l31 31l25 57l16 25l33 55l24 54l19 14v8l18 27l25 45l2 12l10 14v9h4l6 24l7 4l16 27v6l12 10l2 13l39 55l25 37h8l12 -21l2 -12l-10 -25l-6 -6l-2 -10l-10 -10l-2 -13h-5v-10h-6v-8h-4l-2 -12l-24 -29l-7 -20l-14 -25v-12h-4v-8h-4 l-4 -19l-10 -6v-8h-5l-2 -13l-34 -53l-11 -8v-10h-4v-8l-12 -11l-6 -14l-10 -8v-10h-5v-9h-4v-10h-4l-10 -29l-29 -49l-6 -6l-2 -12l-10 -6v-8h-4v-11h-4v-8l-29 -26l-31 -9zM621 1292h8l10 -2l6 -6l4 -14l-2 -19l-20 -49l-13 -12l-4 -14l-12 -13l-29 -55l-14 -27l-25 -22 v-8h-4l-8 -33h-6l-2 -25l-31 -47l-28 -57l-27 -43l-2 -15l-10 -10v-8l-9 -2l-20 -39l-41 -47l-14 -10l-15 -2l-14 -19l-35 -2l-12 4l-4 6l2 19l10 6l31 8l26 23l15 18l4 17l16 16l2 14l8 2l3 13l6 6l2 12l8 2l6 21l41 53l6 2l2 12l10 15l7 43h4l6 14l8 4v10l10 4l2 13l9 4 l2 12h6l6 22l37 58l8 33l18 26l13 27l10 10l4 14l10 9v10zM1059 1333l2 4l10 2l21 -10v-18l-7 -13l-16 -2l-10 11l-4 16z" />
<glyph unicode="#" horiz-adv-x="1439" d="M1339 457l13 -6l4 -17l-10 -28l-11 -13l-2 -12h-6l-16 -57l-21 -27l-20 -6h-64l-32 -6l-132 8l-38 -27l-9 -35l-14 -28l-14 -17l-11 -55l-28 -55l-17 -43l-12 -13l-6 -43h-4l-21 -26l-28 -14h-19l-12 8l2 16l25 23v4l10 8v10l6 2l6 27l16 31v6l15 22l14 33l8 31l11 16 l24 23l4 8v49l15 27l6 4v8l45 35l59 2l68 -4h20l6 -4l54 6l28 12l27 22v11h4l8 33l6 4l11 28l22 17zM905 893v-6l-8 -13l-33 -6l-76 -2l-26 -6l-25 -16l-16 -17l-10 -49l-11 -35l-32 -57l-11 -29l-6 -34l-10 -11l-2 -14l-6 -4l-6 -23l-9 -14l-6 -29l-20 -22h-14l-11 12 l-2 17l6 22l7 6l18 55l4 19l27 55l8 33l20 51h4v8l11 11l8 32l6 4l6 33l21 25l26 16l29 4l70 -4l61 -4zM489 303h13l4 -14l-6 -33l-8 -12l-21 -64l-14 -33v-8l-13 -12l-6 -21l-10 -8v-14l-10 -23l-4 -32l-27 -56l-37 -41l-63 2l-31 -8l-4 6h-19v5l-18 4l2 18l6 4l66 2l28 8 l31 29l2 18l17 29l22 55l27 58l10 33l4 30l8 17h4l7 16l16 16v11zM1327 893v-10l-2 -9l-12 -8l-35 -2l-27 -18l-18 -27l-6 -24l-17 -25l-36 -92l-11 -14l-16 -56h-4v-8h-4l-2 -14l-7 -6l-2 -13h-4l-28 -45l-9 -2l-2 29l9 33l2 36l12 11l2 12h4l2 12l19 27l4 31l20 53l6 27 l11 12v10h4v8l8 15v10h6l4 22l6 11l29 24l67 2l17 -4zM1421 1397h19l8 -15v-16l-21 -61l-6 -25l-16 -29l-16 -61v-10h-5l-16 -29l-2 -14l-10 -15l-2 -12l-25 -23l-14 -2l-8 15l-2 16l8 14l6 31l20 47l13 13v14l24 57l8 11l-2 18l7 2l4 33h4v8h6v10h4v8zM1583 1024l4 -2 l-2 -33l-35 -69l-22 -19l-2 -12l-17 -21l-32 2l-66 -6l-29 2l-12 6l-24 5l-5 6v10l5 6l61 8l66 -2l12 -4l16 8l17 15l-5 32l25 58l23 22h10zM920 1393h14l6 -15l-4 -28l-6 -17l-2 -28l-13 -13l-18 -53l-12 -12l-6 -25l-5 -4v-10l-8 -6l-4 -45l-12 -17l-14 -10l-15 -18h-8 l-2 6l-12 10l2 8l4 2l4 17l8 12l4 35l10 28l17 25l6 22l25 19l2 14l10 13l4 12l-4 33l18 36zM487 901l2 -4v-18l-10 -9l-131 -4l-31 -2l-4 4h-14l-14 11l2 24l12 6l66 -2l63 -2l35 4l14 -2zM244 317v-10l-2 -8l-11 -6l-49 -8l-61 4l-51 -6l-23 6l-8 14v10l8 13l33 6l65 -13 l7 -2l61 13h16zM754 307v-4l-2 -6l-13 -8l-65 4l-58 -6l-32 6l-6 4v25l8 4h131l8 -4l4 4l23 -11zM991 901l2 -4l-2 -18l-8 -11l-33 -4l-35 8v23l33 10h15l4 4l18 -2z" />
<glyph unicode="$" horiz-adv-x="972" d="M809 526h8l14 -2l19 -57l14 -61l-10 -64l-10 -47l-31 -47l-8 -8l-8 -33l-17 -29l-4 -14l-8 -4l-39 -49l-8 -2l-14 -19h-9l-26 -16l-35 -11l-12 -12l-13 -4l-6 -6l-24 -8l-29 -2l-12 -8l-33 -13h-16l-13 10l-2 13l4 6l27 6l4 4l29 8l59 29l47 27l8 10h11l8 14l12 2l6 11 l10 4l7 12l26 16l23 47l10 11v8l12 10v8l13 27l6 24h6l8 62v67l-8 66zM1073 1204v4l14 -4l3 -14l10 -14l6 -27v-76l-4 -33l-10 -18l-13 -72l-10 -26l-33 -41l-28 4h-37l-10 -10l-72 -3h-19l-18 7l-6 12l2 12l16 10h76l41 -8l33 13l2 12l10 12v8l10 6v9h4v10l11 10l12 31 l10 47l-10 63v66h6zM797 1075l2 -2v-18l-13 -27l-18 -63l-27 -62l-22 -59l-25 -60l-8 -12l-16 -6l-11 2l-8 10l2 33l19 55l22 39l17 53l18 52h4l31 59l8 8l8 2zM449 27l4 -4v-15l-37 -12l-33 -16l-23 -23l-6 -14l-10 -11l-16 -51l-27 -41l-27 -22l-12 -6h-16l-33 8l-6 6 l2 18l10 11l33 6l22 20l21 29l12 27l6 6v8h4l9 61l24 19l33 10l33 -4l16 -8zM674 1178l4 -2l-6 -17l-25 -20l-14 -4l-2 -7l-23 -20l-12 -31l-6 -4l-8 -22l-11 -11l-2 -16l-6 -6v-35l-6 -10l-10 -4l-12 4l-11 65l2 17l4 4v8l11 10l4 15l18 26l17 33l43 33l28 8l19 -2z M569 510l2 -2l-8 -47l-10 -8v-13l-8 -16l-4 -27l-15 -20l-2 -15l-14 -30l-8 -29l-29 -39l-16 -2l-6 17l4 30l22 58l10 14l17 59l8 31l6 8l2 15l21 22l10 2zM324 481l2 -2l-9 -30l-24 -50l-8 -34l-2 -50l-9 -14l-10 -2l-14 6l-8 31l2 33l20 61l6 31l6 12l23 25h8l15 -9z M958 1528h5l16 -8l2 -21l-16 -31l-2 -14l-11 -10l-8 -19v-8h-6l-6 -16l-12 -8h-15l-8 14l8 31l17 28l12 33l16 27zM838 1169l4 -4l-2 -18l-23 -21l-8 -2l-18 15l6 24l26 13z" />
<glyph unicode="%" horiz-adv-x="1396" d="M1358 1104l4 -2l-2 -4l6 -15l-14 -26l-13 -10l-28 -46l-19 -14l-4 -14l-12 -8l-4 -13l-49 -45l-39 -53l-23 -25v-4l-12 -10l-8 -16l-11 -2l-45 -47l-10 -11l-2 -8l-10 -12l-4 -12l-27 -23l-22 -33l-19 -26l-41 -50l-16 -16v-8h-4l-17 -27l-8 -6l-6 -12l-29 -25l-18 -24 l-16 -11l-7 -12l-10 -8v-10l-24 -25l-17 -26l-8 -5l-2 -14l-45 -47l-43 -51l-45 -47l-17 -17l-4 -14l-8 -4l-16 -29l-21 -22l-6 -13l-24 -22l-7 -12l-18 -19l-6 -2l-37 -53l-47 -47l-27 -19l-32 2l-13 7l-63 -3l-17 -6l-10 15v12l4 8l13 6l32 -2l29 -6h25l24 16l47 52l27 18 l12 21l19 14v8l22 25l14 8l15 29l73 102l19 18l6 15l47 43l19 24l12 11l16 26l51 45l3 13l18 22v6l12 10l13 27l34 43l47 49l33 33v8l27 21l4 14l8 4l8 23l43 49l41 53l43 47l27 23v8l20 24l5 15l45 49l41 51l16 25l12 8v8l23 25l14 4l10 10zM725 907l2 4l10 2l15 -6l6 -26 l6 -7l-4 -65l4 -31l-10 -55l-11 -14l-4 -25l-22 -22v-7l-23 -20l-2 -12l-45 -48l-4 -6h-10l-4 -10h-11l-4 -8h-8v-4l-41 -15l-12 -10l-31 -8l-65 -2l-64 8l-18 12v17l20 8l35 -6l51 4l4 4l35 4l29 8l12 11l31 12l24 18l50 47l18 17v8l12 8l11 45l20 64l4 33l-8 65zM1425 262 h25l8 -31l-6 -67l-2 -17l-12 -12l-21 -35l-4 -18l-12 -12l-10 -25l-15 -18l-12 -2l-47 -45l-25 -21l-55 -16l-29 -13l-63 4l-19 9v18l13 8l65 11l31 12h8l17 12l14 2l14 17h8l17 12h6l35 35l2 12l12 8l21 53l6 4l4 15l6 6l8 22l10 68zM434 950h4l-2 -10l-26 -18l-41 -37v-11 h-4v-8l-7 -10l-12 -41l-12 -2l-15 6l-12 19l8 32l29 56l16 22l23 15zM1112 362l4 -2l-2 -10l-49 -39l-12 -28l-6 -7l-13 -55l-16 -10l-12 8l-7 14v35l9 35l14 25v6l39 35zM1141 377l2 2h18l6 -4l-4 -27l-20 -2l-4 6zM1040 -35l7 10h12l6 -22l-4 -8l-14 -2z" />
<glyph unicode="&#x26;" horiz-adv-x="1447" d="M1520 924l2 4l8 -2l22 -39v-21l7 -4l2 -63l2 -17l-21 -55l-14 -22l-2 -15l-10 -4v-8l-13 -10l-6 -15l-51 -39l-19 -6v-6l-57 -20l-67 -17l-5 -4h-22l-10 -10l-33 -4l-35 -12l-16 -11v-10h-4l-9 -33l-2 -63l-4 -35l-16 -59l-29 -60l-18 -47l-13 -12l-8 -25l-8 -4l-6 -14 l-12 -15l-6 -16l-48 -41l-45 -49l-22 -23h-10v-4h-9v-6l-12 -2l-27 -18l-30 -6l-25 -21l-10 -2l-23 -16l-65 -21l-12 -6l-56 -10l-69 -4l-33 4l-21 12v19l5 6l16 6l61 -4l127 28l52 19l16 -2l4 6l14 4l9 14l12 2l24 23l54 37l47 41l6 14l20 27l13 10l4 14l20 27l19 16l4 15 l10 6v8h4l8 39h4l21 55l14 58l10 32l7 64l6 55l26 18l66 15l63 16l60 17l6 6l45 14l29 14l18 19l6 14l21 17l2 8l10 8l6 20l4 2l13 60l2 65l-9 35zM1303 1270h10l8 -2l8 -13v-32l8 -25l-4 -33l8 -24l-8 -29l-2 -22h-6v-9h-4l-16 -63l-25 -39l-4 -14l-51 -43l-54 -35l-59 -21 l-29 -4l-73 8l-6 2l-9 21l6 10l11 4l12 -4v-4l66 4l10 6l30 6l27 15l23 18l8 2l43 49l20 31l11 4l4 15l20 24l6 21v32l15 66l-13 65zM608 758v-6l-6 -17l-63 -4l-62 -10l-26 -16l-15 -5l-18 -18l-12 -2l-3 -8l-26 -19l-37 -39l-6 -16l-10 -4l-9 -29l-10 -20l-12 -68v-4 l-6 -4l-6 -12l-13 -13l-14 7l-8 12l2 35l16 63v8h4l4 25l7 4l14 27l24 26l33 47l25 25l26 12l7 6l12 2l31 17l26 6h72l49 -2zM920 543l2 -4v-19l-7 -10l-24 -6l-25 2l-28 -14l-19 -19h-6l-51 -47l-6 -4l-4 -14l-7 -5l-8 -14v-8h-4v-33l-12 -22l-25 -25l-65 -2l-19 -2l-16 6 l-2 19l8 12l12 6l50 12l20 21l27 65l24 33l53 31l43 20l27 19l31 8h16zM1024 1327v-6l-63 -8l-66 -15l-51 -24l-51 -17l-21 -24l-2 -8l-12 -11l-6 -14l-7 -4v-14l7 -13l-7 -39l-4 -4l-2 -32l-8 -19l-6 -4h-10l-15 8l-6 13l2 34l9 33l28 53l4 2l6 33l39 29l4 14l43 41l62 12 l8 7l35 4l61 -4h6v-4l19 -7zM811 836h4l-2 -19l-27 -45l-2 -12h-6v-8l-39 -52l-16 -6l-18 2l-15 9l-2 12l10 26l35 27l4 14l8 4l39 52l15 8zM272 408h7l10 -31l-2 -19l-4 -6h-9l-12 8l-8 15l-2 16l6 12zM469 -68v-6l-16 -6l-15 2l-12 10v17l8 4h17l14 -6z" />
<glyph unicode="'" horiz-adv-x="471" d="M618 1360v4l15 2l6 -4l2 -16l10 -11v-67l-10 -33l-14 -33l-11 -12l-6 -27l-12 -12l-16 -33l-11 -8l-2 -16l-12 -13l-2 -14l-10 -14v-9l-37 -51l-21 -26l-12 -11l-8 -30l-33 -60l-10 -26h-4l-29 -60l-10 -4v-8l-8 -6v-10l-15 -9l-2 -12l-49 -35l-28 -4l-23 2l-8 17l10 18 l31 4l30 25l7 18l10 8l4 15l10 8l4 14l21 31l6 16l10 9l4 14l11 10l6 25l39 49l16 47l12 12l2 13l31 57l6 6l2 18l6 5l17 28l43 45l8 25l4 35l14 30l2 58z" />
<glyph unicode="(" horiz-adv-x="819" d="M1065 1534l2 -4l-2 -17l-35 -30l-31 -15l-30 -24l-13 -2l-32 -37l-15 -6l-41 -53l-51 -46l-6 -12l-8 -4l-2 -12l-25 -21l-2 -12l-20 -29l-9 -20l-12 -8l-6 -15l-25 -22v-33l-8 -45l-8 -14l-12 -47l-10 -11v-8h-5l-20 -35l-2 -8l-10 -8l-11 -66l-14 -26l-2 -17l-16 -45 l-2 -8h-7l-10 -31l-6 -6l-10 -39l-6 -8l-2 -24l-29 -56l-27 -51l-10 -27l-6 -4l-6 -30l-19 -49l-18 -43l-10 -13l-10 -33l-7 -4v-14h-4v-10h-4v-8h-4v-11h-6l-12 -63l-15 -29l-4 -24l-10 -23l-12 -8l-19 -57l-14 -46l-14 -47l-9 -10l-12 -35l-4 -32l4 -31l-2 -33l-6 -10 l-19 4l-8 12l-12 68l10 63l6 11l2 30l9 13l22 61l12 20l5 15l10 12l6 33l27 61l26 51v13l6 6l23 63l22 62l13 31l20 24l2 35l8 2l15 33v10h4l6 31l25 63l24 60l4 22h6l9 31l16 39l12 12l8 43l19 23l24 51l4 4l5 24l4 5l4 30l22 62l15 28l26 21l2 61l6 6l7 17l22 20l39 54 l31 26l30 60l29 22l4 14l27 21l29 12l26 19l51 45l33 24l29 -8zM291 -240l16 -8v-8l-12 -10l-19 -29l-12 -6l-4 -6h-8v-4h-10v-6l-15 -7l-12 -16h-8l-25 -22h-10v-5h-8v-6l-14 -2l-9 -6h-10l-18 19l4 16l22 27l21 10l8 10l12 2l13 12l8 2l4 9l57 20l12 16z" />
<glyph unicode=")" horiz-adv-x="819" d="M1081 1470h9l14 -8l4 -32h4l-2 -31l-16 -66v-30l-15 -25l-10 -29l-2 -39l-6 -4l-25 -55l-22 -47l-21 -60l-24 -61l-8 -16v-17h-5l-12 -22l-6 -4l-25 -60l-10 -33l-10 -16l-2 -12h-6l-11 -55l3 -5l-11 -10l-8 -28l-16 -27l-11 -29l-30 -41l-4 -22l-11 -11l-2 -59l-4 -2 l-12 -29l-6 -6l-10 -26l-4 -31l-17 -45l-18 -31l-21 -63l-6 -31h-4l-2 -12l-6 -4l-6 -17h-4v-10h-7v-8l-8 -11l-16 -47l-4 -14l-29 -39l-10 -24l-6 -29l-25 -57l-14 -9l-4 -14l-41 -31v-8l-25 -37l-6 -6v-6l-49 -43l-45 -51l-15 -4l-47 -45l-49 -37l-14 -8l-8 -11l-13 -6 l-14 -14l-27 -12l-10 -11l-22 -2l-15 13l-2 16l6 16l23 23l53 37l55 37l48 43l24 24l27 16l41 48l43 51l6 10l27 23l30 43l6 30l35 58l27 59l28 45l5 33l10 31l16 20l2 25l6 14l11 8l18 62l29 61l12 21l10 45l8 12v8l11 10l16 31l16 61l5 5v18l14 33l14 28l8 31h7v10h4l2 15 l14 18l16 66l27 57l10 35l6 2v8l13 12l12 29l6 33l10 10l17 31v24l20 50l8 18l11 10l10 31l14 8l8 29l5 33l10 18l8 31l4 71l4 33zM1075 1577h6l4 -6l2 -33l13 -33l-2 -16l-4 -6h-17l-6 10l-2 35l-16 31v14z" />
<glyph unicode="*" horiz-adv-x="866" d="M449 932l4 -2v-23h-7l-16 -26l-27 -19l-20 -28l-47 -46l-14 -6l-11 -12l-14 -8l-55 2l-6 4l-3 18l11 9l57 26l53 43l11 15l26 20l37 41h10zM725 1333h23l6 -18l-9 -31l-32 -57l-19 -29l-14 -12l-12 -33l-23 -20l-16 -3l-15 9l-2 10l6 14l41 43l7 6l-2 11l16 45l8 14l10 6 v8l9 4l6 17zM561 633l-2 4l6 14l13 8l26 3l29 14l22 16l9 17l10 8v16l10 25l18 -2l15 -17l-17 -63l-10 -21l-12 -12l-8 -2l-4 -8h-15l-26 -15l-31 -6l-25 6zM920 1051h10l20 -15l4 -32l-4 -15l-37 -51l-36 -27l-31 4v21l49 35l6 6l8 29l4 34zM702 967h5v-23l-21 -6h-35 l-12 -10l-16 -2l-25 16l-6 14v17l8 14l6 4l64 -16zM827 934l4 -4v-10l-8 -11l-14 -2l-6 13l6 12l6 4z" />
<glyph unicode="+" horiz-adv-x="1208" d="M1083 606l11 6h10l8 -10v-37l-18 -53l-21 -59l-31 -35l-24 -4l-37 4l-63 -4l-66 -2l-66 2l-49 4l-26 -12l-4 -13l-19 -14l-8 -39h-4v-10h-4v-11h-6l-9 -30l-28 -58l-19 -63l-22 -62l-17 -24l-26 -10l-53 -11l-31 7l-64 -2l-30 2l-19 12v22l27 9l24 -2l2 -7h15l4 -4l65 4 l17 2l45 31v8l8 9v12l20 59l17 29l4 18l8 6l14 50l11 14l12 29l8 32l6 7l13 26l26 17l66 2l59 6l64 -8l37 -2l24 6h37l16 6l23 20l16 27l25 61zM922 967l4 -2v-17l-13 -33l-8 -10l-18 -53l-23 -41l-4 -29l-22 -53l-19 -29l-22 -24l-15 -4l-14 12l25 57l8 35l24 55l6 19 l11 12l8 47l22 41l31 29l8 -2zM424 440l2 -4l-6 -16l-12 -4l-37 2l-58 -8l-71 12l-13 4l-4 6l2 12l11 9l71 2l66 2l22 2l19 -8zM190 442l3 -2l-3 -18l-20 -8l-10 20l4 8l18 4z" />
<glyph unicode="," horiz-adv-x="595" d="M467 129h10l4 2l13 -18l8 -58v-32l-10 -33l-21 -45l-10 -15l-4 -32l-13 -23l-22 -27l-27 -22l-16 -27l-45 -51l-23 -24l-43 -27l-10 -12l-14 -9l-11 -14l-12 -2l-16 -16l-21 -6l-49 -44l-18 -12h-17l-4 8l-10 9v20l8 12l53 37l9 13h10v4h8l8 10l17 8l8 12l14 2l49 37 l21 23h6l47 49l12 20l25 25l22 43l15 12l16 27l15 61l6 68l2 33h6z" />
<glyph unicode="-" horiz-adv-x="1024" d="M911 600h19l6 -6l4 -14l-10 -31l-15 -19v-8l-20 -55l-6 -14l-17 -17l-65 -14l-66 2h-65l-33 2l-25 8l-24 2l-64 -6h-65l-62 -2l-53 2l-14 12l4 19l10 10l31 4l33 -6l59 4l66 -2l32 -4l29 4l70 -4l61 2l33 2l55 -6l35 18l2 11h4l6 38l31 52z" />
<glyph unicode="." horiz-adv-x="595" d="M475 129h25l4 -6l2 -68l-6 -51h-6v-10h-5v-8h-4l-14 -29l-12 -12l-33 -23l-12 -4l-17 -12l-63 -2l-17 2l-4 4l-32 2l-15 6l-6 14l2 11l8 4l47 -4l66 18l25 14l38 35l15 27l10 49z" />
<glyph unicode="/" horiz-adv-x="925" d="M1061 1640l4 -2l2 -22l-25 -64l-8 -30l-26 -60l-15 -53l-14 -18l-2 -13l-10 -4l-2 -12l-21 -16l-10 -33l4 -33l-23 -57l-28 -62l-23 -28l-6 -33l-20 -51l-15 -52l-8 -18l-2 -14h-4l-10 -33l-11 -10l-2 -13h-6v-8h-4v-10h-4v-10h-4l-14 -50h-4v-10h-7v-8l-16 -37l-20 -22 l-9 -17v-16l4 -6v-19l-6 -6l-8 -33l-14 -24l-4 -17l-13 -8l-22 -59l-21 -60l-14 -28l-8 -33l-14 -10l-25 -60l-8 -43h-4v-8h-6l-5 -24l-41 -45l9 -48l-25 -57l-14 -31l-21 -61l-14 -31l-6 -6l-2 -12h-6l-9 -43l-12 -12l-41 -123l-18 -45l-17 -19l-2 -16l-30 -49l-64 -11 l-24 -4l-11 11v14l11 18l32 4l25 19l20 24l15 41l12 13l8 26l10 13l4 41l11 12l8 31l8 8l4 22l10 15l17 55h6l6 24l12 13l9 47l6 4l22 51l11 39l36 37l-6 37l31 51l16 45l23 25l4 63l6 4l19 58l10 24l6 4l4 15l16 26l19 64l14 18l31 53l2 13h4l8 65l10 8l5 15l10 10l12 51 l16 47l3 10l6 3v8h4v10h4v10h6v8h4v11h4l17 55l16 45l12 10l6 15l13 10l12 31l6 32l25 60l32 57l11 12l-4 31l16 45l20 59l13 19l10 33l6 6l8 33l9 16l8 33l22 28l17 7z" />
<glyph unicode="0" horiz-adv-x="1050" d="M279 -78v4l8 19l67 6l15 4l34 -6l62 22h8l10 11l29 12l25 18l26 13l12 10l15 4l26 22l13 7l24 26l15 23h8l10 10l14 2l23 25l16 26l2 10l37 52l23 28l2 9l33 40l2 13l10 12l2 14l10 13l4 14l29 59l37 56l6 6v8l20 59l25 60l18 26l2 50l11 12l2 16l14 27l10 65v25l25 31 l4 6l18 -21l7 -14l-11 -51l-18 -53l-23 -58l-16 -30l-10 -11l2 -55l-8 -12l-7 -35l-18 -27l-4 -14l-10 -8l-11 -47l-6 -6l-8 -33l-12 -8v-9h-4v-10h-4v-8l-19 -25l-14 -32l-17 -27l-6 -4l-2 -12l-41 -54l-32 -45l-7 -6l-4 -14l-39 -35l-12 -27l-47 -47l-16 -18l-15 -2 l-45 -47l-14 -4v-5h-10v-6h-9l-28 -16l-55 -25l-11 -8l-26 -8l-72 -6h-64l-32 2l-6 4zM414 807h18l8 -14l-14 -66l-12 -45l-13 -10l-2 -13h-4v-10h-6v-10h-4v-8h-4l-14 -51l-5 -33l-10 -10l-2 -21l-6 -2l-12 -55l-10 -33l-5 -33l-10 -26v-11l-6 -8v-24l-6 -31l-2 -37l-6 -20 l2 -33l-6 -15l-11 -2l-14 7l-12 59l6 67l10 66l17 64l12 34l24 60l4 22l7 6l-2 33l8 27l12 22v11h4v8l10 12l21 59l12 31zM784 1272l4 -6l3 -11l-19 -14l-6 -12l-12 -2l-6 -13h-11l-4 -8l-33 -14l-4 -10l-14 -2l-18 -27l-23 -23l-6 -22l-8 -4v-10h-4l-25 -31v-10h-4v-11 l-19 -12v-10l-18 -14v-9l-12 -10l-23 -47l-26 -55l-7 -13l-26 -32l-19 -4l-8 22l4 19l25 41l2 12l6 6l4 14l10 11l5 14l10 8l4 14l22 25l23 49l10 14v9l12 10l5 14l24 27l31 26l2 17l47 45l18 18l15 6l4 9l31 6l12 6h16zM1075 1221v4h15l8 -13l6 -30l6 -11l8 -67l-2 -62 l-8 -69v-31l-18 -24l-19 4l-8 10v33l6 47l6 30l-4 66l2 63l-2 35z" />
<glyph unicode="1" horiz-adv-x="827" d="M987 1391h4l8 -31l-4 -25l-14 -32l-27 -37l-16 -66l-23 -61l-28 -56l-13 -12l-12 -43v-14l-22 -49l-2 -15h-4v-10h-5v-8l-10 -10v-9h-4v-10h-4l-10 -37l-13 -37l-2 -14l-8 -14v-8l-10 -15l-20 -57l-37 -51l-23 -13l-6 -16l4 -68l-6 -22l-35 -55l-16 -23v-20l-23 -54 l-6 -24l2 -15l-33 -51l-4 -26l-6 -7l-18 -55l-9 -28l-28 -60l-41 -123l-19 -37l-24 -30l-14 -2l-13 -11l-59 -2l-35 6h-74l-6 3l-6 8v16l14 12l72 2h61l21 9l22 22l27 62l23 57l16 35l2 12l14 31l7 28l24 50l23 59l32 59l17 17v47l26 43l21 47l10 51l35 49v19l12 12l10 49 l11 27l10 8l20 61l7 33l18 41l10 10l4 41l33 56l23 61l24 59l12 27l11 43l4 4l4 29l12 10l2 12l11 5v10l8 4l10 14l4 37l10 31l27 33zM514 899h14l4 -10l-6 -23l-26 -18l-6 -23l-27 -43l-33 -26l-4 -15l-10 -10l-14 -6l-48 -45l-20 -31l-14 -6l-45 -47l-19 -27l-20 -12 l-13 -12l-18 -4l-14 4l-11 10v8l21 37l26 16l5 15l51 41l90 94l47 45l22 25l35 14l11 29z" />
<glyph unicode="2" horiz-adv-x="1003" d="M319 199l-4 4v8l23 27l14 2l4 6l11 2l4 10l12 2l18 23l54 34l47 41l14 9l12 2l43 49l45 39l25 14l51 45l23 23l26 16l43 47l47 47l21 15l6 14l12 8l41 51l17 13l4 16l6 2v10h4v8h4l8 15l11 8l2 12l12 13l29 61l30 45l21 55l2 9l24 24l9 -4l14 -20l-6 -31l-27 -62l-22 -37 l-2 -14l-41 -53l-29 -57l-27 -25l-14 -6l-25 -33l-2 -10h-4l-37 -51l-51 -43l-39 -52l-51 -38l-29 -27l-24 -31h-10l-37 -31l-8 -2l-11 -14l-14 -8l-18 -29h-9l-14 -10l-4 -8l-35 -25l-12 -2l-49 -43l-49 -39l-13 -16l-28 -14l-29 -5zM770 1260v-5l-2 -10l-6 -4h-21l-4 -4 l-30 -2l-31 -8l-29 -19l-49 -43l-12 -10l-4 -12l-21 -27v-8l-18 -27l-15 -34v-25l-12 -68l-10 -28l-29 -31l-31 -2l-67 6l-6 4l-2 10l4 15l6 6l61 4l9 2l20 16l2 17l14 26l2 68l5 23l32 55l19 24v9l10 12l27 20l10 15l16 6v6h8l29 18l19 5v4l65 14h27zM805 139l2 -2l-8 -33 l-6 -4l-2 -14l-17 -29l-8 -22l-10 -8l-8 -43l-7 -4l-12 -29h-8l-6 -8h-37l-33 -6l-18 -9l-31 6l-59 -4l-64 13h-16l-31 -13l-33 -2l-47 9l-6 4v18l10 8l35 4l35 -4l31 -8l18 2l6 10l64 2l67 -2l47 -6l15 6l43 39l4 17l10 12l6 33l19 57l12 8v8l12 11l19 -2zM307 -49v-4l2 -6 l-10 -7h-18l-2 -6l-27 -4l-72 2l-67 6l-23 9l-2 6l6 12l12 8l35 4l37 -6l25 -8l63 12l29 -2zM61 -45v-4l-6 -12l-32 -7l-68 -2l-33 -2l-10 4l2 31l12 6l33 2v4l33 2l47 -6zM1098 1161h16l6 -14l-2 -17l-14 -10l-6 2l-11 15v14zM1090 1069v10l14 -6v-4h-14z" />
<glyph unicode="3" horiz-adv-x="1042" d="M901 565h8l9 -2l8 -12l12 -59v-72l-18 -64l-7 -63l-8 -33l-16 -29l-17 -18l-8 -29l-6 -4l-6 -20l-43 -54l-47 -45l-33 -34l-45 -17l-20 -24l-13 -9l-24 -6l-9 -10l-47 -8l-41 -29h-30l-64 -18l-45 8v27l15 -2l12 4v4l63 4l31 12l33 6l8 -2l16 4l23 23l51 22l35 19l12 28 l21 23h8l8 12l39 31v8l29 25v8l22 23l6 14l13 14l14 47l2 11l6 2v10h6v10h4v8h4v10h5v9h6l10 59v68l2 65l-4 31zM780 1262v-7l-2 -10l-6 -4h-14l-62 -27l-14 -4l-8 -10h-10l-5 -10h-10l-4 -8h-8l-10 -15l-15 -10l-8 -22l-10 -15v-6l-35 -35l-8 -16l2 -49l-37 -37h-37l-33 6 l-10 16l2 9l13 8l32 6l29 16l10 13l2 14l11 10v8l-11 21l33 53l18 27l17 14l8 16l14 7l23 18l14 6l8 10l62 17l33 6l22 -4zM1094 1008l2 -2v-43l-9 -13l-4 -20l-47 -47l-37 -43l-28 -13l-47 -45l-13 -12l-12 -4l-12 -10l-23 -6l-14 -11l-31 -4l-18 2l-13 13l5 16l12 10 l31 10l26 19l21 8l12 12l16 2l50 43l26 23l4 12l43 49v9l10 6v8l9 4l2 12l6 4l6 13zM319 455l3 -2l-25 -60l-18 -43l-11 -12l-6 -64l-2 -63l-4 -6l-18 -2l-7 4l-6 14l-4 68l10 63l21 60l6 24l12 17l15 10l4 8l10 2zM1118 1255h4l13 -32l6 -54l10 -43l-4 -18l-6 -6l-6 -35 l-25 -39l-12 8v15l-6 22l4 6v17l14 30l4 31l-14 62l-4 32zM590 621v-5l-15 -6l-63 11l-35 -7l-20 7v22l4 4h37l32 6l56 -10zM334 -80v-4l-15 -8h-30l-56 16v23l5 4l71 -2l13 -4l10 -11zM399 999v-4l-6 -12l-16 -6l-47 4l2 31l33 6l18 -2z" />
<glyph unicode="4" horiz-adv-x="1097" d="M1192 1393h4l6 -19l-8 -31l-16 -30l-11 -8l-6 -23l-2 -35l-6 -4l-6 -14l-12 -12l-13 -62l-6 -4l-16 -27l-10 -26v-8l-13 -13l-4 -12l-6 -6v-17l-8 -10l-4 -33l-21 -59l-24 -49l-21 -60l-6 -6v-12l-6 -6l-12 -41h-7v-10h-4v-8h-4v-11h-4l-22 -61l-9 -14l-2 -13l-8 -4 l-18 -63l-19 -23l-14 -8l-10 6l-6 16l14 35v15l10 8l4 14l11 10l4 31l22 62v8l10 10l2 16l17 21v12l14 31l2 20l25 58l22 61l11 31l10 10l10 31l6 4l10 43h5l10 43h4v8l24 53l9 27l49 111l31 51zM1065 457l2 -2l-2 -25l-41 -47l-8 -2l-8 -12l-17 -2l-57 -33l-27 -17l-63 -14 l-47 -6l-27 -12l-12 -27l-6 -4l-9 -31l-22 -55l-8 -4l-17 -62l-6 -14l-16 -16l-17 -60l-4 -22l-32 -49l-64 -11l-33 -4l-65 11l-35 -7l-21 4l-6 23l15 14l67 2l70 -2l26 6l27 23l27 59l16 54l8 12v6l11 8v11h4v8h4l20 57l13 31l6 28l8 5v10h4v8l20 25l17 10l63 8l29 8v4 l33 4l28 11l58 34l47 45l16 19l19 -2zM825 1135l4 -2l-12 -31l-16 -17l-37 -53l-37 -39l-2 -12l-25 -23l-10 -2l-39 -30l-30 -43l-37 -49l-47 -50l-25 -20l-10 -14l-27 -15l-37 -49l-32 -39l-5 -12l-45 -45l-47 -45l-6 -6l-16 4l-6 16l16 27l45 45l14 24l25 25l29 37l36 18 l3 13l18 18v8l37 47l28 23l35 47l35 35l14 6l2 12l25 21l39 49l39 41l2 12l8 4l19 27l47 41l4 8h10zM272 319v-12l-2 -10l-6 -4l-65 4l-15 -4l-63 4l-33 -8l-33 -2l-43 6l-2 24l10 7h19l2 6l63 4h33l60 -8l41 -2l24 6zM457 315l2 -4v-8l-49 -14l-74 2l-12 6l-2 10l6 15l12 8 l22 6l13 -6l14 4l60 -8z" />
<glyph unicode="5" horiz-adv-x="1060" d="M975 756h14l10 -27l5 -31v-102l-15 -57l-4 -37l-16 -41l-25 -58l-6 -12l-12 -10l-6 -47l-5 -4l-6 -33l-22 -45l-4 -16l-13 -11l-6 -16l-24 -25l-19 -26l-2 -8l-43 -50l-6 -6h-8l-43 -49l-21 -25l-10 -2l-57 -32l-27 -23l-10 -4l-8 -14l-25 -4l-51 -19l-64 -4l-28 8l8 17 l27 16l63 8l16 6l29 23l33 6l29 14l47 45l47 48l49 47l25 20h4l2 12l24 21l6 24h4l23 60l35 51l2 8l24 21l-4 33l4 30l13 43h6l12 60l6 4l-6 32l19 62l2 31l4 6l-6 65l2 9zM1206 1280l4 -4v-23h-4l-6 -14l-24 -18l-19 -7l-45 -47l-10 -10l-10 -2v-4h-11l-4 -4l-63 -10l-15 4 l-30 -8l-27 -15l-63 -6l-21 2l-4 4h-14l-2 6l-9 2l-4 7l4 14l13 8l71 2l56 -6l32 20l56 29l57 23l19 12v8l6 2l20 25l15 6l10 10zM784 1151v-4l-6 -12l-33 -5l-65 13l-25 -2l-22 -19l-19 -28l-6 -23l-26 -55l-27 -39l-20 -6l-15 18l-2 8l12 43h5l4 23l10 8v10h4v9h4l2 14 l29 53l20 23l68 -2l35 -2l61 -13l8 -2zM657 854l2 -4v-14l-10 -15l-22 -2l-13 -10l-20 -6l-27 -15l-55 -38l-39 -35l-2 -17l-18 -26l-13 -29l-26 -18h-23l-14 12l4 18l37 37l-2 4l10 13l4 12l25 31l12 2l14 28l8 4l15 19l28 18l13 4l28 19l23 8h16v4h33zM287 410l2 4l6 -6 l2 -50l-12 -32l-2 -68l-7 -14l-10 -6l-14 6l-8 12v35l10 67l10 25zM412 -68l2 -2l-6 -14l-11 -8l-35 -4l-47 8v25l68 6zM279 672v-4l-7 -4h-16l-8 4l-6 20l16 4l14 -8zM223 -63v8h15l-5 -19z" />
<glyph unicode="6" horiz-adv-x="1044" d="M942 664h10l13 -7l8 -10l4 -33l-2 -39l-21 -131l-18 -65l-16 -27l-13 -12l-20 -29v-41l-19 -28l-12 -11l-18 -30l-9 -31l-47 -45l-4 -14l-20 -17v-10l-23 -25l-10 -2l-4 -10h-10l-45 -43l-25 -22h-8l-15 -19h-10v-4l-18 -4l-8 -10l-62 -21l-26 -12l-27 -4l-33 6l-65 -10 l-31 8l-6 6h-58l-4 6l-32 13l-9 14l2 12l56 -12l32 -12l29 -2l70 12l51 12l61 16l37 15l4 8h15l4 6l12 6l12 15l21 8l22 24l27 17l39 49l27 25l16 26l39 49l12 13l4 18l13 12l2 17l38 51l5 4l6 55l26 64l15 61l4 68l4 57zM621 748l2 -5v-10l-56 -22l-10 -11h-8l-12 -10 l-13 -4l-6 -6l-12 -2l-53 -35l-19 -22l-2 -9l-14 -8l-4 -14l-39 -45l-21 -39l-18 -27l-6 -65l-4 -4l-2 -15l-15 -33l-4 -65l-4 -59l2 -33l-10 -19l-17 2l-6 5l-8 32l-2 68l8 63l11 58l6 4l4 33l22 32l-2 9l17 61l14 14v8l8 5v8l10 6l2 12l35 35l11 4l8 19h6l37 36l61 27 l17 10l10 -2l45 17l24 2zM807 1274l10 -10v-25l-8 -4h-14l-4 -6l-33 -6l-51 -39l-48 -49l-18 -17l-10 -31l-13 -10l-4 -14l-10 -4v-10h-4v-9h-6l-4 -14l-23 -22l-18 -27l-10 -6l-7 -33l-26 -57l-31 -37l-14 -6l-19 30h4l11 19h4l10 33l33 55l6 6l8 31l37 57l23 37l26 22 l25 29l18 29l41 47l17 10l2 6h8l28 19l45 10zM1106 1151h22l7 -64l-11 -69l-12 -33l-18 -22l-25 -9l-37 2l-43 -4l-10 9v18l33 4l16 -2l31 12l14 23l14 10l3 31l6 18l-4 25l4 4l4 33zM920 981l4 -2v-23l-6 -4l-29 2v27l12 6h8zM1128 1182v-13l-14 -4l-8 4l-6 15l6 4l16 -2z " />
<glyph unicode="7" horiz-adv-x="942" d="M1155 1309l4 2l23 -4l6 -17l-2 -16l-31 -43l-8 -6l-4 -13l-25 -20l-39 -53l-18 -29l-8 -23l-11 -8l-2 -12l-30 -29l-6 -14l-13 -10v-10h-4v-9h-6l-2 -14l-39 -53l-8 -6v-11l-10 -4v-10l-21 -25l-2 -8l-25 -30l-16 -31l-27 -29l-2 -16l-12 -13l-8 -30l-41 -39v-10l-8 -4 l-4 -15l-13 -12l-10 -31l-43 -49l-12 -31l-2 -16l-33 -37l-16 -51l-13 -29l-10 -12l-6 -25l-8 -2l-17 -26l-22 -17v-10l-12 -12l-4 -15l-7 -6l-16 -61l-12 -27l-11 -4v-8l-18 -25l-25 -59l-28 -59l-6 -7l-6 -28l-7 -6l-16 -35h-8l-4 -8l-29 -7l-68 -4h-129l-8 2l-4 9l2 16 l12 6h33l4 8h74l64 4l22 13l21 26l24 60l29 59l4 10h4v11h4l6 20l13 12l4 19l6 4l10 31l14 10l21 28l4 33h6v8l14 19l2 16l11 8v9l22 24l15 31l2 22l32 46l23 28l18 39l13 10l10 37l14 8l4 15l17 24l6 17l10 10v8l23 25v8l41 49l6 6l10 31l6 6l2 10h4l4 15l21 14v8l8 10 l4 17l16 24l2 15l9 2l14 26l39 54l16 18l33 51l10 29l11 4l2 12l24 23l35 55l6 4l2 8l41 52zM563 1194l2 -4v-10l-47 -43l-6 -7l-12 -30l-11 -13l-22 -8l-8 4l-6 15l6 37l6 6l2 30l10 9l2 8l19 14h51zM461 1030l2 -2v-8l6 -6l-23 -51l-26 -33h-8v-4l-23 -6l-16 4l-8 6v10 l6 16l35 33l28 43zM801 1182l4 -2v-23l-6 -4h-21l-10 4v4l-18 -8l-72 4l-31 4l-6 4l-2 25l8 4l66 -4l51 -10l31 6zM291 950l10 -10l-6 -14l-6 -4l-19 -2l-18 4l-10 8l-2 6l16 14l18 2z" />
<glyph unicode="8" horiz-adv-x="1048" d="M932 457h18l6 -6l5 -15l-15 -45v-18l-12 -25l-2 -22l4 -4l-4 -5l4 -28l-6 -4v-11l-12 -8l-7 -26l-8 -11l-12 -30l-14 -17v-8h-5v-10h-6l-4 -23l-12 -10l-6 -12l-21 -19l-16 -24l-21 -13l-4 -8l-53 -39l-14 -18h-10l-3 -8l-12 -2v-4l-28 -9l-50 -26l-10 -12h-8v-5l-59 -10 l-35 -4l-23 -8l-45 -4l-16 6l-8 14l22 19l25 6l4 4l65 6l29 4l59 23l9 4l4 8l20 6l12 14l13 3l12 12l20 10l11 14l14 2l45 45l6 17l45 43l25 41l10 8l6 33l19 55l26 41l-2 18l13 29l8 55zM594 635v-6l-2 -8l-10 -9l-62 -2l-20 -10h-8v-4h-11v-6l-30 -8l-27 -17l-16 -16h-9 l-24 -23l-23 -43l-51 -41v-32l-4 -23l-18 -25l-13 -63l-6 -14v-17l-6 -6l2 -35l-6 -12l-17 2l-6 6l-6 68l6 53l19 51l4 19l22 30l15 9l4 32l12 27l49 49l25 23l10 14l12 2v4h9l10 10l55 17l45 14l43 6l4 -4l23 -4zM852 713l-8 8l-2 10l6 14l51 31l47 39l47 47l47 45l33 56 l2 8l10 10l15 63l10 23l20 29h15l12 -21v-26l-18 -64l-15 -20l-18 -37l-4 -15l-25 -26l-20 -13v-8l-19 -16v-8l-14 -11v-8l-47 -45l-4 -6h-8l-52 -37l-41 -20zM795 1264l2 -4v-11l-17 -14l-35 -4l-47 -37l-22 -23h-4l-2 -12l-45 -47l-23 -20h-14l-8 10l6 28l14 31l37 47 l25 25l10 2l18 18l15 4l14 11l53 8l16 -6zM580 1055h4l8 -13l-8 -49l4 -51l-6 -14l-31 -2l-6 12l-2 33l4 61l10 4v8l12 15zM1130 1260h11l8 -3l14 -26l6 -68l-6 -30l-10 -3l-14 7l-6 10v33l-11 69zM254 -68v19l63 -2l17 -2l4 -6l22 -7l7 -8v-8l-13 -10l-67 8zM952 528l2 -2 v-18l-6 -4h-16l-6 6l-2 16l6 4z" />
<glyph unicode="9" horiz-adv-x="1013" d="M877 410h4l14 -27v-16h-4l-8 -15l-6 -22l-37 -58l-15 -16l-2 -12l-24 -25l-33 -53l-16 -25l-45 -47l-48 -47l-39 -27l-22 -8l-25 -22l-14 -8l-10 -13h-10v-6h-9v-4h-10v-4h-8v-6h-10l-6 -6l-13 -2v-4l-47 -9l-63 -20l-29 -6l-68 8l-67 10l-17 12l-2 23h33l33 -12l37 -2 l61 10h33l29 8l45 18l53 33l12 13l23 6l4 8h10l49 43l47 43l86 94l35 59l41 50l10 8l2 12l9 14l8 7l2 18l6 14l10 9zM770 1264l-2 -7v-10l-8 -4h-15l-4 -4l-30 -8l-43 -29l-11 -14h-8l-49 -45l-16 -25l-13 -10l-34 -59l-17 -29l-6 -4l-12 -31l-6 -6v-8l-15 -25l-22 -67 l-19 -62l-10 -55l-6 -17l6 -32l-14 -8l-15 6l-6 12l-8 68l4 30l10 13l13 34l2 31l18 62l17 43l12 12l4 14l10 10l10 29l27 35v6l18 18l7 15l41 47l49 47l6 6l14 4l2 8l56 19l28 8l25 -4zM1038 850h15l4 -6l-2 -17l4 -32l-6 -11v-14l-19 -37l-8 -65l-8 -13v-8l-8 -12v-14 l-9 -23h-6l-24 -53l-17 -43l-18 -45l-14 -6l-15 8l-6 14l6 33l17 43l10 12l10 33l6 4l8 14l5 25h6l4 27h4l22 61l7 8v55l8 29l12 10zM655 532l2 -2l-6 -20l-22 -21l-31 -14l-66 -18l-65 -11l-8 -4l-66 9l-33 6l-12 8l-6 18l14 9l64 -9l63 6l62 21l24 6l43 23l13 10h10z M1069 879l-4 -2h-23v65l7 23l-5 28l9 51l6 5l6 36l-8 25v64l-4 24l12 19l14 -7l15 -22l4 -70v-8l-15 -27l7 -34l8 -13l-8 -90h-5l-4 -33zM283 377h4l8 -29l-16 -65l-5 -43l-20 -35l-6 -2l-19 28l-2 31l13 72l26 41z" />
<glyph unicode=":" horiz-adv-x="663" d="M745 680l5 -2v-16l-5 -7v-14h-6v-8l-20 -29l-4 -12l-43 -41l-66 -16l-37 -3l-53 11l-10 10v16l12 6h62l30 7l56 36l36 52l3 6l12 8l4 8h10zM274 -86l-2 4l2 14l13 11l49 4l31 10l49 43l35 53l16 19l22 -23l5 -14l-2 -17l-56 -79l-12 -2v-5h-8l-27 -12l-61 -12l-35 -2z M453 152l4 2l24 -4l13 -19l2 -16l-7 -25l-16 2l-10 10l-12 31zM721 754v4l27 -2v-15l-13 -8h-8z" />
<glyph unicode=";" horiz-adv-x="663" d="M494 -12l-15 -15l-10 -28l-4 -25l2 -10l-41 -49l-39 -51l-14 -31l-56 -39l-34 -33h-9l-16 -18l-6 -2l-2 -9l-21 -20l-55 -33l-6 -6l-12 -2l-11 -14h-8l-4 -6l-14 -7l-25 13v8l29 39l14 4l10 12l23 10l55 43l27 19l24 24l23 11l43 51l41 43l4 14l10 4l2 15l25 49l22 20 l7 35l22 35h8l15 -37zM725 768v4h14l15 -27v-73l-4 -33l-13 -16l-4 -13l-24 -26l-39 -29l-33 -10l-8 -10l-66 -7l-4 -2l-12 11l-8 2l-11 12l-2 8l29 14l63 13l15 4l10 10l27 16l26 23l2 12h4v8l15 29l4 29h4l-4 31zM461 152v4h16l17 -15l12 -65l-6 -15l-6 -4l-15 2l-10 11 l-10 67l-2 8z" />
<glyph unicode="&#x3c;" horiz-adv-x="1310" d="M1298 963l5 2h18l4 -4v-9l-12 -30l-2 -17l-19 -33l-6 -6l-2 -12h-4v-10h-6l-8 -29l-9 -35l-26 -35l-12 -2v-6l-33 -8v-4h-8l-25 -12l-23 -6l-4 -7l-30 -8l-62 -26l-47 -7v-4l-63 -16l-43 -16v-5h-11l-10 -10l-61 -16l-25 2l-31 -12l-20 -15l-14 -4l-35 -22l-62 -17 l-30 -12l-23 -4l-35 -16l-10 2l-6 8h-4l-2 10l4 14l26 17l29 8l12 10l25 4l12 8l33 7l6 6l29 6l22 10l50 10l6 6l26 9v4h11l10 12l33 10l51 9l26 16h7l24 16l33 6l6 7l45 12h16l60 24l49 13l51 41l6 6l2 14l29 45l21 56l12 10l16 28zM1010 233h6l10 -22v-12l-8 -19l-14 -10 l-13 -16l-4 -37l-8 -31l-16 -23l-9 -2l-14 7l-12 20l4 33l16 24l29 31l2 37l6 12z" />
<glyph unicode="=" horiz-adv-x="1241" d="M1024 422h12l8 -14l-2 -17l-26 -33l-4 -28l-23 -62l-12 -30l-10 -15h-9l-14 -14l-63 -2l-47 6l-60 -6l-67 2l-23 4l-8 -4l-127 4l-53 -2l-9 6l-32 -4h-64l-31 -4l-59 6l-35 -2l-63 4l-66 -4l-43 -4l-12 14v10l10 11l41 -2l55 10l72 -2h35l33 6l63 -10l33 4l49 -8l62 12 l65 -4l66 -8h32l64 10h65l33 4l33 -6l31 4l22 18l35 58v8l8 10l27 64zM1208 813l4 -2v-16l-28 -56l-19 -63l-18 -29l-12 -12l-13 -2l-10 -8l-61 -9l-64 -6l-33 6l-63 -4h-57l-15 6l-10 13l8 14l31 8h63l66 6l65 -6h31l27 19l14 18l25 62l28 59l13 12l16 2zM535 641l2 -4v-14 l-11 -7l-8 2l-24 -6l-17 4l-14 11l-57 -13l-74 -2h-17l-12 6l-4 9l4 14l12 8l56 4l12 -4l31 -2l24 -8l6 6h9l6 -6l22 10zM772 627v-6l-61 -5l-68 -4l-6 -4h-16l-50 15v16l45 14h33l37 -8l33 8l43 -2l12 -16z" />
<glyph unicode="&#x3e;" horiz-adv-x="1306" d="M1155 608h19l8 -14v-33l-21 -57l-6 -6l-12 -27l-19 -25l-4 -12l-26 -24l-60 -23l-65 -12l-15 -2v-6h-8l-22 -13v-6h-11l-24 -14l-35 -8h-14l-43 -19l-9 -10l-65 -10l-27 -17l-10 -10l-29 -2l-59 -20l-66 -23l-63 -22l-43 -15h-4l-4 -6l-64 -8l-16 -4l-12 -13l-13 -4 l-6 -6l-57 -20l-60 -25l-61 -14l-59 -27l-15 -4l-24 6l-6 21l6 14l24 10l4 11l66 10l29 16l59 23l66 14l30 12l25 4l26 17l62 22l14 4l15 11l34 16l35 2l4 6l47 6l13 13l61 14l62 27l61 24l61 19l31 8l41 20l57 9l15 10l14 2l4 8l15 4l6 6l47 6l33 23l2 14h6v8h4l4 25l10 8 v10h4l4 23l17 45z" />
<glyph unicode="?" horiz-adv-x="962" d="M1069 1200h10l15 -6l6 -31l6 -10l-4 -63l-4 -54l-6 -4l-9 -14l-2 -14l-14 -37l-12 -9l-2 -12l-13 -8l-18 -27l-12 -8l-2 -12l-11 -10l-6 -25l-24 -20l-15 -23l-28 -25l-11 -18l-24 -20l-4 -15l-51 -45l-31 -16l-19 -23l-24 -20l-4 -13l-47 -43l-23 -24l-27 -21l-22 -24 l-4 -17l-27 -32v-8l-18 -23l-8 -20l-21 -27l-29 -17l-22 -6l-6 4h-15l-12 15v8l10 12l15 4l45 43l6 7v8l18 14l2 12l17 11l4 14l18 24l2 9l19 20l2 12l24 21l7 14l24 19l10 12l15 4l4 8l16 8l43 48l82 81l2 13l49 37l43 47l29 41v10l10 4l4 14l9 4v9l18 24l22 58l13 69l4 64 v4h4zM604 1192l2 -2l-2 -6l4 -19l-8 -2v-10h-4v-8h-4l-17 -29l-6 -4l-8 -31l-10 -22v-8l-6 -4l-4 -66l-15 -25l-24 -28l-13 -2v-4l-30 -4l-35 4l-70 -9l-16 2l-19 11l-2 8l7 14l10 8l33 5l63 -3l8 5h15l36 28l3 35l18 59l12 31l39 55l17 23l10 2zM475 100h25l4 -6l4 -41 l-8 -33l-37 -55l-27 -24l-10 -15l-12 -4l-13 -10l-26 -4l-10 -6l-35 4l-2 4l-33 4l-4 6l2 19l6 6l14 4l33 -2l14 4l13 10l14 4l10 12l9 3l28 22v10l8 4v11h7v8l24 59zM754 1282l4 -12v-15l-62 -22l-32 -10l-35 10l2 14l8 15l23 8l6 6l59 10l14 2zM422 379l2 -4l-6 -15 l-12 -8l-23 -2l-14 19l6 16l16 6l17 -2zM492 119l-3 -4h-10l-10 8l-2 14l16 4l11 -10z" />
<glyph unicode="@" horiz-adv-x="2080" d="M1452 1147v-12l-2 -11l-6 -4l-51 13l-15 6h-55l-33 10h-65l-31 -8l-18 -11l-33 -10l-39 6l-31 -8l-37 -16h-47l-14 -8l-27 -29l-14 -4l-29 -29l-14 -4l-51 -37l-27 -14l-37 -33l-16 -26l-43 -50l-45 -49l-25 -20l-2 -13l-6 -6l-2 -12l-10 -4v-10l-9 -4l-4 -19l-14 -10v-8 l-25 -21l-12 -57v-14l-6 -7l-14 -49l-25 -57l-12 -41l-4 -66l-10 -63v-64l-9 -30l15 -62l4 -63l-6 -25l14 -31l-14 -6l-9 2l-22 60l-16 63l-3 33l11 66l-4 65l12 64l4 63l12 64l21 59l18 59l19 31l6 4l-2 8l10 21l8 4l4 8v14l15 17l2 10h4v10h4l14 29l14 12l3 15l47 47 l90 102l28 19l50 41l24 18l17 6l10 14l28 17l35 8l19 2l30 12l5 9l26 16l33 2l61 18l60 13l67 4l68 -4l61 -11l62 -14zM1892 973l2 4l13 -4l16 -27l19 -65l12 -29l12 -64l6 -63l2 -61v-35l-14 -66v-65l-8 -35l-29 -62l-45 -118l-12 -25l-8 -6l-3 -12l-8 -4l-4 -15l-10 -4 l-2 -12l-6 -6l-2 -13l-8 -2l-11 -10v-8l-8 -4l-4 -15l-8 -4l-17 -26l-45 -47l-30 -37l-31 -25h-8l-11 -14h-8l-18 -19l-19 -4l-10 -12l-59 -25l-33 -12l-33 -6l-4 -6l-28 -8l-62 -2l-53 4l-15 6l-10 10l6 17l13 4l34 -7l66 9l25 4v6h10v4l65 14l31 13l27 16l12 12h8l53 54 l46 12v4l14 10l29 55l18 17l2 10h6l2 12l17 25l6 16l24 21l27 28l2 15l8 10l14 55h5l20 56l16 30l5 25l24 59l6 47l-6 64l12 65l-6 68l-14 61v48l-27 59zM1575 854l4 -2l4 -8l-18 -43l-37 -60l-10 -65l-9 -23l-10 -10l-22 -59l-13 -33l-6 -6v-8l-12 -13l-4 -12l-6 -6 l-19 -60l-22 -43l-2 -16l-4 -4l-15 -57l-24 -52v-8l-11 -14l-12 -64l-2 -32l-8 -15l-8 -4l-9 2l-8 8v31l8 70l17 63l8 31l25 47l18 64l27 59l24 59l27 62l20 61l21 56l16 41h6v10h4l3 12l26 39l12 8zM1186 758l2 -4l-2 -19l-43 -22l-19 -23l-12 -2l-45 -49l-14 -21l-23 -12 l-22 -59l-27 -64l-14 -39l-11 -10l-8 -59l-6 -6l-22 -58l-7 -63l-2 -17l-6 -12h-26l-7 6v56l7 10l4 51l4 4l4 29h4l6 33l4 4l2 16l25 64l24 45l11 34l18 25l19 14l4 23l12 10l12 27l12 10v10l15 8l2 13l51 41l31 8l10 8h23zM1546 -297l4 -2l-2 -18l-41 -31l-8 -10h-8 l-10 -11l-15 -2l-14 -10l-14 -4l-13 -10l-30 -6l-31 -13l-12 -14h-9l-10 -10l-61 -13l-60 -16l-65 -16l-29 -6h-63l-66 4l-43 12l-4 8l4 10l15 11l30 2l31 -9h51l4 5h33l31 12l33 6l40 -4l25 4v4h10v4h8l48 25l61 22l57 31l15 8l14 2l10 13l15 2l10 10l26 16l15 2l16 -4z M1104 119l2 -4l2 -6l-6 -15l-47 -43l-39 -28h-12l-11 8v10l6 16l11 13l20 12l19 27l24 20h19zM901 -469v-6l-33 -2l-61 16l-31 12l-22 5l-6 6l-5 14l7 4l2 -4l30 -2l41 -12h35l31 -6l10 -9zM948 16v-26l-28 -8l-33 14l-4 6l2 8l26 13l19 4zM852 -10l-2 -6h-19l-14 6v14l23 4 l10 -10zM719 -412l2 2h8l4 -16l-4 -6h-10l-4 8zM500 41l2 4l10 -4l-6 -10l-8 4z" />
<glyph unicode="A" horiz-adv-x="1765" d="M1960 449l4 -3v-16l-14 -29l-37 -55l-33 -57l-39 -53l-37 -33l-2 -13l-10 -4v-8l-6 -4l-2 -10l-10 -4l-5 -15l-26 -16l-4 -8l-43 -31h-6l-13 -12l-57 -17l-21 -12l-71 -10l-33 -6h-35l-14 -4l-29 -27l-18 -53v-4h-4l-11 -41v-19l-4 -6v-35l-6 -6l-16 -63l-12 -33l-7 -29 v-18l-18 -70l-12 -14l-25 4l-6 12v33l8 35l25 53l6 64l14 30l8 31l2 41l7 4l18 59l23 64l14 27l12 8l64 -2l61 2l68 12l53 41l16 14l15 4l47 41l45 45v9l18 24l10 21l27 20v10l8 5v8l11 6v8l8 4l6 25l12 33h6l2 14l11 8l2 12l26 21l17 -2zM1501 1362l4 -2l2 -17l-18 -38 l-2 -15l-6 -4v-4l-15 -10l-6 -15l-22 -24l-2 -12l-11 -15l-8 -30l-22 -39l-45 -50l-9 -6l2 -10l-6 -27l-10 -10l-8 -22l-8 -4v-11l-8 -2l-5 -14l-12 -10l-12 -29l-35 -55l-33 -60l-16 -18l-4 -16l-39 -50l-19 -28l-4 -23l-30 -49l-4 -12l-9 -4l-4 -13l-12 -10l-8 -20l-6 -6 l-4 -21h-7v-8h-4l-2 -12l-28 -48l-2 -10h-5l-2 -12l-22 -18l-23 -7l-12 15l-2 14l4 16l35 56l37 39l28 57l13 20l4 15l10 10l2 14l12 13l4 14l7 6l2 12l24 29l15 33l34 53l31 53l12 23l13 8l6 14l18 19l6 26l27 58l35 35l6 14l10 6l2 16l21 35v11l10 4v8l14 10v8l11 11l2 14 l12 12l6 25l14 8l5 14l18 23l29 49h24zM1638 979h19l10 -12l-8 -47l-10 -41l-9 -35l-24 -60l-10 -28l-4 -37l-21 -55l-8 -35l2 -31l-4 -31l-25 -61l-18 -64l-19 -61l-20 -62l-12 -8h-15l-6 17v14l12 31l11 61l22 62l6 30l15 33l8 64l8 14v8h4l8 57l6 5l9 43l8 14l6 49l18 47 l13 25v33l22 53l6 4v4zM494 449v-7l-7 -4l-22 4l-4 -4l-33 8l-70 3l-65 -9l-35 -8v-4h-10v-4h-8v-6l-15 -2l-14 -19l-14 -2l-23 -22l-2 -13l-10 -10l-12 -24v-9l-7 -6l-6 -65l-2 -6l-8 -7l-23 5l-8 24l-6 8v33l8 35l27 57l18 25l56 43l20 6l10 10l56 4h73l66 -6l22 -2 l29 -16l14 -4zM838 250l4 -2l2 -8l-10 -31l-13 -21l-6 -2l-16 -24l-29 -25l-8 -14l-6 -4l-4 -13l-23 -24l-18 -6l-9 -13l-12 -4l-20 -26l-15 -4l-22 -23l-29 -18l-18 4l-4 10l2 14l16 27h10l2 6l27 21l10 12l21 8l39 41l12 23l14 6l4 8l19 14l4 15l12 8l2 14l10 10l7 15 l20 16h8zM1745 1378h14l13 -14l-3 -31l-18 -57l-8 -6l-4 -13v-32l-17 -64l-16 -53v-8l-10 -13v-38l-6 -5l-2 -8l-33 -37l-6 -2l4 17l-4 33l12 63l14 64l11 43l10 26l6 35l20 49zM530 -14l5 -2l2 -19l-15 -18l-45 -23l-63 -14l-35 4l-14 8l12 12l14 7l12 12l52 12l34 21l27 4 zM346 -70v-4l-2 -12l-10 -8l-35 -4l-74 8l-12 6l-2 14l4 11l27 4l71 -4l31 -7zM1743 1487l2 4l20 -2l7 -14l2 -37l-7 -37l-8 -4l-6 2l-10 12l-6 33zM178 -63v-5l-16 -6l-35 19l12 10l13 2l18 -4l6 -6z" />
<glyph unicode="B" horiz-adv-x="1730" d="M1669 274h4l4 -32l-12 -66l-29 -61l-8 -31l-33 -41l-4 -14l-10 -11l-12 -26l-43 -47l-13 -2l-22 -25l-51 -41l-17 -6l-8 -10l-12 -2l-27 -15l-63 -16l-37 -8l-21 -6l-67 2l-58 4v4l-16 2l-10 10l6 19l10 8l64 -6l61 4l68 14l49 27l61 22l25 17l47 47l21 16v10l10 4l4 15 l18 18l4 15l37 53l6 16l7 6l16 45l10 9l10 67l17 17zM1178 1505v-6l-7 -14l-14 -6h-49l-61 -17l-35 -16v-4l-64 -6l-53 -45l-21 -25l-12 -2l-14 -18h-8l-23 -23l-39 -51l-22 -25v-8l-11 -14l-4 -15h-4v-8h-4l-2 -12l-26 -35l-9 -65l-14 -56l-2 -63l-12 -21l-11 2l-10 11 l-2 12h-4l-2 10l8 66l8 59l2 23h5l4 14l12 8l4 33l20 47l17 45l22 37l13 2l30 41l45 43l50 41l30 10l33 4l8 8l15 4l4 9h10l12 12l15 2l10 10l59 15l31 -7l49 11l21 -9zM1126 733v-4l-32 -6l-31 -16l-14 -27v-8l-7 -4l-20 -62l-10 -26l-33 -56l-12 -18l-13 -62l-10 -28 l-6 -6l-2 -15l-10 -12l-2 -12h-6v-9h-5v-10h-4v-8h-6l-6 -35l-6 -14l-19 -21l-14 -8l-14 -2l-15 29l29 55l23 49l28 62l23 57l6 14l16 17v14l11 19l4 32l16 25l21 63l6 5l10 30l14 19l13 2l8 10l39 -6zM1772 1145h8l16 -8l6 -15l-8 -63l-4 -23l-16 -41l-13 -8l-16 -31 l-12 -10l-2 -14l-23 -25l-14 -22l-27 -29l-51 -33l-6 -6h-11l-8 -14l-43 -12l-57 -25l-16 2l-11 6l-4 21l13 6l6 10h14l4 6l31 6l31 13l49 38l6 7h8l49 47l2 14l10 4l5 15l10 4l2 12l16 20l4 15l11 6v8l6 6l14 60v16l10 25zM1315 1303l6 14h18l13 -29l2 -22l4 -4l-2 -17 l-10 -20l-19 -19l-14 -4l-43 -43l-25 -26l-2 -11l-26 -24l-3 -13h-4l-16 -51l-18 -45l-7 -6v-8h-6l-2 -27l-18 -18l-25 -2l-6 24l6 33l23 55l28 60l15 28l12 13l2 12l21 16v9l45 45l28 18l19 29zM698 45l2 -2v-14l-12 -11l-4 -14l-6 -6l-10 -2l-4 -10l-15 -6l-20 -19l-13 -2 l-4 -10l-14 -4l-23 -23l-28 -18l-8 -10l-62 -17l-31 -10l-61 -2l-59 -12h-19l-14 6l-33 2l-20 22l2 6l28 7l33 -5l64 5l36 2l60 24l29 8v4l14 5l8 10h10v6l27 8l29 19l8 10h10l4 8l25 18h8l37 33zM393 279v-19l-59 4h-37l-31 -8l-28 -20l-21 -21l-12 -37l-10 -14l-9 -2 l-14 6l-8 10l-4 17l2 18l12 25l37 43l12 2v6h8v4h11v4l26 4l8 -2l25 8l47 -6l33 -12v-4zM678 844h22l9 -15v-30l-7 -13l-53 -43l-12 -8l-10 -16l-15 -4l-4 -10l-47 -19l-18 19l4 16l51 43l47 41zM1794 1190l-4 -2l-18 8l-9 68l-10 63v8l14 11l15 -7l12 -26l2 -33l12 -72 l-4 -12zM1335 1489v-14l-6 -5h-18l-64 15l-14 4l2 18l6 13h33l51 -19zM1626 530l2 5l17 -3l12 -20l16 -66l-4 -20h-14l-19 20l2 19l-14 55zM825 242h4l7 -23l-7 -14l-6 -2l-20 10v10l8 13zM1661 369l4 2l14 -6l4 -17l-6 -4h-20l-6 4v10zM1372 1470v-4l-6 -4l-14 8l-2 9l6 4 l8 -2z" />
<glyph unicode="C" horiz-adv-x="1431" d="M1618 1214l4 3h4l4 -9l-4 -14l4 -33l-6 -33l-10 -28l-6 -35l-17 -25l-12 -30l-37 -47l-10 -33l-14 -29l-41 -47l-39 -51l-72 -72l-20 -12l-25 -23l-12 -4l-54 -37l-18 -18l-55 -25l-33 -12l-25 -18l-14 -2l-12 -13l-56 -4l-51 -26l-63 -13l-17 -2l-12 -8l-61 -2l-64 -8 l-35 -4l-24 -15l-8 -10l-13 -45l-10 -10l-8 -55l-6 -74l-4 -35l-7 -14l-20 -17l-16 29l4 65l8 64l16 68v16l21 25l26 40l15 9l24 4h76l61 10l64 14l63 19l62 18l43 12v7l12 2l58 32l55 31l18 19l21 8l4 8h8l4 8l10 2l4 10l13 3l24 24l19 25l49 47l22 30l29 29l2 12l51 52 l7 24l26 47l12 33l2 16l21 31l14 53l13 19l8 4zM1311 1419v-6l-11 -14l-61 -6l-57 -37l-45 -35l-2 -6h-11l-4 -15l-22 -22l-19 -29h-4l-6 -12l-39 -37l-6 -14l-10 -10l-8 -23l-33 -25l-2 -8l-23 -22l-8 -31l-18 -43l-11 -14l-4 -15l-28 -24l-5 -31l-8 -14v-15l-18 -18 l-2 -12l-21 -13l-2 -8l-4 -2l-4 -16l-6 4l2 63l14 27l6 14l11 8v9l10 4l8 28l6 9l8 32l17 31l16 21l4 16l11 8v8l8 4l4 17l6 8l2 14l25 27v6l49 47l18 35l41 45l12 10l7 15l36 28l11 17l41 20h8v4l33 15l26 6l35 -2l16 -6zM1593 453h15l8 -15l-4 -22l-6 -6l-2 -13h-7v-10h-4 v-8h-4l-12 -23l-12 -10l-6 -14l-13 -10l-10 -39l-16 -29l-23 -25v-4l-29 -16l-41 -31v-18l-6 -15l-12 -8l-20 -4v-8l-7 -4l-12 -27l-18 -26l-25 -23l-29 -16l-10 -13l-12 -2l-12 -16h-7l-34 -37l-15 -4l-26 -20l-21 -9l-12 -12l-14 -4l-19 -16h-10l-4 -9l-37 -18l-14 6l-4 6 l-23 -8v8l10 13l17 6l2 6l51 39l55 22l12 10l15 5l49 43l16 24h9l14 19l14 4l41 43h4v4h27l14 8l6 12l2 17l35 49l15 6l4 22l24 23l35 55l25 31l8 23l8 2l10 20l6 4l13 33l8 4l6 14l14 7v4zM432 1366l2 -4l2 -16l-20 -27l-49 -47l-7 -17l-43 -38l-16 -31l-12 -58l-13 -63 l-14 -66l-12 9l-14 39v18l-7 22l7 15v24l10 15l16 57l10 31l35 51l25 31l14 8l4 14l15 4l18 25h10v4h8v4l15 2zM995 -117l4 -2l-2 -16l-20 -21l-47 -18l-47 2l-33 -8l-35 -2l-37 12l-24 -12l-33 -2l-68 16l-32 14l-13 19l2 8l17 4l63 -12l45 -6v-4l31 -5l6 -6l33 11l63 2 l64 18l33 6l14 6l2 4h8zM1591 1479l2 4h15l12 -31l14 -18l11 -66l10 -47l-6 -33v-35l-4 -16l-11 -10l-10 2l-14 18l-4 66l6 20l-4 6l-4 64l4 33l-2 14l-13 8l-4 8zM788 823l3 4l18 -8v-8l-8 -16l-4 -25l-19 -16l-24 10v10l16 14zM664 201l2 -4v-11l-9 -16h-10l-18 14l2 21 l10 8h12z" />
<glyph unicode="D" horiz-adv-x="1927" d="M1952 870h22l11 -30l-3 -33l-8 -21l-8 -63l-12 -68l-8 -18v-23l-13 -36h-6v-11h-4v-8h-4l-10 -55l-4 -4l-15 -58l-37 -55l-6 -4l-4 -35l-12 -39h-4v-10l-15 -18v-9h-4v-10l-36 -51l-27 -33l-2 -14l-27 -23l-37 -51l-4 -8l-12 -10l-16 -27l-50 -45l-22 -23l-12 -2l-11 -12 l-10 -2l-8 -14l-14 -4l-21 -17l-12 -2v-6l-33 -8l-18 -14l-21 -7l-10 -12h-10v-4h-11v-4l-22 -6l-4 -8h-10v-7l-64 -12l-6 -4l-66 -10l-32 -8l-66 4l-70 2l-10 8v27l6 4l60 -6h65l62 12l33 10l65 10l31 9l30 24l37 14l9 11h10v4h8v4h10v6l31 14l47 43l21 23l53 39l12 20 l47 49l15 31l22 25l35 47l4 20l35 47l2 13h4l14 28l25 27l4 14l6 6l2 13l4 4v16l15 58l22 67l6 31l25 45l10 55l6 72l10 31l5 65zM1391 1255h4l10 -30l-2 -17l-19 -18v-4l-6 -4l-18 -2l-17 -19l-14 -8l-26 -47l-15 -33l-22 -41l-19 -22l-6 -15l-8 -4l-2 -12l-10 -12l-2 -9 l-11 -10l-8 -55l-14 -19v-8l-6 -6l-9 -31l-14 -28v-10h-4v-9h-4v-10h-4l-4 -24l-25 -58l-12 -33l-21 -24v-8l-18 -25v-33l-14 -26l-13 -56l-30 -59l-9 -33l-18 -43l-31 -55l-14 -33v-10l-10 -4v-8l-6 -4l-2 -11l-15 -10l-2 -8l-20 -23l-13 -2l-4 -6h-16l-10 17l4 14l20 22 l6 15l13 8v10h4l2 12l18 31l2 12h4v11h7v8h4v10h4v8h6l2 13l27 49l20 51l8 29l12 26l5 19l4 4l4 22l6 6l4 15l23 30l4 35l8 31l20 41l11 10l2 15l24 32l2 35l8 33l31 53l14 55l11 13l2 14l12 19l2 26l39 39l2 12l16 25l11 29l8 4l6 14l23 21l18 2l6 14l23 22l22 41z M1108 1454l4 -4l-8 -16l-27 -15l-30 -8l-56 -31l-55 -32l-4 -11l-12 -2l-7 -8l-10 -2l-8 -12l-10 -2l-11 -15h-8l-4 -10h-10l-4 -8l-14 -4l-19 -29l-20 -22l-15 -29l-10 -33l-10 -8v-10l-10 -4v-11l-23 -20l2 -18l-6 -3v-8l-10 -10l-4 -65l-7 -41l-8 -37l13 -66l6 -14l4 -31 l14 -31l4 -28l-4 -17l-14 -8l-2 -12h-4l-9 -17l-51 -34l-49 -39l-8 -4l-14 2l-11 6l-2 10l4 14l23 25l29 16l49 43l12 13l8 26v19l-6 14v21l-10 8v14l-10 18v15l-4 4v65l6 68l2 29l10 28l12 11l13 28l18 27v18l10 27l29 27l2 16l18 27l13 10l22 43l37 37l12 2l23 18l29 15 l18 14l57 24l13 11l28 8l13 10l36 10l15 -4zM707 6l2 -4v-10l-23 -23l-29 -14l-18 -4l-51 -39l-10 -12l-64 -15l-61 -18l-64 -6l-67 -6h-17l-47 18l-35 -4l-14 2l-10 10v10l8 11l8 4l35 -4l26 -17v-4l33 10l66 5l61 10l64 16l57 27l49 10l21 27l39 26l10 8l24 -6zM287 293 l4 -2l-2 -19l-27 -12l-43 -49l-6 -4l-12 -35l-15 -16l-22 4l-8 14l-4 19l4 22l20 35l23 26l18 5l8 6v4l29 -6l22 10zM1956 1036h18l8 -32v-37l-4 -15l-16 -14l-6 4l-10 29l-2 41zM1944 1122l2 2h14l14 -28l4 -33l-4 -12h-22l-13 30v33zM1255 1460v-6l-30 -8l-17 4l-12 8 l-6 15l41 12l14 -4l8 -11zM1921 1200l2 4l19 -2l8 -12v-16l-4 -13l-17 2l-10 13zM1360 1464l2 4l6 -4l2 -8l-4 -6h-4l-4 6z" />
<glyph unicode="E" horiz-adv-x="1277" d="M1190 465h4l8 -2l8 -12l2 -33l7 -4l4 -64l-4 -63v-68l-5 -29l-24 -63l-4 -25l-12 -8l-19 -61l-35 -56l-18 -22l-29 -25l-6 -14l-27 -22l-20 -25l-51 -33l-35 -16l-4 -8l-47 -15l-64 -24l-18 -13l-31 -4l-55 6l-2 17l10 10l63 8l62 23h8l51 39l15 8l14 2l8 12l27 15l45 45 l43 53l20 20l4 15l19 14l10 29l10 12l19 43l12 12l8 47l6 11l21 135l-12 59l-5 68zM1546 1358l6 6h23l4 -23l4 -4l2 -32l-14 -64l-23 -59l-20 -52l-25 -24l-8 -14l-51 -39l-45 -37l-33 -4l-29 -15l-28 -8l-66 -6l-63 -8l-62 8l-33 8l-20 17v10l6 6l31 2l63 -8h64l63 12l8 4 l25 -4l31 12l28 35l15 4l22 17l47 45l25 35l10 28l19 27l6 24l6 5v16l4 10l-4 25l4 6v14zM664 700l2 -4l-9 -14l-6 -4l-63 -4l-58 -6l-45 -29l-10 -2l-49 -39l-47 -49v-10h-6l-31 -60l-8 -14l-6 -4v-10l-4 -5l-11 -63l-4 -16l-6 -5v-32l-10 -21l-17 -6l-6 2l-6 12l4 70v33 l4 22l4 4l7 31l28 58l13 28l38 47l23 25l18 12l11 15l20 8l6 6l13 4l12 10l61 15l27 8l35 4l59 -4l12 -6zM1210 1438l2 -4v-11l-8 -10l-63 -4l-70 -14l-20 -9l-4 -8l-29 -18l-23 -23l-26 -16l-21 -2l-14 12v17l16 24l27 21l55 30l17 2l22 13l64 6l45 10l16 -2zM680 -231h4 l-2 -7l-29 -16l-24 -8l-37 -4l-39 6l-16 6l-50 2l-34 16l-11 15l-10 -2l-39 14l-2 14l15 7l18 -2l25 -17l61 -10l68 -6l67 -2zM987 764l4 -2l-2 -14l-8 -19l-41 -53l-16 -27l-11 -12l-22 -16l-21 -3l-10 23l4 14l8 2l5 13l12 8l10 20l8 4l35 56l21 22l10 -2l12 -8zM854 1692 l2 -2l4 -29l-4 -70l-2 -8l-20 -8l-9 4l-4 68l-2 30l6 15h29zM289 233l2 5l14 2l6 -15l6 -2v-8h7l6 -27v-26l-6 -6l-15 6l-18 26l-6 31zM844 1026l2 4l20 -2l8 -14l3 -25l-13 -10h-8l-12 10v37zM864 1128h6l9 -22l-2 -8l-9 -6l-24 2l-6 6l4 14l10 12z" />
<glyph unicode="F" horiz-adv-x="1439" d="M1493 770h4l19 -31l-23 -57l-39 -45l-63 -2h-74l-27 -19l-28 -41l-2 -12l-11 -20l-8 -31l-20 -33l-4 -18l-7 -6l-6 -31l-8 -10l-8 -25l-12 -12l-2 -25l-11 -10l-2 -23l-12 -24l-8 -31l-11 -10l-8 -29l-16 -18l-4 -14l-12 -13v-14l-15 -31l-18 -26l-23 -56l-18 -26h-4 l-6 -13l-25 -26l-8 -17l-12 -12l-17 -31l-43 -37l-12 -4l-41 -41l-39 -18l-49 -27v-4l-37 -20l-29 -13l-59 -12l-29 -10l-74 -10l-20 8h-16l-4 4l-27 2l-6 4l-4 -6l-64 8l-14 8v23l31 4l65 -6h51l13 6l65 4l57 19l54 16l10 10l25 8l8 13l55 28l47 43l49 47l25 21l16 24 l19 15l10 31l6 4v8l18 24l9 23l22 31l2 10h4l23 33l8 26l2 21h4v8h4l11 33l28 45l17 30l10 60l18 51l11 23l8 4l26 55l4 29l25 53l18 27l64 12l53 2l4 -6h21l26 12l21 18l2 13l10 8l4 18l21 25zM1659 1554l2 5l16 -3l6 -4l9 -36l6 -5l8 -41l-4 -14l-6 -2l-47 -45l-27 -23 l-8 -16l-45 -47l-2 -16l-15 -19v-8l-12 -23l-10 -10l-10 -26l-7 -35l-20 -41l-4 -19l-10 -4l-21 -59l-14 -29l-23 -59l-24 -66l-11 -24l-10 -8v-11h-4l-4 -32l-6 -15l-21 -16h-16l-12 18l2 15l14 22l2 14l6 7l6 26l15 41l10 8l2 15l10 12l6 20l11 15l10 39l-2 6l8 4l6 25 l11 14l16 41l16 51l13 10v8l10 15l10 53l18 35l13 10l10 29l31 47l43 49l14 6l25 25l8 18l4 2l-6 33zM500 580h24l4 -66l4 -12v-25l-4 -4l7 -29l-3 -18h-4l-14 -20l-61 -19l-56 -18l-57 -33l-37 -33l-14 -59v-8l-8 -11l-9 -32l-12 -13l-12 2l-8 27l12 70l10 28l21 31l4 14 l24 19l17 20l10 2v6l12 2l29 15l16 4l8 6l33 2l31 14l18 19l4 65l3 39zM672 1423v-4l-2 -8l-11 -8l-69 -4l-47 -4l-23 -11l-28 -20l-29 -29v-8l-23 -24l-16 -31l-4 -62l-2 -14h-19l-10 6l-4 10v74l8 29l15 31l10 4v8l49 45l4 4l16 2l5 6l28 17l33 10l63 -4h31l17 -4z M799 983l4 -4l4 -14l-43 -47l-8 -3l-11 -12l-30 -6l-33 -16l-64 -7l-61 -8l-70 6l-32 7l-9 8v18l13 8l65 -4l64 4l39 2l10 9l61 20l21 10v4l20 13l13 2v6l26 8h19zM1253 1335l2 -4l2 -6l-6 -22l-24 -5l-66 11h-35l-47 18l-4 12l12 7l35 -3l13 -4l14 7l63 -5zM870 1399l2 -2 l-2 -11l-10 -6l-33 2l-28 9l-17 -5l-30 7v4l-23 2l-6 6l2 16l8 13l47 -9l13 -10l32 -8l9 -6zM975 672h4l-2 -29l-68 -8h-8l-14 8v21l10 10l35 4zM977 1366l2 -2l-4 -14l-19 -4l-55 20l-2 16l25 4l49 -14zM276 145l3 -2v-4l-9 -4l-18 2l-2 6l8 4z" />
<glyph unicode="G" horiz-adv-x="1636" d="M1821 455l4 -2l2 -11l-19 -51l-20 -26l-23 -19l-2 -16l-26 -49l-43 -45l-29 -23l-10 -12v-8l-10 -5l-3 -16l-4 -6l-10 -4l-8 -19l-25 -22l-12 -4l-47 -47l-12 -2l-8 -11l-19 -4l-49 -45l-35 -33l-14 -4l-6 -8l-13 -2l-22 -24l-12 -3l-31 -22l-17 -4l-10 -12l-55 -29 l-47 -45l-15 -15l3 -8l-25 -53l-2 -14l-25 -64l-10 -33l-6 -4l-2 -16l-6 -2v-10h-4l-4 -15l-15 -18l-12 -6l-4 -17l-12 -10l-11 2l-8 12l12 29l-4 14l6 5l21 61l6 16l12 13l19 39l2 28l22 47l25 60l8 14l60 29l24 20l29 13l33 28l12 2v4l28 11l50 41l26 20l31 12l47 43 l51 45l4 15h9l30 39l37 39l12 20l46 43l6 6l4 15l12 16l18 12l25 33l10 35l35 45h16zM1708 1454l2 4l14 -4l15 -18l16 -66v-14l6 -15l-6 -22l-2 -47l-10 -12l-10 -29l4 -68l-13 -53h-6v-8h-4l-8 -33l-6 -4l-8 -14l-4 -29h-7l-12 -29l-45 -53l-16 -29l-13 -12l-2 -12l-45 -47 l-47 -45l-20 -23l-15 -6l-47 -45l-28 -14v-5h-11v-4h-8l-6 -10h-8l-25 -18l-10 -13l-12 -2l-4 -8h-11v-6l-12 -2l-22 -12h-11l-20 14l-2 8l22 21l4 10h9v4l28 8l47 37l19 12l14 4l51 41l23 23l27 18l20 21l8 16l19 15v6l43 47l12 12v8h4v11l39 51l6 4l33 55l16 64l15 28 l8 41v17h4l14 45l-4 22l4 66l-10 67zM1362 1427l4 -2l-4 -14l-10 -10l-66 -12l-45 -23l-4 -6l-23 -12l-4 -9l-28 -12l-52 -41l-45 -49l-18 -27l-51 -39l-6 -6l-11 -41l-38 -45l-5 -12l-26 -39l-23 -29l-16 -28l-14 -47l-11 -13l-30 -57l-13 -12l-8 -29l-4 -4l-2 -14l-16 -29 l-11 -10l-18 -2l-6 6v31l18 61l12 22l15 11l2 12l10 4l4 25l10 4l9 33l14 14l2 18l14 29l27 31l33 55l22 23l31 51l8 4l12 29l17 14v10l14 8l4 15l43 39l13 6l47 51l16 18l12 2v4h9v5l12 2l12 10l33 12l12 8l47 15h15l4 4l49 -2zM934 553l2 -4v-8l-10 -11l-60 -12l-69 -4 l-70 -2l-29 -10l-14 -47l-14 -64l-8 -63l-5 -23l5 -33l-7 -57l-6 -4l-20 2l-4 66l-2 63l2 64l12 63l10 29l10 10v8l17 25l16 12l64 2h67l31 2l29 8l32 4l21 -12v-4zM418 1358l2 -6l2 -4l-6 -15l-23 -18v-4l-14 -6l-4 -9l-23 -20l-16 -29l-29 -18l-12 -12l-4 -13l-4 -2 l-4 -65l-13 -56l-2 -32l4 -33l-4 -17l-6 -2l-18 21l-6 20l-2 68l-7 27l7 34l14 31l26 33l9 33l43 47l49 47l26 8zM1010 -500h4l4 -10v-16l-17 -27l-49 -27l-6 -6l-10 -32l-51 -41l-29 -19l-61 -18l-35 -9l-49 -4l-29 11l-6 22l4 4l43 8l65 5l9 2l4 6l33 8l36 18l15 19l14 6 l45 43l4 6v14l8 2l37 33zM846 -276l2 -5v-8l-10 -14l-27 -21l-57 -16l-52 -43l-28 -20l-27 -39l-22 -15l-11 2l-10 13l-2 22l12 29h4l19 24l57 41l62 33l55 27l23 2zM977 61l4 -4l6 -22l-10 -15l-33 -26l-14 -2v-4h-8v-4h-11v-4h-8v-7h-10v-4h-8v-4h-11v-4l-43 -22l-16 -2 v-5h-10v-4l-41 -8h-57l-5 8l7 17l59 16h14l29 12l8 11l15 4l8 10h14l29 18h8l45 35l29 10h10zM1188 625l2 -2v-7l-23 -14l-4 -6l-53 -16l-8 -13l-33 -8l-22 -14l-58 -6l-37 4l-4 6l13 20l63 21l33 8l30 2l48 12l18 21h18zM1356 270l2 -4l-29 -59l-2 -33l-8 -29l-14 -30 l-27 -29h-14l-9 4l-2 16l11 31l18 27l6 24l8 5v8l11 10l8 47l-4 8l14 10l8 13l8 -2zM1376 401h19l8 -30l-6 -27l-13 -12l-14 -6h-18l-4 8v16zM1481 580l2 -7l-6 -14l-17 -14h-10l-8 22l12 21l14 2zM604 -664l2 2l19 -2l14 -6l4 -14l-10 -10l-29 4l-4 14zM659 -55l3 -2v-19 l-15 -6l-24 2l-2 23l14 4zM1421 489v5h15v-29l-9 -2l-12 -10l-12 4z" />
<glyph unicode="H" horiz-adv-x="1912" d="M1925 1186h14l9 -33l-4 -33l-25 -61l-25 -60l-18 -47l-12 -12v-10h-4v-8h-5l-2 -15l-6 -6l-24 -59l-13 -13l-6 -53l-4 -4l-2 -16l-4 -6h-4l-6 -29l-6 -6l-11 -35h-4v-10h-6v-8l-18 -29l-15 -55l-22 -23l-23 -33l2 -30l-8 -31l-26 -60l-13 -30l-18 -9l-10 3l-7 12l17 59 l12 45l14 13l3 16l24 31v47l10 12l11 31l4 2l12 43h6v8h4v10h4v8h4v11h7v8h4v10h4l8 29l27 59l24 33l2 33l8 45l11 10l12 33l10 12l6 33l25 61l26 64l13 26zM1532 1520h4l10 -2l2 -23l6 -4l2 -8l-10 -33l-20 -25l-29 -18l-20 -25l-25 -20l-4 -14l-12 -9l-2 -10l-11 -4v-10 h-4v-8l-22 -47v-5l-13 -12l-2 -12l-16 -17l-8 -16l-8 -49l-50 -119l-6 -16l-10 -10l-18 -54l-23 -61l-10 -29h-4v-8h-4l-2 -12l-25 -23l-10 -2l-8 35l22 61l6 7l2 22l4 2l17 53l2 9l10 10l6 33l8 8l5 14l10 10v8l26 60l23 61l18 47l11 13l8 24l35 60l18 37l12 10v6l41 33 l21 24l18 15v8l8 12v8l11 13zM971 283l4 -2l-8 -33l-15 -29l-18 -24l-4 -13l-21 -24l-32 -58l-7 -10l-32 -31l-13 -2l-47 -45l-33 -30l-45 -25l-4 -6l-63 -17l-53 -24l-33 2l-33 -4l-14 -10l-17 -2l-53 16l-4 16l8 11l49 8l23 -8l33 4l61 20l45 21l10 12l31 12l45 29l25 24 l24 17l11 16l12 6v9l47 45l22 16l7 23l34 55l15 28l14 19l19 -2zM1382 -217l-4 -2l-6 -2l-12 22l8 23v16l8 10l10 35l29 58l21 61l14 27l29 37l65 4l60 -6l69 -3l47 19l33 4l10 10l56 8l4 5l10 -5v-26l-4 -8l-14 -4l-15 -11l-31 -8l-67 -12l-43 -19l-64 4l-61 17l-31 -8 l-18 -19l-17 -51l-22 -61l-4 -17l-27 -55h-4l-10 -14l-4 -15l-11 -14h-4zM555 465l2 -4l-6 -12h-55l-4 -7l-64 -6l-63 -24l-29 -17l-17 -16l-6 -14l-12 -11l-18 -47l2 -51l-6 -14l-15 -6l-16 4l-6 12l4 67l4 31l10 23v10h4v10l6 2l4 17l41 37l60 22l24 4l23 10l74 -4h24v-6z M578 1366l2 -4l2 -10l-11 -6h-8l-10 -9l-33 -2l-28 -6l-56 -33l-6 -2l-18 -30l-41 -52l2 -22l-6 -14l4 -15l-6 -45l-11 -10h-10l-10 10l-12 64v30l10 31l26 45l19 14l4 15h8v4l12 10l7 14l63 23l31 6h67zM2101 436l4 -2l-16 -26l-4 -15l-6 -6l-6 -22l-5 -5l-2 -12l-34 -55 l-31 -31l-12 -31l-11 -12l-6 -16l-28 -19l-5 -6h-6l-43 -47l-30 -8l-5 22l5 15l24 24l19 27l36 33l3 12l36 47l7 14l22 21l31 55l12 13l6 14l23 22l16 -2zM1069 1296l2 -4l-2 -8l-10 -8l-19 -4l-36 8l-11 8l-63 2l-64 15l-63 6l-6 4l-66 10l-53 18v23l24 6l64 -10v-4l61 -15 l37 -2l23 -8l65 -4l9 -4h14l10 -12l68 -2l16 -11v-4zM1141 727h14l6 -16l-6 -31l-6 -10l-16 -60h-7l-12 -47h-6l-10 -31l-25 -43l-10 -8h-25l-4 8l4 31l29 60l14 49l17 28l6 5v8l10 14v10l6 2l4 15l6 2zM745 913l3 -2l-3 -16l-18 -25l-20 -16l-17 -2v-4l-31 -10l-20 -13 l-31 -2l-14 -6l-19 -2l-24 -12l-14 -2l-15 6l-8 16l10 15h11v4l18 4l4 6l23 -6l30 10l27 16l4 7l14 4l13 12l14 2l10 12l15 6l4 7h18zM2044 1405l2 -2v-17l-21 -61l-10 -33l-33 -53l-22 -25l-16 -2l-5 9l5 32l24 62l31 57l10 31l8 10l17 -2zM1350 -244h14l4 -6l4 -31l-4 -32 l-14 -33l-13 -27l-4 -2l-14 -28l-20 -17h-9l-22 25l8 30l25 37l8 33zM1589 311l17 -8l-7 -35l-12 -18l-24 -6l-9 4l-6 16l2 17l23 32zM463 838h2l2 -11l-6 -16l-12 -6l-35 4l-19 10l2 19l11 8l34 -2zM299 -51l2 2h18l13 -8v-15l-8 -4l-25 2v23zM682 424v-4l-14 -4l-15 6 l-4 16l6 4l17 -2l6 -4z" />
<glyph unicode="I" horiz-adv-x="1210" d="M1565 1602l2 2l16 -2l10 -11l13 -30v-31l-7 -14l-28 -33h-8l-45 -47l-25 -21l-6 -14l-10 -8l-4 -17l-23 -41l-4 -10l-10 -8l-13 -55l-6 -5l-8 -32l-14 -29l-27 -37l-4 -35l-10 -30l-15 -27v-6l-14 -14v-7l-14 -20l-8 -55l-17 -27l-12 -10l-6 -17l-17 -12l4 -35l-20 -55 l-21 -53l-18 -19v-6l-16 -29l-4 -32l-13 -23l-10 -33l-27 -39l-14 -47l-4 -28l-10 -23l-6 -33l-21 -45l-10 -10l-4 -14l-10 -8l-9 -62l-6 -4l-26 -55l-29 -64l-33 -57l-26 -59l-13 -11l-4 -14l-39 -43l-6 -2l-2 -14l-20 -15l-3 -12l-8 -4l-20 -29l-43 -47l-4 -6l-17 -2 l-16 -17h-8l-56 -30l-10 -15l-39 -10l-12 -10l-14 -4l-29 -19l-31 -8l-65 -8l-66 -10h-33l-22 4l-27 14l-2 19l4 6l47 6l19 -2l14 6l29 -6h35l63 18l47 13l2 6l29 6l53 31l25 20l14 4l17 15h8l45 49v6l24 26l50 41l20 25l12 33l15 16l2 12l18 27l25 59l14 41l10 5l19 36 l8 39l6 4l29 64l4 12l6 6l10 54l8 6l21 57l20 49l13 12l14 46v10h4v8h4v10h4v8l25 43l8 5v10l8 4l2 14l4 4l4 47l7 4l4 35l20 43l33 35l8 17l4 47l27 55l20 59l11 27l2 16l34 56l9 14l-2 37l6 2v10l14 21v8h4l8 24l13 11l24 81l8 3l2 12l9 4v10l12 12l2 15l20 26l7 15l51 45 l16 6l19 25zM1114 1255l2 -4l-2 -14l-10 -10l-64 -19l-41 -16l-22 -4v-6l-31 -2l-47 -23l-10 -12l-15 -8l-30 -7l-47 -22l-54 -35l-24 -22l-10 -4l-47 -50l-21 -22l-27 -64l-8 -20l-6 -51l-8 -13l-8 -2l-15 11l-6 32l2 37l15 60l14 20l12 16v9l39 49l45 35l4 6l45 28l11 2v7 h10v4h8v4l27 4l49 18v7h8l12 10l60 22l45 25l30 2l62 29l29 8l14 -4zM371 575h26l4 -59l-4 -35l4 -59l-8 -10v-9l-6 -8l-29 -10l-71 -6l-27 -10l-53 -43l-37 -43l-23 -60l-4 -39l4 -4l-2 -26l-12 -11h-10l-10 13l-7 30l3 31l10 43l8 6l6 49l12 21l54 49l14 14l63 23l7 4h30 l6 4h15l12 6l16 19l5 32v68zM735 567l2 2l15 -22l4 -29l-25 -18h-18v-4h-54l-12 6l-10 18l2 8h33l30 9zM752 670l4 -2l-4 -17l4 -33l-6 -24l-17 2l-8 10l-6 62l6 4z" />
<glyph unicode="J" horiz-adv-x="1122" d="M803 57l4 2l18 -8v-10l-22 -23l-15 -4l-36 -37l-4 -18l-11 -14l-6 -21l-6 -6l-23 -55l-6 -6l-10 -29l-18 -25l-23 -49v-16l-31 -47l-16 -31l-4 -16l-39 -41l-20 -39l-15 -27l-47 -49l-43 -51l-41 -27l-10 -10l-49 -29l-29 -10l-4 -6l-59 -17l-45 -12l-62 -6l-68 -4l-67 4 l-33 4l-37 23v18l8 4l62 -4l35 -8l67 -4l6 6l62 2l61 21l62 24l26 14l23 19l14 4l19 25l14 4l25 30l28 19l4 8l27 16l29 41l4 15l12 10v8l41 49l33 53l24 66l9 4l8 29l28 59l17 29l10 31l29 57l10 16l4 15l27 16zM1235 1227l4 -2l4 -8v-17l-20 -51l-6 -6l-19 -58l-10 -32 l-17 -27l-4 -16l-26 -41l-8 -4v-11h-7v-8h-4l-12 -63l-25 -58l-22 -61v-4l-8 -6l-2 -31l-4 -4l-15 -47h-4v-8h-6v-11l-6 -2l-2 -12l-10 -4v-8h-5l-8 -37l-6 -6l-2 -33l-10 -12v-15l-12 -10l-2 -12h-5v-10h-6v-11h-4v-8h-4l-10 -55l-31 -45l-14 -56l-8 -36l-23 -31l-27 -4 l-6 6l-2 16l23 60l8 30l14 27l11 33l14 24l4 17l10 10l19 59l24 60l25 57l14 37l12 12l9 45l6 6l10 29l6 33l12 18l27 58l6 35l12 30l21 27l10 49l8 18h7l20 64l16 29l21 55l2 16l14 8l2 11l6 4zM836 1135l4 -5v-8l-33 -32l-23 -9l-10 -10h-14l-49 -20l-35 -4l-29 -19 l-20 -22h-29l-25 -25l-28 -23l-2 -8l-35 -6l-14 -6l-21 -25l-6 -16l-43 -49l-47 -49l-6 -31l-19 -47l-14 -12l-8 2l-11 12v33l9 35l12 28l39 55l43 54l4 4l12 2l4 8l31 16l14 21l17 4l28 16l21 -2l43 43l29 15l28 4l25 31l33 10l43 24l55 21l14 -2zM416 -45l2 -6l-2 -17 l-10 -10l-56 -18l-8 -6l-72 -9l-2 -4l-22 -6l-4 -8l-47 -14l-13 -13l-55 -30l-12 -11l-13 -2v-6l-12 -2l-49 -41l-33 -26l-4 -13l-12 -14l-2 -70l-4 -14l-9 -8h-16l-8 4l-12 59l4 29l4 4l4 23l12 10l6 14l29 35l37 25l53 43l6 6l25 6l4 6l49 25l12 2l2 4l17 4l8 6h33l14 4 l23 14l14 2l33 15l63 14h17zM1313 442l4 -2l-4 -16l-33 -45l-29 -60l-45 -47l-28 -41l-52 -45l-32 -32l-15 -4l-8 -11h-8l-10 -12l-29 -10l-27 -17l-10 -2l-12 -12l-57 -27l-13 -8h-14l-4 -4l-29 12l2 17l12 2l23 22l59 29l58 25l51 43l12 16l43 18l19 29l22 23l17 24l14 8 l2 15l10 4v10l8 4l4 19l13 8l4 14l31 45l20 19l16 2zM1421 1495l2 -2l2 -6l-30 -55l-82 -82v-11l-10 -4v-8h-5l-4 -24l-12 -7l-6 -12l-12 -8h-13l-6 6l-4 14l2 15l17 28l10 31l26 41l54 37l28 22l13 33l18 -2zM508 291l-2 -4l-55 10l-41 4l-7 14l3 9l10 8h53l33 20l8 33 l8 12l14 2l15 -28l-4 -33l-13 -29zM926 1180l2 -2v-23l-39 -14l-17 6l-10 8l25 27zM334 686h4l12 -2l2 -25l6 -14l-4 -16l-16 -2l-10 10l-6 14v19l6 14zM537 465l2 -2v-19l-9 -4l-20 6l-4 17l22 6zM356 340v4h11l4 -14l-4 -6h-11l-4 14z" />
<glyph unicode="K" horiz-adv-x="1722" d="M2255 1581h4l14 -8l4 -6l-4 -31l-14 -59l-10 -21h-4v-8l-25 -23l-29 -10l-65 8l-19 -8l-51 -45l-18 -14l-2 -10l-8 -5l-17 -28l-4 -17l-16 -30l-11 -9v-10h-4l-6 -33l-10 -28v-10l-16 -17v-8l-19 -27l-20 -57l-17 -61h-4l-14 -31l-6 -6l-25 -58l-24 -39l-11 -30l-32 -54 l-9 -14h-4l-10 -14v-8l-33 -23l-4 -18l-10 -6v-9l-14 -10l-5 -14l-49 -39l-35 -39h-8l-24 -21l-60 -26l-10 -8l-65 -13h-15l-4 6l-2 19l4 8l12 6l33 6l58 35l22 10l4 11h10l5 8h8l10 14l12 2l2 8l27 17l14 16l13 2l24 27l19 8v8l30 58l21 22l22 35l27 51l16 53l13 13l8 20 l12 12l6 33l27 60l8 28l10 11l15 30l16 60l6 16l2 23l17 32l34 54l4 12l37 35l2 10l25 18l14 4l13 11l32 4l23 10l61 14l25 23l16 57l15 29zM1544 1573h4l8 8l11 -55l6 -6l8 -33l-2 -14l-8 -15l-39 -24l-43 -52l-10 -12l-19 -10l-2 -12l-16 -17l-6 -33l-15 -28l-4 -21 l-10 -14l-4 -16l-29 -52l-10 -30l-10 -11v-8l-4 -4l-2 -31l-9 -30l-10 -11l-8 -22l-10 -12l-2 -15l-11 -10l-2 -14l-12 -13l-16 -61l-15 -41l-20 -55l-6 -4l-2 -11h-4v-10l-13 -12l-20 -51l-14 -6h-15l-8 14l20 59l11 33l10 18l6 27l25 59l16 43l10 33l35 58l6 4v10h4v8h4 l9 47l22 47l23 64l10 31l20 24l23 43l4 19l31 34l2 21l8 2l2 12l23 23l4 10l30 14l21 31l6 4v29l-6 33l6 10zM958 156l3 -2l-3 -15l-12 -28l-22 -31l-4 -14l-7 -3l-24 -32l-2 -13h-6l-4 -14l-23 -35l-49 -47l-49 -45l-13 -12l-28 -8l-49 -35l-17 -21l-26 -8l-23 -12l-63 -19 l-66 -12l-31 -10l-65 4l-64 6l-4 4l-24 2l-4 8l2 11l10 10l33 2l63 -4l64 8l41 4l4 6l32 9l56 24l63 29l17 4l22 24l27 19l6 12l12 2l19 17l14 6l18 26l19 19l4 14l22 25l39 57l43 51l19 23l10 2zM1085 1204l5 -2l-5 -16l-8 -12l-28 -15l-62 -18l-59 -8l-4 -7l-47 -12l-5 -6 l-30 -10l-19 -15l-47 -14l-6 -6h-8l-6 -6l-15 -2l-51 -35l-26 -19l-35 -47l-6 -26h-5l-2 -23l-4 -6v-18l-8 -19l-2 -18l4 -17l-2 -12l-6 -4l-14 2l-4 49l-13 31l-2 33l10 32l39 56l35 39l33 10l41 31l12 2l4 8l21 16l31 8l2 5l63 20l59 18l60 13l4 4l33 4l37 12l14 10l10 -2 zM1489 362h10l8 -2l9 -14l6 -63l2 -68l-4 -65l-9 -64l-12 -59l-6 -35l-20 -64v-65l-11 -64l-10 -65l2 -35l-4 -33l-12 -18l-19 2l-14 16v66l8 65l2 31l17 59l10 50l6 63l12 51l6 4l7 66l2 33l12 63l2 66l-4 65zM371 575h24l13 -53v-96l-21 -25l-61 -12l-7 6l-30 -4l-25 -10 l-26 -21l-13 -4l-18 -20l-2 -10l-29 -43l-6 -23l-6 -6l-14 -64l4 -49l-7 -14l-8 -6h-8l-10 8l-12 61l-5 29l21 49l2 33l12 25l11 8l4 14l45 43l12 6l20 2l58 33h35l26 12l12 11l3 61zM1126 545l11 -10v-25l-15 -4l-18 -19l-12 -28l-17 -23v-10h-4v-8h-4l-10 -33l-6 -37 l-25 -55l-12 -33l-17 -29l-22 -22h-19l-8 16l4 29l15 29l10 12l8 22l6 35l23 58l12 12l2 14l29 64l14 35h10l4 6l31 6zM1573 -451h4l4 -63l2 -72l-6 -24l-23 -27l-14 -8l-65 2l-62 16l-35 11l-10 12v10l6 6h31l63 -16h35l25 12l16 17l-4 69v33l6 20zM748 514v-4l-11 -8 l-18 -6h-35l-43 14l-6 14v11l35 -3l45 11l8 10l12 -6zM752 678h4l6 -29v-37l-6 -30l-4 -4l-19 -3l-8 19l4 35l-6 30l8 15z" />
<glyph unicode="L" horiz-adv-x="1538" d="M1825 1382h14l6 -6l8 -63v-66l-4 -33l-37 -122l-28 -56l-8 -16l-2 -14l-17 -19l-2 -14h-4v-8h-4v-11l-10 -8l-4 -24l-9 -4v-9l-8 -4l-4 -12l-33 -29l-4 -12l-16 -18l-14 -9l-5 -14l-47 -45l-22 -25l-51 -43l-27 -18l-23 -23l-20 -10l-18 -18l-15 -2l-4 -6l-29 -17 l-61 -22l-16 -7l-11 -8l-53 -20l-76 -12l-14 6l-6 12l16 22l33 3l31 8l55 28l51 21l29 16l4 6h10v7l15 4l43 30l6 7l14 4l4 10l15 4l10 12l24 13l47 49l45 49l39 47l45 47l37 49l13 29l18 24l14 64l21 57l8 37l18 39l-6 64l9 61zM983 745h-20l-5 9l3 16l22 45l4 31l8 20 l19 29l6 33l18 28l6 5l5 14l18 26l2 33l6 4l12 29l7 4l10 25l31 53l34 53l13 31l8 4v8l22 25l7 14l45 47l47 47l14 8l8 15l15 4l14 10l20 -6l9 -18l-21 -33l-18 -8l-9 -13l-14 -6l-8 -14l-12 -6l-21 -27l-14 -8l-4 -14l-29 -37l-31 -58l-34 -43l-13 -12v-8l-28 -57v-5 l-11 -4v-8l-10 -14l-12 -45l-25 -43l-2 -15l-20 -22l-11 -29l-8 -8v-20l-4 -5l-4 -22h-4l-2 -12l-16 -29zM1135 555l4 -4l-6 -12l-35 -13l-6 -6l-62 -14h-90l-27 -19l-32 -38l-7 -23l-10 -10l-12 -41l-10 -8l2 -25l-6 -8l-7 -27l-20 -33l-20 -43l-9 -32l-12 -11l-12 -26 l-13 -12l-24 -7l-10 13v16l28 59l11 15v8l8 14l14 47h6v9h4v10h4v8h5v10h6l4 23l26 33l4 32l23 62l20 24l25 11l72 4l20 2l4 4l64 4l33 6l16 -6l22 6zM616 1364h5v-21l-9 -14l-30 -22l2 -9l-19 -18l-16 -31l-14 -18l-3 -12l-12 -9l-16 -26l-10 -54l-7 -10l-2 -33l-14 -49 l14 -63l-4 -21h-18l-12 9l-11 30l-6 66l4 63l6 4v15l9 20l4 45l6 4v9l47 45l4 2l2 12l25 43l10 10v4l47 31l8 2zM1796 -399l6 -4v-11l-14 -30l-25 -19l-45 -20l-12 -21l-27 -12l-20 -19h-10v-4l-9 -2l-10 -12l-57 -22l-27 -13l-20 -4l-25 8l-33 -10l-22 -12h-35l-14 8l-6 14 l10 19l18 -2l11 6h20l14 -4l19 2l22 12l64 21l61 24l56 39l16 16l16 5l49 47h13l4 4zM260 221l2 -4v-12l-29 -12l-32 -9l-41 -22l-4 -15l-11 -10l-16 -53l-12 -10h-13l-12 10l-2 33l8 28l17 31l37 41h8v6l55 15l33 -7zM186 -203l-2 2l-12 6v17l10 6l68 2l61 4l64 10l24 -2 l9 -12l-5 -18l-10 -9l-61 -8l-72 -6l-57 2l-4 4zM588 -41l4 -2l6 -16l-4 -15l-43 -47h-10l-25 -20l-31 -13l-14 2l-14 9l-2 8l4 12l51 43l51 39l14 4zM1343 -588v-6l-34 -4l-31 10l-35 21l-2 14l8 4l2 -4l35 -2l43 -10l12 -10zM1511 1409l-2 -4l-18 -10l-39 2l-14 6l-4 12 l6 15l26 14l33 -8l8 -6zM121 -186l-2 -4l-29 14l-4 18l8 4l15 -2l12 -12v-18z" />
<glyph unicode="M" horiz-adv-x="2095" d="M1946 1292l4 -2l-6 -18l-13 -10l-63 -9l-15 -6l-18 -18l-18 -10l-19 -17l-51 -22l-25 -11l-12 -28l-39 -51l-4 -5v-8l-10 -10l-23 -51l-10 -12l-4 -13l-10 -10l-15 -68l-8 -12l-6 -31l-20 -49l-11 -10l-6 -23l-12 -12l-21 -59l-6 -31l-18 -31l-4 -20l-10 -8v-15l-13 -28 v-9l-6 -8l-2 -12l-10 -12l-23 -62l-2 -8l-10 -8l-8 -43l-10 -19l-13 -8v-10h-6v-8l-12 -10v-19l-8 -37l-11 -12l-2 -10h-4l-6 -47l-10 -13l-12 -30l-7 -6l-6 -25l-6 -8l-2 -25l-16 -29l-13 -36l-6 -4l-6 -21l-16 -31l-25 -63l-8 -14l-27 -11l-10 2l-10 15v8l10 8v8l10 10v9 h4v10h5v10h4v8h6v11h4v8h4v10h4v8h6v10h4v9h4l17 59l2 25l6 4l25 57l20 55h6v9l10 12l15 45l30 47l13 6v33l20 59l10 49l19 31l2 14l10 11v22h4l15 51h4l8 29l16 27l9 33l18 22l6 21l10 12l4 33l11 32l24 56l23 59l22 41l17 61l16 27l35 39l31 8l41 27l22 43l12 10l9 14 l12 2l43 21l29 6l47 21h37zM1386 1294l3 -4l-5 -16l-10 -10l-55 -11l-4 -6l-31 -10l-55 -31l-17 -4l-20 -22l-21 -11l-86 -98l-6 -18l-12 -13l-6 -24l-12 -10l-17 -66l-10 -31l-27 -37l-16 -61l-18 -55l-7 -6l-8 -31l-18 -25l-6 -20l-11 -10l-6 -29l-24 -57l-19 -54l-8 -32 l-23 -52l-16 -24l-10 -25v-29l-29 -45l-10 -12h-10l-11 6l-6 15l6 28l23 35l6 29l6 6l2 22h4l5 19l10 8l4 14l10 11l2 32l21 50l24 41l6 32l11 29l2 16l14 17l2 14l6 4l15 27l4 33l16 28l12 33l29 39l12 63l4 23l4 4l5 29l6 4l30 55l11 35l10 12l2 15l10 8l2 12l23 18l8 3 l4 10l14 4l13 10l8 2l31 25l14 4l4 10l14 4l17 17l12 2l8 8l66 20l26 17h31zM2159 950h4l6 -16l-8 -33l-23 -35l-2 -10l-4 -2v-33l-10 -16l-8 -31l-17 -26l-24 -62l-23 -63l-25 -60l-6 -6v-10h-4l-4 -19h-4l-16 -30l-15 -66l-16 -29l-6 -22l-8 -14l-7 -29l-10 -12l-2 -11 l-10 -8l-16 -57l-3 -19l-16 -24l-14 -31l-6 -24l-9 -13l-14 -8h-10l-12 8l-2 19l6 28l12 23l20 22l15 60l16 55l25 57l6 25l6 6l14 49l13 13l20 55l10 35l17 22l10 47h4l4 15l10 14l21 59l20 54l13 30l20 27l8 23l13 10l-2 24l6 2l4 17l14 18zM745 279h5l6 -25l-2 -16 l-25 -60l-8 -20l-10 -13l-15 -45l-10 -12l-18 -43l-11 -18v-9l-12 -30l-6 -33l-14 -29l-15 -4l-10 -8l-65 -10l-66 4l-63 -4l-15 6l-4 8l2 16l10 9l31 6l66 -4l32 2l33 8l25 14l12 15l10 39l10 14v14l11 10l6 23l31 47v8h4l8 51l10 29h6v8h4l2 13l35 43zM492 1151h30l-8 -27 l-22 -16l-17 -6l-12 -10l-14 -2l-23 -15l-51 -41l-47 -49l-23 -24l-14 -27l-15 -47v-64l-4 -20l-18 2l-8 10l-15 53l2 33l21 62l12 20l4 16l13 11l16 24l14 10l4 9l54 39l6 6l57 20l31 27zM856 1294h4v-18l-8 -12l-18 -7l-5 -8l-30 -20l-23 -4l-4 -4l-22 -4l-5 -7l-28 -6 l-19 -12l-16 -2l-2 -6h-10v-6h-8l-5 -9l-32 -4l-7 -6l-65 -12h-16v8l8 12l24 23l29 12l64 19l18 14l33 4l47 25l12 10l62 12l12 12zM2261 1350h23l14 -56l-8 -4l-17 -59l-12 -68l-23 -63l-12 -33l-14 -18l-8 -5h-13l-8 35l12 49l11 9l2 14l10 12l10 58l13 30l10 58v26z M406 678h14l10 -23l-6 -32l8 -33v-31l-6 -35l-25 -37h-47l-28 13l-43 2l-13 6l-8 12v15l8 4l17 -2l12 -9l45 -8l31 15l6 6l4 26l6 11l-4 67v19zM1812 84h5l4 -23l-4 -10l-7 -4l-8 -41l-18 -29l-6 -20l-11 -12l-2 -33l-10 -33l-4 -33l-6 -14l-6 -4l-19 2l-8 12l-4 17l8 67 l27 51l26 62l9 22l24 27zM1755 -510h-26l-9 16v23l23 27l8 16l14 6l9 47l6 4l12 29l6 4l4 14l17 9l14 -4l10 -13v-20l-37 -47l-14 -13l-8 -26l-4 -51zM1122 -66l2 -4l2 -2l-12 -12l-22 -12l-33 8h-33l-41 -8v4l-16 4l-6 14l6 15l12 6l68 -4l18 6h35l12 -4z" />
<glyph unicode="N" horiz-adv-x="1587" d="M1454 1290l2 -4l-4 -16l-43 -19l-51 -24l-8 -10l-29 -7l-18 -16l-23 -8l-43 -39h-8l-25 -19l-4 -8h-8l-25 -20l-8 2l-45 -51l-27 -31l-12 -2l-31 -45l-22 -62l-27 -32l-2 -33l-24 -60v-12l-29 -61l-6 -33l-23 -27l-16 -28l-6 -47l-4 -15l-23 -33l-10 -55l-6 -6l-4 -18 l-19 -31l-16 -29l-6 -4l-19 -61l-20 -60l-33 -55l-14 -21l-2 -12l-6 -6l-9 -59l-20 -62l-31 -61l-4 -21h-4l-6 -24l-17 -21h-10v-6h-8l-10 -10l-53 2h-68l-53 -6l-15 4l-10 10v16l8 13l62 6l65 -6l29 -4l16 4l23 14l24 41l2 12l7 6l14 62l2 14l27 58l12 32l6 29h4l4 14 l23 31v14l24 60l15 31l6 6l16 63v8h4l6 25l7 6l2 12l14 15v8l6 6l12 35l7 6l2 18h4l24 60l6 31l17 45l14 16v10h4v8l17 19l4 24l4 5l6 32l25 58l16 30l12 66l15 18v6l24 25l41 53l8 13h8l11 10h6l22 22l13 2l51 50l24 18l21 6l4 8l21 13l12 2l8 14l41 27l10 12l12 2v4l56 16 l33 5l16 -7zM1767 1389h5l8 -13l8 -61l2 -10l-18 -64v-6l-7 -4l-2 -66l-24 -59l-25 -55l-24 -45l-15 -64l-16 -35l-25 -51l-8 -14l-14 -51l-31 -48l-12 -65l-21 -49l-26 -45l-21 -62l-22 -53l-6 -16l-9 -11l-4 -22l-4 -4v-15l-24 -43l-23 -57l-18 -53h-5l-4 -25l-6 -2 l-8 -43l-6 -4l-8 -14l-13 -56l-4 -16l-16 -35l-12 -8l-6 -25l-11 -8l-12 -61l-6 -8l-2 -13l-6 -6l-17 -59l-6 -17l-4 -32l-6 -6l-14 -3l-9 5l-6 24l-4 4l17 64l2 20l10 31l10 18l14 64l27 61l12 39l19 23v10h6v8h4v10h4v9h6v10h4l8 51h7l2 23l24 55l15 31l8 30l18 41l23 60 l26 63l2 12l11 9v10h4v8h6v10h4v8l6 7l17 63l8 33l14 29l4 16l14 10v10h7v9h4l2 14l6 6l2 12h4v11h4l8 30l15 29l10 37h4l4 33h6l6 28l15 27l10 35l8 14l2 16l10 5v10h5v8h4v10h4v8h6l6 25l2 37l6 24l4 3l13 49l-2 10l12 22v72l8 12zM868 1274l2 -6v-11l-43 -14l-61 -33 l-59 -14l-17 -8l-14 -2l-4 -6l-60 -21l-20 -6l-4 -6l-15 2l-30 -12l-39 -29l-33 -12l-53 -33l-29 -14l-27 -21l-16 -6l-10 -23l-12 -10l-33 -55l-19 -60l-4 -14l6 -20l-10 -13h-10l-18 15l4 63l20 64l19 26l2 15l22 22l6 15l37 12l47 45l19 16l26 10l58 31l59 23l61 22 l46 23l32 -2l49 20l27 17l64 18l12 4l16 -2l6 -4v-6zM397 670h25l8 -62l4 -69l-6 -31l-20 -23l-66 4l-16 5l-11 8v20l64 8l6 7l4 53l2 69zM1313 -322l18 -18l-6 -14v-11l-6 -4l-2 -18l-4 -4l-8 -37l-25 -51l-23 -19l-14 -6l-16 2l-13 8l-2 23l25 22v11h6v10h4v8h4v10h4v9h7 v10h4v8h4v10l8 4l4 25l18 16l3 6h10zM291 520v-4l-17 -2l-14 6l-12 12l-2 9l14 2l16 -6z" />
<glyph unicode="O" horiz-adv-x="1429" d="M1620 442l4 -2l-4 -16l-39 -51l-10 -11l-12 -32l-25 -19l-10 -12l-17 -10l-8 -10h-8l-10 -13l-15 -4l-45 -37l-28 -6v-6l-13 -2l-28 -16l-62 -9l-28 -10l-62 -4l-57 4l-33 -6l-25 -18l-30 -39l-29 -15v-8l-16 -20l-2 -15h-4l-9 -14l-6 -4l-2 -8l-43 -49l-49 -43l-51 -46 l-27 -20h-8l-25 -21l-14 -2l-45 -16l-35 -33l-12 -2v-6h-8l-27 -14l-57 -15l-62 -8l-63 -8l-64 6l-30 8l-33 2l-17 7l-14 18l2 10l6 4l64 -4h10l6 -6h41l4 -4l62 4l63 16l66 13l59 28l25 5l28 26h4l13 12l14 3l6 10h8l11 14l53 39l45 47l47 43l18 29l23 24l23 13l20 34l4 13 l25 24l24 19l31 16h43l33 -10l67 2l11 2l6 6l20 2l6 6l66 15l29 14l8 14l14 4l4 9l49 26l6 13l15 4l22 26l27 21l20 22l11 23l12 16l6 2v8l25 11zM1059 1411v-6l-6 -12h-45l-29 -15l-51 -41l-19 -14l-4 -14l-8 -4l-4 -15l-23 -41l-18 -24l-6 -15l-6 -4l-4 -55l-5 -4l-14 -60 l-10 -63l-6 -70v-43l-6 -14l-11 -4l-8 2l-8 10l-2 15l-4 4v14l-4 8l8 64v32l10 66l2 33l21 43l18 55l4 27l10 14l13 29l37 55l20 20l51 35l66 11l31 -3l6 -4zM563 1108h12l11 -16l-4 -29l-11 -10v-9l-36 -32l-9 -33l-26 -57l-21 -39l-10 -11l-2 -32l-16 -27l-5 -14l-10 -11 l-2 -14l-8 -16l-2 -29l-6 -4l-25 -53l-4 -33l-12 -31l-23 -28l-16 8l-8 30l10 37l10 13l6 32l21 56l4 24l6 4l12 29l7 4l6 29l12 12l4 14l10 15l11 31l6 6v8l6 6l2 14l12 13l10 32l27 21l10 12l8 35l15 29zM1389 1053h18l6 -6l-4 -68l-10 -49l-17 -25l7 -33l-15 -61l-18 -63 l-10 -11l-7 -32l-8 -21l-26 -2l-7 16l17 56l6 24l-2 8l20 60l11 33l14 26l6 31l-4 31l14 55l4 25zM1286 635h14l13 -17l-2 -28l-13 -35l-34 -59l-15 -27l-4 -33l-12 -30l-16 -27l-21 -23l-16 -4l-11 13l-2 20l17 18v11l10 4v10l6 4l31 49l4 2v33l6 29l19 30l2 21l6 16z M1368 1430l2 4l14 -2l17 -29l10 -27l4 -67l17 -60v-69l-2 -29l-5 -4l-2 -14l-6 -5h-12l-14 11v61l-2 64l-7 30l2 17l-8 26l-6 56h-4l-2 30zM334 547h6l6 -33l-2 -16l-18 -25v-8l-15 -19l13 -43v-16l-9 -18l-6 -33l-14 -31l-6 -4l-17 6l-6 10v35l10 54l-2 8l19 26v15l6 12 l-6 20l2 15l10 22l21 21zM274 289h19l8 -31l2 -35l-10 -59l-8 -2l-13 4l-12 20v37zM780 868v4h15l6 -12l8 -39l4 -37l-2 -32l-8 -4l-15 2l-6 12l-6 65v35zM285 127v4h12l-2 -8h-8z" />
<glyph unicode="P" horiz-adv-x="1357" d="M1499 1174v4h14l7 -7l6 -30l-2 -43l4 -4l4 -64l-6 -63l-2 -17l-6 -6l-5 -22l-10 -15l-4 -30l-4 -7l-2 -20l-6 -6v-15l-10 -10l-9 -31l-6 -2v-8h-4v-10h-4l-14 -37l-13 -8l-12 -31l-10 -10l-4 -14l-29 -17l-10 -10l-2 -12l-21 -17l-6 -16l-12 -2l-41 -51l-25 -23l-28 -12 l-10 -12h-9l-10 -15h-8l-6 -10l-15 -2l-12 -10l-65 -13l-19 -10l-22 -6l-11 -10l-65 -10l-31 -4l-43 2l-4 4l-66 4l-67 4l-31 8l-12 8l-64 17l-30 10l-17 -2l-14 -8l-25 -27l-4 -27l-20 -63l-6 -17h-6l-11 -32l-8 -4l-2 -13l-8 -4l-12 -22l-9 -35v-33l-26 -51l-6 -6v-8h-7 v-11l-6 -2l-12 -43h-4l-2 -12l-6 -4l-15 -41l-6 -4l-8 -41l-22 -21l-15 -4v-4l-31 -6l-12 -12l-67 2l-9 8v16l13 11h26l6 -4l19 4l18 -4l25 18l18 43l2 16l11 11l4 16l14 20l2 33l27 58l24 59l13 31l14 18l2 14l12 25l6 41l7 8l4 21l10 4v8h4v10h4v8h6v11h4v8l17 39l24 41 l27 6l31 -8l20 -11l68 -18l12 -10l53 -8l70 -2h70l67 6l51 8l21 10l30 8l31 13l2 6h8l29 18h8l15 10h10v4h8v5l14 4l50 45l20 24h8v6h13l26 23l23 8l22 64l19 16v8l18 19l6 32l27 58l16 59l13 31l4 65l6 31l4 2l6 64l2 63zM610 1479h4l4 -4l-2 -13l-22 -24l-31 -21l-22 -8 l-15 -10l-28 -8l-31 -17l-25 -41l-14 -8l-2 -12l-49 -47l-19 -19l-6 -33l-12 -28h-4v-8h-4v-11h-6l-2 -12l-31 -57l-14 -31l-7 -23l-2 -67v-33l6 -12l3 -17l-9 -24l-10 -2l-14 4l-8 31v16l6 23l-11 32l5 64l10 61l12 29l33 55l12 31l12 16l5 15l26 20l17 29l49 43l20 22 l23 13l26 39l64 24l57 27zM963 1255l4 -4v-10l-21 -22l-8 -23l-49 -41l-6 -6l-2 -12l-35 -43l-8 -27l-29 -53l-10 -41l-6 -4l-2 -11l-11 -4v-10l-8 -4v-8l-10 -10l-12 -66l-7 -31l-22 -24l-12 -35l-2 -31l-29 -43l-16 -6h-11l-8 12v15l27 65l14 27l4 33l6 4l11 26l6 6l10 33 l6 8l2 17h4l17 22v17l22 61l21 37l6 33l12 12l2 12l18 15v6l15 10l2 12l26 23l13 22l16 7l17 16l18 4l12 10zM266 819h23l8 -16v-31l-14 -27l-50 -45l-61 -38l-14 -3l-19 9l-2 8l4 18l23 23l26 16l23 21l29 18zM934 1493v-6h-57l-72 -4l-66 -4l-57 -13l-8 13v14l4 6l31 8 l6 6l59 11h21l28 6l27 -6l35 2l4 -4l16 -2l25 -15zM172 -68l2 -4v-8l-8 -12l-21 -2l-6 16l8 15l7 4l12 -2z" />
<glyph unicode="Q" horiz-adv-x="1382" d="M1395 1010h18l6 -17l-8 -65l-6 -64l-16 -63l-9 -29h-4v-33l-24 -55l-9 -8l-8 -47l-18 -23l-2 -12l-10 -6l-2 -10l-17 -19l-4 -35l-8 -30l-37 -56l-12 -10l-6 -22l-9 -5l-6 -12l-8 -6l-4 -33l-31 -43l-6 -6l-2 -10h-4l-12 -33l-19 -25l-2 -6l-18 -16v-8l-21 -17l-4 -12 l-41 -39l-4 -10l-20 -21l-13 -26l-22 -25h-8l-23 -18l-24 -4l-11 4l-4 12l6 16l37 33l6 15l13 8l4 14l14 8l4 15l14 10l3 8l18 16v9l25 24l8 4l12 25l39 51l10 12l6 2l2 13l6 6l3 12l14 8l4 15l14 10l25 39l2 29h4l33 59l20 61l27 58l6 16l12 12l11 29l4 25l6 6l12 35l2 32 l21 56l12 55l6 4l6 14l2 19l4 4l-4 47l10 14l3 11zM866 1456l4 -2l-6 -14l-28 -15l-7 -6l-65 -10l-29 -10l-51 -41l-25 -23l-12 -4l-8 -12l-14 -4l-33 -25l-27 -28l-39 -54l-34 -55l-27 -37l-10 -49l-15 -16v-9l-10 -6v-8l-16 -22l-8 -25l-11 -66l-10 -22v-33l-6 -6l10 -27 l2 -26l-10 -15l-10 -4l-15 9l-8 63l-2 31l6 65v8l4 5l4 22l7 6l12 27l14 18l4 47l6 4l13 29l16 17l2 16l19 27l10 24l14 8l2 13l41 51l10 18l15 10l18 27l51 43l25 25l14 2l54 26l12 2l8 15l14 4l15 10l59 10l35 -2zM1931 -451l2 -2l-14 -26l-45 -37l-25 -21l-28 -14 l-49 -41l-15 -2l-43 -22l-14 -5l-6 -6l-58 -12l-67 -12l-58 -6l-36 2v4l-25 4l-8 12l2 12l10 11l16 2l64 -4h33l63 16l25 6l4 6l22 6l5 7l14 4l2 4l18 6l13 12l32 6l50 41l2 6l12 2l12 13l27 16l12 17l8 2l8 10l11 2l14 -6zM608 -168h4l2 -25l-6 -6l-16 -2l-25 -16l-30 -8 l-35 -4l-27 -17l-20 -6l-39 -4v-4l-62 -6l-67 6l-8 4l-60 12l-8 19l18 12l23 2l18 -8h21v-6l31 -4l61 6l68 8l51 10l10 12l61 23l25 6zM580 592h4l24 -35l-18 -10l-4 -35l-19 -57v-9l-12 -8l-6 -16l-12 -2v-4h-9v-4l-30 -2l-17 6l-14 18l2 8l12 9l19 2l24 22v10h4l4 29 l23 64l8 12zM1389 1305l2 2l16 -9l16 -53l-4 -14l15 -62l2 -32l-4 -58l-9 -12l-8 -2l-16 4l-4 6l-2 70l-9 63l-4 68l2 16zM371 156v-4l-2 -9l-13 -8l-67 2h-15l-61 -35l-14 -4l-15 2v17l9 14l38 27l5 8l22 8l39 4l37 -4v-4l26 -4zM727 -115l4 -4l-4 -14l-10 -14l-35 -17h-14 l-19 8v9l19 26l28 17h15zM920 1466l2 -2l-2 -20l-25 -4l-6 14v10l6 4z" />
<glyph unicode="R" horiz-adv-x="1347" d="M930 1509l2 -4l-2 -10l-8 -10h-41l-7 6l-63 -4l-29 -8l-71 -2l-21 -2l-6 -9l-22 -2l-9 -4l-8 -12l-33 -6l-18 -15h-14l-11 -10l-30 -8l-11 -10h-10v-4l-14 -6l-19 -25l-47 -33l-2 -6l-28 -8l-27 -47v-15l-27 -20l-2 -12l-18 -23l-23 -65l-12 -13l-6 -24l-12 -13l-2 -32 l-15 -39l-2 -39l-8 -6l8 -19l8 -37l-2 -16l-14 -16h-8l-8 14l-5 53l9 10l-11 33v35l15 64l8 55l6 4v8l10 21l13 12v10l8 21l10 12l6 16l31 35l4 14l29 19l10 12l2 12l51 41l12 11l29 14l43 43l12 2l13 10l32 11l13 10l26 2l35 10l27 16l24 7l72 4l31 8l33 -2l38 -8l3 -4 l49 -3zM1493 1178h23l8 -64l4 -24v-39l-12 -64l-9 -55l-4 -6v-19h-4l-10 -30l-21 -29l-4 -31l-18 -35l-31 -49l-24 -24l-7 -17l-24 -22l-25 -13l-49 -53l-24 -12l-25 -23l-27 -16l-51 -21l-8 -6l-16 -2l-17 -8l-71 -6h-21v29l12 2l9 -4l18 2l55 26l25 15l24 6l13 12h10l4 8 h10l23 21l8 2l25 24l28 17l15 22l26 19l43 51l19 22l14 27l6 23l43 51l6 65l15 66l12 65l-6 64v12l6 2zM950 1278h19l6 -6l4 -31l-2 -6l-47 -45l-35 -31l-4 -14l-10 -4l-4 -15l-13 -10l-2 -8l-20 -23l-4 -14l-7 -6l-8 -33l-30 -37l-5 -32l-10 -31l-30 -53l-5 -23l-26 -55 l-12 -31l-9 -2l-14 8l-6 15l18 67l11 29l14 16v15l6 6l2 12l8 12l4 19l23 24l14 64v6l21 29v8l22 20l10 23l13 10l2 12l12 17l2 10l23 22l2 7l53 38zM305 -80l-4 4l-2 6l4 9l27 16l16 27l10 32l17 27l14 49l12 10v11h4l17 55l2 16l8 21h6v10h4l9 33l10 4v8h4l-2 8l12 25 l8 28l15 25l32 31l4 -4l3 -31l-9 -49l-16 -19v-8l-12 -12l-13 -25l-6 -37l-22 -45l-23 -53l-16 -47v-22l-6 -5l-27 -59l-29 -39l-26 -10h-11zM1085 393v4l17 -2l8 -10l16 -66h4l9 -63l2 -14l-8 -21l-3 -67l-4 -33l-14 -29l-6 -41l6 -10l-8 -25l-8 -51v-12l-19 -35l-8 -6 l-12 -2l-2 12l8 21l-6 32l2 33l12 66l8 14l4 66l21 63l-10 64l-2 65l-11 29v16zM1163 -455h25l4 -8l-2 -65l6 -66l-4 -14l-31 -23l-18 2l-29 -10l-67 -4l-23 8l-33 27l2 6l11 6h30l72 -10l33 6l20 25l-6 65zM256 823l8 11h19l12 -27l-8 -55l-8 -7v-8l-15 -6l-4 -8l-24 -12 l-11 -15l-12 -2l-49 -37l-25 5l-10 14l4 16l53 41l50 41l6 4l8 15zM567 406l-2 -5l-14 -4l-19 -12l-4 4l2 31l9 33l10 14l14 63l29 60l22 12l19 -4l16 -23v-8l-41 -53l-2 -14h-4l-2 -25l-16 -26zM291 -63l2 -3l-2 -18l-4 -6l-68 -4l-33 2l-32 8v23l8 4h117zM1034 -164h23 l6 -31l-4 -69l-4 -12l-17 -13l-18 8l-4 15l10 65zM1468 1307l2 4l17 -4l6 -15l-4 -14l-19 4l-6 14z" />
<glyph unicode="S" horiz-adv-x="1345" d="M559 -233v4l2 8l17 12l34 2l35 -4l66 6l63 15l64 12l59 22l59 35l9 2l4 8l20 13l4 8l15 6l26 23l17 6l20 20v10l10 5l2 12l35 35v8l15 10v8l10 8l26 58l33 55l4 51l4 4v15h7l8 61l4 4l8 66l16 37h15l4 -11l-4 -8l8 -65l-2 -23l-12 -33l-13 -63l-14 -57l-12 -46l-6 -2v-8 h-7l-14 -37l-12 -10l-4 -14l-13 -6l-32 -60l-7 -4v-8l-12 -8l-4 -8l-27 -17l-26 -30l-12 -5l-45 -39h-9l-4 -10l-14 -4l-4 -10l-12 -2l-7 -6l-61 -19l-53 -18l-66 -19l-33 -10l-63 -2l-66 -2l-32 2l-15 6zM993 614l2 -4l2 -16l-28 -37l-25 -16l-24 -27l-43 -31l-9 -4 l-39 -51l-45 -47l-49 -45l-4 -8h-10v-4h-8l-47 -45l-11 -11l-4 -10l-26 -18l-27 -35l-12 -4l-43 -49l-49 -46l-7 -6h-6l-35 -32l-22 -5l-8 5l-4 14l14 31l10 8l2 12l15 4l12 21l12 4l4 8l31 18l4 7l12 4l41 51l45 33l41 49l50 47l14 10l14 19l8 2l47 49l48 47l47 43l57 57 l21 12l2 7h18zM1585 1380h12l11 -32v-31l-17 -47l-4 -4l-4 -31l-6 -6l-2 -17l-19 -22l-4 -14l-22 -25l-2 -8l-10 -10v-11l-45 -28l-5 -33l-12 -25l-51 -45l-43 -37l-12 -2l-23 -24l-16 -31l-19 -23l-24 -20l-21 -25l-2 -10h-4l-6 -49l12 -51l-10 -17h-12l-11 11l-6 28l4 17 l-12 65l6 31l47 49l45 47l74 68l35 53l18 19l29 8l2 8l12 12l9 29l18 24l31 60l16 29l25 92zM1317 1491l2 -4v-12l-8 -13l-29 -10l-27 -16l-24 -25l-19 -27l-4 -14l-6 -6l-12 -59l-12 -64l2 -33l6 -28l2 -37l-4 -33l-8 -12l-17 2l-8 10l-8 66v67l6 62l2 32l10 35l21 31l6 33 l16 22l31 21l43 18l33 -2zM270 -119l2 -4l-4 -18l-32 -23l-17 -26l-2 -11l-20 -32l-7 -7l-2 -16l-10 -10l-8 -33l-18 -45v-6h-5l-6 -64v-16l-6 -16l-6 -7l-18 2l-11 9v63l4 53l7 9l6 22l6 6l4 23l25 51l28 57l29 37l12 2v6h8v4l31 -2zM287 590l4 -2l4 -4l-4 -29l-10 -4 l-2 -12l-15 -21l-6 -29l-4 -4v-18l-6 -4l-8 -14l-7 -35l7 -35l-7 -29l7 -33l12 -30l2 -17l-6 -16l-19 2l-8 10l-8 31l-2 33l-12 59l-2 35l10 33l4 32l6 11l4 32l37 50l8 10zM608 735l2 -4l-10 -14l-63 -6h-31l-60 -11l-26 -14l-53 -39l-31 -14l-23 -4l-4 18l2 12l17 19l8 2 l14 18h8l27 19l61 20l64 11l33 6l51 -6zM766 862l2 -2l4 -6l-6 -31l-14 -28l-4 -19l-9 -10l-8 -27h-4v-8l-25 -18l-20 -6l-16 6l-7 10l17 16l8 15l6 4l8 30l27 58l14 20zM-4 -551l-2 2l2 29l14 6l72 6l20 6l11 8l14 -8l10 -14l2 -14l-10 -15h-10v-4l-25 -8l-71 4zM1255 633 h5l8 -27l6 -67l4 -68l-8 -14l-6 -4l-19 16l-6 33l-2 67l-6 4l-2 33l6 25zM469 -199l2 2l51 -10l13 -10l2 -6l-5 -6l-34 -7l-29 9v28zM1606 1448l2 -2l-2 -27h-23l-6 6v23h29z" />
<glyph unicode="T" horiz-adv-x="1288" d="M1507 1298l2 -2l2 -6l-12 -12l-4 -10h-8l-23 -23l-2 -16l6 -31h-4l-4 -6v-18l-6 -3l-10 -43l-31 -59l-20 -59l-13 -19v-10h-6l-16 -27l-2 -10h-4v-10h-4l-7 -31l-8 -14l-4 -43h-4l-20 -47l-9 -23l-14 -18l-8 -31l-12 -18l-9 -58l-26 -51l-10 -8l-3 -14l-16 -29l-6 -4 l-10 -33l-4 -33l-29 -57l-6 -25h-4v-10h-4l-27 -53l-12 -49l-27 -49l-16 -46l-11 -10l-4 -12l-39 -41v-8l-14 -10l-2 -15l-12 -8v-8l-13 -10l-2 -13l-51 -45l-22 -24l-29 -19l-12 -2l-23 -22h-10v-4l-14 -5l-13 -10l-32 -10l-5 -6l-12 -4l-4 -6l-16 -7l-11 -10l-59 -16 l-63 -15l-64 -4l-67 4l-54 11l-24 6l-6 14v10l10 11l61 -17l27 6l65 3l68 2l29 4l28 12l6 6l43 19l54 18l10 12l14 4l47 43l50 41l47 47l18 15l12 24l37 56l8 14l9 4l12 27l12 12l2 14l10 13l25 61l6 16l6 7l17 61l26 41v8h4v10h7l8 41h4l10 43l12 39l7 2v8l22 46l4 18l6 2 v10h4l5 23l6 4l20 59l8 29l31 57l2 13l16 32v11l11 4l16 61l27 62l24 59l25 61l27 62l18 26l2 23l18 23l25 4zM500 633h4l12 -8l6 -35l-12 -31l6 -27l-16 -30l-66 -6l-28 -9l-29 -14l-39 -33l-10 -4l-29 -24l-4 -15l-10 -10l-15 -59v-47l9 -31l-7 -21l-6 -4l-18 2l-8 11 l-7 16l7 31l-7 6l7 16l-7 31l21 63l4 23l8 4l13 27l47 47l14 6l8 8l66 10l47 13l28 30l-4 35l2 17zM2148 1456l6 -2l9 -14v-15l-15 -30l-14 -21l-47 -45l-59 -31l-62 -18l-29 -8l-20 2l-4 4h-15l-8 14l23 19l18 4l4 4l62 20l28 15l52 43l47 45l16 14h8zM631 1477l2 -4 l-2 -17l-2 2l-27 -12h-53l-60 -21l-43 -18l-49 -41v-14l-6 -4l-12 -52l-6 -4v-16l-4 -6l-11 -4l-10 10v8l-14 29l2 12l4 4v19l8 10l14 8l3 14l8 4l16 29l25 31l28 8l29 14l14 2v5l15 4h26l19 6l4 -6l8 2l2 4l66 -2zM756 1034l2 -6l-2 -18l-15 -17l-63 -22l-19 10l-14 -6 l-45 -43h-10l-12 -10l-68 -4l-66 10l-28 14v16l12 11l61 -2h62l33 8l34 -4l23 8l29 35l12 2l25 16l43 8zM651 1454v23h62l65 -9l68 -14l16 -10v-17l-20 -8l-64 13l-61 8l-35 4zM1866 1284v-6l-6 -12l-31 -9l-68 5l-49 2l-12 10v8l8 10l29 6l39 -2l47 7l32 -9zM1053 1407 l2 -4l2 -6l-8 -11l-23 -10l-4 8l-64 13l-65 18l-10 6v15l28 4l68 -6l16 -2l4 -7l48 -14zM1194 1374v-4l-2 -12l-8 -10h-15l-65 18l-33 12l-2 21l8 4l35 -2l31 -8l10 -9l33 -2zM1640 1278l-2 -4l-34 -4l-17 6l-10 8l-2 8l8 11l35 4l20 -13z" />
<glyph unicode="U" horiz-adv-x="1718" d="M1235 1513l2 3l8 2l15 -11l4 -14l10 -10l4 -13v-43h-4v-8h-6l-2 -18l-6 -10l-60 -39l-8 -4l-12 -21l-6 -4l-3 -10h-4l-2 -13l-10 -12l-6 -31l-8 -4l-31 -55l-4 -24l-4 -5l-2 -14l-19 -29l-2 -14l-24 -59l-17 -27l-6 -25l-10 -8l-4 -14l-12 -8l-7 -15l-2 -34l-16 -60 l-20 -22l-3 -11l-8 -6l-4 -12v-35l-12 -16l-6 -21l-15 -8l-2 -22h-4v-9h-6l-4 -30l-4 -2v-11h-4v-8l-25 -59h-4l-8 -39l-8 -2l-10 -43l-5 -2l-10 -45l-6 -4l-8 -15l-8 -30l-15 -29l-14 -14v-11l-12 -12l-8 -63l-5 -2l-12 -29l-10 -14l-2 -15l-6 -4l4 -49l-6 -12l-13 -2 l-14 6l-4 20l4 6l4 31l10 29l4 65l17 43l16 21l17 55l6 33l10 6v8l8 4l4 15l11 14l18 63l22 58l11 31l12 18l2 14l21 35l2 27l4 10l6 4l8 33l29 59l22 58l17 30l16 19l10 30v17l19 43l6 35l12 28h4v8h4l13 54l16 26l14 15l2 14l13 12l18 52h4l2 14l35 49l25 29l45 32l2 13 l6 6zM1845 1407l2 -2l6 -14l-14 -60l-6 -20l-35 -54l-6 -6l-2 -30l-12 -33h-4v-10h-5v-9l-14 -28v-13l-6 -4l-20 -45l-7 -30l-26 -60l-31 -57l-14 -53l-23 -27l-8 -55l-6 -6l-4 -17l-13 -18l-24 -58l-6 -6l-15 -57l-24 -57l-19 -35l-2 -33l-8 -27l-14 -26l-12 -13l-7 -30 l-20 -54l-23 -45l-18 -65l-12 -43l-2 -33l-7 -16l-18 -15l-14 9l-6 12v35l10 51l6 4l10 31l4 26l19 45l6 6l4 31l22 60v8l17 26l6 5l2 14l10 18l13 13l4 30l4 2l6 31l20 57l25 56l4 24l21 27l22 57l31 41l-6 23l10 39l12 28l2 17l10 14l25 59l6 7v8l12 12l17 61l4 21l25 53 l4 17l14 18l2 16l6 7l10 36l13 41h6v11l16 16l2 10h4v10h4l2 13l13 10zM1907 446l2 -2l2 -24l-6 -2l-11 -33l-6 -8v-8l-22 -17l-4 -14l-9 -4l-6 -15l-8 -4l-8 -30l-6 -2v-9l-37 -51l-27 -26l-4 -13l-6 -4l-18 -28l-45 -50l-19 -24l-35 -37l-28 -10l-21 -25l-4 -12l-25 -17 l-59 -28l-45 -23l-22 -10l-62 -8l-55 -2l-13 10l5 16l12 9l33 2l55 12l53 16l4 11l21 4l24 16l43 21h6l5 6l28 14l23 41l12 10l35 53l39 41l2 11l22 24v8l25 21l22 27l23 51l6 4l2 14l19 25l45 49l6 16l10 13zM788 1145l3 -4v-13l-23 -10l-4 -6l-29 -10l-26 -17l-33 -14h-31 l-31 -8l-8 4l-18 -25l-58 -26l-59 -31l-18 -6l-4 -6l-15 -2l-14 -10h-10l-9 -13l-10 -2l-8 -12l-27 -16l-39 -37l-2 -17l-16 -16v-8l-12 -27l-23 -65l-10 -11h-14l-7 15l7 32l-7 31l7 6v8l10 21l12 12l4 15l13 12l6 24l47 48l53 36l61 29l25 8l4 8h10l7 9l12 4l18 14l33 -2 l23 10l24 -6l8 2l43 37l29 8l53 27l13 8h28zM1116 137l4 -2l-2 -18l-14 -29l-45 -47l-6 -6l-13 -2l-8 -13l-14 -2l-45 -49l-45 -30l-10 -13l-21 -14l-59 -4l2 18l16 27l18 6v4h9l4 6l10 2l4 11h10l4 8h11l4 10l12 2l16 21h7l45 51h8l45 47l22 24l9 5zM416 440v-51l-15 -10 l-30 -4l-64 14l-28 12l-19 17l-2 8l21 6l30 -14l45 -6l29 16l12 12v19l-8 10l-2 72l4 14l8 10l21 -2l8 -8l8 -72zM801 -92l12 -6l-2 -19l-10 -18l-64 -10l-30 -5l-54 11l-4 6l-2 16l64 8l61 9l10 -2l13 4z" />
<glyph unicode="V" horiz-adv-x="1613" d="M1810 1288l7 2h10l8 -12l2 -21l-16 -59l-4 -33l-15 -37v-8h-6l-14 -59l-2 -8l-6 -2l-9 -27l-12 -14l-2 -31l-8 -31l-10 -14l-4 -14l-11 -15l-4 -18l-12 -13l-2 -10l-12 -12l-5 -33l-6 -18l-28 -29v-10h-4v-8h-7l-12 -62l-6 -4l-23 -41l-38 -53l-33 -53l-25 -25l-6 -14 l-8 -4v-9l-8 -4l-2 -10l-9 -4l-2 -14l-45 -33v-10l-12 -6l-14 -31l-41 -49l-23 -25l-2 -8l-41 -47l-49 -39l-14 -12l-11 -2l-43 -54l-12 -6l-12 -12l-51 -33l-49 -41l-15 -8l-10 -12l-18 -9l-37 -30l-41 -25l-15 -4l-10 -10l-18 -4l-13 -13l-12 -4l-12 -10l-31 -4l-29 6v10 l9 13l47 37l8 2l27 20l57 29l27 14l51 41l51 43l45 35l12 2l4 10l15 4l20 27l25 18l20 25l47 35l6 14l48 47l24 23l12 20l41 49l25 25l2 12l47 47l4 13l21 22v8l12 11l6 14l10 8v10l7 2l4 17l41 41l2 12l24 35l8 31l17 14l-2 8l10 29l27 43l22 57l8 31h4v8l23 43l16 18l2 15 l7 8l12 70l4 22l12 29v10l8 10l4 31l5 4v16l20 56zM1260 1518h14l8 -31l-2 -17l-8 -12l-23 -12l-8 -16l-14 -5l-21 -24l-26 -21l-9 -20l-12 -6l-6 -17l-12 -12l-13 -29l-6 -6l-2 -18l-4 -4v-15l-4 -4l-2 -28l-8 -19l-8 -63l-11 -29l-4 -33l-22 -59l-8 -64l-19 -61l2 -33 l-6 -4l-12 -37l-15 -10l-6 2l-4 8l2 17l-6 24l4 27l6 6v33l4 22l5 4l4 29l4 4l2 37l12 49l6 12v23l21 63l2 21l6 8l4 33l12 29l17 63l18 27l12 39l11 10l6 16l28 19l23 20l16 6l41 49zM268 803l-2 -4l4 -49l-4 -5l-20 -2l-6 11l4 16l-8 31l-3 33l15 53h4v10h6v8h4v10h4v11 l37 41v8l55 35l25 22l8 12h10l2 9l58 18l16 14l23 9l12 12l33 6l53 25l61 26l64 15l61 20l4 2l17 -8l4 -12l-6 -17l-15 -8l-16 -2l-29 -14l-26 -9l-37 -4l-29 -10l-55 -26l-57 -29l-64 -27l-29 -20l-59 -31l-49 -47l-19 -27l-10 -8v-8l-10 -10l-20 -62zM930 578h14l12 -21 l2 -33l-14 -55l-12 -68l-19 -63l-14 -62l-4 -18l-10 -12l-21 -8l-10 10l-2 12l18 98l25 56l14 65l6 66zM1878 1622l2 -2v-64l2 -28l-6 -60l-16 -53l-9 -67l-14 -27l-12 -10l-6 2l-13 30l4 29l13 33l4 63v33l16 41l2 66l8 16l9 2zM397 582h27l10 -33l-6 -64l-2 -51l-8 -12 l-31 -4l-35 8l-10 8v17l12 10l8 2l25 31l4 67zM1012 793l2 -2l-13 -64l-14 -68l-4 -14l-16 -16l-15 8l-10 29l8 65l15 45l16 19v4l10 2zM690 -66l2 -2v-22l-33 -6l-32 4l-6 4l-3 25l27 8l29 -2zM289 461v-15l-15 -2l-20 13l-2 8l16 6l15 -4z" />
<glyph unicode="W" horiz-adv-x="2009" d="M2345 1425l4 -2l-2 -16l-43 -45l-20 -21l-27 -32l-14 -58l-21 -51l-14 -22l-2 -23l-6 -4l-2 -16l-11 -9l-6 -22l-14 -31l-2 -16l-15 -19l-6 -14l-8 -4l-12 -29l-2 -33l-8 -30l-15 -29l-6 -4l-2 -14l-16 -25l-4 -35l-35 -45l-13 -63l-12 -31v-10l-10 -13l-6 -28l-13 -33 l-4 -23l-10 -10v-8h-4l-4 -14l-12 -8l-4 -17l-13 -12l-4 -21l2 -10l-12 -26l-4 -23h-4v-8h-6l-9 -29l-28 -45l-25 -57l-10 -23l-21 -18l-2 -13l-12 -10l-16 -28l-6 -5l-13 -38l-28 -37l-11 -17l-24 -20l-19 -29l-49 -45l-47 -43l-27 -20l-32 -9l-19 2l-2 11l10 26l29 19 l10 14l27 19l45 45l25 22l8 2l8 12l18 15l7 16l12 10l2 13l22 22l19 37l35 51l16 29l6 22h4v11l11 10l16 31l18 49v8l31 59l25 60l14 47l6 4l10 39l15 37l16 22v9l8 14l2 14h4l11 31l28 35l2 32l21 62l16 43l19 51l8 14l12 11l6 16l6 6l15 66l26 37l11 28l4 33l20 41l21 37 l10 33h4l10 32l15 27l43 45l18 14zM1245 1554h4l8 -2l17 -26l8 -56l-12 -10l-4 -14l-49 -41l-31 -29l-4 -14l-21 -16l-6 -21l-6 -6l-10 -29l-35 -53l-2 -16l-6 -7l-4 -32l-19 -23l-4 -14l-12 -12v-15l-8 -16l-2 -21l-21 -24l-2 -15l-10 -12l-15 -61l-24 -62l-4 -22l-25 -56 l-33 -53l-6 -31l-24 -61l-23 -49l-10 -4l-2 -15l-6 -8l-8 -65l-15 -29l-24 -33l-4 -32l-29 -62l-8 -31l-23 -41l-10 -18l-4 -66l-6 -4l-6 -28l-15 -31l-2 -33l-10 -12l-8 -2l-17 8l-4 16l13 60l2 35l8 26l10 15l8 34l6 7l15 49l6 4l6 28l20 52l19 32l8 2l16 48l7 34l8 21v16 l20 43l17 27l22 59l12 29l15 20l10 62l27 61l24 58l4 16h6v10l7 4l20 52l14 55h5v8l30 55l21 66l16 43l19 22l6 23l32 59l43 47l48 48l14 26l6 51zM1729 1403l4 -2l2 -8l-23 -60l-14 -45l-8 -10l-21 -59l-20 -41l-19 -52l-4 -22l-10 -10v-9l-12 -10l-21 -45v-8l-14 -10 l-4 -25l-15 -12v-10h-4l-14 -60l-8 -33l-6 -10v-8l-19 -14l-2 -15l-10 -14l-6 -55l-17 -27l-6 -20l-6 -4l-16 -56l-6 -4l-25 -57l-21 -62l-22 -63l-12 -45l-19 -29l-4 -14l-10 -15l-21 -59l-26 -61l-19 -64l-2 -33l-4 -6l-10 -2l-14 6l-4 33l8 64l22 61l21 63h4v9h6l14 61 l8 19l13 8l18 57l12 39l17 51v6h6l2 15l29 63l28 58l23 61l14 35l4 16l17 29l8 35l8 4l6 22l21 25l24 53l27 59l6 7v47l6 6l17 37l12 47l16 35l11 10l12 55l12 12l8 35l15 25l16 12zM784 1182l2 -4l-2 -17l-16 -16l-27 -6l-39 -2v-4h-10l-4 -9l-61 -22l-4 -6l-43 -19l-7 -6 l-41 -2l-16 -18l-12 -2l-23 -19l-53 -18l-51 -47l-47 -39l-49 -47l-17 -25l-8 -2l-6 4v55l45 50l24 24l27 16l25 25l55 31l29 10l26 18h27v5l35 6l20 20l17 4l24 21l64 14l49 23l6 8l55 4zM1018 51l18 -18v-10l-28 -39l-13 -2l-10 -13l-8 -2l-25 -18l-4 -8h-10l-12 -13 l-19 -6l-43 -26l-26 -17l-64 -14l-26 -10l-68 2l-43 -4l-29 10l-4 18l10 10l62 7l69 4l31 4l29 12l20 14l13 2v7h8l57 36l53 35l23 23l16 6l13 10h10zM1483 -68l4 -2l-12 -28l-25 -19l-59 -22l-7 -4h-65l-70 -4l-39 22l7 6l63 15l31 2l30 -4l31 6l21 12h6l8 10l59 12z M2531 1575l2 -2l-2 -35l-18 -61l-6 -7l-4 -43l-15 -12l-8 -2l-2 -4h-72l-24 6l-6 12l2 11l6 6l14 4l23 -6h16l25 18l8 13l14 65l13 33l6 6zM397 594h23l4 -66l2 -67l-16 -29l-23 -18l-8 -2l-64 16l-8 4l-10 19l6 6l47 -2l33 18l8 64l2 51zM264 838l2 -2v-5l-8 -6l-16 2l-2 7 l6 6z" />
<glyph unicode="X" horiz-adv-x="1531" d="M2122 1493v-4l-2 -10l-6 -4l-64 -9l-29 -10l-53 -37v-6l-39 -43l-2 -10l-10 -4v-10l-23 -25l-18 -29l-6 -2v-10l-8 -4v-8l-23 -19v-8l-41 -45l-14 -20l-6 -21l-13 -10l-36 -55l-15 -19v-8l-22 -23l-19 -39l-10 -8v-10l-47 -45l-17 -29l-18 -22l-16 -29l-13 -10l-6 -17 l-12 -10l-27 -51l-16 -27l-12 -10l-2 -8l-41 -49l-19 -29l-45 -47l-4 -4l-2 -16l-12 -13l-6 -24l-35 -41l-17 -29l-2 -63l6 -58v-37l5 -12l-2 -16l-19 -8l-10 4l-10 61l-4 66l-7 61v27l7 4v8l36 51l39 53l31 50l8 4l2 14l35 37v10l10 4v10h4v9l21 24l16 29l35 41l4 14l25 21 l33 34l28 58l39 51l27 29l2 12l16 16l2 19l19 24l6 15l33 26l4 15l24 30l13 29l20 25l4 14l27 25l22 32l13 11l34 55l9 16l47 47l12 17h8l21 14l67 21h43l21 -15zM1047 160l4 -2l-9 -31l-28 -57l-21 -35l-26 -17l-23 -22l-6 -14l-8 -5v-8l-10 -10v-14l-9 -4v-11l-24 -22v-8 l-45 -45l-47 -50l-50 -38l-20 -25l-23 -12l-18 -21l-12 -2l-41 -33l-13 -2v-6h-8l-14 -10l-14 -2v-6h-11v-4l-55 -21l-59 -24l-25 -7h-74l-14 5l-68 -5l-20 5l-29 12l-6 6l-2 14l33 11l31 2l22 -4l2 -5h39l4 -4l60 4l4 7l61 14l47 12l37 23l59 28l52 41l30 35l25 23l37 18 l16 25l29 28v9l27 18l22 31l4 14l27 16l24 35v8l7 7l2 14h6l6 14l6 4l25 39l24 25l23 35l24 8zM973 1272l2 -4l2 -11l-6 -12l-56 -24l-10 -11l-14 -2l-12 -10l-33 -4l-47 -18l-13 -11h-24l-41 -18l-10 -12l-21 -13h-33l-26 -10l-6 -6l-11 -2l-28 -31l-15 -4l-12 -12l-47 -27 l-23 -18l-40 -54l-13 -10l-4 -12l-20 -27l-6 -14l8 -64l4 -16l-4 -14l-17 -6l-14 6l-10 26v115l6 6l8 23l14 8l5 14l53 39l37 43l12 2l24 21l13 4l12 10l2 8l12 10l15 5l6 6h31l24 18l29 15l45 6l47 37h8v4l25 8l51 4l33 22l12 2l14 9l43 12h11zM369 297h22l10 -33l-6 -63 l-4 -6l2 -33l-16 -27l-25 -14l-51 -15l-53 -30l-29 -29l-8 -14l-10 -8l-19 -66v-10h-4v-15l-14 -8l-14 8l-7 15v35l17 63v10h4l4 19l14 8l6 14l27 19l4 10l12 2l7 6l28 4l31 11l51 30l4 15l6 6l-2 32l4 35zM1384 1573h9l10 -2l10 -27l2 -16l-4 -10l-8 -5l-6 -16l-17 -4 l-10 -12h-10v-6h-8v-5l-13 -2l-47 -47l-8 -20l-27 -35l-4 -25l-4 -4l-4 -57l-8 -23l-10 -6l-15 2l-4 7v67l9 37l22 49l41 51l35 39l8 2l18 15l11 2zM1307 76h4l6 -64l12 -53l-6 -22l14 -68l-4 -31l-14 -18l-14 6l-9 12l-2 70l-6 63l-10 68v20l6 15zM1217 1219l10 10l14 -4 l10 -37l-2 -66l2 -51l-10 -18l-18 6l-6 12l-5 72l-2 35zM1563 -590l2 -2l4 -31l-6 -14l-15 -10l-4 -8l-31 -11l-8 -6h-14l-10 -4v4l-15 4l-10 11l-2 18l6 10l13 6l30 5l15 8l14 22zM2277 1608l2 -2v-11l-16 -26l-22 -64l-19 -24l-31 -11l-6 19l10 29l13 12l14 31l10 12l4 26 l15 21l20 -2zM543 477l-2 -4l-66 8l-29 6l-18 17v12h80l14 8l4 6l15 -6l10 -10l2 -14zM1303 -233l2 2h24l12 -45l5 -64l-9 -4l-14 2l-8 10l-10 33l-5 35zM1391 -651l-2 -6l-33 -2l-35 8l-8 8l-2 18l6 4l35 -2l6 -6l26 -8zM1282 221l4 2h8l13 -8l6 -14l-2 -37h-29l-8 31l2 16 zM535 633v4h14l14 -47l-4 -23l-10 -2l-12 6l-7 15v37zM1241 1040h4l6 -12l4 -45l-4 -14l-6 -4l-12 6l-4 35l-6 12l-2 16zM1239 956h14l7 -14l-3 -16l-10 -8l-20 10l2 18zM190 -358l3 2h10l4 -13l-4 -8l-13 -2l-4 8zM387 524v6h10l9 -10l-3 -6l-8 -2zM1513 -485v8h19v-8h-19z " />
<glyph unicode="Y" horiz-adv-x="1658" d="M1837 449l4 -3l4 -8l-8 -28l-16 -31l-2 -14l-25 -25l-29 -37l-16 -33l-8 -2l-2 -10l-10 -6l-9 -23l-10 -4l-2 -12l-158 -158l-12 -4l-22 -24l-52 -41l-12 -17h-10l-49 -39l-17 -2l-24 -24l-52 -33l-43 -14l-36 -52l-23 -59l-24 -63l-5 -11l-6 -4l-2 -14l-16 -25l-4 -14 l-17 -29l-20 -53l-17 -25l-2 -12l-43 -51l-36 -51l-56 -39l-51 -39l-6 -6l-35 -8l-4 -4l-57 -11l-37 4l-6 4v23l6 4l31 4l12 6l37 6l30 11l52 37l55 39l4 12l37 53l33 51l6 6v11h4v8h6l8 33h4v10h6v8h5l6 31l16 24v11h6l12 20l7 2v10h4v9h4l18 51l15 59h4l2 12l24 19l11 12 h10l4 8h10l49 41l56 33l57 33l4 6l12 4l49 47l31 25l10 2l5 10l12 2l31 31l6 14l49 43l12 10l16 27l46 49l16 21l4 12l12 8l33 55l33 54l8 22l16 19l19 4zM1804 1317l4 -2l7 -8v-31l-25 -62l-29 -59l-22 -63l-4 -23l-6 -4l-9 -14v-11l-10 -14l-22 -61l-27 -62l-25 -59 l-26 -58v-6h-6v-8h-5l-4 -37h-4l-8 -16l-2 -14l-16 -21l-17 -66l-8 -22l-6 -4l-23 -60l-24 -57l-23 -61l-14 -31l-8 -29h-4l-11 -32l-22 -41l-4 -23l-6 -6v-8l-15 -23l-2 -16l-14 -17l-6 -26l-25 -56l-12 -10l-18 -2l-9 17l23 41v8l6 6l14 55l9 10l2 19l6 2l18 55l17 27 l2 24l20 50l6 6l19 61l14 27l18 53l31 61l10 33l21 35l2 23l6 6l6 30l19 43l10 13l4 30l27 50l18 45l12 30l4 31l21 43l10 8v15l17 24l12 35h4l2 27l35 57l14 47v16l10 27l15 21l20 14zM1276 1452l4 -2l-6 -35l-19 -26l-51 -39l-14 -4l-23 -25l-14 -10l-8 -31l-15 -16 l-4 -19l-4 -4l-8 -37l-22 -53l-9 -12v-6l-14 -23l-2 -20l-6 -13h-4l-4 -24l-29 -60l-8 -37l-10 -8v-14l-33 -51l-10 -35l-2 -25l-7 -4l-14 -49l-18 -25l-4 -16l-19 -14l-4 -8l4 -15l-4 -30l-25 -62l-4 -4v-10h-4l-2 -15l-20 -26l-27 -60l-10 -28h-6v-11h-4l-23 -55l-2 -33 l-18 -53l-13 -10l-2 -39l-12 -27l-18 -10l-19 25l2 16l8 6l21 45l8 62l2 10l8 2l23 53l16 56l23 55l10 31l31 53l30 59l23 33l-4 33l6 28l25 60l6 4v16l10 19l12 12l6 33l9 10l22 66l21 51l26 63l6 29l13 31l6 6l12 31l2 14l16 26l15 11v14l12 12l14 35l21 14l16 31l49 43 l39 45h11zM784 1151l4 -4l-2 -19l-10 -12l-57 -22l-37 -11l-43 -18l-4 -6l-33 -8l-4 -7l-18 -10l-56 -18l-6 -6l-12 -2v-4l-25 -9l-4 -6h-8l-55 -26l-31 -15l-12 -12l-15 -6l-14 -27l-23 -24l-16 -25l-10 -27v-8h-6l-8 -24l-7 -4l-6 -54l6 -2v-16l-4 -8l-8 -4h-16l-8 10 l-9 35v30l9 41l12 11l2 12l10 4l2 12l6 4l15 29l4 16l45 45l24 29l33 8l27 19l20 8l8 12l31 6l43 27l14 8h9l114 43l64 23l29 16l24 2zM1028 55l2 -2l-6 -24l-33 -37h-8l-27 -19l-14 -18l-14 -4l-4 -8l-43 -29l-15 -4l-12 -12l-33 -7l-30 -14l-60 -18l-6 -4l-68 4l-41 6 l-8 12v8l13 11h96l63 20l60 27l28 14l23 25l14 6l13 12l14 2l22 14l43 45l11 2zM889 -274l2 -2l-2 -17l-23 -24l-26 -17l-17 -4l-12 -8l-51 -10l-15 -9l-10 -14l-2 -12l-49 -37l-16 -6h-11l-2 16l15 29l12 10l2 12l6 7l62 24l8 23l16 2l58 26l24 19l19 -2zM393 559h25l8 -12 v-68l-4 -61v-8l-12 -17l-21 -16l-35 4l-35 14l-49 8l-12 11l-4 10l14 4l64 -14l24 4l29 24v68l2 31zM1833 1421h4l14 -6l7 -12v-19l-7 -14l-12 -12l-16 -2l-8 12v35l8 14zM702 -680l3 -4l-7 -14l-26 -4l-10 20l4 8l16 4l10 -2z" />
<glyph unicode="Z" horiz-adv-x="1267" d="M1819 1556l4 3l16 -5l23 -57l4 -16l-8 -23l-25 -22l-12 -4l-13 -11l-28 -14l-39 -31l-4 -14l-13 -8v-8h-4l-2 -13l-43 -51l-39 -49l-6 -6l-12 -2l-23 -25l-8 -4l-14 -43l-14 -16l-3 -13l-49 -47l-6 -18l-6 -4l-8 -15l-8 -6l-4 -14l-15 -8l-4 -15l-16 -26l-27 -21l-33 -37 l-22 -47l-27 -22l-4 -15l-10 -4l-2 -12l-39 -53l-37 -37l-6 -14l-8 -4l-4 -15l-13 -12l-4 -12l-33 -50l-47 -51l-43 -51l-28 -27l-9 -30l-30 -39l-2 -10l-43 -52l-8 -14l-43 -37v-8l-33 -49v-4l-43 -47l-13 -13l-6 -14l-6 -4l-18 -29l-23 -20l-24 -4l-11 4l2 20l7 15l20 20 l29 45l47 47l2 15l10 8l2 12l14 8l5 15l34 34l2 13l33 47l49 43l9 14v8l22 21l35 59l14 19h6l33 36l4 15l13 8v10h4v8h4v11h4l12 22l12 10l17 27l16 18v5l12 12v6l50 49l6 4l24 41v8l33 39l6 15l15 10l12 20l6 4l2 11h4v10l43 51l41 49l37 33l6 14l8 4l2 13l37 51l31 20 l14 43l31 33l2 8l25 17l2 12l10 4l4 15l10 10v8l15 22l49 48l28 24l27 17l21 30l-7 35l4 14zM1743 -459h-4l-37 -33l-8 -14l-13 -2l-51 -41l-63 -24l-23 -11l-65 -10l-43 -8h-35l-27 10l-18 -4l-6 -6h-19l-10 12v8l12 7h35l41 14v4l31 2l30 8l33 2l29 6l41 17l8 12l16 2 l9 12h8l51 37l14 8l4 7l23 12l49 45l21 2l12 -8l6 -13v-14l-25 -24l-2 -7h-14zM922 1405l2 -4l-15 -10l-65 4l-64 2h-32l-43 -6l-5 -5l-28 -4l-6 -8l-21 -2l-37 -26v-9l-10 -6l-2 -12l-12 -6v-10h-4v-9l-27 -43l-2 -18l10 -19l-10 -22l-8 -4l-8 2l-11 12l-2 15l13 30l-11 41 l6 21l7 6l12 35l24 24l27 12l23 19l4 8l22 6l19 13l26 8h68l63 -4l60 -4l26 -15zM575 -53l5 -2v-11l-19 -26l-22 -10l-23 -23l-29 -20l-30 -9l-49 -24l-27 -21l-62 -4l-22 -10l-68 -2l-61 6l-68 14l-16 15l4 18l6 4l56 -8l10 -6h65l64 4l63 10l15 11l14 4l12 10l33 4l6 6 l14 4l23 17l29 8l53 43l6 4h10zM1292 1343l43 -8v-20l-8 -12l-61 10l-33 6l-37 18l-22 -6l-3 4l-43 2l-16 11l-70 12l-45 16l-10 10l8 17l15 2l55 -10l45 -17l16 -6l25 2l33 -6l41 -16zM924 963l4 -2l2 -9l-6 -14l-25 -20l-59 -23l-58 -16l-65 -2l-35 -3l-29 -6l-14 2 l-27 15v10l9 12l55 -4l2 -4l27 8l59 6l53 19l51 18l31 13h25zM188 217l2 -4v-23l-28 -10l-15 -10l-20 -27l-12 -28l-2 -19l-9 -14l-6 -4l-18 4l-6 14v31l14 33l10 12l2 14l23 25l14 10l31 6zM1239 -565v8h8v-8h-8z" />
<glyph unicode="[" horiz-adv-x="819" d="M735 1264h4l6 -7l-2 -49l-24 -20l-2 -8l-6 -4l6 -43l-6 -7l-21 -49l-8 -33l-33 -47l-2 -12h-6l-8 -47l-10 -33l-15 -31l-2 -16l-24 -49l-25 -57l-6 -7l-14 -59l-5 -16l-10 -11l-16 -49l-8 -32h-4l-11 -33l-28 -58l-15 -30l-8 -29h-4l-8 -33h-4l-10 -35l-11 -6v-10l-8 -4 l-18 -27l4 -39l-6 -2l-2 -16h-7v-8h-4l-2 -12l-16 -11v-10h-4l-17 -59l-22 -58l-12 -55l-9 -10l-12 -31l-22 -43l-13 -8l-12 -29l-10 -10l-21 -2l-4 6l15 31l20 63l18 58l21 57l27 65l22 54l12 12v10h4l5 17l32 53v33l11 12l10 27l2 16l6 4l23 55l16 47l4 15l16 26l11 11 l10 47l-2 8l35 53l14 64l6 30l23 35l16 31l4 31l23 57l24 59l12 35l11 4l2 15l26 53l27 57h8l15 19l-2 32l6 29l14 21zM1042 1573l2 -4l-2 -19l-20 -8l-61 -2l-31 4l-35 -8l-25 -23l-8 -14l-2 -14l-10 -12l-21 -62l-4 -14l-39 -51h-10l-8 32l25 60l4 30l-2 9l20 49l12 18 l35 27l60 4l67 4h35zM213 -362l2 -3l-2 -8l-10 -8l-27 -6l-70 4l-65 -4l-59 8l-13 -4v-4h-14l-4 -6l-29 6l-4 4l-24 2l-3 16l9 9l65 8l33 -8l33 10l65 2l64 -2l33 -4zM379 -223l4 -2l-4 -29l-27 -63l-22 -43l-45 -33h-17l-16 6l-16 14l-3 8l5 9l28 12l35 33l6 20h6l13 29 l6 4v14l22 33h11zM1153 1714l4 -2l-6 -33l-21 -59l-10 -41l-6 -4l-18 -2l-13 -8l-14 4l-2 6l8 18l12 13v8l5 2l4 37l26 57l11 12h10z" />
<glyph unicode="\" horiz-adv-x="765" d="M354 1296h15l14 -24l4 -68l12 -61l7 -45l-9 -37l9 -14l4 -33h6l10 -58l6 -69l2 -25l8 -33l-2 -30l13 -56l8 -71l10 -64l-2 -63l8 -31l-6 -25l6 -16l2 -24l15 -29v-64l16 -59v-68l6 -34l12 -31l2 -53v-48l21 -63v-16l-14 -23l-15 8l-14 33l2 55l-8 19l-6 65v33l-9 31 l-12 20l-2 66l-6 65l-14 60l4 33l-2 18l-4 6l6 8l-15 27l-2 33l-8 30l-4 66l-4 63l-10 27l-2 66l-2 34l-17 64l-12 63l4 68l-6 10v19l4 10l-14 26l-11 31l4 64l-2 18l-6 4l-8 66zM518 -80l8 12h25l20 -59l4 -66l7 -65l6 -33l-6 -22h-7l-12 -13l-65 -6l-23 8l-6 7l-4 20l12 6 l2 6l33 6l29 27l-9 66l-12 63zM303 1622h25l8 -14l4 -33l6 -8v-25l4 -4l6 -63l11 -62l-2 -37l4 -33l-2 -24l-7 -4h-10l-14 18l4 29l-14 53l-9 68l-10 63l-6 29l-2 33z" />
<glyph unicode="]" horiz-adv-x="817" d="M965 1094h4l14 -7l10 -12l-12 -53l-10 -12l-2 -25h-4l-19 -41l-10 -33l-12 -22l-6 -4l-3 -13l-12 -12l-18 -55l-13 -27l-4 -18l-4 -4l-12 -47h-4l-12 -27l-7 -6v-14l-10 -11l-2 -22l-18 -54l-2 -6h-4v-10h-7v-8l-8 -14l-2 -13l-18 -45l-8 -10l-19 -51l-14 -17v-8h-4v-10 h-4l-9 -47l-24 -60l-29 -57l-35 -104l-18 -49l-12 -11l-21 -57l-24 -57l-23 -58l-4 -33l-18 -24l-13 -33l-6 -33l-6 -12l-18 -18v-9l-19 -28l-8 -33l-19 -27l-14 -12l-12 -4l-45 10l2 17l18 16h8l33 37l29 51l6 55l27 54l12 32l25 41l16 50l10 14l17 59l16 37l20 62l7 14 l6 4l10 43l14 20l2 15l6 6v8l25 60l6 24l8 2l2 12l13 13l4 16l6 4v19l6 12l2 16l27 39l4 31l18 49l13 23l12 45l14 24l25 66l10 10l2 23l8 28l13 23v8l22 33l21 59l12 25l12 51l12 24l7 23l12 12l8 33l18 23zM1227 1710h6l8 -20l-8 -23l-10 -12v-10h-4l-5 -29h-4l-41 -51 l2 -35l-6 -33l-10 -14l-6 -25l-10 -12l-13 -43l-8 -6l-6 -54l-29 -55l-20 -63l-21 -35v-8l-14 -29l-16 -16l-11 -2l-12 10l-6 22l25 62l26 57l23 64l24 61l25 59l22 60l2 8l25 21l4 16l12 22l-4 15l19 65l18 25zM266 -354l2 -4l-2 -17l-10 -8l-66 -4l-59 4l-35 2l-65 -4h-62 l-10 8v17l12 12l15 -6l63 10l62 -6l65 6l31 -6l35 4l14 -2zM872 1579h2l3 -18l-9 -9l-32 -6l-72 2l-19 4l3 17l10 10l35 6l69 -2z" />
<glyph unicode="^" horiz-adv-x="1021" d="M731 1065l4 -2l-2 -16l-20 -27l-4 -14l-15 -9l-14 -28l-27 -33v-8l-18 -15v-8l-41 -31l-12 -28l-23 -23l-18 -28l-43 -50l-23 -24l-8 -16l-25 -21l-41 -49l-18 -19l-12 -30l-11 -13l-30 -18l-47 -12l-33 4l-64 -6l-34 2l-52 -4l-14 6l-8 12l6 18l10 11l66 4l63 -8h33 l31 8l12 10l10 2l21 16l30 17l27 47l4 14l47 49l11 11l4 14l6 2l18 27l21 14l10 23l16 10l2 12l37 49l23 27l16 12v10l8 5l17 28l47 47l35 39h10zM958 1290h19l12 -28l-4 -33l2 -33l-8 -59v-35l-6 -29l12 -67l2 -19l-6 -4l4 -12l-10 -13h-19l-10 11l2 61v33l-4 4l4 14l-4 9 v163l8 29zM954 635h23l-4 -6l8 -8l6 -31l-12 -21l-27 -22h-65l-68 2l-29 4v20l19 17h33l36 -6l35 2l25 18zM958 899h5l10 -2l8 -16l4 -74v-25l-8 -10l-23 -2l-10 10l-4 29l4 72l8 16zM971 1389l6 -3l6 -14v-18l-6 -15h-29l-4 17l4 22l10 8z" />
<glyph unicode="_" horiz-adv-x="1099" d="M444 -283v-4l-2 -8l-10 -8l-65 -6l-62 2h-31l-32 6l-64 -8l-63 2l-66 2l-63 -2l-33 4l-33 -4l-6 2l-6 10l2 16l57 9l68 2l65 2h68l65 -4l64 2l33 6l67 -6l19 2l22 -6zM786 -276l2 -5v-12l-14 -8l-61 -10l-64 4h-18l-15 -6l-65 12l-33 -2l-29 8l-2 4l9 15l12 8l67 -4l62 4 l12 6l31 -6l65 6h19l16 -6zM963 -197l2 4l6 -16l-10 -27v-32l-25 -37l-33 -2l-55 14l-4 6l6 15l35 6l28 16l27 31l12 4z" />
<glyph unicode="`" horiz-adv-x="757" />
<glyph unicode="a" d="M1294 446l4 -2l-8 -32l-6 -6v-13l-43 -49l-16 -22l-6 -23l-29 -23l2 -16l-21 -43l-18 -14l-8 -17l-23 -20l-39 -51l-45 -47l-12 -21l-27 -18l-8 -13l-14 -4l-49 -45l-6 -2l-4 -8l-62 -18h-33l-28 -11l-27 -18l-27 -6h-57l-16 6l-15 14l4 17l31 8l33 -2l39 6l22 -6l56 33 l49 12l8 10l27 18l47 48l8 10l14 4l47 47l17 25l18 16l39 51l39 49l12 6l6 21l11 12l4 25l26 26v9l9 14v10h4v8l37 50l8 2l2 4h10zM600 838l2 -4v-11l-14 -12l-45 -23l-51 -38l-25 -21l-8 -16l-41 -49l-17 -46l-22 -45l-6 -6l-2 -12h-6l-29 -61l-27 -62l-18 -61l2 -25 l-25 -53l-10 -66l-4 -16l-14 -8l-17 4l-6 12v33l12 61l17 64l4 35l16 26l19 62l24 59l17 45l16 17l2 8l12 10l4 14l19 13l14 43l8 10l5 14l47 39l2 12l14 9l16 26h11l4 10l14 2l25 15l30 4l25 -6zM477 63h4l2 -14l-20 -47l-55 -25l-25 -24l-29 -16l-30 -11l-64 -14l-24 -10 l-66 8l-29 6l-14 8l-2 10l16 19l66 -6l65 8l35 12l12 10l31 13l56 33l26 24l27 12l8 9zM895 606h23l-13 -61l-26 -58l-25 -59l-8 -29l-19 -26l-16 -45v-15l-8 -18l-12 -12l-17 -31l-14 -2l-4 14l12 64v18l18 37l7 4l2 12l6 7l2 14h4l2 24l10 13l19 57l12 12l2 25l10 4v8h4 l2 17zM1055 965l2 -2l4 -19l-6 -31l-27 -57l-8 -33l-23 -24l-14 -60l-22 -43l-3 -14l-8 -10l-6 -23l-31 -20l5 76l24 55l31 41l10 63v6l6 7l15 45l24 45l10 2zM754 133h-4l-23 4l-4 33l22 59h15l12 -28l2 -17z" />
<glyph unicode="b" horiz-adv-x="1021" d="M1208 455l4 -2l5 -9v-14l-31 -57l-17 -29l-43 -49l-30 -43l-52 -41l-32 -23l-19 -4l-55 -39l-14 -4l-6 -6l-60 -12l-45 -19l-47 2l-12 -6l-33 -6l-29 -12l-49 -35l-39 -8l-2 8l6 25l21 26l12 11l14 4l15 10h30l29 6l31 -4l10 2l6 6l58 17l63 24l55 35l45 31l54 43l34 34 l19 29l6 4l2 12l41 41l2 13l12 10l2 12l19 19zM915 915h13l16 -14l12 -59l-8 -64l4 -67l-4 -33l-14 -31v-10l-6 -4l-6 -62l-7 -20l-4 -35l-20 -47l-21 -63l-26 -48l-15 -12l-14 -22l-6 -48h-6l-6 -12l-13 -8l-18 2l-8 14l2 15l18 28l25 21l6 16l-4 13l8 14l6 35l23 51l6 4 l2 10h4l14 43l-2 8l13 33l10 66l16 26l6 23l-2 65l6 25l7 10l2 33l-13 63l-6 31zM623 834v-7l-11 -14l-63 -10l-31 -12l-22 -19l-45 -51l-9 -23l-22 -24l-17 -31l-8 -43l-4 -4l-2 -64v-67l2 -12l4 -4l-4 -19l-18 -2l-8 8l-3 35l-8 33l4 63l-2 68l6 27l19 32l10 8l2 13l31 47 l25 26l53 37l33 15l59 8l22 -2zM686 1391l2 -2l-16 -66l-23 -55l-14 -31l-8 -39l-9 -4v-8l-36 -43l-4 -35l-21 -45l-6 -6l-14 -60l-21 -22l-18 -4l-11 20l5 17l6 2v8h4v10h4v8h6l8 27l4 35l6 4l5 16l10 10l6 15l16 18l-6 23l14 28l15 43h4l8 29l25 64l8 16l2 14l18 21l19 -2 zM582 31l4 -4l4 -7l-4 -16l-23 -24l-49 -35l-27 -6l-4 -7l-63 -18l-62 -6l-65 4l-35 -2l-33 4l-28 10l-7 15l9 14l14 2l61 -10h66l61 16l60 21l28 18l17 2l39 29l28 6zM272 338l2 -2l-4 -29l-14 -31v-122l-4 -7l-14 -2l-11 9l-10 28v39l6 37l10 27l-2 34l11 27l18 -2z" />
<glyph unicode="c" horiz-adv-x="925" d="M1102 444l4 -2l-2 -32l-8 -19l-41 -49l-27 -51l-14 -10v-9l-13 -10l-2 -8l-18 -14v-11l-16 -16l-4 -12l-9 -4l-6 -15l-47 -43l-43 -49l-25 -24l-40 -27l-19 -16l-22 -11h-11l-4 -10h-8v-4l-12 -2l-13 -12l-8 -2l-4 -7l-57 -20l-58 -16l-16 -5l-14 -10l-23 -6v-4l-61 -8 l-17 -4l-65 4h-66l-65 10l-25 18l-2 13l15 8l63 -8l66 -8l14 -7l35 7l2 4h8v4h10v4h10l19 8l72 4l38 19l58 22l59 29l21 16l16 4l4 10h8l4 7l11 2v4l12 2l49 47l25 31l26 20l43 45l45 51v9l39 51l37 53l35 55l14 13h11zM567 805l-4 -4l-12 2l-2 4l-8 2l-17 -4l-10 -10 l-2 -17l-12 -10l-4 -16l-23 -21l-4 -12l-12 -6l-2 -13l-35 -45l-2 -14l-23 -20l-4 -13l-12 -12v-8l-10 -15l-9 -28l-26 -62l-8 -30l-31 -58l-8 -16l2 -33l-4 -31l-19 -61l2 -57l-6 -7l-16 -2l-10 11v12l-7 4l-2 64l2 16l7 4l4 29l14 32l-2 15l10 24l6 52l4 2v8l11 14l10 41 l16 25l27 61l18 23l2 16l29 57l25 31l43 47l22 25h10l15 -6l8 2l14 30l13 7l24 22l37 4l12 -4l10 -10l3 -8l-5 -17l-10 -10zM860 825v54h14l15 -31l10 -53l-6 -68v-20l-21 -41l-6 -15l-6 -4l-8 -29l-12 -14l-6 -55l-15 -10l-31 -4l-32 2l-62 -11h-69l-17 4l-6 17l12 18l25 4 h68l55 -6l31 15l26 18l10 51l13 19v34l14 64z" />
<glyph unicode="d" d="M1210 1395h15l8 -15v-14l-12 -12l-2 -8l-11 -11v-8l-8 -6v-33l-4 -22l-12 -19l-13 -30l-14 -23l-2 -12h-4l-16 -27l-7 -4l-2 -10h-4l-4 -29l-6 -12v-19l4 -8l-16 -49h-6l-11 -29l-6 -6l-20 -61l-19 -25l-2 -16l-6 -6v-11h-6l-2 -22l-18 -23l-17 -59l-2 -18l-16 -29 l-23 -64l-24 -61l-17 -37l-20 -20l-4 -33l-19 -55v-9h-4l-2 -12l-16 -29l-19 -61l-6 -8l-12 -39h-4l-17 -62l-16 -53l-10 -14l-2 -17l-11 -8l-18 6l4 64l12 57l11 8l2 15l10 12l6 31l18 49h5l14 61l24 45l17 29l4 14l16 19v8l4 2l-2 33l13 33l24 61l25 47l2 25l27 45l6 6 l6 47l20 49l23 51l14 43l12 29l35 55l19 47l4 2v33l6 13l2 16l10 4v14l6 7l2 12h4v8h7l18 57l12 21l2 10l23 14l2 41l6 2zM1280 444h4l6 -12l-10 -33h-4v-10l-19 -20l-16 -31l-2 -14h-6l-6 -21l-13 -6v-10l-8 -4v-11l-22 -22l-33 -47v-8l-25 -19l-36 -47l-9 -4l-18 -27 l-49 -45l-47 -47l-27 -18l-27 -25l-32 -10l-7 -6l-36 -4l-50 -29l-16 -4l-20 2l-11 8l4 19l13 10l30 2l27 8l53 39l17 6l39 27l4 6l14 4l25 25l16 8l29 32l4 15l41 33l37 51l2 6l14 12l12 31l39 51l23 25l35 59l6 12l41 48zM608 844l4 -4v-11l-10 -8l-2 -8l-6 -4l-25 -2 l-53 -35l-47 -43l-18 -29l-52 -41l-6 -6l-2 -14l-6 -4v-33l-6 -6l-4 -16l-6 -7l-2 -16l-11 -10l-24 -58l-6 -4l-17 -36l-6 -5h-20l-7 7l-2 14l13 22l6 5v14l8 12l14 47l7 6l2 13h6l18 49l33 35v24l4 2l12 27l47 49l45 49l56 27l30 8l17 -2zM469 70l18 -19l-4 -14l-39 -33 l-8 -14l-14 -4l-14 -21l-23 -8l-25 -16l-57 -29l-16 -6h-45l-6 6h-15l-6 4l-2 18l10 11l33 2l59 18l58 39l35 35l14 2l37 29h10zM250 319h-4l-8 15v16l14 33l14 18l8 2l11 -6l10 -14l2 -12l-12 -31l-13 -14l-18 -9zM252 252l4 -2l-10 -55h-23l-8 14l-2 18l6 25l14 8z M190 -70v-4l-2 -10l-12 -8l-18 2l-15 6v18l7 5h28z" />
<glyph unicode="e" horiz-adv-x="925" d="M1118 453l4 -2v-15l-30 -57l-13 -27l-41 -30v-11l-6 -2l-10 -16l-8 -29l-10 -6l-5 -12l-24 -21l-41 -51l-47 -45l-49 -47l-4 -6h-9v-4h-10v-6l-14 -7l-17 -16l-12 -2l-4 -8l-29 -17l-24 -22l-15 -6l-10 -13l-12 -2v-4h-10v-6l-66 -16l-33 -6l-30 -15l-66 -4h-8l-16 -8 l-62 -4l-59 4h-27l-14 18l8 13l65 -4l64 4h18l13 6l14 -6l55 18l6 8l21 2l10 11h14l31 16l47 14l4 6l17 3l12 10l12 2l31 20l51 39l41 35l10 14l15 4l16 23l47 47l43 49l45 47l7 6l6 31l6 4v8l20 17l4 14l15 8l6 17l6 6v8l27 33h10zM881 868v4h14l12 -24l6 -33l-6 -70 l-6 -34l-20 -19l2 -33l-4 -28l-31 -60l-19 -47l-8 -4l-28 -37l-15 -6l-43 -47l-12 -12h-8l-27 -17l-35 -12l-26 -16l-47 -8l-33 -15l-31 -8h-61l-60 -4h-45l-14 6v21l10 10l66 4l61 2h23l4 6l65 10l62 19l43 18l22 27l51 39l35 35l6 14l9 4l6 20l10 13l4 22l35 56l22 24v64 l2 65zM621 846v-6l-3 -9l-10 -8l-30 -12l-7 -6l-26 -10l-49 -47l-21 -21l-6 -12h-4l-2 -8l-37 -52l-18 -14v-8l-23 -25v-8h-4l-16 -55l-9 -17l-12 -8h-25l-4 17l2 16l29 55l8 31l23 27l33 57l30 39l15 8l4 14l24 23l15 18l12 2l4 9l64 20l34 8zM256 242h-6l-8 10l2 16l10 21 l16 -4l9 -23l-7 -14l-12 -8zM297 352l4 -4v-8l-16 -4l-6 4l10 12h8z" />
<glyph unicode="f" horiz-adv-x="819" d="M1008 453h4l6 -19l-35 -53l-18 -16l-27 -58l-10 -20l-15 -11l-2 -12l-26 -22l-43 -52l-23 -22l-26 -18l-9 -13l-14 -4l-37 -27l-35 -6l-39 -22l-12 -15l-26 -12l-27 -6l-27 -12l-41 -8l-12 -5v-4l-59 -8l-66 4l-16 -2l-21 -22l-6 -13l6 -43l-4 -4v-32l-4 -13v-28l-6 -5 l-2 -32l-19 -51l-20 -62l-14 -63l-11 -23l-6 -4l-4 -12l-29 -29l-2 -31l-28 -55l-17 -18v-11h-6v-8l-26 -29v-6l-48 -47l-45 -41l-14 -2l-4 -6l-61 -22l-64 -9l-68 4l-14 7l-4 16l6 4l2 8l8 4l13 -6l61 2l64 23l57 31l47 43l45 47l37 53l16 29l29 38l10 7l4 32l21 64l18 61 l15 62l12 65l10 19l4 26l4 4l2 58l17 22l43 33h33l47 -6l65 27l66 12l57 31l17 6l36 30l29 13l10 12h15l4 8l12 2l33 29l2 12l16 12l2 11l15 8l20 27l16 12l5 18h4v8l10 7v8l12 10l15 20l14 11v8l10 6l6 14l8 5l13 30l10 13l18 8zM946 1384h15l8 -2l6 -10l4 -65v-37l-4 -29 l-12 -35l-7 -45h-4l-4 -16l-12 -15l-4 -14l-10 -14l-4 -33l-13 -37l-6 -4l-2 -18l-27 -62l-26 -57l-27 -55l-10 -35l-27 -45l-10 -11l-6 -32l-23 -33l-4 -14l-10 -11l-12 -41l-13 -12l-22 -33l-2 -10l-12 -8l-19 -51l-41 -51l-43 -52l-6 -4h-10l-12 -20h-11v-4l-32 -9v-6h-9 v-4l-57 -20l-66 -15l-26 -6l-4 -4l-31 -4l-31 -12l-24 -23l-13 -24l-16 -6h-10l-10 14l14 41l10 4l4 14l47 29l9 4l51 4l4 4l65 12l29 11l55 30l9 3l8 12l26 16l25 31h8l43 47l19 35l12 12v14l39 56v14l6 4v12l31 62l32 59l13 29l20 29l21 63l6 23l6 2v8h4v10l10 10l19 45 v11h4l14 41l4 28h6v8h4v11h5v8h4v10h6v8l12 19l10 51l11 18l14 68l6 66zM756 1397l4 -2l2 -19l-8 -12l-25 -16l-43 -48l-20 -26l-29 -57l-23 -43l-6 -7v-8l-20 -26l-8 -31v-23l-11 -14l-10 -31l-14 -26l-10 -31v-14l-13 -13l-4 -12l-6 -6l-23 -62l-20 -47l-20 -55l-21 -57 l-18 -56l-13 -18l-4 -14l-12 -13v-10h-4v-8l-8 -10l-9 -35l-22 -49l-10 -13l-27 -4l-6 15l20 59l9 33l28 55l10 31l13 18l14 58l17 28l2 19l10 8l16 57l2 8h4v9h6v10h5v8l6 6l2 12h6v11h4v8l10 14l2 15l11 10v8h4v10h6l8 27l2 20l25 62l12 28l6 7l4 32l16 41l33 56l6 14 l13 10l8 23l16 24l56 47l34 21zM121 49h18l4 -8l-2 -16l-8 -15l-4 -30l-23 -60l-4 -14h-4l-4 -27l-22 -29l-6 -24l-15 -27l-10 -39l-14 -20l-2 -25l-11 -14l-4 -33l-6 -4l-24 -59l-25 -56l-14 -32l-15 -6h-10l-4 14l4 65l2 9l19 26l16 43l10 10l2 15l21 31l14 38l10 25l4 2 l2 35l21 57l10 15v10h4v8h4v10h6l5 25l24 47l12 12l11 31z" />
<glyph unicode="g" horiz-adv-x="1085" d="M1262 436l2 -2l2 -22l-13 -27l-6 -4l-8 -31l-39 -49l-43 -49l-18 -12l-13 -33l-18 -31l-27 -24h-6l-22 -23l-15 -8l-18 -29l-41 -45l-16 -6l-11 -12l-26 -17l-15 -20l-14 -2l-18 -25h-9l-4 -6l-10 -2v-4l-29 -10l-22 -15h-14v-4l-15 -4l-12 -12l-25 -6l-26 -21l-56 -31 l-12 -8l-31 -10l-18 -14l-16 -62l-7 -26l-6 -4l-4 -25h-4v-8l-24 -21l-13 -4l-14 21v8l10 14l12 33l7 4l4 14l12 11l8 30l17 4v33l4 15l30 28l62 21l31 12l57 41l39 23l4 10h8l10 10l33 16l4 11l12 2l7 12h10l4 8l20 6l25 23l37 43l16 2l10 10l31 14l8 21l19 29l51 43l6 4 l-2 8l14 29l5 16l20 22l25 37l18 25l25 22l6 21l14 14zM604 842l2 -4l-2 -17l-10 -12l-31 -8l-57 -33l-43 -49l-29 -25l-4 -28l-41 -50l-12 -47l-23 -28v-9l-12 -24h-4l-21 -59l-18 -66l-16 -61l-7 -35l-10 -11l-10 -32l6 -41l-4 -15l-6 -4l-27 4l-4 7l12 63l7 4l-4 31 l10 65l14 31l12 12v11l4 4v55l3 14l18 25l14 31l6 4l19 57l8 14l10 9v8l23 20l35 54l22 57l15 8l2 8l12 4l53 41l29 15l49 10zM889 610h18l6 -6l5 -16l-9 -31l-14 -31l-2 -14l-31 -59l-14 -68l-8 -16l-27 -25l-18 -27v-32l-13 -45l-16 -47l-16 -19v-8h-5l-20 -33v-35 l-20 -39l-15 -6h-10l-6 6l-4 17l26 59l11 12l2 35l6 23l6 2v10h4l8 29l6 26l6 4l15 43l22 17v33l6 6l7 22l18 23l6 33l21 41l2 14l18 18v17l10 35zM1071 969l2 -2l2 -11l-22 -59l-35 -57l-4 -6l-4 -33l-15 -47h-4v-9h-6l-22 -59l-15 -27l-26 -30l-15 12l-2 16l21 60l22 55 v10h4v9h6v10h5l4 28l8 11l24 59l23 55l10 19l12 4l3 4zM279 -264l2 -6l-2 -17l-46 -26l-49 -27l-12 -2l-45 -20l-12 -21l-15 -8l-4 -15l-28 -34l-15 -6l-22 14l8 31l14 26l19 21l26 16l19 6l12 13l12 2v4l15 6l4 8l43 16l12 13h14l7 6l34 6zM485 -369h23l4 -34l-10 -31 l-27 -49l-51 -43l-12 -29l-19 -27l-31 -26h-16l-10 4l-2 16l6 19l45 47l23 24l8 4l6 25l12 12l2 13l19 32l4 19zM379 23l12 -7l-4 -18h-4l-4 -23l-25 -22l-18 -25l-62 -16l-30 -6l-37 2l-39 10l-4 6v10l4 7l25 -9l65 19l59 24l15 11l14 4zM285 -618l14 -15v-6l-18 -18 l-66 -13l-31 -12l-34 -4l-33 6l-8 10v11l10 10l65 6l23 2l51 23h27z" />
<glyph unicode="h" horiz-adv-x="1077" d="M397 643h4l-8 -33l-18 -51l-19 -55h-6v-10h-4v-9h-4v-10h-6l-27 -59l-4 -25l-6 -4l-20 -61l-13 -27l-10 -35l-20 -43l-23 -61l-27 -58l-28 -59l-15 -55l-16 -31l-35 -29l-61 9l-66 -7h-39l-22 7l-8 10l2 16l4 6l12 4l80 -4l35 -2l28 4l23 17l20 24l6 25l9 12v14l22 37v9 l23 55l18 22l2 11h4v10h4l19 59l20 62l11 32l16 27l22 59l11 11l8 30l10 7v32l25 56l2 14l16 35l35 31zM1266 436l4 -2l-8 -31l-29 -55l-23 -24l-8 -15l-12 -10l-19 -41l-38 -55l-41 -49l-17 -31l-26 -21l-41 -49l-23 -24l-27 -17l-10 -14h-8v-4h-10l-37 -33h-8l-11 -14h-8 l-8 -10l-35 -13l-39 2l-26 -14l-31 -6h-25l-53 10l-6 8l-14 -4l-4 6l2 19l61 2h70l12 2l55 37l58 30l55 37l41 25l16 31l21 24l12 23l14 8l7 16l18 15l8 16l8 4l2 12l33 37l2 12l21 15l2 12l12 8l2 17l6 4l17 37l20 24l6 17l13 10l6 14l22 12zM954 926h4l13 -8l4 -33l-4 -66 l-8 -61l-19 -47l-6 -31l-23 -59l-10 -31l-12 -12v-15l-6 -6l-15 -49l-16 -29v-8l-6 -6l-2 -12h-6l-8 -25l-11 -8l-18 -62l-21 -59l-10 -10l-14 -45l-6 -4v-7l-6 -6l-3 -12l-10 -12l-14 -2l-6 47l28 45l9 14l12 62l2 12l12 20l10 48l25 51l10 30l11 11l4 22l6 6l22 62l13 20 l18 56l21 47l6 65l10 60l6 39zM692 1368l2 -2l-10 -33l-20 -43l-31 -26l4 -35l-4 -29l-12 -20l-17 -50l-4 -16l-20 -14l-2 -17l-19 -16l-8 -2v-66l-6 -4l-2 -14l-21 -27l-22 -6l-11 25l5 14l10 8l14 52l17 16l10 2l2 16l10 25v18l16 19l7 35l10 30l35 52l8 14l-8 22l4 35 l37 53l18 -4zM610 807l-4 -2l-59 -29l-29 -16l-18 -17l-31 -14l-51 -39l-10 -22l-11 -2l-10 26v17l45 49l47 33l43 34l15 2l8 11l14 4l6 6l23 2v4h33l16 -6l10 -12l-2 -17l-10 -8z" />
<glyph unicode="i" horiz-adv-x="561" d="M518 991h6l8 -20l-22 -64l-4 -28h-4l-6 -31l-31 -57l-2 -9l-8 -4l-4 -28l-11 -21l-12 -49l-10 -10l-4 -19l-13 -12l-4 -33l-14 -20l-2 -13h-4v-10h-6l-21 -61l-2 -8l-10 -11l-19 -63l-24 -58l-6 -30l-6 -4l-25 -49l-27 -62l2 -27l-4 -4v-47l-10 -14l-10 -2l-16 8l-9 14 l-2 37l4 29h4l15 43l6 8l6 57l29 56l12 10l8 31l15 30l8 33l24 60l6 20l7 4l10 31l10 10l21 62l12 28l6 33l10 8v10l25 37l2 15l6 10l6 37l23 63l24 51l19 27zM756 453v-4l4 -17l-29 -26l-2 -13h-6v-12l-4 -4l-4 -31l-8 -4l-21 -25v-8l-22 -22l-5 -21l-18 -26l-4 -15 l-39 -51l-18 -22l-52 -48l-4 -14h-8l-14 -31l-51 -41l-58 -36l-49 -41l-18 -15l-21 -8l-67 -2l-33 -2l-47 -12l-33 8l-12 8l-7 14l3 9h10l4 4l33 -2l6 4l43 -8l31 10l12 10l63 18l60 31l32 33l17 4l20 25l49 43l13 10l4 18l20 23l4 12l21 14l4 13l10 8l2 12l39 51l10 21l7 4 l12 25l12 10l33 51l20 21l13 30l14 19l23 2zM651 1227h4l-2 -8l4 -15l-2 -10h-4l-10 -12l-12 -25l-13 -14l-14 -6l-4 -7l-63 -22h-31l-25 8l-6 14l8 15l47 8l54 29l26 22l15 4l18 23z" />
<glyph unicode="j" horiz-adv-x="608" d="M786 457h5l10 -15l2 -28l-27 -49l-33 -29v-10l-8 -4v-9l-10 -10l-12 -33l-39 -45l-2 -12l-49 -45l-19 -27l-24 -20l-21 -25l-39 -35l-16 -6l-47 -43l-25 -20l-14 -6l-31 -27l-14 -4l-4 -8h-9l-10 -10l-14 -5l-10 -10l-15 -2l-55 -35l-59 -28l-29 -13l-23 -22l-18 -29 l-27 -61l-28 -56l-19 -26l-10 -43h-4v-8l-12 -9l-11 -28l-10 -15l-12 -32l-12 -17l-5 -16l-51 -43l-26 -41l-27 -16l-25 -23l-26 -16h-6v-5l-60 -14l-71 -14l-35 4l-15 12v19l27 10l64 8l30 6l51 29l11 10l41 19l8 12l14 6l19 18l2 13l8 2l10 22l12 11l13 20l6 2v10h4l6 21 l21 26l10 23l14 8v10h4v9h6v10l9 4l2 12l16 27l2 24l27 62l32 55l25 39l47 29l17 4l30 16l10 10l15 5l8 10l14 4l41 22h8l7 11l53 32l55 33l47 45l47 49l47 47l39 29l33 55l29 43l6 5l6 14l8 4v10l15 8l4 19l35 53l22 23zM571 985h15l8 -14l-12 -66l-27 -59l-10 -33l-6 -4 l-19 -47l-18 -25l-4 -16l-17 -23l-2 -28l-18 -47l-6 -9l-11 -32l-14 -19v-12l-12 -31l-6 -33l-29 -59l-10 -33l-27 -59l-24 -60l-3 -16l-12 -12l-8 -33l-8 -6l-4 -31l-23 -37l-2 -14l-10 -10l-21 -58l-12 -10l-16 -4l-15 8l-2 19l7 12l8 6v8h4l6 25l6 6l4 31l25 51l10 22 l6 5l6 24l13 12v25l10 35l28 47l3 10h4v10h6l12 54l2 14l27 59l4 21l37 51l4 35l12 45l25 41l6 14l10 8l14 45v27l19 29l18 51l31 57zM-197 -260l4 -6l-2 -19l-8 -10l-35 -16l-20 -2l-41 -23l-47 -49l-33 -27v-8l-12 -10l-17 -27l-22 -6l-12 12l-7 25l19 43l47 41l55 39l4 4 l48 6l10 14l55 27zM537 1116l-2 4l4 23l8 4h16l4 4h19l4 6h18l27 17l24 22l9 16l8 7l2 12h6l10 45l-2 18l4 11h19l14 -29l8 -8l2 -37l-6 -23l-14 -22l-12 -10l-2 -13l-50 -43l-14 -10h-96z" />
<glyph unicode="k" horiz-adv-x="1024" d="M633 846l2 -4l-8 -25l-60 -24l-18 -9l-12 -12h-9v-4l-12 -2l-22 -23l-25 -16l-47 -49l-29 -31l-6 -31l-20 -41l-2 -30l-9 -27l-12 -20l-14 -11l-6 -14l-5 -2l3 -8l-17 -62l-14 -26l-21 -58l-14 -30l-20 -62l-3 -12l-18 -31l-2 -12h-6l-2 -12l-25 -47l-4 -2l-4 -48l-6 -10 l-21 -59l-6 -15l-47 -43l-26 -6l-68 4h-66l-30 -4l-13 4l-10 15l8 20l31 8l74 -2l65 4l23 13l12 14v6l6 6l27 60l12 18l13 31l4 29l8 10l2 14l14 19v24l15 17l6 20l8 4l8 27l6 51h4v10h6v10h5v9l18 22l12 29l35 51l-4 33l8 31l12 18l23 57l6 19l12 12l4 16l13 13v14l6 6 l2 17l47 47l21 26l12 2v4l14 5l12 12l25 6l12 12l15 4l14 13h25l28 12h17zM1141 330l4 -2l-10 -35l-39 -49l-17 -23l-14 -8l-23 -6l-14 -21l-8 -4l-10 -37l-45 -41l-47 -47l-56 -41l-43 -20l-6 -6l-27 -10l-55 -35l-12 -13l-57 -10l-52 -4l-24 -10l-33 -6l-43 8l-8 10l-2 23 l16 4l33 -4l31 2l65 16l35 6l47 25l59 26l21 27l27 16l22 21l12 2l13 16h8l47 45l47 48l31 10l10 41l25 22l43 49l24 25zM844 549h4l8 -2l6 -25l-6 -4l-4 -14h-4l-4 -15l-10 -4l-5 -14l-12 -8l-6 -14l-49 -46l-29 -28l-10 -2v-4h-10v-4h-8v-5l-19 -6l-33 -4l-30 -14l-21 -14 l-47 -19l-2 -10l-6 -2v-66l4 -35l-6 -18l-19 -2l-12 16l-4 68l-6 33v22l37 33l63 10l27 15l18 18l13 2v4h10v6h8v4h10v5l27 18l22 22l19 11l26 26l17 29l20 25zM606 1255h15l10 -32l-2 -19l-4 -6l-4 -31l-9 -24l-20 -31l-21 -61l-26 -64l-15 -31l-16 -8l-14 4l-8 23l6 26 l26 62l21 43l2 14h4v8h4l8 39l29 56zM952 879l2 4l15 -9l4 -30l-6 -60l-25 -57l-2 -6h-4l-4 -33l-21 -63l-12 -31l-20 -23l-17 -4l-6 47l25 52l26 61v16h6l9 48l4 4v14l6 12l8 49zM692 1372l2 -2l-6 -35l-6 -14l-23 -21l-20 -8l-8 17l4 30l27 41l18 -2zM1212 440l2 -2v-16 l-12 -37l-14 -4l-10 -10l-15 -2l-8 14v16l27 50l18 -3zM940 926v8h10l4 -8h-14z" />
<glyph unicode="l" horiz-adv-x="561" d="M668 1397h14l10 -13l-2 -34l-16 -52l-19 -47l-8 -12l-8 -4l-2 -16l-25 -31v-35l-14 -31l-25 -30l2 -9l-14 -30l-12 -60l-14 -47l-11 -12l-4 -16l-37 -56l-6 -16l-10 -10l-2 -29l-6 -8l-2 -33l-6 -6l-2 -12l-9 -5v-10h-4l-6 -22l-10 -19l-4 -24l-17 -25l-6 -20l-10 -15 l-10 -41l-2 -14l-23 -29l-6 -32l-14 -29l-17 -17h-14l-6 7l-4 16l22 59l23 64l16 35l6 26l27 49l2 11l6 2v10l6 4l15 39l6 45h6v8l8 10l14 33l9 31l53 119l20 43l6 24l15 11l18 47v26l37 52l6 67l10 27l11 12l24 59v4zM731 455h21l6 -17l-17 -28l-10 -11l-2 -14l-24 -37 l-5 -14l-12 -8l-26 -52l-44 -49l-2 -10h-4v-10l-8 -12l-2 -11l-45 -45l-33 -24l-20 -43l-49 -41l-47 -45l-29 -13l-55 -39l-45 -10l-37 10l-29 -20l-35 -4l-12 10l2 21l10 8h31l18 -6l23 8l8 10l25 6l47 21l22 24h8l54 37l41 41h8l39 27l33 53l34 57l19 27l14 8l4 14l15 11 l14 28l24 29l9 20l37 58l14 26zM270 401l21 -10l-2 -29l-19 -63l-2 -6h-4v-8h-6l-2 -15l-8 -14l-2 -14h-6l-15 -62l-4 -6v-16h-4l-4 -13l-4 -2l-21 7l2 36l-6 23l17 39l18 65l10 27l33 57zM94 -53l2 2h4l6 -17l-2 -8l-12 -2l-4 4v8z" />
<glyph unicode="m" horiz-adv-x="1589" d="M1149 846l2 -4v-11l-4 -6l-23 -10l-4 -6l-14 -8h-8l-33 -17l-2 -6l-29 -12l-28 -21l-43 -47l-23 -24l-16 -12l-2 -15l-27 -41l-21 -57l-22 -62l-14 -28l-15 -68v-4l-6 -4l-12 -27l-10 -12l-15 -31l-6 -24l-12 -13l-8 -40l-6 -7l-19 -57l-12 -31v-8h-6l-25 -61l-22 -62 l-11 -14l-6 -27l-6 -4l-6 -16l-6 -6h-11v-4l-10 -5l-14 5l-16 -7l-7 7l-41 -11l-65 2l-43 7l-10 8l-2 16l6 10l65 -10l45 6l33 -6l29 16l18 21l27 61l20 64l29 57l10 17l10 32l25 41l4 35l10 25l23 26l8 29l2 33l17 20l2 15l14 18l10 47l6 4l6 25l13 12v16l12 21l16 49l4 2 l3 25l8 12l8 4v10l8 4l2 13l51 43l13 14l28 12l9 13h8l4 6l12 4l53 39l43 12l17 -4zM635 842l2 -4v-11l-10 -12l-54 -16l-4 -6l-14 -5l-51 -36l-23 -17l-12 -14l-18 -8l-2 -6l-23 -23l-2 -8l-10 -8v-9l-29 -36l-2 -45l-23 -31l-2 -10h-4l-4 -31l-24 -62l-2 -16l-11 -8 l-8 -29l-31 -45l-8 -4v-8l-10 -10l-8 -27l2 -51l-6 -2v-8l-21 -43l-16 -27l-25 -60l-18 -53l-12 -24v-9l-15 -30l-2 -17l-35 -39l-28 -8l-27 6l-10 19l8 14l43 19l35 55l6 6l2 14l8 15l8 45l25 59l16 58l15 30l10 10l4 15l21 22l2 41l14 29l2 12l22 54l33 59l4 31l19 34 l4 13l22 24l9 4l6 15l-8 30v17l6 16l43 51l16 19l12 4l13 12l12 6l37 29l51 18l16 7v4h11v4h8l6 6h25zM1780 444l2 -2l2 -14l-12 -31l-19 -32l-8 -5v-10h-4v-8h-4l-2 -12l-37 -49l-33 -37l-12 -31l-37 -49l-47 -47l-49 -43l-25 -43l-47 -41l-31 -23l-39 -20l-12 -8l-33 -5 l-43 -14v-4l-45 -16l-8 2l-12 24l6 13l24 12h13l10 10l25 4l26 17l62 26l47 45l12 10l8 15h8l25 12l43 49l10 13l2 8l10 8l35 51l41 51l6 6v9l19 24l10 8l2 15l23 24l4 15l6 6l8 24l16 19l3 12l22 21l18 -2zM1374 510l-4 -2l-2 -16l-8 -17l-8 -33l-15 -30l-10 -11l2 -16 l-18 -45l-25 -61l-18 -62l-4 -20l-7 -4l-4 -33l-4 -4l-2 -15l-6 -4l-20 2l-9 13l13 57l4 37l18 51l2 16l21 52l12 36l6 9l10 41l7 2v10h4l16 39l14 8l7 29l6 6l8 43h6v8h4l4 29h4l15 45l18 55l8 35l25 57l10 33l-6 43h-4v16l-8 21l8 14h16l13 -10l18 -60l-8 -28l-2 -37 l4 -18l-23 -58l-6 -33l-8 -12l-8 -33l-15 -16l-4 -21l-10 -12l-4 -24l-6 -11l-12 -45zM-37 -39l2 -4l-6 -14l-10 -9l-17 -6l-43 4v33l15 6l35 4l22 -8z" />
<glyph unicode="n" horiz-adv-x="1075" d="M645 838v-11l-2 -8l-10 -8l-53 -6l-27 -19l-18 -24l-13 -2l-39 -33l-4 -8h-10v-4l-14 -4l-9 -13l-14 -6l-10 -18h-4l-6 -33l-25 -61l-31 -50l-8 -30l-26 -45v-4l-7 -5v-4h-4l6 -26l-16 -45l-2 -11l-6 -2l-8 -28l-9 -6l-16 -58l-4 -6v-12h-4v-10h-6v-11h-4v-8h-4l-2 -12 l-9 -2l-4 -15l-12 -10l-6 -14l-4 -2l-13 -64l-18 -26l-2 -31l-23 -41v-10l-14 -10l-16 -29l-29 -14l-16 -2l-7 4l-6 18l2 6l29 17l8 16l23 20l6 29l20 43l17 64l22 63l11 27l12 16l2 14l10 11l21 57l20 64l6 20l19 10l2 15l10 14l4 33l10 28l21 35l8 10l8 56l14 24l9 6l2 13 l6 4l20 37l13 10l4 14l8 4l8 19l14 4l80 55l33 6l27 19l35 8l14 -2zM948 887h4l11 -2l6 -6l6 -29v-35l-12 -59l-23 -64l-25 -61l-10 -37l-10 -12l-2 -13l-14 -30l-2 -15h-5l-6 -28l-30 -56l-17 -26l-2 -15l-10 -8l-4 -43l-4 -4l-4 -29h-4l-11 -30l-16 -29l-16 -63l-9 -50 l-6 -6l-20 -4l-4 4l-2 23l-7 10l2 33l9 30l6 9l2 32l6 5l6 20l12 8v8l11 15l6 32l20 50l19 59l10 27h4v8h4v10h4v8h4v11h6v8h5l8 47l6 4l6 29l27 59l6 10l2 19l16 32l4 23l7 6l6 23l4 4v55l6 4v10l4 4v9zM1274 430l2 -2l-14 -31l-39 -51l-39 -53l-15 -14l-2 -17l-16 -39 l-10 -8l-2 -12l-9 -4l-2 -13l-20 -14l-14 -29l-25 -24l-18 -27l-13 -4l-45 -49l-12 -12l-12 -7h-23l-10 -10l-14 -28l-13 -13l-53 -26l-29 -13l-14 -10l-14 -2l-4 -6l-62 -6l-33 2l-12 4l-10 10l4 19l14 6l33 -2l62 16l18 4l18 15l15 4l12 12h6l12 12l64 15l16 38l13 11v6 l47 45l10 14l25 15l18 30l6 4v11l37 51l12 14l2 12h6l17 29l10 8l10 31l25 43l20 23l19 28l14 6v4l19 -2zM-2 -43l2 -2l-2 -21l-12 -6l-27 -2l-4 -4l-64 12l-2 17l5 12l32 6l56 -2zM952 922l4 -2l-4 -9l-16 2l-2 7l6 4z" />
<glyph unicode="o" horiz-adv-x="1052" d="M1225 453h14l6 -7l2 -16l-6 -16l-10 -11l-8 -30l-31 -43l-45 -51l-19 -27l-47 -41l-8 -10h-10l-4 -8l-15 -5l-8 -14l-28 -14l-11 -10l-22 -3l-64 -26l-28 -4l-35 2l-49 -10l-33 6l-31 -11l-22 -20l-21 -27l-24 -20l-17 -8l-49 -45l-43 -23l-31 -12l-41 -27l-36 2l-23 8 l-10 -18h-4l-4 -6l-29 -6l-70 4l-59 4l-4 4h-8l-15 10v15l15 4l32 -2l64 6l35 2l49 -6l8 -6l55 36l115 62l27 18l43 47l37 37l22 8l2 5h68l59 8l64 12l26 16l10 2v5l45 20l11 12l12 2l45 45l51 47l23 31l8 4v11l10 4v8l43 47l17 16zM614 874h4l-2 -10l-8 -12l-53 -31 l-41 -49l-47 -47l-25 -33l-8 -28l-10 -13v-10l-23 -23l-22 -61l-4 -14l-8 -2l-2 -13l-7 -6l-4 -14l-10 -10l-20 -60l-19 -61l-16 -64l-13 -45l5 -63l-2 -35l-9 -10l-20 2l-12 41l6 71l4 48l4 4l6 32l12 19l2 35l23 59l22 51l7 8l6 31l18 35v8l33 55l12 29l10 12l3 11h4l4 24 l14 8l2 13l25 22l43 53l26 19l11 14l20 6l10 9h33zM915 823h9l8 -2l10 -12l10 -33l2 -65l-6 -62v-8h-4l-4 -59l-10 -66l-29 -55l-14 -27l-15 -51v-10h-4l-8 -31l-14 -29l-10 -12l-13 -6l-10 4l-4 6v17l22 47l5 4l6 53l4 2v8l20 25l15 63l12 64l10 63l10 35l2 64l-8 28v35z " />
<glyph unicode="p" horiz-adv-x="1024" d="M264 346h4l6 -16l-2 -17l-24 -57l-6 -20l-15 -19l-2 -12l-16 -29l-2 -16l-6 -6l-8 -27l-3 -29l-26 -51l-14 -22l-9 -31l-24 -55l-8 -31l-25 -62l-14 -24l-11 -25l-10 -8v-10h-4l-18 -55l-4 -27l-11 -25h-4v-8h-4l-2 -12l-14 -27l-17 -67l-37 -33l-51 8l-4 14l15 21l12 2 l37 43l4 22l20 64l4 16l6 6l3 17l10 8v10h4l16 29l2 18l11 9l16 59l29 61l8 29l10 12v11h6l4 30l13 31l10 12l2 13l16 39l6 4l2 14l31 51l6 33l23 59l18 37l2 15l33 28zM1190 453l29 -15l-11 -32l-18 -27l-19 -14l-24 -58l-17 -24l-14 -13v-8l-8 -4v-10l-10 -4l-2 -13 l-25 -22l-16 -23l-27 -22l-18 -27l-54 -41l-43 -39l-14 -4l-33 -37l-20 -4l-10 2l-7 -4v-4l-30 -6l-25 -20h-10l-29 -29h-8v-4h-10v-4h-8l-29 -13l-33 -8l-63 -4l-54 -10l-2 -4h-18l-12 10l-2 10l8 15l14 8l31 6l63 2l62 22l20 7v4l13 2l6 6l14 2l14 8h9l10 6l47 11l45 38 l8 13l21 6v4l24 16l47 47l49 48l19 26l22 23l37 53l41 51l23 25l22 45zM616 850l5 -8v-15l-9 -10l-39 -8l-55 -37l-26 -16l-11 -2l-30 -39l-7 -17l-10 -10l-4 -14l-27 -39l-4 -17l-24 -36v-11l-4 -2l-19 -61l-30 -55l-3 -11l-10 -8l-4 -24l-10 -17l-14 -10h-9l-10 14l-2 21 l12 28h4v11h7l2 24l14 37l16 27l21 61l18 27l11 33l10 14l10 29l14 10l2 10l25 19l23 10l8 12l26 23l21 26l14 4l4 6l33 15l33 6l10 6zM889 633h24l7 -47l-25 -62l-6 -30l-4 -5v-14l-11 -41l-10 -10l-20 -62v-4l-17 -16l-2 -16h-4l-10 -13l-10 -28l-6 -6l-4 -15l-13 -16 l-6 -21l-22 -24l-17 -29l-10 -37l-23 -22l-14 -6l-10 -13l-17 -6l-14 6l-2 8l4 19l21 27l12 10v8l8 4l4 14l21 15l10 32l8 15v10h4l13 27l8 4v10l8 4v10h4v9l57 118l23 35l4 55l14 27l19 66zM938 795l-2 -4h-23l-10 28v15l-10 30l-2 31l8 12h14l15 -26l8 -31l4 -4l-4 -15z M913 739h19l8 -14l-2 -33l-10 -33l-13 -10l-8 -2l-14 12v11l6 4v35zM-238 -446l5 -3l-3 -18l-12 -8l-31 8v10l9 13l14 4zM-164 -467v18h10v-18h-10z" />
<glyph unicode="q" horiz-adv-x="1112" d="M1047 975h18l6 -6l-2 -45l-14 -27l-6 -31l-11 -12l-18 -35l-25 -59l-30 -47l-2 -43l-29 -58l-25 -45l-2 -32l-10 -23l-2 -10l-8 -13l-25 -61l-6 -18h-6l-4 -43l-33 -56l-25 -59l-12 -14l-8 -33l-6 -4l-2 -35l-12 -29l-21 -24h-20l-9 14l4 33l7 18l10 15l18 45l2 14l15 27 l14 10l16 61l11 27l12 8l4 14l12 15l-2 16l23 62l6 32l6 6l6 29l19 29l16 49l12 45l11 14v15l28 28v23l10 8v14l17 43l6 9l2 12l6 6l8 47l33 53zM406 612v-4l-23 -20l-29 -35l4 -33l-26 -59l-4 -25h-4l-11 -12l-4 -14l-6 -4v-33l-4 -25l-18 -51l-13 -66v-22l-6 -16l-22 -3 l-9 21l-4 29l11 67l20 66l8 33l21 59l2 18l6 4l16 35l8 15l3 16l24 20l4 9v36l6 5l15 36l12 11v8h4v10h4l19 37l12 10l12 23l47 43l17 16h10l22 21l21 6l41 4l18 -8l-2 -27l-16 -4l-6 -6l-31 -4l-27 -17l-41 -49l-22 -26l-6 -13l-41 -53zM1274 442h22l9 -28l-2 -6l-7 -2v-11 h-4l-14 -28l-18 -25l-23 -41l-6 -8v-6l-47 -49l-23 -41l-14 -15l-8 -16l-45 -45l-43 -51l-39 -29l-17 -8l-26 -25l-11 -2l-4 -8l-16 -2l-4 -4l-14 -2l-46 -19l-22 -16h-21l-2 14l11 15l43 36h10v5h8l57 30l50 43l47 49l41 50l22 22l6 14l15 9l4 14l14 10l2 8l12 11v8l35 57 l2 8l15 9l4 14l14 10l4 15l8 4zM637 -45h14l8 -14l3 -23l-7 -4l-26 -59l-17 -37l-16 -17v-8h-4l-10 -61l-25 -56l-12 -47l-19 -26l-6 -21l-10 -12l-4 -31l-17 -37h-20l-10 11v32l16 66l4 14l6 4l4 15l9 4v8l10 6l2 14l8 15l6 47l29 53l4 8l10 6l6 35l29 58l23 49zM846 -119 h10l12 -8l6 -16l-2 -31l-8 -33l-8 -59l-6 -37l-10 -29l-6 -6l-13 -41l-12 -51l-16 -29l-5 -14l-6 -6l-20 -39l-33 -29h-12l-4 33l12 29l6 4l4 14l6 6l23 55l18 48l11 14l16 61l16 50l9 65zM688 -559h4l8 -2l2 -19l-12 -24l-39 -31l-6 -14l-29 -19l-12 -12l-59 -16l-62 -17 l-18 -2l-16 4l-11 11l2 18l11 8l69 12l31 7l27 20h8l14 19l53 34zM387 -25l4 -2v-10l-26 -22l-35 -7l-8 -12h-9v-4h-10l-2 -4l-68 -8l-47 -4l-24 16v14l20 9h15l10 6h16l37 8l49 2l45 31h29z" />
<glyph unicode="r" horiz-adv-x="835" d="M1022 438l4 -2l-4 -33l-35 -55l-14 -29l-15 -18l-10 -22l-14 -19l-8 -20l-23 -27l-2 -12l-10 -6v-9l-21 -22l-4 -12l-18 -19l-2 -12l-23 -21l-41 -55l-22 -20l-8 -15l-27 -18l-8 -12l-29 -17l-4 -8h-8l-6 -10l-17 -6l-2 -5l-39 -2l-26 -18l-35 -6l-10 8l-2 10l4 15l10 8 h33l28 14l37 35l27 16l45 45l47 45l31 29l4 12l6 5l6 22l12 10l33 56l17 30l20 23l2 10h4l4 14l33 45l12 13l2 12h5l22 43l16 18h11zM678 653h14l10 -14v-31l-10 -63l-12 -47l-6 -2l-19 -27v-10h-4v-8h-6v-11h-4l-8 -55h-4l-21 -33v-14l-8 -10l-18 -64l-23 -59l-10 -15 l-2 -51l-6 -12l-15 -2l-14 8l-2 33l14 61l17 66l26 61l25 62l16 39l10 37h5v10h4v8h6l12 63l14 50h5v8h6zM346 754l4 -2l-4 -33l-18 -37l-25 -57l-6 -17l-37 -37v-26l-31 -58l-26 -59l-10 -12l-15 -8h-14l-6 8v30l6 11l8 30l35 56l2 6l33 26l6 17l4 2v41l27 41l20 61l23 29 h10zM469 1118h25l10 -18l-15 -51l-36 -58l-17 -16l-12 2l-6 14l4 37l20 29v10h4l11 31zM483 -88v-4l6 -4l-34 -4l-31 10l-12 10l-2 14l32 7l19 -2l20 -11z" />
<glyph unicode="s" horiz-adv-x="774" d="M963 434l4 -2l-9 -31l-8 -14l-12 -10l-29 -58l-20 -26l-6 -14l-19 -15l-4 -18l-12 -13l-6 -20l-11 -8l-2 -12l-47 -46l-43 -45l-6 -6v-6l-35 -37l-16 -6l-10 -12l-54 -35l-28 -14l-41 -11l-21 -24l-59 -21l-59 -16l-62 -8l-67 -4l-52 4l-12 8v20l12 7l70 4l31 -4l59 12 h17l8 8l30 10l58 11l4 4l33 4l26 12l19 29l20 12l4 8l15 4l2 6l51 37l47 47l25 23v8l10 4l4 15l10 4l16 30l41 47l9 23l20 27l6 14l19 16l2 17l20 41l29 32l18 -2zM319 684l3 -2l-3 -25l-10 -12l-2 -18l-6 -13l-18 -14l-2 -8l-11 -8v-15l-10 -12l-2 -25l-16 -18v-8l-45 -49 l-21 -25l-8 -2l-6 6l-2 15l6 16l10 12l6 17h4l7 30l6 6l4 13l12 12v8l12 10l6 13l15 10v16l10 17v24l18 19l13 18l18 -2zM580 934l2 -2l6 -23l-15 -59l-4 -70l-6 -65v-51l-10 -13h-21l-8 64l8 63v64l7 63l6 4v13l4 2l4 14zM545 408h22l13 -9l-9 -6l-4 -33l8 -63l-2 -64 l5 -34l-3 -15l-10 -10l-8 -2l-16 4l-6 12v50l10 22l-2 68l-4 63zM535 598h14l14 -27l4 -18l-4 -35l4 -59l-8 -15l-14 -4l-8 11v18l-9 27l-6 67l2 17z" />
<glyph unicode="t" horiz-adv-x="595" d="M594 1012v-4l-2 -9l-31 -10h-18l-17 -18l-16 -62l-12 -28l-13 -13l-4 -32l-4 -5l-4 -24h-4l-27 -41l-4 -35l-8 -31l-10 -12l-2 -10l-8 -6l-7 -27l-6 -4l-4 -33l-8 -18l-8 -2l-25 -60l-14 -49l-8 -4l-39 -47l2 -14l-12 -68l-23 -57l-2 -25l-6 -8l-19 -61l-16 -56l-2 -4 h-18l-7 4l-6 27v45l15 20l22 62l19 43l2 35l8 28l6 4l16 29l27 14l-6 33l14 37l4 19l8 6l2 30l29 56l19 61l32 60l31 36l2 54l4 2l19 61l14 29l10 33l10 18l7 4v8l32 37l33 4l23 -6zM788 444l5 -2l-9 -34l-32 -54l-7 -14l-32 -25l-17 -28l-16 -17l-12 -30l-37 -56l-35 -32 l-12 -29l-41 -45l-17 -19l-12 -2l-10 -12l-12 -6l-37 -39l-27 -16l-20 -7l-15 -14h-8l-35 -29l-26 -6l-25 -12l-63 -16l-17 6l-10 10l2 16l10 11l64 18l45 23l43 20l53 39l10 4l4 10h9l38 37h7l47 49l18 17l4 14l6 4v8l17 17l4 14l22 16v9l23 20l4 17l10 6v8l27 18l10 31 l6 4l4 14l31 43l4 15h6v10h4v8l19 19l10 2zM690 1391l4 -2l-14 -64l-10 -31l-6 -8l-2 -14l-19 -29l-10 -29l-25 -40l-12 -11l-8 -2l-17 13l-2 10l23 61l22 60l23 51l10 14l4 14l17 17h10zM756 1106l4 -2l-4 -33l-11 -31l-16 -26l-16 -17l-23 -2l-14 -6l-27 4l-12 11l-2 8 l29 28h8l22 23l8 24l29 31h10zM225 1024l2 -2v-29l-32 -6l-60 8l-2 31l31 10l35 -4z" />
<glyph unicode="u" horiz-adv-x="1069" d="M1253 453l4 -2l5 -19l-9 -39h-4l-14 -26l-37 -35l-2 -13l-31 -51l-6 -4l-2 -12l-12 -6v-10l-41 -56l-6 -6v-8l-49 -45l-2 -12l-23 -21l-14 -20l-41 -27l-4 -8h-9l-18 -27l-41 -37l-14 -4l-25 -18l-4 -8l-57 -17l-45 -10l-62 -4l-28 -2l-9 -4l-35 10l-6 14l6 13l13 6 l63 -2l62 16h6v4h8v4h10v4h8v6h11v5h8v4h10v4h8l56 33l49 38l14 11l41 51l49 47l19 16v9l12 10l2 8l14 14v9h4v10l23 22l31 39l6 17h6v10h4l12 35l13 10l4 14l6 4l2 11l10 4v10l8 4l2 12l11 11l16 6zM211 143h-6l-15 2l-4 64l2 29l21 55l10 12l10 33l7 6l16 59l24 64l21 61 l10 11l15 30l10 13l6 30l6 4l4 35l10 21h4l7 16l12 8v9l14 18l-6 33l17 18l24 60l14 6l2 4l9 -2l12 -19l-4 -30l-19 -48l-12 -10l-20 -45l6 -22l-31 -58l-10 -12l-15 -66l-4 -12h-6v-10h-4v-10l-12 -11l-8 -14l-11 -31l-6 -8l-4 -33l-6 -4l-22 -47l-7 -30l-8 -17l-2 -14 l-12 -12l2 -17l-10 -16l-9 -37l-12 -27l-6 -35zM1008 991l4 2l16 -8l6 -12v-8l-4 -4l-8 -31l-39 -53v-11l8 -10l2 -12l-6 -6l-4 -17l-6 -6l-2 -12h-6l-4 -33l-9 -18l-6 -4l-10 -31l-6 -6l-19 -64l-26 -49l-10 -29l-9 -12l-6 -31l-22 -61l-25 -43l-29 -14l-8 30v13l19 30 l18 60l4 16l10 8v10h5l16 31l39 117h4v10l6 2l6 33l15 29l16 14l2 12l33 60l10 22l-4 31l16 47zM463 86l2 -2l-2 -14l-37 -54l-35 -36l-14 -3l-49 -28l-21 -15l-14 -2l-12 -10l-27 -8l-66 -2l-20 8l-4 -4l-37 -6l-8 2l-6 22l14 7l20 -2l7 -9l28 15l64 16l33 10l30 23l13 4 l10 12l47 35l51 41l6 6zM784 377l4 -2l3 -8l-17 -62l-4 -4v-14l-10 -13l-19 -61l-12 -66l-6 -14l-14 -8l-17 4l-6 14v33l8 31l4 35l15 41l28 61l4 16l25 17l4 8zM516 987h4l4 -31l-6 -6l-6 -32l-12 -31l-13 -10h-8l-12 8l-4 10l2 18l6 11l6 41h4l6 12l19 16z" />
<glyph unicode="v" horiz-adv-x="952" d="M981 1016h4l8 -17l2 -14l-18 -61l-4 -2l2 -25l-12 -27l-7 -63l-12 -19l-22 -65l-11 -8l-2 -13l-10 -10l-14 -28l-21 -66h-4l-4 -23l-27 -30l-2 -13h-4v-8h-4l-33 -59l-12 -10l-20 -4l-6 14l2 16l30 56l11 32l34 54l17 28l18 54l23 63l14 27l10 30v11l4 4l4 32l7 5l8 14 l2 12l16 33l-4 47l4 4v14l15 13zM522 172l4 -6l-6 -25l-12 -2l-35 -35h-8l-47 -43l-12 -14l-60 -27l-18 -4l-47 -41l-45 -18l-25 -23l-18 -4v-4l-23 4l-29 -4l-53 8l-6 7v16l8 10l14 6l35 -4l35 2l4 6h25l28 11l15 18l22 10l31 9l14 8l15 14l2 8l24 29h11l4 8l14 4l10 10 l41 21l23 23l12 6l12 16h8l5 4h24zM313 539h15l10 -15l4 -14l-4 -33l-21 -59l-14 -66l-4 -4l-4 -33l-10 -32l-4 -50l-15 -24l-18 -4l-12 8l-3 14l9 31v14l6 19v33l6 6v14l10 12l8 62l15 63l6 29zM385 877l2 4h14v-33l11 -23l-2 -22l-13 -29v-14l-4 -4v-19l-6 -4l-4 -31 l-4 -2l-4 -32l-17 -62l-8 -24l-14 -7l-8 3l-9 12v31l15 63l12 66l14 63l5 8v19l8 4zM1038 319h4l-6 -45l-26 -32l-37 -21l-25 -31l-14 -4l-12 -12l-11 -2l-8 -10l-63 -12l-17 -5l-8 -10h-16l-8 4v21l24 14h8l62 31l26 18l15 19h8l27 16l40 51l13 10l14 5zM713 395l4 -2v-18 l-15 -29l-16 -22l-16 -9l-11 -12l-8 -4l-8 2l-6 16l4 17l39 51l12 10h10v4zM1147 446l2 -2l-6 -22l-8 -4l-11 -21l-12 -4l-29 -39l-18 -6l-4 8l8 31l23 21l12 32l10 13l16 2zM657 154h5v-25l-15 -4l-47 10v23l14 4zM422 944l-2 -2l-10 2l-17 17l8 22l7 6l16 4l10 -20l-4 -17 zM713 125v18h8v-18h-8z" />
<glyph unicode="w" horiz-adv-x="1511" d="M1696 451l4 -2l4 -17l-12 -31l-33 -55l-43 -49l-12 -10v-8l-37 -33l-6 -15h-9l-14 -18h-10l-4 -10h-8l-11 -13h-8l-10 -12l-14 -2l-5 -10l-26 -6l-43 -21l-66 -14l-30 -6l-68 4l-64 6l-28 10h-19l-12 -6l-39 -51l-26 -21l-25 -12l-53 -41l-15 -18h-10v-4h-8l-10 -11 l-19 -4l-26 -12l-11 -10l-14 -4l-8 -11l-60 -14l-63 -8h-49l-14 6l-5 8l9 21h63l62 26l32 9h15l59 32l45 29l25 20l12 3l4 8l14 6l21 26l31 27l6 17l22 20l25 8l37 -2l14 -4l4 -6l62 -6h65l47 8l2 4l17 -2l45 14l37 27l51 27l49 43l45 47l45 49l6 6l29 59l20 17zM453 866h10 l10 -4l4 -6l-14 -63l-2 -17l-17 -26l-2 -15l-10 -14l-2 -12l-6 -4l-2 -25l-23 -53l-8 -27l-14 -25l-23 -55l-10 -33l-25 -53l-10 -12l-4 -14l-10 -11v-8h-4l-12 -61l-13 -37h-4v-8h-4l-6 -27l-8 -10l-11 -29l-2 -33l-8 -28l-14 -6l-10 2l-11 8v35l19 36l10 66l4 22h4v9h4 l2 10h5v10h4v8h4v11h4v8l6 10l4 18l4 5v14l8 18l6 4v11h5v8h6l6 49l12 25h4l10 32l13 19l2 14l6 6l2 13h4l4 22l10 10v15l23 41v8l27 57l18 29l6 35zM1487 1010h4l6 -17l-12 -59l-15 -66l-26 -63l-6 -23l-2 -37l-11 -18l-10 -31l-6 -6l-12 -61l-6 -6l-5 -13l-20 -22l-16 -62 l-11 -22v-8l-10 -11v-8l-8 -14l-27 -19l-12 -55l-27 -55l-22 -25l-16 -4l-13 4l-6 19l6 14l21 23l10 24l6 29l37 31l6 30l16 49l13 13v24l10 13l4 12l12 12l13 47v31l6 6l8 33l20 47l11 12l10 29l6 4v8l4 2v49l23 62v41l20 37l8 6h9zM940 770h4l-4 -65l-22 -58l-19 -26 l-14 -31l-6 -6l-5 -33l-22 -59l-21 -58l-6 -6l-6 -20l-10 -11l-8 -30l-13 -27l-4 -31l-14 -16l-2 -10l-8 -4l-17 -43l2 -35l-6 -31l-12 -12l-16 4l-9 10l-4 33l15 67l4 7v18l20 47l27 62l8 20l10 10v8l9 5l22 61l23 63l22 62l27 61l8 27l10 4l2 16l19 15l4 8zM461 84l10 -21 l-8 -12l-14 -10l-11 -14l-14 -4l-45 -43l-29 -23l-22 -8l-4 -10l-13 -2l-14 -11l-59 -6l-39 10v11l20 20l12 4h19l31 10l14 9l4 6h10v4h8l21 22l39 23l12 16h6l17 19h8l18 18h11zM1032 975l4 -2l-10 -64l-8 -10l-8 -20l-17 -25l-2 -14l-20 -33l-27 -14l-4 14l4 8l-4 29l4 4 l2 16l21 45l6 4l4 33l33 41h10zM504 924l-4 -2l-8 2l-17 12v20l8 19l11 12l20 8l18 -6l5 -12l-9 -33l-10 -12h-10zM182 -63l2 -3l-2 -8l-12 -10l-33 -4l-31 14l-6 15l9 12l34 -4z" />
<glyph unicode="x" horiz-adv-x="1081" d="M1266 451l4 -2l2 -19l-4 -14l-21 -21l-12 -22l-10 -8l-4 -25l-15 -12l2 -9l-12 -43l-8 -4l-29 -41l-20 -14l-17 -29l-47 -47l-20 -26l-17 -4l-39 -50l-24 -24l-23 -12l-20 -27l-14 -2l-52 -35l-55 -31l-33 -10l-33 -2l-26 6v8l55 37l25 11h8l10 10h8l25 20l41 27l29 18 l41 41l28 17l19 24l24 23l4 14l13 10l8 15l24 22l6 17l17 12v8l45 47l12 12l13 7l2 10l12 18l20 15v28l9 33l8 12l24 13zM1094 862h-4l-21 -43l-45 -51l-4 -4h-8v-4l-15 -4l-22 -23l-19 -10l-18 -29l-20 -22l-17 -27l-92 -92l-10 -12l-13 -2l-20 -21l-16 -8h-17l-10 4l-4 14 l18 15l2 8l43 47l37 33l19 12l6 12l33 43l14 9l45 43l18 28l47 47l21 25l45 29l8 2l17 28l2 13h6l4 14l26 25h17l16 -7l4 -6v-26l-12 -19l-14 -6l-13 -14zM469 874h4l2 -12l8 -6v-8l-18 -25l-45 -39l-17 -20l-4 -14l-41 -54l-4 -12l-35 -31l-10 -14l-8 -41l-37 -55l-33 -58 l-22 -22l-12 -27l-15 -6h-14l-10 14l8 27l22 37l7 24l10 9l12 28l33 52l51 41l4 8l-4 22l10 31l13 27l41 51l20 24l51 37l6 6zM418 186l4 -2l2 -18l-37 -51l-39 -43l-26 -27l-25 -33l-14 -4l-21 -24l-31 -27v-8l-14 -6l-4 -9l-31 -6l-6 -4l-33 6l-22 -6l-66 2l-12 8v19l8 8 l47 8h33l16 -4l31 8l49 43l17 25l24 25l27 18l43 49l45 49l12 13h11zM690 463h19l10 -23l-6 -65l-13 -66l-8 -59l-4 -49l-6 -6l4 -17l-2 -12l-6 -4l-19 2l5 16l-11 49l9 66l4 61l10 31l4 33l-2 20l6 6zM690 -76v-4l-10 -18h-33l-69 12l-7 2l-10 18l4 15l10 4l64 -8l25 -2 l4 -4h10l10 -9zM721 877l2 4h25l16 -64l-2 -33l-6 -20h-27l-6 4l4 66l-8 24z" />
<glyph unicode="y" horiz-adv-x="1048" d="M805 -14l4 -2l-2 -17l-53 -37l-23 -18l-24 -10l-11 -11l-22 -4l-58 -34l-38 -33l-3 -13l-14 -8l-16 -28l-6 -33l-21 -53l-6 -2v-9h-6l-23 -65l-12 -31l-6 -2v-8l-10 -12l-2 -11l-7 -2v-8h-4l-4 -18l-12 -13l-12 -24l-31 -29l-25 -33l-30 -30l-13 -4l-4 -7h-8l-4 -10 l-33 -8l-43 -23l-12 -10l-61 -8l-68 4h-35l-14 4l-10 10v17l6 6h32l48 -6l14 6h27l4 4l26 2l25 8l10 11l29 8l49 37l45 47l18 28l39 45v9l15 10v8h4l16 29l16 41l23 28v9l6 10l4 26h4v11l21 47l8 30h4l2 13l19 26l2 9l26 16l60 29l8 2l8 12l14 4l9 10h8l6 11l39 12l8 10h8 l6 10h9l10 13l14 4l12 10l15 -2zM1034 983l2 -2l-4 -33l-14 -30l-6 -7l-13 -37l-8 -6l-2 -20l-10 -14l-4 -33l-14 -15l-5 -22l-16 -39l-6 -4v-8l-14 -11l-19 -26l4 -33l-6 -20l-22 -35l-5 -17l-8 -12v-8l-10 -10l2 -17l-6 -24h-4l-8 -33l-9 -14l-6 -4l-6 -15l-14 -8v-14h-4 l2 -19l-10 -31l-15 -30l-12 -13l-25 -43v-40l-6 -7l-10 -28l-2 -17l-6 -4l-27 -51l-4 -29l-10 -32l-10 -15l-23 -8l-6 6l-4 17l12 36l10 9l9 24l8 4v43l14 35l10 31l21 18l8 21l6 6l-4 33l29 55l10 31l12 10l19 61l12 27l8 35l27 51l10 12l25 64l14 20l-4 15l8 30l29 58v8h6 l4 24l8 5l6 22l8 4l13 53l10 35h6l4 25l15 18l18 -2zM516 981h4v-31l-20 -59l-23 -62l-26 -59l-29 -53l-4 -33l-19 -47l-16 -29l-6 -30l-21 -48l-2 -8l-12 -8l-12 -29l-8 -32l-5 -4l-14 -56l-45 -49l2 -51l-18 -64l-4 -30l-5 -6l-8 -41l-14 -11l-21 4l-8 13v35l6 47l9 8 l4 24l4 4l10 37l18 33h9l10 10l2 35l20 58l7 10l8 41l22 37l15 61v4l14 12v11l8 4v10h6v8l13 10v13l14 53l29 59l18 41l4 25l10 8l4 14l11 9v8l4 2l4 37l10 28l23 33zM1235 440l4 -2l-4 -32l-25 -41l-14 -25l-43 -49l-31 -47l-14 -23l-51 -49l-6 -12l-41 -43l-11 -2l-6 -11 h-8l-49 -38l-21 -17l-6 -14l-22 -21l-17 -6l-16 4l-2 17l8 14l27 18l22 23l11 2l4 10l14 4l16 23l50 47l20 25l14 10l2 12l7 4l16 27l4 14l14 10l6 15l13 8l6 14l12 8l6 15l13 10l6 14l8 4v9l10 10l13 29l16 22l22 23zM225 -272l4 -2l-2 -11l-8 -12l-33 -22l-32 -3l-52 -40 l-18 -15l-8 -12l-15 -6l-4 -15l-12 -8l-2 -10l-8 -4l-6 -14l-11 -9l-22 -2l-6 6l4 29l12 23v6l41 53l29 18l12 13l31 4l55 37l31 8l14 -2zM360 4l2 -2v-14l-18 -17l-8 -14h-10l-4 -6l-23 -8v-4h-10v-5l-60 -16l-65 -12l-12 8v18l8 11l24 6l35 2l31 12l55 37l27 16l4 7l14 -7 zM82 -57l2 4l16 -2l9 -13v-8l-7 -4h-18l-4 6z" />
<glyph unicode="z" horiz-adv-x="1034" d="M1116 885l2 -2l-2 -17l-37 -51l-16 -16h-10v-4l-15 -7l-10 -14l-29 -20l-49 -45l-22 -23l-6 -16l-17 -15l-6 -14l-14 -6l-11 -10l-28 -15l-27 -20l-18 -29l-25 -18l-10 -23l-27 -18l-16 -17l-8 -14l-27 -14l-37 -51l-20 -29l-21 -12l-16 -21l-8 -2l-4 -6l-15 -4l-45 -47 l-24 -21l-9 -2l-16 4l-6 23l10 8l2 12l49 45l23 23l16 6l13 10l41 51l32 25l21 27l24 18l9 12l26 19l39 51l27 20l8 2l20 29l17 17l12 2l45 49l45 51l10 14h9l14 21l22 12l5 8h10l35 45l12 4l22 21l11 2zM1202 455h12l13 -21l-4 -18l-21 -43l-8 -4l-20 -35v-8l-13 -19 l-12 -28l-25 -25l-2 -12l-18 -15v-8l-19 -14v-6l-18 -23l-10 -4v-8l-25 -23l-12 -18l-14 -10l-41 -62l-29 -12v-4l-12 -6l-52 -43l-36 -33l-15 -2l-4 -6l-29 -8l-10 -11l-47 -4l-22 15l8 14l57 29l51 20l27 16l47 45l23 25l24 18l41 50l19 18l6 14l24 19l11 12l2 10h4l10 31 l14 25l27 24l33 53l32 58l19 28zM690 758v-6l-14 -9l-31 5l-27 16l-34 6l-4 6h-62l-69 -12l-41 -16l-5 -11l-12 -2l-26 -41l-15 -14l-6 -16h-4l-6 -13l-43 -53l-6 -6l-11 -29l-14 -20v-8l-12 -13l-2 -10l-39 -49l-17 -25l-14 -6l-14 4l-4 8l10 43h4v11h4v8h4v10h6v8l35 35 l2 12l8 4l7 25l28 55l39 52l45 49l23 26l24 15l13 4l12 12l59 8l64 -10l63 -12l64 -19l6 -2l10 -12zM367 23v-5l-2 -8l-11 -8l-14 -4l-25 8l-14 -6l-43 -8l-57 -31l-31 -8l-8 2l-4 8l8 31l33 31l14 4l10 10l66 6l65 -12zM670 -66l2 -4l-2 -14l-25 -10h-37l-18 4l-12 10l-5 8 l7 11l10 6l37 2l30 -4zM559 -57l2 -2l-8 -13l-8 -2l-25 11l-6 14l14 2l29 -6z" />
<glyph unicode="{" horiz-adv-x="901" d="M1212 1714l5 -2v-24h-5v-9h-4l-18 -51l-14 -49l-19 -20l-65 -15l-60 -14l-24 -8l-7 -9l-24 -6l-25 -16l-24 -23l-2 -10l-25 -31v-8h-4v-10h-4v-8h-6v-10h-4l-9 -31l-6 -6l-4 -33l-16 -27l-10 -10l-9 -29l-18 -43l-12 -30l-8 -56l-25 -59l-10 -39l-2 -16l-25 -41l-12 -27 l-6 -37l-19 -41l-8 -12v-10l-35 -53l-20 -17v-8l-23 -21l-8 -14l-18 -10l-2 -6l-21 -13l-12 -12h-10v-4l-56 -14l-4 -4h-16l-13 6l-4 8l2 18l15 11l16 -2v4l25 4l22 10l25 23l12 4l43 53l25 24l2 13h4v10h4v8l53 115l12 65l11 31l14 21l4 30l14 45l9 13l22 63l4 21h6v10h5 l6 31l12 30l4 23h6v8h4l21 45l6 6v15l6 4l16 26l46 47l30 37h8l5 8l10 3v4l59 16l62 2l14 6l22 25l13 33l6 2v8l22 53l21 16h10zM504 565h8l12 -6l11 -18l2 -35l-19 -62l-4 -28l-22 -64l-50 -98l-8 -31l-12 -22l-6 -25l-43 -51l-25 -62l-14 -45l-17 -26l-18 -58v-12l-12 -10 l-11 -37l-8 -12h-24l-6 12l4 35l18 61l6 6l4 19l13 12l6 25l6 4l16 47l17 18l4 15h4l20 22l6 56l13 28l12 8l4 25l27 57l22 39l17 43l16 27l12 65l9 66zM436 -219l2 -4l-2 -15l-30 -55l-11 -37l-22 -47l-11 -8l-59 -6l-76 2l-26 2l-15 6l-8 10v11l4 6l21 8l71 -4l27 -2 l29 14l24 23l8 24l11 12v11l6 8l16 47l13 4l2 4h10zM227 600l2 -2l-2 -20l-37 -3l-14 7l-4 18l10 10l17 2l16 -4z" />
<glyph unicode="|" horiz-adv-x="765" d="M487 1409h5l12 -2l8 -14l-6 -62l6 -33l2 -61v-68l-2 -69l-2 -68l-4 -61l4 -64l-4 -63l6 -66l-2 -30l-8 -31l4 -64v-32l-8 -13l8 -65l4 -64l2 -37l-4 -14l-8 -8l-17 -2l-10 6l-6 65l2 66v6l10 12v11l-6 14v14l-8 31l4 64l-4 65l-2 66l2 65l4 64l-6 63v35l6 29v18l-4 6 l2 60l-2 71l4 66l-4 33l2 32l6 17zM479 344h8v-6l23 -25l-4 -73l4 -64l-8 -33l10 -32v-99l-4 -12l-6 -4l-25 2l-4 6l-10 68l6 53l10 27l-6 28l-4 66v78l4 2v8zM479 -231h19l8 -21v-35l-4 -14l-25 -18l-33 -5l-34 9l-2 10l10 18l28 4l5 7l10 2zM487 1585h5l2 -22l12 -33v-33 l4 -16l-2 -13l-12 -20l-9 -2l-10 10l-6 14l-4 68l2 21l4 4l2 20zM487 -80h15l-15 -4l21 -8l4 -35l-4 -16l-10 -11h-19l-6 15l-2 35l6 14z" />
<glyph unicode="}" horiz-adv-x="899" d="M1026 735l4 -2l-2 -12l6 -29l-10 -18l-8 -33l-15 -25l-22 -26l-31 -12h-30l-64 -21l-57 -20l-27 -21l-43 -47l-25 -35l-10 -39l-16 -63l-2 -15l-15 -20l-24 -49l-4 -66l-19 -61l-12 -29l-10 -12v-35l-6 -31l-27 -57l-6 -20l-19 -27v-19l-8 -16l-4 -22l-69 -103l-19 -22 h-8l-49 -43l-6 -7l-11 -2l-24 -18l-53 -16l-64 -11l-31 -12l-43 -6l-14 6l-12 16l2 9l12 8l66 18l63 13l27 12h20l53 39l50 45l12 20l6 2l2 13l12 6v10l9 4v10l10 4v9l6 4l2 10l10 4v10l6 4l17 50l2 16l10 12l4 23l6 2l6 33l7 6l18 55l20 64l15 65l18 45v14l10 5l9 20l4 68 l6 28h4v11l4 2l4 18l6 2v8h4l3 13l16 30l14 19v8h4l17 26l53 39l18 19l43 18l68 6l33 11l26 20l19 25l8 32l16 27l13 2l6 8zM1128 1610h27l8 -29l6 -68l-12 -55l-6 -39h-4v-8l-14 -18v-7l-17 -30l-2 -25l-10 -8v-14l-6 -6l-2 -13h-4l-7 -14l-8 -4l-10 -29l-12 -12l-15 -57 l-10 -9l-2 -12l-24 -29v-10l-7 -6l-49 -119l-33 -47l-8 -29l-8 -12l-6 -33l-16 -26h-19l-10 8l-8 22l8 33l10 15l4 14l15 20l12 45l8 9l2 14l10 14l4 15l25 41l8 4v8l10 10l23 51l6 4l2 15l14 22l3 15l16 28l6 4l10 23h4l2 27l33 57l6 4v10h4v8h7v11h4l10 65l14 60l6 30v33 l-4 18zM852 1575l2 -2v-23l-23 -10l-16 4l-2 -4l-41 12l-2 17l10 18l66 -10zM88 -360l2 -5v-8l-31 -16l-30 6l-13 12l-2 15l17 8l16 2l6 4l15 -2z" />
<glyph unicode="~" horiz-adv-x="1476" d="M1362 518l2 -2l2 -10l-4 -14l-23 -23l-26 -16l-15 -19h-8l-20 -22l-8 -4l-9 -13l-14 -2l-37 -24l-8 2l-61 -17l-11 -8l-61 -4h-39l-37 12l-2 11l12 10l64 8l8 4l68 8l22 4l47 29l2 6l13 2l43 29h6l26 18l41 43l17 -2zM676 483l-2 -4l-66 -8l-10 -6l-66 -10l-47 -37 l-34 -25h-19l-14 17v14l8 14l25 23h8v4l12 2l41 29l27 8l69 4h15l6 4h14l19 -8l12 -10zM911 389l2 2h11l4 -16l-4 -6h-11l-4 8z" />
<glyph unicode="&#xa1;" horiz-adv-x="710" d="M471 557h4l8 -14l-4 -15l-10 -14l-2 -33l-6 -12l-2 -27l-13 -20l-14 -49l-26 -49l-5 -39l-26 -58l-21 -32v-52l-18 -41l-6 -32l-23 -58l-18 -63l-25 -60l-12 -26l-8 -49l-11 -11l-22 -45v-41l-6 -4l-6 -26l-29 -60l-10 -12l-4 -25l-4 -4l-9 -30l-20 -25l-33 2l-65 -10 l-45 2l-7 6l-30 4h-54l-6 6v19l6 8h131l66 10l31 27l37 119l12 30l8 8v17l14 41l17 22l6 33l20 64l19 61l20 49l17 55v9l24 59h4l25 41l-4 33l4 28l12 25l23 63l4 15l10 14l17 62v16l14 29l6 22l14 19l2 8l13 6l6 8zM659 942h11l14 -8l6 -29l6 -61l-4 -4v-15l-4 -6l-2 -26 l-12 -9l-23 -43l-49 -32l-33 -11l-34 -2l-31 13l-6 6l8 14l51 19l29 12l43 47l26 61l-2 62z" />
<glyph unicode="&#xa2;" horiz-adv-x="882" d="M696 901h19l4 -16l-10 -33l-17 -18v-11l-12 -32l-6 -29l-6 -8l-6 -27l-23 -57l-12 -27l-11 -35l-28 -49l-13 -39l-6 -4l-2 -33l-10 -18l-12 -12l-2 -15l-11 -10l-4 -33l-22 -59l-2 -12l-6 -9l-11 -34h-6l-2 -25l-10 -12v-15l-25 -24v-8l-20 -45l-12 -11l-2 -12l-9 -12 h-12l-8 14l-2 19l14 43l6 4l9 32l16 19l2 14l8 19l6 4l15 47h4v8h4l16 61l31 60l20 61l15 29l20 61l25 64l20 55l11 27l12 12l6 25l6 4l6 12l19 16l16 45l2 19zM668 25h4l8 -15l-2 -8h-6l-10 -20l-23 -9l-4 -8h-8l-27 -12l-31 -6l-6 -8l-18 -5l-6 -6l-62 -16l-31 -10l-67 -4 l-31 -4l-24 -17l-17 -29l-4 -22l-10 -14v-15l-10 -8l-9 -39l-28 -31h-10l-5 -4l-26 -4l-37 6l-10 11l2 18l4 6l45 15l22 22l23 57l20 54l13 8l10 14l57 15l76 2l62 22l61 19l37 12l4 6l51 22zM561 897l4 -4l-2 -16l-22 -37l-47 -47l-25 -17v-33l-6 -4l-35 -57l-22 -41 l-13 -8l-4 -27l-16 -26l-17 -9l-12 23l6 20l6 9v10l11 4l4 22h4l4 33l12 21l6 4l15 22l4 15l24 22l4 8l19 11v10h6l4 31l6 4l4 12l21 27l24 18l13 4zM258 186l-4 -4l-16 6l-11 31l4 33l11 29l-4 30l12 66l20 53l13 45h4l6 23l22 22h9l14 -22l-2 -21l-27 -69l-16 -64h-4 l-2 -22l-13 -19l-8 -33l2 -61l-2 -16zM821 145h4l15 -18l-2 -14l-54 -37l-22 -19l-29 -16l-16 -2l-12 4l-3 10l7 15l47 43l26 18zM965 758h4l8 -15l2 -16l-12 -33l-17 -24l-4 -33l-8 -16l-12 -9l-15 -2l-14 6l-8 11l2 8l18 16v8l19 19l2 37l10 28l8 13zM836 614v-18l-66 -10 l-33 4l-18 10l2 25l12 8l68 -2l28 -10zM973 807l-4 -2l-8 10l-7 16l7 33l-3 35l11 21l18 -2l14 -13l-4 -71l-14 -23zM840 1208h4l-4 -34l-6 -13l-13 -8l-14 -2l-6 8l-2 15l6 16l24 27zM877 1303l4 -3l-2 -18l-21 -29l-8 4l-10 21l2 14l12 11h23z" />
<glyph unicode="&#xa3;" horiz-adv-x="1359" d="M1225 360l4 -2l-10 -30l-19 -41v-21l-41 -53l-6 -2l-20 -59l2 -11l-41 -49l-21 -26l-18 -17l-6 -16l-21 -25l-24 -20l-56 -35l-12 -10l-47 -2l-27 -17l-59 -20l-27 -4l-69 8l-19 12l-2 8l10 9h37l31 10l59 8l33 6l14 -6l31 12l45 41l12 2v6l46 29l32 29l2 12l9 4l10 33 l20 29l15 10l8 18l22 17v32l29 47l20 64l13 29l14 10l21 -6zM932 643v-10l-6 -15l-33 -6l-41 -34l-6 -35l-10 -31l-9 -12l-16 -68l-31 -51l-16 -16l2 -17l4 -6v-10l-37 -53l-6 -5v-8l-20 -26v-9l-23 -18l-33 -35l-20 -4l-10 14v9l20 30l8 6l2 13l37 35l2 14l10 4v8h5v10 l10 17l-2 6l26 22l17 35l-6 23l10 10l28 59l27 46l4 30v64h4l25 22l65 4zM1128 1225l2 -4v-11l-12 -10l-16 -4l-19 -16l-26 -15l-45 -49l-21 -24l-4 -33l-20 -37l-21 -59l-26 -60l-11 -43l-14 -35l-14 -8h-11l-8 14l12 52l7 4l4 35l20 59l6 33l9 10l12 31l20 26v17l9 12l8 4 v14l24 43l15 11l14 18l12 2l19 19h8l14 10h10v4h31zM1479 1192l4 -2l-10 -64l-11 -65l-12 -53l-12 -29l-19 -23h-10v-4l-41 -6l-35 6l-59 -4h-60l-12 10l-2 11l4 8l13 8l16 2l33 -6h32l13 4l32 -2l29 12l25 31l14 33l2 14h6l11 37l2 14l4 4l6 62h4l4 12l10 2zM549 -35l-2 -6 l-31 6l-31 -2l-61 -24l-41 -11h-23l-22 -6l-37 10l2 17l10 8l35 2l60 29l24 10l60 4l45 -20l10 -9zM1128 713l2 -2l3 -33l-25 -41l-12 -12l-43 -11l-19 4l-12 11l-2 8l10 10l23 8l20 25l17 12v10l8 15h18zM563 647h2v-24l-12 -9l-25 4l-28 -6l-19 2l-4 7v26l66 4zM989 645 l2 2h4l6 -16l-2 -10l-6 -3l-6 7z" />
<glyph unicode="&#xa4;" horiz-adv-x="1202" d="M653 891l2 -4l-6 -15l-57 -24l-25 -21l-26 -10l-4 -10l-15 -2l-28 -25l-5 -47l-10 -18v-15l-12 -8h-18l-9 31l4 33l11 22l2 15l10 6v8l8 14l10 4v11l52 41l8 2l4 8l24 8l37 6l33 -4zM1055 762h10l16 -14l2 -68l-2 -66l-12 -28l-4 -25l-6 -4l-10 -65l-21 -27l-14 -6h-10 l-11 12l-4 21l33 57l14 18l-2 33l6 29l7 65v54h4zM874 342l5 -2l2 -4l-7 -14l-55 -33l-63 -15h-35l-19 5l-22 -23l-31 -2l-31 4l-38 16l-2 15l10 6l37 4l37 -4l32 -12l23 18l43 12l8 9l33 4l49 26l22 -2zM1133 1034l2 -4l-2 -16l-17 -17v-8l-49 -45l-18 -18l-11 -17l-2 -14 h-4l-10 -12l-23 4l-6 31l2 14l9 18l45 49l16 17l2 6l16 8l4 8l19 6v5l16 -7zM438 342l4 -2v-21l-45 -40l-45 -46l-24 -20l-15 -2l-18 8v14l16 29l47 47l11 2l4 11h10l4 8l21 6l6 6h24zM1126 301l2 -4l-4 -16l-10 -13l-24 -18l-39 -41l-15 6l-14 18l6 17l21 24l51 39l6 2 l16 -8zM696 885l2 6l19 -2l8 -17l-6 -4l-17 2zM1032 831v5l15 -7l6 -14l-2 -12l-15 6z" />
<glyph unicode="&#xa5;" horiz-adv-x="1021" d="M903 629v-4l8 -2l7 -11l-17 -47l-6 -43l-39 -28l-63 -2l-15 4l-65 -11l-33 11h-31l-6 4l-22 -4l-23 -15v-8l-14 -10l-6 -12l-5 -35l-16 -29l-10 -49l-6 -4l-17 -37l-22 -57l-23 -39l-2 -25l-6 -6l-6 -29l-25 -41l-4 -32l-18 -41l-10 -33l-7 -4l-6 -25l-24 -22l-39 -17 h-35l-21 17v10l9 12l14 6l18 2l37 29l25 61l10 15l8 26l13 11l4 28l8 15l4 32l8 23h6v8h4v10l7 5l2 14h6l4 22l6 7l2 16l6 6l8 23l7 4l22 61l25 60l28 61l2 4l11 2l4 6l24 6h72l63 4l64 -4h8l39 33l8 23l10 12l5 12l4 2v8l6 7zM1243 1409h4l8 -25l-4 -16l-12 -10l-8 -21 l-6 -6l-2 -10h-4l-43 -53l-29 -35l-2 -10l-29 -29v-6l-24 -25l-21 -33l-10 -8l-2 -12l-12 -12v-6l-15 -13l-4 -14l-14 -4l-4 -14l-31 -29l-2 -12l-27 -19l-4 -14l-10 -8v-9l-10 -6v-16l-11 -14l-24 -21l-21 4l-4 8l6 29l17 18v11l10 4l2 12l41 41l8 2l19 27l14 10l-2 6l6 23 l39 51l21 43l49 51l18 18l2 13h4v10h6l27 41v8l37 33l6 14l37 31zM649 1370l4 6h17l8 -14l-6 -14l-8 -127v-37l-7 -31l-10 -18l4 -31l-6 -60l-10 -65v-35l-6 -6l-23 -2l-6 4l-4 12l8 70l12 63l7 62l-5 35l7 67l8 64v16zM836 750l2 -5l-4 -18l-31 -4l-8 2l-31 -12l-51 -41h-4 l-13 12l-6 14l17 29l22 21l21 12l26 6l10 -6l35 -2zM977 852h18l6 -6l5 -17l-17 -65l-33 -29l-28 -4l-21 14v15l43 33l15 51zM272 522v-8l-2 -8l-10 -8l-63 -2l-15 14l-2 10l4 6l19 11l51 -5zM184 -37l4 -2v-10l-8 -12l-16 6l-2 16l16 6zM326 754l2 2h8l6 -6l-4 -23h-8l-6 6 zM240 737v13l4 2l6 -4v-9l-6 -4z" />
<glyph unicode="&#xa6;" horiz-adv-x="765" d="M479 1622h10l9 -4l8 -12l2 -66l-6 -65l2 -33l8 -33l-2 -61l4 -64v-67l-12 -66l8 -49l-10 -29l-6 -6h-19l-6 6v60l-4 67l6 31l-6 31l10 53l-8 33v30l8 31l-6 59l2 68v68zM475 1020h23l10 -29v-65l-2 -31l8 -33l-2 -65l-14 -19l-19 -10v-4l-69 4l-9 10l2 19l13 8l39 14 l6 15l10 10v8h4l2 33l6 10l-10 27l-8 67zM479 543h23l6 -6l4 -66l-4 -63l4 -62v-67l-18 -43l-15 4l-6 12l-6 104l12 45l-12 62l-2 61zM475 188h23v-6l8 -8l6 -63l-4 -66l-6 -65l2 -25l-10 -12h-11l-10 8l-4 67l2 60l-6 72zM483 -121h6l13 -6l6 -31v-125l-14 -20l-13 -6 l-16 -2l-4 -4l-29 8l8 31l21 24l10 23v28l-6 39v27z" />
<glyph unicode="&#xa7;" horiz-adv-x="1087" d="M899 465l2 4l4 -6h4l2 -8l-6 -13l10 -24l-14 -47l-20 -25l-9 -16h-8l-18 -27l-45 -47l-31 -14l-6 -9l-57 -16l-17 -6l-18 -16l-4 -33l-17 -51l-18 -43l-29 -50l-22 -24l-35 -29l-12 -2v-6l-33 -23l-58 -20l-51 -4l-28 -10l-31 -2l-33 6l-16 8l-31 8l-6 6l2 19l10 10 l66 -8l63 -10l10 2l7 6l14 4l16 14l17 -2l57 29l47 45l8 4l2 12l17 21l6 24l22 25l13 29l6 55h4l24 33l19 8l4 8l14 4l15 10l32 13l54 38l45 43l10 17l6 24l6 5l2 8l15 10l4 14l10 13zM1008 1100h22l10 -29l13 -63l2 -31l-19 -64l-20 -47l-43 -39l-12 -2v-4l-62 -10l-35 -4 l-8 4l-6 14v15l12 4h35l55 33l4 6l23 12v8l6 4l12 31l13 68v30l-11 35v19l9 6v4zM793 1112l2 -4v-18l-11 -11l-32 -4l-27 -16l-23 -25l-28 -22v-11h-4v-10l-15 -18v-35l-4 -8h-16l-17 49l5 33l8 22h6v8h4l14 29l27 23l20 12l5 6l16 6l2 4h37l24 -4zM330 272h24l15 -30 l-2 -33l-13 -27l-26 -32l-29 -21h-20l-7 12l2 13h5v8h6v10h4l12 21l6 2l8 24l9 45l6 4v4zM477 797l2 -4l-6 -15l-47 -45l-10 -14l-2 -10l-8 -4l-11 -29l-14 -8l-10 6l-4 8l8 55l37 51l39 27zM903 567l2 2h15l6 -12l2 -25l4 -4l-4 -34l-6 -13l-9 -4l-18 10l-4 35z" />
<glyph unicode="&#xa8;" horiz-adv-x="788" d="M440 1317v4h19l8 -14v-33l-6 -17l6 -12l-4 -8v-33l-4 -14l-10 -4l-9 -19l-12 -4l-6 -10l-12 -2l-13 -10l-57 -13l-18 5l-13 12v8l8 12l33 9l29 16l43 49l4 2l6 27l2 39zM795 1255l6 5h16l12 -13v-28l-14 -25l-27 -27l-26 -18l-31 -2l-20 12l-2 8l8 15l26 18l7 8l16 9 l22 24zM686 1149v-4l-29 -15l-6 7l-4 12l6 16l4 2l17 -6z" />
<glyph unicode="&#xa9;" horiz-adv-x="1441" d="M940 1024v-4l-20 -12h-9l-4 8l-63 -2l-17 -4l-32 6v-4l-33 -4l-14 -9l-5 -8l-47 -18l-57 -23l-55 -24l-52 -43l-51 -41l-12 -6l-16 -27l-27 -21l-43 -51l-2 -14l-10 -12l-17 -11l-6 -26l-24 -64l-9 -32l-12 -13l-2 -24l-14 -54l-2 -47l-6 -4l-19 2l-6 6l-2 33l12 64 l12 20l5 64v14l8 10l4 15l18 24l15 10l12 29l12 10l6 25l4 2l2 12l21 23l37 53l51 45l29 16l4 9l37 28l28 8l15 9l4 6h8l27 16l28 8v4h11v5h8l10 10l57 14l21 -2l28 12l35 7l66 -5l37 -2l10 -6zM1374 737v4h15l14 -24l4 -66l-4 -16l10 -64l-12 -63l-2 -23l-17 -36l-12 -52 l-16 -43l-23 -41l-2 -8l-12 -12l-4 -14l-41 -52l-23 -24l-8 -17l-16 -8l-21 -2l-6 4l-2 23l8 14l8 4l2 12l25 25l61 98v6l27 58l6 53l19 31l4 47l18 61l-4 64v55zM1161 162h15l6 -19l-11 -22l-41 -33l-22 -22l-35 -25h-8l-31 -31l-12 -2v-4h-8v-4l-15 -4l-8 -10l-12 -2 l-57 -31l-31 -12l-66 -13l-28 -8l-64 -4l-61 -6l-68 2l-22 2l-4 6l2 19l12 8l31 2l32 -6l68 2l61 16l66 16l33 7l14 6l10 10h8v4l25 6l12 13l15 2l18 16l62 22l49 41l20 25zM1006 377l4 -2l-15 -29l-43 -51l-32 -39l-15 -4l-16 -16l-17 -3l-8 -12l-14 -6l-12 -12l-15 -2 l-12 -11l-27 -8l-67 -12l-51 -4l-25 14l-4 8l43 11l18 8l58 14l63 25l4 8h11l4 10h8l4 6l10 2l4 11l29 12l53 45l2 12l29 37l18 -2zM829 754l5 -4l-3 -9l-49 -39l-26 -22l-4 -14l-7 -4v-9l-18 -24l-14 -41l-8 -2l-3 -13l-6 -6l-2 -20l-10 -10l-8 -39l-8 -11l-6 -20h-7 l-4 -31l-6 -14l-12 -6l-17 8l-2 14l11 31l6 63l14 21l27 57l26 45l7 4l18 43l8 7l2 12l17 10l10 17l24 10l7 6l14 2zM913 575l-2 5l9 12l47 10l43 23v10h4l4 41l14 14l8 -2l13 -12l6 -12l-6 -33l-11 -25l-28 -37h-15l-22 -8l-59 8zM256 408l2 4l21 -2l6 -15v-37l-4 -6h-9 l-16 17v39zM1036 770h15l6 -12l2 -17l-17 -6l-20 10l4 15zM276 301l5 4l2 4l18 -2l4 -8l-6 -14l-8 -2l-15 6v12z" />
<glyph unicode="&#xaa;" horiz-adv-x="954" d="M934 1106h4l-4 -33l-29 -59l-4 -21h-6v-8h-4l-8 -43h-4l-5 -24l-6 -3l-2 -12l-8 -10l-20 -66l-15 -28l-8 -41l-8 -13l-2 -16l-14 -8l-15 2l-6 6l-2 31l4 33l25 59l10 45l27 53l6 6l6 33l24 62l4 22l39 47l11 -2zM676 1286l2 -4l2 -6l-12 -12l-2 -9l-21 -6l-24 -14 l-31 -25l-8 -14l-7 -2l-6 -16l-22 -25l-15 -27l-34 -34h-19l-6 6l-4 14l2 16l16 23v8l41 53l19 23l45 37l2 6l12 2l19 12l28 6l17 -4zM1049 1386l4 -2l-4 -32l-15 -29l-8 -29l-22 -43l-23 -59l-14 -29l-13 -10l-16 -6l-12 20l4 29l26 66l25 61l12 23l4 16l29 35l10 -2z M582 672l4 -2v-17l-17 -28l-12 -11l-8 -14l-21 -4l-8 -10l-28 -8l-13 -13l-24 -6l-6 -8l-29 -2l-31 -12l-29 -7l-22 2l-6 7v26l59 6v7h8v4h11v4h8v4h10v6h8v4l27 6l33 15l47 43l18 14l17 -2zM446 1040h9l10 -2l4 -6l-8 -39l-6 -6v-16l-11 -19l-6 -24l-6 -8l-2 -33l-16 -49 l2 -52l-6 -14l-11 -8l-10 -2l-12 8l-6 14l2 33l10 31l4 63l4 31l12 29l13 16l2 12l12 13l4 12zM920 627l18 -19l-8 -20l-6 -6l-15 -4l-12 -13l-33 -10l-18 -12l-64 -8l-26 4l-4 6h-17l-6 4l2 16l12 8l66 -2l41 15l20 16l13 2l8 12l18 11h11z" />
<glyph unicode="&#xab;" horiz-adv-x="1589" d="M1458 895l4 -4v-14l-20 -62l-2 -10l-6 -2v-8h-4v-11h-5v-8l-10 -10v-8h-4l-6 -19l-8 -43h-4v-8h-7l-8 -20l-10 -9l-4 -10h-8l-23 -24l-30 -9l-13 -8l-4 -8l-16 -4l-13 -16h-8l-8 -11l-16 -2l-4 -10l-13 -2l-16 -16l-12 -4v-5h-11v-6l-22 -4l-19 -18l-14 -4l-22 -21 l-21 -12h-12l-21 22l9 21l26 20l33 9l29 14l30 37l15 2l26 20l11 13h8l4 8h10v6h10v4h8l5 8l26 10l45 43l13 13l4 14l10 8v13l24 59l23 63l16 27l19 4zM948 903l4 -2l-4 -18l-8 -13l-20 -63l-29 -55l-14 -29l-7 -23l-12 -12l-4 -29l-41 -36h-10l-8 -13l-33 -8l-27 -18 l-28 -29l-33 -12l-29 -17l-24 -22l-31 -21l-15 -14l-26 -8l-25 22l6 17l23 22l57 35l54 37l36 22l17 5l53 38l57 33l9 4l8 29l4 35l31 59l24 62l21 34l10 -2zM1202 258l4 -2v-27l-8 -20l-2 -16l-18 -29l-23 -49l-18 -17h-9l-18 15l2 16l21 35l6 35l10 30l14 27l17 14z M631 102h-4l-17 9l-8 28l8 33l8 10v8l13 29l28 37h15l12 -29l-2 -14l-10 -16l-4 -17l-11 -12l-6 -35l-8 -20l-8 -2z" />
<glyph unicode="&#xac;" horiz-adv-x="1212" d="M1122 614l4 -2l4 -10l-16 -61l-12 -31l-2 -14l-15 -15v-8h-4v-10l-6 -2l-8 -17l-12 -12l-17 -51l-22 -66l-8 -43h-7l-8 -30l-30 -54l-19 -45l-24 -18h-136l-30 4l-11 18l2 9l13 10l30 6h68l21 2l28 19l17 26l26 64l15 28l10 51l28 56l15 22l4 19l8 2l2 12l6 6l2 13l6 4 l5 47l26 57l15 21l14 4l12 -4zM537 444l2 -4l-7 -14l-28 -12l-68 -2h-63l-31 -6h-68l-67 6l-33 6l-16 12v10l10 11l63 8l33 -4l33 4l131 -8l31 -2l30 4l17 6zM780 422v-4l-65 -8l-64 8l-35 -6l-22 2l-8 12l2 16l28 11l70 4h64l22 -4z" />
<glyph unicode="&#xae;" horiz-adv-x="860" d="M1038 1157l2 4l15 -8l12 -29l2 -63l-2 -66l-18 -61l-5 -4l-8 -29l-20 -29l-10 -30l-7 -4l-4 -15l-37 -55l-36 -51l-52 -39l-30 -27h-9l-4 -10l-32 -6l-56 -35l-20 -14h-8l-11 -6l-67 -9l-31 -10l-33 -2l-20 -6l-66 4l-45 10l-2 19l8 8l72 4l66 6l63 10l60 21l47 14l16 19 l12 2l4 8l15 6l22 23l13 6l12 12h8l29 33l16 6l39 41l8 31l23 38l12 11l10 18l6 35l7 4l8 29l4 47l6 4l10 55l-2 66zM649 1358l8 -8l5 -9l-7 -6h-8l-12 -10l-27 -8l-37 -2l-4 -6l-20 -4l-27 -21l-55 -33l-29 -14l-8 -10l-12 -2l-15 -21l-12 -4l-24 -22l-17 -9l6 -30l-39 -47 l-12 -41l-10 -11v-18h-4l-4 -64l-6 -34l6 -56l-11 -12h-16l-8 10l-10 68l6 65l16 62l10 14l2 12h5l10 46l24 28l27 19l18 8v33l45 47l11 14l22 4l47 31l4 6h11v4l14 6l33 6l10 11l31 10l47 4zM655 1210l4 -2l11 -18l2 -19l18 -49v-16l-20 -41l-25 -10l-8 22l27 62l-9 20 l-18 17h-14l-5 -7h-16l-27 -14l-49 -47l-24 -8l-13 20l13 27l22 31l37 22l29 2l4 6h14l10 4zM817 1169h10l15 -6l6 -8l-4 -65l-8 -60l-37 -49l-25 -23l-20 -12l-19 -18l-16 10l-2 16l-4 4l2 13l51 49l14 10l4 14l11 11l8 28l6 64l-2 10zM608 952h4l6 -22l-8 -33l-26 -57 l-17 -45l-10 -13l-29 -14l-26 -6h-29l-8 4l2 31l25 2l40 26l21 62l27 57l4 6l8 2l2 4zM729 889v4l19 -2l12 -6l2 -17l-10 -39l-4 -2v-34l-5 -13h-24l-4 31l8 33l2 35zM750 1358l2 -2v-23l-15 -6l-35 4l-14 8l-6 11l8 14l19 6z" />
<glyph unicode="&#xaf;" horiz-adv-x="757" d="M588 1233l2 -4v-12l-39 -13l-59 -4h-70l-68 2h-65l-49 2l-11 13v18l13 8h63l66 -4l65 4l62 -4l61 2zM821 1319l4 -2l-4 -19l-35 -43l-8 -30l-12 -19l-55 4l-64 -4l-33 4l-10 7l-2 10l6 14l29 8h37l37 -6v-4l20 -2l29 10l20 25l-4 33l17 28l20 2z" />
<glyph unicode="&#xb0;" horiz-adv-x="653" d="M844 1108h14l6 -35l-6 -35l-18 -30l-2 -33l-19 -39l-51 -47l-39 -33l-47 -20l-55 -21l-29 -6h-74l-8 2l-6 10l10 17l33 10l31 4l14 6l33 6l33 21l32 8l43 33l39 55l37 51l14 64h7zM573 1294l2 -4l-8 -14l-32 -4l-60 -31l-24 -22l-29 -15l-6 -12l-6 -4h-11l-6 8l-4 16 l2 15l19 28l22 19l8 2l6 10h9l12 10l16 2v7l33 4l4 4h17zM858 1196h4l8 -29v-30l-8 -13l-16 -2l-6 15l-4 37l6 20zM385 1153v2h18l9 -51l-9 -19l-14 2l-8 13v37z" />
<glyph unicode="&#xb1;" horiz-adv-x="1216" d="M1126 680h4l15 -18l-6 -33h-4l-9 -33l-22 -45l-2 -14h-4l-4 -23l-25 -25l-45 -14l-61 -6h-78l-68 4l-65 -2l-13 -4l-37 -55l-26 -56l-10 -34l-19 -46l-33 -26h-34l-62 -14l-61 8l-27 2l-4 4l2 20l10 11l66 2h65l39 24l6 17l13 12l2 24l6 5v16l4 12l6 6l4 15l19 26l12 31 l22 33h11v4l28 6v4l62 -4l59 -2l70 6l67 -2l27 8l23 23l22 45l12 18v17l19 43zM940 125l4 -2l-4 -31l-18 -57l-23 -55l-6 -13l-27 -20l-28 -13l-60 -8h-71l-23 8l-8 15l2 8l12 8l72 2l59 4l13 9l18 24l4 19l10 8l4 14l11 8l20 64l12 18l11 2l12 -6zM795 731l-4 4v15l26 43 l14 59l5 37l26 31l23 2l14 -19l-22 -61l-5 -19l-6 -8l-2 -14l-16 -33l-10 -8l-9 -25l-6 -6l-16 -4zM197 -43l2 -4v-8l-9 -13l-12 -6h-67l-66 -2l-59 8l-4 7l-2 18l4 6l28 6h66l33 -4l69 2zM618 -39l3 -4v-16l-13 -7l-65 -6l-33 -4l-68 6l-20 7l-2 6l6 14l12 8l41 -2l6 6 l62 -4l37 2zM346 475l-4 2h-18l-9 -4h-14l-6 4v17l8 10l31 12l74 2l26 -12l4 -6v-17l-8 -8l-33 -8zM354 -39l11 -8v-14l-5 -5l-63 -6l-23 4l-6 13v12l51 8l5 4zM223 502l2 -2v-11l-16 -16h-27l-12 8l-2 11l6 14l14 8h17l14 -6z" />
<glyph unicode="&#xb2;" horiz-adv-x="684" d="M729 1305h10l15 -9l4 -30l-4 -23h-4l-11 -55l-4 -23l-12 -10v-22l-18 -31l-3 -12h-6l-6 -17l-18 -29l-49 -51l-48 -45l-49 -47l-51 -43l-45 -43l-10 -12h-10v-4h-9v-4l-32 -7l-7 -4l-22 4l8 23l25 20l22 13l21 24l49 39l24 17l43 47l48 47l41 47l12 12v8l22 25l7 14 l24 21l19 24l2 60l12 28l2 27zM473 1354l16 -8l-10 -23l-30 -27l-13 -28l-20 -27l-4 -16l-11 -15v-8l-16 -39l-23 -26h-8v-4h-10l-2 -5l-29 -4l-57 2l-12 9l-6 12l6 14l20 6l53 -4l27 17v4l12 12l2 25l7 6l16 63l49 39l27 27zM559 711h4l8 -15l-4 -37h-4l-20 -47l-37 -34 l-64 -3l-67 -4h-33l-57 19v18l14 10l66 -6h16l31 11l55 -7l27 15l18 26l18 39l17 13zM250 600l2 -2l-6 -14l-15 -9l-18 -4l-25 7l-10 12l4 16l15 6l18 2l18 -4zM51 606l2 2h17l6 -4l-2 -26l-21 -3l-6 23zM719 1360l2 4l8 -2l10 -25l-4 -14l-14 4l-6 16z" />
<glyph unicode="&#xb3;" horiz-adv-x="688" d="M586 954l10 13h18l7 -11l6 -28v-70l-17 -63l-12 -37l-20 -49l-11 -11l-14 -26l-25 -27l-53 -37l-35 -24l-20 -6l-6 -7l-58 -6l-67 -10l-56 8l-8 15l4 16l9 4l34 -6l60 10l51 8l41 23h6v6l14 6l13 12l12 2l25 25h6l37 37l2 14l10 15v8l18 47l6 4l2 12l7 6l10 64v33z M506 1348l2 -5l2 -6l-12 -12l-2 -8l-29 -12l-27 -19l-34 -47l-7 -16l-2 -29l-26 -20l-13 -5l-67 5l-6 2v28l32 8l29 13l27 30l2 17l14 26l41 45l14 3l13 12h32zM729 1307h14l7 -15l-5 -26l-12 -9l-12 -20v-55l-21 -37l-12 -10l-12 -23l-14 -6l-11 -14l-24 -17l-64 -20l-14 6 l-2 10l6 14l53 37l47 41l13 13l4 14l10 4l8 25l12 8h7l10 14l-6 31l2 8l4 2l2 18zM240 903h8l8 -2l10 -12l-10 -64l-16 -49l-7 -4l-16 2l-6 6l-6 31l4 37l14 33z" />
<glyph unicode="&#xb4;" horiz-adv-x="757" d="M750 1401l4 -4l-19 -27l-22 -22l-25 -7l-24 -22l-27 -39l-29 -16l-20 -23l-6 -2l-33 -39l-12 -2l-11 -10l-28 -17l-49 -43l-11 -10l-28 -4v-4l-64 4l-33 -2l-32 6v27l4 6h67l64 8v4l8 2l10 13l12 6l25 26h8l47 37l13 2l43 51l10 15l45 31h10l19 24l6 14l24 25l11 2v4h10 v4l8 2l12 -6z" />
<glyph unicode="&#xb5;" horiz-adv-x="1069" d="M498 985l4 2h14l6 -14v-23l-12 -30l-16 -66l-17 -25l-4 -14l-6 -4l-2 -10h-6l-17 -58l-14 -59l-10 -4v-8l-29 -54l-18 -65l-19 -43l-26 -61l-7 -5l-12 -30l-8 -8l-25 -56l-4 -41h-4l-4 -33l-24 -53l-9 -28l-4 -35l-12 -21l-16 -2l-13 8l-4 13l8 65l21 64l12 20l4 19l6 6 l2 12l25 59l8 35l15 29l2 14l30 56l13 59h4l10 31l31 55l22 59l19 60l8 24l12 13l2 14l10 12l9 29l4 4l2 18l24 58zM1255 428l2 -2l-4 -25l-6 -4l-4 -14l-37 -55l-10 -11l-6 -14l-23 -22l-10 -21l-18 -14l-2 -17l-11 -8l-10 -31l-47 -51l-6 -16l-12 -6l-17 -27l-24 -20 l-21 -27l-53 -37l-37 -31l-20 -6l-11 2l-51 -43l-61 -18l-29 -8l-33 -2l-65 8h-8l-13 8l-4 8l2 17l15 6h63l66 12l61 18l14 3l31 26l12 4l9 13l16 6l45 41l29 18l47 51l16 27l14 8l5 14l18 19l4 14l29 27l6 16l31 35l10 25l8 4l14 28l17 21l2 10h4v10h4v9h6l2 14l10 14 l15 10h14zM129 -88l-4 2l-16 -6l-19 -21l-10 -37l-6 -4v-8l-11 -12l-10 -29l-10 -47l-16 -31l-11 -32l-16 -23v-8h-4v-10h-4l-19 -56v-14h-6l-18 -35l-23 -10l-4 -6l-47 4l-8 -4l-12 8l-2 10l6 15l30 4l35 35l21 45l8 30l31 56l12 20l6 39l12 29l19 28l16 62l6 14l13 12 l20 7l74 4l49 6l2 4l33 6l59 23l53 41l11 10h8l12 10l21 27l26 26h10l21 -12l2 -12l-10 -27l-8 -4l-7 -14l-51 -41l-26 -19l-23 -8l-10 -12h-8l-15 -10l-14 -3l-6 -8l-64 -10l-65 -10zM1008 991h8l10 -4l10 -12l-4 -33l-24 -57l-19 -62l-6 -4l-12 -28l-10 -13l-7 -30 l-14 -50l-20 -36l-21 -46l-2 -16l-20 -49l-13 -29l-10 -14l-10 -33l-8 -4v-8l-11 -10l-8 -41h-6l-10 -21l-17 -4l-10 16v31l29 51l16 54l4 16l8 8v15l15 22l2 18l24 58l5 4l4 22l10 11l2 14l27 59l6 31l6 12l6 5l4 14l6 6l2 12l11 19l8 37l6 4l6 14l8 4v8l8 13l2 16z M778 348l2 -2l-4 -31l-24 -55v-16l-9 -11l2 -20l-12 -27l-6 -26l-12 -10l-8 -3l-9 5l-6 12v18l10 31l7 68l32 57l9 10l16 4zM-197 -455l2 -2l-6 -12l-12 -8l-25 -4l-38 14l-3 14l11 13l35 2z" />
<glyph unicode="&#xb6;" horiz-adv-x="1423" d="M1532 1090l2 -3l2 -14l-23 -65l-10 -29l-16 -25l-29 -20l-28 -4l-41 4l-13 -10l-18 -52l-25 -59l-20 -33l-6 -32l-11 -19l-10 -31l-14 -26l-10 -31l-7 -8l-4 -25l-12 -12l-12 -23l-4 -24l-17 -33l-20 -59l-2 -11l-10 -12l-3 -10h-4v-10h-6l-6 -41l-22 -58l-31 -59 l-10 -33l-35 -53l-4 -6v-17l-11 -6l-2 -45l-10 -14l-16 -64l-4 -16l-11 -14l-2 -15l-30 -57v-8l-41 -49l-11 -6l-12 -31l-16 -27l-53 -37l-13 -14l-16 -6l-10 -10l-27 -4l-4 -5h-14v-6l-33 2l-12 9l-3 18l56 29l28 12l23 18h10l15 19h8l39 49l32 43l2 10l7 4v4l22 25l14 59 l43 101l7 6l2 10l26 29l4 35l15 24v27l20 59l12 21v10h7l4 22l6 7l2 12h6l4 22l8 15l2 14l23 61l4 23h4v8h4l2 12l31 50l4 16l6 2l4 51l15 25l4 20h4v11h6v8h4v10h4v8h6v10h4l21 56l18 61l2 12h4v11h7l8 32l28 37l33 15l47 6l27 20l25 60l16 28l12 13l17 2zM1100 954l2 -2 v-10l-10 -10l-62 -12l-24 -23l-13 -33l-16 -26l-4 -17l-27 -18l-10 -12l2 -58l-27 -59l-24 -62l-29 -59l-14 -21l-6 -2l-2 -14l-19 -16l-2 -6l6 -15l2 -18l-24 -60l-21 -57l-12 -12l-2 -15l-19 -28v-41l-16 -27l-8 -6l-21 -59l-10 -33l-14 -21l-4 -30l-25 -43l-8 -4l-8 -31 l-10 -10h-21l-8 14l20 43l6 4l5 27l10 26l10 11l8 55l6 4l9 14l2 17l8 12v8h4l6 27l8 10l4 14l13 9l12 30l4 2l-4 27l6 22l29 54l26 59l25 25v16l6 12l-6 23l27 59l6 15l6 4l8 26l10 17l13 55l18 47l31 16l4 13l2 33l16 59l15 35l34 33l68 4l16 -2zM348 -268l-2 6l8 14 l62 23l4 8l35 20l16 17h6l47 49l17 16v11h4v8l10 12v6l14 10h15l10 -6l2 -18l-18 -45l-31 -39l-6 -12l-56 -48l-12 -10l-59 -26l-8 -7l-33 -6l-21 9zM528 408l4 -2l-2 -19l-8 -10l-14 -4l-33 8l-63 -2l-66 6l-29 10v23l13 4l65 -10l35 4l27 -2l6 -4h16l2 -4l33 4z" />
<glyph unicode="&#xb7;" horiz-adv-x="819" d="M641 580h25l4 -7l2 -67l-6 -51h-7v-11h-4v-8h-4l-14 -28l-12 -13l-33 -22l-12 -4l-17 -13l-63 -2l-17 2l-4 4l-33 2l-14 7l-6 14l2 10l8 4l47 -4l66 19l24 14l39 35l15 26l10 50z" />
<glyph unicode="&#xb8;" horiz-adv-x="757" d="M547 -240h14l19 -16l6 -33l-13 -63l-8 -37h-4l-2 -14l-8 -11l-55 -37l-37 -28l-15 -4l-18 -17l-61 -10l-35 -4l-35 2l-10 8l-2 19l63 16l62 18l30 13l25 18l41 41l6 14l18 19l4 18l9 6l4 13l-2 57zM496 -68l10 -10v-18l-14 -29l-17 -16l-6 -2l-23 20l-2 8l19 39l12 8h21z M350 -229l2 -2l2 -11l-6 -14l-14 -6l-25 6l-4 18l8 13l15 4zM176 -473v6l49 -6l11 -10l2 -13l-17 -4l-18 2l-4 6l-21 11z" />
<glyph unicode="&#xb9;" horiz-adv-x="559" d="M264 582l-4 4l2 18l10 10l11 4l4 9l24 20v8l8 4l13 33l28 56l7 16l4 35l14 26l21 23l8 4l4 8l-4 41l14 29l12 55l6 4l15 29l16 18l4 35l25 51l16 31l10 10v17l19 26l12 31l2 16l-4 15l8 14l9 33l10 14l2 12l22 25l11 4l6 -4l6 -33l-8 -33l-9 -10l-6 -22l-28 -31v-8l-9 -8 v-33l-20 -60l-18 -47l-2 -8l-7 -4l-4 -14l-12 -11l-2 -12h-4l-6 -24l-2 -29l-13 -37l-6 -6l-16 -43l-37 -43v-8l10 -21l-6 -18l-10 -12l-10 -29l-11 -14l-4 -23l-16 -31l-19 -49v-8l-28 -39l-4 -6l-47 -17zM330 1096v-4l-2 -9l-31 -20l2 -8l-10 -31l-39 -51l-21 -27l-22 -14 l-21 -6l-14 12l2 18l19 27l45 47l10 12l41 27l12 33h18zM670 1432l4 -2v-19l-15 -4l-10 -12l-8 -2l-6 6l-2 14l12 19h25zM193 616l2 2h8l10 -14l-2 -14l-14 -4l-7 14z" />
<glyph unicode="&#xba;" horiz-adv-x="823" d="M913 1233h11l8 -2l12 -27l2 -45h6v-37l-22 -57l-6 -12l-6 -54l-13 -26l-4 -51l-6 -4l-12 -29l-35 -58l-12 -12l-23 -53l-12 -29l-15 -18l-4 -12l-16 -7l-14 -18l-23 -10l-16 12l12 21l4 14l23 31l4 20h4l2 8l26 39l7 2v10l6 2l18 43l6 7v8l19 47l6 4v14h4l8 23l6 6l4 23 h5l8 61l8 55l8 8l10 31l-6 58zM680 1317l2 -6l-2 -19l-43 -22l-45 -47l-39 -41v-8l-10 -7v-8l-25 -53l-6 -16l-8 -11l-27 -55l-24 -63l-13 -29l-12 -55l-14 -15l-19 2l-6 6l-4 15l8 37l13 26l6 33l26 59l13 50l61 110h4v10h4l6 21l11 4l8 18l24 21l4 8l13 4l24 21l21 4l2 4 l29 6zM676 645l6 -2l-2 -16l-14 -25l-54 -39l-24 -16l-62 -15l-4 -2l-35 7l-61 -9l-66 15l-10 10l-2 8l8 14l9 5l61 -11l66 4l28 7l60 28l36 13l7 10h8v4h10v4zM395 834h4l9 -11l2 -37l-7 -22h-26l-6 35l6 22l10 10z" />
<glyph unicode="&#xbb;" horiz-adv-x="1589" d="M1423 555l4 -2l-4 -16l-10 -17l-2 -14l-12 -12l-2 -25l-15 -29l-24 -22h-10v-4h-9v-4l-28 -13l-27 -20l-57 -33l-27 -18l-20 -21l-58 -33l-12 -4l-6 -6l-60 -22l-6 -2l-4 -9l-14 -6l-25 -22l-8 -2l-4 -9h-14l-49 -20l-31 -16l-21 -25l-16 -2l-8 -10l-21 -6l-6 -7l-35 -14 l-22 12l2 19l20 22l27 15l49 12l8 12l15 4l22 25l25 16l49 21l10 10l35 18l20 19l60 33l57 30l58 35l12 2l51 37l55 37l19 25l22 59l27 18zM899 555l4 -2l4 2l-2 -41l-16 -45l-8 -4l-7 -14l-51 -43l-26 -21h-11v-6l-22 -8l-10 -13l-31 -12l-27 -20l-10 -2v-4l-27 -13l-6 -6 h-14l-12 -12l-56 -29l-16 -6l-14 -14h-9l-24 -23l-21 -10l-10 -12h-10v-7h-8v-4l-13 -2l-18 -12l-10 -2l-2 -6h-8v-4h-11v-6h-8l-29 -19l-14 -4v-4h-8v-6l-29 -12l-12 -13l-16 -6l-29 16l-2 7l6 16l35 31l31 12l16 14h8v4h10v7l15 2l16 14l25 12l2 4l63 29l25 14l6 11l10 2 v4h10v4h9v6h10v4l33 8l4 11h8l29 18l12 2l49 37l12 2v6h11v4l14 2l16 15l10 2l54 39l32 26l3 12h4v11l12 10l20 43l19 8z" />
<glyph unicode="&#xbc;" horiz-adv-x="1554" d="M1491 1397l4 -4l-4 -31l-41 -51l-43 -49l-23 -27l-14 -8v-10l-10 -5l-2 -14l-47 -45l-45 -39l-2 -12h-7v-10h-4v-9l-10 -10l-4 -14l-8 -4l-6 -15l-47 -47l-39 -53l-21 -22l-18 -29l-43 -45l-49 -47l-4 -15l-11 -6v-8l-22 -25l-8 -4v-8h-7l-2 -12l-47 -45l-12 -10l-31 -56 l-43 -51l-12 -10l-14 -25l-47 -45l-11 -10l-20 -39l-43 -51l-43 -47l-43 -45l-21 -27l-4 -14l-18 -15l-45 -47l-17 -8l-24 -57l-2 -8l-15 -9l-41 -51l-47 -49l-41 -49l-18 -17l-14 -6h-91l-8 11v18l6 6l58 8l30 13l27 18l4 14l10 15l9 4v8l14 10l4 15l25 22l43 53l10 13l2 8 l51 41l39 41l12 35l31 28l4 15l25 22l20 27l25 22l4 15l10 12l8 4l2 12l13 8l6 15l22 20l2 6l21 17l2 12l14 10l2 13l25 22l2 8l24 21l46 47l2 10l10 8l10 23l47 49l21 16l32 50l7 2v10l8 4l2 12l33 27l2 12l18 14v9l25 24l39 49l43 52l41 51l45 53l34 45l4 14l29 15l14 12 l5 14l10 11l10 28l47 43l17 17v8l8 4l4 16l20 27l27 23l27 12zM754 1389h18l4 -15l-16 -20l-2 -21l-15 -33l-14 -18v-33l-16 -30l-6 -21l-17 -27l-20 -61l-21 -55l-2 -8l-10 -11l-6 -20l-10 -12v-17l-9 -26l-16 -27v-8l-18 -25l-9 -29l-2 -34l-18 -25l-4 -18l-13 -13 l-14 -61l-10 -33l-16 -26l-23 -62l-16 -27l-2 -12l-37 -31h-64l-39 -4l-10 9l-6 14l2 12l12 6l64 -4l41 23v10h6v8l10 8l8 35l27 55l16 31l17 43l6 27l24 55l7 6l10 66l18 24l4 17l15 22l18 70l23 57l14 25l16 49l11 12l2 11h4l6 24l12 12v11h4l25 47l6 22l-2 10l10 11 l14 30zM1475 254l2 -2l-4 -19l-9 -14l-22 -20l-4 -9l-37 -24l-27 -6l-4 -4l-33 -4l-28 -11l-23 -22l-14 -29l-10 -33l-9 -14v-8l-6 -6l-2 -17l-10 -10l-10 -29l-35 -36l-25 -5l-69 -4l-25 -2l-12 11v14l8 12l12 4l35 -4l35 8l22 21l17 26l24 56l9 35l6 4l10 30l25 31l32 12 l62 15l43 20l43 39l16 2zM1509 782h19l4 -14l-14 -29l-7 -65l-6 -10l-4 -19l-28 -59l-17 -29l-4 -12l-12 -15l-4 -32l-15 -45h-6v-11h-4v-8l-20 -24l-9 -29l-14 -29l-10 -10l-17 -2l-6 6v33l19 22l16 58l21 53l6 4v10l10 4v11h4v8l12 10l15 66l10 22l4 23l10 14l11 37l34 57 zM1276 621l2 -3l-8 -30l-25 -43l-18 -15l-6 -14l-47 -49l-44 -51l-43 -49l-49 -43l-12 -2l-10 14l-2 16l18 27l23 22l8 17l24 20l5 15l47 45l12 10l6 14l41 47l43 49l8 11l17 -2zM1049 168l2 -4l-2 -19l-13 -8l-63 4l-33 -4l-68 8l-20 2l-2 27l8 4l16 -4l62 8l68 -4l32 -2z M401 1036h19l6 -18l-12 -31l-37 -29l-39 -49l-16 -18l-11 -2l-16 12l4 25l43 43l8 2l19 28z" />
<glyph unicode="&#xbd;" horiz-adv-x="1587" d="M1479 1405l8 -4l6 -19l-12 -28l-41 -51l-43 -52l-37 -47l-45 -51l-35 -49l-43 -49l-47 -45v-9l-8 -10l-11 -4v-8l-6 -4l-2 -10l-10 -4l-2 -13l-47 -45l-17 -12v-10l-8 -4l-4 -17l-12 -10l-4 -12l-25 -21l-41 -53l-22 -25l-17 -26l-43 -47l-39 -50l-18 -24l-31 -31l-4 -14 l-45 -43l-12 -10l-6 -13l-11 -8v-10l-22 -23l-8 -16l-19 -14l-4 -13l-20 -22v-8l-27 -21l-4 -16l-45 -45l-21 -27l-24 -22l-12 -19l-15 -8h-10l-8 27l4 22l47 47l16 14l7 21l16 20l6 15l31 24l4 15l37 32l16 31l10 10l2 13l23 20l43 51l41 47l43 50l31 30l4 13l6 4l8 16 l37 41l6 14l53 43l23 21l18 27l9 22l10 10l8 23l45 49l20 10l3 13l18 20l2 14l10 4l2 13l9 4l43 51l40 51l43 49l21 23l37 53l24 23l7 16l45 45zM1571 686h8l8 -2l8 -12l4 -70l-4 -31l-14 -53l-10 -26l-10 -5l-13 -32l-12 -21l-2 -12h-4l-17 -27l-26 -30l-49 -43l-43 -50 l-39 -32l-13 -13l-12 -2l-28 -30l-13 -2l-51 -43l-4 -9l-43 -22l-12 2l-13 12l2 12l50 50l36 28l15 4l4 9l22 10l11 12l10 4l47 51l45 47l12 13h9l36 37l7 16l10 4l6 21l6 6l12 26l35 56l4 32l13 27v66zM580 930l4 -2l4 -8l-2 -17l-13 -26l-6 -31l-20 -29l-15 -29l-2 -30 l-30 -58l-19 -61l-22 -51l-13 -27l-30 -33h-111l-8 9l-2 24l70 4l28 8l23 19l26 63l23 47l12 13l4 49l23 57l8 33l10 23l13 8l12 30l12 13v4zM487 186l2 -2l3 -8l-5 -16l-20 -25l-4 -14l-41 -49l-21 -13l-4 -14l-20 -14l-15 -27l-45 -47l-16 -2l-16 4l-6 8v6l8 4l6 15l24 24 l39 56l35 47l47 49l25 22zM1337 696l2 -6l-8 -16l-37 -29l-16 -18l-4 -15l-10 -6v-8l-11 -14l-18 -58l-18 -24l-29 -19l-19 -4l-16 2v21l4 8l29 22l10 15l2 33l6 8l4 24l35 52l19 16l2 6l12 2l12 12l27 9zM705 1276h4l6 -2l8 -12l2 -25l-12 -12l-6 -21l-11 -12l-6 -25h-4 l-6 -22l-18 -41l-25 -31l-6 -69l-21 -31l-18 -12l-6 8l-6 32l2 19l12 31l27 39l8 32l24 58l2 16l15 29l14 41zM432 1040l2 -2v-16l-35 -51l-49 -49l-18 -27l-17 -10h-10l-14 6l-4 16l12 29l20 14l3 13l49 43l22 22l8 14zM1413 72l4 -2l-6 -58l-12 -12v-14l-6 -6l-2 -13 l-21 -26l-12 -2v-5h-29l-14 11l-2 8l6 12l27 25l24 59l6 25l15 10zM1253 -47l2 -4l-2 -12l-14 -5h-63l-60 -2v4l-18 11l4 14l12 8l35 4l55 -4l6 -4l33 -4zM1004 -47l2 -4v-8l-11 -7l-65 -8l-37 2l-12 6v29l8 4l65 2l19 -2l4 -4l22 -4zM762 1374l2 -2v-33l-6 -20l-10 -4 l-7 -15l-10 -10l-18 -2v55l20 31l17 4zM244 -45v-2l-2 -14l-13 -9l-18 -2l-23 6l-2 19l4 8l23 8l16 -2zM1059 -45l2 -2l-2 -19l-12 -8l-15 6l-4 7l2 16h29z" />
<glyph unicode="&#xbe;" horiz-adv-x="1685" d="M1559 1380l4 2l16 -2l12 -8l-8 -31l-29 -28l-4 -15l-12 -8l-2 -10l-16 -20l-17 -17v-8l-18 -14l-4 -15l-13 -8l-2 -10l-10 -4l-4 -15l-86 -94l-14 -10l-6 -16l-13 -9l-4 -12l-41 -49l-67 -74l-17 -24l-26 -23v-8h-4l-5 -14l-12 -9l-4 -12l-16 -24l-25 -23l-22 -31h-9 l-30 -39l-13 -6v-10l-8 -4l-4 -19l-8 -4l-2 -10l-8 -4v-10l-47 -43l-52 -41l-4 -19l-12 -12l-6 -24l-41 -39l-2 -13l-49 -45l-11 -10v-8l-22 -35l-19 -27l-24 -22v-6l-45 -49l-33 -37v-11l-25 -22l-2 -12h-4l-6 -15l-47 -43l-49 -35l-4 -8l-12 -8l-9 4l9 47l10 4v11l43 51 l35 31v10h6v8l18 14v11l8 4l9 16l49 45l16 27l12 10l2 12l13 8l6 17l22 20l43 49l17 27l47 47l2 8l45 33l4 14l10 15l4 14l43 49l35 47l25 23l4 14l37 37l14 25l68 73l16 29l51 41v8l13 11l14 30l12 8l2 13l45 49l19 14l4 12l14 11l2 10l12 10l7 15l41 47l49 47l12 20h4 l2 17l41 49l43 49zM696 932h9l14 -6l6 -25l-2 -70l-10 -65l-23 -55l-10 -13v-8l-10 -10l-17 -6l-12 -12l-10 -3l-10 -30l-9 -11l-20 -12l-21 -22l-24 -19l-45 -12h-19v-6l-65 -8l-62 -4l-34 6l-13 6l-2 10l12 14l70 2l66 9l43 12l8 10l12 2l60 33l47 37l6 43l6 2l4 12h4v10 h4v9l10 10l13 24l12 66l6 25zM1606 248l4 -2l-6 -17l-41 -43l-9 -2l-12 -10l-20 -6l-4 -6l-25 -2l-8 -6h-10l-9 -11l-24 -2l-27 -16l-29 -31l-8 -22v-25l-14 -51h-4v-10h-6v-9l-8 -4v-10l-7 -2l-10 -14l-12 -2v-4l-43 -11h-33l-12 -4l-19 4l-6 7l-2 10l8 14l21 6l33 -2 l30 15l19 26l22 62l25 43v14l22 43l54 20l32 11l56 22l24 25l25 18l24 -2zM1632 784h25l8 -24l-6 -31l-27 -53l-6 -23l-12 -8l-21 -39l-2 -16l4 -15l-24 -55l-2 -10l-8 -2l-5 -12l-10 -11l-4 -14l-12 -12l-8 -68l-19 -43l-12 -10l-21 -4l-6 6l-4 16l10 33l11 10l-2 9l10 32 l14 27l4 16l11 9v28l14 39l16 33l19 26l10 9v41l10 14l8 29l13 12l10 39l10 8zM817 1280h14l13 -20l-13 -62l-4 -24l-16 -29l-45 -51l-25 -25l-18 -6l-6 -12l-15 -11l-32 -6l-23 10l-2 11l8 14l39 10l41 43l4 15l31 26l4 13l10 6l17 61l10 27zM569 1305l2 -2l-2 -7l-24 -20 l-27 -35l-2 -12h-6l-6 -31l-12 -29l-9 -10l-22 -8l-53 6l-5 4l3 17l12 8l18 2l33 47l4 14l37 51l10 13l35 -2zM1389 614l4 -2v-14l-15 -33l-39 -51l-22 -20l-19 -25l-24 -23l-29 -18l-2 -8l-14 -6l-2 14l16 29l4 20l25 19l26 34l23 27l6 12l25 25l14 20h23zM455 43h14l8 -23 l-4 -16l-8 -12l-2 -12l-49 -43l-45 -13l-17 6l-33 -6l-12 13v22l25 8l30 -2l17 6l35 33h8zM1217 403h4l-13 -30l-20 -33l-23 -6l-14 6l2 18l8 15l43 33l6 2zM973 174l2 2l67 -8l13 -8v-13l-13 -6l-63 -2l-6 2l-4 9v16zM338 868h6l6 -6l4 -31l-10 -28l-10 -2l-21 8l2 41l7 12 zM1180 174l4 -2v-16l-8 -11l-21 -2l-6 17l6 12l12 6zM377 1178l4 -4v-11l-4 -6l-15 -2l-4 4l2 15l7 4h10zM1069 164l2 4l10 -2l4 -14l-4 -9l-10 2l-4 7zM1118 164v4h8l7 -6v-8l-15 -4l-4 4v8z" />
<glyph unicode="&#xbf;" horiz-adv-x="966" d="M584 285h18l4 -9l-2 -16l-16 -27l-43 -47l-94 -94l-43 -47l-23 -20v-9l-43 -47l-10 -22l-13 -10l-16 -46l-6 -6l-4 -32l-10 -31l6 -39l-4 -16l-6 -7l-17 2l-8 11l-4 43h-4l-4 32l12 48l6 4l8 14l4 29h4l17 41l49 51l16 26l21 15l6 14l25 25l16 26l51 41l49 47l47 45z M705 -348l-5 -2l5 -29l-7 -2l-8 -16l-20 -19l-33 -8l-16 8l4 17l6 2l2 16l18 16l41 27l2 10l11 4l4 39l24 23l29 49l12 10l4 33l10 10l5 64l10 57l12 23h14l13 -27l-6 -68l-5 -26l-16 -19l-8 -61l-2 -6l-12 -10v-11l-19 -14l-16 -27l-6 -24l-15 -27zM936 920h14l8 -2l9 -13 v-8l12 -31l2 -26l-8 -35l-8 -14l-4 -19l-11 -4l-2 -12l-18 -19l-17 -8l-10 -12h-8l-10 -10h-8v-5l-66 -12l-29 -2l-37 12l-8 17l2 8l9 6l69 8l23 2l39 21l16 18l8 2l6 13l13 10l6 16l4 2l-2 68zM774 547l4 -2l-14 -56l-10 -14l-23 -59l-16 -21v-8l-13 -8l-2 -10l-18 -23 l-18 -24l-13 -3l-24 -16l-11 35l5 12l43 58l34 55l31 57l8 25l15 14zM582 -436l6 -13l-2 -8l-23 -16l-61 -27l-62 -4l-63 -8l-43 8l-27 2v27l60 8l71 4l54 14l69 19zM227 -471v4l25 -2l2 -10l-14 -4l-9 4z" />
<glyph unicode="&#xc0;" horiz-adv-x="1765" d="M1960 449l4 -3v-16l-14 -29l-37 -55l-33 -57l-39 -53l-37 -33l-2 -13l-10 -4v-8l-6 -4l-2 -10l-10 -4l-5 -15l-26 -16l-4 -8l-43 -31h-6l-13 -12l-57 -17l-21 -12l-71 -10l-33 -6h-35l-14 -4l-29 -27l-18 -53v-4h-4l-11 -41v-19l-4 -6v-35l-6 -6l-16 -63l-12 -33l-7 -29 v-18l-18 -70l-12 -14l-25 4l-6 12v33l8 35l25 53l6 64l14 30l8 31l2 41l7 4l18 59l23 64l14 27l12 8l64 -2l61 2l68 12l53 41l16 14l15 4l47 41l45 45v9l18 24l10 21l27 20v10l8 5v8l11 6v8l8 4l6 25l12 33h6l2 14l11 8l2 12l26 21l17 -2zM1501 1362l4 -2l2 -17l-18 -38 l-2 -15l-6 -4v-4l-15 -10l-6 -15l-22 -24l-2 -12l-11 -15l-8 -30l-22 -39l-45 -50l-9 -6l2 -10l-6 -27l-10 -10l-8 -22l-8 -4v-11l-8 -2l-5 -14l-12 -10l-12 -29l-35 -55l-33 -60l-16 -18l-4 -16l-39 -50l-19 -28l-4 -23l-30 -49l-4 -12l-9 -4l-4 -13l-12 -10l-8 -20l-6 -6 l-4 -21h-7v-8h-4l-2 -12l-28 -48l-2 -10h-5l-2 -12l-22 -18l-23 -7l-12 15l-2 14l4 16l35 56l37 39l28 57l13 20l4 15l10 10l2 14l12 13l4 14l7 6l2 12l24 29l15 33l34 53l31 53l12 23l13 8l6 14l18 19l6 26l27 58l35 35l6 14l10 6l2 16l21 35v11l10 4v8l14 10v8l11 11l2 14 l12 12l6 25l14 8l5 14l18 23l29 49h24zM1638 979h19l10 -12l-8 -47l-10 -41l-9 -35l-24 -60l-10 -28l-4 -37l-21 -55l-8 -35l2 -31l-4 -31l-25 -61l-18 -64l-19 -61l-20 -62l-12 -8h-15l-6 17v14l12 31l11 61l22 62l6 30l15 33l8 64l8 14v8h4l8 57l6 5l9 43l8 14l6 49l18 47 l13 25v33l22 53l6 4v4zM494 449v-7l-7 -4l-22 4l-4 -4l-33 8l-70 3l-65 -9l-35 -8v-4h-10v-4h-8v-6l-15 -2l-14 -19l-14 -2l-23 -22l-2 -13l-10 -10l-12 -24v-9l-7 -6l-6 -65l-2 -6l-8 -7l-23 5l-8 24l-6 8v33l8 35l27 57l18 25l56 43l20 6l10 10l56 4h73l66 -6l22 -2 l29 -16l14 -4zM838 250l4 -2l2 -8l-10 -31l-13 -21l-6 -2l-16 -24l-29 -25l-8 -14l-6 -4l-4 -13l-23 -24l-18 -6l-9 -13l-12 -4l-20 -26l-15 -4l-22 -23l-29 -18l-18 4l-4 10l2 14l16 27h10l2 6l27 21l10 12l21 8l39 41l12 23l14 6l4 8l19 14l4 15l12 8l2 14l10 10l7 15 l20 16h8zM1745 1378h14l13 -14l-3 -31l-18 -57l-8 -6l-4 -13v-32l-17 -64l-16 -53v-8l-10 -13v-38l-6 -5l-2 -8l-33 -37l-6 -2l4 17l-4 33l12 63l14 64l11 43l10 26l6 35l20 49zM530 -14l5 -2l2 -19l-15 -18l-45 -23l-63 -14l-35 4l-14 8l12 12l14 7l12 12l52 12l34 21l27 4 zM346 -70v-4l-2 -12l-10 -8l-35 -4l-74 8l-12 6l-2 14l4 11l27 4l71 -4l31 -7zM1743 1487l2 4l20 -2l7 -14l2 -37l-7 -37l-8 -4l-6 2l-10 12l-6 33zM178 -63v-5l-16 -6l-35 19l12 10l13 2l18 -4l6 -6z" />
<glyph unicode="&#xc1;" horiz-adv-x="1765" d="M1960 449l4 -3v-16l-14 -29l-37 -55l-33 -57l-39 -53l-37 -33l-2 -13l-10 -4v-8l-6 -4l-2 -10l-10 -4l-5 -15l-26 -16l-4 -8l-43 -31h-6l-13 -12l-57 -17l-21 -12l-71 -10l-33 -6h-35l-14 -4l-29 -27l-18 -53v-4h-4l-11 -41v-19l-4 -6v-35l-6 -6l-16 -63l-12 -33l-7 -29 v-18l-18 -70l-12 -14l-25 4l-6 12v33l8 35l25 53l6 64l14 30l8 31l2 41l7 4l18 59l23 64l14 27l12 8l64 -2l61 2l68 12l53 41l16 14l15 4l47 41l45 45v9l18 24l10 21l27 20v10l8 5v8l11 6v8l8 4l6 25l12 33h6l2 14l11 8l2 12l26 21l17 -2zM1501 1362l4 -2l2 -17l-18 -38 l-2 -15l-6 -4v-4l-15 -10l-6 -15l-22 -24l-2 -12l-11 -15l-8 -30l-22 -39l-45 -50l-9 -6l2 -10l-6 -27l-10 -10l-8 -22l-8 -4v-11l-8 -2l-5 -14l-12 -10l-12 -29l-35 -55l-33 -60l-16 -18l-4 -16l-39 -50l-19 -28l-4 -23l-30 -49l-4 -12l-9 -4l-4 -13l-12 -10l-8 -20l-6 -6 l-4 -21h-7v-8h-4l-2 -12l-28 -48l-2 -10h-5l-2 -12l-22 -18l-23 -7l-12 15l-2 14l4 16l35 56l37 39l28 57l13 20l4 15l10 10l2 14l12 13l4 14l7 6l2 12l24 29l15 33l34 53l31 53l12 23l13 8l6 14l18 19l6 26l27 58l35 35l6 14l10 6l2 16l21 35v11l10 4v8l14 10v8l11 11l2 14 l12 12l6 25l14 8l5 14l18 23l29 49h24zM1638 979h19l10 -12l-8 -47l-10 -41l-9 -35l-24 -60l-10 -28l-4 -37l-21 -55l-8 -35l2 -31l-4 -31l-25 -61l-18 -64l-19 -61l-20 -62l-12 -8h-15l-6 17v14l12 31l11 61l22 62l6 30l15 33l8 64l8 14v8h4l8 57l6 5l9 43l8 14l6 49l18 47 l13 25v33l22 53l6 4v4zM494 449v-7l-7 -4l-22 4l-4 -4l-33 8l-70 3l-65 -9l-35 -8v-4h-10v-4h-8v-6l-15 -2l-14 -19l-14 -2l-23 -22l-2 -13l-10 -10l-12 -24v-9l-7 -6l-6 -65l-2 -6l-8 -7l-23 5l-8 24l-6 8v33l8 35l27 57l18 25l56 43l20 6l10 10l56 4h73l66 -6l22 -2 l29 -16l14 -4zM838 250l4 -2l2 -8l-10 -31l-13 -21l-6 -2l-16 -24l-29 -25l-8 -14l-6 -4l-4 -13l-23 -24l-18 -6l-9 -13l-12 -4l-20 -26l-15 -4l-22 -23l-29 -18l-18 4l-4 10l2 14l16 27h10l2 6l27 21l10 12l21 8l39 41l12 23l14 6l4 8l19 14l4 15l12 8l2 14l10 10l7 15 l20 16h8zM1745 1378h14l13 -14l-3 -31l-18 -57l-8 -6l-4 -13v-32l-17 -64l-16 -53v-8l-10 -13v-38l-6 -5l-2 -8l-33 -37l-6 -2l4 17l-4 33l12 63l14 64l11 43l10 26l6 35l20 49zM530 -14l5 -2l2 -19l-15 -18l-45 -23l-63 -14l-35 4l-14 8l12 12l14 7l12 12l52 12l34 21l27 4 zM346 -70v-4l-2 -12l-10 -8l-35 -4l-74 8l-12 6l-2 14l4 11l27 4l71 -4l31 -7zM1743 1487l2 4l20 -2l7 -14l2 -37l-7 -37l-8 -4l-6 2l-10 12l-6 33zM178 -63v-5l-16 -6l-35 19l12 10l13 2l18 -4l6 -6zM2032 1999l4 -4l-19 -27l-22 -22l-25 -7l-24 -22l-27 -39l-29 -16 l-20 -23l-6 -2l-33 -39l-12 -2l-11 -10l-28 -17l-49 -43l-11 -10l-28 -4v-4l-64 4l-33 -2l-32 6v27l4 6h67l64 8v4l8 2l10 13l13 6l24 26h8l47 37l13 2l43 51l10 15l45 31h10l19 24l6 14l24 25l11 2v4h10v4l8 2l12 -6z" />
<glyph unicode="&#xc2;" horiz-adv-x="1765" d="M1960 449l4 -3v-16l-14 -29l-37 -55l-33 -57l-39 -53l-37 -33l-2 -13l-10 -4v-8l-6 -4l-2 -10l-10 -4l-5 -15l-26 -16l-4 -8l-43 -31h-6l-13 -12l-57 -17l-21 -12l-71 -10l-33 -6h-35l-14 -4l-29 -27l-18 -53v-4h-4l-11 -41v-19l-4 -6v-35l-6 -6l-16 -63l-12 -33l-7 -29 v-18l-18 -70l-12 -14l-25 4l-6 12v33l8 35l25 53l6 64l14 30l8 31l2 41l7 4l18 59l23 64l14 27l12 8l64 -2l61 2l68 12l53 41l16 14l15 4l47 41l45 45v9l18 24l10 21l27 20v10l8 5v8l11 6v8l8 4l6 25l12 33h6l2 14l11 8l2 12l26 21l17 -2zM1501 1362l4 -2l2 -17l-18 -38 l-2 -15l-6 -4v-4l-15 -10l-6 -15l-22 -24l-2 -12l-11 -15l-8 -30l-22 -39l-45 -50l-9 -6l2 -10l-6 -27l-10 -10l-8 -22l-8 -4v-11l-8 -2l-5 -14l-12 -10l-12 -29l-35 -55l-33 -60l-16 -18l-4 -16l-39 -50l-19 -28l-4 -23l-30 -49l-4 -12l-9 -4l-4 -13l-12 -10l-8 -20l-6 -6 l-4 -21h-7v-8h-4l-2 -12l-28 -48l-2 -10h-5l-2 -12l-22 -18l-23 -7l-12 15l-2 14l4 16l35 56l37 39l28 57l13 20l4 15l10 10l2 14l12 13l4 14l7 6l2 12l24 29l15 33l34 53l31 53l12 23l13 8l6 14l18 19l6 26l27 58l35 35l6 14l10 6l2 16l21 35v11l10 4v8l14 10v8l11 11l2 14 l12 12l6 25l14 8l5 14l18 23l29 49h24zM1638 979h19l10 -12l-8 -47l-10 -41l-9 -35l-24 -60l-10 -28l-4 -37l-21 -55l-8 -35l2 -31l-4 -31l-25 -61l-18 -64l-19 -61l-20 -62l-12 -8h-15l-6 17v14l12 31l11 61l22 62l6 30l15 33l8 64l8 14v8h4l8 57l6 5l9 43l8 14l6 49l18 47 l13 25v33l22 53l6 4v4zM494 449v-7l-7 -4l-22 4l-4 -4l-33 8l-70 3l-65 -9l-35 -8v-4h-10v-4h-8v-6l-15 -2l-14 -19l-14 -2l-23 -22l-2 -13l-10 -10l-12 -24v-9l-7 -6l-6 -65l-2 -6l-8 -7l-23 5l-8 24l-6 8v33l8 35l27 57l18 25l56 43l20 6l10 10l56 4h73l66 -6l22 -2 l29 -16l14 -4zM838 250l4 -2l2 -8l-10 -31l-13 -21l-6 -2l-16 -24l-29 -25l-8 -14l-6 -4l-4 -13l-23 -24l-18 -6l-9 -13l-12 -4l-20 -26l-15 -4l-22 -23l-29 -18l-18 4l-4 10l2 14l16 27h10l2 6l27 21l10 12l21 8l39 41l12 23l14 6l4 8l19 14l4 15l12 8l2 14l10 10l7 15 l20 16h8zM1745 1378h14l13 -14l-3 -31l-18 -57l-8 -6l-4 -13v-32l-17 -64l-16 -53v-8l-10 -13v-38l-6 -5l-2 -8l-33 -37l-6 -2l4 17l-4 33l12 63l14 64l11 43l10 26l6 35l20 49zM530 -14l5 -2l2 -19l-15 -18l-45 -23l-63 -14l-35 4l-14 8l12 12l14 7l12 12l52 12l34 21l27 4 zM346 -70v-4l-2 -12l-10 -8l-35 -4l-74 8l-12 6l-2 14l4 11l27 4l71 -4l31 -7zM1743 1487l2 4l20 -2l7 -14l2 -37l-7 -37l-8 -4l-6 2l-10 12l-6 33zM178 -63v-5l-16 -6l-35 19l12 10l13 2l18 -4l6 -6zM1548 1745l-2 -4l-51 -18l-6 -8l-27 -4h-35l-32 10l-7 10l11 16l30 11 l29 2l29 8l28 18l4 6h9l20 25l12 4l27 25l57 28l37 33h11l18 -16l-8 -25l-56 -43l-51 -37zM1964 1729v-6l-31 -8l-63 4l-13 4v26l29 9h35l31 -7l10 -6zM1331 1735l2 6l6 -12l8 12l7 -10l-4 -14l-9 -4l-10 6v16z" />
<glyph unicode="&#xc3;" horiz-adv-x="1765" d="M1960 449l4 -3v-16l-14 -29l-37 -55l-33 -57l-39 -53l-37 -33l-2 -13l-10 -4v-8l-6 -4l-2 -10l-10 -4l-5 -15l-26 -16l-4 -8l-43 -31h-6l-13 -12l-57 -17l-21 -12l-71 -10l-33 -6h-35l-14 -4l-29 -27l-18 -53v-4h-4l-11 -41v-19l-4 -6v-35l-6 -6l-16 -63l-12 -33l-7 -29 v-18l-18 -70l-12 -14l-25 4l-6 12v33l8 35l25 53l6 64l14 30l8 31l2 41l7 4l18 59l23 64l14 27l12 8l64 -2l61 2l68 12l53 41l16 14l15 4l47 41l45 45v9l18 24l10 21l27 20v10l8 5v8l11 6v8l8 4l6 25l12 33h6l2 14l11 8l2 12l26 21l17 -2zM1501 1362l4 -2l2 -17l-18 -38 l-2 -15l-6 -4v-4l-15 -10l-6 -15l-22 -24l-2 -12l-11 -15l-8 -30l-22 -39l-45 -50l-9 -6l2 -10l-6 -27l-10 -10l-8 -22l-8 -4v-11l-8 -2l-5 -14l-12 -10l-12 -29l-35 -55l-33 -60l-16 -18l-4 -16l-39 -50l-19 -28l-4 -23l-30 -49l-4 -12l-9 -4l-4 -13l-12 -10l-8 -20l-6 -6 l-4 -21h-7v-8h-4l-2 -12l-28 -48l-2 -10h-5l-2 -12l-22 -18l-23 -7l-12 15l-2 14l4 16l35 56l37 39l28 57l13 20l4 15l10 10l2 14l12 13l4 14l7 6l2 12l24 29l15 33l34 53l31 53l12 23l13 8l6 14l18 19l6 26l27 58l35 35l6 14l10 6l2 16l21 35v11l10 4v8l14 10v8l11 11l2 14 l12 12l6 25l14 8l5 14l18 23l29 49h24zM1638 979h19l10 -12l-8 -47l-10 -41l-9 -35l-24 -60l-10 -28l-4 -37l-21 -55l-8 -35l2 -31l-4 -31l-25 -61l-18 -64l-19 -61l-20 -62l-12 -8h-15l-6 17v14l12 31l11 61l22 62l6 30l15 33l8 64l8 14v8h4l8 57l6 5l9 43l8 14l6 49l18 47 l13 25v33l22 53l6 4v4zM494 449v-7l-7 -4l-22 4l-4 -4l-33 8l-70 3l-65 -9l-35 -8v-4h-10v-4h-8v-6l-15 -2l-14 -19l-14 -2l-23 -22l-2 -13l-10 -10l-12 -24v-9l-7 -6l-6 -65l-2 -6l-8 -7l-23 5l-8 24l-6 8v33l8 35l27 57l18 25l56 43l20 6l10 10l56 4h73l66 -6l22 -2 l29 -16l14 -4zM838 250l4 -2l2 -8l-10 -31l-13 -21l-6 -2l-16 -24l-29 -25l-8 -14l-6 -4l-4 -13l-23 -24l-18 -6l-9 -13l-12 -4l-20 -26l-15 -4l-22 -23l-29 -18l-18 4l-4 10l2 14l16 27h10l2 6l27 21l10 12l21 8l39 41l12 23l14 6l4 8l19 14l4 15l12 8l2 14l10 10l7 15 l20 16h8zM1745 1378h14l13 -14l-3 -31l-18 -57l-8 -6l-4 -13v-32l-17 -64l-16 -53v-8l-10 -13v-38l-6 -5l-2 -8l-33 -37l-6 -2l4 17l-4 33l12 63l14 64l11 43l10 26l6 35l20 49zM530 -14l5 -2l2 -19l-15 -18l-45 -23l-63 -14l-35 4l-14 8l12 12l14 7l12 12l52 12l34 21l27 4 zM346 -70v-4l-2 -12l-10 -8l-35 -4l-74 8l-12 6l-2 14l4 11l27 4l71 -4l31 -7zM1743 1487l2 4l20 -2l7 -14l2 -37l-7 -37l-8 -4l-6 2l-10 12l-6 33zM178 -63v-5l-16 -6l-35 19l12 10l13 2l18 -4l6 -6zM1976 1860l4 -5l2 -16l-6 -12l-47 -49l-10 -15l-33 -24l-16 -2l-60 -25 l-51 -6l-26 16l-2 9l4 6l28 12l66 18l29 15l36 35l7 14l24 22l25 13zM1569 1804v-4l-8 -12l-15 -6l-43 -4l-4 -6h-14l-29 -15l-26 -8l-5 8l37 47l27 17l18 2l6 4l33 -4l21 -13z" />
<glyph unicode="&#xc4;" horiz-adv-x="1765" d="M1960 449l4 -3v-16l-14 -29l-37 -55l-33 -57l-39 -53l-37 -33l-2 -13l-10 -4v-8l-6 -4l-2 -10l-10 -4l-5 -15l-26 -16l-4 -8l-43 -31h-6l-13 -12l-57 -17l-21 -12l-71 -10l-33 -6h-35l-14 -4l-29 -27l-18 -53v-4h-4l-11 -41v-19l-4 -6v-35l-6 -6l-16 -63l-12 -33l-7 -29 v-18l-18 -70l-12 -14l-25 4l-6 12v33l8 35l25 53l6 64l14 30l8 31l2 41l7 4l18 59l23 64l14 27l12 8l64 -2l61 2l68 12l53 41l16 14l15 4l47 41l45 45v9l18 24l10 21l27 20v10l8 5v8l11 6v8l8 4l6 25l12 33h6l2 14l11 8l2 12l26 21l17 -2zM1501 1362l4 -2l2 -17l-18 -38 l-2 -15l-6 -4v-4l-15 -10l-6 -15l-22 -24l-2 -12l-11 -15l-8 -30l-22 -39l-45 -50l-9 -6l2 -10l-6 -27l-10 -10l-8 -22l-8 -4v-11l-8 -2l-5 -14l-12 -10l-12 -29l-35 -55l-33 -60l-16 -18l-4 -16l-39 -50l-19 -28l-4 -23l-30 -49l-4 -12l-9 -4l-4 -13l-12 -10l-8 -20l-6 -6 l-4 -21h-7v-8h-4l-2 -12l-28 -48l-2 -10h-5l-2 -12l-22 -18l-23 -7l-12 15l-2 14l4 16l35 56l37 39l28 57l13 20l4 15l10 10l2 14l12 13l4 14l7 6l2 12l24 29l15 33l34 53l31 53l12 23l13 8l6 14l18 19l6 26l27 58l35 35l6 14l10 6l2 16l21 35v11l10 4v8l14 10v8l11 11l2 14 l12 12l6 25l14 8l5 14l18 23l29 49h24zM1638 979h19l10 -12l-8 -47l-10 -41l-9 -35l-24 -60l-10 -28l-4 -37l-21 -55l-8 -35l2 -31l-4 -31l-25 -61l-18 -64l-19 -61l-20 -62l-12 -8h-15l-6 17v14l12 31l11 61l22 62l6 30l15 33l8 64l8 14v8h4l8 57l6 5l9 43l8 14l6 49l18 47 l13 25v33l22 53l6 4v4zM494 449v-7l-7 -4l-22 4l-4 -4l-33 8l-70 3l-65 -9l-35 -8v-4h-10v-4h-8v-6l-15 -2l-14 -19l-14 -2l-23 -22l-2 -13l-10 -10l-12 -24v-9l-7 -6l-6 -65l-2 -6l-8 -7l-23 5l-8 24l-6 8v33l8 35l27 57l18 25l56 43l20 6l10 10l56 4h73l66 -6l22 -2 l29 -16l14 -4zM838 250l4 -2l2 -8l-10 -31l-13 -21l-6 -2l-16 -24l-29 -25l-8 -14l-6 -4l-4 -13l-23 -24l-18 -6l-9 -13l-12 -4l-20 -26l-15 -4l-22 -23l-29 -18l-18 4l-4 10l2 14l16 27h10l2 6l27 21l10 12l21 8l39 41l12 23l14 6l4 8l19 14l4 15l12 8l2 14l10 10l7 15 l20 16h8zM1745 1378h14l13 -14l-3 -31l-18 -57l-8 -6l-4 -13v-32l-17 -64l-16 -53v-8l-10 -13v-38l-6 -5l-2 -8l-33 -37l-6 -2l4 17l-4 33l12 63l14 64l11 43l10 26l6 35l20 49zM530 -14l5 -2l2 -19l-15 -18l-45 -23l-63 -14l-35 4l-14 8l12 12l14 7l12 12l52 12l34 21l27 4 zM346 -70v-4l-2 -12l-10 -8l-35 -4l-74 8l-12 6l-2 14l4 11l27 4l71 -4l31 -7zM1743 1487l2 4l20 -2l7 -14l2 -37l-7 -37l-8 -4l-6 2l-10 12l-6 33zM178 -63v-5l-16 -6l-35 19l12 10l13 2l18 -4l6 -6zM1568 1892v4h19l8 -14v-33l-6 -17l6 -12l-4 -8v-33l-4 -14l-10 -4 l-9 -19l-12 -4l-6 -10l-12 -2l-13 -10l-57 -13l-18 5l-13 12v8l8 12l33 9l29 16l43 49l4 2l6 27l2 39zM1923 1830l6 5h16l12 -13v-28l-14 -25l-27 -27l-26 -18l-31 -2l-20 12l-2 8l8 15l26 18l7 8l16 9l22 24zM1814 1724v-4l-29 -15l-6 7l-4 12l6 16l4 2l17 -6z" />
<glyph unicode="&#xc5;" horiz-adv-x="1765" d="M1960 449l4 -3v-16l-14 -29l-37 -55l-33 -57l-39 -53l-37 -33l-2 -13l-10 -4v-8l-6 -4l-2 -10l-10 -4l-5 -15l-26 -16l-4 -8l-43 -31h-6l-13 -12l-57 -17l-21 -12l-71 -10l-33 -6h-35l-14 -4l-29 -27l-18 -53v-4h-4l-11 -41v-19l-4 -6v-35l-6 -6l-16 -63l-12 -33l-7 -29 v-18l-18 -70l-12 -14l-25 4l-6 12v33l8 35l25 53l6 64l14 30l8 31l2 41l7 4l18 59l23 64l14 27l12 8l64 -2l61 2l68 12l53 41l16 14l15 4l47 41l45 45v9l18 24l10 21l27 20v10l8 5v8l11 6v8l8 4l6 25l12 33h6l2 14l11 8l2 12l26 21l17 -2zM1501 1362l4 -2l2 -17l-18 -38 l-2 -15l-6 -4v-4l-15 -10l-6 -15l-22 -24l-2 -12l-11 -15l-8 -30l-22 -39l-45 -50l-9 -6l2 -10l-6 -27l-10 -10l-8 -22l-8 -4v-11l-8 -2l-5 -14l-12 -10l-12 -29l-35 -55l-33 -60l-16 -18l-4 -16l-39 -50l-19 -28l-4 -23l-30 -49l-4 -12l-9 -4l-4 -13l-12 -10l-8 -20l-6 -6 l-4 -21h-7v-8h-4l-2 -12l-28 -48l-2 -10h-5l-2 -12l-22 -18l-23 -7l-12 15l-2 14l4 16l35 56l37 39l28 57l13 20l4 15l10 10l2 14l12 13l4 14l7 6l2 12l24 29l15 33l34 53l31 53l12 23l13 8l6 14l18 19l6 26l27 58l35 35l6 14l10 6l2 16l21 35v11l10 4v8l14 10v8l11 11l2 14 l12 12l6 25l14 8l5 14l18 23l29 49h24zM1638 979h19l10 -12l-8 -47l-10 -41l-9 -35l-24 -60l-10 -28l-4 -37l-21 -55l-8 -35l2 -31l-4 -31l-25 -61l-18 -64l-19 -61l-20 -62l-12 -8h-15l-6 17v14l12 31l11 61l22 62l6 30l15 33l8 64l8 14v8h4l8 57l6 5l9 43l8 14l6 49l18 47 l13 25v33l22 53l6 4v4zM494 449v-7l-7 -4l-22 4l-4 -4l-33 8l-70 3l-65 -9l-35 -8v-4h-10v-4h-8v-6l-15 -2l-14 -19l-14 -2l-23 -22l-2 -13l-10 -10l-12 -24v-9l-7 -6l-6 -65l-2 -6l-8 -7l-23 5l-8 24l-6 8v33l8 35l27 57l18 25l56 43l20 6l10 10l56 4h73l66 -6l22 -2 l29 -16l14 -4zM838 250l4 -2l2 -8l-10 -31l-13 -21l-6 -2l-16 -24l-29 -25l-8 -14l-6 -4l-4 -13l-23 -24l-18 -6l-9 -13l-12 -4l-20 -26l-15 -4l-22 -23l-29 -18l-18 4l-4 10l2 14l16 27h10l2 6l27 21l10 12l21 8l39 41l12 23l14 6l4 8l19 14l4 15l12 8l2 14l10 10l7 15 l20 16h8zM1745 1378h14l13 -14l-3 -31l-18 -57l-8 -6l-4 -13v-32l-17 -64l-16 -53v-8l-10 -13v-38l-6 -5l-2 -8l-33 -37l-6 -2l4 17l-4 33l12 63l14 64l11 43l10 26l6 35l20 49zM530 -14l5 -2l2 -19l-15 -18l-45 -23l-63 -14l-35 4l-14 8l12 12l14 7l12 12l52 12l34 21l27 4 zM346 -70v-4l-2 -12l-10 -8l-35 -4l-74 8l-12 6l-2 14l4 11l27 4l71 -4l31 -7zM1743 1487l2 4l20 -2l7 -14l2 -37l-7 -37l-8 -4l-6 2l-10 12l-6 33zM178 -63v-5l-16 -6l-35 19l12 10l13 2l18 -4l6 -6zM1964 1901h10l8 -5l7 -14v-18l-21 -52l-26 -32l-3 -13l-16 -10l-18 -24 h-11l-10 -13l-18 -4l-27 -16l-63 -19l-31 7l-57 -11l-15 2l-10 11l-4 16l6 6l16 4l31 -6h23l32 10l31 4l27 13l10 10l16 6l11 12l28 19l35 35l2 12l17 27l12 32zM1747 2044v-4l-8 -15l-62 -24l-16 -14l-2 -35l-6 -6v-13h-4l-4 -22l-5 -4l-18 -2l-10 10l-6 14l4 35l18 33 l37 49l12 2v4h9v6l30 6l23 -8zM1954 2017l2 4l14 2l15 -26l2 -15h6l-6 -49h-17l-12 9l-6 28l-2 37z" />
<glyph unicode="&#xc6;" horiz-adv-x="2494" d="M1481 1372h4l16 -10l4 -14l-16 -52l-12 -8l-19 -26l-12 -11l-2 -14l-23 -45l-10 -12l-4 -17l-21 -28l-4 -15l-12 -12l-4 -12l-14 -15l-6 -16l-37 -51l-21 -27l-24 -59l-11 -13l-2 -8l-10 -12l-10 -29l-21 -28l-2 -9l-12 -10l-4 -14l-12 -8l-21 -45l-61 -115l-15 -19 l-2 -12l-43 -49l-22 -25l-8 -32l-19 -23l-35 -24l-8 6l2 18l39 49l10 29l4 33l37 41l6 20l11 13l2 16l14 27l12 12l15 28l14 19v10l37 47l31 49l2 15l12 12l2 16l29 31l2 14l24 43l9 3l10 20l6 4l24 47l19 43l22 27l13 22l10 4v11h4l2 14l21 27l6 14h4v10l10 10l2 11l6 2v8 l33 55l18 31zM2406 408v4h15l12 -29l2 -68l6 -63l-4 -31l-20 -63v-6l-7 -5l-2 -18l-12 -29l-12 -14l-12 -31l-7 -6l-2 -22l-24 -31l-4 -14l-33 -43l-47 -45l-6 -7l-15 -4l-20 -26l-35 -23l-33 -2l-28 -27l-13 -4l-10 -10h-8v-6l-23 -8l-34 -6l-19 2l-16 8v10l26 25l25 2 l16 12l60 16l14 7l47 45l15 18h10l22 23l13 2l22 26l16 27l11 4l6 16l12 13l27 57l4 8h4l25 51v23l4 6v16l10 27l6 66l4 59l8 61zM2757 1401l2 4h14l10 -10l4 -29l13 -29l4 -24l-11 -68l-4 -12l-10 -12l-2 -13l-8 -12l-21 -51l-26 -15l-4 -14l-39 -53l-49 -31l-39 -12 l-56 -27l-69 -10h-96l-7 4v19l29 8v6l66 6l63 12l21 4l10 9l22 6l107 73l8 5l25 55l24 37l2 14l10 10l11 58l4 34zM846 270l2 -2l4 -16l-29 -53l-8 -4l-14 -29l-45 -51l-21 -27l-49 -37l-49 -41l-10 -12l-21 -6l-12 -12l-23 -11l-6 -8h-8v-4h-10v-4h-8l-11 -8l-32 -6l-35 8 l-6 6l2 8l20 14l10 15l60 24l43 21l26 20l5 8h10l8 15h10l4 8l15 6l37 41l2 12l22 23l19 27l26 18l39 49l8 10zM1841 709v-4l-6 -15l-29 -12l-6 -6l-63 -6l-45 -27l-9 -10l-14 -4l-49 -43l-45 -43l-2 -11h-6v-10h-4v-8h-4l-15 -51l-4 -6l-8 -52l-6 -8l-2 -51l-11 -10h-10 l-14 10l-4 14l10 64l10 57l2 19l27 45v10l22 27l5 16l22 22l45 27l49 43l13 6l26 2l10 6l64 15zM1741 1497l2 4h16l6 -4l4 -14l-2 -17l7 -67l-11 -62l-14 -43v-28l-6 -6l-19 -60l-2 -47l-10 -31l-29 -51v-39l-8 -12l-14 -68l-6 -14l-10 -10l-9 -2l-16 10l-2 14l6 37l6 10 l6 33l6 2v10h5l8 33l6 4l4 47l21 60l8 28l-2 41l4 2l26 56l15 65l6 66zM342 475l2 -4l-2 -8l-27 -10h-28l-56 -37l-14 -6l-37 -29l-22 -21v-8h-4l-2 -12l-9 -12l-2 -52l-6 -14l-14 -8h-10l-11 10l-6 25l8 67l17 25l4 14l47 51l27 13l14 10l55 10l8 -2l19 12l18 3l17 -5z M1386 -33h5l6 -16l-4 -31l-17 -37l-2 -61l-16 -55h-4v-9h-4l-11 -57l-18 -53l-12 -10h-21l-8 14l2 29l25 65l6 31l12 28l6 29l2 37l6 39l4 4l3 14l12 29l10 14zM2415 1446l2 -4v-10l-19 -15l-63 -6l-33 -6l-43 -25l-35 -28l-31 -17l-10 -10l-8 -2l-23 12l-4 15l29 39l12 2v4 h9l2 6l49 24l4 7h10v4l61 12l66 8zM1960 -225l2 -4l-4 -13l-23 -14l-37 -2l-71 6h-66l-49 2l-14 6l-6 17l2 8l12 10h31l32 -8l66 -2h66l32 4zM399 -59l4 -2l-6 -15l-10 -10l-31 -10l-67 6l-74 2l-33 8l-18 10l-6 13v10l8 4l47 -4l4 -4l66 -6l63 2zM2208 770l4 -2l-4 -14 l-29 -37v-8l-10 -11l-15 -26l-36 -39l-23 -4l-12 14l6 25l43 51l10 12l6 31l27 24l10 2l17 -4zM2050 1126l16 19h15l16 -29l-6 -22v-66l2 -18l-4 -15l-14 -4l-7 6l-10 62zM2064 1696h4l-2 -6l9 -4l8 -68l-6 -37l-29 2l-10 31l-6 35l4 30l8 15zM481 453v-4l-6 -7l-12 -2 l-68 15l-6 4v18l29 4l24 -6l2 -4l17 -2l12 -6zM1950 692l2 2l24 -4l6 -6l3 -16l-15 -6h-18l-4 6zM2390 451l-2 12l8 8l19 -2l4 -8l-6 -15l-9 -2zM1866 707l4 6h12l6 -11v-8l-8 -8h-8l-6 10v11zM1630 -201l2 4h4l4 -6l-4 -12l-6 4v10z" />
<glyph unicode="&#xc7;" horiz-adv-x="1431" d="M1604 1458h8l12 -2l16 -53l-6 -23l13 -41l2 -24l6 -10l-2 -35l-6 -23l-2 -67l-13 -39l-22 -64l-11 -12l-22 -47l-25 -60l-32 -53l-45 -47l-41 -47l-39 -39l-9 -2l-14 -29l-43 -32h-10l-8 -15l-13 -2l-16 -16l-4 -10h-8l-10 -15h-15l-47 -28l-10 -11l-23 -8l-12 -12 l-51 -19l-55 -22l-33 -10h-15l-8 -4h-28l-5 -5h-14v-6l-65 -4h-9l-10 -6l-67 -2l-31 -10h-23l-28 -19l-13 -28l-4 -23l-6 -10l-12 -62l-6 -53h-4l-2 -30l6 -35l6 -11l-6 -16l-2 -24l-6 -7l-15 -2l-12 4l-8 15v35l12 36l-14 41l4 29l10 35l2 33l12 32l17 70l39 25l63 4l68 6 l63 14h23v4l32 6l5 5l63 16l61 27l60 26l14 4l10 11l13 2l10 10l59 31l41 28h9l16 19h8l37 51l49 47l45 49l10 8l2 13l25 24v10h6v9h4v10h4v8h7v10h4v8h4l6 23l12 10l29 47l2 23l18 61l6 64l13 63l2 64l4 16l-2 16l-6 7l-9 26l-2 27zM1612 432l4 -2l-8 -8l8 -8l-8 -31 l-15 -18l-2 -15l-37 -37l-2 -8l-18 -14l-25 -43l-22 -33v-6l-47 -47l-43 -49l-19 -29l-53 -43l-14 -6l-21 -23l-30 -16l-5 -6l-28 -17l-49 -45l-23 -16l-59 -29l-31 -8l-55 -25l-64 -16l-65 -12l-37 -10l-10 -13l-23 -8l-16 4l-9 19l13 20l12 4l12 12l56 5l63 20l47 10 l86 49l17 5l43 22l8 10l14 4l19 19l26 12l51 37l19 8l4 8l22 17l23 28l51 39l17 29l47 45l14 12l8 25l8 4l4 14l11 13l6 20l6 4l16 27l15 10l4 14l37 56l6 14l14 12h19zM1290 1425l2 -4l-2 -16l-59 -23l-23 -10l-12 -12l-27 -12l-47 -43l-43 -48l-51 -47l-14 -10l-10 -18h-5 l-14 -64l-10 -10l-4 -12l-31 -27h-14l-11 14v29h5l36 57l17 29l20 25l6 14l33 33l17 10l2 12l10 4v11l8 4v10l10 4l4 14l50 43l14 9l10 12l57 27l43 8l27 -6zM422 1356l2 -4l-2 -19l-8 -12l-27 -14l-39 -39l-4 -15l-10 -12l-27 -63l-24 -62l-17 -47l15 -53l-2 -45l-7 -4h-10 l-10 10l-10 31l2 61l-6 33v31l20 63l18 31v8l7 6l2 10l10 13l2 14l51 49l41 37h27zM887 -449l2 -2l-17 -28l-18 -23l-57 -41l-58 -26l-26 -6l-68 -5l-31 2l-41 13l-6 10l4 14l13 6l65 -4l62 13l90 45l49 41l6 8l18 -2zM889 1032h4l-6 -6l16 -6l4 -14l-8 -33l-22 -33l-11 -4 l-22 -62l-29 -55l-20 -59l-13 -8l-18 -2l-10 14l-2 14l8 21l12 12l2 8l8 4l11 31l10 37l14 29l23 20l10 14l4 39l12 27zM889 -336h18l-18 -6l29 -8l-3 -41l-18 -15l-14 9l-6 14v14zM649 -291l2 2h8l13 -22l-10 -11h-9l-6 15z" />
<glyph unicode="&#xc8;" horiz-adv-x="1277" d="M1190 465h4l8 -2l8 -12l2 -33l7 -4l4 -64l-4 -63v-68l-5 -29l-24 -63l-4 -25l-12 -8l-19 -61l-35 -56l-18 -22l-29 -25l-6 -14l-27 -22l-20 -25l-51 -33l-35 -16l-4 -8l-47 -15l-64 -24l-18 -13l-31 -4l-55 6l-2 17l10 10l63 8l62 23h8l51 39l15 8l14 2l8 12l27 15l45 45 l43 53l20 20l4 15l19 14l10 29l10 12l19 43l12 12l8 47l6 11l21 135l-12 59l-5 68zM1546 1358l6 6h23l4 -23l4 -4l2 -32l-14 -64l-23 -59l-20 -52l-25 -24l-8 -14l-51 -39l-45 -37l-33 -4l-29 -15l-28 -8l-66 -6l-63 -8l-62 8l-33 8l-20 17v10l6 6l31 2l63 -8h64l63 12l8 4 l25 -4l31 12l28 35l15 4l22 17l47 45l25 35l10 28l19 27l6 24l6 5v16l4 10l-4 25l4 6v14zM664 700l2 -4l-9 -14l-6 -4l-63 -4l-58 -6l-45 -29l-10 -2l-49 -39l-47 -49v-10h-6l-31 -60l-8 -14l-6 -4v-10l-4 -5l-11 -63l-4 -16l-6 -5v-32l-10 -21l-17 -6l-6 2l-6 12l4 70v33 l4 22l4 4l7 31l28 58l13 28l38 47l23 25l18 12l11 15l20 8l6 6l13 4l12 10l61 15l27 8l35 4l59 -4l12 -6zM1210 1438l2 -4v-11l-8 -10l-63 -4l-70 -14l-20 -9l-4 -8l-29 -18l-23 -23l-26 -16l-21 -2l-14 12v17l16 24l27 21l55 30l17 2l22 13l64 6l45 10l16 -2zM680 -231h4 l-2 -7l-29 -16l-24 -8l-37 -4l-39 6l-16 6l-50 2l-34 16l-11 15l-10 -2l-39 14l-2 14l15 7l18 -2l25 -17l61 -10l68 -6l67 -2zM987 764l4 -2l-2 -14l-8 -19l-41 -53l-16 -27l-11 -12l-22 -16l-21 -3l-10 23l4 14l8 2l5 13l12 8l10 20l8 4l35 56l21 22l10 -2l12 -8zM854 1692 l2 -2l4 -29l-4 -70l-2 -8l-20 -8l-9 4l-4 68l-2 30l6 15h29zM289 233l2 5l14 2l6 -15l6 -2v-8h7l6 -27v-26l-6 -6l-15 6l-18 26l-6 31zM844 1026l2 4l20 -2l8 -14l3 -25l-13 -10h-8l-12 10v37zM864 1128h6l9 -22l-2 -8l-9 -6l-24 2l-6 6l4 14l10 12z" />
<glyph unicode="&#xc9;" horiz-adv-x="1277" d="M1190 465h4l8 -2l8 -12l2 -33l7 -4l4 -64l-4 -63v-68l-5 -29l-24 -63l-4 -25l-12 -8l-19 -61l-35 -56l-18 -22l-29 -25l-6 -14l-27 -22l-20 -25l-51 -33l-35 -16l-4 -8l-47 -15l-64 -24l-18 -13l-31 -4l-55 6l-2 17l10 10l63 8l62 23h8l51 39l15 8l14 2l8 12l27 15l45 45 l43 53l20 20l4 15l19 14l10 29l10 12l19 43l12 12l8 47l6 11l21 135l-12 59l-5 68zM1546 1358l6 6h23l4 -23l4 -4l2 -32l-14 -64l-23 -59l-20 -52l-25 -24l-8 -14l-51 -39l-45 -37l-33 -4l-29 -15l-28 -8l-66 -6l-63 -8l-62 8l-33 8l-20 17v10l6 6l31 2l63 -8h64l63 12l8 4 l25 -4l31 12l28 35l15 4l22 17l47 45l25 35l10 28l19 27l6 24l6 5v16l4 10l-4 25l4 6v14zM664 700l2 -4l-9 -14l-6 -4l-63 -4l-58 -6l-45 -29l-10 -2l-49 -39l-47 -49v-10h-6l-31 -60l-8 -14l-6 -4v-10l-4 -5l-11 -63l-4 -16l-6 -5v-32l-10 -21l-17 -6l-6 2l-6 12l4 70v33 l4 22l4 4l7 31l28 58l13 28l38 47l23 25l18 12l11 15l20 8l6 6l13 4l12 10l61 15l27 8l35 4l59 -4l12 -6zM1210 1438l2 -4v-11l-8 -10l-63 -4l-70 -14l-20 -9l-4 -8l-29 -18l-23 -23l-26 -16l-21 -2l-14 12v17l16 24l27 21l55 30l17 2l22 13l64 6l45 10l16 -2zM680 -231h4 l-2 -7l-29 -16l-24 -8l-37 -4l-39 6l-16 6l-50 2l-34 16l-11 15l-10 -2l-39 14l-2 14l15 7l18 -2l25 -17l61 -10l68 -6l67 -2zM987 764l4 -2l-2 -14l-8 -19l-41 -53l-16 -27l-11 -12l-22 -16l-21 -3l-10 23l4 14l8 2l5 13l12 8l10 20l8 4l35 56l21 22l10 -2l12 -8zM854 1692 l2 -2l4 -29l-4 -70l-2 -8l-20 -8l-9 4l-4 68l-2 30l6 15h29zM289 233l2 5l14 2l6 -15l6 -2v-8h7l6 -27v-26l-6 -6l-15 6l-18 26l-6 31zM844 1026l2 4l20 -2l8 -14l3 -25l-13 -10h-8l-12 10v37zM864 1128h6l9 -22l-2 -8l-9 -6l-24 2l-6 6l4 14l10 12zM1729 2005l4 -4l-19 -27 l-22 -22l-25 -6l-25 -23l-26 -39l-29 -16l-20 -23l-6 -2l-33 -39l-12 -2l-11 -10l-28 -16l-50 -43l-10 -11l-28 -4v-4l-64 4l-33 -2l-32 6v27l4 6h67l64 8v4l8 2l10 13l12 6l25 27h8l47 36l13 2l43 52l10 14l45 31h10l19 24l6 15l24 24l11 2v4h10v4l8 2l12 -6z" />
</font>
</defs>
</svg>
