<?xml version="1.0" standalone="no"?>
<!DOCTYPE svg PUBLIC "-//W3C//DTD SVG 1.1//EN" "http://www.w3.org/Graphics/SVG/1.1/DTD/svg11.dtd" >
<svg xmlns="http://www.w3.org/2000/svg">
<metadata></metadata>
<defs>
<font id="thirsty_roughbold_shadow" horiz-adv-x="1476" >
<font-face units-per-em="2048" ascent="1638" descent="-410" />
<missing-glyph horiz-adv-x="512" />
<glyph unicode="&#xfb01;" d="M1024 1374h4l14 -6l9 -31v-32l-15 -66l-6 -65l-10 -37l-6 -4l-2 -15l-25 -61l-18 -68l-25 -57l-12 -47l-12 -25l-21 -24l-14 -33l-4 -23l-29 -55l-14 -39l-11 -10l-2 -12l-8 -2l-6 -21l-35 -55l-31 -58l-36 -55l-11 -22l-47 -43l-43 -39l-12 -4l-4 -7l-55 -24l-66 -21 l-16 -4l-13 -8h-14l-14 10l-2 17l8 10l14 6l51 8l21 15h8l14 10l19 4l4 10l24 10l25 25l12 4l23 27l16 28l17 13v8l37 33v8l22 51l10 6v8l35 43l25 62l16 28l10 15l21 53v8l10 15l2 14l10 8l4 14l11 11l2 14l8 16l2 19l10 29h4v10h6l19 59l22 62l21 61l20 66l6 24h5l6 23 l2 30l-4 64zM764 1350l29 -15l-2 -18l-17 -27l-18 -14l-21 -27l-12 -10l-25 -51l-4 -14l-22 -33v-8l-13 -11l-2 -12l-20 -27l-8 -26l-6 -39l-25 -51l-16 -60l-17 -20l-2 -13l-16 -20v-10h-6l-2 -31l-21 -57l-31 -54l-14 -53h-4l-12 -31l-6 -4l-11 -34l-10 -5v-8h-4l-4 -39 l-12 -12l-7 -24l-20 -15h-8l-8 6l-7 17l27 57l10 33l9 6v25l6 8l8 35l10 10v8h4v10h6v8h4l5 25l26 57l21 43l6 25l6 6l8 21l4 32l15 21l24 59l23 64l6 6v8l18 18l-2 9l23 61l26 51l15 31l34 51l7 6v11l36 34l17 7zM1688 442l4 -2l4 -8l-4 -16l-9 -13v-10l-24 -35l-2 -16 l-12 -8v-8l-13 -11v-8l-43 -43v-8l-8 -4l-4 -16l-10 -9v-8l-11 -4l-2 -16l-18 -27l-25 -27l-28 -20l-33 -41l-4 -14l-14 -9l-5 -10l-12 -2l-43 -49l-6 -6l-12 -2l-8 -12l-31 -9l-55 -34l-50 -19l-16 -8l-66 -6l-47 -10l-63 10h-6l-13 10l-12 23l33 4l33 -4l67 4l62 6l20 14 l15 4l12 12h8v5l33 10v4l33 22h8l20 23l25 16l49 49l37 29l16 27l45 51l41 51l29 39l2 12h6v11h4v8h4v10h4v8h6v10h5v9l10 6v8l18 27l23 26l14 13zM408 -74h14l6 -30l-6 -64l-6 -31l-4 -4l-13 -59l-2 -17l-16 -51l-16 -39l-3 -20l-8 -6l-2 -13h-6v-8h-4v-10h-4v-10l-10 -10 l-2 -11l-7 -2v-8h-4l-14 -37l-10 -6v-8l-41 -49l-41 -54l-10 -10h-11l-4 -8l-18 -4l-4 -6l-47 -29l-4 -6l-15 -6l-10 -10l-18 -2l-23 -9l-74 -4l-32 -4l-31 2l-12 6l-35 4l-15 7l-4 6v18l15 2l32 -10l50 -2l6 4l65 6l31 12l14 11l23 2l51 33l49 47l43 45l33 37l2 8l8 4 l17 45l10 10v14l14 19v8l21 16l4 15l16 26l-2 31l16 64l15 63l10 23v10h4l4 37h4v8zM1452 975h4l12 -17l-18 -61l-8 -31l-8 -14l-11 -39l-6 -6l-26 -59l-15 -29l-12 -10l-21 -39l-12 -68l-10 -12l-6 -21l-6 -4l-17 -63l-4 -4l-2 -17l-29 -57l-14 -53l-26 -52l-17 -16l-8 -27 v-38l-16 -62l-2 -18l-9 -15l-6 -4l-18 2l-8 13l14 65l6 35l29 57v47l6 13h4l2 16l16 27l17 61l10 41l16 16l2 17l17 22l12 33l4 33l15 12l2 17l16 16l8 27l17 30l10 33l12 12l4 29l10 16l2 25l23 49l6 6l6 31l8 25zM840 143l4 -4v-8l-21 -22l-26 -19l-31 -10l-16 -14h-9v-5 l-47 -30l-61 -8l-58 -15l-63 -10l-33 -2l-24 -14l-13 -13l-12 -26l-8 -2l-12 6l-9 12l-4 16l4 35l25 21l47 6l12 6h66l43 14l20 -2l43 15l5 6h6l6 6l12 2l59 33l56 35l22 6zM182 -31l2 -2l2 -35l-28 -57l-6 -22l-29 -58l-6 -6l-17 -43v-10h-4l-14 -51h-4v-9h-4v-10h-4v-8h-7 v-10h-4v-8l-16 -23l-10 -35l-10 -12l-7 -33l-6 -14l-6 -4l-18 4l-4 6l8 55l4 4l2 21l12 16v6l12 15l15 55l20 59l31 56l14 59l17 21l26 61l9 16h18zM1563 1331v4l22 -2l10 -14l4 -21h5l8 -30l-15 -72l-8 -22l-16 -25l-53 -39l-43 -27l-33 -4l-33 6l-10 11l-2 20l6 6h16l6 6 l33 2l35 17l12 14l23 13l2 12l12 12l15 62l8 47zM354 319l2 -4l-2 -20h-8l-22 -21l2 -4l-13 -12l-8 -18l-12 -11l-21 -2l-8 13v16l15 33l22 33h8v4h10v4l15 2zM217 57h4v-20l-6 -14l-20 -9l-11 15v28l15 9z" />
<glyph unicode="&#xfb02;" d="M1014 1425l2 5l14 -9l10 -18l7 -27l2 -69l-5 -64l-6 -12l-12 -51l-8 -35l-21 -62l-6 -6l-12 -47l-4 -4l-19 -63l-20 -48l-25 -59l-22 -53l-6 -17l-6 -6v-8l-19 -43l-12 -12l-6 -25l-37 -53l-15 -39l-6 -4l-2 -14l-10 -11v-8l-14 -10v-8l-15 -19l-10 -4l-12 -28l-33 -48 l-12 -8l-6 -14l-25 -23l-18 -24l-29 -10l-39 -25l-35 -16l-55 -13l-4 -6l-66 -4l-32 -6l-43 -23l-27 -36l-16 -9h-11l-8 15l12 41l17 26l28 17l66 12l14 6l31 -2l31 6l59 31l29 14h8v6h10v5l29 10l45 49l14 10v8l11 6v9l6 4l4 12l35 51l36 58l13 12l22 57l37 56l14 47l15 18 l6 25l12 12l8 45l9 10l22 62l19 24l12 35l2 29l14 26l4 21h4v8h7v10h4v8l6 11l8 69l12 31l11 25v65l8 66l2 22l-6 8h4zM840 145l4 -4v-8l-13 -24l-6 -5h-10v-4l-33 -20h-8l-53 -33l-68 -20l-65 -11l-64 -14l-57 -2l-23 -20l-10 -15v-61l-16 -62l4 -8l-8 -47l-11 -8l-2 -31 l-20 -65l-6 -15v-10h-4l-19 -61l-24 -50l-13 -28h-6v-8l-37 -54l-24 -22l-4 -13l-49 -47l-11 -14h-8l-8 -10l-16 -2l-2 -8l-15 -5l-14 -12l-15 -6l-10 -12h-8l-12 -8l-21 -5l-4 -6l-26 -4l-74 -2l-29 -2l-47 12l-6 23l31 8h22l41 -10l53 12l29 10l25 21l30 14l52 39l14 19 h10l23 24l26 21l29 53l33 45l18 53l21 55l6 7l24 59l23 41v49l10 33l8 131v4l27 21l31 12l65 6l15 4l2 4l32 4l4 4l99 19l53 26l10 13l17 4l4 8l20 6l17 12l30 9zM1595 1321l4 -2l5 -33l-9 -31l-12 -26l-18 -64l-33 -59l-16 -23l-3 -14l-10 -12l-12 -53l-6 -17l-6 -2v-10h-4 v-8l-13 -27l-2 -29h-4l-10 -24l-6 -6l-8 -25l-5 -29l-28 -57l-4 -16h-4v-11h-5v-8h-4l-18 -61l-10 -8v-11l-15 -8l-6 -20l-6 -6l-4 -13l-2 -33l-27 -45l-6 -8l-14 -57l-12 -19l-17 -55l-12 -20l-4 -21h-4l-23 -61l-16 -43l-19 -39l-2 -17h-16l-6 7l-8 36l6 5l4 32l14 27 l10 31l7 6l16 57l2 15l37 53l12 51l14 31l7 6l16 65l12 27l11 12l6 31l26 59l23 62l18 47l2 14l17 29l6 4l2 12l12 27l6 37l6 16l11 6v9l8 4v10l10 10l10 29l7 35l6 22l10 10l22 60l2 12l23 53l18 41l35 33zM1688 446l4 -4l2 -16l-11 -31l-10 -14v-8l-6 -6l-2 -13l-45 -51 l-16 -29l-25 -24l-6 -12l-10 -9l-2 -12l-19 -12l-16 -31l-10 -10l-3 -12l-22 -27l-16 -31l-48 -45h-8l-49 -37l-29 -22l-10 -17h-10l-4 -8h-10v-4h-9v-6h-10v-4h-8v-4h-10v-4l-23 -6l-4 -9l-63 -20l-60 -12l-30 4l-5 -4l-65 8l-14 8l-5 10l9 17l28 4l62 -6l67 14l47 18l19 4 l4 7l27 16l18 2l10 10v4l29 17l49 43l47 41l45 53l37 49l47 49l35 58l21 26l2 10l10 11v8l6 6l29 57l18 13h10zM788 1335l5 -2l-2 -16l-21 -27l-25 -20l-8 -21l-10 -4v-10l-25 -31l-24 -57l-8 -33l-13 -12l-14 -43l-10 -12l-4 -17l-29 -45l-4 -33l-6 -6l-25 -59l-24 -58 l-23 -65l-31 -59l-20 -60l-8 -16v-11h-4v-8l-11 -10l-26 -41v-35l-17 -26l-26 -9l-8 17l8 31l20 24l2 17l11 26v19l10 10l22 61l15 23l6 33l26 59l23 61l14 27l8 4v10l11 4l4 17l4 2l-2 47l8 31l16 22l15 39h6v10h4v9l29 51l12 37l8 12l6 20l13 13l6 24l28 29l7 16l16 17 l6 14l29 14l14 2zM217 63l4 -2l2 -16l-6 -10l-12 -39l-23 -62l-18 -43l-6 -6l-23 -53l-6 -35l-29 -59l-24 -60l-23 -61l-18 -63l-15 -29l-14 -14l-14 6l-10 12l-2 14l8 33l22 57l15 45l8 11l14 47l4 2l10 29l7 6l12 53l24 59l21 52l25 36l12 33l4 33l29 37h10zM1628 1386 l4 -2v-18l-8 -12l-25 -13l-4 19l7 29l6 4h10z" />
<glyph horiz-adv-x="0" />
<glyph horiz-adv-x="0" />
<glyph horiz-adv-x="682" />
<glyph unicode="&#xd;" horiz-adv-x="778" />
<glyph unicode=" "  horiz-adv-x="512" />
<glyph unicode="&#x09;" horiz-adv-x="512" />
<glyph unicode="&#xa0;" horiz-adv-x="512" />
<glyph unicode="!" horiz-adv-x="806" d="M1053 1395h14l8 -15l-4 -28h-4l-6 -33l-12 -31h-7l-8 -33l-14 -26l-19 -17v-8l-22 -18l-14 -19v-47l-29 -41l-2 -16l-12 -31l-7 -6l-4 -12l-12 -15l-18 -51h-4v-8h-5v-10h-6l-12 -41h-6v-10h-4l-25 -43l-2 -17l-6 -4l-8 -31l-17 -34l-8 -5v-10l-8 -4v-10l-10 -4v-10 l-8 -5l-11 -32l-14 -25l-8 -27h-4v-8h-6v-10l-9 -4v-8l-16 -23l-12 -35l-2 -22l-11 -8v-11l-6 -2l-20 -24l-4 -12l-21 -27l-24 -8l-9 2l-10 14l2 14l25 21l2 14h4v8h4v11h6v8h4v10l23 23v10h4v8l18 49l11 10l10 21l8 4v8l14 19l5 47l16 24l8 23l8 4l27 49l6 21l8 4v10l15 8 v10l16 19l12 63l33 52l8 6v8l27 57l20 27l6 33l21 51h4l10 33l11 14l8 22l6 5l2 14l41 55l6 4l10 41zM547 111l10 41h23l10 -25v-12h4l-4 -66l-31 -55l-2 -10l-29 -41h-8l-20 -23l-27 -6l-4 -4l-63 -12l-33 -2l-29 8l-25 16l5 8l14 9l65 8l29 2l29 16l22 21l31 36l6 15l8 4 v8l11 6l6 27zM539 424v-4l-7 -12l-12 -7h-16l-10 -4l-31 6l-6 7l-2 14l10 10l14 6h37z" />
<glyph unicode="&#x22;" horiz-adv-x="997" d="M930 805l-4 -2v-31l-37 -55l-6 -6l-6 -33l-13 -8l-2 -13l-39 -30l-51 4v-4l-4 6l-31 -12h-14l-12 12l4 16l14 6l10 -2l13 -10l22 6l43 41l19 29l8 20l12 9l10 22l49 47v8l5 2l-2 9l16 43l12 12l6 24l11 9l4 14l34 51l5 15l16 26l10 10v11l33 53l14 10l29 60l35 57l4 6v31 l-8 32l4 19l10 2l18 -10l15 -51l-6 -39l-11 -31l-12 -21v-8l-33 -55l-32 -45l-2 -10l-11 -11l-2 -14h-4l-10 -33l-12 -22l-7 -4l-10 -19l-12 -10v-8l-35 -56l-24 -38l-9 -2l-2 -13zM680 1319h4l14 -10l4 -31l-4 -35l-16 -59l-8 -15l-4 -22l-15 -27l-18 -20v-8l-37 -43v-9 l-10 -4l-2 -16l-15 -25l-8 -22l-24 -21v-10h-6v-8l-13 -14l-20 -60h-4v-10h-4v-8h-5l-28 -56l-15 -14l-16 -29l-6 -4v-10h-4v-8h-6l-2 -14l-9 -13l-2 -10l-8 -4l-4 -14l-20 -23l-27 -16l-43 -4l-16 8l-2 14l4 6l14 4l49 41l17 15v10l8 4l8 33l14 33l8 2l5 12l6 4l30 59 l23 25l16 27v10l19 12l10 33l33 55l12 31l14 16l2 13l13 10l35 51l28 57l6 25l4 72l11 12z" />
<glyph unicode="#" horiz-adv-x="1507" d="M1393 465h22l4 -6l-16 -62l-10 -30l-7 -5l-2 -14l-24 -26l-14 -31l-23 -29h-70l-63 -2l-62 -4l-26 2l-33 -25l-16 -47l-6 -6l-19 -55l-4 -16l-6 -7l-4 -12l-23 -24l-16 -31v-33l-31 -57l-2 -4l-12 -2l-10 -9l-15 -4l-28 6v15l8 12l6 2l29 27v10h4v8h4l4 19l6 4l6 12 l12 12v33l33 55l15 64l22 47l23 33l22 6l135 12l58 -6l30 8l35 21l8 47l6 6l3 16l10 11v8l8 14l10 4v10h4v9zM760 287l2 -6l-2 -11l-10 -8h-33l-19 4l-61 -10l-35 4l-22 -2l-45 -33l-21 -59l-29 -60l-24 -63l-17 -41l-10 -29l-8 -12l-35 -29h-10l-2 -6l-62 -6l-67 -4l-10 -4 l-2 6l-54 4l-12 8l-4 15l6 14l31 8h65l31 2l33 -4l26 8l31 25v8l10 10l5 15l30 51l4 16h6l9 47l6 5l2 32l6 15l10 8l2 16l15 21l2 18l20 23l10 2l7 6l63 6l68 -6l59 12l23 -2zM987 868l2 -4l-6 -14l-65 -12l-41 -9l-27 9l-37 4l-25 -19l-18 -24l-12 -31l-21 -29v-14l-6 -6 l-8 -27l-12 -18v-8h-4v-11h-7l-4 -28l-20 -60l-6 -24l-13 -23l-12 -10l-18 -2l-9 8l-6 14l2 15l17 26l10 11l14 59l21 47l2 14h4v9h4v10h6l17 63l8 35l16 17v8l23 24h10v6l27 7l36 2l66 -9l61 7l27 -7zM1468 868l2 -4l-2 -16l-10 -8l-63 -4l-35 4l-29 -2l-24 -21l-31 -59 l-2 -13l-6 -6l-21 -61l-12 -29l-10 -8v-8h-4v-10h-4v-9l-13 -10l-6 -33l-10 -20l-12 -4l-11 2l-8 14l8 23h4l5 43l6 4l8 22l10 4l2 13l6 6l11 33l4 32l32 54l4 2l3 18l14 35l39 25l30 2l66 -5h49zM965 1397h18l8 -15v-30l-22 -64l-23 -61l-20 -43l-2 -15h-4l-13 -30l-6 -6 v-9h-6v-10h-4v-8l-17 -10h-20l-4 8l2 31l16 26l15 47l18 37l10 12l2 15l11 10l4 33l6 28l6 7l2 16zM1499 1389h4l17 -17l4 -14l-4 -19l-29 -55l-6 -6l-19 -57l-10 -31l-22 -33l-7 -35l-22 -20l-12 -2l-11 14v25l19 14l2 8l8 4l10 62l11 22l6 4l22 60l13 53l8 12zM231 289 l2 -4v-15l-8 -10l-14 -4l-35 6l-63 -6l-39 -2l-31 6l-8 10l-2 23l6 4l18 2l4 4l33 -10h33l12 -4l31 8l49 2zM1593 967l2 4l15 -4l4 -19l-6 -28l-19 -54l-26 -20h-9v-4l-24 -4l-21 2l-16 6l-8 8l6 16l16 2l11 7l14 2l16 8l21 26zM453 860l-2 -6l-62 -10l-35 -8h-28l-4 6 l-17 2l-8 16l6 12l12 7l33 -5l60 7h32l11 -11zM813 -49v-4l-2 -17l-10 -6l-35 -2l-4 6v27l24 6l19 -4zM1642 1044h5l10 -8l-6 -14l-23 -10l-4 8l6 20z" />
<glyph unicode="$" horiz-adv-x="1011" d="M889 434h14l15 -22l2 -19l-7 -33l-6 -14l-2 -33l-8 -28l-4 -2l-8 -43h-4l-11 -33l-28 -43l-19 -25l-47 -49l-49 -29l-4 -6l-12 -2l-4 -6l-15 -8h-8l-8 -12h-8v-4l-29 -9l-14 -8l-17 -2l-10 -6l-29 10l-16 -10l-35 -8l-61 -4l-31 -9l-27 -22l-22 -57l-6 -15l-11 -10v-8 l-16 -27l-27 -20l-30 -8l-25 4l-22 -7l-15 7v18l6 8l52 6l20 21l33 53l18 57l56 37l28 15l31 -6l33 4l57 -4l53 34l64 21l49 35l8 14l49 45l19 16v11h4l29 59l14 29l4 18l10 8l2 29l15 66zM1102 1190h10l8 -2l10 -12l13 -52l4 -75l-4 -76l-13 -55l-24 -62l-8 -16l-23 -21 h-33l-22 8l-19 2l-51 -6l-12 6l-6 23l4 8h68l28 4l25 17l18 28l6 19l9 8l6 33v35l12 28v68l-8 63l-2 15zM815 1116h23l6 -8l4 -33l-4 -22l-17 -31l-2 -12l-16 -23l-6 -22l-6 -7l-13 -30l-6 -6v-11h-4l-6 -34l-18 -43l-11 -15l-12 -28l-12 -9h-6l-9 15v16l19 39l2 33l22 61 l7 23l10 8l12 47l23 53l12 29zM565 481h19l6 -32l-23 -60l-2 -10l-10 -8l-14 -64l-25 -37l-16 -8h-15l-8 21l4 22l15 19v8h4l2 12l16 31v8l14 29l9 37h6zM664 1128l4 -2l-2 -8l-9 -6v-6l-10 -14l-43 -39l-16 -29v-8l-4 -2v-35l-6 -23l-15 -8l-18 35l-2 35l4 16l10 19l12 12 l9 27l18 30l10 11l35 2zM367 528h4l8 -28l-25 -62l-12 -63l-10 -29l-10 -12l-15 -4l-6 10l2 18l-8 2l6 25l4 55l6 9l6 32l15 29l10 12zM977 1419l-4 -2l-19 -39l-22 -2l-4 6l14 64l25 63l8 13l16 12l21 -10l6 -13v-24l-12 -31zM885 838v-15l-8 -4h-19l-20 10l2 19l12 8 l14 -2z" />
<glyph unicode="%" horiz-adv-x="1472" d="M1264 942l2 4h14l6 -20l-8 -31l-41 -45l-8 -12l-27 -19l-10 -12v-8l-29 -37l-8 -14l-2 -13l-49 -47l-19 -29l-49 -47l-26 -26l-4 -15l-9 -4l-12 -24l-49 -45l-4 -15l-35 -53l-47 -47l-25 -31l-2 -8l-12 -10l-2 -8l-12 -11l-17 -26l-43 -33l-32 -55l-29 -33l-4 -14 l-47 -48l-43 -49l-19 -24l-43 -41l-10 -10l-4 -13l-25 -24l-14 -4l-8 -11l-17 2l-2 -6l-65 4h-15l-14 7l-14 -7l-8 2l-5 7v18l5 6l32 -4l33 4l8 4l6 -4l35 6l23 13l41 53l4 8l8 4l4 14l6 2l39 52l47 47l19 24l24 23v10l6 2l9 17l43 49l37 49l32 41l15 10l8 16l10 11l2 8 l25 18l4 15l49 41l25 28l2 15l81 98l27 31v10l21 14v8l43 52l43 49l90 94l18 27zM750 924l2 4l14 -6l2 -9l10 -8l4 -55l9 -12l2 -17l-7 -30l-2 -58l-20 -47v-12l-19 -25v-8l-8 -4l-4 -21h-4l-20 -28l-54 -33l-6 -6l-12 -2l-51 -37l-29 -10l-25 -2v-4l-28 -2l-21 -7l-16 7 h-51l-13 6l-6 12l4 10l13 6l39 2l6 -4l33 4l63 19l43 12l20 14l25 27l14 8l11 15h8l22 24l17 31l18 18l8 29l4 4l5 59v68l-5 62zM1497 322v4h14l9 -7l14 -63l-4 -47l-4 -8v-47l-6 -4l-2 -17l-17 -35l-8 -4l-23 -45l-38 -45l-56 -37l-55 -20l-35 -2l-2 -4l-35 -9l-18 5l-4 4 l-2 16l8 10l35 4l28 9l27 18l16 6l37 29l15 4l39 49l20 14l4 13l10 12l17 61l10 62l2 67zM479 922l2 -2l-2 -11l-28 -14l-45 -41l-17 -23l-4 -32l-6 -13l-19 -2l-10 11l-2 18h-6l6 55l17 25l24 27l45 12l15 2l26 -6zM1425 1085l2 -4l-12 -22l-45 -45l-6 -13h-4l-2 -8 l-35 -35l-16 -6l-4 -6h-9l-4 6l4 35l39 49l15 21l26 20l21 23l18 -2zM1223 362l2 -4l-2 -18l-4 -6l-31 -8l-25 -19l-35 -35l-10 -18l-18 6l-6 23h4l10 39l14 8l4 14l19 18h10v5h8v4l17 4l26 -2zM1184 -47l2 -4v-8l-6 -7l-13 -4l-16 4l-6 15l4 8l14 6l17 -4z" />
<glyph unicode="&#x26;" horiz-adv-x="1474" d="M1565 756h14l12 -21v-16l-12 -33l-10 -10l-10 -31l-27 -20l-23 -25l-32 -27l-31 -8l-57 -24l-37 -9l-60 -20l-61 -12l-14 -11v-63l-17 -45l-2 -29h-4l-18 -61l-7 -4l-4 -19h-4v-10h-4l-10 -29l-19 -26l-10 -8l-12 -39l-8 -2l-4 -13l-13 -8v-8l-47 -43l-24 -35l-13 -4 l-30 -27l-6 -2l-9 -10h-10l-8 -10l-14 -4l-9 -10l-16 -3l-55 -34l-23 -9l-8 -10l-64 -14l-67 -4l-4 -4l-127 -8l-64 16h-22v6h-19v4l-34 6l-46 29v6h33l62 -12l51 -6l4 -4l63 -5l35 5l33 -5l62 9l63 18l61 23l27 18l31 10l10 13l8 2l43 45l29 16l47 47l25 21l14 39l10 8 l41 51l4 22h6v11h4v8l23 43v41l6 4l8 39l13 51l6 45l26 21l29 2l6 6l64 10l16 4l14 10l13 2l59 25l21 10l16 17h10l8 12l15 6l10 14l27 19l10 14l4 15l12 8zM641 713v-15l-2 -8l-10 -6l-51 6l-54 -10l-45 -12v-6h-10v-5h-8v-4h-10l-23 -24l-33 -23l-4 -14l-10 -6l-8 -27 l-11 -8l-18 -51l-8 -37v-62l2 -8l-4 -18l-8 -10h-11l-10 6l-10 30l-2 33l8 66l4 30l25 58l6 4l4 24l12 9l17 22l30 25l17 20l16 6l10 11l60 12l69 12l29 -2l10 -6l17 -2zM1337 1223h9l14 -4l6 -11l8 -45l-8 -63l-10 -31l-2 -18l-13 -31h-4v-10h-4v-9l-33 -49l-26 -24l-8 -13 l-13 -2l-4 -10h-10l-4 -8l-14 -4l-15 -10l-55 -25l-33 -8h-18l-15 6l-8 12l6 17l58 18l30 8l25 21l12 4l39 33l39 53v8l19 14l6 21l8 10v17l6 20v76l4 26zM989 1298v-6l-8 -14l-31 -2l-32 -10l-56 -29l-20 -27l-15 -10l-28 -57l-15 -47l-4 -72l8 -33l-8 -18l-14 4l-10 12 l-8 66v65l16 66l2 10l25 37l18 12l14 2l8 15l48 41l63 14l33 -2l12 -8zM637 324v4l29 10l22 -6l29 14l20 23l27 63l45 35l29 16l4 6h8l10 11l23 4l18 -17l-6 -22l-55 -25l-27 -22l-27 -53l-20 -31l-27 -29l-24 -4v-6l-31 -2l-33 4l-12 6zM864 836l4 -2l-4 -33l-4 -8l-8 -5 l-4 -12l-14 -12l-7 -14l-24 -21l-31 -39v-14l-33 -23l-14 9l-4 14l4 14l10 8l4 15l19 14l2 12l6 4l6 15l23 24l18 29l33 33zM1550 911v2h15l12 -26l12 -58l2 -16l-4 -12l-16 2l-10 8l-15 53v35zM1038 883l2 -2l-2 -21l-8 -4h-16l-8 4l-2 21l6 4z" />
<glyph unicode="'" horiz-adv-x="518" d="M625 1147l2 4l10 -10l4 -19l-6 -28l-35 -58l-14 -18l-4 -17l-17 -26l-20 -23l-31 -55l-4 -18l-27 -39l-16 -27l-2 -10l-8 -2l-4 -13l-15 -16l-2 -10l-8 -2l-22 -23l-7 -55l-12 -8l-20 -29h-9v-4h-10v-4h-8v-4l-59 -10h-27l-12 10l2 18l18 13l31 4l37 22l45 47l10 6l6 25 l15 31l24 41l8 8l2 16h6v8h5l6 29l8 4v10h4v9l39 53l12 10l10 27l11 12l6 23l41 51l16 28zM670 1323l4 4l14 -6l17 -31v-12l-11 -39l-2 -37l-10 -22l-23 -15h-10l-14 27l24 59l7 66z" />
<glyph unicode="(" horiz-adv-x="880" d="M690 903l-4 -2l-2 -33l-20 -45v-8l-15 -10l-2 -12l-12 -11l-6 -18v-33l-17 -61l-14 -25l-8 -22l-17 -29l-12 -12l-14 -41l6 -11l-18 -55l-13 -12l-6 -25l-12 -12l-2 -25l-10 -10l-23 -63l-23 -62l-10 -8v-14l-20 -51l-21 -48l-10 -8l-18 -61l-15 -31v-10h-4l-6 -62 l-12 -20h-19l-8 10v35l12 55v23l19 43l14 45l10 10l25 64l27 63l16 29l18 61l11 33l24 59l15 29l4 16l16 27l6 18l10 13l2 30l25 52l21 59v8l10 13l4 12l20 22l6 31l-2 10l27 58l10 30l13 19l20 57l19 55l10 13l18 10l12 -8l9 -13l2 -16l-19 -24v-9h-4l-10 -37h-4v-10 l-10 -12l-4 -14l-11 -9zM1104 1470l4 -2v-14l-12 -10v-8l-31 -13h-8l-53 -41l-46 -47l-8 -10l-26 -10l-21 -23l-39 -53l-20 -22l-2 -15l-41 -51l-6 -6l-4 -12l-7 -5l-2 -8l-12 -12l-18 -6l-7 16v17l13 30l4 2l2 15l39 49l4 14l14 10l35 58l49 43l23 12l22 27l13 2l26 20 l15 6l30 31l49 21h17zM381 -207l16 -14l4 -8l-20 -33l-12 -2l-4 -6h-17l-41 -29l-14 -23l-8 -2l-4 -6l-21 -6l-43 -35l-14 -4l-10 -12l-19 4l-16 18l6 17l20 22l56 39l26 17l19 16l59 33l18 12z" />
<glyph unicode=")" horiz-adv-x="880" d="M1118 1503l-2 4h14l21 -26l2 -25l8 -14l4 -64l-6 -65v-29l-6 -10l-4 -19l-8 -12l-2 -10l-13 -12l2 -27l-18 -41l-16 -29l-21 -65l-4 -17l-8 -10l-8 -31l-17 -47l-20 -26v-6l-17 -31l-22 -60l-23 -61l-26 -59l-17 -37l-2 -33l-14 -20l-49 -119l-23 -58l-2 -8l-6 -4l-8 -33 l-4 -4l-6 -33l-13 -18l-24 -57v-8h-4v-11h-4l-21 -55l-10 -14l-2 -13h-6l-15 -53l-24 -55l-6 -23l-11 -4l-2 -12l-43 -39v-14l-10 -19l-8 -33l-8 -2l-4 -12l-7 -4v-8l-18 -12l-43 -50l-14 -12l-8 -2l-50 -45l-20 -23l-51 -36l-37 -33h-10l-9 -10l-12 -2l-29 -33l-10 -2 l-4 -10l-14 -3l-21 -10l-16 8l-6 11v10l33 35h10v6h8v4l25 8l30 35l29 12l22 25l11 4v8l49 41l12 4l27 21l43 47l6 6l2 10l12 10l27 33l2 14l37 41l2 13l10 10l25 51v6l12 11l2 12h6v8h4l8 39l7 4l10 31l18 41l10 14l11 49l8 10l6 21h6v10h4l6 29l13 22v9l6 4l2 10h6l16 61 l25 60l18 24l19 56l16 57l6 6l4 25l11 22l12 8l18 37l3 29l12 24l16 62l10 31l13 12l14 51h4v10l33 41l12 29l2 33l23 45l14 47l10 14l11 25l10 14l10 64l16 65l2 33l-8 59z" />
<glyph unicode="*" horiz-adv-x="866" d="M936 1059h14l11 -15l4 -32l-4 -31l-15 -33l-43 -51h-8l-25 -16l-30 -9l-37 -2l-55 17l-21 14l-4 14l16 7l64 -13l33 4l12 11l24 8l21 22l25 54l4 36zM709 809h14l14 -29l2 -28l-6 -52l-14 -30l-23 -25l-53 -29l-29 -8h-28l-17 6l-8 11l2 16l12 8l50 10l4 11h10v4h10v4 l27 20l20 31l2 66h7zM451 877l2 -3v-24l-45 -45l-15 -10l-16 -21l-12 -2v-6h-9l-18 -12l-31 -9l-35 -4l-30 9l-6 6l-5 16l66 14l31 13l26 18l45 47l17 19zM745 1356h11l14 -6l14 -47l-4 -29l-14 -31l-10 -12l-2 -12l-17 -29l-24 -29l-25 -16h-12l-6 4l-4 14l14 31l35 53 l18 58zM709 915v-4l-4 -6l-35 -4l-17 4l2 21l13 10l14 2l16 -6z" />
<glyph unicode="+" horiz-adv-x="1228" d="M1133 627h18l6 -15l-2 -8l-14 -8l-6 -25l-11 -12l-8 -33l-8 -14l2 -16l-27 -54l-20 -26l-27 -25l-28 -8l-66 -6l-31 2l-30 8l-62 -8l-35 2l-30 -8l-25 -19l-18 -28l-19 -60l-10 -30l-23 -50v-4l-12 -12l-2 -14l-22 -33l-5 -39l-20 -25l-12 -2v-4l-64 2h-65l-33 -8l-64 4 l-8 15l8 12l64 12h65l66 8l35 19l10 28l4 41l10 15l21 57v4l10 8l4 15l10 8v14l15 49l10 11l2 10l25 22l14 9l63 6h15l14 6l23 -6l65 6l64 -4l16 -2l16 6h15l33 26v33l10 27l24 37l11 30l26 45zM944 969l6 -2l6 -6v-37h-4l-16 -58l-21 -63l-28 -55l-10 -27l-19 -31l-18 -6 l-13 8v33l9 29l8 12v6l6 4l6 33l25 55l18 62v4h6v8l27 29zM360 406l2 -5l-6 -12l-12 -8l-65 -8l-68 8h-47l-6 14l2 15l14 6l16 -2l5 6l30 -6l66 6h43l4 -6h14z" />
<glyph unicode="," horiz-adv-x="679" d="M563 160h15l14 -29v-29h-4v-12l-6 -6l6 -16v-37l-8 -31l-13 -20l-6 -33l-8 -10l-2 -15h-6l-10 -28l-35 -54l-11 -24l-8 -4l-18 -29l-23 -12l-4 -13l-16 -12v-10l-8 -4l-6 -15l-48 -43l-22 -26l-35 -25l-12 -4l-51 -47l-17 -6l-4 -10l-31 -11l-6 -6l-14 -2l-10 14l-9 5 l-2 10l21 24l51 33l23 21l8 2l49 41l31 37h8l12 10l8 14l13 2v6l12 2l25 23l18 35l10 10l2 8l13 10l6 15l20 22l21 39l12 12l18 45l11 11l12 39l4 63l2 55z" />
<glyph unicode="-" horiz-adv-x="1062" d="M969 598h4l6 -12l-23 -66l-8 -24l-2 -23l-24 -41l-27 -20h-33l-41 10l-2 22l6 5h21l6 -5l27 17l16 24l10 31l10 12l7 23l6 4l4 16l26 31zM512 438l2 -2v-14l-10 -10l-25 -6l-51 10l-2 14l4 14l33 7l35 -2zM748 444h4v-16l-9 -10l-30 -10h-23l-18 10l-4 16l8 8l14 7h39z M567 453l2 2l35 -4l19 -11l2 -18l-31 -6l-27 4v33z" />
<glyph unicode="." horiz-adv-x="679" d="M580 154h6l6 -13l-2 -16l6 -14l-10 -31v-55l-17 -27l-6 -2l-2 -12h-8l-49 -45l-12 -19l-13 -4v-4l-18 -4l-4 -6l-64 -2l-37 -4l-28 6v6l-15 6l2 16l13 11l47 -7l16 7l31 4l51 12l35 27l12 30l29 27l14 39l-10 47l4 14l10 11z" />
<glyph unicode="/" horiz-adv-x="944" d="M883 1159l8 -4l4 -31l-25 -61l-12 -43h-4l-10 -29l-10 -14l-5 -14l-20 -23l-12 -29l4 -32l-2 -17l-17 -43l-30 -55l-13 -31l-6 -6l-8 -33l-27 -55l-20 -55l-4 -4l-2 -15l-25 -65l-24 -60l-5 -18h-6v-10l-20 -35l-17 -39l-8 -4l-4 -19l-6 -6l-4 -30l-10 -33l-11 -15 l-2 -14l-10 -8l-18 -62l-4 -4l-2 -24l-13 -13l-16 -47l-4 -22l-25 -35l-6 -2l-12 -33l-4 -33l-25 -51l-14 -18l-4 -35l-25 -61l-10 -15l-4 -30l-12 -31l-11 -12l-28 -7l-66 -2l-20 13v16l10 6l33 2l34 17l17 20l24 61l13 35l16 27l4 14l10 11l19 59l10 27l16 20l15 66l10 36 h4v9l31 51l8 37l25 57l26 61l10 15l5 30l10 33l24 45v6l15 21l4 33l22 51l11 29l10 14v8l6 6l2 17l10 10l4 14l7 6l2 13h6l8 55l29 55l8 31l16 39l19 24l28 58l6 6l7 43l24 55l6 27l6 6l4 31l19 28v7zM1081 1616l4 -2l-4 -35l-26 -57v-15h-6l-7 -28l-12 -31l-33 -51l-2 -35 l-14 -45l-18 -31l-21 -61l-6 -6l-2 -13l-10 -6l-4 -14l-19 -8h-10l-8 16l-2 16l8 29l16 16v11l19 49l4 24l6 4l2 15l6 6l2 14l21 15l16 39l6 28l10 23v14l15 25l18 67l8 21l13 10l4 8l16 -2z" />
<glyph unicode="0" horiz-adv-x="1107" d="M1149 940h4l12 -18l-6 -31v-33l-14 -63l-4 -41h-4l-15 -31l-20 -25v-8h-4l6 -47h-4v-16l-13 -27l-2 -22h-4l-20 -60l-10 -33l-11 -18l-6 -4v-10l-10 -4v-11l-8 -4l-10 -26l-17 -29l-6 -33l-6 -4l-16 -27l-19 -18l-6 -21l-10 -12l2 -14l-37 -53l-39 -52l-12 -10l-41 -51 l-29 -18l-49 -41l-25 -25l-24 -16l-4 -9h-11l-4 -10l-12 -2l-4 -8l-12 -2l-4 -6l-23 -8v-5h-10v-6l-33 -8l-4 -6l-64 -12l-32 -8l-64 2l-31 -5l-59 11v4l-33 6l-10 12l2 10l10 11l31 -2l33 -9l67 7l68 4l45 12l6 6l15 4l6 6l61 19l25 14l26 23l15 6l51 41l18 10l6 14l15 11 l16 30l41 45l45 52l23 36l30 35l9 33l32 55l4 15l35 57l21 61l24 54l6 51l15 18l4 15l24 24l3 17l-5 6l13 39l2 32l16 56v57l6 4v21l11 14zM809 1219l2 -5v-8l-14 -20h-9v-4h-10v-6h-8v-5l-14 -2l-23 -22l-37 -29l-2 -12l-12 -8v-6l-43 -45l-2 -9l-12 -10l-9 -31l-4 -2v-8 h-6v-10h-4v-10h-4v-9l-29 -32v-8h-4l-30 -54l-13 -30l-16 -29l-21 -45l-4 -6l-2 -17l-26 -57l-23 -59l-20 -60l-7 -31l-24 -59l-8 -27l-15 -22l-18 -2l-8 16l2 31l20 61l17 58l6 2v8h4v10l4 2l6 39h4l21 64l22 49l19 59l28 55l27 56l6 4l4 12l6 4l17 31l18 25l6 14l39 53 l25 43l33 43l20 25l16 6l39 27l6 6h11l12 12h16zM1133 1157l8 14h16l8 -10l11 -67l-2 -68l-5 -14l-28 -2l-6 22l2 33l-7 33l5 10l-5 31zM354 367l2 -2l-10 -58l-4 -8l-4 -63l-6 -15h-17l-8 8l-6 68l2 33l16 45l27 -2z" />
<glyph unicode="1" horiz-adv-x="888" d="M1038 1384l4 2l17 -4l8 -8l2 -12l-22 -59l-19 -56l-10 -10l-6 -23l-15 -30l-6 -25l-12 -10l-8 -31l-10 -16l-3 -12l-4 -3l-18 -53l-23 -28l-8 -27v-18l-8 -15l-2 -33l-14 -26l-13 -31l-12 -12l-18 -64l-31 -55l-6 -6l-15 -41l-8 -31l-12 -18l-16 -68l-13 -26l-8 -33 l-29 -58l-10 -30l-24 -47l-4 -15l-11 -4v-8l-10 -14l-4 -33l-4 -6v-13l-19 -30l-12 -49h-4l-10 -27l-10 -4l-3 -12l-10 -15l-14 -57l-16 -62l-17 -24l-10 -31l-16 -26l-29 -19l-29 -4l-51 8l-61 -10h-68l-39 6l-12 6l-4 13l2 16l12 4h18l13 6l61 -8l33 2l10 6l31 -8l33 2 l28 18l23 25l26 53l15 45l24 62l17 45l6 4l14 35l8 4l23 41l6 4l6 61l23 52l31 55l10 28l6 37l29 56l20 63l10 29l11 14l8 23l8 4v33l22 55l29 59l8 29l8 12l17 39l29 55l8 15l2 16l12 25l12 51l11 14l2 15l10 12l12 49l27 59l22 64l13 33l14 22zM483 768l2 -2l-8 -31 l-51 -41l-2 -12l-18 -29l-44 -41l-51 -43l-18 -26l-12 -4l-39 -41l-25 -6l-10 12l-4 12l10 23l37 39l14 4l47 47l47 45l7 4l4 14l10 4l4 15l47 47l14 6l9 12l18 -2z" />
<glyph unicode="2" horiz-adv-x="1116" d="M1194 1188v4h14l4 -25h5v-8h6l8 -59l-6 -64l-17 -63l-6 -31l-8 -20l-6 -31l-43 -86l-35 -49l-27 -25l-12 -20l-2 -11l-41 -49l-12 -18l-51 -47l-45 -43l-7 -13l-12 -12h-8l-23 -24l-12 -5l-12 -12l-4 -10l-13 -2l-36 -31l-27 -22l-43 -25l-47 -45l-27 -20l-8 -3l-2 -6 l-53 -37l-15 -4l-4 -8l-22 -10l-10 -12l-27 -9l-10 3l-9 12l-6 2l4 24l17 17h8v6h10v4h8v4h11l2 6l16 8l10 13l13 2l10 12l10 2l39 31l14 6l47 39l50 41l26 16l49 47l50 39l26 21l45 45l33 24l27 48l2 8l6 4l4 12l14 10l4 13l21 18l35 51l6 4l8 25l10 10l8 23l7 2v10l12 12 l18 60l13 28l6 56l2 69l2 35zM797 1204l2 -4l-2 -12l-43 -8l-13 -11l-18 -8l-21 -22l-38 -29l-2 -12l-7 -2l-26 -35l-8 -23l-17 -22l-12 -33l-10 -16l2 -64l-21 -41l-31 -22l-63 -2l-61 -2l-35 -2l-66 6l-12 8v18l8 13l68 -2l65 2l66 4l14 6l14 14v15l5 4v12l20 65l2 25 l29 59l24 47l43 39l21 23l14 2l14 10l21 4h33l30 6zM569 -45l2 -6v-17l-4 -6l-65 -2l-64 -4l-65 4l-66 -4l-43 6l-61 -4l-72 -2l-31 -4l-6 4l-63 4l-33 -4l-33 4l-12 6l-2 19l12 10l66 8l61 -10l66 4l65 -2l64 -10l32 8h66l63 10l33 -6l66 -4zM911 203h19l6 -6l4 -15 l-20 -61l-19 -64l-2 -8l-12 -12l-4 -14l-6 -7l-19 -57l-20 -29h-11v-6l-26 -4h-37l-29 4l-61 -8l-64 8l-10 10v11l10 10l27 2v4h65l60 -6l14 4l23 23l14 8l2 12l16 25l27 61l25 64v10h4l10 28z" />
<glyph unicode="3" horiz-adv-x="1122" d="M997 510h23l4 -66l-4 -65l-14 -62l-13 -30l-4 -33l-20 -49l-21 -25l-6 -14l-12 -12l-2 -11l-13 -12l-4 -12l-24 -23l-6 -12l-50 -51l-32 -27l-39 -6l-49 -39l-21 -16l-14 -4l-12 -11l-64 -10l-63 -8l-31 -10l-35 -2l-14 4l-13 12l5 10l12 6l16 2l6 5h33l92 30l19 2l4 6 l33 5l14 6l12 12l23 8h20l39 31l8 18l101 101v8l37 51l12 33l16 29l10 26l7 35l24 49l-4 66zM1174 1243v4h14l14 -24l8 -31l7 -70l4 -32l-19 -48l-6 -63l-12 -18l-4 -19l-19 -24l-4 -13l-43 -51l-51 -45l-25 -18l-8 -3l-10 -12l-29 -14l-10 -12l-27 -7l-12 -10h-12l-31 -10 h-18l-15 14l11 23l63 24l57 29l39 27l19 28l26 23v8l23 23l8 20l8 2l4 12l13 9v8l6 4l2 10h6l8 29l15 31l2 55l-2 76l-3 63zM788 1212l5 -4v-14l-7 -6l-51 -21l-43 -28h-8l-6 -17l-12 -8l-2 -10l-11 -4l-8 -31l-6 -2l-25 -57l-12 -37l-24 -35l-58 -16h-26l-13 4l-6 -4l-12 6 l-29 6h-31l-65 -8l-14 2l-11 8l-2 18l13 15h69l66 4l67 -4l21 10l4 8l12 8l8 45l7 7l36 79l48 50l26 18l10 12l17 4l10 9h37zM391 475l2 -2l-12 -29l-6 -4l-13 -47h-4l-10 -61v-8l-8 -19l-2 -16l6 -33l-6 -25h-27l-10 29l4 68l-4 24l4 4v15l4 6l2 16l19 51l8 33l12 8l6 11 l21 -2zM424 -70l2 -4v-10l-8 -10l-31 -4l-31 6l-37 -4l-20 6l-2 24l6 5l66 -2l51 -3zM575 627h5v-25l-68 -6l-10 -2l-15 8l-6 14l13 19l32 4zM997 578l4 -3l-6 -10h-10l-6 4l6 11z" />
<glyph unicode="4" horiz-adv-x="1177" d="M1169 477h5v-16l-37 -55l-23 -25l-14 -6l-10 -13l-13 -2l-22 -22l-33 -12l-6 -7h-8l-27 -16l-29 -10h-73l-29 -6l-25 -21l-8 -12l-4 -33l-29 -55l-24 -51l-19 -37l-2 -37l-6 -4l-20 -43l-13 -37l-32 -31l-56 -2l-55 2l-63 -6l-35 -2l-35 4l-12 6l-4 15l8 14l55 8l70 2 l63 -12l27 4l22 21l17 26l26 66l17 30l12 13v14l25 61l14 46l16 26l4 14l43 41l66 17l59 16l29 10l35 21h16l29 16l43 45l20 25l31 25l8 -5zM1239 1376h14l7 -6l2 -16l-21 -64v-8l-18 -27l-23 -61l-22 -59l-23 -56l-4 -4l-2 -33l-16 -24v-6l-19 -29l-14 -47l-8 -14v-23 l-7 -4l-26 -57l-15 -31l-12 -12l-10 -64h-4l-19 -37l-20 -43l-14 -30l-19 -15h-12l-12 15v28l12 13l2 8l10 12l6 16l15 15l6 32l28 58l17 45l6 4l16 29v32l9 37l6 4l4 15l10 12l4 14l10 15l2 20l17 33l2 16l10 11l8 32l6 4v9l11 14l6 29l20 59l11 12l8 31l12 20l10 29l11 10 l4 15zM725 993l4 -2l-2 -16l-18 -27l-25 -24l-41 -52l-4 -4v-8l-47 -49l-49 -47l-17 -27l-47 -45l-41 -51l-20 -31h-8l-21 -16l-16 -6l-11 2l-6 6l-2 18l17 25l45 47l39 45l6 14l45 48l31 36l51 43l30 41l23 19l18 26l41 37zM463 311l2 -6l-6 -16l-13 -6l-67 2l-25 2l-6 -4 l-33 4l-32 -4l-64 4h-61l-68 -2h-41l-18 6l-2 20l4 6l61 5l66 -3l69 3l43 6l68 -13l66 4l49 3z" />
<glyph unicode="5" horiz-adv-x="1144" d="M1038 797l2 4h15l14 -31l16 -61l5 -11l4 -69l-2 -72l-21 -39l-2 -33l4 -32l-14 -64l-8 -29l-9 -10l-28 -61l-31 -62l-12 -10v-8l-13 -10l-28 -54l-41 -51l-25 -24l-26 -19l-43 -41l-58 -33l-10 -12l-29 -8l-28 -16l-23 -9l-6 -6l-31 -6v-4l-26 -4l-4 2l-62 -12l-61 -6 l-33 -5l-70 7l-8 2l-10 12l4 14l10 8l31 7l70 -4l38 2v4l66 8l41 10l29 8l57 33l31 14l55 39l23 25l49 41l45 47l4 2l2 8l22 21l2 14l11 8l2 15l10 14v8l18 14l2 13l11 12l18 59l23 62l16 55l6 19l15 18l8 63l-4 62l-4 65l-11 64zM1278 1262h22l7 -17l-2 -16l-33 -47 l-27 -23l-8 -12l-14 -6l-4 -8l-25 -13l-25 -20l-8 -2l-12 -11l-66 -12l-28 -12l-15 -2l-4 -4l-65 -4l-64 8l-63 2l-33 2l-33 -4l-14 2l-29 14l-51 -2l-39 -31l-2 -10l-10 -10l-23 -55l-14 -4l-10 -13l-8 -2l-7 8l-2 17l15 29l18 59l12 29l25 22l16 2l7 6l30 -4l39 -18l31 -2 l16 6l21 -6h65l64 -8l65 8l33 10l47 6l10 8h9l6 6l16 2l10 11l33 10l53 39l23 24l2 9zM684 793l4 -5l-2 -20l-53 -25l-31 -12l-43 -37l-6 -14l-45 -37l-6 -14l-10 -11l-13 -26l-14 -8l-27 -4l-12 12l-6 14l4 8l45 43l6 5l2 16l8 2l7 16l49 43l47 39l59 10l31 9zM397 457 l4 -2l-18 -52l-10 -10l-2 -31l-6 -20l-11 -2l-20 10l-2 31l6 37l12 26l19 23l10 2zM313 623v-7l-14 -6l-18 2l-33 15l-4 8l8 18l49 -10l10 -10zM334 266l2 2h14l10 -10l9 -41l-19 -10l-14 2l-8 33zM377 606v-4l-15 -6l-30 10l-4 15l24 6l23 -9z" />
<glyph unicode="6" horiz-adv-x="1124" d="M991 348h4l-4 -39l-12 -28l-37 -50l-4 -24l-12 -12l-4 -15l-11 -4l-6 -14l-18 -21l-2 -12l-13 -8l-2 -10l-36 -37l-5 -15l-43 -32l-10 -13l-16 -4l-51 -43l-13 -8l-12 -2v-4l-29 -4l-16 2l-31 -10l-28 -17l-31 -8l-19 2l-6 6l4 15l35 24h41l55 33l19 14l12 2l19 25l26 16 l51 43l45 33l33 55l31 43l14 11l17 45l10 8l4 14l33 47zM649 711l13 -13v-12l-9 -10l-12 -4l-37 2l-16 -4l-25 -15l-49 -47l-12 -12l-13 -2l-47 -45l-36 -31v-14l-11 -31v-33l-6 -6l-14 -49l-6 -6l-4 -17l4 -53l-9 -20l-10 -13l-8 -4l-10 2l-8 15l2 35l6 16l4 61l24 58 l-4 33l4 4l2 14l25 45l14 10v8l43 50l56 36l32 27l31 4l10 10l60 13zM836 1219l2 -5l-2 -18l-5 -6l-30 -10l-29 -17l-49 -39l-27 -20l-37 -51l-34 -58l-27 -57l-35 -53l-20 -23h-8l-13 8l-6 13l16 43l11 28l16 29l10 8v10l9 5v10l40 51l15 18v9l10 4v10l19 14l6 13l26 18 l51 47l11 8l49 17h16zM1165 1210l2 4l7 5l8 -5l16 -28l2 -64l8 -63l-2 -31l-16 -67l-6 -13l-31 -26l-63 -2l-39 8l-15 -6h-61l-51 8l-15 8l-2 8l6 12l37 7h66l65 -9l31 2l14 9l19 24l12 35l12 59l2 9l-4 6l-6 63zM434 -80v-18l-28 -2l-68 12l-29 8l-12 8l-2 15l14 6l19 -10 l67 -5l31 -4zM1014 715v4l14 -6l23 -60l2 -32l-4 -15l-9 -10l-12 -4l-10 2l-6 65l-2 50zM993 438l17 17l8 -4l14 -21l-20 -33l-13 -4l-10 13l-2 16zM1051 516v-20l-25 -11l-12 15h-4l2 18l12 19h8l12 -9z" />
<glyph unicode="7" horiz-adv-x="995" d="M1235 1274l6 -2l2 -8l-12 -33l-37 -51l-41 -54l-10 -22l-27 -19l-29 -26l-8 -33l-16 -31l-31 -39v-6l-12 -12l-6 -18l-13 -9l-6 -14l-10 -6v-8l-8 -15v-10l-47 -47l-19 -25l-37 -34l5 -31l-5 -14l-10 -9l-4 -16l-8 -4v-8l-14 -11v-8l-23 -24l-6 -13l-14 -10l-2 -14 l-17 -29l-4 -16l-10 -10l-4 -15l-8 -4v-10h-5v-8h-6l-2 -13l-35 -53l-14 -18v-8l-6 -5l-2 -10h-4v-10h-6l-2 -14l-21 -27l-22 -55l-29 -49l-33 -56l-6 -4l-2 -12h-6v-10l-10 -13l-2 -14l-7 -6l-12 -41l-6 -4l-4 -25l-8 -12l-8 -4l-21 -33l-10 -43h-4l-8 -14l-25 -15l-70 -12 l-41 4v4l-14 6l2 17l6 6l66 4l14 2l23 21l32 57l7 4l2 14l36 58l7 49l32 47v8l33 57l33 54l10 22l6 4l4 21l23 35l2 12l25 22v9l22 32l8 15l6 28h4v9l31 47l6 4v10h6v8h5l6 17l39 49v8l18 29l6 4l4 12l51 47l5 6l-5 33l39 51l35 54l35 38l4 17l14 18v8l48 45l6 5l6 26l20 25 l6 14l17 19l2 14l43 47l39 53l22 29l15 2zM807 1118l2 -4l-4 -16l-12 -6l-64 6l-65 4l-64 12l-33 -14l-8 -19l-12 -12l-12 -25l-13 -14l-4 -35l-12 -47l-10 -14l-4 -16l-35 -31l-4 -8h-11v-7h-8v-4l-61 -10l-64 6l-65 -6l-35 2l-21 10l-4 9l4 16l7 6l30 4l66 -6l31 -2l47 8 l22 -4l43 14l8 19l13 8l2 25l10 8v14l10 19l21 14l12 41l16 57l27 27l22 6l58 -6l4 -4h25l4 -6l55 -2l16 -7l31 2l31 -6zM283 -53l2 -2v-8l-9 -11l-30 -6l-76 2l-49 2l-10 6l-2 17l6 12l59 6l74 -4z" />
<glyph unicode="8" horiz-adv-x="1136" d="M1008 588l4 4l16 -4l12 -29l9 -61l-2 -70l-3 -47l-16 -57l-8 -15l-12 -61l-9 -15v-8l-6 -4l-26 -59l-4 -17l-21 -24l-6 -15l-53 -49l-41 -37l-13 -2l-12 -16h-6l-12 -14h-8l-11 -13l-51 -20l-4 -8l-61 -13l-48 -12l-30 -12l-33 4l-4 -6l-47 -2l-4 -4l-66 -4l-67 8h-33 l-64 12h-6v6l-35 6l-14 7l-8 12v12l14 8l27 -10l65 -8l66 -12l67 4l23 2l65 -8l31 10l25 14l33 8l49 6l4 5h24l17 14l14 4l35 35l8 2l19 18l8 2l10 13l22 8l21 18l37 53l29 35l12 11l2 12l16 10v10h4l9 33l6 4l4 33l22 41l11 65l8 43l-2 64l-9 29l-4 32l7 17zM1227 1180h22 l11 -29l-7 -68l-4 -55l-22 -33v-10h-6v-8h-4v-10h-5l-12 -47l-2 -9l-10 -4l-2 -16l-10 -8v-9l-25 -22l-18 -27l-48 -47l-28 -18l-17 -6l-14 2l-18 12l2 10l24 19l47 45l45 47l27 41l8 4l2 14l25 43l8 51l14 48l11 67v10zM549 618l8 -4l-4 -24l-53 -33l-51 -39l-23 -24 l-20 -15v-8l-9 -14l-6 -4l-6 -21l-18 -24l-13 -25l-10 -10l-8 -33v-64l-10 -30l-21 -4l-10 10l-8 31v36l14 56l10 33l23 36l6 23l25 25l34 45l25 18l10 14l15 6l26 25l64 14zM862 1217l2 -5l-10 -24l-59 -14l-25 -15l-51 -39l-8 -4l-21 -35l-2 -12h-4v-10h-6v-8h-4l-8 -25 l-4 -37l-7 -8v-33l-6 -16l-16 -2l-10 4l-5 63v17l5 4v33l20 47l6 14l29 35l49 47l12 10l4 8l64 17h41zM977 745l4 -2l-6 -16l-10 -10l-23 -4l-8 8l2 18l10 11l17 2z" />
<glyph unicode="9" horiz-adv-x="1079" d="M1141 1069l4 2h16l6 -4l7 -66l-5 -32l-8 -27l-2 -68l-12 -67l-8 -27l-11 -4l-12 -26l-2 -35l4 -10l-4 -15l-10 -10l-10 -59l-13 -37l-14 -19l-4 -14l-37 -55v-33l-4 -25l-21 -41v-8h-4v-10l-12 -12l-6 -15l-12 -12l-2 -12l-7 -4l-30 -58l-17 -30l-39 -50l-41 -51l-43 -49 l-49 -41l-24 -25l-15 -8l-4 -8l-28 -16l-19 -6l-2 -9l-12 -2l-8 -10l-15 -4l-12 -10l-33 -6l-28 -11h-11v-6h-8v-4h-10v-4l-66 -10l-63 -4h-14l-5 -4l-63 2l-33 10l-26 16l-7 13l5 4h32l60 -13h41l4 4h33l63 19l51 10l27 21l39 14l53 37l37 20l14 19h6l50 47l38 49l41 49 l27 21l2 14l31 33l2 14l12 21l12 12v8h5v10l12 10l12 48l16 16l5 14l12 9l2 12l6 6l4 18l10 15l9 4l4 14l6 6v31l6 6l2 14l10 13l2 22l15 31l6 31l8 12l6 27l10 18l11 66l2 16l6 4l10 66l12 63l8 33l-2 63l5 17zM774 1223l4 -9l-2 -16l-39 -24h-14l-4 -7l-14 -4l-27 -22 l-16 -27l-48 -45l-49 -51l-12 -23l-6 -41l-27 -47l-6 -22l-4 -4l-2 -19l-8 -12h-27l-6 14l2 33l20 57l11 35l35 49l8 15l12 10l2 12l8 4l4 15l11 10l6 14l16 8l45 43l49 39l21 13l41 8zM674 524h4v-16l-6 -14l-54 -25l-34 -8l-13 -8l-59 -19l-43 4l-12 13l-2 8l8 10l43 8 l29 12l67 17l57 26zM334 375h18l8 -21l-8 -30l-2 -50l-4 -12l-6 -6l-10 -25l-15 -2l-6 4l-2 17l-6 4v65h6l8 33zM485 772l2 -2l-2 -41l-26 -2l-8 29l2 16h32z" />
<glyph unicode=":" horiz-adv-x="718" d="M778 729v4h15l10 -6l16 -61l2 -33l-26 -62l-9 -26l-49 -41l-14 -6l-2 -9l-12 -2l-4 -10h-9l-6 -6l-61 -10l-68 4l-31 12l-6 21l35 4l31 -4l33 2l47 12l14 6l35 35l14 8l27 39l12 62l2 61zM557 168h23l10 -31l4 -31l-4 -32l-19 -60l-14 -32l-39 -43l-6 -7l-35 -4l-28 -10 l-31 -20h-35l-53 10v18l8 8l68 13l32 2l15 8l45 43l18 23l27 55l6 35l4 49z" />
<glyph unicode=";" horiz-adv-x="718" d="M555 174h10l10 2l13 -22l4 -68l-10 -66l-2 -59h-5l-20 -45l-16 -27l-2 -10h-5v-10l-18 -29l-12 -10l-10 -23l-29 -30l-6 -17l-29 -28l-4 -15l-25 -22l-41 -21l-51 -45l-49 -41l-18 -16h-9l-4 -8l-12 -2l-25 -21l-16 -2l-16 10l-8 15l2 8h6l6 14l53 41l37 29l14 4l47 45 l23 23l12 6l45 49l41 49l62 80l6 22l16 29l17 49l10 37l6 64l-2 49zM780 713l2 4h15l10 -6l10 -27l4 -37l-14 -65l-23 -47l-22 -19l-31 -16l-55 -37l-68 -4l-33 -6l-2 6l-14 4l-14 10l-2 16l22 11l33 -4l68 14l26 10l27 21l26 32l23 58l10 65z" />
<glyph unicode="&#x3c;" horiz-adv-x="1331" d="M1323 993h18l9 -10l2 -10l-11 -33l-18 -25l-18 -65l-2 -16l-43 -86l-17 -19l2 -10l-8 -10l-2 -11l-39 -30l-31 -13l-6 -6l-45 -12l-14 -10l-23 -4l-4 -5l-47 -6l-12 -10l-58 -18l-57 -25l-59 -24l-33 2l-31 -13l-26 -16l-64 -19l-65 -16l-7 -2l-20 8l4 25l10 8l64 16 l57 23l8 8h39l29 12l31 21l32 2l56 24l61 15l10 8l56 21l43 14l2 4l30 6l33 12l51 37l21 60l8 10l27 57l12 33l2 31h4l31 59zM1032 238l17 -9l-2 -32l-19 -29l-22 -62l-31 -59l-10 -22l-27 -5l-8 15l-2 16l16 31l17 55v8l8 2l6 17l10 10l6 23l13 14l4 18l12 4l2 5h10z" />
<glyph unicode="=" horiz-adv-x="1263" d="M1067 428l4 -2l-2 -31l-16 -45l-11 -8l-2 -25l-22 -49l-23 -57l-26 -25l-23 -6l-6 -6l-33 8l-30 2l-66 -4l-31 4l-65 -4l-33 2l-23 6l-6 7l-2 14l11 8l18 -2l27 4l65 -4h59l68 4l37 8l25 23l6 31l24 43l6 4l11 63l12 25l22 22l17 -4zM762 614l4 -8l-2 -14l-8 -10l-33 -7 l-68 3h-127l-67 -3h-64l-30 9l-33 2l-64 -15l-34 7l-7 6l-2 18l19 14l14 -2l29 7l63 -7l68 -2l65 4l31 5l33 -9l33 -2l61 6h66zM596 207l2 -4v-10l-8 -13l-12 -4l-68 4l-68 -6l-63 4l-17 10l-38 -4l-19 -8l-16 -2l-64 10l-16 4l-62 -10l-65 6l-8 15l8 14h59l68 6l31 -8l32 6 l64 -4l35 -2l14 6l31 -6h63l64 10h32l15 -6zM1229 825l4 -2l-19 -63l-10 -23l-2 -24l-8 -15l-6 -4l-25 -53l-14 -31l-19 -26l-26 -9l-31 -2l-57 9l-15 6l-4 6v16l7 4h20l6 7l49 2l15 6l24 28v9l10 12l21 67l6 5l23 51l10 10l8 16l6 2l4 9zM948 608l2 -2v-14l-10 -10l-70 -4 l-45 4l-10 14l4 12l12 6l72 2l35 -2zM967 612l2 2h4l6 -16l-4 -8l-6 -2l-4 6z" />
<glyph unicode="&#x3e;" horiz-adv-x="1320" d="M1186 600l4 -2l10 -14l-4 -33h-6l-14 -49l-7 -6l-8 -31l-14 -25l-8 -30l-25 -23l-12 -2v-6h-8l-11 -6l-69 -19l-60 -20l-18 -4l-4 -6l-51 -19l-62 -18h-14l-23 -8l-8 -11h-10v-4l-27 -14l-22 -6l-25 -13l-26 -6l-15 -8l-31 -4l-63 -23l-41 -10v-4l-45 -14l-31 -6l-22 -15 l-15 -4l-18 -12l-35 4l-29 -12l-28 -25l-62 -16l-16 -6l-6 -7h-19l-36 -12l-5 -6l-63 -6l-37 -14l-16 -2l2 18l26 14l15 19h8v4l57 22l13 6l63 7l61 26l15 11l31 6l63 22l31 12l43 13l30 6l58 31l51 10l4 4l33 4l59 23l29 10l12 12l15 2l20 12l31 7l6 6l59 14l19 8l33 2 l61 29l63 8l27 19l23 24l16 10v11h4v8l8 10l6 27l15 28l2 17l22 47l13 10z" />
<glyph unicode="?" horiz-adv-x="1038" d="M1155 1145h23l8 -10l-4 -56l-4 -8v-31l-7 -32l-24 -62l-19 -28l-6 -5v-10h-4l-12 -26l-45 -48l-43 -47l-23 -24l-49 -39l-49 -43l-53 -43l-49 -41l-21 -19v-6l-14 -12v-8l-23 -25l-8 -16l-20 -14v-11l-9 -4l-12 -28l-31 -37l-24 -6l-66 -3l-67 -4l-66 4l-8 13v10l8 12 l66 2l69 4l29 2l18 7l25 22l41 53l2 15l39 43l16 24l31 25h8l25 20l18 27l13 10l12 4l12 15l23 10l47 49l49 43l22 21l21 28l12 10l6 13l23 22l35 45l4 2v11h4l2 14l12 12v13l17 30l2 17l8 12l8 43l-2 16l-6 8zM743 1200h-6l-28 -10l-13 -8l-10 -2l-51 -47l-4 -7v-10l-10 -4 v-8h-5l-2 -12l-28 -52l-17 -59l-4 -23h-4l-20 -22l-52 -21l-61 -4l-35 7l-65 -7l-23 7l2 18l6 10l13 8l34 2l35 -6l70 2l29 -2l12 6l22 23l9 65l14 46l6 4l8 14v8l19 29v6l24 27l27 16l22 20l56 29l47 6l16 -6l8 -14l-4 -15l-18 -12zM561 176h23l8 -33l4 -65l-2 -33l-6 -4 l-13 -33h-4l-12 -20l-2 -13h-6l-21 -28l-24 -21l-23 -10l-37 -10l-32 -4l-17 2l-12 12l2 10l8 11l33 8l55 32l9 5l4 8l18 14l4 14l10 9l21 59l8 20l-6 23zM1135 1251l2 4h16l16 -22l5 -23l-7 -4l-26 -2l-11 31zM348 -74v-14l-8 -4l-33 4l-14 18v9l16 6l17 -2l18 -11z" />
<glyph unicode="@" horiz-adv-x="2144" d="M2007 760h12l11 -2l4 -6l4 -60l4 -63l-4 -68l-19 -61l-2 -66l-18 -45l-21 -63v-7l-34 -32l-11 -47l-55 -80l-20 -21l-5 -14l-10 -4l-4 -15l-22 -22l-27 -18l-16 -7l-37 -53l-56 -35l-26 -16l-10 -2l-5 -8h-10l-12 -13l-25 -6l-8 -10h-14l-29 -10l-63 -6l-19 -2l-6 -4h-33 l-14 4l-12 10v8l55 18l29 -2l59 17l37 18l20 17l60 28l37 29l18 4l8 10l29 8l35 54l37 35l2 10l10 4l2 16l18 25l2 10l27 29l6 18h4l11 12l8 3l22 32v31l6 33l17 39l20 65l2 8l13 13l8 43v37l10 32l-4 62l-2 67v9zM834 956l4 -2l6 -18l-39 -43l-17 -25l-26 -24l-17 -10 l-16 -27l-8 -4v-10h-4l-35 -54l-10 -24l-13 -10l-2 -11l-18 -18v-8l-8 -19l-6 -28l-15 -19v-8l-6 -6l-12 -45l-23 -33l-4 -12l-2 -60l-12 -30l-8 -62l-4 -70l-2 -63l12 -63v-62l-17 -4l-6 4l-14 45l-10 53l-6 66l-4 31l2 47l6 12l8 66l14 65l13 59l6 33l10 10l2 15l10 12 l10 23l5 24l10 8l2 15l31 53l32 55l29 47l45 52l23 24l14 10l4 15l43 33zM1630 862h19l8 -14v-17l-6 -16l-6 -4l-9 -31l-14 -20v-17l-16 -53l-7 -6l-2 -10l-16 -31l-6 -22l-23 -23l-2 -14l-12 -19l-4 -33l-21 -55l-12 -35l-33 -51l-22 -57l-4 -29l-10 -22l-5 -23l-20 -53 l-2 -17l-6 -12l-19 -2l-10 10l12 64l13 33l4 32l16 27l17 37l4 33l14 28l14 56l21 49l6 24l6 6l6 17l15 10l2 14l14 15l8 33l6 4l8 32l7 9l6 32l24 60l19 35v8l14 10zM1595 -313l2 -2l-4 -17l-24 -20l-45 -23l-17 -2l-22 -16l-25 -10l-6 -11h-8v-4h-10l-2 -6l-33 -4l-21 -8 h-14l-51 -19l-55 -14v-4l-31 -2l-49 -12l-93 6l-30 -6l-15 2l-10 16l10 14l15 2l22 -6l47 6l19 13l65 6l45 6v4l66 8h8l10 8l15 2l57 31l12 10l58 17l49 35l8 2l10 10l15 2l8 6l8 -2zM1186 723h14l6 -16l-2 -9l-10 -10l-31 -12l-45 -47l-33 -35l-2 -14l-22 -43l-10 -5v-8 l-19 -26l-22 -62l-11 -10l-8 -27l-22 -14h-11l-8 14l4 33l17 29l10 31l18 26l5 25l8 20l35 49l38 54l13 10h8l6 10h8l4 8l33 11l19 14h8zM1128 117l2 -2l-8 -27l-22 -27h-8l-37 -32l-31 -15l-23 -18l-26 -12l-6 -7l-58 -4l-37 -4l-16 2l-31 21l2 12l33 2l33 8l63 4l9 5l6 10 h8v4l12 2l6 10l11 2l6 6l12 4l47 35h8l19 25zM1102 1083v-4l-23 -22l-32 -6l-7 -7l-59 -24l-55 -37l-29 -14l-16 -2l-15 6l6 33l17 18l12 2l10 10l25 6v7l31 8l28 16l4 6h11v6h8v5h10v4h8v4h11v6l26 4l17 -6zM1403 1122v-4l-2 -8l-12 -8l-66 6l-63 -4l-66 -14l-35 -5l-8 2 l-8 25l6 10h8v4l53 15l70 6l68 -6h34l19 -11zM1006 -465v-4l-7 -12l-14 -4l-74 4h-8l-12 6l-2 24l18 7l37 -7h37l14 -4zM971 326l2 -2l-6 -52l-13 -18h-8l-12 10l-4 35l8 33l16 2zM768 -442v-4l-49 2l-43 22v14l16 7l53 -17v-4l19 -2zM1374 -72l2 -2v-10l-8 -10l-16 -4 l-31 10v18l12 9l17 2l20 -7zM2005 866h6l6 -14l2 -18l-14 -9h-8l-15 9l5 24l14 10zM1511 1085l-2 -6l-14 -2l-25 10l-2 7l9 12l16 2l14 -6zM788 -430l3 2h8l6 -6l2 -10l-6 -15h-10l-7 4l-2 15zM1966 936l4 4l12 -8l7 -23h-9l-8 21z" />
<glyph unicode="A" horiz-adv-x="1832" d="M2054 436l2 -2l-8 -31l-31 -51l-26 -35v-10l-31 -35l-2 -10l-8 -4v-8l-11 -6l-2 -13l-10 -4l-14 -26l-29 -19l-6 -14l-41 -49l-8 -13l-29 -20l-61 -20l-27 -19l-33 -16l-61 -8l-37 2l-22 6l-15 -4l-28 -23l-21 -39l-4 -31l-14 -6l-15 2l-6 15v35l12 40l9 5l4 14l10 8 l37 10l65 9l66 10l16 6h15l43 16l16 21l29 14l51 41l18 27l33 32l14 29l9 4v10h4v9h4l12 26l23 25l8 14l12 10l12 29l19 27l6 14l20 23h11zM1516 1270l2 -2l-5 -17l-40 -55l-11 -12l-6 -35l-12 -23l-33 -39l-8 -34l-43 -43l-10 -6v-33l-27 -47l-39 -58l-14 -35l-10 -14 l-5 -14l-34 -45v-8h-4l-37 -56l-25 -18l-18 -2l-4 8l8 49h4l10 12v11l6 2l35 47l4 12l6 4v8l11 4v11l8 4v10l37 51l26 60l6 12l45 45l9 12l-9 19l7 4l12 28l31 33v8l26 58l33 37l12 30l25 33h18zM1759 1010l4 -2v-45l-10 -21l-10 -65l-19 -62l-20 -61l-2 -15h-4l-12 -30 l-7 -7l-4 -67l-12 -62l-16 -63l-9 -33l-16 -41l-6 -30l-6 -9l-8 -32h-7l-2 -13l-6 -6v-37l-6 -14l-8 -8l-23 -2l-4 10l8 29l19 26v33l-4 23l4 4v16l4 12l6 4l8 47l11 9l10 57l18 66l12 30l3 33l10 29l6 63l22 53l15 64l20 57l11 31l-3 8l23 25zM831 193h23l6 -7l-10 -12 l-4 -22l-19 -15v-10l-47 -45l-12 -2l-33 -39l-10 -2l-49 -47l-43 -29l-39 -8l-27 -18l-16 -17l-12 -2v-4l-19 -4l-4 -6l-65 -8h-19l-14 -7l-60 -6l-51 8l-10 11l-2 8l8 14l16 6l66 -4h31l59 23l31 12l55 8l47 43l19 8l4 11l24 4l23 18h8l49 43l15 10l14 29l47 45zM567 434 v-6l-6 -12h-14l-66 20l-65 -2h-82v-6l-55 -18l-27 -19l-33 -33l-18 -45l-2 -34l-9 -11h-18l-10 13l-4 30l10 51l31 50l30 28l13 2v4l12 3l47 24l35 6l63 -4h68l61 -16l23 -17l14 -4zM1808 1483l2 4l17 -2l10 -10l4 -25h6l6 -31l7 -12v-66l-7 -65l-16 -41l-2 -14l-12 -13 l-8 -63l-5 -17h-4l-4 -16l-6 -6v-14l-6 -2l2 -19l-6 -2v-8l-6 -6h-17l-8 8l-4 14l4 37l8 25l6 6l3 12l6 4l4 66l20 61l6 6l4 13v34l7 33l-4 66l-11 37zM1413 -358l-16 -21h-19l-10 19l16 47l11 37l2 24l4 4v15l14 40h4l6 60l15 10l4 8h12l10 -12l4 -27l-16 -43l-4 -14 l-2 -47l-18 -49l-3 -17l-6 -6zM1114 657l4 5l10 -11l5 -30l-5 -35l-6 -4l-4 -13l-26 -22l-21 -25l-6 -14l-10 -8l-21 -2l-4 10v16l29 54l18 26l10 23zM217 -96l-2 -4l-33 10l-28 14l-9 13l5 10l16 4l33 -8l12 -11l8 -20zM881 279l2 2l26 -15v-18l-6 -15l-24 -14h-15l-4 14 l10 33z" />
<glyph unicode="B" horiz-adv-x="1773" d="M1384 1432l-2 -5l-2 -10l-8 -4l-63 8l-66 9l-31 2l-63 -13l-35 2l-35 -4l-43 -14v-4l-28 -8l-17 -13h-8l-8 -12l-14 -4l-11 -12l-26 -13l-54 -43l-16 -10l-6 -16l-39 -47l-25 -25l-18 -25l-21 -61l-20 -63v-52l-4 -4l-4 -26l-10 -7l-13 7l-12 26l6 70l14 61l21 62l6 6v10 l12 10l4 15l23 26l18 31l21 23l20 10v4l15 4l24 20l17 7l37 41h8l14 18l14 4l15 10l14 4l12 11l62 16l22 10h66l45 6l65 -2l66 -6l49 -16l12 -10v-4zM1741 360h4l14 -28l-8 -29l-8 -65l-10 -31l-11 -66l-6 -4l-10 -28l-20 -23v-8l-21 -25l-10 -28l-31 -52l-12 -12l-2 -8 l-37 -33l-2 -8l-12 -2l-23 -23l-27 -16l-65 -23l-6 -6l-62 -16l-63 -12h-33l-6 4l-2 10l6 12l29 13l6 6h14l4 6h15l6 4l32 -4l27 8v4h10l4 8l58 29l26 18l23 23l27 16l18 25l18 16l17 29l6 4l10 27l19 28v11h6v8h4v10h4v8l14 33l6 8l9 39h4l10 59l8 70l6 12zM1128 715l5 -2 l-3 -17l-38 -49l-11 -8l-2 -14l-14 -19l-6 -51l-25 -43l-12 -12l-12 -31l-6 -6l-19 -60l-12 -32l-27 -52l-28 -57l-17 -24l-16 -5l-6 3l-9 14l-2 18l13 23l10 8l2 12l6 4l25 54l10 30l8 13l16 59l19 43l12 12l6 21l25 33l20 57l29 61l16 11l11 12l8 2zM1815 1339l4 4l14 -4 l14 -16l13 -29l10 -55l2 -70l-4 -67l-6 -41l-7 -4l-10 -66l-20 -35l-17 -30l-39 -54l-14 -6l-10 -12l-14 -6h-15l-12 8l2 16l18 27l33 37l15 10l2 12l8 5l4 18l10 14l23 62l12 28l2 66l-4 31l4 32l-12 66l-6 14v17l4 4zM743 45l5 -4v-16l-21 -25l-29 -20l-20 -23l-41 -33 l-47 -8l-51 -39l-56 -14l-32 -10l-68 -7h-41l-18 9v26l65 8l17 5l12 8h37l55 18l35 6l39 25l10 2v4l49 31l2 10l14 10l17 21l12 2l10 10l29 8zM1339 1270l2 4h15l12 -27l8 -30l2 -35l-18 -25l-51 -35l-41 -53l-8 -25l-15 -16l-16 -29l-8 -4v-20l-7 -17l-16 -14l-14 2l-13 19 l3 8l12 8l4 10l8 4l2 13l10 12l2 10l-6 12v9l23 43l10 8l2 12l49 45l23 17v10l12 10l8 27zM553 664l-4 2v8l8 14l49 41l21 25h10l12 12l27 16l45 49l4 7h14l13 -29l-2 -14l-9 -19l-12 -12l-53 -33l-21 -24l-18 -9l-4 -8l-27 -12l-24 -21l-9 -2zM352 299l2 -4v-10l-10 -11 l-59 -20v-4h-11l-32 -33l-9 -2l-6 6l-2 17l13 38l57 35h33l16 -4zM1665 819l2 -4v-8l-8 -12l-25 -19l-61 -16h-8l-15 8l2 16l23 23l41 12l10 10h29zM1190 -166l-2 -6l-12 -10l-15 4l-6 6l-41 4l-8 14h-25l-4 7l2 8l33 4l49 -6l25 -13zM1702 514l2 4l14 -2l15 -29l4 -16 l-6 -27l-17 5l-8 12l-12 43zM700 926l2 4h23l8 -33l-4 -31h-8l-12 8l-11 19zM238 201l4 -2l-6 -11h-11l-6 5l6 10z" />
<glyph unicode="C" horiz-adv-x="1513" d="M1675 1440v4h15l4 -8l12 -11l6 -57l6 -4l6 -59l9 -64l-2 -37l-13 -61l-12 -66l-27 -59l-8 -25l-6 -8l-10 -31l-10 -10l-7 -20l-41 -56l-12 -30l-12 -7l-2 -12l-49 -45l-92 -92l-17 -18l-18 -7l-23 -20l-61 -29l-25 -22l-26 -13l-7 -6h-8l-28 -20l-64 -23l-39 -8l-4 -6 l-66 -12h-8v-6l-32 -5l-48 -12l-14 -8h-65l-68 -4l-43 -31l-8 -31l-15 -6l-16 2l4 66l14 26l11 11l26 6h105l65 14h17l55 17l37 4l59 24l62 21l16 10l14 2l2 8l13 2l12 13l33 6l26 12l27 23l12 16h9l10 10l14 4l8 15l49 41l48 43l18 14l6 16l12 10l37 54l33 37l4 14l12 10 l29 60l10 32l21 47l14 70l10 10l7 29l-2 68l-3 65l7 29l-13 37l-6 41zM1733 434l4 -2l-29 -59l-35 -49l-35 -56l-32 -35l-19 -28l-22 -23l-2 -12l-95 -94l-49 -43l-22 -8l-31 -39l-12 -6l-17 -21l-18 -4l-4 -6l-58 -31l-12 -14h-8l-10 -10l-33 -9l-4 -6l-33 -6l-57 -31 l-64 -12l-63 -16l-64 -11l-65 2l-31 5l-33 10l-35 2l-14 6l-6 16l8 13l62 -4l32 -5l33 5l64 -5l30 7l35 14l33 2l47 12l12 11h15l59 26l16 2l27 17l19 16l12 2l12 10h8l8 10l13 3l51 34l14 9l23 4l41 51l18 22l47 45l52 48l14 24l31 29l4 14l8 4v8l10 11l4 14l23 22l35 54 l38 49l25 24h10zM1286 1352l4 -2l-2 -9l-35 -32l-30 -13l-47 -41l-48 -49l-18 -14l-2 -8l-12 -10v-9l-19 -18l-26 -14l-23 -64l-29 -29v-10l-8 -2l-4 -33l-6 -2l-20 -55l-29 -45l-12 -23l-5 -18l-28 -59l-8 -21l-13 -12l-20 -4l-15 20l3 15l14 26l20 53v17l13 10l4 14l18 31 l12 10l7 33l16 16l4 21h4l12 22l9 5l4 32l8 4l20 27l29 14l12 11l7 37l14 28l41 47l10 13l25 18l39 43h8l8 10l16 2v4l27 15l10 10h19zM461 1296l4 -2l-6 -16l-33 -37l-12 -2l-27 -33l-4 -14l-10 -12l-21 -60l-12 -35v-41l-4 -4v-14h-4l-6 -14l-17 2l-8 12l-2 18h-6l-2 35 l18 92l13 17v8l28 39h8l11 12l14 8l4 11l14 10l19 29l12 8l25 -4zM717 344h22l6 -8l5 -62l-7 -34l9 -64l-2 -8l-11 -10h-8l-14 28l-6 25v78l-4 41h4z" />
<glyph unicode="D" horiz-adv-x="1990" d="M1120 -174v6l-2 6l8 10l62 7h69l33 2l15 6h38l37 14l35 4l23 8l39 25l34 8l31 12l10 11l4 16l15 8l22 21l31 16l10 14l13 3l39 45h10l43 49l16 16v8l37 49l27 52l34 49l33 59l10 19l9 4l2 16l16 27l14 61l21 64l22 63l13 62l8 65l10 66v12l14 8l23 -8l8 -47l-14 -64 l-6 -61l-23 -62l-16 -63l-19 -63l-6 -33l-6 -6l-24 -58l-25 -49l-2 -10l-35 -55l-33 -58l-10 -12l-2 -12l-12 -11l-2 -6l-19 -16v-8l-47 -43l-47 -45l-6 -15l-47 -49l-10 -2l-11 -12l-28 -19l-31 -10l-10 -10l-29 -10l-6 -17l-6 -6h-11l-2 -6l-26 -6l-10 -6l-35 -6l-15 -9 h-14l-59 -22l-64 -4l-61 -4h-64l-35 2zM1294 1430l6 -13l-4 -16l-16 -4l-18 2l-17 8l-12 -6l-35 -6l-12 -13l-62 -8l-34 -8l-54 -23l-10 -12l-53 -16l-49 -37l-68 -74l-18 -14l-27 -57l-18 -25l-7 -21l-10 -8l-12 -63l-6 -31l-4 -4v-33l-4 -8l-2 -27l8 -63l8 -39l12 -10 l12 -29v-33l-12 -12l-4 -14l-10 -11h-8l-47 -32l-23 -23l-16 -6l-23 -23l-29 -18l-14 -4l-14 2l-10 8v23l8 4l2 8l22 18l15 3l51 43l49 40l14 13l4 20l11 23l-2 8l-11 10l-12 29l-6 6l-8 55l-6 37l4 27l4 4v51l4 4v15l12 26l8 35l27 59l18 19l5 14l30 27l17 26l47 50l12 12 l14 4l4 10l15 4l8 10l59 23l45 23l19 18l16 8l56 6l28 11l60 4l30 -9l29 7zM1386 1233l3 4h14l8 -4l19 -51v-31l-19 -29l-25 -22l-26 -17l-23 -22l-18 -29l-14 -14l-2 -12l-17 -29l-24 -66l-2 -8h-7v-10h-4v-8h-4l-4 -29l-6 -4l-23 -57l-14 -31v-10h-4l-8 -45l-23 -33 l-8 -31l-8 -12l-8 -4v-8l-11 -7v-8l-10 -14l-6 -57l-18 -50l-11 -14l-4 -14l-10 -15l-4 -18l-12 -12l-6 -33l-11 -19v-10l-8 -4l-6 -16l-14 -17v-8h-4l-5 -14l-10 -15l-4 -14l-6 -2l-10 -14l-6 -33l-9 -10l-14 -6h-10l-8 10l-7 24l15 13l14 28l14 13l-2 8l25 61l10 31l31 55 l14 49h4l13 31l6 6v11h6l4 32l12 29l13 12l12 52h4v8h6v10h4l19 51l18 60h4v10h4v8h6l3 12l20 53v5h4v10h6v8l6 6l2 12h5v11h6l6 47l14 18l4 15l35 53l23 35l51 45l20 24l8 33zM242 -129l-2 2h-19l-10 6l2 23l14 4l60 -17l30 -8h15l59 15l31 -7l63 9l41 12l9 10l51 12l18 15 l45 12l37 18l6 13h10l5 8l28 18l8 11h15l10 -13l4 -14l-6 -16l-12 -13l-15 -6l-18 -18h-8l-33 -23h-10l-21 -16l-12 -2l-2 -4l-25 -8l-24 -3l-4 -4l-35 -10l-31 -14l-63 -4l-58 -15l-33 4l-30 11l-70 2zM397 287v-6l-63 -5l-33 -16l-43 -35l-2 -8l-8 -6l-10 -29l-17 -4 l-14 6l-6 13l8 59l39 29h10v6h8v4h10l9 10h10v4h8v4l27 6l10 -6h25l12 -10l18 -8zM2023 1087v5l15 -5l8 -14l2 -12h4l10 -64l4 -30l-10 -66l-10 -10l-8 -2l-10 6l-7 10l-4 35l4 68l2 34l-8 37zM1454 1391v-7l-12 -6l-43 11h-43v4l-17 4l-6 20l56 10l57 -18l6 -6zM1079 -147 l4 -3l-4 -6l-16 -8l-31 8l2 21l6 4h17l16 -6z" />
<glyph unicode="E" horiz-adv-x="1304" d="M479 -250v4l6 13h33l31 -9l55 -4l10 -6l4 6l66 -6l14 -4l64 12l51 21l25 4l4 6l61 23l60 28l51 27l18 26l47 46l41 51l13 12l6 14l8 4l10 33l31 55l24 60l5 65l10 64l-6 31l4 63l-4 33l4 16l6 6h14l12 -30l5 -31l-2 -6l12 -21l-2 -63l-6 -98l-11 -33l-8 -15l-2 -22 l-14 -19l-2 -24h-4l-17 -27l-4 -14l-10 -12l-16 -54l-41 -53l-35 -35l-17 -4l-14 -10l-25 -6l-36 -55l-56 -35l-61 -21l-4 -6l-31 -12l-29 -2l-4 -6h-32l-64 -17l-65 4l-64 -2l-14 -2l-92 25zM1602 1327v4h14l4 -8l-4 -25l6 -30l-2 -31l-8 -33l-17 -28l-14 -41l-12 -13 l-4 -14l-23 -23l-12 -22l-25 -25l-14 -4l-16 -16l-60 -25l-57 -22l-2 -6l-66 -11l-33 -4l-16 2l-6 4l-4 -6l-66 2l-65 17l-8 14l8 12l14 4l64 -12h63l123 33l33 10l57 29l19 16l4 15l45 47l37 51l14 29l6 49l4 4l2 14l8 4v25zM629 655l4 -2v-8l-8 -12l-33 -4l-62 -23 l-28 -10l-27 -23l-12 -20l-8 -4l-21 -27l-53 -39l-4 -2l-4 31l-4 8l20 37l6 4l6 14l13 9l10 14h10l8 14l25 11l33 20h8l4 6l63 2l33 6zM1264 1386v-10l-31 -6l-31 2l-63 -16l-60 -29l-55 -33h-16l-4 9l-9 4l-2 8l17 28l22 25h8v4h11v4h8v6h31l14 7h16l62 20h32l31 -8z M905 569h-4l-10 23l4 16l33 43l4 17l16 18l4 14l6 2l33 54l23 22l16 -2l12 -8l2 -25l-16 -26l-12 -12l-4 -17l-37 -35l-12 -30l-27 -41zM381 457l2 -2v-33l-16 -45l8 -66l-4 -41l-13 -10l-14 2l-6 6l-10 62l-2 8l6 33l4 4l-6 31l18 51h33zM928 1057l2 4l6 2l16 -39l-4 -31 l13 -57l-5 -14l-8 -2l-12 8l-14 26l-17 64v16h4l4 15zM889 1589l-2 -4h-21l-6 6l-6 31l6 49l4 6l21 -4l10 -12l4 -14zM694 659l4 -2l-10 -14l-14 -4l-33 4l-2 6l12 19l19 6l16 -4zM1597 1382h19l4 -32l-2 -9l-6 -4l-17 4l-8 25z" />
<glyph unicode="F" horiz-adv-x="1490" d="M1585 764l4 -2l-6 -33l-22 -59l-17 -27l-18 -16l-33 -4v-5h-98l-29 -10l-31 -28l-16 -48l-12 -12l-9 -33l-24 -59l-23 -59l-10 -31l-16 -27l-8 -24l-13 -13v-12l-28 -57l-5 -15l-8 -4l-4 -14l-33 -27l4 -47l-40 -51l-17 -18l-12 -31l-21 -23l-16 -30l-47 -45h-8l-2 -9 l-13 -6v-10l-14 -8l-8 -14l-14 -5l-5 -6l-14 -8l-12 -2l-10 -12l-56 -29l-16 -4l-19 4l-8 6l-2 8l21 23l57 35l45 31l51 38l6 13l13 10v8l41 51l41 47l16 27l4 14l55 56l-2 45l9 4l2 12l12 8l2 15l10 10l6 33l21 49l26 57l23 60l14 18l4 29l25 63l27 62l10 12l43 20l37 7 l65 -9l17 2l36 23l7 18h6l18 58l4 8l15 12h10zM1731 1466l2 4l10 -12v-33l-6 -12l-27 -20l-41 -47l-24 -23l-9 -14h-10l-6 -6l-23 -58l-2 -24l-6 -4v-11l-14 -47l-10 -12l-4 -12l-11 -13l-8 -28l-4 -35l-25 -60l-24 -55l-29 -57l-16 -25l-12 -31l-13 -12l-14 -2l-12 14l4 25 l16 27v8l10 10v8l4 4l7 35l10 15l6 26l6 4l4 33l23 37l10 8l4 29l6 8l8 39h5l18 49l4 21l18 55l31 37l2 8l10 6v8l23 43l51 41l15 15h8l4 6l10 2zM561 608h4l6 -65l-4 -68v-63l2 -13l-37 -26l-32 -2l-29 -15l-33 -10l-28 -14l-43 -41l-2 -12l-17 -17l-18 -49l-6 -4h-17l-6 4 l-2 14l-8 17l14 45l37 47l29 31h8v4l59 26l25 9v4h47l22 16l11 14l-2 19l-13 28l2 68l2 43h5l6 14zM846 944l2 -2l-2 -16l-21 -25l-47 -33h-10l-2 -6l-16 -2l-13 -10h-10v-6h-8v-4l-19 -6l-28 -3l-15 -6h-65l-66 4l-12 11l4 14l10 8l70 2l64 15l55 12l14 10l14 4l29 21l19 6 l18 20h18zM668 1374v-6l-11 -14l-65 -11l-14 -10l-15 -4l-51 -45l-12 -12l-4 -15l-11 -10l-12 -45l-14 -8l-13 -2l-10 10l-2 8l10 66l27 49l12 14l13 4l8 13l57 22l60 8l4 7l30 -2l7 -5zM739 -211l2 -6v-14l-4 -9h-10l-10 -10l-23 -8l-4 -6l-65 -4l-64 -6h-67l-64 10l-14 4 l-19 16l6 17h31l33 -9l65 7h66l59 10l64 14h8zM913 1333v-6l-16 -4l-33 6l-12 6l-72 4l-30 4l-29 11l-4 14l6 14l20 7l58 -11l20 -10l35 -10h35l20 -8zM983 655h4v-28l-69 -6l-37 10v24l28 4l72 -2zM1706 1573h4l14 -6l9 -13v-18l12 -29l2 -14l-4 -8l-10 -2l-19 16l-4 14 l-6 7l-2 12h-6l-4 16l6 21zM1214 1286h5l2 -10l-7 -14l-12 -9l-35 2l-14 7v20l10 10h33zM981 1329l2 2l35 -4l18 -10v-17l-20 -8l-37 6l-2 19zM463 850v14h8v-14h-8z" />
<glyph unicode="G" horiz-adv-x="1716" d="M1929 440l2 -2l4 -8v-24l-8 -15l-6 -4l-2 -14l-29 -39l-24 -27l-27 -37v-10l-10 -4v-8l-41 -51l-49 -45l-45 -48l-39 -30l-6 -13l-21 -10l-4 -14l-31 -31h-10l-51 -39l-51 -37l-41 -16l-10 -10h-9v-4l-55 -35l-10 -2l-4 -10h-11v-5h-8v-4l-33 -24v-8l-10 -11l-22 -63 l-29 -55l-16 -68v-4h-4l-21 -55l-18 -41h-4v-11h-5v-8l-36 -49l-33 -43l-6 -6l-2 -14l-11 -13v-10l-12 -8l-6 -19l-14 -6l-23 -26l-29 -19l-22 -20l-57 -27l-64 -27l-29 -2l-32 7h-31l-21 4l9 16l6 4h47l8 12h25l26 9l62 30l37 21l8 14l26 21l43 49l74 102l12 12l19 58l8 14 v8h4l8 33l9 2l2 12h4v9h4v10h6l8 29l4 30l6 6l6 29l27 64v4h4l2 16l6 12l50 41h8l26 21l37 16l6 10h9l24 21l31 14l24 23l23 6l27 20l14 7l8 14l49 41l27 20h10l6 13h8l13 10l39 51l22 25l27 20l37 51l43 49l14 31l27 43l12 12l6 15l10 10v4l8 6l19 4zM1821 1407v4l16 -2 l8 -8l4 -35l9 -27l6 -69v-64l-15 -63l-18 -60l-19 -45l-2 -16h-4v-10h-4v-8h-6v-11h-4v-8h-4v-10h-4v-8h-6v-11h-4v-8h-5v-10l-20 -29l-49 -41l-39 -49l-33 -41l-24 -12l-23 -25l-39 -30l-12 -2l-55 -37l-60 -31l-51 -35l-41 -10l-12 -12l-15 -2l-10 -11l-61 -16l-33 -2 l-62 -25l-30 -6l-56 4l9 17l26 16l66 16l53 13l10 8l27 8l18 10l47 11l50 28l6 6l30 9l41 26l13 2v6l30 15l50 43l55 39l16 16l11 2l43 49l36 35v8l11 11l4 14l8 4l14 29l37 41l8 32l21 56l18 69l17 64l6 65l4 33l-12 59v19zM1442 1364l2 -4v-19l-19 -14l-65 -8l-45 -8 l-47 -29l-25 -20l-16 -5l-45 -47l-23 -22l-29 -19l-24 -8l-31 -57l-2 -8l-22 -19l-2 -12l-13 -10l-28 -56h-4v-10h-5l-4 -18l-12 -8l-35 -54l-30 -59l-11 -33l-35 -43l-16 2l-6 8l-4 31l8 31l18 39l41 51l17 25v10h4l4 14l10 8l4 15l11 10l16 26l4 15l14 16v8l19 19l18 28 l21 23l28 8l13 37l45 45l20 25l15 4l4 10l12 2l25 23l36 18l11 12h8v4h10v5h10v6l64 12l67 8zM1579 551l4 -2l-16 -62l-8 -32l-29 -60l-2 -14l-12 -12l-23 -58l-16 -47l-9 -12v-14l-12 -13l-2 -20l-29 -60l-14 -28l-12 -8h-15l-12 14l4 29l6 6l21 57l18 37v8l17 29l18 57 l25 62l28 61l17 29l10 30l20 35h11zM467 1307l4 -2l2 -21l-22 -29l-13 -2l-4 -8l-12 -2l-39 -41l-16 -26l-21 -62l-10 -45l12 -68v-16l-8 -10l-16 2l-17 27h-4v8l-10 26l2 72l12 55h6l4 25l15 29l14 12l4 14l45 41l21 8l2 9l14 4l6 6h15zM920 516v-4l-7 -12l-12 -6l-72 2 l-30 -9l-25 -20l-6 -49h-6l-12 -45v-33l-7 -25l2 -67l-4 -15l-6 -4h-16l-8 11v67l-4 66v30l18 62l14 31l23 24l26 10l33 -2l31 7l53 -7zM1030 23l2 -3v-8l-28 -35h-9l-8 -10l-16 -2l-2 -8l-58 -29l-59 -20l-55 -10l-35 -2l-72 6h-8l-12 8l-4 16l14 15l72 2l65 8h33l31 6 l12 8l4 8l55 29l4 8h9l6 10h10l4 9l16 6l3 4l10 -2zM881 -324l2 -4v-8l-9 -16l-22 -21l-57 -30l-29 -11l-39 -28l-12 -25l-17 -18l-6 -17l-8 -10l-22 -2l-7 14l7 37h4v10h4l12 25l27 29l26 16l19 18l14 5l8 10l15 4l6 6l41 14l12 13l24 -4zM684 -752l4 -2v-24l-16 -6l-21 10 l2 20l13 6zM987 524l2 6h15l6 -10l-2 -12l-7 -4l-12 2l-4 4z" />
<glyph unicode="H" horiz-adv-x="1972" d="M2167 451h14l10 -15l-18 -57l-14 -31l-39 -53l-6 -12l-17 -13v-8l-8 -14l-12 -10l-21 -41l-28 -25l-31 -37l-12 -2l-23 -22l-27 -13l-28 -4l-43 -47l-2 -4l-33 -4l-55 -21h-31l-17 7l-65 -5l-72 -4l-26 -24l-13 -60l-6 -6l-2 -18h-4l-18 -41l-7 -19l-14 -14v-8l-6 -4 l-2 -10l-10 -11l-6 -14l-2 -27l-5 -4l-14 -51l-10 -10v-8l-23 -64l-10 -14l-10 -6l-15 2l-14 20v17l6 16l6 4l5 14l16 25l10 45l10 14v9h5l4 24l12 31l6 4l25 57l20 62l4 14l15 25l20 57l25 23h32l33 -9l64 -2l18 -2l18 -8l54 23l2 4h33l57 28l16 6l25 29l8 2l4 6l10 2l4 9 h11l2 8l12 4l43 51l25 29l4 12l37 47l6 14l14 11l6 26l17 17l6 14l8 4v8l10 11l14 28zM2097 1407h25l4 -8l-2 -31l-10 -31l-7 -4v-10h-4v-8l-10 -25h-4l-4 -22l-19 -25l-6 -26l-2 -37l-18 -25l-2 -12h-4l-11 -33l-30 -59l-8 -13l-17 -57l-10 -35l-23 -43l-14 -12l-2 -31 l-23 -61l-10 -31l-39 -51l-8 -15l4 -22l-18 -47l-10 -10l-9 -50l-10 -24h-4l-18 -62l-11 -30h-4l-8 -29l-10 -8v-10l-10 -4v-11h-5v-8l-10 -12l-10 -60l-4 -6l-14 -8l-7 -12l-14 -10l-14 2l-4 20l4 21l28 55l21 57l10 45h6l8 33l15 18v9l14 28l17 56l26 61l25 43l14 68 l23 57l10 20l14 11l17 26l10 62l31 59l22 60l18 61l21 61l14 39l6 2v11h5v8l26 45l6 6v10h4l19 51l8 19zM1550 1565h4l15 -6l10 -27l2 -37l12 -10l9 -33l-5 -22h-4v-9h-6l-2 -12l-49 -45l-23 -23l-28 -36l-10 -25l-27 -23v-8l-10 -26l-6 -37l-29 -60l-17 -18l-16 -59v-9 l-16 -47l-13 -12l-2 -16l-10 -15l-4 -14l-8 -10l-6 -19l-6 -2l-5 -33l-24 -57l-10 -31l-6 -6l-13 -51l-8 -6v-14l-6 -13l-12 -10v-10h-4v-8l-17 -25l-10 -33v-18l-29 -41l-12 -39l-16 -2l-15 6l-4 6v17l29 59l20 61l6 35l7 4l24 52l12 18l2 14l13 11v8l10 14l12 64l8 24 l29 53l25 66l12 49l12 27l11 10l24 51l21 57l8 29l18 29l4 14l19 25l4 16l22 29v8h7l22 43l29 18l45 52l-2 22l-13 10v9l-8 4l-10 39zM1008 281l28 -15l-10 -33l-14 -28l-21 -25l-16 -28l-43 -46l-31 -16l-24 -57l-19 -10l-16 -21l-13 -2l-38 -31h-11l-4 -10l-14 -4l-23 -16 l-18 -7l-4 -6l-62 -18l-47 -4l-28 -13l-60 -2l-35 7l-20 8v10l10 14l29 4l53 -2l33 11l6 6l63 8l15 4l4 10l22 6l15 11l30 12l52 39l49 43l33 24l34 52l21 22l4 15l10 4l4 14l11 4l4 14zM672 1329l6 -10v-12l-14 -11l-64 -10l-63 -2l-33 -10l-53 -35l-9 -14l-10 -8l-10 -64 v-16l-6 -15l-17 -6l-8 2l-14 25v8h-4l6 51l27 58l20 24l25 19l61 20l8 6l68 2l53 2l6 4zM559 461v-4l-6 -15l-68 -6l-63 -22l-47 -43l-13 -9v-8h-4v-10h-4v-8l-8 -10l-16 -58l-8 -6l-17 2l-12 47l6 39h4l16 43l46 47l28 13l10 8l25 4l61 18h23v-4h18v-4l25 -8zM803 901l2 -4 l-2 -16l-33 -25l-8 -10h-8v-4h-11v-6l-57 -27l-29 -8l-34 -4l-41 -17h-64l-16 -2l-21 8l-2 19l8 10l50 4l2 4l59 -2l27 4l22 11l4 10h8v4h11v4h8v6h10v4h8v4h11v4h10v7h8l14 10l9 12l14 4l14 10l17 -6zM1012 1262l6 -5v-12l-45 -10l-17 4l-4 6l-65 10l-33 9v22l35 6l55 -16 l8 2l31 -6l10 -8zM694 430l-2 -6l-6 -4l-39 6h-10l-12 6l-33 2l-6 4v19l4 6l28 6l33 -4l29 -12l10 -9zM444 -72l2 -2v-22l-12 -6l-35 -7l-30 9l-11 22l29 10h37z" />
<glyph unicode="I" horiz-adv-x="1275" d="M1446 1225h4l8 -2l6 -13l-4 -34l-6 -21l-10 -10l-12 -51l-7 -4l-12 -29l-12 -64l-4 -14l-11 -12l-10 -29l-12 -20l-2 -17l-10 -10l-17 -45l-6 -6l-4 -33l-6 -4l-21 -37l-6 -2l-16 -61l2 -11l-31 -53l-20 -59l-4 -19l-11 -4v-10l-8 -4l-10 -23l-8 -4l-2 -33l-17 -55 l-22 -35l-6 -16l-11 -10v-25l-10 -29l-2 -16h-6v-8l-8 -10l-23 -60l-16 -33l-2 -14l-35 -53l-22 -45l-5 -4l-2 -15l-22 -22l-37 -51l-18 -25l-27 -20l-16 -29l-27 -16l-47 -48l-6 -2l-11 -14l-57 -22l-35 -23h-10l-6 -8l-12 -2l-23 -15l-70 -20l-61 -12l-33 -4l-16 8l-10 10 l4 14l24 15h37l29 12l82 25l8 10l33 8v4h10v6h8v4l39 17l12 12l27 12l49 47l45 47l33 27l18 25v8l27 29l4 14l12 12l25 55l14 27h4l9 16l6 5l20 43l8 26l13 10l8 23l18 22l19 62l26 45l11 14v39l8 31l14 25l14 16l5 39l10 31l35 49l10 12l6 51l6 6l4 15l8 4l15 55l8 31h4 l21 57l12 12v11h4v8h6l6 47l15 18l20 60h4l2 12l10 12l13 29l16 61l14 33l15 19zM1116 1223l4 -2l2 -11l-24 -28l-64 -19l-43 -16l-57 -25l-29 -14l-33 -4l-28 -12l-6 -7l-15 -4l-4 -6l-43 -26l-45 -35l-10 -2l-2 -6l-23 -21l-2 -16h-4l-16 -58l-2 -26l-6 -15l-15 -8l-14 4 l-8 33v55l24 56l47 49l54 37l24 18l31 12l10 11l33 8l8 10h10v4l64 21l65 20l62 21l33 10l20 -4zM416 612h22l6 -30l-2 -68l7 -68l4 -47l-21 -26l-22 -6l-37 2l-64 -23l-28 -14l-33 -31l-25 -63l-12 -33l4 -49l-12 -13h-10l-11 11l-8 67l2 53l8 9v8l33 51l16 20l25 9l8 10 l15 2l36 25h39l25 10l10 8l15 37l6 47l-11 63l9 31zM1630 1587v4l15 -6l22 -41l6 -20v-27l-10 -8v-10l-14 -9l-4 -10h-11l-4 -8h-8l-6 -10h-8l-9 -10l-16 -9l-12 -37l-39 -49l-4 -2l-8 -32l-13 -19l-24 -4l-4 20l4 35l12 29l41 49l23 23l16 43l12 12l10 2v4h11v6l16 6l6 15 l4 2v35zM782 723h23l4 -8v-33l6 -33v-106l-6 -2v-11l-4 -6h-4l-8 -12l-31 -16l-35 8l-10 10v10l10 11l27 14l16 18l8 66v72zM676 528v-4l-8 -4l-17 2l-4 6l-33 7l-8 16l33 6l16 -2l15 -8zM291 -227h4l4 -6v-21l-4 -6h-8l-13 8v23zM193 -203v4h10l4 -14l-4 -4h-10v4h-5v8z " />
<glyph unicode="J" horiz-adv-x="1179" d="M1384 453l9 -4l6 -7l4 -26h-4l-17 -37l-41 -47l-18 -27l-4 -14l-14 -8l-5 -15l-14 -10l-4 -14l-49 -43l-47 -45l-10 -15l-15 -10l-10 -2l-4 -10h-8l-11 -10l-30 -11l-13 -10l-18 -4l-39 -27l-61 -22l-4 -4l-25 -4l-16 -13l-21 -8l-33 -6l-37 -14l-18 -29l-6 -20l-8 -11 l2 -8l-10 -20l-7 -33l-20 -51l-21 -39v-8l-41 -52l-10 -8l-2 -12l-20 -53l-13 -13l-6 -24l-6 -2l-24 -41l-7 -4l-8 -25l-43 -45l-20 -16l-8 -2l-39 -52l-47 -47l-39 -30l-15 -5l-2 -8l-90 -22l-12 -11l-29 -6l-29 -12l-28 -6l-33 4l-63 -14l-23 6h-51l-10 8l-5 18l9 9l16 4 l68 -6h30l66 10l29 4l55 31l33 10l28 14l31 29l16 2l48 45l26 16l4 9h10l11 12l24 18l11 31l10 4l10 27l23 20v8l16 25l10 8v8l10 19l13 10l14 29l10 8l2 12l27 47v8l10 15l2 10h4l6 25l9 14l10 4v8l6 4l4 13l10 12l2 33l27 57l23 51l14 10l4 9l12 2v4h8v6l66 10l31 8l43 29 l24 6l27 12l31 25l16 2l8 12l8 2l25 23l14 4l2 8l54 37l49 39l10 10v8l25 21l32 45l9 4v10l10 4l4 17l18 22l15 31l10 12zM1305 1255h14l8 -30l-16 -33l-15 -62l-14 -32l-12 -13l-8 -26l-7 -6l-10 -39l-6 -4l-2 -33l-35 -55l-6 -9l-10 -41l-12 -8l-7 -14l-22 -23l-2 -8 l10 -20l-12 -33l-35 -53l-2 -35l-10 -45l-13 -12l-8 -29l-8 -14l-10 -41l-11 -9v-14l-8 -18h-6l-2 -13l-4 -2l-4 -22l-27 -68l-10 -37l-12 -12l-17 -49l-16 -17l-16 3l-11 10l-4 14l2 16l31 58l18 65l29 50l19 65l12 12l2 15l10 18l12 12l11 31l16 27l-2 10l14 53l11 15v32 l12 25l24 22l5 15l6 4v41l18 24l23 64l6 14l2 19l6 4l23 55l4 14l10 11l2 14l12 12v23l8 31l15 22v8zM903 1110l8 -8l2 -8l-10 -19l-61 -28l-47 -25l-62 -25l-28 -12l-13 -10l-8 -2l-10 -10l-15 -5l-24 -18l-17 -6l-51 -31l-12 -12l-14 -4l-27 -19l-33 -32v-9l-22 -24 l-31 -53l-8 -15l-12 -63l-9 -6l-14 2l-8 10l-6 35l10 65l18 23l4 16l11 6v8l47 46l33 34l14 7l4 8h8l6 10h9l10 14l41 23l24 6l56 35l10 10l29 10l10 8l24 9l60 30l59 23l31 8zM285 -115l4 -2l-6 -16l-11 -12l-28 -19l-21 -8l-2 -8l-45 -13l-29 -16l-20 -6l-29 -18l-30 -31 l-2 -10h-5l-2 -13l-26 -55l-4 -35l-4 -8l-19 -2l-14 12l-4 35l4 33l14 41l10 6v8l37 33l8 14l13 2l53 39l14 4l2 8l13 2l10 11l33 4l55 22l10 2zM1448 1505h10l8 -2l11 -10l18 -51l-12 -12v-5l-27 -16l-16 -4l-13 -10l-30 -56l-19 -24l-37 -31l-16 8l-10 11v14l6 14l22 23 l3 12l79 55l5 15h4v10l10 14l-2 39zM545 500h22l4 -27l2 -72l5 -30l-11 -66l-8 -18l-10 -8l-17 -3l-26 11l-6 10l16 12l14 19l-2 6l7 16h4l4 31l-4 65v43zM479 301v-14l-35 -4l-32 8l-54 28l-4 13l15 6l67 -12l37 -13zM408 -84l2 -6l-7 -14l-43 -17l-20 4v15l10 12l43 14z M-61 -674l2 4l16 -4l18 -16l17 -2l12 -8l2 -11l-4 -4h-8l-6 6l-41 2l-8 13v20z" />
<glyph unicode="K" horiz-adv-x="1810" d="M2357 1583h19l8 -12l-4 -68l-13 -41l-12 -12l-2 -31l-10 -30l-14 -17l-41 -6l-4 -6l-64 -4l-31 -13l-24 -18l-15 -6l-10 -10v-9l-10 -4l-35 -53l-16 -24l-11 -31l-4 -33l-10 -14l-2 -13l-14 -24l-6 -35l-11 -31l-22 -32l-2 -13l-8 -12l-2 -14l-23 -19l-14 -26l-11 -54 l-20 -22l-6 -23l-10 -10l-23 -47l-45 -51l-41 -51l-2 -5l-12 -2l-4 -6l-27 -16l-23 -23l-18 -26l-14 -4l-13 -13l-53 -28l-12 -11l-62 -14l-18 4l4 27l57 28l58 31l6 6l10 2v4l23 11l10 12l16 8l33 43l6 15l31 20l10 12l2 9l23 24l6 16l6 5l10 24l13 12l12 29l24 39l2 12 l17 19l20 10l9 66l10 18v8l10 10l4 15l10 10l13 41l10 8l4 14l10 11l15 61l8 21h4l4 24l10 8l2 13l29 55l12 12l17 27l32 29l29 4l10 6l27 4l6 4l33 -2l31 6l26 21l2 12h4l11 63l18 66zM1184 516h6l6 -14v-17l-18 -26l-25 -62l-14 -30l-25 -31l-2 -45l-16 -31l-27 -37v-8 l-10 -25l-6 -36l-21 -33l-6 -4v-8l-39 -41l-8 -27l-37 -53l-47 -45l-45 -47l-6 -9l-13 -2l-10 -20l-45 -35l-8 -14l-16 -2l-13 -13l-28 -8l-60 -33l-30 -8l-68 -10h-16l-13 6l-4 8l2 11l10 10l64 14l29 10l57 35l57 27l29 18l47 41l49 45l39 51l45 52l17 18l22 57l14 17 l11 31l10 12l22 61l11 15v8l6 6l4 12l25 25l6 16l6 6l-6 25v16l6 4l31 60l18 43l18 12zM1257 721h-4l-8 12l15 64l12 28l14 17l6 30h4l9 33l30 45l17 43l4 33l14 25l23 65l20 62l4 6h4l2 12l33 57l25 60v6l26 35l2 12l43 47l7 6l14 4l12 11l14 28l3 15l18 22h14l15 -26 l4 -33l-19 -25l-47 -31l-37 -53l-32 -53l-15 -31l-6 -6l-31 -72l-8 -4l-26 -53l-17 -70l-26 -57l-27 -61l-10 -31l-4 -29h-5l-4 -24l-12 -9v-8h-4v-10h-4v-8h-4v-10h-6v-11l-9 -4l-18 -47l-12 -10zM1602 354h14l12 -8l8 -31l9 -69l-5 -64l-8 -14l-2 -68l-12 -65l-10 -49 l-6 -31l-7 -8l-8 -70l-8 -65l-4 -29l-6 -10l-8 -47l4 -35l-11 -19l-16 2l-6 4l-4 13l2 69l-2 29l10 64l12 65l9 66l16 36l4 56l4 4v14l6 8l8 72l9 64l-4 63l-5 39zM420 592l4 4l14 -6l-2 -23l6 -14l-4 -33l6 -61l2 -68l-14 -10l-4 -8l-66 -11h-8v-4l-24 -4l-31 -14l-25 -18 l-24 -25l-23 -33l-2 -12l-8 -12l-8 -35l-2 -37l-14 -8l-13 4l-6 12l-4 37l12 68l4 26l13 8l4 13l26 24l9 2l36 27h11v6h10v4h8l10 6l19 4l4 5l33 2l26 20l11 61l-7 48l7 16l6 4zM664 872l-7 -4h-16l-6 4l-6 33l2 27l18 49l13 12l10 23l26 20l31 11l51 34l11 11h14l24 12 l68 16l35 4l55 25l68 16l28 2l7 -6l2 -18l-9 -10l-61 -21l-35 -8l-31 -2l-12 -6l-16 -2l-25 -17l-63 -18l-58 -23l-53 -41l-22 -20l-5 -19l-10 -6v-8l-8 -4v-8l-10 -10zM1671 -444h29l6 -64l-2 -67l4 -31l-12 -21l-21 -20l-63 -6h-72l-61 16l-6 4l-3 8l7 17l14 4l61 -10 l35 -2l33 8l27 16l16 19v67l2 33zM780 715h25l4 -13l2 -63v-70l-2 -34l-18 -27l-37 -10l-15 10v18l31 33l2 33l-4 31l6 63zM463 -242l2 -2v-20l-10 -8l-15 -4l-47 10l-6 12l6 14l15 7l36 -3zM227 -213l2 2l50 -10l10 -8l6 -21l-8 -4l-33 4l-29 10l-2 11zM680 526l-2 -6h-10 l-17 10l11 11l14 -4z" />
<glyph unicode="L" horiz-adv-x="1622" d="M1896 1327l7 2h14l6 -4l2 -33l4 -4l4 -33l-4 -63l-16 -66l-2 -28l-21 -60l-26 -57l-9 -14l-2 -15l-30 -34v-11h-4v-8h-7v-10h-4v-8l-18 -25l-2 -8l-12 -10l-7 -17l-45 -43l-12 -12l-16 -27l-33 -34l-27 -13l-49 -41l-53 -35l-31 -28l-14 -4l-10 -11h-9v-4l-57 -20l-20 -8 l-35 2l-31 -11l-41 -26l-67 -17l-33 -4l-33 -10l-66 -6h-65l-14 8l-2 8l4 7l61 20l98 6l60 17l63 18l37 4l10 12l62 25l8 2l10 10h8l15 8h10v7l39 16l51 39l51 35l47 45l33 26l13 17v8l16 12l4 15l14 8l4 14l15 10l4 15l8 2l14 26l13 15l2 12l6 2l26 39l5 14l10 15l4 18l6 4 l6 29l6 8l19 63l6 17l6 59l6 29l2 74zM1473 1348l2 -5v-14l-23 -14l-33 -8l-28 -19l-19 -24l-18 -13v-10l-8 -4l-3 -12l-8 -2l-16 -27l-14 -12l-2 -13l-21 -14l-2 -12l-10 -6v-9l-39 -53l-23 -55l-12 -12l-6 -17l-16 -16l-5 -19l-6 -4l-4 -16l-29 -45l-6 -33l-26 -59 l-11 -19l-6 -4l-8 -16l-6 -4l-18 2l-7 14l7 31l14 49l8 20h4v11l10 10l7 14l10 11l2 10h4l8 39l10 10v8l11 8l2 13l8 10l8 24l10 13l11 28l16 29l12 10l2 13l8 4l5 14l41 47l6 10l16 11l2 12l12 8l7 16l43 46l24 24l57 35l31 -4zM649 -59l4 -2l-10 -33l-25 -19l-30 -10 l-27 -31l-26 -6l-52 -26l-14 -11l-61 -16l-31 -6l-33 2l-45 -8l-16 6l-33 2l-14 6l-5 6v10l11 11l14 2l12 -4l6 4l31 2l55 12h11v4l65 10l17 4l55 29l31 12h16l10 -4l13 9l32 55l13 8l22 -6zM659 1298l5 -2l-15 -8l8 -8l-47 -41l-37 -49l-16 -19v-8l-18 -47v-14l-11 -27v-37 l11 -61l-7 -19h-18l-10 11l-12 59v27l4 6l-4 65l6 31l6 6l26 60l37 51l15 16l16 6l4 11l35 10l16 -6zM989 494l2 -5v-12l-41 -28l-16 -58l-23 -45l-22 -59l-10 -15l-23 -47l-2 -14l-10 -14v-7l-21 -22l-8 -4l-12 2l-17 18l7 19h4v8h6l8 27l29 49v8l22 33l19 55l8 37l16 41 l21 22l6 13h10v4l27 4zM1874 -389l4 -2l8 -15l-4 -14l-47 -47l-49 -41l-29 -12l-12 -12l-12 -5l-7 -6l-28 -8l-53 -29l-23 -2l-8 9l-15 6l23 37l12 2l27 16l31 10l51 33l29 12l24 25l21 12l22 21l16 8zM303 229l2 -4l-2 -10l-6 -6l-33 -2l-28 -8l-27 -17l-19 -26l-8 -23 l-6 -4h-14l-12 8l-7 15v14l7 14l6 4l12 29l25 20l30 13l35 2l31 -8zM1579 -569l2 -2l-2 -11l-23 -16l-18 -4l-12 2l-29 -10l-37 -4l-37 2l-20 8l-6 12l12 17l14 4l70 -4l43 16h25zM188 -176l2 -2v-23l-24 -6l-33 10l-10 17l2 6l12 6zM1505 1360l2 2h9l6 -14l-6 -15h-9l-6 15 zM205 -201v8h8v-8h-8z" />
<glyph unicode="M" horiz-adv-x="2273" d="M1446 1225l2 -6l-16 -19l-46 -14l-28 -21l-12 -2l-11 -12l-47 -27l-10 -2l-29 -26l-49 -47l-37 -54l-12 -30l-2 -19l-6 -4v-6l-6 -4l-9 -33l-10 -6v-8l-10 -13l-2 -24l-6 -4l-13 -47h-6l-2 -13l-32 -55l-11 -12v-64h-6v-10h-4v-8l-6 -4l-2 -10h-6l-2 -13l-11 -10l-10 -47 l-18 -23l-4 -20l-11 -10l2 -21l-20 -59l-29 -60l-24 -59l-15 -25l-18 -59l-12 -31l-19 -18l-12 -64l-25 -61l-12 -18v-7l-10 -8l-10 -33l-11 -36l-26 -33h-8l-11 -6l-67 -4h-11l-14 6h-14l-4 4l-66 -4h-51l-12 6l-6 16l2 6l65 11h66l63 -9l29 13l24 22l7 23l18 26l20 62 l19 45l10 29l21 26l12 29l6 33l21 57l10 31l16 28l19 60l12 37h6v10h4v8l23 53l14 31v10h4v8h6v11h4l2 22l7 15l6 4l4 32l12 17l2 12l12 8l7 13l18 16v8h4l8 66l13 28l10 15l4 14l6 6l2 10h4l6 35l19 39l16 49l14 31l17 25l8 22l21 14l12 27l16 14l15 4l18 19l12 2l25 20 l14 7l4 8h10l9 10l14 4l6 6l14 4l19 17l29 10l32 6l15 -6zM2441 1358h15l12 -29l6 -33l-6 -12l4 -33l-2 -32l-10 -23l-11 -61l-8 -19l-10 -4v-10l-8 -4l-4 -17l-6 -6v-37l-11 -28l-35 -37l3 -33l-9 -14l-20 -60l-25 -61l-6 -19l-18 -32l-6 -31l-19 -49l-6 -27l-25 -53 l-20 -29l-2 -24l-25 -56l-16 -28l-19 -64l-18 -43l-8 -10l-23 -61l-12 -29l-10 -10l-2 -15l-10 -12l-11 -57l-24 -43v-9l-13 -8v-10h-4l-14 -53l-14 -29v-6l-6 -6l-17 -58l-24 -43v-65l-11 -12l-16 -4l-12 8l-9 12l13 70l20 57l19 57l8 27l2 18l6 4l8 29l10 4v8l11 15l2 14 l10 10l8 31l6 6l19 62l22 63l4 14l7 5l14 43l16 43l31 61l25 59l2 17l16 18l4 15l10 12l19 61l8 13l6 36l12 41l19 13l2 12h4v10h6v8h4l4 37l6 6l17 64l18 25l13 30l20 23v16l8 6l2 15l-4 24l12 37l25 31v26h4l4 27l23 33l4 26l4 5v65l4 25l-6 28zM2058 1237l6 -6v-21 l-10 -10l-26 -4l-13 -12l-63 -25l-31 -26l-27 -17l-51 -43l-45 -39l-20 -39l-27 -49l-25 -55l-12 -35l-4 -33l-8 -10l-12 -39l-11 -10l-2 -23l-8 -18l-2 -25l-18 -22v-10l-19 -13v-32l-10 -13l-12 -30l-11 -13l-6 -33l-26 -47l-13 -10l-8 -14l-8 -2l-4 4v33l-4 14l18 55l8 4 l9 31l34 55l13 62l6 6l8 29l25 49l18 28l19 56l6 6l16 55l6 31l15 27l4 18l16 25v6l49 49l10 12l13 4l49 35l22 27l29 14l10 10h8l11 10l55 21zM1532 444h4l6 -14v-16l-6 -2l-20 -56l-21 -67l-4 -17l-12 -10l-23 -61l-6 -41l-25 -49l-4 -17l-10 -8v-8h-4v-10h-4v-9l-21 -22 v-33l-4 -24l-8 -19l-10 -6v-8l-8 -4l-6 -17l-17 -16l-29 -8l-16 2l-12 6l-2 10l43 47l16 27l21 53l6 12v17l10 26l16 27l23 61l10 13l17 63l24 64l29 59v8l14 27l23 25zM614 1122l4 -2v-8l-24 -22l-23 -15l-32 -6l-60 -20l-26 -19h-9l-20 -22l-37 -27l-12 -20l-15 -9l-6 -26 l-10 -8l-14 -64l-4 -14l-11 -4l-8 2l-8 24h-4l-8 31l6 35v8l6 4l31 51l20 19l4 10h8l11 12l14 4l12 11l15 4l10 10l25 6l20 18l25 9l32 22h9v4h10v6h8v4l55 5zM2032 -328l2 -2l-11 -47l-12 -16l-2 -17h-4l-23 -63l-8 -31l-16 -12l-4 -14l-15 -9l-6 -8l-14 -4l-33 8l-12 11 l-4 8l2 8l45 22l27 58l12 30l2 15l6 4l8 39l23 26zM446 694h23l6 -28v-68l4 -31l-4 -26l-6 -15l-4 -37l-19 -16l-12 -4l-33 8h-47l-14 6l-8 15l-33 4l-6 12l14 2l23 -8l16 6l16 -6l35 2l29 16l2 11h4l6 61l-6 14l6 31v37h4zM819 1200l2 -4l-2 -16l-8 -13l-57 -24l-54 -17 l-16 -2l-25 15l3 10l12 14l14 4l19 15h8v4h10v4h8l4 4l29 2l20 6l25 2zM1214 -66l21 -8v-14l-14 -6l-66 -6l-33 -4l-37 2l-14 6l-8 12v12l22 9l66 -3l31 5z" />
<glyph unicode="N" horiz-adv-x="1724" d="M1378 -160h-6l-16 15l4 32l-2 17l6 2v16l18 49l9 11l26 59l19 57l24 58l23 59l24 55l23 64l22 59l11 31l16 29l8 28l53 119l23 59l16 29l9 33l12 33l29 61l8 41l6 10l2 15l20 45l23 45l24 28l15 -4l-15 -63l-20 -62l-23 -63l-20 -57h-6v-11h-4v-8h-4v-10h-4v-8l-11 -11 l-16 -26l-2 -33l-23 -61l-16 -29l-2 -16l-10 -11l-17 -59l-20 -64l-25 -61l-26 -57l-27 -60l-4 -14l-10 -14l-4 -19l-13 -12l-2 -14l-10 -11l-4 -32l-10 -23l-2 -12l-17 -21l-14 -30l-4 -3l2 -16l-12 -45l-9 -10l-2 -19l-16 -43v-10h-4l-10 -31zM1520 1233l2 -8v-15l-6 -6 l-31 -2l-55 -37l-29 -14l-43 -31l-15 -6l-38 -29l-25 -24l-27 -17l-45 -47l-47 -45l-6 -4l-4 -18l-12 -12l-13 -23l-4 -16l-10 -13l-2 -24l-23 -39l-4 -17l-16 -18v-33l-16 -39l-15 -26l-20 -62l-10 -26l-7 -7l-2 -12h-4v-8h-6v-10h-4v-8h-4v-11h-4v-8h-6v-10h-4l-4 -29 l-9 -10l-18 -61l-4 -15l-12 -14l-27 -19l-10 15v16l14 47h4l16 64l15 24l2 15h4v8l12 29v10l8 10l27 61l23 64l34 53l4 47l29 51l8 48l6 6l3 12l14 8l18 29l35 35l4 12l23 25l55 36l25 21l47 29l41 39l12 2l8 12l19 8l24 23h39l31 6l22 16zM895 1225l4 -6l-4 -17l-25 -18 l-59 -23l-45 -12l-6 -6l-33 -2l-61 -21l-33 -14l-62 -19l-55 -30l-53 -35l-19 -8h-8l-39 -27l-8 -2l-39 -51l-10 -29l-8 -51l-4 -6l-17 -6l-12 8l-4 18l2 33l4 6l6 49l8 21l13 8l16 25h8l23 26l14 4l51 39l25 15l12 12l31 6l2 4l61 21l31 6l6 6l62 20l28 13l7 6l61 16l63 17 l56 14zM883 350h4l8 -6l-6 -8l6 -31l-2 -16l-12 -13l-2 -14l-11 -14l-4 -15l-10 -12l-2 -22l-10 -15l-21 -59l-4 -16l-10 -9l-6 -20l-6 -6l-17 -62v-6h-4v-8h-4v-10h-4v-8h-6v-11h-4v-8h-4v-10h-4l-17 -31l-14 -4l-10 -8h-66l-8 8l-2 8l4 15l33 4l28 12l19 27l20 63l21 51 l8 23l14 22l6 29l4 4l3 14l22 52l27 59l12 31l10 14zM1923 1327l2 -2v-63l-2 -33l-12 -31v-59l-4 -4v-9l-15 -28h-4v-11h-6v-8l-6 -4l-2 -10h-4v-10h-6l-15 -29l-16 -8l-8 31l2 22l24 62v6h4v10h5v8l6 10l10 62l8 26l4 56l8 18zM1487 -330l2 -2l-12 -49l-7 -6l-22 -59 l-4 -15l-10 -14l-4 -14l-7 -5l-2 -12l-10 -14l-2 -10l-29 -17l-16 -2l-10 19l2 14l28 29l17 57l16 63l15 37l20 23l18 -4zM455 698v4h18l10 -26l-4 -31l-6 -12l6 -64l4 -65l-28 -29l-27 -4l-16 4l-17 10l4 17l25 18l14 25l4 37l9 30l-7 64l2 16zM590 -72v-4l-6 -14l-15 -8 l-12 -2v-4h-65l-35 8l-11 8v22l7 7h32l17 6l33 2l38 -4l13 -8zM346 489l-2 -4l-55 15l-13 10l-2 6l5 10l32 4l17 -4l18 -14v-23zM1901 1358v4l10 -6l-4 -8l-11 4z" />
<glyph unicode="O" d="M1681 444l5 -2l6 -8l2 -14l-15 -29l-10 -10l-31 -53l-12 -13v-8l-47 -39l-53 -43l-13 -10h-8l-8 -12l-14 -2l-10 -11l-33 -8l-23 -18l-14 -4l-21 -13l-16 3l-63 -23l-31 -2l-66 6h-12l-4 -4l-4 4l-33 -6l-29 -12l-24 -25l-4 -14l-39 -49l-17 -15l-8 -12l-14 -4l-43 -51 l-27 -31h-8l-14 -18l-15 -3l-34 -22l-13 -2l-6 -12l-14 -7l-21 -16l-14 -2l-4 -6l-37 -17l-10 -10l-58 -26l-61 -11l-70 -6l-65 -4l-66 -8l-32 6l-21 8l-6 6l-33 5l-12 8l-2 8l10 16l16 2l58 -14l61 -4h37l8 4l66 4l30 10h25l12 13l64 18l26 16l23 9l4 10l31 8l26 16l52 43 l45 31l4 8l12 2l21 27l18 12l2 13l47 45l41 51l25 24l22 17h133l66 6l59 16l19 17l14 4l14 14l13 4l8 13l29 12l18 12l10 14l15 7l12 12l12 4l21 27l18 14l2 8l39 49l41 47h20zM1245 334h-4l-8 33l12 30l33 45l4 31l14 29v14l11 8l4 25h4l12 31l10 12l15 63l22 33l12 29 l9 67l12 62v4h6l4 33l10 24l9 37l-4 14l8 64l8 70l2 65l14 53l17 -2l14 -49v-33l-8 -75l-2 -31l-8 -31l6 -14l-19 -66v-55l-18 -61l-6 -29l-13 -31v-16l-10 -23l-18 -67l-25 -62l-22 -45l-9 -33l-6 -4l-20 -57l-6 -23l-13 -8l-12 -28l-18 -27zM569 993h4l5 -8l-9 -57l-8 -2 l-18 -27l-6 -16l-9 -4l-4 -15l-20 -28l-15 -48l-10 -8l-8 -59l-27 -62l-32 -55l-2 -4l6 -33l-4 -6l-6 -31l-19 -32l-4 -52l-4 -4v-14l-8 -18l-6 -68l-9 -63l-4 -41l-12 -17l2 -12l-8 4l-21 29l2 63l4 29l-2 33l13 67l2 12l4 5l10 63l19 61l6 7l4 14l22 35l-6 22l10 29l11 10 l4 15l8 10l14 57l19 57l12 29l12 12l17 27l12 43l39 55zM1087 1348v-7l-12 -18l-65 -16l-27 -17l-47 -47l-39 -55v-8l-10 -21l-17 -53l-12 -68l-12 -65l4 -64v-69l-2 -66l4 -37h4v-8l6 -10l6 -41l-20 -6l-6 4l-11 63l-4 31l-12 43l-8 14l-2 31l4 68v67l6 62v16l4 6l2 35 l21 57l16 27l12 43h4v10h5v8l10 5l2 12l37 47l12 4l8 12l51 27l48 4l4 -4l30 -6zM334 172l2 4h14l17 -24v-33l-7 -6h-8l-14 28l-6 25zM1452 1282l2 4h19l8 -33l-4 -14h-19l-8 31zM1448 1409l2 -2l-4 -18l4 -15l-8 2l-19 21l-2 10l6 4z" />
<glyph unicode="P" horiz-adv-x="1413" d="M1556 1180l3 4l14 -4l14 -47l8 -72l-4 -62l-10 -32l-2 -33l-10 -41l-6 -6l-2 -33l-7 -23l-10 -8l-2 -14l-10 -14l-6 -33l-4 -4l-15 -41l-45 -51l-10 -29l-8 -4l-10 -12l-9 -3l-16 -26l-31 -33l-8 -16l-53 -41l-53 -31l-27 -14h-6l-14 -11l-58 -22l-47 -16l-57 -13l-70 -8 l-49 2l-6 4l-6 19l2 8l12 6l63 6l64 17l63 8l11 6l26 6l13 12l20 8l10 11l31 10l51 37l19 18l30 13l25 20l43 51l12 10l13 33l12 15v8l10 14l2 10l12 11l27 59l6 6l10 33l5 31l16 26l8 29l2 35l17 45l-7 61l-8 31l6 63zM655 471l4 -2v-18l-10 -19l-8 -2l-18 -24l-5 -25 l-12 -12l-20 -52l-21 -47l-2 -22l-20 -47l-6 -6l-7 -31l-16 -45l-16 -25l-25 -59l-24 -62l-5 -16l-41 -49l-51 -14l-67 6l-64 -4l-57 8l-10 8l2 20l6 5h63l64 2l65 -5l29 19l6 12l10 8l4 25l7 4l12 29l6 4v8h4v10h4v8h4v11h6l5 32l4 5v8l10 10l4 23l6 8l6 30l17 45l8 15 l6 22l27 58l24 63l23 29v8l16 25l27 20l16 6zM762 1446l4 -2l-8 -17l-33 -16l-63 -6l-7 -2l-4 -8l-10 -2l-4 -9h-8l-11 -10h-14l-24 -8l-13 -12l-12 -4l-49 -45l-49 -48l-23 -26l-2 -10l-12 -9l-17 -26l-20 -23l-27 -59l-12 -45l-6 -10l-8 -45h-4l-11 -64l15 -61l-2 -15 l-6 -8l-19 -2l-6 10l-4 37l-14 66l12 63l6 47l6 4l21 64l32 51l11 31l41 49l22 22l19 27l49 37l49 33l12 4l4 6l27 12l63 13l23 6l31 16l30 4zM899 1075l-4 -2l-4 -22l-14 -11l-13 -28l-6 -4l-8 -45l-6 -7l-13 -41h-6v-10h-4v-8h-4l-8 -29l-10 -8v-10l-6 -2l-9 -31v-22 l-16 -25l-20 -63l-11 -15l-26 -8l-9 6l-6 15l2 16l29 53l6 6l4 29l6 4l9 14v9l14 18l2 45l4 2l14 29l17 22l4 33l6 4l2 17l10 20l6 4l7 17l30 45l9 22l10 4l2 12l24 23v4l17 6l24 21l21 24l12 4l2 5l23 -9l-2 -6l6 -12l-4 -14l-21 -25l-35 -25l-4 -8l-14 -4zM344 809h4 l10 -37l-6 -6l-2 -10l-47 -51l-8 -11l-31 -16l-47 -35l-27 -22l-18 2l-14 18v10l18 25l55 39l21 20l22 6l41 35l2 19l7 12zM983 1448v-14l-31 -4l-61 4l-70 -4l-16 2l-12 6l-5 6l5 14l10 10l31 7l67 -5l68 -10l6 -2zM829 428l2 -4l-8 -14l-14 -7l-68 13l-18 6l-6 6l-2 18 l6 5h33l63 -15l8 -2zM1569 1221v-4l-23 -5l-6 7v8l23 4z" />
<glyph unicode="Q" horiz-adv-x="1445" d="M1468 938h15l8 -14l-6 -64l-4 -31l-4 -2v-14l-17 -61l-20 -64l-10 -29l-9 -4l-8 -30l-27 -52l-16 -47l-18 -34l-6 -5l-15 -30l-4 -17l-12 -12v-10l-8 -4l-7 -15l-8 -4v-10l-12 -12l-10 -25h-4l-33 -51l-39 -51l-37 -49l-16 -25l-62 -51l-24 -41l-6 -6l-5 -15l-24 -24 l-16 -6l-9 -9h-10l-12 9l-4 8l2 16l33 35l6 14l45 48l41 47l41 53l18 20l6 15l6 4l35 49l8 12l2 12h7l12 29l6 4v8l16 27l11 8l14 27l10 8l6 29l6 4l7 14l8 4l26 58l25 49l14 10l2 25l7 6v6l6 4l2 47l6 10l4 21l8 12l2 12h4v11h4v8l11 26l12 68zM1028 1384v-6l-4 -12l-37 -4 l-22 12l-39 4l-45 -20l-66 -8l-29 -9l-59 -32l-29 -17l-45 -43l-49 -45l-43 -51l-6 -16l-12 -11l-13 -22v-8h-4v-11h-4v-8l-16 -24l-23 -62l-18 -59l-10 -68l-4 -33l-17 -18l-14 8l-6 66l10 65l6 33h4v8l23 41v6l6 4l6 33l29 60l14 26l25 25l4 14l10 4l2 13l18 16l7 16 l43 35l4 14l26 19l19 22l12 2l27 19l18 2l10 10l29 6l20 17l64 12l68 6l63 -8l14 -6l27 -4zM2009 -473l2 -4l-2 -15l-8 -14l-53 -41l-29 -24l-14 -2l-19 -19h-10l-4 -10h-10l-4 -8l-54 -35l-65 -17l-60 -22l-57 -12l-68 2l-32 -2l-33 4l-62 22l-51 23l-2 8l6 14l33 -2 l55 -12l15 -8l61 -6l29 -2l67 10l35 6l56 23l57 22l31 16l51 39l10 11h10v6l23 12l14 18l47 25l13 8l14 -6zM233 -262l3 4l28 2l66 -8h20l27 6h37l30 8l33 2l62 19l28 6l58 33l39 18l2 6l22 10l10 13l37 16l15 -2l18 -16v-13l-6 -12l-53 -35l-15 -2l-4 -8l-12 -4l-6 -6 l-58 -21l-28 -16l-35 -14h-57l-60 -25l-63 -2l-66 2l-26 8h-17l-16 8l-10 11zM426 117l-2 -4h-68l-30 2l-31 -4l-47 -35l-10 -33l-11 -12l-16 -2l-12 10l-4 33l2 8l6 4l14 25l37 36l14 7h68l29 2l32 -7l27 -18zM1468 1268h15l12 -29v-14h6l6 -64l11 -63l2 -29l-13 -63 l-6 -25l-8 -8l-16 -2l-9 28l11 64l-2 70l-9 55l-4 4l-2 68zM649 602l2 -2l2 -27l-6 -67l-10 -29l-16 -45l-29 -22l-21 -4l-16 2l-16 8l-13 12l2 8l9 8l26 2l21 25l20 57l4 43l21 33zM512 446v-10l-12 -14l-68 6l-26 12l-9 15l4 10l25 6l63 -18l17 -2z" />
<glyph unicode="R" horiz-adv-x="1402" d="M741 537l2 -5l-47 -6l-28 -18l-17 -25l-18 -59l-17 -41l-14 -29l-4 -16h-4l-10 -31l-17 -31l-8 -6l-14 -51l-23 -65l-18 -29l-2 -29l-25 -47l-4 -18h-4l-16 -29l-11 -63l-43 -37l-51 -6h-67l-72 2h-64l-8 8v22l8 9l33 4h68l63 2l35 -2l29 8l10 12l4 16l12 13l19 43l18 18 l10 31l7 6l2 33l28 55l21 64l12 18l6 31l23 41l2 12h6v10h4l6 31l29 57l2 15l6 10l12 53h4l9 29l34 22h27l21 -6l26 -16zM1534 1284l2 4l14 -4l21 -49l4 -66l16 -63l2 -31l-12 -65l-6 -66l-6 -12l-13 -66l-6 -14l-10 -8l-12 -43l-12 -23l-9 -4v-10l-8 -4v-10l-8 -2l-6 -21 l-27 -20l-28 -35l-35 -54l-17 -6l-10 -14l-41 -18l-4 -7l-16 -2l-19 -14l-2 -8l-24 -21h-9l-8 -12l-63 -16l-64 -19l-16 2l-15 9l-2 8l9 14l12 10l65 17l50 26l32 8l13 9h6l4 6l20 10l4 14l29 15l51 43l29 37l29 32v9l10 6v8l25 43l6 6l6 21l8 4l2 12l10 12l4 31l13 29v8 l10 10l8 57l2 62l2 71v15l6 14l-12 60l-6 32zM825 1456v-6l-2 -10l-10 -10l-33 -5l-28 -8l-15 -8l-65 -6l-56 -21l-53 -28h-10l-47 -45l-4 -6l-29 -11l-16 -2l-19 -26l-12 -31l-23 -33v-8h-4l-16 -29l-16 -18l-9 -37l-6 -4l-6 -23l-12 -24l-4 -19l2 -8l-15 -63l-6 -15l-8 -4 l-18 4l-9 15l7 65v6h6l10 66l31 57l35 58l30 55l37 14l19 27l41 41l30 10l21 25l18 8l10 10h9v4l12 2l26 19l66 14l68 14l41 8l10 -6h18zM973 1276l2 4h16l6 -14v-19l15 -28l4 -29l-6 -12l-49 -48l-50 -49l-28 -47l-11 -10l-12 -31l-10 -14l-4 -16l-6 -9v-8l-11 -14l-4 -17 l-14 -18l-18 -45v-8l-11 -15l-2 -32l-4 -11l-10 -10l-23 -2l-10 14l4 31l23 53l14 31l14 19l15 63v10l26 39l7 4l8 29l14 27l23 22l41 51l24 25l17 10l12 21l-4 34zM1169 231h9l12 -6l6 -28l-4 -58l-4 -61l-10 -31l-7 -63l-6 -33l-20 -62l-4 -65l-11 -33l-2 -29l5 -34 l-3 -43l-8 -15l-6 -4h-18l-6 8l-2 37l6 29l-6 65l2 17l4 6l4 45l18 61l8 68l9 55l2 13l4 4v14l6 10l2 52l6 16l2 35zM301 852v29h25l16 -56l8 -26v-37l-8 -10l-2 -11l-53 -39l-4 -2l-2 -8l-11 -2l-6 -10h-8l-25 -23l-28 -2l-10 -24l-15 -10l-16 2l-15 12l13 6l10 14l12 2 l8 9l15 6l4 33l51 38l39 29l4 12l6 4v31zM1239 -436h18l9 -15l2 -63l-6 -39l6 -31l-6 -22l-19 -29l-18 -14h-66l-18 -6l-4 6l-25 2l-4 6v10l8 13h49l49 28l3 8l4 2l2 64l4 63zM1057 1423l-4 -4l-29 -4l-68 12l-36 3l-31 6l-17 14l2 8l17 12l67 -12l58 -2l4 -6l24 -8z M1163 336l2 2l21 -2l10 -33l-4 -33l-14 -6l-13 6l-6 13z" />
<glyph unicode="S" horiz-adv-x="1384" d="M1614 1456l8 12h16l9 -8l12 -55l4 -39l-8 -41l4 -18l-14 -41l-17 -27l-2 -33l-6 -26l-10 -11l-2 -10h-4v-10h-5v-8h-6l-2 -13l-28 -53l-7 -4l-12 -29l-51 -43l-27 -41l-43 -47l-49 -43l-41 -47l-8 -14l-12 -10l-6 -13l-9 -6h-10l-18 29l2 14l8 17l45 45l45 49l43 47 l49 47l31 39l4 14l19 19l4 14l6 2l35 55l18 25l10 25l10 55l5 4v8l14 25l8 30l-4 66zM1325 379h4l14 -6v-33l-14 -64v-30l-16 -64l-10 -49l-21 -41l-10 -12l-2 -12l-10 -5l-5 -14l-41 -55l-40 -47l-48 -47l-24 -23l-19 -8l-8 -14l-14 -5l-53 -32l-25 -13l-37 -10l-2 -4h-45 v14l4 9l12 2l17 20h8l4 6l62 25l43 33l6 4l6 12h10l4 8h8l11 13l24 16l25 27l16 26l25 25l33 53l18 27l6 22l6 4l4 25l11 20l18 62l14 55l17 63l8 15zM993 561l21 -10l2 -10l-29 -56l-49 -41l-14 -6l-45 -45l-54 -43l-51 -41l-24 -22h-9l-41 -49l-28 -17l-23 -20l-39 -51 l-47 -46l-4 -8l-47 -28h-8l-2 6l-10 8l4 27l26 16l23 22l16 7l8 14l45 47l21 25l14 10v8l15 8l12 17l12 2l6 6l15 4l14 18l12 6l43 52l47 43l25 18l45 51l51 39zM270 -137l17 -8v-9l-33 -57l-4 -22l-12 -9l-5 -12l-10 -12l-10 -31l-10 -10l-13 -60l-2 -26l-10 -31l-2 -61 l-2 -52l-24 -22l-66 -4h-66l-26 10l-4 12l8 19l14 4l66 -8l33 10l16 14v8h4l6 60v39l15 61l2 23l12 10l8 33l8 12l21 55l6 4v11l45 47l2 4zM627 698l2 -4l-6 -12l-35 -2l-35 6l-31 -4l-59 -25l-53 -32l-25 -23l-33 -43h-4l-14 -22l-12 -31l-15 -64l-8 -65l-4 -8l-8 -4l-15 6 l-6 65v31l19 63l2 17l8 4v8h6v10l23 23l16 26l47 48l35 14l8 12l14 4l13 11l59 10h68l26 -2l17 -13v-4zM1341 1432l2 -5v-16l-36 -22l-19 -3l-26 -38l-5 -33l-10 -12l-8 -60v-72l2 -16l-8 -22l-8 -3l-15 7l-14 59l4 66l2 65l2 8l6 4l4 29l23 23v6l29 30h8v5h10l2 4l49 4z M823 -219l2 -4l-4 -15l-10 -10l-68 -8l-67 -2l-60 2l-67 2l-31 6l-4 6h-14l-13 11l-2 22l15 4l59 -12l33 -6l70 4l32 -4l31 2l31 12l45 4l14 -6zM1280 745h27l4 -18l4 -2l6 -59l6 -72l14 -57l2 -70v-51l-10 -10l-12 -5l-6 5l-10 59l2 57l4 6l-8 66l-17 63l-10 66l-2 8z M782 895h15l8 -14v-27l-23 -63l-2 -7l-14 -8l-6 -8v-8h-4v-10h-6l-2 -35l-9 -17l-26 -22l-11 -2l-26 12l12 23l12 12l15 29l16 18l14 68l23 49zM281 326l2 2l20 -2l6 -33l-4 -17l-16 3l-10 10l-3 16z" />
<glyph unicode="T" horiz-adv-x="1343" d="M1591 1247v-2l2 -10l-4 -6l-20 -8l-35 -54l-2 -16l-10 -4l-2 -14l-31 -58l-6 -6l-15 -63l-4 -23l-14 -18l-12 -50l-13 -24l-12 -14l-20 -64l-15 -27l-4 -20l-18 -37l-10 -8l-5 -43l-16 -21l-6 -20l-10 -10l-9 -45l-6 -7l-6 -32l-14 -19l-2 -8l-10 -8l-7 -21l-4 -2 l-12 -30l-6 -35l-21 -43l-6 -4l-28 -62l-27 -59l-29 -59l-28 -56l-41 -49l-45 -47l-45 -49l-17 -19l-37 -8l-4 -6l-14 -4l-29 -39l-39 -22l-2 -5l-30 -6l-48 -18l-12 -10l-61 -11l-21 -8l-63 -8l-33 2v4l-31 4l-6 4l6 27l13 4l65 -6l51 14l6 4l15 -2l61 17l29 22l18 4l4 11 h11v4l51 24l26 6l11 -2l16 17l4 12l45 47l19 25l12 10l6 14l23 19v6l20 26l2 9l21 22l32 53l2 9l11 4l4 14l10 10l4 15l10 8l4 18h5v10h4v9h6v10h4v8h4v10h4v8l6 11l21 63l24 62l11 28l16 29v8l12 12l23 48l2 32l16 27l25 59l24 62l6 31l25 55l27 57l22 55l12 31v8l7 13 l12 10l4 14l16 25v26l21 27l2 14l10 11l6 41l13 10l8 16l30 13l19 -3l14 -6zM2247 1417l4 -2l-10 -31l-35 -57l-39 -41l-15 -4l-43 -35l-32 -6l-25 -14l-10 -2v-4h-10v-4l-64 -11l-61 -8l-64 2h-33l-24 -6l-64 12l-69 4l-13 7l-6 14l62 12l67 2l62 -8l35 -2l67 12l27 2l4 4 l57 15l60 22l8 10l12 3l25 20l14 4l41 49l6 2l17 29l24 23h10zM543 651h10l14 -6l6 -67v-35l-12 -43l-10 -13l-27 -10l-35 -6l-28 -10l-43 -27l-15 -4l-43 -37l-6 -24l-10 -11l-6 -43l-6 -47l-6 -6l-19 -2l-10 12l-2 70l10 45l12 12l11 31l32 37l13 2l26 16l56 17l6 6l33 4 l34 35l4 65l5 29zM817 1393v-4l-2 -9l-14 -6l-64 4h-30l-64 11l-65 -11l-33 -4l-49 -24l-11 -2l-16 -21h-8l-17 -18l-8 -4l-2 -54l-8 -10h-18l-11 39l6 16l21 27l8 35l10 20l41 23l15 2l24 14l27 6l67 4l74 -2l62 -10l30 -2l29 -12zM797 995l6 -6v-16l-19 -23l-63 -30 l-57 -25l-62 -16h-35l-30 -7l-33 2l-21 9l-6 6l-2 16l8 10l70 5l63 10l25 4l4 4l19 2l30 16l17 5l4 6l20 6l13 12l22 10v4zM1188 1309v-4l-6 -5l-43 5l-6 4h-41l-21 12l-4 20l31 7l45 -2l41 -25zM360 -106l2 2l64 -19l25 -6v-23l-7 -4l-30 9h-29l-27 14zM967 1366v-14 l-15 -6l-24 4l-4 6l-45 8l2 20l6 5l16 -3l12 -6l43 -4zM418 915v-4l-8 -4h-17l-14 6l-10 13l-2 12l6 4l41 -14z" />
<glyph unicode="U" horiz-adv-x="1806" d="M1356 1417l2 -2v-18l-8 -23l-45 -49l-54 -41l-32 -45l-9 -4l-4 -33l-16 -51l-12 -10l-4 -8v-19l-13 -31l-2 -16h-6v-8h-4l-6 -29l-15 -18l-4 -17l-16 -16v-33l-18 -24l-19 -62l-18 -47v-10h-6v-8l-9 -11l-4 -16l-20 -31l-13 -28l-14 -23v-33l-18 -61l-31 -55l-10 -13 l-19 -51l-22 -61l-21 -64l-4 -14l-10 -10l-2 -17l-19 -57l-10 -14l-16 -9l-6 2l-6 27l4 4v47l20 47l23 60l26 51l13 55l6 8l2 13l10 12l2 8l10 12l13 31l6 4l4 33l24 43l15 43l6 31l27 61l20 62l16 24l7 23l6 4l10 31l16 12v10l15 25l6 59l4 2l8 29l29 37l8 14v8l4 4l6 37 l8 21l13 14l4 16l16 17l14 28l43 54l43 47l25 28l18 -2zM2021 434l4 -2l-8 -33l-14 -30l-10 -11v-6l-13 -12l-8 -16l-16 -17l-31 -53l-10 -12v-9l-10 -10l-11 -22l-12 -11v-8l-12 -10l-6 -12l-52 -45l-14 -9l-6 -14l-27 -22l-6 -15l-47 -43l-43 -39l-20 -6l-13 -10l-32 -2 l-48 -33h-24l-6 4l-10 -2l-19 -20l-65 -2l-58 10l-6 14l2 11l10 8l62 -11l69 -4l9 2l6 13l12 10l31 12l26 17l17 18l30 14l50 39l45 45l30 37l23 13v8l12 10l29 45l47 39v8h4l12 29l21 26l4 15l18 26l25 50l6 4l8 20l6 2l11 14l18 -2zM1966 1399l4 -2l-2 -33l-22 -64l-9 -10 l-2 -14l-10 -12l-10 -31l-33 -59l-20 -46l2 -28l-21 -47l-22 -52l-19 -47l-10 -12l-4 -12l-12 -10l-9 -39l-8 -21l-2 -16l-10 -4v-9l-6 -4l-4 -12l-15 -10l-12 -2l-8 14l4 33l14 29l29 36l12 68l27 57l24 50v32l5 15l22 30l14 62l7 14h4l6 31l10 10l2 10h4v11h6v8l19 22v21 l10 28l12 21l15 4l16 -6zM784 1092l4 -2l5 -9l-2 -14l-11 -12l-26 -11l-27 -16l-22 -2l-5 -4h-8l-10 -10h-14l-62 -19h-8l-10 -10l-60 -20l-51 -23l-41 -20l-24 -25l-35 -25l-2 -12l-13 -8l-22 -43l-6 -41h-6v-25l-4 -8l-9 -4l-14 6l-8 13v32l6 39l10 35l25 20l18 27l47 47 l37 17l6 8l19 4l18 14h8l23 19l8 2l10 10l23 2l61 23l60 18l65 20zM1688 784h8l14 -6l6 -22l-6 -41l-16 -27l-11 -29l-12 -18v-14l-18 -47l-33 -54l-2 -24l-23 -62h-4l-16 -47l-6 -37l-6 -16h-7l-22 -61l-14 -64v-16l-7 -13l-6 -4l-18 2l-6 4l2 60l4 4l8 63l16 27l21 66 l16 26l2 31h4l9 31l6 6v14l12 6l6 31l8 12l11 39l10 8v9l4 2v18l18 45l23 57zM1194 137l2 -2l-2 -16l-16 -27l-45 -49l-48 -47l-24 -23l-31 -12l-6 -12h-8l-41 -25l-51 -43l-123 -28l-64 -5l-28 5l-4 4l-29 6l-6 6l-2 10l4 10l14 7l31 -7l65 2l58 15l63 22l10 2l13 13l24 4 l41 22l43 49l19 15l6 14l47 41l45 47l8 10h19zM440 590h23l12 -27v-65l2 -62v-33l-4 -22l-24 -19l-64 7l-29 4l-14 6l-18 2l-48 20l-22 7l-8 20l14 4l27 -4l24 -10h31l66 -8l14 6l18 20l-6 64l2 67zM1321 1513v-10l-14 -4l-9 4v10l15 5z" />
<glyph unicode="V" horiz-adv-x="1691" d="M1982 1626l5 2l8 2l12 -6l10 -31l-2 -24l-6 -6l-8 -66l-10 -65l-13 -64l-10 -59l-12 -27l-10 -35l-7 -8l7 -31l-17 -55l-10 -33l-35 -53l-8 -66h-4l-21 -45l-4 -24l-10 -8l-4 -33l-41 -49l-6 -15l2 -24l-6 -4l-4 -33l-17 -25l-8 -6l-31 -49l-8 -22l-33 -46l-28 -51 l-19 -28l-18 -19v-10l-10 -4v-8l-19 -15l-4 -14l-22 -23l-2 -12l-23 -16v-8l-45 -45l-27 -21l-10 -29h-4l-2 -8l-18 -14l-3 -12l-36 -33l-13 -2l-18 -13v-4l-12 -6l-45 -47l-29 -29l-10 -2l-11 -14h-8l-10 -12l-12 -6l-35 -35l-12 -2l-23 -27l-12 -4l-11 -14l-57 -31 l-53 -37l-59 -31l-15 -8l-4 -6h-8l-4 -10l-53 -10l-74 2l-68 -2l-65 -4l-31 8l-6 16l6 12l10 7h72l65 -3l31 -2l31 9h16l60 22l57 37l31 25l14 4l4 8h8l6 10h11l6 10h8l51 35l29 19l47 45l31 24l28 19l48 45l24 22l14 8l21 27l14 8l27 31l14 2l13 10l12 2l18 17l13 30l32 54 l13 14l6 14l22 23l8 14l15 10v9l37 41l28 57l35 55l37 51l6 23l8 2l6 20l33 48h10l17 30l4 31l12 49l-2 10l33 56l4 55l6 4l29 57l10 46l6 18h6v10h4v8l23 33l-4 66l14 65l13 31l6 31l4 61l12 31v63zM1311 1548l4 21h16l15 -19l12 -47l-2 -10l18 -43v-20l-24 -23l-29 -12 l-27 -19l-30 -30v-11h-7l-6 -14l-6 -4l-4 -14l-10 -13v-12l-29 -43l-2 -12l-6 -6l-6 -66l-12 -66l-7 -8l7 -6l-9 -22l-2 -19l-14 -33l-4 -65l-2 -14l-15 -31l-10 -47l-6 -4l-10 -37l4 -39l-4 -15l-8 -12l-2 -14l-19 -23l-2 -55l-10 -33l-2 -30l-4 -7l-2 -18l-4 -4v-39h-4 l-3 -16l-12 -17v-26l-10 -52h-4v-8h-6l-11 -61l-2 -8l-16 2l-6 6l-2 35l10 43l4 32l23 47v37l8 31l6 6l4 66l8 14l4 33l7 14l6 4v62l4 22l4 4v15l16 28l6 45l7 15v18l8 12l-4 33l10 27l8 53h6l8 59h5l10 43h4l4 64l6 6l10 66l2 22h5l10 23l10 8l2 12l14 10l39 54l8 12l27 12 l6 8l13 2l24 25l6 14v15zM823 1135l4 -2l-2 -17l-10 -10l-31 -14l-12 -13l-59 -16l-49 -2l-11 -14l-12 -3l-25 -18l-61 -22l-49 -23l-8 -2l-4 -8l-43 -19l-11 -12l-28 -18l-45 -45l-31 -27v-10h-4v-9l-4 -2l-2 -22l-4 -6l4 -31l-7 -6h-22l-10 10l-2 31l8 51l12 27l12 12 l5 14l24 21l23 26h8l4 9h10l4 10h11l4 8h10l2 8l12 6l19 2l55 35l59 23l15 2l6 6l41 14l35 4l16 19l47 20l68 11l14 4zM461 637h4l8 -10l2 -68l4 -67l2 -31l-6 -21v-14l-6 -14l-27 -21l-65 8l-31 7l-10 12l6 14l12 4l43 -2l17 8l18 23l-2 16l12 66l-4 67l6 21z" />
<glyph unicode="W" horiz-adv-x="2144" d="M2671 1571l4 2h8l10 -8l-6 -64l-10 -63l-6 -11v-8l-13 -12l-4 -14l-35 -33h-65l-29 -6l-28 -13l-50 -36v-11l-14 -8l-2 -12l-18 -25l-13 -39h-4v-8h-4l-18 -53l-15 -35h-4l-24 -59l-21 -47l-2 -15h-4l-10 -47l-15 -12l-2 -16l-28 -56l-23 -45l-10 -61l-27 -56l-24 -45 l-8 -34l-15 -29l-18 -25l-15 -63l-10 -33l-16 -16l-2 -13h-4v-10h-6v-10h-5v-8l-16 -31l-6 -21h-4v-8h-6l-9 -26l-16 -27l-6 -4l-12 -23l-2 -22l-9 -14l-16 -15l-4 -14l-8 -4l-6 -15l-9 -4l-32 -55l-13 -8l-4 -12l-16 -25l-49 -49l-45 -49l-11 -13l-30 -10l-27 -14l-16 -4 l-15 -19l-12 -2l-41 -22l-8 -10h-10v-5h-11l-4 -6l-53 -22l-70 -8l-69 -7h-33l-31 9l-12 8l-10 18l63 10l66 -6l63 15l27 4v4h8v4h10v6h9v4h10v4h8v4h10v7l33 8l4 4h14v6l33 8l4 6l25 17l49 47l49 45l37 37l8 18l19 12v9l12 10v8h6l4 14l8 4l11 19v6l6 6l2 12l24 31l5 15 l10 10v8l10 10l6 15l10 8l13 28l10 15l2 14l6 6l6 29l13 10l10 29l6 4v8l14 27l13 49l6 4l8 41h4l4 24l10 13l2 12l9 4l6 17l12 10l10 22l2 25l10 37h5v8l14 18v7l16 30l6 47l27 56l27 63l24 55l6 21l11 8l2 16l12 13l4 33l8 28h4l2 8l13 15l22 61l21 41l6 6l2 13l12 6 l39 53l10 14h9l26 17l35 12l49 -8l31 6l12 10l14 29l17 65l6 33l10 23zM1772 1171l-3 -2l3 -8l-9 -33l-26 -61l-6 -6l-5 -19l-16 -20l-2 -35l-8 -31l-8 -10l-19 -45l-10 -10v-8h-4l-4 -33l-10 -33l-25 -43l-12 -37l-11 -8l-6 -29l-16 -45l-14 -24l-23 -68l-10 -20v-8h-4 l-2 -15l-13 -18v-10h-4v-9l-18 -61l-10 -12l-4 -17l-9 -12v-8l-10 -11l-16 -63l-11 -33l-16 -28l-4 -56l-6 -12l-15 -2l-14 4l-6 14v19l10 33l4 47l23 55l8 33l27 55l20 35l8 20l4 31l25 66l27 38l12 64l22 59l5 17l10 8l6 29l12 26l17 23l22 65l25 60l14 28v7h6l6 14l7 4 l4 16l6 6v35l12 31l18 25l15 59l22 63l25 60l22 61l7 17l22 20h10l13 -8l6 -12l-2 -35l-6 -6l-11 -31l-28 -57l-9 -41l-12 -11l-2 -12l-10 -4l-12 -24zM797 186h-11l-8 2l-6 13v16l12 51l13 17l6 57l18 39l8 4v10h5v8h4v11h4v8l8 4l14 59l27 62l10 28l17 29l20 53l27 60 l12 49l4 4v16l10 9l19 51l8 31l10 10l4 14l12 10l17 68l6 12l27 21l6 -4l8 -17l-21 -63l-12 -25l-8 -35l-14 -41l-6 -2l-3 -8l-10 -12l-6 -21h-4v-8h-6v-10h-4l-10 -64l-3 -6l-10 -8l-20 -59l-27 -56l-8 -34l-25 -60v-6l-26 -41l-8 -33l-23 -51l-4 -22l-16 -29l-13 -12v-15 l-6 -10l-8 -63zM801 1120l4 -2l-12 -10l6 -6l-4 -6l-41 -19v-4l-58 -20l-63 -9v-4h-8v-6h-11v-4h-8v-4h-10v-4h-8v-6h-10v-4h-9v-4h-10v-4h-8v-7h-10v-4h-9v-4h-10v-6h-8v-4l-14 -2l-47 -31h-9v-4l-12 -2l-53 -41l-33 -53l-8 -27l-16 -22l-9 -2l-14 8l-8 12v35l14 24l25 27 l12 21l14 12l19 27l45 24l47 31h8l57 33h9l20 10l49 12v6h11v4l55 15l53 20l57 19l11 -2zM1141 59l4 -2l-4 -22l-45 -49l-27 -23l-8 -14h-10v-4h-9v-4l-12 -2l-55 -37l-12 -2v-6h-9v-5h-10v-4h-8v-4h-10v-6l-64 -16l-63 -9h-68l-55 7l-19 14h-8l-33 14l-2 15l9 4l16 -2 l27 -13h67l31 -2l61 11l33 6l60 26l55 33l45 33l51 37l29 16l18 17h10zM1327 1540l2 4h8l19 -20l14 -68l2 -16l-12 -27l-12 -12l-23 -4l-10 -11h-4l-35 -57l-16 -16v-8l-19 -15l-2 -12l-39 -53l-24 -33v-59l-13 -31l-8 -17l-6 -4l-4 -16l-10 -14l-17 -4l-12 2l-4 32l16 56 l6 28l35 45l8 7l2 34l7 21l6 4l8 14v8l12 13l2 12l35 33l4 14l12 10l2 9l50 43l12 14l6 14l-4 66zM446 600l3 4h14l8 -61v-31l10 -25v-36l-14 -37l-14 -11l-11 3l-16 16l2 16l4 6l2 17h4l4 33l7 18l-5 18h-6l2 17l-6 6zM379 424v-14l-6 -4l-35 12v14l6 4h16l15 -6z" />
<glyph unicode="X" horiz-adv-x="1599" d="M2365 1620l5 -2l-3 -21l-32 -53l-4 -33l-17 -26l-12 -31l-23 -35l-18 -4l-59 19l-62 6l-16 -4v-4l-21 -5v-4l-28 -18l-2 -6h-9l-6 -8h-10l-8 -15l-17 -2l-8 -8l-10 -31l-43 -51l-18 -27l-46 -49l-28 -37l-8 -28l-35 -56l-25 -24l-39 -51l-28 -37l-11 -6l-14 -31l-35 -55 l-24 -41h-4l-7 -13l-45 -53l-6 -4v-8l-8 -4l-10 -27l-12 -14l-13 -27l-37 -51l-32 -39l-27 -18l-12 -29l-21 -23l-2 -14l-8 -12l-2 -10l-8 -4l-6 -21l-7 -4l-8 -31l13 -30l4 -64l-2 -66v-65l6 -66l8 -61l-2 -18l6 -27l-4 -16l-6 -9h-17l-10 13l-8 32l-4 64l-2 65l-4 66 l-6 33l-2 65v68l-5 65l9 27l45 49l37 49l10 15l6 24l37 49l10 13l8 20l15 10l6 19l41 47l32 43l5 12l40 51l37 56l13 12l4 14l10 4l10 29l17 33l24 22l2 13l23 26l18 23l2 8l10 4l3 12l40 52l46 43v8l16 26l4 15l21 26v7l53 40l20 29l21 19l37 16l4 10h8l14 10l29 9l65 -13 l33 -4l31 13l18 26l11 23l18 24l10 35l19 35l16 4zM1057 92l4 4l22 -4l9 -39l-13 -8l-14 -29l-6 -4l-6 -14l-43 -49l-37 -33l-17 -27l-61 -73l-51 -37l-37 -33l-10 -2v-6l-13 -2l-51 -41l-6 -6l-14 -4l-19 -17h-8v-4l-12 -2l-49 -27l-52 -4l-12 -10l-29 -8l-6 -6l-55 -13 l-68 -8l-67 4h-49l-60 25v18l4 7l15 2l59 -11l31 -4l29 4l63 -4l33 4l61 21l25 -2l18 14l47 17l9 8h8l55 32l10 13h11l4 10h8l10 12l37 27l29 14l51 45l26 23l15 22l43 50l24 24l6 12l29 25l4 14l37 56zM993 1212l13 -14v-12l-9 -4h-16l-59 -29l-7 -6l-22 -2v-4l-31 -8 l-47 -5l-55 -34h-4v-7h-11v-4h-10v-4l-53 -12l-6 -6h-14l-5 -4l-32 -6l-27 -17l-25 -22l-30 -13l-25 -16l-22 -25l-25 -61l-10 -47l-10 -12l-17 2l-6 4l-4 33l4 32l10 31l6 8l11 31l45 49l14 4l12 12l31 9l41 22v8l12 11l47 10l23 16l14 4l15 11l32 4l60 20l61 25l64 14 l47 10l4 6zM1481 1481l-8 -8l-31 -11l-27 -16l-47 -49l-18 -23l-21 -63l2 -62l4 -32l-4 -66l8 -31l-4 -63l15 -66l-4 -30l-11 -13l-16 2l-10 8l-4 13l-2 39l-7 30l7 31l-7 66l2 65l-2 66l-4 32l8 64l11 33l32 49l56 39l24 20l31 37l19 -2l10 -10l4 -33zM412 356h8l16 -6 l8 -20l-4 -8v-64l-10 -61v-27l6 -12l-20 -43l-49 -6l-29 -13l-27 -6l-20 -18h-8l-19 -25l-20 -39l6 -43l-6 -18h-19l-12 6l-8 29l8 67v8l14 29l45 43l23 8l70 17l24 16v10l6 4l2 15l6 10l-6 35l4 65v33zM1610 -532l2 2h16l6 -7l17 -59l-2 -16l-15 -23l-22 -14l-13 -13 l-32 -6l-62 4h-18l-23 -10l-32 8l-27 13l-25 4l-4 8l2 16l6 2l7 -4l63 -4l66 4l32 4l17 -2l14 7l23 20zM573 666l5 14h18l6 -12v-29l8 -33v-74l-6 -38l-31 -31l-63 4l-18 2l-21 12v23l8 4l31 -4l8 -4l29 4l22 18v144h4zM1384 -20h15l12 -27l6 -68l4 -61l2 -68l-4 -30l-6 -7 h-18l-6 13l-9 65l4 66l-12 61l4 35zM1608 -438h4l6 -13l-6 -38l-19 22l-8 25l14 6zM1432 1622v4h18l8 -31l-4 -6h-10l-10 10z" />
<glyph unicode="Y" horiz-adv-x="1744" d="M1927 432l4 2h19l4 -8l-4 -33h-6l-9 -33l-37 -51l-22 -24l-2 -9l-12 -10l-23 -35l-2 -10h-4l-4 -14l-12 -8l-5 -13l-47 -47l-43 -51l-24 -18l-47 -45l-52 -45l-20 -9l-12 -10l-8 -2l-23 -22l-18 -9l-25 -20l-12 -2v-4l-15 -6l-4 -9l-14 -4l-8 -12l-10 -2l-5 -10h-10v-4 h-8l-51 -19l-17 -16l-2 -21l-10 -4l-8 -24l-10 -9l-6 -26l-3 -35h-4l-22 -61l-31 -60l-6 -10l-6 -41h-4l-15 -23l-4 -14l-37 -55l-41 -47l-14 -31l-2 -14l-27 -31l-12 -4l-12 -17h-8l-35 -34l-12 -2v-5h-11v-6h-8v-4l-55 -22h-14l-9 -6l-34 -11l-70 -2l-55 4l-25 13l-22 20 l2 8l122 -8l37 2l31 8l59 33l41 27l15 4l22 24l23 17l33 39l20 8l8 41l8 4l11 20h4l24 46h4v10h5v8h6l6 27l8 12l2 16l14 19l7 20l10 12l2 25l6 8l2 17l10 24l6 2v8h4l11 33h4v10h4v9h6l4 47l31 35h8l23 22l53 35l29 12l55 39l51 35l49 39l41 41l12 2l45 45l11 6l6 14l47 50 l39 51l8 14l25 23l6 14l22 24l15 29l47 53l6 17zM1958 1397l4 -2l4 -9l-8 -30l-10 -13l-11 -57l-20 -49l-16 -29l-23 -63l-12 -29l-11 -10l-8 -23h-4v-10l-10 -10l-2 -19l-10 -12l-4 -33l-21 -51l-10 -8l-14 -59l-15 -29l-14 -18l-2 -25l-6 -4v-12l-4 -2l-5 -15l-10 -12v-10 h-4l-18 -52v-8h-4v-10h-4l-13 -47l-20 -49h-6l-9 -37h-4l-2 -12l-6 -4l-14 -31l-21 -60l-8 -30l-20 -41l-21 -64l-24 -43l-5 -22l-12 -8l-4 -19l-18 -29l-21 -63l-6 -10l-14 -6l-4 6l-11 4l-4 6l21 61l4 21h4v10h4v8h6l25 64l2 16l24 60l23 61l29 57l24 62l2 14l12 29l9 33 l14 22l10 29l15 24l18 54l27 59l6 33l16 30l23 62l26 57l11 15l10 43l18 47l6 2l9 35l8 10l22 63l23 58l28 59l9 29l14 28l14 19l9 4zM1321 1464l2 4h14l15 -28l8 -29v-20l-17 -25l-47 -35l-39 -31l-2 -8l-12 -10l-4 -25l-8 -20h-6l-4 -16l-27 -58l-14 -20v-8h-6v-11h-5 l-8 -41l-6 -4v-14l-4 -10l-8 -4v-9h-6l-2 -12l-7 -4l-14 -29l-8 -6l-4 -35l-8 -12l-17 -65l-14 -29l-8 -27l-6 -4l-5 -22h-4l-18 -52l-12 -32l-6 -33l-33 -57l-19 -64l-26 -59l-23 -58l-24 -61l-13 -25l-16 -61l-16 -45l-13 -12l-12 -2l-10 12l-4 16l4 31l20 65l23 60l12 29 v8l10 10l2 22l25 60l18 53l15 31v8l10 6l2 12l22 35l7 33l22 49l25 62l22 57l10 31l19 18l4 23l14 10l4 33l11 28v13h4v10h6l20 63l4 31l25 45v8l6 4l10 31l15 27l33 43h8l6 6l8 20l41 45l14 7l19 26zM670 1032h-11l-18 -16l-8 -21l-31 -8l-20 -10h-15l-57 -27l-31 -14h-10 v-6h-8l-29 -19l-10 -12l-29 -16l-4 -15l-8 -4l-25 -33l-4 -16l-8 -10l-8 -66l-2 -8l-23 -6l-8 2l-6 10l-8 35l14 62l2 14l12 8v10l9 4l24 35l27 25h10l4 10h8l4 6l11 2l41 35l30 4l33 12l6 7l15 4l45 30l65 7l10 -5l27 17l6 10l4 -2l19 6v6h10v4l43 9l12 -7l4 -20l-2 -8 l-26 -15h-23v-4zM1049 41l28 -14l-8 -31l-22 -23l-52 -36l-53 -35l-37 -11v-4h-8v-4l-12 -2l-64 -26l-61 -7h-29l-47 15l-25 -4l-12 6v18l4 6l11 5l30 -11l33 -2l8 6l64 4l61 21l33 10l45 33l51 35l53 41zM446 592h15l12 -4l8 -60l-6 -69l4 -58l-33 -34l-32 -2l-33 8l-64 6 l-14 10l-16 4l-11 10l-2 21l19 6l49 -16l4 -6l33 -9l24 2l23 15l10 24v17l6 8l-4 74l-2 32zM922 -334l2 -2l-6 -14l-52 -41l-57 -29l-27 -16l-2 -6h-8l-10 -11l-29 -8l-8 33l23 33h10v4h8l51 22l31 23l12 4l12 10l17 4l8 11h10z" />
<glyph unicode="Z" horiz-adv-x="1345" d="M944 217l-4 -2l-14 -27l-27 -32v-6l-10 -13l-29 -18l-12 -4l-14 8l-5 10l9 31l47 45l49 43l12 31l39 49l27 24l2 13h6l29 57l43 53l6 6v9l14 10l16 28l13 13l14 24l43 49l25 23l28 39l9 4l4 16l6 2l4 19l10 6v8h4l2 15l29 28l4 17l14 8l2 12l23 21l12 22l19 14l6 17 l26 18l19 35l16 16v9l21 14l39 53l16 27l16 18v8l21 27l24 23l2 12h5v8l43 47l22 19l12 30l19 27l22 23l11 22l12 8l18 27l13 2l8 14l12 2l6 11h10l9 14h10v4l51 41l16 16l11 27l16 -2l6 -4l2 -12h4l5 -19l-9 -29l-45 -34l-10 -2v-5l-53 -38l-25 -21l-45 -49l-12 -12l-4 -15 l-13 -6l-6 -16l-14 -15v-8l-12 -12l-8 -18l-15 -9l-2 -12h-6l-16 -29l-41 -47l-9 -16l-12 -10l-4 -15h-4l-35 -49l-37 -53l-39 -49l-43 -51l-22 -25l-15 -23l-12 -10l-28 -55l-21 -19v-8l-39 -49l-22 -24l-9 -15l-12 -10l-2 -8l-18 -15l-2 -12l-33 -37l-10 -22l-48 -49 l-6 -7l-4 -14l-8 -4l-8 -14l-6 -4l-6 -15l-13 -12l-4 -14l-33 -27l-2 -12l-43 -51l-10 -19l-22 -27zM1864 -401l4 -5l-10 -30l-48 -43l-26 -17l-27 -26l-65 -21l-58 -32l-16 -5l-12 -10l-13 -4h-34l-62 -20h-65l-9 4l-24 -4l-49 14l-15 14l8 15l19 6l33 -8l28 -13h31l57 15 l45 16l33 8l29 17l29 10l59 33l29 14l22 18l23 27l55 37l14 -2zM96 -180v6l25 6h31l57 -14l63 4l68 -4l59 24l60 23l61 20l55 35l41 27l17 -4l10 -11v-14l-20 -27l-17 -14l-18 -4l-8 -10l-17 2l-41 -25l-26 -18l-62 -19l-61 -16l-68 -6h-14l-15 -6l-67 12l-62 2l-4 4h-14 l-27 14zM1004 944l2 -4l-2 -16l-21 -23l-29 -16l-10 -13l-12 -2v-6h-10v-4h-9v-4h-10v-4h-8l-4 -8l-47 -10l-6 -7l-27 -8l-70 8l-65 -4l-62 19l-24 6l-4 4l-2 16l10 6h22l2 -8l64 -12l35 4l31 8l57 -2l33 13l28 16l31 10l53 39l19 16l26 -4zM932 1360v-4l-8 -15l-64 2h-69 l-60 -10l-100 -57l-21 -27l8 -67l-8 -13l-16 -2l-8 9l-8 34l6 33l16 17l6 28v19l51 43l13 10l51 18l72 2h100l33 -10zM283 225v-4l-7 -14l-53 -10l-33 -15l-20 -22l-8 -4l-4 -37l-6 -13l-15 -6l-14 6l-8 31l8 25l14 12l27 39l37 16l28 13l43 -2zM1325 1278v-4l-2 -8l-14 -4 l-17 2l-4 -4l-16 -3l-37 11l-21 12l-4 20l13 9h22l62 -19l14 -6zM1165 1305l2 -5l-14 -6l-68 13l-53 22v14l8 3l70 -9l33 -8l20 -18zM1917 1503l-2 -2l-10 2l-19 23l-8 16l2 10l10 11l13 -2l12 -13l8 -32z" />
<glyph unicode="[" horiz-adv-x="880" d="M997 1513l2 -4v-10l-61 -20l-20 -21l-29 -61l-2 -21l-15 -20l-24 -60l-10 -28l-17 -27l-6 -29l-6 -8l-2 -18l-10 -29l-15 -24l-20 -62l-19 -35l-12 -30l-12 -19l-6 -31l-13 -16l-6 -29l-24 -57l-6 -6l-2 -10h-5v-11h-4l-20 -57l-12 -35l-11 -8l-6 -33l-10 -12l-6 -31 l-25 -55l-14 -51l-29 -60l-6 -6v-8l-25 -57l-20 -49l-10 -39l-10 -13l-5 -20l-16 -19l-16 -4l-11 15l-4 16l9 31l24 55l27 59l10 33l16 35l23 57l2 17l31 57l18 62l16 18v10l5 2v8l8 15l8 35l24 41l7 57l12 10l2 12h4v11h4l15 45l20 43l23 63l12 19l8 32l29 56l16 59l2 10h6 v11h4v8l11 14v10h4l6 33l8 10l8 35l10 4l2 17l23 35l6 30l17 41l41 31l30 4l35 -8l12 -8zM467 -176l4 -2v-17l-10 -30l-10 -13l-9 -28l-14 -25l-25 -63l-18 -23l-43 -18l-68 6l-61 -4l-35 -8h-63l-31 4l-33 -4l-63 8h-88l-13 10v18l4 7l23 6l66 -4l59 2h139l64 -6l12 -5 l68 13l38 24v11l7 2l26 57l25 65l6 13l20 14h11zM383 244h18l9 -17l-4 -32l-25 -33l-19 -62l-10 -30l-18 -33l-4 -14l-6 -7l-5 -18l-12 -12l-2 -21l-22 -57l-21 -33l-22 -2l-7 14l5 29l14 31l2 22l6 2l2 13l12 10l21 63l27 58l2 8l8 4l30 41l7 57l14 15v4zM1229 1702l4 -2 l-6 -27l-8 -10l-5 -14l-10 -4l-4 -21l-8 -10l-21 -64l-26 -14l-19 -25l-12 -10l-16 -6l-11 21l7 16l10 2l24 20l17 64l4 18l35 54l16 24h10zM1016 1520l2 4l14 -6l-2 -17l-8 -2l-6 4v17z" />
<glyph unicode="\" horiz-adv-x="782" d="M547 -27v4h14l10 -22l11 -70l10 -59l6 -72l4 -35l-8 -24l-23 -10l-2 -9l-69 -4h-6l-17 15v8l8 12l15 6l39 -4l22 21l4 8l-2 31l-8 34l-2 33l-12 64l2 67zM477 487h10l13 -6l14 -63l4 -33l6 -12l4 -33l-8 -49l4 -17l8 -4v-14l7 -4l2 -62v-51l-9 -4l-16 2l-12 15l2 16l-6 4 v66l8 30v17l-12 8v24l-4 5l-13 65l-8 29l-4 33zM416 924l2 4h18l13 -29l8 -33l-2 -30l-4 -9h-25l-14 66zM322 1616l2 4h24l10 -29l4 -30l-2 -37l-12 -6l-6 2l-6 26l-12 25l-7 26zM354 1454l2 4h15l4 -6v-18l8 -9l-4 -67l-4 -12l-8 2l-9 10l-10 31v34zM365 1333l2 4h18 l10 -30v-35l-10 -19l-12 7l-11 20zM383 1214l2 3h23l8 -33v-25l-8 -10l-9 -2l-12 6l-6 12zM418 1040h4l12 -28v-33l-4 -8l-16 2l-11 10l-6 16v19l13 20zM412 1128h6l6 -22l-4 -19l-12 -6l-7 4l-4 33l-4 6zM449 702l2 5l20 -2l-2 -41l-20 12l-5 14zM485 639l2 -2l-2 -21 l-16 -4l-10 2l-4 7v16l6 4zM459 784l4 -4v-10l-4 -6l-15 -2l-4 4l2 14l7 4h10zM485 588l2 -2v-8l-14 -7h-10v15l6 4z" />
<glyph unicode="]" horiz-adv-x="878" d="M514 -233h-6l-10 12l-2 8l16 55l10 8l4 15l11 8l12 59l16 31l2 19l13 12l4 24l12 19l10 8l6 29l11 12l14 43v14l22 64l13 26l12 13v8l23 33l10 55l22 47l49 119l9 39l16 37l8 6l6 26l7 9l10 32l14 27v6l10 12l11 29l34 51l5 33l14 29l14 43l6 45l6 4l25 53l6 6l6 31 l21 51l6 21h6l14 53l11 20l14 11l16 28l15 66l18 45v8l19 25l4 22h4l12 31l10 12l6 33l11 29l32 59l27 41l-4 31l4 24l6 13l27 28v9l10 12l8 4l8 -10l-4 -15l4 -24l-24 -58l-27 -32l2 -21l-20 -57l-4 -29l-29 -57l-10 -35l-8 -10l-13 -47l-6 -4l-22 -56l-15 -30l-18 -25 l-2 -33l-27 -59l-49 -123v-8l-10 -11v-8l-4 -4l-4 -24l-9 -7l-22 -55l-8 -16v-10h-4l-2 -23l-15 -20l-4 -15l-10 -12l-21 -57l-14 -31l-6 -29l-6 -12l-2 -31l-13 -26l-20 -25l-8 -16v-9h-4l-4 -24l-11 -4v-15l-8 -12l-14 -63l-10 -21v-10h-4v-8h-5v-11h-4v-8h-6v-10h-4v-8 l-10 -12l-12 -50l-7 -4l-4 -22h-4l-22 -58l-2 -16l-4 -6h-5v-8h-4v-11h-4v-10h-6v-8h-4l-22 -59l-21 -60l-10 -33l-17 -24l-8 -23l-10 -10v-8l-4 -4l-8 -37l-23 -49l-12 -12l-12 -29l-11 -12zM147 -389l-2 4v8l9 10l28 7l66 6h37l32 -6l66 4l45 12l18 20l17 29l26 29h9 l8 -15l6 -4v-16l-14 -43h-4l-2 -14l-35 -33l-25 -4l-74 -2l-30 -2l-31 4l-64 -6l-26 6h-51zM866 1503l-2 -6l-6 -4l-72 -4l-49 2l-10 8l-6 12l8 15l25 4l6 4l65 -8l31 -4l10 -11v-8zM113 -373v-18l-31 -6l-25 10l-32 2l-41 -8l-19 8l2 23l23 8l28 -4l33 4l35 -2l23 -9z" />
<glyph unicode="^" horiz-adv-x="1056" d="M731 961l2 -3v-16l-18 -29l-23 -24l-37 -51l-41 -52l-45 -53l-39 -51l-10 -10l-2 -13l-14 -8l-4 -14l-39 -37l-19 -27l-22 -20l-60 -12l-36 -6h-37l-35 16v16l10 8l31 5l37 -2l26 4l29 12l43 45l12 8l2 12l25 23l8 18l12 13l5 14l6 2l22 31l29 20l31 39l16 27l12 12 l15 25l43 37l8 20l26 29l19 -2zM987 963h29l4 -2l4 -41l4 -7l-10 -59l4 -35v-65l4 -68v-68l2 -34l-4 -25l-18 -14v-4h-7l-2 -4l-63 2l-33 2l-65 -4l-48 6l-6 6l-4 16l8 15l21 6l35 -6h65l45 2l27 20l8 66l-4 63l4 47l6 15l-6 49l10 32l-12 64l-2 16zM1022 1217l2 -3l6 -28 l-4 -68v-67l-10 -19l-15 -4l-8 4l-6 12v35l-6 31l6 16l-6 56l2 18l14 19zM1028 1319l2 -2l-2 -19l-10 -20l-17 -4l-8 4l-6 14l8 31l17 4zM201 557l-2 -6l-6 -4h-19l-6 4v10l16 17l13 -5z" />
<glyph unicode="_" horiz-adv-x="1130" d="M1004 -184h4l16 -6l2 -13l-18 -67l-15 -25l-14 -10l-4 -8l-51 -11l-80 -2l-64 7l-32 2l-66 -7l-68 5h-63l-33 -9l-31 2l-32 9l-29 -5l-68 5l-63 -7l-14 5l-13 10v18l15 8l32 2l33 -6l62 2l67 6l66 -4l32 -4l62 4l37 2l63 -6l33 6l70 -2l32 -2l46 4l38 23l31 51l6 14z M80 -307v-6l-4 -4l-64 -2l-67 -5l-62 2l-12 9l-4 14l2 8l12 10l62 -2l67 -4l58 4l10 -8zM221 -289l2 -2l2 -10l-6 -14l-10 -7h-72l-10 9l2 16l23 16z" />
<glyph unicode="`" horiz-adv-x="757" d="M758 1104v-6l-27 -4h-69l-39 -2l-27 10l-4 6l2 14l29 11l73 4l33 -4l27 -9z" />
<glyph unicode="a" horiz-adv-x="1191" d="M1155 975h19l10 -23l-6 -28l-13 -31l-6 -2v-8l-35 -60l-10 -53l-6 -10l-4 -21h-4l-19 -51l-14 -43h-4l-2 -10l-6 -4l-4 -15l-13 -12v-8l-6 -6l-20 -60h-6v-10h-5v-8h-4l-2 -12l-8 -13l-4 -26h-4l-18 -62l-5 -16l-30 -45l-13 -55l-10 -23l-6 -67l-2 -15h-4l-8 -20l-19 2 l-8 10l-6 33l12 65l19 41l10 31l6 6l4 31l8 26l6 7l13 30l6 6l4 17l6 6l10 33v10h7l4 33l18 26l6 21l6 6l11 53h6l18 58l27 53l24 61l13 27l8 31l6 6v14l10 8l2 15l8 14l2 14zM1397 442h4l4 -8v-18l-6 -17l-13 -12l-2 -14l-16 -29v-8l-18 -19l-4 -14l-27 -20l-6 -17l-29 -37 l-2 -12l-41 -53l-39 -47l-47 -49l-12 -9h-8l-11 -14l-18 -8l-23 -29l-34 -33l-64 -24l-24 -19l-41 -18l-37 -2l-33 -14l-29 -2l-63 8l-6 6l4 18l28 9l66 6l31 12l65 12l31 10l29 25l16 6l33 35l16 6l47 45l10 12l5 13l22 16l4 15l12 6l37 32l9 19l36 57l13 10v11l10 4v10 l8 4l6 21l15 8l4 12l12 14l2 9l6 4l4 14l13 10l32 45l8 6zM326 219h-7l-14 2l-6 15l-6 36l31 123l6 4l4 43l4 4l8 29l23 51l12 27l20 27l27 57l35 41l2 12h4l27 39l28 27l47 30l21 13l37 -2l24 -13l-2 -26l-10 -6h-14l-19 -7l-6 -6l-14 -4l-53 -37l-15 -20h-4l-14 -19v-8h-6 v-10h-4l-5 -18l-10 -5v-10h-4v-8l-10 -6v-8l-10 -13l-13 -30l-32 -56l-19 -51l-8 -4l-4 -14l-8 -10l-2 -17h-5l-8 -63l-14 -64l-6 -39zM555 59l2 -2l-14 -28l-15 -19l-14 -4l-20 -22l-27 -17l-12 -12l-15 -4l-10 -12l-31 -11l-6 -6l-41 -4l-10 -10l-20 -2l-11 -6l-65 -4 l-33 4l-31 12l-6 14l8 15l13 4l65 -8h35l47 8l37 20l8 15l19 8l36 32l15 5l51 38l14 13l19 -2zM733 -66l4 -2v-18l-14 -6l-37 14v15l6 4z" />
<glyph unicode="b" horiz-adv-x="1110" d="M1214 258l-2 -2l-49 -41l-51 -45l-31 -6l-26 -10l-6 -7l-13 -2v-6l-59 -24l-29 -13l-63 -8l-35 -2l-16 4l-15 10l6 13l27 12l70 8l4 6l59 19l53 20l39 33l51 33l48 47l45 49l28 49h4l13 29l30 31l15 -4l18 -17l-8 -33l-33 -53l-12 -18l-49 -51zM805 104l4 -2v-8l-8 -10 h-10l-48 -37l-53 -43l-35 -24l-16 -7l-51 -34l-35 -11l-49 -6l-4 -4l-31 -4l-31 -14l-65 2l-23 -8l-61 12l-35 2l-6 4l4 18l12 7h101l63 8h25l4 -4l18 4v4l64 20l41 19l38 30h11l6 13l35 20l16 4l49 39l23 12l24 5zM651 784v-4l-2 -10l-10 -10l-55 -21l-33 -18l-45 -43 l-17 -14v-9l-10 -10l-4 -14l-8 -10v-35l-6 -6l-6 -27l-2 -35l4 -31l4 -4v-12l8 -29l-10 -18l-10 -2l-17 22l-14 60l-2 33l8 43l10 10l8 28l11 64l36 53l29 17l51 43l35 4l35 -2zM752 1376l2 -2l-9 -35l-26 -39l-8 -30l-15 -37l-12 -12l-4 -15l-10 -8l-11 -61l-16 -27l-4 -33 l-27 -59l-26 -53l-8 -4h-19l-8 14l20 59l7 15v10l12 12l8 31l10 10l6 25l11 10l6 33l10 10l6 16v11l12 12l17 63l10 31l12 27h4v10h5v8l14 14l10 2zM1047 723l4 -4l-2 -33l-9 -27l-10 -18l-8 -4v-4l12 -12l4 -11l-20 -63l-19 -68l-8 -28l-22 -15l-2 -8l-4 -2l-11 10v10l-4 7 l4 6l4 43l23 55l27 64l12 20l-14 37l16 41l12 8zM946 414l2 4l6 -6l-2 -17l6 -33l-10 -28l-26 -43l-21 -15h-8l-8 13v22h4l16 54l6 2v10l15 14v8zM334 328l2 -2l2 -15l-6 -32l-2 -62l-8 -10l-19 -6l-4 67l10 62zM1034 817l-6 4v15l10 6h9l8 -11l-4 -12z" />
<glyph unicode="c" horiz-adv-x="1019" d="M1221 422l4 -2l-13 -47h-6v-8l-37 -52l-24 -34l-2 -13l-10 -4v-8l-13 -10l-16 -27l-43 -47l-4 -6l-15 -6l-20 -25l-45 -35l-12 -4l-50 -49l-20 -12l-12 -17h-11l-4 -8l-12 -2l-29 -16l-39 -13l-49 -26l-14 -10l-33 -4l-61 -21l-64 -10l-65 -10l-64 6l-63 4l-51 4l-7 10v8 l9 11l65 4l64 -11l65 11l66 8h14l10 6l37 2l15 4l57 29l65 24l25 17l14 4l25 24l14 9l4 6l21 6l4 8l27 12l45 48l47 49l26 18l25 25l39 51l37 53l16 29l12 12l9 29l12 8l4 10h18zM659 799l5 -8v-19l-56 -24l-18 -17l-47 -16l-13 -13l-6 -14l-8 -4l-18 -41l-47 -43l-11 -61 l-16 -35l-6 -4l-23 -62l-4 -4l-4 -28l-6 -5l-21 -61l-6 -61l-2 -62l-4 -4h-22l-13 55l2 74l9 23l8 10l4 14l10 14l8 58l2 28l17 29l18 23l2 18l15 27l26 18l4 33l29 47l12 10v8l19 15v8l26 23l11 16l55 31l26 10l19 2zM965 852l2 4h16l16 -57l-6 -19l11 -12l-7 -23l7 -14 l-7 -63l-14 -60l-16 -57l-13 -12l-12 -25l-31 -31l-16 -2l-23 13v8l39 47l4 2l17 61l22 62l4 12l3 49l6 4l4 33l8 4l-8 15l-10 55zM805 514l4 -2v-23l-6 -4l-33 4l-45 -8l-12 4l-8 -4h-25l-10 13l6 12l10 6h72l35 6z" />
<glyph unicode="d" horiz-adv-x="1189" d="M1341 1384l5 -2l-3 -32l-8 -21l-10 -12l-6 -23l-6 -6v-8l-6 -6l-23 -64l-10 -39l-2 -16l-35 -53l-18 -51l-7 -7l-16 -59l-18 -43l-11 -31l-26 -26l-4 -17l-4 -2v-45l-11 -14l-24 -59l-6 -21h-5l-18 -59l-33 -58l-6 -26l-16 -45l-10 -29l-11 -14l-10 -27l-18 -18l-4 -29 l-5 -4l-4 -33l-6 -4l-10 -33l-2 -24l-6 -5l-10 -22l-9 -4l-2 -12l-14 -19l-4 -67l-10 -31l-11 -8l-10 -2l-10 6l-2 33l4 6l2 32l6 29l8 10l15 64l14 28l6 5l2 14l15 20l6 21l16 27l6 32l23 54l8 30l2 29l35 53l18 64l31 59l12 66l8 18l25 27l16 59l2 16l23 50l6 6l6 47 l15 35l28 30l19 60l14 41l10 18l10 37l13 18l20 66l6 10l23 21h8zM1290 297h19l4 -8l-4 -15l-29 -20l-29 -57l-30 -50l-15 -8l-4 -14l-10 -4l-6 -15l-15 -12l-8 -18l-43 -37l-6 -12l-14 -4l-8 -15l-15 -4l-20 -12l-8 -10h-9l-10 -11h-8l-14 -18l-13 -2l-24 -21h-10l-5 -4 l-14 -2l-24 6l-23 -4l-12 -12l-11 -2l-8 -10l-59 -6l-47 2v4l-21 10h-18l-8 8v19l12 4l29 -11h34l64 15l33 -2l55 30l59 27l41 33l15 6l45 51l12 10l8 15l29 16l24 23l15 22l49 49l22 19l17 39zM629 791l2 -13v-16l-4 -4l-27 -2l-25 -17l-26 -24l-2 -13l-47 -45l-6 -12 l-27 -27l-4 -12l-25 -33l-28 -57l-17 -65l-12 -29l-8 -4l-21 -62l-12 -18l-4 -72l-6 -12l-11 -8l-14 6l-6 12v37l12 31l11 10v33l12 59v25l8 2l10 28l17 25l20 47l21 51l34 50l17 28l47 45l14 19l39 20l10 10l17 -2l20 11l15 2zM446 -43l-4 -4h-61l39 51l53 37l43 35l10 2 l21 -12l2 -15l-4 -14l-23 -25l-24 -16l-25 -25h-8zM375 -47l2 -4l-2 -15l-39 -30l-43 -8l-14 2l-5 4h-41l-6 14l2 12l27 17l68 14l30 4zM1368 440h18l7 -14l-9 -47l-34 -41l-19 -4l-12 18l10 33l37 51z" />
<glyph unicode="e" horiz-adv-x="1017" d="M1212 449l5 2l14 -2l10 -19l-8 -22l-10 -15l-2 -12l-11 -4l-10 -25l-12 -12l-17 -27l-14 -8l-6 -16l-10 -4l-2 -13l-19 -24l-4 -12l-20 -17l-13 -18l-20 -15l-12 -20l-17 -6l-39 -49l-22 -25l-12 -4l-13 -12l-20 -9l-6 -6l-13 -2l-51 -37l-37 -24v-4l-14 2l-35 -29 l-10 -2v-4l-62 -18l-41 -11l-4 -4l-65 -4l-64 -14l-69 -6l-66 6l-59 12l-33 4l-8 8l-2 9l8 16l16 4l64 -16l65 6h70l63 4l27 8h14l7 6l61 19l57 24l35 8l29 17l45 33l4 6l14 2l39 32l4 9l13 6l12 12l18 10l4 9l25 16l45 51l49 47l27 39l14 31l41 51l29 31l4 14zM983 827v4 h14l15 -14l8 -57l-8 -27v-49l-21 -61l-10 -41l-23 -35l-2 -12l-12 -11l-35 -55l-6 -6l-2 -12l-49 -41l-57 -35l-7 -6h-8l-28 -15l-17 -2l-57 -26l-64 -2l-49 -17l-8 4l-33 -4l-32 2l-13 13l2 10l8 10l31 8l68 -6l28 8l7 6l18 4l12 13l60 12l16 4l6 6l13 2l49 37l51 43l45 49 l16 17l11 28l32 58l13 31l10 65l8 66l-4 24zM674 795v-4l-6 -15l-60 -20l-49 -37l-45 -53l-6 -13l-14 -8l-5 -14l-6 -4l-4 -19h-4l-26 -51l-17 -27l-18 -4l-11 6l-4 9v12l4 6v23l7 4l8 20l14 21l2 14l17 18v11l10 4l2 12l43 47l29 33h8l24 22l25 11l63 10l15 -6zM428 340v-4 l-6 -14l-31 -11l-26 -18l-13 -19l-18 -4l-10 33l8 29l41 24l8 -2v-4h43zM328 258l2 2h16l6 -4l2 -8l-4 -17l-20 -2l-4 7z" />
<glyph unicode="f" horiz-adv-x="876" d="M567 41l2 -4l-2 -19l-10 -8l-68 -4l-32 -24l-8 -9l-11 -61l-8 -68l-14 -53l-4 -2v-10l-4 -6l-9 -2l-6 -9l4 -32l-4 -9l-2 -32l-6 -19h-6l-12 -32l-21 -19l-16 -57l-15 -45l-10 -4l-2 -13l-12 -12v-8l-8 -4l-2 -13l-9 -4l-16 -24l-47 -49l-49 -45l-2 -5h-11l-8 -14l-28 -4 l-5 -6l-14 -2l-31 -17l-26 -8l-64 -2l-34 -4l-19 12l-2 9l10 14l15 6l32 -2l29 8l64 25l26 8l29 14l43 37l6 4l6 15l25 22l14 21l14 8l2 8l37 37l11 31l10 12l4 14l12 12l4 15l10 10l-2 14l11 15l14 55h4v8l33 47l4 58l6 69l10 66l4 31l13 38l18 19l64 2l55 6zM932 924l4 -2 l-4 -31l-19 -53h-4l-4 -17l-33 -53l-28 -59l-6 -11l-2 -14l-11 -12l-18 -43l-12 -13l-2 -10l-21 -26l-29 -58l-14 -30l-22 -27l-2 -12l-50 -43l-20 -27l-19 -8l-10 -10l-14 -5l-12 -10l-25 -8l-4 -6l-14 -2l-11 -6l-65 -19l-29 -6l-67 -2l-17 -4l-49 -43l-4 -14h-8l-6 16 l4 31l14 12l2 14l14 15l31 2l14 8l66 4l31 4l26 8l60 33l16 4l25 19l24 14l41 49l39 47l23 23l24 57l17 31l32 51l25 59l31 60l24 53l17 35l6 24l20 23h11zM1096 446l2 -2l2 -8l4 -2l-8 -31l-27 -43l-12 -8v-10l-6 -2l-37 -53l-43 -49l-33 -45l-47 -43l-12 -5l-5 -6l-45 -24 l-14 -4l-8 -13l-57 -37l-33 -10l-53 -24l-29 -4l-29 18l8 16l21 9l6 6l45 6l43 22l6 9l10 2l5 8l47 16l10 12h8l137 138l6 16l25 23l14 32l7 4l34 60l27 33l10 2zM606 1079h10l7 -2l8 -28v-17l-8 -6l-11 -31l-6 -34l-8 -21h-6v-8h-4v-10h-4l-4 -23l-11 -4v-10h-4l-2 -25 l-16 -16v-10h-4v-9h-6v-10h-5v-10h-4l-4 -35l-6 -2l-18 -63l-2 -17l-17 -16l-4 -19h-4l-20 -59l-33 -59l-4 -7v-10h-4l-4 -22l-11 -4l-4 -15l-16 2l-12 19l4 16l10 14l18 64l11 14l8 29l8 12l6 21l10 8l4 14l11 12l8 48l20 53l29 55l6 14l10 9l-2 8l17 55l14 27l4 2l2 14 l10 14l5 33l8 19zM199 63h14l8 -20l-16 -55l-21 -27l2 -4l-10 -23v-18l-10 -47l-6 -6l-4 -19l-11 -12l-2 -10l-10 -8l-12 -52l-27 -61l-12 -12l-4 -15l-6 -6l-11 -26l-12 -54l-22 -55l-13 -8h-20l-6 14l6 51l6 4l18 62l13 31l18 26l19 54l16 47l10 16l12 35l11 31l6 4l2 10 h4l16 59l25 49l2 11l6 4l4 14zM809 1346l2 -7v-8l-18 -28l-27 -19l-25 -24l-12 -21l-8 -4l-2 -12h-6v-9h-4v-10h-4v-8h-5v-10h-6v-8h-4v-11h-4v-8h-6l-2 -18l-8 -19l-13 -12l-16 -8h-10l-13 31l17 34l2 15l10 12l6 20l6 7l3 12l38 41v10l9 4l4 15l8 2l10 20l33 23l37 4z M1020 1391h14l6 -2l17 -31l-4 -66l-6 -63l-23 -60l-14 -20l-15 -4l-8 14v31l14 31l11 59l-2 63zM987 1067l4 -2l-4 -35l-22 -41l-15 -8l-16 4l-6 12l10 54l20 28h11z" />
<glyph unicode="g" horiz-adv-x="1171" d="M1389 442l4 -2v-16l-15 -31l-6 -6l-2 -12h-6v-10h-4v-9h-4l-31 -55l-12 -22l-13 -11v-6l-38 -37l-5 -10l-22 -22l-6 -17l-12 -10l-9 -16l-125 -125h-8l-22 -21l-31 -16l-49 -43l-12 -13l-56 -30l-6 -6l-12 -2v-7h-8v-4l-13 -2l-45 -33l-61 -24l-25 -19l-22 -24l-25 -57 l-14 -46l-17 -30l-18 -23l-8 -24l-10 -11l-13 -4v-8h-4l-8 -47l-6 -4l-21 -43l-49 -45v-10l-22 -23v-10l-21 -25l-49 -35l-14 -4l-11 -12l-28 -12l-68 -13l-14 9v8l10 12l53 33l50 31l22 18l12 2l6 12l13 2l49 46l6 6l2 16l12 12l9 21l45 49l6 4l18 59l15 21l4 31l22 63 l10 14l2 13l9 10l20 49l25 19l59 26l23 17l14 2l45 28l55 35l13 10l16 7l10 10h8l5 10h8l6 8l12 2l37 33l6 12l12 2l9 15l14 4l27 24l20 27l45 43l27 29v8l22 20v9l39 40l2 13l41 49l2 14l10 4v9h5l4 20l12 10l2 13l10 4l6 22l25 21l10 -2zM1128 870h5l10 -14v-8l-29 -47 l-2 -33l-6 -18h-4l-27 -60l-2 -14l-6 -4l-18 -29l-5 -14v-29l-20 -53l-20 -51l-21 -47l-4 -19h-4l-12 -39l-7 -2v-10h-4l-2 -12l-6 -7l-6 -22h-4l-6 -27l-8 -14v-14l-7 -13l-2 -16l-6 -4l-4 -14l-10 -9v-10h-4v-10h-4v-8l-11 -23v-10h-4v-8l-22 -45l-15 -37l-22 -27h-18 l-11 14v17l17 45l10 12l6 21l10 12l4 31l25 39l2 14l10 10l6 35l21 35v8l10 23h4l4 24l11 14v9l8 14l2 14l8 15v8l4 4l6 25l10 12v24l9 11l16 45l10 14l2 14l6 6l3 13h4l16 28l6 21l-2 16l21 47l6 2v11h4v8h4v10h4v8l20 15l3 18l6 14l10 7v24l12 8zM649 782l2 -4v-8l-8 -12 l-29 -10l-55 -33l-45 -49l-16 -17l-13 -26l-20 -27v-6l-12 -12l-25 -62l-27 -59l-24 -64l-27 -55l-4 -10l4 -19l-6 -4l-2 -47l-6 -8l-4 -23h-19l-8 9l-2 34l8 72l13 27v22l6 12l14 62l14 31l11 8l24 57l4 14l13 13l4 14l10 8v13l18 30v6l25 27l18 29l50 43l10 10h8l10 10 l17 6l2 7l26 4l33 -4zM332 -287l4 -2l2 -4l-25 -33l-45 -14l-14 -6l-10 -10l-13 -4l-12 -17h-8l-14 -18l-17 -2l-22 -23l-23 -35h-26l-7 33l7 23l8 4v10l14 8l23 25l14 4l10 14h8l9 10l16 2l12 13h25l31 16l24 19h23zM442 27h4l9 -15l-6 -16l-7 -6l-4 -15l-51 -41l-10 -10 l-60 -18l-28 -8h-37l-6 4h-23l-22 12l-25 6l-4 6l6 17l4 2l13 -8l10 -3l6 5l63 -2l62 20l29 12l49 39l12 12zM240 -692l2 -4l-11 -21l-63 4l-33 2l-37 15l-4 22l15 6l63 -10h37l22 -4zM1174 983h6l6 -6l2 -16l-12 -27l-13 -10l-20 -2l-6 6l-2 14l12 29l12 10z" />
<glyph unicode="h" horiz-adv-x="1169" d="M696 786v-4l-10 -14l-31 -8h-16l-53 -27l-19 -14l-4 -8l-24 -17l-45 -45l-7 -16l-24 -19v-8l-8 -4l-15 -29l-8 -28v-23l-35 -45l-2 -39l-8 -12l-2 -14h-4l-2 -13l-10 -6l-13 -37h-4l-4 -43l-6 -4l-23 -61l-30 -58l-6 -30l-29 -60l-16 -30l-17 -60l-18 -39l-10 -30 l-21 -17l-8 -2l-45 19l-2 14l26 20l21 25l24 41l7 35l8 22l6 2l2 17l22 59l3 8l12 13l2 10h4v10h6v8h4l15 58v4h4v8l10 10l20 66l15 18l6 31l12 31l10 12v8l13 8l6 15l6 36l10 31l19 25l6 28l16 29l4 14l33 45l37 27l14 4l8 12l15 5l4 10l26 10l5 6l12 4l6 8l12 3l27 12 l35 2l22 -10zM1061 893h10l14 -8l7 -17l-7 -61v-33l-18 -65l-14 -29v-8l-19 -25l-10 -26l-8 -62l-19 -41l-10 -10l-14 -47l-27 -41v-8l-6 -11l-14 -59l-29 -63l-20 -64l-5 -31l-10 -20h-26l-9 14l15 45l10 47l22 66l15 53l18 49l11 15l4 14l10 14l4 19l12 12l4 16l9 9l2 38 l10 33l14 27l19 22l10 56l14 30l4 21h4l4 33l9 26l6 60zM752 1380h4l6 -12l-19 -61l-8 -33l-20 -47h-4l-21 -62l-22 -57l-4 -14l-11 -11l-2 -14l-12 -12l-12 -47l-11 -11l-6 -24l-6 -4l-12 -21l-8 -4l-23 2l-4 15l8 36h4l13 31l6 6l20 60l13 28l10 11v10h4l14 55l2 14l15 17 l20 61l10 11l6 16l7 6v8l18 43l12 4l2 4zM1198 158l2 -2v-17l-6 -16l-12 -8l-6 -15l-48 -43l-51 -45l-51 -37l-47 -22l-4 -8l-14 -2l-62 -29l-31 -4l-30 14l-2 17l18 10l27 8l34 4l46 21l8 12l57 37l6 6l12 4l43 47l48 49l22 25h31zM1384 432l2 -2l-4 -33l-24 -43l-31 -30 l-4 -15l-10 -14l-4 -14l-25 -41l-41 -47l-35 4l4 34l13 19l8 4v8l10 6v8l8 5v8l11 6v10l8 4l28 51v9l7 4l4 12l43 49l2 4l10 2zM82 -43l2 -4l-2 -14l-12 -11l-45 -6h-35l-45 12l-35 3l-4 16l8 8l131 8l18 -2zM819 -68l2 -4l-6 -14l-12 -10l-33 -8h-14l-29 10l-6 6l-2 16l4 4 l57 11h21z" />
<glyph unicode="i" horiz-adv-x="604" d="M827 442l2 -2l2 -10l-12 -31l-20 -24l-6 -15l-13 -12l-16 -26l-23 -25l-8 -14v-11h-6v-8h-4v-10h-4l-14 -23l-9 -22l-18 -31l-39 -49l-45 -37l-14 -4l-9 -12l-6 -2l-2 -17l-47 -41l-47 -34l-12 -2l-13 -13l-8 -2l-10 -10l-33 -23l-14 -2l-60 -24l-67 -4l-21 4l-32 -8 l-23 6l-18 12l4 8l37 10l16 -4l39 7l33 14l14 2l10 6l37 6l45 27l10 2l9 14l53 29l59 33l23 10l16 26l10 33l13 11l6 12l16 16l2 8l41 52l31 41l8 4l33 45l4 24l18 23l5 14l26 43l17 17h18zM492 788h18l12 -28l-4 -10l-8 -5l-10 -22v-10h-4v-8h-4l-5 -33l-10 -33l-10 -12 l-16 -62l-15 -28l-6 -5l-12 -32l-10 -8v-11h-5l-14 -61l-4 -17h-6v-10h-4l-23 -61l-14 -17l-4 -32l-21 -64l-14 -57l-6 -4l-21 2l-4 6v33l15 63l10 33l22 33l4 14v43l23 49l23 43l24 60l25 57l8 12l2 15l10 12l10 61l29 43v19zM705 1264l4 2h10l10 -11l4 -30l-8 -33l-20 -27 l-27 -14l-25 -23l-22 -8l-25 -22h-8l-10 -8l-31 -7l-47 7l-10 8v18l12 4l31 -4l4 -4l33 6l51 35l16 2l37 45l2 33l6 22zM565 954h4l11 -2l6 -6l4 -14l-4 -29l-33 -63l-23 -25l-12 -4l-4 23h-4l6 32l6 6l25 62l8 14z" />
<glyph unicode="j" horiz-adv-x="659" d="M848 440l4 2h18l7 -14l-11 -31l-28 -28v-9h-4v-10l-9 -6l-4 -22l-39 -50l-14 -18l-2 -12l-14 -13l-2 -8l-29 -18l-8 -15l-15 -10l-6 -22l-16 -19v-4l-33 -18l-41 -52l-12 -12l-6 -16l-13 -6l-22 -25l-57 -35l-25 -22l-14 -4l-9 -13l-32 -16l-60 -29l-43 -35l-12 -2 l-51 -28l-37 -23l-6 -16l-10 -10l-17 -64l-35 -53l-4 -4v-8l-4 -4l-6 -29l-25 -47l-24 -41v-10l-12 -11l-3 -12l-20 -27l-12 -10l-6 -16l-23 -21l-6 -12l-49 -47l-15 -6h-18l-16 -17l-52 -30l-63 -11l-29 -6h-78l-26 4l-25 13l-4 8l2 6l64 2l61 10l66 10l51 23l8 -2l49 43 l47 45l13 10l2 13l12 6l14 28l39 54l33 55l14 18l4 15l9 4v18l16 64l22 24l19 41l2 17l29 28l26 13l27 22l59 33l58 35l47 26l10 2l51 43l17 9l8 10h8l10 14h8l9 10l16 9l37 36l4 11h14l23 26h8l10 9l17 30l20 17l14 43l23 20l20 27l19 16l-2 10l10 11v8l10 4l33 55l14 27z M647 977h15l8 -14l-8 -33v-17l-9 -22l-16 -25l-12 -32v-11l-9 -20l-6 -2v-10h-4v-9h-4l-12 -32l-15 -25l-22 -25l-8 -65l-13 -21l-10 -45h-4l-4 -20l-20 -23l-9 -32h-4v-9h-6l-14 -59l-4 -6l-23 -10l-4 10l-8 2l-2 6l16 49l6 6l15 54l8 10l10 45l6 4l25 59l4 13l10 12l2 8 l19 14l-4 33l22 47l10 9v10l4 4l5 47l30 53l23 53l12 11zM569 1102v4l2 10l7 4l65 8l31 11l26 14l45 47l7 6l2 13l8 2v14l10 20v25l14 31l15 -4l10 -29v-31l-6 -39l-14 -37l-9 -4l-4 -14l-53 -53l-16 -4l-7 -6l-24 -9l-37 -4l-51 4l-19 13zM432 358l2 -4v-10l-8 -12l-8 -4 l-2 -15l-19 -18l-8 -57l-14 -27l-10 -8v-10h-5v-9h-4v-10h-6l-16 -63l-33 -54l-4 -6l-21 2l-4 15l21 63l12 21l2 14l10 12v17l17 45l31 57l10 12v21l14 28l10 13l17 2zM-190 -287l4 -2l-4 -16l-54 -35l-30 -12l-54 -41l-26 -17l-8 -32l-17 -15h-14l-8 4l-5 13l5 16l24 29v8 l23 22l18 27l29 21l10 12l41 10l4 6h8l27 13h20z" />
<glyph unicode="k" horiz-adv-x="1116" d="M1329 446l4 -4l4 -8l-2 -16l-28 -56l-11 -4l-2 -12l-8 -4l-2 -12l-12 -6l-41 -48l-4 -2v-8l-13 -12l-14 -39l-43 -47l-12 -14l-12 -2l-46 -50l-28 -28l-12 -2l-46 -49l-10 -13h-10l-4 -8l-55 -31l-29 -12l-33 -22h-8v-5l-33 -6l-28 -10l-31 -16h-66l-35 2l-12 6l-4 6v10 l10 6l58 13l63 6l31 20l14 2l10 11l23 6l12 10l15 4l14 10l14 2l47 37l56 39l47 47l45 49l47 47l41 52l43 51l12 12l6 14v11h4l9 22l10 11v8l14 14v6l10 12l25 5zM682 795l2 -4l2 -13l-6 -14l-27 -12l-61 -17l-27 -16l-49 -47l-18 -23l-27 -22v-9h-4l-4 -14l-12 -8l-23 -64 l-27 -57l-20 -61l-27 -58l-14 -30l-8 -29l-15 -25l-6 -18l-16 -21v-32l-19 -47l-36 -54l-19 -6l-12 15l-2 12l12 29l17 18l4 14l10 8l-2 17l14 24l14 58l27 61l12 29l4 2l3 12l6 6l12 43l10 13l15 43l10 8v12l16 31l2 16l8 10l2 15l9 14l4 33l14 14l2 15l41 43l12 4l11 12h8 l24 20l31 21l12 2l27 18l27 11l53 2zM1061 872h22l4 -63l-8 -47h-4l-8 -47l-33 -53l-6 -7v-47l-6 -4l-12 -31l-21 -28l-2 -15l-8 -4l-8 -20l-35 -51l-14 -13l-2 -12l-43 -41l-54 -31l-12 -12l-27 -14l-39 -10l-10 -11l-41 -6l-18 -12l-10 4l2 33l4 6l61 20l29 11l57 39 l37 30l18 29l5 14l10 4l4 15l25 22l38 49l17 17v8h4l6 33l12 30l15 21l12 67l20 58l17 63zM752 1391l16 -17l-20 -61l-3 -19h-4v-8l-24 -55l-17 -29l-10 -33l-6 -4v-14h-4v-8h-4l-2 -13l-37 -57l-16 -18l4 -33l-11 -33l-22 -43l-19 -12l-18 12l14 58l11 20l34 43l-4 33l8 30 l25 64l23 63l10 11l4 14l10 8l8 25l4 41h5l6 16l22 25zM193 51h24l6 -6l2 -14l-18 -62l-31 -35l-10 -2v-6h-10v-4l-35 2l-21 6l-16 13l-2 8l24 2l48 33l2 10h6v10h4l4 23l18 14zM61 -45l2 -4v-8l-8 -13l-28 -6l-74 -2l-33 4l-10 6v27l6 4l59 -4l72 4zM672 246v-8l-15 -5 l-16 3v14l16 2z" />
<glyph unicode="l" horiz-adv-x="604" d="M819 440l4 -2l4 -8l-10 -31l-16 -37l-10 -8v-10h-5l-10 -29l-45 -51l-35 -45l-14 -12l-6 -14l-12 -11l-7 -14l-34 -45l-27 -33h-8l-45 -49l-47 -45l-2 -4h-9l-10 -15l-14 -2l-45 -28l-15 -10h-16l-31 -9l-59 -22l-35 -6h-39l-12 8l-2 10l10 14l51 11l27 2l47 22l27 21 l24 4l6 10l19 2l2 6l12 2l51 39l47 45l11 13l14 8l4 14l10 4l6 17l46 45l22 18v8l6 4l2 11l11 6v8l8 4v10l8 2l6 21l10 4l2 12l15 12l10 23l10 4l2 12l12 6l5 15l32 55l19 14h10zM766 1372l2 -2l-2 -16l-6 -2l-17 -43l-4 -21l-20 -33l-8 -26l-2 -21l-15 -28v-15l-12 -12 l-8 -31l-10 -28l-7 -7v-12l-22 -55l-29 -45l-10 -8l-8 -47l-6 -5l-9 -32l-12 -25l-4 -18l-29 -54l-2 -10l-18 -18l-10 -23l-13 -6l-10 14l-4 25l27 59l12 21v8l10 14l4 15l15 24l16 54l20 24l17 62l24 61l2 16l27 58l23 61l8 10l10 25v8l14 27l9 31l22 38l21 -2zM489 698 l5 -2v-18l-9 -23l-41 -51v-8l7 -6l2 -12l-11 -13l-4 -26l-4 -4l-6 -31l-25 -39l-20 -19v-8h-4l-4 -43h-4l-9 -30l-12 -21v-8l-8 -4l-4 -15l-6 -4l-2 -67l-6 -27l-7 -4l-16 -45l-10 -8l-19 2l-8 29l15 69l28 57l15 64l22 57l10 15l21 61l16 29l10 33l13 8l10 14h8l4 18l8 9 l-2 16l-8 12l4 17l31 37l8 2z" />
<glyph unicode="m" horiz-adv-x="1736" d="M690 799l2 -4l-2 -19l-10 -10l-39 -12l-6 -9l-31 -6l-10 -12l-14 -4l-37 -35l-19 -4l-8 -10h-10l-4 -8l-15 -7l-4 -14l-16 -18l-4 -17l-14 -10l-17 -22v-19l-4 -12v-21l-20 -28l-13 -47l-18 -27l-15 -64l-20 -43l-2 -14l-12 -8l-17 -29l-8 -22l4 -19l-12 -28l-29 -37 l-12 -62l-23 -59l-22 -66l-12 -18v-6l-13 -15l-12 -2v-6l-14 -2l-8 -6l-62 2l-65 4l-68 -8l-33 4l-14 6l-8 11l4 18l12 6l64 -2h65l49 6h27l16 8l31 33l4 19l10 4l2 12l6 6l15 66l18 43l19 30l14 33l4 33l6 4l6 16l11 13l2 14h4v8h4v10h4v9l22 57l11 31l10 10l6 33l25 57 l6 6l4 25l12 8l8 18l2 33l15 33l22 25l4 14l25 12l8 17l49 43l4 6l64 20l39 23l33 8zM1954 440l4 -2l-6 -37l-31 -53l-4 -12l-29 -19l-28 -55l-23 -24l-8 -19l-12 -8l-7 -14l-41 -50l-14 -12l-14 -37l-15 -8l-4 -10l-12 -2l-47 -47l-25 -23l-10 -2l-53 -45l-6 -2l-4 -8 l-15 -2l-6 -6l-37 -11l-34 -22l-64 -2l-14 6v10l12 10l33 11l26 14l11 10h8v4h10v4h8v7l13 2l10 10l59 35l43 45h10l4 8l25 12l23 23l34 24l5 13l12 12v10h4l14 29l19 16l6 17l18 16l2 14l6 4l19 37l29 19l10 12l24 59v5l11 8v10l10 4l4 14l12 4l2 5h11zM1616 911l4 13h16 l19 -27v-61l-6 -64l-15 -65l-4 -15l-10 -8l-21 -57l-6 -17l-6 -6l-22 -59l-2 -17l-7 -6l-26 -57l-8 -14l-4 -23h-5l-6 -25l-8 -4l-2 -34l-18 -41l-13 -13l-8 -22l-6 -4l-4 -62l-14 -30l-7 -13l-14 -6l-8 2l-10 33l16 65l16 27l3 33l20 51l12 10l19 33v33l6 10v8l10 15l2 14 l4 2l2 16l8 4l13 39l6 2l6 33l14 25l21 63l26 60l9 30l6 56zM1255 793l7 -13l-15 -20l-49 -10l-29 -15l-51 -37l-37 -20l-41 -51l-2 -9l-37 -34l-12 -21l4 -33l-18 -63l-29 -57l-8 -15l-12 -10l-13 -37l-16 -8h-10l-10 16l6 31l6 6l2 13h6v8h4l4 28l10 23v10h5v8h4l4 19 l20 24l4 21l15 10v14l4 11l8 4v37l6 4l8 28l11 4l2 13l55 41l24 26l15 4l10 15l14 4l4 10h9l14 10l51 21h41zM887 287l4 -2l-25 -56l-2 -36l-10 -11l-14 -32l-11 -13l-4 -33l-14 -41l-10 -10l-8 -24l-13 -13v-14l-30 -55l-13 -13l-37 -8v-4h-65l-60 2l-10 8l-2 19l6 10h66 l61 6l13 8l12 2l4 15l8 4l12 45l19 27l16 63l11 10l2 23l14 45l16 35l15 12l12 31l14 12h10zM1280 -61l2 2h18l11 -9l8 -14l-2 -8l-19 -6l-22 10zM487 -76l-4 -2l-8 17l-6 -11l-4 15l4 16l6 6l17 -4l6 -22z" />
<glyph unicode="n" horiz-adv-x="1169" d="M555 717h-4l-19 -25l-20 -16v-4l-31 -29l-24 -59l-2 -6h-4l-23 -60l-31 -63l-8 -15l-4 -20h-4l-8 -17l-6 -6v-16l-25 -57l-6 -19l-10 -12l-15 -60l-22 -49l-10 -32l-13 -9l-6 -39l-12 -10l-17 -45l-4 -33h-4l-28 -55l-33 -29l-60 -8l-67 -2h-64l-61 2l-6 6l-2 19l4 6 l59 8l12 4l70 -8l27 2l4 6h37l28 8l13 13l8 30l8 17h4v10h4v10h4v8h6v11h5v8h4l4 18l6 4l35 54l6 49l6 31l27 55l6 26l14 21l31 55l4 6v11l12 26l-2 17l12 18l7 27l4 4l4 28h4l6 31l12 33l29 43l4 14l12 19l47 30l43 25l7 10l-2 8l12 7l16 22l37 8l4 4h15l61 15l14 -6l4 -7 l-2 -16l-4 -6l-67 -18l-39 -25zM1061 903v4l22 -24l9 -15l2 -30l-11 -68l-2 -16l-6 -9l-4 -28l-18 -55l-13 -13v-14l-6 -19l-10 -14l-2 -12l-14 -27l-25 -63h-4l-4 -25l-6 -8v-8l-23 -58h-6l-2 -22l-14 -25l-6 -4l-5 -18l-10 -19l-4 -30l-4 -7v-14l-10 -20l-4 -25l-4 -4 l-9 -49l-14 -17l-18 3l-9 10v35l17 63l12 39l6 49h4v10h6l2 15l21 26l2 15l12 8l23 59l6 39l29 57l10 46l22 47l21 45l6 30l8 11l4 14l11 10l6 62zM1384 428l2 -2l-8 -31l-41 -51l-18 -22l-2 -19l-10 -20h-4l-3 -13l-28 -41l-10 -8v-8l-11 -6v-8l-24 -23l-13 -18l-14 -11 l-2 -14l-20 -22l-13 -21l-49 -43l-18 -16l-8 -2l-46 -47l-28 -15l-10 -10h-9l-22 -14l-66 -23l-20 -8l-17 -2l-8 4l-6 10l6 19l56 22l20 10l10 15l15 4l20 16l12 2l4 11l15 4l24 22l2 6l43 27l9 12l14 6l41 50l31 40l8 19l43 47l20 33h4l41 51l17 25l10 34l18 35l9 6l18 -2z M803 -63l4 -3v-24l-12 -8l-17 -2l-49 14l-2 10l64 15zM688 -63l2 2l15 -7l-5 -22h-8l-6 6z" />
<glyph unicode="o" horiz-adv-x="1148" d="M1016 139l2 -4v-10l-8 -14l-13 -7l-65 -4l-64 -8l-22 -8l-27 -23l-4 -14l-27 -27l-30 -16l-25 -18l-14 -6l-17 -17h-8l-24 -18h-19v-4l-30 -9l-35 -20l-64 -12l-67 -9h-31l-57 9l-15 8l-2 10l8 14h62l31 -2l61 15l63 18l48 19l57 24l41 23l45 49l43 47l14 4v6l58 6l63 -2 l31 13l24 -2zM362 190l-8 -4l-18 2l-8 13l-4 65l4 31l4 4l6 64l14 61l13 33l10 14v14l10 17l8 26l27 35l14 43l10 29l13 12v10l10 5l6 20l10 4l2 12l27 37l4 17l25 20l4 10l14 7l51 45h41l13 -13v-22l-54 -29l-35 -16l-34 -58l-6 -12l-35 -39l-4 -16l-11 -15v-8h-4l-8 -20 l-12 -13l-17 -59l-26 -57l-23 -58l-8 -26l-4 -33l-18 -47l-7 -25v-32l9 -31zM1362 434l4 -2l-6 -33l-33 -57l-45 -43l-18 -20l-4 -15l-15 -8l-4 -14l-10 -11l-17 -6l-34 -35l-9 -2l-10 -12l-18 -4l-13 -12l-49 -17l-18 -2l-12 9v10l12 20l55 33l6 4h11l24 25l31 22l6 17 l12 2l45 49l41 51l31 49v4l12 8h11zM1032 627h8l15 -9l4 -6l-4 -67v-13l-4 -4l-19 -59l-10 -68l-6 -32l-17 -27l-4 -14l-30 -27h-13l-4 8l2 15l21 59l18 68l17 63l14 64zM1020 748l2 4h25l12 -29l2 -21l-8 -20l-9 -4l-12 2l-8 12l-6 39zM328 -63l8 -9v-10l-14 -6l-25 2 l-2 20l16 7z" />
<glyph unicode="p" horiz-adv-x="1116" d="M1300 424h15l8 -12l-2 -33l-14 -31l-39 -49l-37 -51l-14 -12l-13 -25l-47 -51l-10 -19h-8l-15 -18l-14 -4l-49 -45l-19 -21l-53 -26l-6 -9l-20 -2l-21 -22l-8 -4l-2 -6l-12 -4v-5h-9l-4 -8l-57 -14l-33 -10l-16 -13l-15 -2l-51 -22l-71 -10l-64 -5h-37v5l-16 2v18l26 10 l66 8l59 9v4l45 4l5 6l32 4l29 14l14 2l13 13l55 28l33 7l28 14l23 29l14 2l47 30l4 15l19 14l6 14l51 43l86 86l17 29l6 4l2 12h4v11h4l25 32v9l18 28zM678 786v-4l-4 -16l-27 -12l-35 -4l-28 -13l-15 -22l-22 -25l-19 -8l-4 -14l-47 -50l-20 -26l-8 -33l-27 -55l-12 -29 l-2 -14l-31 -41l-12 -66v-4h-5l-2 -16l-26 -49v-6l-17 -31l-24 -60l-8 -34l-13 -29l-20 -23l-6 -12h-15l-6 8l-4 17l19 51v8h6l4 41l8 21l6 2l17 18l6 18l10 11l2 32l20 60l27 59l25 64l8 32l10 9l2 14l10 12l11 43h4v11h6v8h4l2 16l25 19l8 14l12 2l4 8h8l43 53l4 4l13 3 l10 8l18 4l33 37l60 4l12 -8zM225 70l4 -2l2 -19l-22 -59l-8 -47l-6 -6l-2 -17l-31 -49l-12 -27l-9 -30l-18 -25l-4 -14l-10 -13l-5 -47l-6 -4v-8l-14 -25l-6 -24l-12 -25l-7 -22l-18 -25l-6 -14v-14l-19 -25l-24 -18l-62 4l-34 2l-66 -6l-33 8l-4 6l4 18l15 8l65 3l62 -7 l30 9l39 28l10 25l5 37l8 20l8 10l2 19l12 26l2 21l13 29h4v10l16 16l2 10h4v11h4v8l15 29l4 26l16 25l6 18l11 15l4 32l20 52l6 14l13 12l6 14l16 15zM1038 799l2 -2l13 -6l6 -13v-71l-2 -35l-15 -64l-12 -63l-6 -31l-20 -61l-13 -21l-26 -61l-23 -47v-17l-29 -49l-6 -14 l-10 -8v-9l-10 -10l-2 -16l-29 -41h-4l-6 -15l-10 -8v-8l-29 -25l-16 5v18l36 51l19 62l4 14l10 4l2 14l12 9l9 24l16 25l4 16l12 8l5 21l10 4l18 61l25 58l41 123l4 61l4 63v37l10 19zM414 -68v-4l-11 -4l-22 10l-4 13l10 4l23 -10zM479 -78l4 6h15l6 -10v-8l-10 -8l-13 4z M1008 893v4h10l10 -12l-2 -19l-14 6z" />
<glyph unicode="q" horiz-adv-x="1220" d="M1427 434l3 -4l2 -16l-17 -29l-4 -14l-16 -21l-4 -12l-39 -37l-13 -31l-12 -12v-8l-24 -47l-27 -23l-19 -28l-12 -13v-10l-10 -4l-2 -12l-8 -4l-13 -15l-18 -8l-10 2l-6 -6l-4 -14l-9 -5l-16 -24l-31 -21v-4l-14 -8l-12 -2l-11 -14h-8v-4l-14 -4l-4 -11h-11v-4h-8 l-28 -16l-25 -37l4 -16l10 -11l2 -37l-4 -32l-8 -19l-6 -4h-10l-6 15l6 32v66l-2 8l-15 16l-2 11l4 16l21 25l53 39l29 16l26 22l11 2l4 11l33 14l18 2l10 10l8 21h5l10 12l4 17l47 47l22 20v10l11 4v9l6 4l2 10l10 4l14 29l23 22v17l10 8v8l13 10l26 41l21 43l14 8l16 -4z M639 793l16 -15v-18l-59 -23l-29 -14l-10 -14l-20 -11l-5 -12l-40 -53l-37 -58l-29 -55l-33 -57l-6 -31l-12 -29l-6 -32l-29 -62v-76l-8 -12l-13 -4h-16l-4 8l4 66l4 35l17 59l22 59l12 48l25 51l12 22v6l35 39l2 15l10 10l7 24l30 31l2 12l25 25l6 14l49 39l35 11z M1180 967l4 -2l2 -27l-31 -55l-4 -2l-18 -62l-11 -28l-16 -31l-6 -33l-17 -25l-6 -20l-10 -14l-4 -15l-10 -14l-19 -61l-16 -46l-12 -12l-2 -16l-11 -8l-12 -52l-10 -8l-2 -12l-35 -33l-4 -24l-21 4l-2 4l17 24l2 35l22 62l4 4l9 30l20 43h4v11l10 12l17 59v7l6 6l6 22 l10 15l4 14l13 12l2 25l8 12l2 18l12 29l25 33v10h6l10 66l6 4l29 45l10 2zM762 -59l4 -2l-8 -35l-13 -19l-20 -59l-2 -16l-12 -29l-19 -27l-16 -61l-10 -31l-15 -20l-4 -19l-12 -12l-2 -25l-6 -4v-14l-13 -27l-14 -10l-10 2l-10 16l14 64l18 57l19 29l10 31l10 10l2 33 l31 55l21 63l20 48l10 6l4 8h11zM791 -567h12l8 -13l-12 -32l-27 -37h-10l-10 -10l-23 -9v-6h-8l-59 -28l-31 -11l-62 -6l-34 -2l-35 4l-11 10v17l5 6l67 4l66 12l55 23l20 12l5 6h8l6 11h8l49 41zM967 -219h14l6 -31v-31l-22 -59l-4 -27l-5 -4l-6 -32l-8 -19h-4l-4 -14 l-10 -4l-23 -58l-14 -26l-27 -17l-18 6l-8 21l12 27l14 14v8l29 37l16 37h6v10h4l9 51l6 4l4 31l22 59zM901 338h14l5 -33l-7 -33l-12 -32l-8 -11l-2 -14l-14 -25l-17 -43l-12 -16l-2 -8l-12 -12l-21 4l-4 8v16l18 37l4 35l15 47l18 25v6l23 24zM436 -20l2 -5l-2 -14 l-10 -14l-8 -2l-10 -13l-31 -8l-21 -14l-34 -2l-15 -6l-65 -2l-17 12v16l15 9l53 6l6 6l31 4l30 10l56 27zM176 -66l2 5h10l11 -9l2 -14l-6 -4h-17l-4 6z" />
<glyph unicode="r" horiz-adv-x="890" d="M1106 420l2 -2l-14 -31l-41 -43l-13 -31l-16 -24l-6 -17l-12 -12l-2 -16l-37 -51l-15 -31l-45 -49l-2 -11l-18 -14v-8l-19 -17v-6l-51 -43l-18 -22l-31 -2l-43 -51l-4 -7l-16 -2l-13 -10l-28 -6l-46 -16l-34 -4l-33 6l-12 12l8 14l12 6l64 7l45 20l26 16l17 17l28 2 l90 94l19 27l29 24l2 13l28 20l2 14l9 4l4 15l10 12l8 25l43 49l14 10l11 31l32 57l15 29l16 18l27 -4zM748 672h8l14 -4l6 -21l4 -2v-33l-14 -59l-6 -6l-2 -33l-4 -4l-6 -33l-7 -4l-10 -31l-12 -16l2 -16l-27 -60l-18 -41l-12 -16l-5 -33l-6 -4l-6 -31l-12 -28l-12 -7 l-9 33l-2 29l6 33l5 2l22 61l10 47l11 19l12 8l18 55l9 43l12 12l16 52l6 26l2 37zM348 756h14l9 -15l-21 -59l-10 -29l-6 -4l-21 -55l-16 -41h-4v-10h-6l-2 -15l-15 -16l-14 -39l-8 -2l-10 -27l-25 -30h-23l-8 16l11 45l2 8l34 43l2 13l17 26l24 64l11 30l10 9l4 14l31 53z M639 176l2 -4l-2 -8l-14 -6l-17 6l2 14l6 4l19 -2z" />
<glyph unicode="s" horiz-adv-x="825" d="M1012 446h12l10 -14l-4 -22h-6l-18 -48h-5v-10h-4v-8h-4l-2 -12l-16 -33l-10 -10v-10l-15 -9l-18 -28l-47 -45l-4 -17l-37 -51l-19 -25l-24 -22l-21 -27l-14 -4l-25 -20l-30 -17l-25 -20l-4 -8l-31 -11l-55 -26l-33 -8l-28 -2l-17 -15l-63 -12l-68 -10l-14 6l-2 16l6 15 l6 4l31 2l10 6l70 8l30 2l29 12l10 11l90 45l25 22l55 37l21 27l47 47l49 47l24 20l3 15l14 30l37 52l12 10l10 22l37 41l10 31zM645 981l4 -2l4 -8v-15l-8 -32l4 -64l-8 -26l4 -70l-2 -31l-14 -65l-2 -6l-15 -7l-14 15l2 63l-2 35l-4 12l6 11l8 30v66l4 63l13 31h20z M334 676l4 -2l-8 -33l-31 -57l-4 -11l-10 -10l-6 -16l-11 -8l-2 -15l-10 -14v-27l-35 -53l-12 -10l-19 -2l-6 8l-4 16l10 31l35 57l11 11l8 30l32 58l13 30l22 27h11zM608 616h8l9 -2l8 -12l2 -67v-33l6 -33v-63l8 -25l-4 -64l-10 -10h-10l-13 8l2 27l-6 8l4 70v26h-4l-6 23 l6 18l-6 5l-2 65l-4 33l2 14h4zM303 -70l2 -4l-2 -20l-6 -6l-10 -2l-13 6l-63 10l-33 4l-26 10l-23 17v14l14 4l64 -10l65 -10l25 -4zM621 285v4h20l4 -68l-4 -20h-27l-6 4l8 65z" />
<glyph unicode="t" horiz-adv-x="638" d="M805 1149h4l10 -2l12 -19v-12l-26 -63l-8 -21l-13 -12l-4 -12l-14 -7l-8 -10h-64l-14 -4l-31 2l-31 -6l-14 -10l-22 -62l-21 -61l-6 -14l-39 -52l-12 -26l-10 -8l4 -33l-4 -31l-27 -61l-8 -31l-25 -53v-9h-6l-20 -59l-7 -29h-4l-2 -12l-24 -43l-13 -10v-10h-4v-9l-12 -26 l-6 -37l-14 -43l-21 -64l-4 -34l-6 -4h-10l-13 8l-6 12l10 64l9 65l12 12l22 60l21 59l4 19l6 2l2 24l10 19l13 12l2 14l10 10l6 48l35 53l27 59l16 45l8 13l10 30l4 2l7 49l6 5l22 59l17 43l4 25h4l4 18l6 10l23 17l2 6l26 10h19l22 -10l33 12l31 2l26 14l17 27l4 23l12 28 l23 25zM700 195l2 -2l-4 -17l-14 -18l-22 -11l-19 -26l-14 -35l-49 -41l-33 -25l-25 -8l-16 -20l-14 -4l-25 -27l-21 -6l-12 -12l-59 -17l-15 -2l-20 4l-4 -4l-19 4l5 15l6 4h18l19 24l24 4l27 17l12 2l27 20l55 29l47 47l4 12l17 9l6 14l43 37l8 14l43 35l14 -6zM854 440 l2 -2l2 -20l-6 -2v-8h-6l-2 -13l-15 -10l-26 -47l-8 -29h-4l-3 -16l-6 -12l-28 -31h-11l-10 -6h-12l-14 18l34 51l15 31l22 33l17 18l2 19l30 35l17 -3zM756 1382l2 -2l4 -8l-2 -14l-10 -15l-7 -28l-4 -4l-6 -35l-22 -43l-17 -37l-12 -8l-20 -2l-11 24l19 45l12 23l16 51 l4 25l27 28l16 4zM246 1020h2v-21l-8 -8l-70 -4l-18 4l-2 8l4 19l26 6h37zM250 -72l2 -4l-6 -10l4 -6l-14 -6l-17 2l-10 12l2 12l6 6l14 5l15 -5zM139 -68l2 2l11 -2l4 -14l-4 -8l-15 6z" />
<glyph unicode="u" horiz-adv-x="1153" d="M586 987l4 -2l6 -6l2 -16l-4 -15l-8 -10l2 -8l-10 -51l-17 -29l-8 -4v-10h-4v-9h-4v-10h-4l-25 -63l-12 -29l-2 -14h-4l-9 -33l-6 -4l-8 -15v-8l-16 -20l-2 -13h-4v-10l-21 -22l-2 -35l-22 -62l-27 -59l-16 -61l-27 -60l-14 -30l-11 -64l-10 -43l-12 -8h-12l-11 10l-4 64 l21 59l8 31l26 61l9 31l18 47l8 27l13 12l18 61l29 51l20 54l23 61l6 12l8 35l18 39l25 62l10 30l8 13l9 4v10h4v10h4v8h4l8 17l17 16zM1143 977l4 -2l-6 -47l-13 -13l-4 -14l-10 -10l-6 -17l-6 -6l-8 -32l-23 -39l-2 -25l-6 -6l-19 -64l-12 -57l-6 -4l-8 -14v-9l-19 -28 l-18 -51l-6 -4l-8 -29l-19 -45l-2 -10l-6 -7l-6 -24l-31 -60l-6 -20l-6 -8l-2 -25l-15 -28l-10 -13l-8 -18l-2 -70l-2 -14l-10 -10l-15 -4l-16 8l-4 32l14 66l10 37l11 10l2 23l8 14l4 31l21 49l12 29l10 12l14 28l2 17l11 10l2 25l14 26l8 33l23 47l12 41l4 2l19 49l8 6 l6 31l27 35l14 49l4 4l6 54l12 26l35 45zM1356 426l4 -2v-21l-19 -26l-22 -15l2 -24l-31 -53l-6 -6l-4 -15l-16 -24l-35 -27l-12 -27l-9 -4v-10h-6l-6 -14l-16 -13v-8l-41 -49l-19 -18l-28 -9l-15 -28l-49 -43l-51 -37l-59 -29l-29 -12l-41 -8l-25 14l2 10l9 13l61 22l39 29 h10v4h8v6l29 6l4 6l12 2l39 37l11 -2l24 12l12 21l11 33l12 10v8l45 43l47 47l10 8v9l9 10l12 33l35 49l6 8l12 4l37 31l6 35l8 12l13 6zM508 94h14l8 -14v-17l-18 -26l-47 -45l-51 -37l-29 -14l-63 -21l-19 -2l-14 4l-53 -24l-27 -4l-39 4l-33 10l-14 16v8l12 5h70l14 4 l33 -9l29 13l4 6h10l6 6l31 6l4 6l33 8l22 19l27 16l47 41zM756 -70l2 2l16 -8l6 -20l-12 -8h-10l-10 8l2 16z" />
<glyph unicode="v" horiz-adv-x="1024" d="M1092 989l4 -2l-13 -61v-4h-4l-8 -48l-12 -30l-2 -17l-10 -12l-3 -10l-14 -23l-6 -30l-2 -39l-23 -41l-28 -51l-8 -15l-7 -22l-32 -58l-4 -4v-8h-5v-10h-4v-8l-18 -33l-19 -19v-6l-36 -45l-15 -28l-16 -23l-29 -29l-14 -8l-12 -2l-15 10l-2 19l41 49l17 18l2 13h6l8 32 l10 5l2 12l8 4l2 12l11 4l4 15l14 8l4 14l33 55l4 15l12 12l7 29l8 4l20 45l17 31l6 22l10 10v15l16 26l2 23l19 61l4 41l6 11l4 18h4l8 29l13 30l8 11l10 -2zM641 168l2 -2l-2 -16l-4 -7l-31 -16l-37 -33l-10 -2l-10 -14l-14 -4l-13 -13l-57 -22l-49 -41h-10l-9 -12h-10v-6 l-33 -9l-57 -26l-33 -15l-59 -8l-68 4h-65l-47 -4l-17 4l-10 11l2 20l6 6l31 4l31 -6l32 6l68 -2l68 2l43 17l49 22l55 21l14 18h6l31 29l15 2l53 30l43 41l14 5l4 10l15 2l14 10h35zM1245 442l4 -2l-8 -32l-37 -54l-41 -51l-39 -41v-8l-45 -45l-53 -39l-20 -12l-62 -15h-10 l-12 -12l-43 -18l-31 -4l-68 6h-32l-21 10l-2 12l14 17l15 -7h65l23 5l4 4h14l10 6l33 2l23 6l51 33l8 2l12 14l25 12l53 43l41 52l23 18l35 43l2 14l41 48h14zM322 231h-5l-12 19l14 65l13 31l6 62l4 30l23 64l8 65v6l18 29l15 14l8 -2l8 -63l-6 -43h-6v-8h-4v-11h-5v-8 l-4 -4l-12 -69l-12 -66l-6 -49l-23 -49l-12 -11zM487 987l21 -10l-2 -31l-19 -65l-6 -68l-4 -22l-10 -19l-10 -33l-8 -63l-13 -31l-20 -10l-8 14l-5 31l3 33l18 61v33l18 63l11 68l10 25l16 24h8z" />
<glyph unicode="w" horiz-adv-x="1636" d="M573 987h19l8 -14l-16 -66l-11 -12v-14l-10 -11l-8 -28l-4 -25l-10 -10v-12l-23 -54l-10 -10l-21 -59l-8 -21l-6 -6l-20 -51l-17 -49l-22 -64l-11 -12l-8 -18l-2 -25l-6 -4l-2 -12l-25 -50l-14 -36v-15l-10 -8l-2 -25l-8 -12l-9 -43h-4l-8 -33l-10 -10l-8 -2l-11 8l-6 29 l2 55l29 54l10 51l27 59l24 60l21 59l27 61l10 33l18 41l11 6v8l10 13l2 24l22 56l2 14l29 59l8 43l17 27l2 14l18 25zM1135 961l4 -3l-2 -32l-23 -45l-20 -70l-7 -4l-24 -59l-21 -62l-6 -4l-24 -57l-11 -15l-2 -41l-6 -4l-16 -28v-9l-4 -4l-4 -18l-6 -10v-15l-9 -14v-8h-6 l-6 -33l-29 -57l-14 -31l-20 -59v-7l-9 -12l-4 -20h-6v-9h-4l-12 -30l-6 -6l-11 2l-6 6l-6 28l4 5v10l4 4v22l23 58l24 63l19 51l2 13l8 2l21 37l16 65l6 6l4 13l25 24l10 31l-4 22l24 58l17 63l10 10v9l14 24l17 51l10 13v10l4 2l12 43l2 8l19 25l18 -2zM1630 997h4l4 -8 l-16 -127l-6 -10l-2 -14l-25 -64l-24 -57l-6 -51l-25 -56v-4l-6 -4l-2 -24l-19 -25l-6 -21l-12 -12l-8 -33l-17 -24v-8l-22 -21l-2 -12h-4l-17 -57l-8 -23l-10 -12l-2 -11l-10 -4l-5 -14l-32 -14l-11 22l17 43h4l2 17l12 16v8h4l2 13l39 53v8l11 10v8l16 29l2 14l23 60v10h4 l12 31v8l8 2l6 33l8 14l5 19l10 20l18 68l8 32l4 4v15l9 10l16 66l4 2v14l23 53l4 6zM1837 440l6 -4l4 -33l-14 -28l-43 -49l-16 -11l-2 -12l-19 -31l-20 -24l-15 -6l-22 -23l-49 -37l-43 -35h-11v-4h-8v-4l-59 -12l-21 -6l-10 -8l-41 -13h-63l-35 -4l-15 6l-8 13l6 18l7 4 l57 8h35l63 21l15 8l47 8l8 13l14 4l19 18l8 2l10 10l8 2l25 23l12 6l14 19l13 2l18 26l47 47l10 13v8l11 10l16 29l21 24l12 4zM1288 137v-4l-4 -14l-29 -8l-28 -17l-19 -6l-8 -12l-26 -17l-44 -47h-10l-4 -8l-14 -4l-10 -12l-31 -17l-12 -2l-25 -16l-10 -2l-8 -12l-15 -5 l-10 -10l-53 -16l-29 -4l-29 4l-12 8v18l27 15l59 18v4h10v4h9l22 11l27 4l18 16l12 2l48 43l55 33l47 53l20 6l13 9l32 2l27 -9zM520 76l2 -2v-17l-20 -32h-8l-45 -45l-43 -35h-13l-6 -6l-31 -15h-20v-4l-33 -6l-31 -16l-63 -4l-62 10l-30 16l-2 10l10 11l16 2l68 -9h31 l14 5l8 10h14l15 8l49 4l29 14l45 45l16 3l49 47l10 12l11 2zM799 -78l2 -2l-4 -18l-13 -4l-61 8l-33 10v18l70 5l31 -11z" />
<glyph unicode="x" horiz-adv-x="1122" d="M1341 434l5 -2l-9 -31l-30 -57l-21 -22v-9l-18 -14v-10l-11 -4v-11l-8 -4l-4 -14l-10 -8v-10l-10 -5v-8l-6 -4l-2 -10l-11 -4l-4 -12l-47 -50l-45 -49l-8 -14l-19 -8l-12 -17h-8l-25 -18l-8 -10l-14 -4l-45 -45l-4 -7l-31 -10l-6 -6l-10 -2v-4l-31 -17l-12 -2l-3 -4 l-61 -18l-14 -6l-58 -4l-71 2l-19 2v6h-10v4l-27 8l-2 15l13 6l16 2l68 -11l65 5l53 20h4l5 6l51 29l57 26l60 39l12 9l8 14l49 41l41 51l10 19l43 36l2 9l13 10l12 26l23 25l16 27l16 18l6 14l13 11v8h4v10h4v8h4v11h6l4 22l33 25zM1184 926l4 -2l10 -15v-8l-12 -10l-4 -14 l-8 -5l-9 -20l-24 -27l-27 -20l-39 -49l-2 -8l-49 -43l-47 -43l-19 -17l-4 -14l-30 -27v-8l-43 -45l-47 -45l-37 -53l-13 -68l-12 -63l-2 -64l-4 -33l6 -24l-6 -6l-18 -2l-9 8l-8 61l4 72l2 14l6 10v17l5 10v35l4 4l6 33l4 4v33l20 36l52 41l18 27l12 6l2 12l11 7v8l49 49 l12 6l43 49l12 23l49 41l23 22l18 27l47 47l25 20l25 15zM483 821l4 -4l-6 -24l-47 -43l-6 -7l-4 -14l-45 -47l-14 -20l-5 -15l-10 -12l-6 -2l-8 -25l-25 -26l-2 -13l-18 -28l-10 -33l-21 -25l-24 -41l-3 -10l-16 -18l-14 -4l-15 8l-2 16l9 25l6 2v10l6 4l18 51l23 33l6 16 l20 25v8l15 10v11h4v8h4v10h6l12 37l11 4l4 14l6 5l2 8l37 51l22 25l27 18l22 8l11 12l16 -2zM444 143l2 -2v-16l-14 -27h-8l-43 -45l-41 -53l-45 -45l-27 -21l-12 -2l-10 -8l-66 4l-71 -6l-33 4l-13 8l-6 13l9 14l65 4l66 -4l30 6l27 19l45 43l16 10l37 51l27 19l35 36z M793 870l2 4l16 -2l10 -10l8 -33l-2 -24l-6 -6h-22l-8 20z" />
<glyph unicode="y" horiz-adv-x="1132" d="M1339 442l4 -2l5 -8l-5 -31l-12 -28l-6 -2l-6 -17l-19 -24l-4 -15l-8 -4l-6 -14l-8 -4l-4 -14l-47 -48l-37 -47v-6l-43 -51l-45 -47l-47 -47l-11 -13l-28 -18l-19 -18l-12 -2v-5h-8v-6l-17 -6l-16 -16h-10l-56 -37l-40 -23l-11 -12l-28 -16l-9 -11l-36 -8l-29 -12 l-49 -39l-21 -22v-37l-18 -43l-15 -6l-4 -9l2 -8l-18 -55l-10 -29h-6v-8h-4v-10h-5l-12 -29l-18 -22l-6 -15l-13 -12l-4 -14l-6 -7l-4 -12l-43 -43l-6 -2l-43 -51l-12 -2v-4h-9l-24 -15l-31 -8l-8 -12l-29 -14l-63 -15l-72 -6l-31 2l-33 8l-20 11l2 16l12 10h33l29 -8l33 -2 l67 14l66 19l51 39l51 43l23 24l18 29l8 6l21 39l10 14l2 15l18 14l5 14l10 13l8 24l37 51l12 58l21 33l10 38l6 5l2 14l12 12l17 6l16 17l31 14l18 16l60 21l28 18l25 11v4l12 6l39 37h6l43 37h10l5 10l14 2l49 43l47 45l47 51l17 14l6 17l8 2l10 20h4l2 9l19 14v10l8 4 l6 15l8 4l19 28l24 23v8l6 4l21 39l22 45l25 14zM1124 973h11l6 -6l4 -15l-17 -59l-16 -27l-18 -51l-11 -10v-8l-8 -13l-4 -34l-14 -27l-10 -8v-8l-11 -11l-4 -24l-8 -21l-2 -16l-14 -23l-2 -24h-5l-4 -17l-28 -59l-4 -16l-7 -9v-10l-10 -8l-14 -55l-6 -21l-23 -33l-12 -28 l-14 -17l-13 -47h-4l-6 -30l-25 -52l-14 -45l-2 -12h-6v-8h-4l-6 -37l-8 -23l-13 -10l-20 2l-6 6v31l10 33l6 2l6 33l25 59l10 31l53 119l25 63l45 123l24 59l33 54l17 67l22 62l19 34l8 33l6 4l22 47l11 11l6 28zM522 877h19l10 -23l-14 -61l-11 -9l-2 -14l-10 -12l-12 -58 l-23 -36l-4 -15l-10 -14l-2 -23l-6 -4l-2 -33l-13 -22l-22 -14v-11l-23 -32v-52l-8 -20l-14 -21l-4 -14l-11 -14l-8 -49l-20 -23l-15 -29l-6 -63l-8 -23l-8 -4l-8 2l-8 9l-5 32l7 56l10 4l4 16l4 2l-4 25l14 26l21 60l16 28l10 33l17 25l6 4v8l8 4l2 12l6 7l2 26l6 4v19 l7 12v16l8 33l18 45l13 13l6 24l12 12l22 58l23 63zM281 -276l10 -11l-6 -16l-25 -19l-31 -14l-6 -6h-20l-29 -10l-4 -10h-10l-4 -15l-9 -4l-12 -22l-49 -48h-8l-12 19l16 47l47 43l25 6l14 10l10 15l62 18l4 10l16 4l2 5zM410 10l2 -2l-2 -6l4 -16l-15 -13l-2 -10l-10 -4 l-8 -10l-33 -17l-59 -22l-33 -10h-33l-12 8l-2 18l61 13h8l103 77l18 2zM592 971l4 -2l-4 -37l-6 -14l-23 -19l-12 -4l-6 35l10 31l10 10l15 4z" />
<glyph unicode="z" horiz-adv-x="1073" d="M604 -57h12l5 4l65 -6l68 2h30l19 6l33 28l14 5l20 16l13 2l4 8l47 29l4 8l49 37l49 45l23 23l2 10l10 4v10l23 23l8 16l24 20l4 13l25 24l4 15h4l23 57l2 6l49 43l6 -2l12 -27l-8 -22l-10 -8l-2 -13l-14 -30l-15 -19v-8l-24 -22l-31 -54l-2 -8l-33 -22l-4 -15l-47 -45 l-41 -51l-8 -14l-58 -35l-30 -31l-21 -6l-12 -10l-25 -6l-12 -13l-10 -2l-8 -10l-33 -4l-19 4l-22 -10l-70 -8l-37 -4l-45 4l-10 6l-8 12l2 19zM1163 864l4 -4l2 -8l-12 -25l-53 -45l-45 -45l-49 -47l-31 -20l-6 -15l-27 -18l-16 -27l-49 -37l-4 -10l-13 -2l-22 -26l-47 -43 l-17 -21l-20 -12l-4 -8l-13 -7l-14 -16l-14 -4l-8 -14l-15 -4l-43 -50l-22 -20l-11 -14l-18 -13h-16l-15 8l2 17l8 12l29 19l17 18v14l47 43l26 21l33 37l41 22l20 27l37 31l15 4l43 47l26 26l2 13l54 43l8 10l12 2l6 14l25 21l20 26l39 27l37 31l4 14l35 14zM553 735l2 -4 v-8l-8 -10l-12 -6h-72l-45 -13l-10 -10h-9l-10 -12l-14 -6l-19 -29l-22 -23l-2 -12l-13 -10v-10l-22 -23l-2 -12l-41 -72l-8 -4v-10h-4v-8h-6v-11h-5v-8h-4v-10l-14 -4l-8 -10h-10l-15 22l4 29l35 51l8 4v10h4l17 43l16 17l2 12l8 4l9 16l12 11l27 53l24 23l10 2l6 12l29 6 l19 12l22 8h31l14 -6h17l2 -4l34 8h17zM385 2v-4l-16 -6l-50 2l-65 -12l-23 -23l-32 -12h-15l-12 8l4 27l27 14l61 22l19 13l69 -4l17 -4l12 -9zM1284 446l4 -4l-2 -18l-10 -10l-10 -4l-11 14l2 16l17 13z" />
<glyph unicode="{" horiz-adv-x="964" d="M1274 1712h4l4 -33l-25 -59l-6 -21l-12 -12l-8 -33l-14 -28l-27 -33h-12v-4l-33 4l-55 -8l-58 -29l-47 -43l-20 -18l-2 -13l-19 -24l-16 -31l-6 -4l-2 -12l-11 -13l-12 -28l-14 -62l-9 -24l-6 -6l-18 -62l-23 -61l-14 -62l-12 -43l-2 -16l-6 -6l-2 -17l-9 -10l-14 -33 l-10 -12l-2 -12l-25 -23l-22 -33l-4 -16l-19 -24l-24 -25l-39 -29l-13 -2v-6l-32 -4l-60 -29l-6 2l-4 9l-8 4l2 18l24 19l60 24l16 16l23 11l4 10l14 8l39 55l16 29l7 4l6 15l6 4l12 30l27 45l14 66l18 59l11 31l14 68l10 30l19 29l8 29l6 8l4 24l10 13l4 28h5l16 29l39 41 l2 12h4v11h4l4 14l17 14l8 17l53 28l16 4l13 13l28 8l52 -6l28 16l13 12l4 15l10 12v12l29 62l20 45l16 14l9 2zM569 565h9l14 -4l8 -22l-6 -15l-4 -69l-12 -60l-5 -18h-4v-10h-4v-9l-12 -20l-12 -12l-6 -15l-7 -4v-10h-6v-8h-4l-18 -58l-33 -57l-14 -29l-13 -43l-20 -22 l-19 -62l-10 -12l-20 -51l-4 -35l-9 -10l-12 -6h-18l-2 30l18 62l14 45l13 20l6 5l20 61l21 33l12 35l14 28v8h5v11h4v8h6v10h4v10h4v9h4v10h6v8l10 12l23 64l6 18l14 25l9 22l8 8l10 62l2 45zM502 -182l16 -8l-6 -48l-12 -12v-14l-15 -41h-4v-10h-4v-9h-6v-10l-18 -26 l-25 -23l-27 -12h-18l-14 6h-25l-6 14l12 10l33 9l43 26l2 17l12 22v8l17 29l6 35l10 24l12 15zM199 573l4 -2l2 -10l-12 -20h-33l-17 12v8l9 14l14 5zM328 -379v-6l-33 -6l-19 2l-10 8l-4 8l2 6l17 9h32l13 -9zM250 -375v-4l-14 -4l-17 6l-12 10l-4 11l14 2l25 -6z" />
<glyph unicode="|" horiz-adv-x="780" d="M524 999h4l4 -32l-12 -49l15 -60v-67l-5 -66l5 -63l-5 -68l-2 -35l-4 -4l11 -57l-3 -74l-4 -68l-2 -34l-8 -13l-10 -4l-10 19l-9 63l7 23l-11 63l4 64l7 30l-9 62v30l9 37l-9 64l13 61l2 8l-6 21l4 33l-8 32l4 64l10 18zM510 186h4l10 -2l11 -22l-3 -35l7 -43h-4l-7 -64 l4 -61l-4 -70l4 -65l7 -66v-53l-11 -14l-14 -4l-2 -9l-14 -4l-6 -6h-62l-10 8v27l12 6l33 6l12 6l4 11h6l2 65v131l-2 64l5 131l2 33l6 24zM502 1624h8v-4l18 -14l11 -45l-11 -68l7 -63l-7 -33l4 -33l-4 -33l4 -65v-66l5 -76l-5 -32l-6 -13l-10 -6h-14l-8 8l-7 35l5 64 l-5 63l5 64l4 65l-7 62v69l11 29l-11 65l-2 13zM520 299h4l-18 -6l24 -6l5 -29l-3 -16l-8 -11h-14l-10 13l-6 24l8 25z" />
<glyph unicode="}" horiz-adv-x="956" d="M735 291v-4l-16 -27l-14 -63l-17 -60l-2 -18l-4 -4l-2 -23l-18 -37l-15 -51v-29l-16 -26l-10 -31l-11 -16l-6 -21l-18 -26l-2 -15l-9 -10l-10 -27l-35 -30l-24 -23l-25 -35l-14 -4l-41 -30l-14 -5l-11 -12l-30 -6l-60 -23l-63 -16l-15 -6l-59 -4l-61 4l-66 -2l-16 2v6 l-19 4l-2 15l4 6h25l2 8h35l24 4h70l63 10l33 2l27 8l14 11l51 16l2 4l15 2l14 10l14 5l27 20l14 4l25 29l14 6l33 53l19 25l26 45l4 22l8 15l2 14l29 59l6 25l17 29l10 63l10 35l15 31l12 63l37 123l4 18l10 19l12 12l2 15l15 24l22 25l41 30l14 21l50 22l12 7l65 6l9 6 l32 8l23 20l20 27l11 33l4 31l26 53l23 24l18 -2l9 -8l2 -14l-11 -37l-32 -57l-7 -4l-2 -11h-4l-14 -41v-16l-14 -12l-2 -13l-7 -6h-10v-6h-8l-10 -6l-56 -4l-22 -8v-4l-62 -23l-14 -8l-8 -10l-12 -2l-45 -50l-2 -14l-11 -10l-2 -14l-12 -13l-4 -14l-10 -8l-15 -56z M1196 1581h4l10 -2l11 -12l4 -68l-4 -63l-7 -13l-4 -32l-8 -11l-6 -16l-6 -4l-4 -12l-10 -13l-5 -32l-12 -27h-4v-10h-4v-9h-6l-8 -32h-7l-8 -27l-22 -35l-8 -28l-21 -23l-12 -20l-15 -41l-26 -60l-17 -45l-8 -4l-22 -59l-6 -17l-13 -8h-10l-14 8l-4 17l2 24l14 27l8 31 l29 57l18 29l2 10h4l11 33l28 55l21 51h6v10h4l6 21l21 26l10 31l16 35l9 4l10 14l18 60l17 41l2 33l10 28l2 37h-4l-4 31l4 8zM838 1522l10 -11v-10l-10 -10l-15 -4l-51 14l-2 25l35 4l18 -2z" />
<glyph unicode="~" horiz-adv-x="1527" d="M1419 496l2 -2l-4 -23l-22 -25l-52 -40l-24 -21l-27 -14l-47 -33l-26 -16l-64 -11l-63 -8l-70 8l-14 6l-11 11l-2 8l17 8h61l62 14l65 15l31 12l55 35l49 43l54 41l18 -2zM735 442v-4l-67 -4l-54 -2l-59 -29l-57 -22l-9 -2l-18 8v19l14 16l13 2l4 8l12 4l12 13l56 18v4 l65 6l53 -6l31 -16z" />
<glyph unicode="&#xa1;" horiz-adv-x="774" d="M516 496l4 -2l4 -17l-20 -63l-6 -33l-4 -4l-17 -66l-16 -55l-23 -39l-16 -63l-8 -35l-23 -58l-6 -4v-32l-18 -56l-19 -63l-8 -21l-10 -10v-8h-4v-10h-4v-9l-13 -26l-8 -47l-27 -58l-4 -4l-4 -55l-6 -4l-8 -33l-19 -47h-4l-12 -27l-33 -30l-45 -4l-63 12l-6 4l-64 -4 l-12 8l-2 8l8 13l23 4l75 -2l33 2l29 8l20 12l4 12l11 7l14 43l16 59l21 63l22 62l21 61l16 64l10 39l9 6l4 29l8 6l-2 16l10 16l4 33l6 4l8 15l3 14l14 29l16 63v14l8 19v14l13 13l2 24l8 6l2 21l25 61l10 31l4 31l12 30l13 13h24zM729 897v4h8l15 -16l8 -31l2 -37l-19 -65 l-6 -31l-39 -49l-10 -13l-14 -6l-10 -12l-23 -4l-4 -4h-25l-12 12v10l21 23l45 33l24 24l6 17l11 10l20 61v66zM-41 -455v-8l-6 -12l-35 -6l-24 4l-5 28l33 7l19 -2zM537 651l2 4l8 -4l-2 -16l-6 -2l-4 6z" />
<glyph unicode="&#xa2;" horiz-adv-x="954" d="M940 162l2 -4l4 -4v-9l-16 -26l-23 -23l-53 -30l-51 -41l-27 -25l-20 -4l-8 -10h-15l-57 -25l-10 -8l-58 -12l-4 -7l-61 -22l-64 -8h-65l-37 -10l-4 -9l-23 -8l-28 -35l2 -16l4 -4l2 -17l-8 -22l-39 -51l-15 -8l-14 -3l-16 7l-15 12l4 16l37 31l6 14l9 4v11l10 8l4 14 l18 10l4 9l-4 41l33 34l25 7l71 4l64 12l33 2l63 18l12 11l37 10v4l33 12l10 8l33 13l6 6l12 2l23 22l53 35l25 23l14 4l8 12l47 35l17 -2zM627 610l4 -2l4 -8l-17 -61l-6 -4l-4 -25l-10 -8l-4 -39l-14 -17v-12l-21 -55l-10 -31l-10 -10l-4 -23l-7 -8l-4 -24l-22 -33v-8 l-8 -11l-13 -49l-10 -12l-14 -8h-11l-10 16l13 51l24 58l27 63l24 64l21 61l10 14l2 13h4v8h6l6 29l17 45h4l2 12l18 14h13zM586 856l4 -2l-4 -18l-41 -48l-39 -28l-2 -35l-8 -27l-33 -39l-2 -14l-10 -10l-11 -33l-26 -31l-4 -14l-11 -8l-18 -6l-6 12l6 33l16 47l6 6v8 l29 33l2 12l19 31l2 16l47 33l8 43l51 39l6 6h11zM348 502h10l13 -8l6 -17v-35l-8 -39l-19 -55l-10 -63l-4 -33l-12 -19l-9 -2l-12 7l-6 14l2 27l4 6l-6 49l12 31l6 6v10l7 4l2 66l10 28zM1044 924h23l14 -66l-10 -63l-8 -66l-10 -29l-23 -20l-8 -2l-14 22l2 31l6 21l6 4 l2 28l12 29l4 64v36zM743 879l5 -2v-17l-19 -53l-27 -57l-20 -17l-12 -65l-2 -4l-21 2l-6 4l-4 12v16l6 19l16 24l15 56l26 61l5 14l14 19h10zM920 1296l4 -2l-6 -30l-23 -41l-4 -27l-12 -25l-13 -8l-26 11l-2 4l20 57l14 49l11 6v8l8 11l18 -2zM993 649h19l6 -16l-2 -17 l-10 -14l-9 -4l-8 -14l-26 -6l-35 -3l-35 5l-10 10v8l8 10l8 4l35 2l24 7l11 12zM821 596v-12l-28 -9l-37 -2l-27 7l2 30l31 8l37 -2l14 -8z" />
<glyph unicode="&#xa3;" horiz-adv-x="1447" d="M1294 399h19l8 -22l-23 -64l-20 -63l-8 -23l-17 -18l-8 -25l-12 -8l-12 -37v-4l-9 -4l-2 -10l-8 -4v-8l-10 -7v-10l-8 -4l-17 -25l-94 -94l-49 -22l-18 -6l-13 -13l-10 -2l-8 -10l-66 -6l-57 -12h-74l-33 4l-22 10l-61 14l-13 17v16l8 4l29 -12l33 -6l4 -4l61 -4h72 l62 12l47 14v4l30 6l21 15l22 22l23 17l33 30l6 13l45 51l35 59l2 6l10 9l4 14l6 4l21 31l18 55l25 59zM1231 735l2 -2l-21 -61l-10 -37l-8 -2l-10 -21l-25 -8l-72 -6l-61 4l-65 -10l-21 -8l-20 -25l-17 -57l-14 -29l-8 -4l-15 -59l-12 -29l-6 -6v-8l-12 -29l-21 -27l-8 -30 l-8 -15l-6 -2v-8l-7 -4l-2 -10l-14 -11v-8l-12 -8l-13 -22l-28 -13h-12l-7 17l11 30l32 52l13 10l16 26l4 15l39 47l6 29l15 26l10 31l10 10l4 35l21 57l2 33l8 4l8 12l27 13l59 12l70 -4l32 -6l33 6l45 37l11 33l32 43zM1221 1174v-5l-15 -8l-32 -6l-50 -22l-34 -29v-10 l-19 -13l-2 -12l-14 -10l-4 -12l-17 -17l-2 -10l-6 -4l-8 -35l-27 -59l-22 -39l4 -37l-4 -31l-8 -12l-15 -6l-16 8l-6 14l10 49l12 13v8l4 4v43l6 6l5 23h4l18 53l23 49l10 27l10 6v8l45 47l4 8l12 2l27 21l27 8l33 2l4 4l30 -8zM1540 1133h23l4 -31l-13 -62l-10 -34l-8 -11 v-8l-16 -18l-2 -15l-11 -18l-37 -23l-65 5h-51l4 26l61 8l33 2l23 21l18 24l25 64l20 65zM346 -74l-2 4v9l29 12l35 -6l14 8l12 2l25 22h10v5h8v4l29 4l14 6l4 -6l15 2l12 -12l2 -17l-25 -18l-41 -11l-18 -8l-33 4l-37 -6l-6 -6h-35zM590 621v-5l-17 -14l-16 -6h-53l-8 10 l2 19l4 6l33 8h34l17 -8zM1333 938l2 -2l-2 -8l-47 -15l-16 2l-13 9l3 18l10 10h35zM324 -49l2 -2v-23l-17 -6l-18 2l-12 8l2 21l16 4zM1561 1231l2 -2v-4l-7 -4l-18 2l-2 6l6 4z" />
<glyph unicode="&#xa4;" horiz-adv-x="1236" d="M727 852l-2 -6l-2 -8l-6 -4l-25 -3l-10 -6l-8 4l-51 -16l-5 -8l-49 -35l-2 -12l-10 -10l-20 -43l-7 -7l-2 -12l-22 -12l-4 14l-6 6l-4 15l2 16l12 29l6 26l37 45l14 2l23 21l61 18l60 2l12 -6zM893 303l4 -8v-8l-8 -15l-15 -10l-16 -2l-12 -12l-31 -12l-6 -7h-64l-63 -8 l-68 4l-53 17l-8 12v12l33 2l32 -6l64 -2l33 -2l61 21l60 14l28 10v4l15 2zM1098 758l2 4l20 -4l8 -13l7 -69l6 -29l-2 -33l-11 -32l-8 -56l-8 -14l-6 -4v-10h-6v-9h-4l-2 -12l-19 -8l-12 2l-8 12l-2 15l14 32v11h6v8h4l15 57l8 49l-4 64zM1186 326l2 -4l2 -9l-14 -18 l-7 -14l-51 -43l-8 -13l-27 -16l-26 -27h-27l-8 15l2 12l45 51l47 47l27 19v4l22 10zM1186 1008l2 -4l-2 -17l-43 -47l-25 -33l-41 -24h-10l-12 22v15l37 51l51 47l14 6l17 -4zM481 289l2 -4v-11l-26 -16l-11 -14l-20 -15l-18 -28l-13 -13h-8l-10 -12l-19 -8l-18 16l-4 9 l2 14l20 29l54 40l20 13h10l7 8l14 2l12 -4z" />
<glyph unicode="&#xa5;" horiz-adv-x="1081" d="M967 629h4l10 -15l2 -14l-6 -29l-23 -41l-4 -16l-6 -2v-10l-12 -10l-10 -3v-6l-52 -8h-73l-33 -4h-66l-14 -6l-25 -25l-10 -28l-6 -2v-9l-10 -10l-4 -16l-27 -64l-10 -30l-10 -11v-8l-7 -12l-2 -17l-6 -4l-6 -24l-22 -51l-9 -11l-4 -24l-10 -10l-18 -52l-9 -32h-4v-9h-6 l-8 -28l-14 -29v-6l-27 -23h-61l-33 -8h-162l-22 4l-7 15l5 14l6 6l28 6l49 -6l60 4l74 -2l28 4l25 21l12 28l10 41l11 11l8 20l14 10l12 33l7 6l8 29l6 35l27 61l20 57l25 64l24 59l8 31l39 39l31 2l63 -4l64 6l35 -2l30 -6l25 22l21 27l20 57h4l10 13zM1313 1386l2 -2 l-8 -32l-15 -29h-4l-2 -8l-39 -53l-43 -45l-20 -27l-4 -14l-11 -15l-4 -16l-18 -25l-25 -24l-35 -47v-7l-40 -43l-19 -28l-16 -17l-4 -12l-9 -4l-8 -14l-16 -15l-17 -4l-10 6l-8 15l33 55l16 14v9l15 8l6 14l12 14l2 9l6 4l4 12l15 10l6 17l43 47v8l12 8l25 37l4 16l37 47 l41 54l43 51l22 29zM1075 862l4 -2l2 -16l-16 -53h-6l-6 -25l-17 -33l-22 -22h-129l-39 -2l-25 -13l-22 -20h-19l-8 14l6 15l21 26l20 12l31 5l65 -5l56 11l14 4l2 6l21 14l2 13h4v8l8 10l14 41l17 12h22zM694 1370l13 19h18l12 -19l2 -10l-14 -60l-4 -71l2 -29l-10 -67 l-4 -68l-4 -6l2 -17l-5 -6h-4l-2 -24l-6 -6l-24 -2l-4 6l4 63v33l10 33v63l10 64l2 67zM348 739l2 -4l-4 -20l-12 -8l-35 -7l-39 5l-29 10l-2 16l4 12l15 7h84l12 -5zM242 502l2 -4v-6l-13 -13l-22 -8l-49 8l-10 10v9l6 6l32 6l13 6h24z" />
<glyph unicode="&#xa6;" horiz-adv-x="780" d="M522 1622h4l11 -31l-2 -65l-5 -64l2 -65v-31l5 -14l-11 -47l6 -48l-6 -16l9 -63l2 -33l-5 -62v-67l-2 -17l-12 -18h-10l-12 10l-11 31l4 63l11 66l2 68l-13 63l-4 33l11 63l-13 64l4 65l7 66l4 45zM504 166h10l8 -55l15 -7l-5 -63l-6 -64l6 -65v-66l3 -65l-3 -66l-4 -18 l-28 -33l-68 4l-12 10v9l8 12l33 6l14 10l14 23v135l-2 66v63l2 66l5 63zM500 526h22l6 -30v-68l4 -61l-6 -64v-35l6 -30l-2 -33l-8 -15h-24l-9 48l7 34l-9 64l9 24l-11 66l2 35l9 31v24zM504 944h14v-4l8 -6l6 -31l-6 -69l-6 -41l-26 -27l-13 -2l-6 -6l-16 6h-15l-10 4 l2 25l25 4l24 18v8l11 11v30l-7 33v25l7 4z" />
<glyph unicode="&#xa7;" horiz-adv-x="1175" d="M283 -72v6l16 11h31l28 -6l64 -2l33 4l59 20l61 29l56 41l4 14l12 8l4 13l17 16v10h6l14 43v8l17 29l8 31l16 26l23 25l14 4l8 10l25 8l8 11h10v4l25 4l47 41l20 20l31 60l8 24l2 27l6 4l5 16l8 13l-4 67l4 19l6 6h14l4 -6v-17l4 -4l4 -24l-6 -72l-2 -31l-22 -49l-35 -55 l-23 -43l-53 -39l-29 -16l-10 -11l-28 -10l-29 -20l-2 -11l-12 -6l-11 -65l-26 -50l-45 -51l-23 -24l-4 -13l-16 -20l-13 -2l-8 -14l-12 -9l-27 -4l-26 -12l-35 -10l-64 -4l-49 6l-65 -4l-15 4l-10 10l-12 4zM1108 1010h10l15 -9l4 -32l-2 -27l-21 -68l-39 -51l-49 -39 l-31 -6h-30l-4 4h-17l-4 4l-2 25h23l47 10l26 21l41 51l6 6l11 64zM850 1094v-11l-2 -8l-10 -8l-35 -4l-39 -29l-2 -10l-8 -4l-6 -21l-17 -26v-17l-12 -12l-19 2l-8 15v32l13 45h6l12 27l20 14l17 21l10 2v4l27 6l28 -2v-4l15 -2zM385 309h4l10 -26l-6 -68l2 -16l-39 -47 l-41 -15l-14 15l6 24l39 41l16 27v51l7 12zM526 784l2 -2l-6 -16l-20 -25l-27 -22l-12 -57l-4 -19l-19 2l-10 8l-4 33l4 33l12 35l17 22l28 25l19 -2z" />
<glyph unicode="&#xa8;" horiz-adv-x="851" d="M846 1300l4 31h22l11 -26v-11h4l2 -34l-12 -64l-17 -18l-6 -15l-45 -37l-14 -4l-9 -10l-63 -4l-16 2l-13 8l-2 10l6 13l23 4v6l31 6l34 21h9l4 10l14 4l21 14l16 27zM487 1260l7 -3l6 -34l-8 -29l-21 -25l-55 -39l-29 -10l-6 -6l-53 -12l-9 2l-2 4h-10l-6 4l-4 16l8 11 l49 14l62 27l14 4l23 63l12 15z" />
<glyph unicode="&#xa9;" horiz-adv-x="1441" d="M1030 969l-2 -6l-14 -5l-62 15l-63 4l-127 -8l-31 -15l-14 -12h-31l-16 -6l-47 -41l-7 -6l-14 -4l-27 -21l-26 -12l-49 -45l-37 -35l-4 -14l-10 -4l-5 -15l-8 -4l-12 -24l-14 -15l-7 -16l-12 -8l-6 -25l-10 -8l-21 -57l-12 -31l-8 -27l-2 -28l-8 -33v-35l-7 -33l-16 -16 l-20 12l-5 29l7 67l2 31l8 29l8 12v23l10 14l2 25l27 49l41 65l4 15l21 16l2 12l14 8l39 54l57 37l49 45l54 36l32 3l23 6l12 12l49 16h23l18 15l58 4l73 2l37 -2l55 -15l15 -4l10 -8zM1380 750h11l8 -2l8 -13v-10l4 -4l8 -59v-29l-6 -17l6 -32l-2 -23l-10 -31l-2 -18l-6 -8 v-17l-13 -45l-6 -4l-2 -35l-20 -57l-23 -33l-4 -14l-12 -12l-4 -13l-41 -49l-10 -30l-25 -21l-18 -27l-45 -47l-11 -12l-16 -6l-12 -12l-15 -4l-24 -19l-15 -6l-49 -43l-6 -6l-14 -4l-31 6l-2 10l20 23v8l15 4l2 8l12 4l25 19l14 4l51 43l10 10l5 10l12 2l20 27l27 20l39 52 l37 28v10h4l16 29l25 55l12 25l19 61l6 7l6 57l18 55l4 31l-4 66l4 30l-6 47zM846 735l2 -4v-10l-21 -25l-49 -39l-45 -51l-6 -6l-4 -35l-21 -35l-18 -51l-10 -35l-2 -32l-6 -17l-7 -6l-24 -2l-6 8l-2 15l16 53l2 33l25 59l12 23v10h4v8h4v10h4v8h6l13 31l2 14l47 50l6 6 l10 2l4 10l25 6l12 12l15 -2zM940 -2l29 -14l-4 -17l-33 -26h-33l-29 -7l-28 -14l-64 -12l-33 -6l-32 4l-21 -6l-16 6l-14 -6l-23 4l-4 6l2 20l35 2l28 9l37 2l62 16l28 4l56 17l28 10l19 2zM1036 371l2 -2l-14 -52l-18 -12l-2 -12l-56 -41l-53 -35l-53 2v8l10 13l8 2l10 20 l15 4l4 10l14 5l35 30l27 15l45 53l16 -2zM1061 745h14l8 -14l7 -26l-9 -66l-6 -33l-31 -47l-24 -22l-12 -7h-9l-16 11l-2 12l41 43l25 63l6 17v57zM717 188l2 -4l-6 -14l-21 -12l-35 2l-18 6v18l4 6l31 11l33 -2zM543 -59v-2l-8 -15l-15 -4l-33 8l-20 11l2 16l12 10l17 2 l18 -4zM825 219l4 -2l-4 -16l-8 -13l-12 -8l-19 -2l-16 6v27l33 12h16zM911 559l2 -4v-8l-8 -12l-28 -5l-7 17l11 22l26 -6z" />
<glyph unicode="&#xaa;" horiz-adv-x="1034" d="M1098 1366h14l6 -6l-8 -31l-23 -47l-8 -31v-24h-4l-24 -64l-13 -28l-10 -15l-12 -65l-6 -23l-11 -8l-2 -16l-10 -9l-20 -51l-6 -6l-3 -12l-32 -41l-11 -33l-8 -61l-14 -27l-14 -6l-5 2v55l15 29l2 35l22 53l21 61l12 31l10 14l5 17l6 6l16 59l25 58l22 65l17 39l10 14 l12 29zM709 1249l4 -4v-24l-13 -11l-59 -28l-47 -45l-16 -13v-8l-11 -22l-10 -11l-14 -30l-11 -13l-20 -45v-8h-4l-12 -61l-11 -29l-12 -20l-14 -58l-17 -10l-16 8l-2 17l16 63l17 61l12 39l14 13l17 26l18 62l2 8l25 24l16 25l12 35l19 18l14 4l2 9l62 20l26 10zM610 672h4 l4 -8l11 -7l-4 -18l-37 -39l-27 -10l-16 -17l-6 2l-27 -18l-8 -12l-37 -13l-55 5l-39 -19l-15 2l-8 12l-14 7v6l16 8l60 10l63 25l55 33l29 26l12 2l25 19zM1022 616l2 -2l-2 -18l-8 -14l-56 -29l-14 -8l-18 -4l-15 18l19 25l31 14l30 27l19 -2zM858 557l2 -2l2 -10l-6 -15 l-10 -8l-68 6l-20 9l-4 8v14l14 6l33 -6l51 2z" />
<glyph unicode="&#xab;" horiz-adv-x="1701" d="M983 930h14l9 -12l-5 -17l-10 -8v-16l-16 -64l-21 -61l-14 -29l-4 -16l-10 -13l-4 -16l-11 -14l-2 -13l-6 -4l-12 -29l-31 -34l-12 -2l-41 -29h-8l-54 -41l-18 -4l-37 -33l-22 -10l-4 -8l-13 -2l-4 -9l-20 -12l-11 -2l-18 10l-6 11l10 18v8l14 4l15 19h8l43 37h8v6h10v4 h9l53 37l51 32l16 13l37 45l8 31l23 34l16 58l25 57l31 55zM1538 879l2 4l4 -4l4 -25l-6 -33l-24 -55l-31 -55l-8 -4l-4 -35l-19 -49l-14 -9l-17 -18l-6 -14l-55 -35l-57 -27l-21 -14l-16 -4l-4 -8h-11l-4 -11h-8l-35 -34l-22 -11l-19 15l-8 12l8 14l15 10l14 5l4 8l31 10 l16 27l62 28l57 33l49 43l6 6l6 29l11 6v8l18 15v22l10 14l4 33l13 19l20 59zM739 272l2 -2v-26l-18 -33l-8 -51l-10 -15v-10h-5l-14 -45l-27 -41l-14 -6l-20 10l-4 8l18 64l25 63l10 15l20 57l15 16v5l18 -2zM1305 254l2 -2l-2 -29l-27 -45l-4 -31l-4 -2l-2 -16l-19 -29 l-4 -16l-12 -12v-11h-4l-6 -14l-19 2l-8 12l4 33l23 64l10 32l16 23l6 25l21 24l18 -2z" />
<glyph unicode="&#xac;" horiz-adv-x="1239" d="M1143 635l6 -2l8 -17v-12l-8 -20l-6 -6l-2 -15l-13 -12l-4 -14l-10 -15l-12 -43l-4 -16l-6 -6l-23 -64l-14 -37l-11 -14l-20 -59l-27 -60l-12 -26l-12 -50l-35 -34l-16 -4l-7 -7l-20 -6l-35 10l-14 9l-4 18l12 8l49 9l15 10l16 20v8l8 13l8 35l8 8l9 30l14 35l10 8l13 43 v15h6v8h4v10h4l4 23l10 10l8 31l25 53l22 63v5h5l6 24l8 4v8l14 15zM729 412l2 -4v-15l-10 -14l-14 -2l-31 6l-33 -6l-39 2l-26 -4l-66 8l-63 -4l-33 4l-62 -4l-65 -4l-64 4h-32l-9 4h-16l-6 4l-2 21l8 8l47 4l66 -4l32 8l64 -4l63 4l64 -8l69 -4l58 2l33 -4l47 8zM799 135 l2 -2l-6 -22l-33 -7l-49 2l-11 13l9 20l30 6l52 -6z" />
<glyph unicode="&#xae;" horiz-adv-x="860" d="M1038 1077h11l16 -8l-2 -65v-33l-16 -62l-7 -4l-2 -18h-4v-8h-4v-11h-4v-8h-6l-2 -12l-10 -17h-4l-13 -26l-10 -12l-29 -23l-2 -12l-14 -23l-45 -45l-51 -43l-15 -4l-55 -33l-12 -12l-17 -2l-8 -10l-92 -25h-63l-54 -12l-51 18l-8 15l10 14h94l66 16l63 17l39 12l11 10 l28 13l51 36l45 50l52 38l14 11v10l10 12l2 17h4l33 59l14 29l5 32l18 54l8 55zM715 1323v-4l-6 -12l-13 -7l-71 -2l-21 -12l-16 -2l-13 -12l-32 -6l-15 -6l-4 -7l-14 -4l-51 -43l-27 -18l-26 -25l-25 -16l-19 -19l-4 -22l-6 -4l-37 -62l-2 -63l-6 -33l6 -63l-6 -15l-10 -8 l-8 2l-13 31l-8 59l11 82l16 27l16 53l6 14l13 13l2 12l47 49l6 10l53 43l27 19l16 16l11 2v6l14 2l29 17l45 18l65 2l33 2l8 4l23 -8zM809 1141l2 2h25l6 -10l4 -35l-2 -37l-6 -27l-17 -26l-24 -27h-6l-27 -23l-19 -24l-8 -19l6 -6l13 -4l-2 -12l6 -33l-8 -16l6 -13v-8 l-10 -14h-17l-6 10l4 35v53l4 4l-20 27l-8 25l6 14l24 18l8 2l9 11h10l20 28l25 60zM618 936l5 -2l-2 -19l-9 -14l-2 -22l-18 -17l-8 -24l-13 -11v-28l-28 -23l-51 2l-13 6l-2 7l4 16l45 18l39 35l4 37l11 31l12 18h16zM1042 1198h7l14 -45l-6 -25h-23l-10 31l-2 25l8 12z M403 596v-4l-14 -6l-14 6l-4 18l8 4l20 -6z" />
<glyph unicode="&#xaf;" horiz-adv-x="757" d="M842 1341h4l14 -18l2 -8l-6 -21l-6 -4l-19 -61l-40 -41l-29 -4l-66 8h-32l-11 -6l-24 -4l-33 6l-33 -4l-33 4l-65 -4h-31l-31 8h-63l-66 -8h-38l-23 6l-12 16l8 15l14 6l35 -2l21 6h67l64 -12l41 12l65 2h66l65 -6l33 -2l49 10l33 -2l22 8l17 27l8 32l14 29l11 10z" />
<glyph unicode="&#xb0;" horiz-adv-x="653" d="M879 1137h22l8 -15l2 -30l-8 -64l-8 -59l-33 -58l-35 -51l-22 -24l-17 -7l-28 -28l-12 -2l-23 -21l-53 -20l-31 -15l-57 -2l-15 9l-2 18l11 10l61 21l35 8l49 29l2 6l12 2l21 24l33 29l4 14l43 54l14 28h4l8 60l10 67zM584 1253l2 -4l-8 -16l-13 -6l-47 2l-29 -12 l-28 -29v-8l-8 -4v-11l-15 -8l-8 -20l-8 -64l-2 -18h-14l-11 8l-10 33v39l6 30l19 37l36 35l11 2l22 18l29 11l33 2l30 -6zM553 766v-4l2 -6l-4 -4l-33 -7l-35 3l-24 14l-2 18l8 11l65 -15z" />
<glyph unicode="&#xb1;" horiz-adv-x="1251" d="M1182 711l4 -2v-19l-21 -28l-16 -56l-4 -4v-14l-6 -17l-4 -2l-13 -47l-10 -8l-2 -16l-25 -21l-22 -12l-64 6l-69 4h-70l-57 -4l-47 -31v-10h-4l-11 -27l-30 -47l-11 -61h-4l-14 -19l-16 -10l-39 -2l-11 -4l-18 2l-4 8l2 21l37 12l8 12l21 15l18 49l10 31l10 16v8l11 10 l8 23l8 4l2 12l31 27l24 4l68 2l70 -2l67 -6h25l28 10l25 21l18 28l23 64l10 28l10 13l2 22l29 29h10zM397 -55v-6l-6 -15l-61 -2l-64 -2l-65 4l-64 -4l-65 4l-60 -6l-16 2l-12 10l-2 15l12 14l72 2l30 6l64 -6l65 2l64 -4l63 -2h31zM954 180h19l6 -16l-16 -62l-13 -28 l-28 -37l-7 -64l-30 -34l-33 -15l-68 2l-6 4v17l8 10l9 4l32 2l17 8l4 9h10l8 14l15 10v8l18 25l-4 16l4 33h4v10h6v10h4l5 23l12 10zM692 -55l2 -2l-2 -9l-14 -12h-72l-16 -4l-66 2l-14 4l-66 -6l-14 6l-8 15l6 14l59 8h70l49 8l23 -8l59 -10zM428 502l2 -13v-14l-27 -8 l-6 4h-61l-64 -4l-67 4l-15 6l3 17l14 8l35 4l6 6l61 2l66 -4h37zM913 940h23l8 -14l2 -17l-8 -30l-8 -13l-8 -4l-21 -57l-8 -17l-14 -8l-13 -2l-8 4l-6 15l8 32l25 60l14 33zM543 283v-7l-2 -8l-11 -8l-53 4l-35 -4l-22 12l-2 19l6 4l65 -2l17 6h22l11 -8z" />
<glyph unicode="&#xb2;" horiz-adv-x="768" d="M788 1350h23l8 -15v-32l17 -64l-11 -55l-4 -6v-27l-4 -4l-6 -33l-10 -10l-2 -12l-11 -7v-8l-40 -53l-5 -2v-8l-10 -6l-10 -21l-14 -6l-45 -47l-48 -43l-8 -14l-14 -5l-37 -32l-14 -4v-5l-15 -10v-8l-14 -8l-12 -14l-8 -3l-11 -12l-37 -14h-16l-14 6l-4 12l6 17l10 10h8 l10 12l9 4l10 13h8v4l31 12l24 20l21 31l12 2l33 33l45 35l16 26l45 50l37 53l33 49l8 33l15 28l2 62l-11 67zM672 727l2 -2l2 -8l-21 -47l-10 -11l-18 -47v-4l-11 -8v-14l-20 -27l-10 -2v-4l-23 -4l-78 -2l-30 -6h-23l-6 6l-64 -4l-65 -2h-133l-62 -4l-30 8h-19l-12 4l-4 8 l4 16l12 9h33l35 -7h47l10 7l33 -2l12 6l33 -11l66 5l30 2l66 -11l33 11l67 -2l29 4l26 18l2 10h5v11h6l4 22l8 4l8 29l23 41l12 12l18 2zM543 1325l4 -2l2 -12l-4 -15l-10 -10l-29 -12l-25 -21l-16 -32l-6 -4v-15l-21 -26v-11l-6 -4v-18l-12 -35l-21 -23h-63l-55 5l-19 -3 l-12 7l-4 6l2 18l6 4l63 4l35 -4l15 2l22 23v8h6l6 33l29 59l6 6l10 29l9 12l47 29l22 6z" />
<glyph unicode="&#xb3;" horiz-adv-x="755" d="M657 948v4h23l6 -6l2 -31l10 -63v-25l-10 -32l-2 -25l-12 -18l-27 -60h-4v-10h-4v-8l-10 -4l-2 -13l-11 -8v-6l-51 -45v-4h-8l-6 -8h-10l-9 -13l-36 -18l-33 -2l-43 -23h-49l-33 -10l-62 8l-32 7l-11 10l-4 12l11 10h22v-6l66 2l63 15l33 2l29 6l30 16l21 16h10v5l23 8 l24 22l41 52l4 2l25 57l4 6h4v10h4l8 25l8 65l5 21l-11 51zM778 1331h8l15 -6l6 -12l10 -64v-18l-14 -41l-6 -2v-8h-4v-11l-15 -8l-2 -16l-41 -49l-8 -2l-10 -13l-8 -2l-17 -18l-18 -4l-23 -19l-14 -6l-21 8l2 17l21 22l53 39l47 47l19 27l8 31l8 65l-6 25zM547 1311l4 -2 l-16 -27l-31 -12l-25 -19l-37 -51l-14 -41l-29 -14l-39 2v16l7 13l28 12l13 10l6 14l6 5v32l10 11l19 30l28 29l29 8l8 2l18 -4l13 -8zM289 766l-2 -4l-31 2v65l6 33l8 21l25 18h10l10 -12l2 -15l-12 -38l-8 -7zM289 1167l10 -6l-4 -20l-6 4v22zM291 1169l-2 -2v2h2z" />
<glyph unicode="&#xb4;" horiz-adv-x="757" d="M760 1362l-2 -2l-45 -43l-49 -47l-11 -15l-12 -2l-12 -12l-8 -2l-41 -29l-13 -12l-6 -16l-47 -45l-41 -35l-24 -4h-68l-68 -11h-14l-6 5l-33 2l-8 10l2 18l6 6l33 7h65l33 -5l17 -6l26 6l27 21l47 51l55 35l19 29l14 6l27 24l28 15l13 10l20 8l12 19l17 6l41 53l12 10 l18 -2l9 -10l2 -14l-9 -13z" />
<glyph unicode="&#xb5;" horiz-adv-x="1153" d="M528 76l2 -2l-2 -19l-30 -37h-9l-20 -26l-55 -33l-60 -31l-14 -4l-4 -8l-27 -8l-69 -4l-45 -2l-31 -19l-4 -14l-13 -8v-15l-22 -59l-10 -29l-17 -28l-10 -31v-10l-16 -29v-8l-31 -35l-10 -25v-32l-17 -23l-28 -16l-19 -2l-6 -6l-33 4l-32 10l-60 -12l-35 -4l-22 2l-4 4 l-23 2l-14 8l-4 16l12 17h135l66 -6l18 6l41 37v16l4 12v27l6 2l2 8l13 12l4 15l16 22l15 58l24 49l6 20l6 6l19 58l10 10v8l10 10h9l18 13h65l66 8l59 29l29 16l14 4l52 45l22 23l14 6l11 10l16 -2zM588 995h4l10 -10l2 -24l-22 -43l-11 -11l-4 -22h-4l-8 -47l-27 -62 l-6 -20h-6v-11h-4v-8h-4v-10h-6l-15 -63l-4 -7h-4l-18 -45v-10h-4v-10h-4v-8h-7v-11h-4v-8l-16 -22l-16 -66h-4l-7 -26l-16 -25l-12 -47l-15 -19l-4 -16l-6 -6l-18 -66l-17 -61l-10 -31l-16 -4l-15 8l-6 15l8 63l11 31l16 29l16 49l9 12l2 29l6 4l18 43l10 12l15 57l8 15 l8 30l4 7v12l6 14v10h5l6 25l16 27l6 4l25 53l10 14l4 29l23 61l14 45l22 33l9 29l14 31l18 24zM1343 430l17 -8l2 -27l-6 -2v-8h-4v-10h-4v-8l-23 -21l-12 -22l-8 -5v-14l-23 -24v-9l-12 -10l-4 -14l-43 -51l-15 -17v-10h-6v-8l-16 -21l-35 -26l-4 -15l-49 -47l-4 -6 l-13 -4l-28 -33l-13 -2l-8 -14h-10v-4l-23 -8l-10 -11h-8l-51 -30l-10 -11h-9v-6l-51 -12l-4 -4l-68 -6h-65l-33 8l-12 14l8 17l14 6l64 -13l31 5l28 10l35 -2l27 8l26 18l29 13l47 34l12 3l48 43l24 18l23 25l2 12l24 18l45 47l39 52l17 20v10h6v8h4l29 43v9h4l10 22l12 10 l4 25l8 2l5 12l14 13l2 8zM1141 985l2 -2l6 -16l-16 -60l-27 -63l-10 -10l-9 -33l-28 -31v-16l-17 -31l-18 -59l-23 -52l-4 -4l-8 -47l-14 -14v-10h-4l-15 -48l-8 -40l-10 -9l-10 -57l-10 -18l-13 -9l-2 -14l-20 -25l-9 -41h-4l-8 -14l-6 -26l-6 -5l-2 -49l-8 -14l-9 -2 l-14 8l-4 8v31l6 29l6 6l9 43h4l2 18l18 47l6 4l17 66l6 14l6 4l2 15l12 12l13 29l24 32l-2 33l8 31l21 35l4 31l10 14v10h4v8h6v11h4v8h5v10l18 37l12 6l6 12l4 56l7 4l14 36l18 54l4 4l9 29l18 26z" />
<glyph unicode="&#xb6;" horiz-adv-x="1525" d="M1638 1083h4l5 -16l-7 -31l-26 -51l-15 -29l-16 -49l-29 -33l-47 3l-28 -13l-13 -14l-8 -4v-8h-4v-11h-6v-8h-4l-2 -12l-33 -57l-10 -29l-6 -47l-13 -19l-22 -61l-27 -41l-10 -53l-29 -35l-10 -12l-2 -33l-18 -53l-13 -13l-10 -22l-8 -4v-11h-4l-15 -65l-22 -59l-6 -5 l-4 -24l-19 -51l-20 -60l-11 -12l-22 -59l-10 -31l-29 -53l-6 -7l-4 -14l-25 -45l-18 -25l-47 -49l-6 -6h-11l-28 -31l-13 -2l-6 -10h-8l-39 -24l-41 2l-12 14l2 8l14 10l29 11l47 30l41 29l10 14l15 9v10l8 4l4 14l8 2l10 21l15 10l6 16l8 11l8 28l19 27l10 33l10 10l16 63 l27 56l25 63l30 58l7 6l2 14h4v8l10 10l8 33l10 23l13 65l20 41l16 19l11 61l24 53v9l23 53l8 4v8l10 10l21 60l16 20l2 33l12 27h5l4 24l14 19l8 28l21 27l28 20l54 2l8 5l10 12l6 2l8 29l31 57l8 29l13 10l18 26l8 2zM1112 897l2 -4v-14l-6 -5l-33 -2l-20 -22l-13 -31 l-10 -12l-4 -16l-10 -15l-4 -33l-25 -41l-14 -26l-6 -45l-17 -25l-12 -31l-6 -30l-8 -4l-4 -15l-11 -14v-8l-6 -10l-18 -58l-31 -63l-12 -47l-13 -13l-12 -49l-6 -2v-10h-4v-8h-4v-11h-6v-8h-4l-4 -24l-23 -56l-8 -28l-12 -13l-3 -14l-22 -41l-2 -24l-10 -9v-14l-23 -37 l-8 -4l-8 -29l-2 -26l-23 -33v-14l-18 -23l-11 -20l-22 -13l-31 -45l-51 -39l-20 -22l-13 -2l-30 -17l-64 -10l-14 6l-4 19l20 22l33 11l57 28l15 4l38 31l17 4l4 14l10 11l2 8l13 10l18 37l8 4l4 14l13 13l2 10l6 2l28 41l2 55l11 13l4 14l10 4l2 14l10 15l13 53l20 45l6 4 l2 23l8 14l3 29h4l20 45l25 61l26 60l23 61l20 41l23 57l12 31l14 22l5 33l12 21l18 59l2 8l11 11l6 32l16 25l6 20l25 47l47 37l31 2l18 -12v-4zM520 387v-4l-12 -10l-66 6h-34l-31 -6l-4 6l-27 4l-27 16l-2 11l13 6l63 -4l68 -2l35 4l12 -2l10 -13z" />
<glyph unicode="&#xb7;" horiz-adv-x="886" d="M727 567h6l6 -12l-2 -16l6 -15l-10 -30v-56l-16 -26l-6 -2l-2 -13h-9l-49 -45l-12 -18l-12 -4v-4l-19 -4l-4 -7l-63 -2l-37 -4l-29 6v7l-14 6l2 16l12 10l47 -6l17 6l30 4l52 13l34 26l13 31l28 27l15 39l-11 47l5 14l10 10z" />
<glyph unicode="&#xb8;" horiz-adv-x="757" d="M588 -264h10l18 -8l2 -33l-8 -25v-16l-4 -6v-33h-4v-8l-12 -10l-25 -41l-14 -7l-16 -20l-21 -12l-14 -4l-4 -9l-29 -10h-16l-25 10l6 17l53 35l47 45l15 10v8l22 25l15 32l-4 48zM403 -494l5 -2l-5 -16l-20 -16l-14 -4h-70l-33 4l-10 10l-4 16l4 4l18 -2l27 8l72 5h16z M528 -119v-6l-10 -10l-20 2l-11 8l-6 12l11 15l18 8l6 -2l10 -12zM293 -242h12l4 -6v-18l-4 -13h-18l-4 9v16zM182 -494l2 7h19l4 -5v-14l-14 -4l-7 4z" />
<glyph unicode="&#xb9;" horiz-adv-x="610" d="M715 1430h4l6 -17v-14l-27 -62l-26 -53l-19 -59l-12 -29l-18 -29l-11 -24l-8 -35l-12 -31l-19 -24l-24 -58l-17 -65l-24 -56l-16 -30l-19 -56l-6 -4l-4 -32l-19 -47l-10 -11l-2 -16l-8 -14l-14 -48l-13 -12l-4 -14l-28 -43h-9v-4l-32 -8h-31l-35 6l-22 8l-19 -2l-16 4 l-2 6l8 14l14 4l33 -4l31 2l53 21l16 20l25 62l22 67l2 13h5v10h4v8h4v10h6v9h4v10h4v10h4v8l15 25l20 51l20 64l27 57l27 59l22 62l27 59l26 64l11 32l26 60l11 32l12 25l22 23z" />
<glyph unicode="&#xba;" horiz-adv-x="907" d="M983 1280l2 4l14 -4l2 -10l7 -4l14 -25l6 -57v-76l-6 -64l-4 -24l-4 -4l-8 -66l-5 -14l-12 -12l-2 -15l-10 -14l-6 -33l-29 -49l-4 -14l-18 -25l-7 -14l-32 -39l-2 -10l-11 -6l-4 -15l-20 -14l-17 -27l-51 -41h-8l-27 -24l-26 -17l-58 -24l-24 -11h-10v-4l-62 -2l-67 -6 l-62 12l-20 13l-2 8l8 14h33l53 -12l33 4l61 21l31 2l28 12l58 37l28 16l48 45l43 53l24 35l12 6l31 39l8 33l25 53l10 13l2 14l12 12l15 54l8 67l6 64l-2 43l4 4l6 47l-12 28v23zM672 1253l2 -2l-2 -16l-37 -51l-45 -51l-12 -11v-8l-27 -57l-6 -8l-21 -62l-2 -8l-6 -4 l-22 -62l-9 -36l-6 -5l-14 -65v-25l-14 -6l-7 2l-12 27l6 16v10l-4 7l12 59l13 64l22 61l4 4l13 45l10 10l6 15l18 24l23 54l8 4v10l10 6v8l41 51l19 9l10 10l16 -4z" />
<glyph unicode="&#xbb;" horiz-adv-x="1701" d="M1516 575l4 -2l4 -8l-8 -43l-19 -37l-2 -16l-31 -53l-14 -19l-25 -16l-30 -14l-41 -27l-11 -12l-102 -52l-8 -10h-10v-4l-33 -8l-4 -10h-10v-4h-9l-26 -17l-11 -12l-43 -25l-45 -20l-4 -6h-4l-10 -15h-10l-4 -8h-11l-8 -12l-22 -6l-11 -10l-28 -13l-8 -10l-13 -2l-10 -12 l-55 -27l-25 2l-8 6l-2 10l4 15l23 20l30 15l4 6l15 4l14 14h8v4l15 4l2 9l20 6l45 26l41 27l12 2v6h9v4h10v4l55 21l4 8l17 6l28 29l11 2v4h10v4l12 2l10 10l25 13h8v4l12 2l35 20v4l15 11h8l12 12l10 2v4h10v6h9v4h10v4l33 23h8l20 22l19 11l6 20l4 2l23 66l16 28l6 5z M668 270l-2 -4l-19 -4v-4h-8v-4l-12 -2l-4 -6l-35 -21l-13 -12l-61 -23l-25 -20h-8l-20 -23l-12 -2v-4h-11v-4h-8v-4h-10v-6h-8v-4h-11v-4l-18 -4v-4l-53 -37l-6 -6l-13 -2l-43 -27l-10 4l-12 14l2 11l14 18l12 2l17 21l8 2l4 6l12 4l19 18l55 21l6 8l13 2v4l26 21l15 2 l24 20l55 33l19 12l37 10v4h8v5h10v4h8l37 28h10l15 11l14 4l27 22l30 10l52 43l16 3l12 12l25 6l16 27l13 12l22 59l8 27l11 14l14 10h8l23 -18l-7 -33l-18 -51l-12 -10v-8l-8 -4l-11 -21l-49 -43l-57 -37l-15 -2v-4h-8l-24 -18l-31 -11l-12 -12l-27 -10z" />
<glyph unicode="&#xbc;" horiz-adv-x="1689" d="M1550 1389l4 -5l5 -14l-3 -8l-16 -14l-4 -15l-25 -18l-18 -29l-23 -18l-6 -15l-26 -34l-21 -17l-6 -16l-45 -45l-37 -51l-33 -23v-8l-10 -8v-4l-31 -15l-12 -10l-2 -33l-8 -18l-43 -51l-43 -50l-49 -47l-6 -6l-2 -12l-39 -53l-43 -52l-17 -16l-18 -29l-25 -20l-20 -25 l-25 -20l-16 -29l-13 -10l-4 -12l-8 -2l-16 -17l-2 -12l-8 -4l-19 -29l-45 -49l-35 -43l-12 -4l-14 -43l-52 -39l-12 -10l-14 -29l-37 -53l-14 -19l-7 -2l-16 -30l-47 -48l-41 -53l-45 -49l-33 -47l-41 -29h-63l-53 -6l-13 6l-4 15l8 14l15 6h65l33 12l25 21l20 27l14 26 l19 23l33 28v9l36 51l25 22l2 8l47 43l19 27l49 41l16 8l2 17l12 28h5l2 13l39 30l4 15l34 51l45 45l43 49l78 102l45 52l11 20l14 8l2 13l43 45l37 49l43 51l24 25l25 30l16 27l33 35l37 14l12 19l6 24l23 25l8 22l25 21l18 28l12 11l17 26l24 25l35 45l33 37l14 8l4 14 l11 4v11h4v8h4v10l24 20l29 7zM821 1376l4 -2l-4 -33l-30 -53l-11 -28l-10 -11l-6 -32l-23 -54l-4 -24l-20 -49l-23 -64l-2 -8l-12 -17l-16 -43l-5 -32l-14 -19l-4 -14l-12 -10l-2 -13l-11 -8l-4 -24l-4 -4v-17l-6 -14l-31 -39l7 -23l-31 -57l-15 -31l-10 -35l-18 -14 l-2 -37l-10 -37h-5l-4 -8h-10v-4h-8l-10 -10l-23 -2l-22 -12h-66l-35 -5l-12 7l-6 14l10 20h64l47 -4l14 6l25 25l36 53v35l15 45l8 8l8 23l6 4l2 12l23 25l8 14l2 53l6 7l15 30l6 4l-2 9l12 47l14 18l17 47l8 4v9h6v10h4v8h4l17 61l6 17l6 2l18 47l19 59l20 49l21 66v6h6 l8 33l23 27h10zM1245 -72l-2 4l2 19l39 26l23 58l30 53l13 45l10 8l2 13l16 16h8l11 10l61 15l8 2l7 8l34 10v6l33 6l33 45l22 9l15 -9l8 -18l-6 -12l-51 -47l-19 -19l-24 -12l-33 -10l-10 -9h-19l-4 -4l-18 -2l-29 -14l-21 -21l-24 -63l-33 -82l-22 -31h-13l-10 -6l-33 2z M1632 819h19l10 -22l-8 -31l-31 -55l-14 -29l-2 -31l-7 -4l-10 -61l-6 -17l-24 -28v-15l-9 -18l-8 -6l-16 -62l-6 -22l-15 -27l-12 -10l-16 -6l-17 12l-2 23l17 28v6l28 58l19 61l18 37l10 33l9 4l26 39l6 45l-6 24l6 5v8l21 28l6 15zM1348 616l2 -2l-9 -34l-38 -48l-48 -47 l-18 -14l-14 -18l-19 -15l-33 -55l-10 -12l-22 -6l-11 4l-6 8l6 20l41 47l43 48l43 51l19 16l16 29l27 37l18 -2zM408 983l6 -2l8 -14l-4 -23l-43 -51l-27 -19l-8 -12l-12 -8l-27 -2l-4 16l12 31l45 43l8 6l9 15l14 4l8 10zM1092 172l4 -2v-25l-64 -8l-65 10l-11 5l-2 8 l7 14l32 6l33 -6zM1190 -49l2 -4l-2 -17l-12 -6h-27l-8 10l-2 23l35 4z" />
<glyph unicode="&#xbd;" horiz-adv-x="1728" d="M1554 1391l5 -5l2 -14l-37 -45l-37 -53l-49 -45l-6 -4v-11l-9 -4l-8 -16l-41 -45l-22 -27l-25 -43l-10 -8v-8l-47 -43l-25 -23l-24 -43l-39 -39l-4 -2v-6l-41 -51l-47 -45l-43 -41l-9 -33l-37 -43l-40 -49l-43 -51l-13 -12l-2 -13l-47 -45l-12 -10v-8l-37 -51l-29 -29 l-14 -8v-10l-8 -5l-4 -18l-15 -10l-6 -15l-24 -18l-45 -49l-13 -10l-4 -15l-10 -12v-10l-10 -4l-4 -15l-19 -22h-8l-25 -25v-8l-18 -18l-14 -29l-50 -45l-12 -12l-2 -13l-6 -2l-41 -51l-18 -29l-43 -41l-15 -6h-12l-10 -6l-31 6l-16 -6l-50 2l-12 8l-2 11l6 16l10 8l68 -2 l18 2l29 17l19 24l22 17v8l33 28v11l8 4v10l12 8l2 14l33 33v8l19 13l12 14l4 12l14 11l4 12l11 12l39 29l6 14l14 12l4 13l23 24l35 52l51 47l32 34l13 31l37 49l22 33l47 45l8 14l25 31l47 49l43 52l51 41l6 4l-4 18l13 27l45 49l41 51l45 41l2 12l8 2l4 13l19 18l2 12 l10 4l4 15l39 47l49 47l16 27l43 47l6 4l5 14l22 21l17 26l30 27l4 14l19 19l6 14l16 18l27 17l14 -2zM797 1386h14l6 5l6 -27l-2 -18l-20 -25l-6 -29l-23 -53l-12 -18l-4 -29l-11 -10l-14 -64l-8 -28l-10 -9v-10h-4l-29 -47l-4 -4l-2 -33l-17 -37l-8 -4v-10l-10 -8l-16 -62 l-7 -8l-4 -43h-4l-22 -55l-13 -35l-24 -47l-2 -6l-10 -8l-17 -60l-14 -53h-4l-6 -14l-25 -27l-10 -6l-21 -2l-4 -6l-28 -4l-68 4l-18 -2l-15 6l-4 6l-2 16l10 6l49 4l17 -4l47 7l18 18l19 29l31 67l14 47l18 41l8 4l7 23l10 12l8 33l25 59l16 56h4l4 22l6 4l9 37l12 10 l12 27l10 10l9 47l4 4l2 21l18 59l12 31l23 23l4 14h6v10h4l4 31l13 37l6 2v8h4l8 29zM1559 117h12l8 -15l-6 -32l-8 -15l2 -14l-25 -49l-12 -33l-17 -27l-16 -6l-4 -6h-4v-4l-66 6l-63 6l-60 -4l-65 2l-68 -2l-51 -4l-31 6l-63 -10h-55l-23 10l-4 8l8 17l29 8h33l14 4 l47 -4l23 -6l14 6l61 2l66 4l31 -2l32 4l64 -4l72 -2l26 2l39 31l4 33l13 30l18 31v6zM1716 678h13l8 -14l6 -60l-4 -35l-6 -10l-4 -35l-23 -47l-41 -55v-8l-12 -11l-2 -10l-11 -8v-10h-4l-8 -15l-14 -12l-19 -4l-4 -8l-24 -14l-39 -56l-35 -35l-14 -4l-25 -26l-20 -8 l-25 -23l-25 -16l-26 -11l-23 19v8l37 43l12 2l11 12l28 17l17 14l12 2l8 12l25 17l20 28l13 5l22 20l19 6l16 29l31 26l6 15l12 12l4 16l10 15l2 12l27 37l4 14l10 13l5 22l6 2l14 47v49zM1462 700l2 -4l-2 -18l-10 -10l-31 -13l-30 -24v-10l-9 -5l-45 -122l-6 -17l-24 -8 l-4 -6h-129l-15 6l4 25l11 8l69 -6l37 8l33 24l2 58l22 32l2 13h4l5 18l24 25l6 2l11 12l16 4l29 15h22z" />
<glyph unicode="&#xbe;" horiz-adv-x="1822" d="M1688 1397l4 -4l2 -25l-17 -12l-2 -13l-43 -49l-12 -10l-6 -16l-12 -8l-7 -17l-49 -43l-41 -51l-8 -2l-4 -23l-12 -12l-15 -22l-49 -52l-12 -12l-4 -14l-47 -45l-19 -19l-4 -14l-10 -4l-2 -12l-41 -46l-31 -8l-14 -47l-43 -47l-37 -53l-45 -49l-12 -21l-25 -20l-37 -54 l-43 -49l-26 -41l-17 -6l-8 -12h-8l-10 -12l-19 -11v-10l-8 -4l-16 -37l-31 -22l-33 -58l-37 -51l-18 -24l-51 -46l-15 -8l-22 -43l-8 -4l-5 -16l-41 -41l-2 -10l-14 -11l-16 -26l-31 -25l-2 -14l-25 -23v-10h-4v-8l-12 -12l-12 -2l-4 -11l-39 -8l-105 6l-10 13l2 10l10 10 l31 4l6 4l47 -6l27 16l49 52l10 12l8 4l3 12l14 8l4 13l27 26l41 52l41 28l8 15l14 12l21 45l40 45v8l7 2l41 47l47 50l18 18v8l21 21l39 53l43 51l45 51l4 15l22 20l2 12l25 23l26 43l29 20l23 23l34 51l15 21l57 34l6 7l11 38l38 52l23 22l4 15l12 6l17 28l20 23l17 31 l51 45l28 18v10l9 4l10 29l22 27v10l9 4l2 12l47 45l26 31l15 29l18 24l25 19l22 4zM752 926l4 22h16l10 -8l6 -14l7 -72l-11 -63l-18 -58l-10 -26l-31 -39l-2 -13l-10 -4l-4 -14l-15 -10l-6 -15l-24 -18l-11 -12l-26 -17l-11 -2l-4 -10l-61 -18l-62 -13l-57 -10h-53l-27 16 l-4 17l8 10h60l30 -2l70 14l59 25l7 6l12 4l51 39l27 23l16 26l23 23l8 16l10 10l4 17l8 10l7 63l12 33zM1743 276l4 -2l2 -16l-16 -27l-19 -18l-4 -12l-22 -13l-11 -10l-59 -24l-33 -11l-14 -8l-23 -6l-22 -27l-15 -30l-10 -11l-2 -14l-24 -37l2 -16l-33 -57l-31 -13 l-67 -4l-41 -2l-19 14l-2 9l8 16l6 4l60 -6l28 4l52 43l2 14l10 13l14 61l19 33l6 20l37 35l37 2l57 27l41 22l25 7l38 40h19zM635 1313l4 -13v-14l-31 -10l-26 -23l-35 -51l-12 -22l-3 -19h-4l-2 -12l-12 -12h-10v-4h-137l-13 8v20l11 10l32 5l66 -5l24 13l19 28l12 13 l10 39l15 8l4 14l18 19h8v4h11v4l16 6l29 -2zM1450 608h20l7 -12l-11 -16l-4 -15l-22 -22l-2 -13l-23 -20l-18 -37l-51 -53l-46 -45l-18 -15l-8 -2l-23 11v18l11 8l4 15l18 14l2 8l43 45l41 51l49 43l23 23zM881 1257h8l10 -2l8 -12l-6 -61l-16 -29l-17 -18l-4 -13l-47 -45 l-43 -35l-14 -2l-23 -10h-8l-16 10v19l32 24l41 25l25 25l2 12l43 49l10 49h4zM1716 618h4v-16l-26 -61l-6 -6l-7 -27l-22 -62l-8 -32h-4v-8h-7l-2 -13l-24 -18l-10 -2l-2 6l-13 10l2 8l4 2l23 62l18 41l19 45l10 10l4 35l12 26l15 15l10 -2zM1282 168l2 -4l-6 -14l-12 -9 l-19 -2l-18 6l-29 -4l-65 2l-66 -8l-10 2l-12 10l-5 19l5 6l32 2l21 6l65 -2l66 2l31 2l14 -6zM1794 811l4 -2l-2 -16l-22 -31l-13 -68l-8 -10h-22l-11 14l-4 17l4 6l4 27l25 40l4 15l14 10l5 8l20 -2zM412 891l4 -4l-4 -37l-23 -57l-4 -17h-25l-4 6l4 17l-4 30l9 37l8 17 l10 10l20 2zM879 1339l2 2l14 -6l4 -6l-4 -20l-21 8l-2 8z" />
<glyph unicode="&#xbf;" horiz-adv-x="1054" d="M834 489l2 -2l2 -16l-23 -41l-2 -12h-4v-8l-18 -43l-39 -52v-8l-9 -4l-4 -14l-32 -29l-7 -14l-20 -15l-4 -14l-19 -16l-2 -11l-22 -22h-10l-2 -6l-27 -21l-37 -39l-4 -14l-49 -43l-45 -45l-45 -37l-19 -59h-4l-2 -13l-10 -10l-2 -14h-4v-10h-6v-9l-7 -12l2 -16l-8 -27 l-12 2l-10 8l-8 31l2 55l18 41l49 47l17 11l6 32l43 52l47 45l26 30l13 5l16 16l14 4l33 49l47 49l41 41l13 23l22 22l2 11h6l2 12l11 16v8h6v11h4v8h4v10h4l18 51l11 19l20 -2zM946 -23h15l10 -18l-2 -31l-17 -63l-10 -49l-12 -41l-2 -6h-4v-9h-4v-10h-5l-12 -39l-26 -43 l-13 -10l-18 -27l-25 -26l-26 -17l-11 -12l-28 -20l-17 -5l-12 -12l-12 -2v-4h-8l-31 -14h-21l-26 -21l-25 -12l-59 -8l-70 -8l-53 14l-4 8l2 12l14 9l66 2l45 6l47 18l31 -6l8 2l10 10l29 15l4 6h8v4l27 16l20 21l12 2l7 6l12 2l2 8l14 6l45 50v10l21 20l32 56l23 63l23 55 l4 66v12h4l4 8zM1034 829v-4l15 -8l6 -18l-6 -31l-31 -57l-39 -52l-14 -14l-47 -22l-54 -15l-41 4l-2 6l-22 7l-4 6l2 18l8 8l67 5l31 6l29 12l47 39l4 14l10 15l15 57l2 10l12 8l4 8zM395 -498v-6l-6 -12l-16 -4l-49 8l-5 16l3 11l14 4l35 -6l6 -5l16 -2z" />
<glyph unicode="&#xc0;" horiz-adv-x="1832" d="M2054 436l2 -2l-8 -31l-31 -51l-26 -35v-10l-31 -35l-2 -10l-8 -4v-8l-11 -6l-2 -13l-10 -4l-14 -26l-29 -19l-6 -14l-41 -49l-8 -13l-29 -20l-61 -20l-27 -19l-33 -16l-61 -8l-37 2l-22 6l-15 -4l-28 -23l-21 -39l-4 -31l-14 -6l-15 2l-6 15v35l12 40l9 5l4 14l10 8 l37 10l65 9l66 10l16 6h15l43 16l16 21l29 14l51 41l18 27l33 32l14 29l9 4v10h4v9h4l12 26l23 25l8 14l12 10l12 29l19 27l6 14l20 23h11zM1516 1270l2 -2l-5 -17l-40 -55l-11 -12l-6 -35l-12 -23l-33 -39l-8 -34l-43 -43l-10 -6v-33l-27 -47l-39 -58l-14 -35l-10 -14 l-5 -14l-34 -45v-8h-4l-37 -56l-25 -18l-18 -2l-4 8l8 49h4l10 12v11l6 2l35 47l4 12l6 4v8l11 4v11l8 4v10l37 51l26 60l6 12l45 45l9 12l-9 19l7 4l12 28l31 33v8l26 58l33 37l12 30l25 33h18zM1759 1010l4 -2v-45l-10 -21l-10 -65l-19 -62l-20 -61l-2 -15h-4l-12 -30 l-7 -7l-4 -67l-12 -62l-16 -63l-9 -33l-16 -41l-6 -30l-6 -9l-8 -32h-7l-2 -13l-6 -6v-37l-6 -14l-8 -8l-23 -2l-4 10l8 29l19 26v33l-4 23l4 4v16l4 12l6 4l8 47l11 9l10 57l18 66l12 30l3 33l10 29l6 63l22 53l15 64l20 57l11 31l-3 8l23 25zM831 193h23l6 -7l-10 -12 l-4 -22l-19 -15v-10l-47 -45l-12 -2l-33 -39l-10 -2l-49 -47l-43 -29l-39 -8l-27 -18l-16 -17l-12 -2v-4l-19 -4l-4 -6l-65 -8h-19l-14 -7l-60 -6l-51 8l-10 11l-2 8l8 14l16 6l66 -4h31l59 23l31 12l55 8l47 43l19 8l4 11l24 4l23 18h8l49 43l15 10l14 29l47 45zM567 434 v-6l-6 -12h-14l-66 20l-65 -2h-82v-6l-55 -18l-27 -19l-33 -33l-18 -45l-2 -34l-9 -11h-18l-10 13l-4 30l10 51l31 50l30 28l13 2v4l12 3l47 24l35 6l63 -4h68l61 -16l23 -17l14 -4zM1808 1483l2 4l17 -2l10 -10l4 -25h6l6 -31l7 -12v-66l-7 -65l-16 -41l-2 -14l-12 -13 l-8 -63l-5 -17h-4l-4 -16l-6 -6v-14l-6 -2l2 -19l-6 -2v-8l-6 -6h-17l-8 8l-4 14l4 37l8 25l6 6l3 12l6 4l4 66l20 61l6 6l4 13v34l7 33l-4 66l-11 37zM1413 -358l-16 -21h-19l-10 19l16 47l11 37l2 24l4 4v15l14 40h4l6 60l15 10l4 8h12l10 -12l4 -27l-16 -43l-4 -14 l-2 -47l-18 -49l-3 -17l-6 -6zM1114 657l4 5l10 -11l5 -30l-5 -35l-6 -4l-4 -13l-26 -22l-21 -25l-6 -14l-10 -8l-21 -2l-4 10v16l29 54l18 26l10 23zM217 -96l-2 -4l-33 10l-28 14l-9 13l5 10l16 4l33 -8l12 -11l8 -20zM881 279l2 2l26 -15v-18l-6 -15l-24 -14h-15l-4 14 l10 33zM1839 1702v-6l-27 -4h-69l-39 -2l-27 10l-4 6l2 14l29 11l73 4l33 -4l27 -9z" />
<glyph unicode="&#xc1;" horiz-adv-x="1832" d="M2054 436l2 -2l-8 -31l-31 -51l-26 -35v-10l-31 -35l-2 -10l-8 -4v-8l-11 -6l-2 -13l-10 -4l-14 -26l-29 -19l-6 -14l-41 -49l-8 -13l-29 -20l-61 -20l-27 -19l-33 -16l-61 -8l-37 2l-22 6l-15 -4l-28 -23l-21 -39l-4 -31l-14 -6l-15 2l-6 15v35l12 40l9 5l4 14l10 8 l37 10l65 9l66 10l16 6h15l43 16l16 21l29 14l51 41l18 27l33 32l14 29l9 4v10h4v9h4l12 26l23 25l8 14l12 10l12 29l19 27l6 14l20 23h11zM1516 1270l2 -2l-5 -17l-40 -55l-11 -12l-6 -35l-12 -23l-33 -39l-8 -34l-43 -43l-10 -6v-33l-27 -47l-39 -58l-14 -35l-10 -14 l-5 -14l-34 -45v-8h-4l-37 -56l-25 -18l-18 -2l-4 8l8 49h4l10 12v11l6 2l35 47l4 12l6 4v8l11 4v11l8 4v10l37 51l26 60l6 12l45 45l9 12l-9 19l7 4l12 28l31 33v8l26 58l33 37l12 30l25 33h18zM1759 1010l4 -2v-45l-10 -21l-10 -65l-19 -62l-20 -61l-2 -15h-4l-12 -30 l-7 -7l-4 -67l-12 -62l-16 -63l-9 -33l-16 -41l-6 -30l-6 -9l-8 -32h-7l-2 -13l-6 -6v-37l-6 -14l-8 -8l-23 -2l-4 10l8 29l19 26v33l-4 23l4 4v16l4 12l6 4l8 47l11 9l10 57l18 66l12 30l3 33l10 29l6 63l22 53l15 64l20 57l11 31l-3 8l23 25zM831 193h23l6 -7l-10 -12 l-4 -22l-19 -15v-10l-47 -45l-12 -2l-33 -39l-10 -2l-49 -47l-43 -29l-39 -8l-27 -18l-16 -17l-12 -2v-4l-19 -4l-4 -6l-65 -8h-19l-14 -7l-60 -6l-51 8l-10 11l-2 8l8 14l16 6l66 -4h31l59 23l31 12l55 8l47 43l19 8l4 11l24 4l23 18h8l49 43l15 10l14 29l47 45zM567 434 v-6l-6 -12h-14l-66 20l-65 -2h-82v-6l-55 -18l-27 -19l-33 -33l-18 -45l-2 -34l-9 -11h-18l-10 13l-4 30l10 51l31 50l30 28l13 2v4l12 3l47 24l35 6l63 -4h68l61 -16l23 -17l14 -4zM1808 1483l2 4l17 -2l10 -10l4 -25h6l6 -31l7 -12v-66l-7 -65l-16 -41l-2 -14l-12 -13 l-8 -63l-5 -17h-4l-4 -16l-6 -6v-14l-6 -2l2 -19l-6 -2v-8l-6 -6h-17l-8 8l-4 14l4 37l8 25l6 6l3 12l6 4l4 66l20 61l6 6l4 13v34l7 33l-4 66l-11 37zM1413 -358l-16 -21h-19l-10 19l16 47l11 37l2 24l4 4v15l14 40h4l6 60l15 10l4 8h12l10 -12l4 -27l-16 -43l-4 -14 l-2 -47l-18 -49l-3 -17l-6 -6zM1114 657l4 5l10 -11l5 -30l-5 -35l-6 -4l-4 -13l-26 -22l-21 -25l-6 -14l-10 -8l-21 -2l-4 10v16l29 54l18 26l10 23zM217 -96l-2 -4l-33 10l-28 14l-9 13l5 10l16 4l33 -8l12 -11l8 -20zM881 279l2 2l26 -15v-18l-6 -15l-24 -14h-15l-4 14 l10 33zM2083 1960l-2 -2l-45 -43l-49 -47l-11 -15l-12 -2l-12 -12l-8 -2l-41 -29l-13 -12l-6 -16l-47 -45l-41 -35l-24 -4h-68l-68 -10h-14l-6 4l-33 2l-8 10l2 18l6 6l33 7h65l33 -4l17 -7l26 7l27 20l47 51l55 35l19 29l14 6l27 24l28 15l13 10l20 8l12 19l17 6l41 53 l12 10l18 -2l9 -10l2 -14l-9 -13z" />
<glyph unicode="&#xc2;" horiz-adv-x="1832" d="M2054 436l2 -2l-8 -31l-31 -51l-26 -35v-10l-31 -35l-2 -10l-8 -4v-8l-11 -6l-2 -13l-10 -4l-14 -26l-29 -19l-6 -14l-41 -49l-8 -13l-29 -20l-61 -20l-27 -19l-33 -16l-61 -8l-37 2l-22 6l-15 -4l-28 -23l-21 -39l-4 -31l-14 -6l-15 2l-6 15v35l12 40l9 5l4 14l10 8 l37 10l65 9l66 10l16 6h15l43 16l16 21l29 14l51 41l18 27l33 32l14 29l9 4v10h4v9h4l12 26l23 25l8 14l12 10l12 29l19 27l6 14l20 23h11zM1516 1270l2 -2l-5 -17l-40 -55l-11 -12l-6 -35l-12 -23l-33 -39l-8 -34l-43 -43l-10 -6v-33l-27 -47l-39 -58l-14 -35l-10 -14 l-5 -14l-34 -45v-8h-4l-37 -56l-25 -18l-18 -2l-4 8l8 49h4l10 12v11l6 2l35 47l4 12l6 4v8l11 4v11l8 4v10l37 51l26 60l6 12l45 45l9 12l-9 19l7 4l12 28l31 33v8l26 58l33 37l12 30l25 33h18zM1759 1010l4 -2v-45l-10 -21l-10 -65l-19 -62l-20 -61l-2 -15h-4l-12 -30 l-7 -7l-4 -67l-12 -62l-16 -63l-9 -33l-16 -41l-6 -30l-6 -9l-8 -32h-7l-2 -13l-6 -6v-37l-6 -14l-8 -8l-23 -2l-4 10l8 29l19 26v33l-4 23l4 4v16l4 12l6 4l8 47l11 9l10 57l18 66l12 30l3 33l10 29l6 63l22 53l15 64l20 57l11 31l-3 8l23 25zM831 193h23l6 -7l-10 -12 l-4 -22l-19 -15v-10l-47 -45l-12 -2l-33 -39l-10 -2l-49 -47l-43 -29l-39 -8l-27 -18l-16 -17l-12 -2v-4l-19 -4l-4 -6l-65 -8h-19l-14 -7l-60 -6l-51 8l-10 11l-2 8l8 14l16 6l66 -4h31l59 23l31 12l55 8l47 43l19 8l4 11l24 4l23 18h8l49 43l15 10l14 29l47 45zM567 434 v-6l-6 -12h-14l-66 20l-65 -2h-82v-6l-55 -18l-27 -19l-33 -33l-18 -45l-2 -34l-9 -11h-18l-10 13l-4 30l10 51l31 50l30 28l13 2v4l12 3l47 24l35 6l63 -4h68l61 -16l23 -17l14 -4zM1808 1483l2 4l17 -2l10 -10l4 -25h6l6 -31l7 -12v-66l-7 -65l-16 -41l-2 -14l-12 -13 l-8 -63l-5 -17h-4l-4 -16l-6 -6v-14l-6 -2l2 -19l-6 -2v-8l-6 -6h-17l-8 8l-4 14l4 37l8 25l6 6l3 12l6 4l4 66l20 61l6 6l4 13v34l7 33l-4 66l-11 37zM1413 -358l-16 -21h-19l-10 19l16 47l11 37l2 24l4 4v15l14 40h4l6 60l15 10l4 8h12l10 -12l4 -27l-16 -43l-4 -14 l-2 -47l-18 -49l-3 -17l-6 -6zM1114 657l4 5l10 -11l5 -30l-5 -35l-6 -4l-4 -13l-26 -22l-21 -25l-6 -14l-10 -8l-21 -2l-4 10v16l29 54l18 26l10 23zM217 -96l-2 -4l-33 10l-28 14l-9 13l5 10l16 4l33 -8l12 -11l8 -20zM881 279l2 2l26 -15v-18l-6 -15l-24 -14h-15l-4 14 l10 33zM1733 1873l18 -18l-2 -14l-8 -15l-53 -43l-54 -35l-20 -16l-12 -2l-9 -12l-10 -2l-4 -11l-12 -2l-6 -6l-27 -4l-70 -2h-16l-20 10l-3 9l11 14l22 6l64 6l30 19l11 10l12 2l4 8l14 4l2 8l21 13l4 8l14 6l13 14l28 17l15 4l32 24h11zM1997 1732l4 -2v-18l-10 -11 l-45 -10v6l-23 8l-2 7l10 20l31 6zM1319 1726v2l4 4l10 -4l43 -2l21 -10l-19 -17l-63 4l-2 7z" />
<glyph unicode="&#xc3;" horiz-adv-x="1832" d="M2054 436l2 -2l-8 -31l-31 -51l-26 -35v-10l-31 -35l-2 -10l-8 -4v-8l-11 -6l-2 -13l-10 -4l-14 -26l-29 -19l-6 -14l-41 -49l-8 -13l-29 -20l-61 -20l-27 -19l-33 -16l-61 -8l-37 2l-22 6l-15 -4l-28 -23l-21 -39l-4 -31l-14 -6l-15 2l-6 15v35l12 40l9 5l4 14l10 8 l37 10l65 9l66 10l16 6h15l43 16l16 21l29 14l51 41l18 27l33 32l14 29l9 4v10h4v9h4l12 26l23 25l8 14l12 10l12 29l19 27l6 14l20 23h11zM1516 1270l2 -2l-5 -17l-40 -55l-11 -12l-6 -35l-12 -23l-33 -39l-8 -34l-43 -43l-10 -6v-33l-27 -47l-39 -58l-14 -35l-10 -14 l-5 -14l-34 -45v-8h-4l-37 -56l-25 -18l-18 -2l-4 8l8 49h4l10 12v11l6 2l35 47l4 12l6 4v8l11 4v11l8 4v10l37 51l26 60l6 12l45 45l9 12l-9 19l7 4l12 28l31 33v8l26 58l33 37l12 30l25 33h18zM1759 1010l4 -2v-45l-10 -21l-10 -65l-19 -62l-20 -61l-2 -15h-4l-12 -30 l-7 -7l-4 -67l-12 -62l-16 -63l-9 -33l-16 -41l-6 -30l-6 -9l-8 -32h-7l-2 -13l-6 -6v-37l-6 -14l-8 -8l-23 -2l-4 10l8 29l19 26v33l-4 23l4 4v16l4 12l6 4l8 47l11 9l10 57l18 66l12 30l3 33l10 29l6 63l22 53l15 64l20 57l11 31l-3 8l23 25zM831 193h23l6 -7l-10 -12 l-4 -22l-19 -15v-10l-47 -45l-12 -2l-33 -39l-10 -2l-49 -47l-43 -29l-39 -8l-27 -18l-16 -17l-12 -2v-4l-19 -4l-4 -6l-65 -8h-19l-14 -7l-60 -6l-51 8l-10 11l-2 8l8 14l16 6l66 -4h31l59 23l31 12l55 8l47 43l19 8l4 11l24 4l23 18h8l49 43l15 10l14 29l47 45zM567 434 v-6l-6 -12h-14l-66 20l-65 -2h-82v-6l-55 -18l-27 -19l-33 -33l-18 -45l-2 -34l-9 -11h-18l-10 13l-4 30l10 51l31 50l30 28l13 2v4l12 3l47 24l35 6l63 -4h68l61 -16l23 -17l14 -4zM1808 1483l2 4l17 -2l10 -10l4 -25h6l6 -31l7 -12v-66l-7 -65l-16 -41l-2 -14l-12 -13 l-8 -63l-5 -17h-4l-4 -16l-6 -6v-14l-6 -2l2 -19l-6 -2v-8l-6 -6h-17l-8 8l-4 14l4 37l8 25l6 6l3 12l6 4l4 66l20 61l6 6l4 13v34l7 33l-4 66l-11 37zM1413 -358l-16 -21h-19l-10 19l16 47l11 37l2 24l4 4v15l14 40h4l6 60l15 10l4 8h12l10 -12l4 -27l-16 -43l-4 -14 l-2 -47l-18 -49l-3 -17l-6 -6zM1114 657l4 5l10 -11l5 -30l-5 -35l-6 -4l-4 -13l-26 -22l-21 -25l-6 -14l-10 -8l-21 -2l-4 10v16l29 54l18 26l10 23zM217 -96l-2 -4l-33 10l-28 14l-9 13l5 10l16 4l33 -8l12 -11l8 -20zM881 279l2 2l26 -15v-18l-6 -15l-24 -14h-15l-4 14 l10 33zM2044 1862l2 -2l-8 -33h-4l-6 -12l-50 -50l-24 -30h-10l-5 -11h-8l-10 -10l-14 -2l-9 -10l-49 -16l-34 -3l-23 5v6l-23 4l-6 14l2 6l13 11l51 6l53 20l12 4v4h9l18 25l29 18l8 13l16 6l6 12l11 8l4 15l12 8l6 10h10l15 -8zM1642 1767v-4l-32 -8l-33 4l-33 -4l-53 -33 l-6 -6l-17 -2l-16 6l-4 15l6 14l37 41l18 4l4 6l68 2l14 -2l7 -6l26 -8z" />
<glyph unicode="&#xc4;" horiz-adv-x="1832" d="M2054 436l2 -2l-8 -31l-31 -51l-26 -35v-10l-31 -35l-2 -10l-8 -4v-8l-11 -6l-2 -13l-10 -4l-14 -26l-29 -19l-6 -14l-41 -49l-8 -13l-29 -20l-61 -20l-27 -19l-33 -16l-61 -8l-37 2l-22 6l-15 -4l-28 -23l-21 -39l-4 -31l-14 -6l-15 2l-6 15v35l12 40l9 5l4 14l10 8 l37 10l65 9l66 10l16 6h15l43 16l16 21l29 14l51 41l18 27l33 32l14 29l9 4v10h4v9h4l12 26l23 25l8 14l12 10l12 29l19 27l6 14l20 23h11zM1516 1270l2 -2l-5 -17l-40 -55l-11 -12l-6 -35l-12 -23l-33 -39l-8 -34l-43 -43l-10 -6v-33l-27 -47l-39 -58l-14 -35l-10 -14 l-5 -14l-34 -45v-8h-4l-37 -56l-25 -18l-18 -2l-4 8l8 49h4l10 12v11l6 2l35 47l4 12l6 4v8l11 4v11l8 4v10l37 51l26 60l6 12l45 45l9 12l-9 19l7 4l12 28l31 33v8l26 58l33 37l12 30l25 33h18zM1759 1010l4 -2v-45l-10 -21l-10 -65l-19 -62l-20 -61l-2 -15h-4l-12 -30 l-7 -7l-4 -67l-12 -62l-16 -63l-9 -33l-16 -41l-6 -30l-6 -9l-8 -32h-7l-2 -13l-6 -6v-37l-6 -14l-8 -8l-23 -2l-4 10l8 29l19 26v33l-4 23l4 4v16l4 12l6 4l8 47l11 9l10 57l18 66l12 30l3 33l10 29l6 63l22 53l15 64l20 57l11 31l-3 8l23 25zM831 193h23l6 -7l-10 -12 l-4 -22l-19 -15v-10l-47 -45l-12 -2l-33 -39l-10 -2l-49 -47l-43 -29l-39 -8l-27 -18l-16 -17l-12 -2v-4l-19 -4l-4 -6l-65 -8h-19l-14 -7l-60 -6l-51 8l-10 11l-2 8l8 14l16 6l66 -4h31l59 23l31 12l55 8l47 43l19 8l4 11l24 4l23 18h8l49 43l15 10l14 29l47 45zM567 434 v-6l-6 -12h-14l-66 20l-65 -2h-82v-6l-55 -18l-27 -19l-33 -33l-18 -45l-2 -34l-9 -11h-18l-10 13l-4 30l10 51l31 50l30 28l13 2v4l12 3l47 24l35 6l63 -4h68l61 -16l23 -17l14 -4zM1808 1483l2 4l17 -2l10 -10l4 -25h6l6 -31l7 -12v-66l-7 -65l-16 -41l-2 -14l-12 -13 l-8 -63l-5 -17h-4l-4 -16l-6 -6v-14l-6 -2l2 -19l-6 -2v-8l-6 -6h-17l-8 8l-4 14l4 37l8 25l6 6l3 12l6 4l4 66l20 61l6 6l4 13v34l7 33l-4 66l-11 37zM1413 -358l-16 -21h-19l-10 19l16 47l11 37l2 24l4 4v15l14 40h4l6 60l15 10l4 8h12l10 -12l4 -27l-16 -43l-4 -14 l-2 -47l-18 -49l-3 -17l-6 -6zM1114 657l4 5l10 -11l5 -30l-5 -35l-6 -4l-4 -13l-26 -22l-21 -25l-6 -14l-10 -8l-21 -2l-4 10v16l29 54l18 26l10 23zM217 -96l-2 -4l-33 10l-28 14l-9 13l5 10l16 4l33 -8l12 -11l8 -20zM881 279l2 2l26 -15v-18l-6 -15l-24 -14h-15l-4 14 l10 33zM1991 1875l4 31h22l11 -26v-11h4l2 -34l-12 -64l-17 -18l-6 -15l-45 -37l-14 -4l-9 -10l-63 -4l-16 2l-13 8l-2 10l6 13l23 4v6l31 6l34 21h9l4 10l14 4l21 14l16 27zM1632 1835l7 -3l6 -34l-8 -29l-21 -25l-55 -39l-29 -10l-6 -6l-53 -12l-9 2l-2 4h-10l-6 4l-4 16 l8 11l49 14l62 27l14 4l23 63l12 15z" />
<glyph unicode="&#xc5;" horiz-adv-x="1832" d="M2054 436l2 -2l-8 -31l-31 -51l-26 -35v-10l-31 -35l-2 -10l-8 -4v-8l-11 -6l-2 -13l-10 -4l-14 -26l-29 -19l-6 -14l-41 -49l-8 -13l-29 -20l-61 -20l-27 -19l-33 -16l-61 -8l-37 2l-22 6l-15 -4l-28 -23l-21 -39l-4 -31l-14 -6l-15 2l-6 15v35l12 40l9 5l4 14l10 8 l37 10l65 9l66 10l16 6h15l43 16l16 21l29 14l51 41l18 27l33 32l14 29l9 4v10h4v9h4l12 26l23 25l8 14l12 10l12 29l19 27l6 14l20 23h11zM1516 1270l2 -2l-5 -17l-40 -55l-11 -12l-6 -35l-12 -23l-33 -39l-8 -34l-43 -43l-10 -6v-33l-27 -47l-39 -58l-14 -35l-10 -14 l-5 -14l-34 -45v-8h-4l-37 -56l-25 -18l-18 -2l-4 8l8 49h4l10 12v11l6 2l35 47l4 12l6 4v8l11 4v11l8 4v10l37 51l26 60l6 12l45 45l9 12l-9 19l7 4l12 28l31 33v8l26 58l33 37l12 30l25 33h18zM1759 1010l4 -2v-45l-10 -21l-10 -65l-19 -62l-20 -61l-2 -15h-4l-12 -30 l-7 -7l-4 -67l-12 -62l-16 -63l-9 -33l-16 -41l-6 -30l-6 -9l-8 -32h-7l-2 -13l-6 -6v-37l-6 -14l-8 -8l-23 -2l-4 10l8 29l19 26v33l-4 23l4 4v16l4 12l6 4l8 47l11 9l10 57l18 66l12 30l3 33l10 29l6 63l22 53l15 64l20 57l11 31l-3 8l23 25zM831 193h23l6 -7l-10 -12 l-4 -22l-19 -15v-10l-47 -45l-12 -2l-33 -39l-10 -2l-49 -47l-43 -29l-39 -8l-27 -18l-16 -17l-12 -2v-4l-19 -4l-4 -6l-65 -8h-19l-14 -7l-60 -6l-51 8l-10 11l-2 8l8 14l16 6l66 -4h31l59 23l31 12l55 8l47 43l19 8l4 11l24 4l23 18h8l49 43l15 10l14 29l47 45zM567 434 v-6l-6 -12h-14l-66 20l-65 -2h-82v-6l-55 -18l-27 -19l-33 -33l-18 -45l-2 -34l-9 -11h-18l-10 13l-4 30l10 51l31 50l30 28l13 2v4l12 3l47 24l35 6l63 -4h68l61 -16l23 -17l14 -4zM1808 1483l2 4l17 -2l10 -10l4 -25h6l6 -31l7 -12v-66l-7 -65l-16 -41l-2 -14l-12 -13 l-8 -63l-5 -17h-4l-4 -16l-6 -6v-14l-6 -2l2 -19l-6 -2v-8l-6 -6h-17l-8 8l-4 14l4 37l8 25l6 6l3 12l6 4l4 66l20 61l6 6l4 13v34l7 33l-4 66l-11 37zM1413 -358l-16 -21h-19l-10 19l16 47l11 37l2 24l4 4v15l14 40h4l6 60l15 10l4 8h12l10 -12l4 -27l-16 -43l-4 -14 l-2 -47l-18 -49l-3 -17l-6 -6zM1114 657l4 5l10 -11l5 -30l-5 -35l-6 -4l-4 -13l-26 -22l-21 -25l-6 -14l-10 -8l-21 -2l-4 10v16l29 54l18 26l10 23zM217 -96l-2 -4l-33 10l-28 14l-9 13l5 10l16 4l33 -8l12 -11l8 -20zM881 279l2 2l26 -15v-18l-6 -15l-24 -14h-15l-4 14 l10 33zM2036 2032l2 4l16 -2l8 -21l9 -8l6 -63v-5l-6 -4l-5 -16l-18 -21l8 -14l2 -33l-18 -51l-41 -51l-21 -27l-14 -4l-4 -10l-12 -2l-23 -16l-65 -23l-60 -8h-39l-14 6l-10 12l6 19l6 4l31 -6l61 16l62 25l28 18l45 47l25 21v8h6l18 61l23 13l-14 18l6 33l-6 65z M1819 2062l2 -4l-4 -16l-11 -14l-49 -9l-39 -30l-10 -31l-12 -10h-19l-6 32v23l12 25l46 36l63 9z" />
<glyph unicode="&#xc6;" horiz-adv-x="2549" d="M2468 459v4l14 -4l10 -13l17 -59l-2 -65l-4 -72l-9 -64l-16 -63l-2 -17l-18 -24l-15 -62l-37 -55l-14 -10l-2 -16l-16 -17l-4 -12l-46 -35l-4 -6l-12 -6l-18 -23l-13 -2l-24 -22l-6 -11l-13 -2l-12 -10l-59 -24l-60 -27l-59 -14l-12 -2l-4 -5h-33l-58 -10l-65 6l-64 -4 l-16 -2l-33 10h-10l-4 11l-14 4l-11 10l2 12l9 -2l30 8l31 -6l33 -12l57 4l31 -6l63 16l64 15l33 6l38 14l9 10h10l6 7l55 24l54 35l39 31l2 12l49 43l26 14l2 13l23 16l-2 8l22 60l15 18l16 47l17 55l4 5v32l6 17l2 57l2 66l-2 71l-2 17zM1518 1296l4 -2l-2 -32l-17 -29 l-4 -14l-8 -5l-33 -55l-8 -14l-10 -8v-11l-31 -36l-2 -15l-14 -8l-2 -12l-11 -13l-6 -22l-10 -4l-2 -12l-6 -7v-10l-13 -8l-16 -33l-14 -10l-10 -29l-9 -12l2 -8l-12 -21l-10 -28l-10 -11l-7 -16l-34 -33l-17 -26l-8 -37l-18 -25l-4 -14l-9 -2l-4 -12l-14 -13l-2 -14l-10 -8 l-11 -31l-34 -35v-10l-13 -6l-8 -33l-8 -16l-27 -17l-14 2l-6 17l12 26l10 13l13 24l8 4l8 37l14 10l37 56l19 30l24 58l4 14h4v8l19 23l26 53l43 49l11 15l6 20l6 6l4 12l10 13l2 12l27 49l14 12l4 15l15 18l8 29l14 26l13 13l12 22l31 41l10 8l20 58l6 12l25 23h10z M2830 1430v4h15l8 -39l6 -4l10 -37l2 -33l6 -8l-6 -10l6 -21l-12 -68l-16 -47l-21 -22l-8 -15l-20 -16l-17 -39l-47 -43l-14 -20l-12 -2v-4l-33 -9l-4 -6l-29 -12l-64 -12l-63 -15l-31 -4l-16 6l-6 7l2 16l6 6l59 10l35 4l12 7l35 6v4l43 24l2 4l15 5l55 34l27 25l2 12 l18 23l6 22l10 17l11 8l14 51l16 64l2 51l-4 6l4 16l-8 43zM2013 643v-4l-8 -16l-12 2l-25 14h-24l-9 -4h-32l-66 -12l-53 -17l-31 -14l-27 -19l-34 -32l-15 -25l-26 -33l-13 -10v-10h-4v-8l-10 -15v-32l-8 -33l-4 -68l6 -47l10 -20l2 -27l-6 -8h-18l-9 12l-14 53l-6 60 l2 73l8 52l15 18v8l6 6l6 17l6 6v8l6 6l6 17l6 6v8l50 47l6 10l12 2l27 21l57 22l43 11l4 4h70l32 -4l23 -15h35l14 -4zM827 166h4l5 -12l-17 -27l-45 -49l-47 -45l-16 -15h-9l-10 -14h-8l-22 -18l-17 -9v-4l-59 -24l-27 -10l-65 -19l-19 -8h-47l-31 -12l-55 -4l-72 6 l-26 10h-11v4l-14 6l2 19l6 4l64 -2l65 -9l31 3l68 12l28 6l56 27l32 8l27 16l18 4l54 35l45 47l47 39l29 27h8l4 4zM1819 1434h10l8 -2l8 -11l6 -63l-2 -72l-20 -61l-14 -66l-17 -63l-6 -25l-10 -10l-4 -23l-4 -4l-7 -63l-12 -31l-14 -10l-10 -2l-9 4l-6 14l4 35l23 61 l8 64l8 16l13 64l8 33l22 57l17 65l-4 66v16zM387 471l8 -8l-8 -12l-59 -17l-31 -14l-12 -12l-13 -2l-12 -13h-6l-39 -45l-2 -14l-6 -6l-10 -62l-4 -6l-19 -6l-8 4l-8 14l8 64l2 24l10 11v14l10 10l27 41h8l15 19l24 8l62 10l6 4h35zM2490 1395l2 -4l-2 -11l-10 -10l-63 -6 l-33 -6l-60 -25l-53 -37l-24 -2l-6 9l-3 16l17 22l26 21l62 22l33 15l67 10l13 2l28 -10zM2288 772l4 -2l-11 -31l-16 -28l-45 -49l-6 -5l-4 -18l-12 -12l-7 -21l-22 -24l-12 -9l-13 2l-6 13l14 39l7 4l2 14l28 39l6 2l15 29l26 30l5 15l18 24l18 -2zM1425 -168h23l4 -31 l-12 -65l-15 -64l-10 -30l-8 -13l-14 -6h-11l-10 29l4 35l21 61l16 64zM530 449v-5l-6 -12h-35l-20 8l-35 2l-2 27l31 4l35 -4l26 -10zM2167 1057h22l6 -33l-8 -57l-8 -4l-12 8l-10 53l2 18zM901 264l4 -4l-2 -16l-16 -23l-25 -24l-8 -4l-4 2l-2 32l6 15l29 26zM2396 989 l2 -2l2 -10l-10 -23l-37 15l2 18l4 6l15 4zM182 -61v-5l-20 -6l-27 2l-8 27l33 4l14 -6z" />
<glyph unicode="&#xc7;" horiz-adv-x="1513" d="M1698 1337h8l14 -6l9 -31l-3 -24l9 -51l-19 -60l-6 -10l-4 -63l-10 -29l-21 -19l-14 -65l-8 -25l-21 -30l-4 -19l-37 -51l-16 -29l-90 -90l-33 -39l-12 -2l-27 -20l-14 -6l-8 -13h-9l-6 -10h-8l-10 -12l-15 -6l-4 -9h-8l-6 -10h-8l-4 -8l-47 -31l-15 -2l-8 -10l-33 -4 l-8 -6l-55 -15l-60 -22l-12 -6l-18 -2l-17 6l-2 8l6 14l23 17l33 8l57 23l12 8l33 10l6 6l11 2v4h10v4h8l43 25l29 25l45 20l10 10l14 6l82 82l15 4l22 25l12 20l13 7v10h4v8l24 25l9 22l49 82l43 47l6 6l4 68l8 20l17 66l8 29l4 32l-10 64v8zM1718 422l2 -4l2 -17l-6 -16 h-4l-12 -23l-6 -4l-15 -28l-43 -56l-24 -20l-10 -29l-17 -16v-8l-14 -11v-8l-21 -14l-18 -29l-45 -43l-23 -12l-37 -49l-22 -15l-8 -12l-29 -16l-14 -15h-6l-60 -36l-55 -39l-37 -19l-33 -4l-24 -16l-35 -15v-4l-62 -6l-32 -6l-31 -16h-33l-39 -23l-18 -4l-8 4l-4 10l2 15 l24 30l33 2l63 15l33 6l19 12l28 8l66 13l12 6l10 12h11l22 23h10v6h9v4l28 12l4 6l15 2l18 17h10l4 10l15 2l26 16l47 52l13 10l12 4l47 49l45 47l43 49l37 43l6 33l43 49l17 19l4 12l6 4l4 15l25 26h18zM1300 1360l3 -4v-10l-9 -15l-47 -26l-14 -5l-10 -10h-17l-26 -20 l-13 -21l-18 -14l-6 -16l-45 -45l-37 -56l-35 -53l-16 -16v-9l-23 -24l-12 -43l-6 -2v-10h-4l-4 -19h-5l-10 -14l-24 -56h-4v-8h-5l-4 -18l-30 -51l-17 -25h-22l-4 8l12 62l10 10l27 59l12 11l4 14l12 12l13 53l10 23l10 4l2 12l17 17l4 12h4v10h6l8 27l10 6v8l7 4l2 11 l20 26l12 10l6 13l43 53l41 47l13 12l28 9l23 22l33 25h8l27 12l24 6zM961 -338h12l14 -4l4 -33l4 -4l2 -22l-6 -7l-10 -47l-10 -12l-8 -22l-45 -50l-7 -6l-12 -2l-20 -24l-15 -4l-12 -13l-59 -18h-15l-20 -8l-74 -4l-68 6l-51 10l-20 16l-2 13l14 8l64 -4l73 -2l37 2l51 14 l25 8l4 6l51 21l53 37l31 39l8 63v33zM995 506l2 -4l2 -6l-14 -7l-2 -6l-61 -12h-70l-31 -4l-28 -12l-25 -23l-14 -18v-56l-6 -63l2 -70l2 -32l8 -29l-4 -10h-19l-12 6l-10 30l-6 62v37l6 30l-2 33l4 33l12 29l12 65l25 15l68 4l28 12h64l24 2l15 8h8zM451 1303l4 -3v-16 l-39 -49l-25 -21l-4 -16l-33 -53l-10 -33l-6 -33l2 -61l4 -33l-6 -51h-10l-11 10l-12 31l-14 65l16 64l-2 31l4 34l15 48l24 20l41 49h10l4 8l21 11l2 4h10zM696 -326l4 -2v-24l-32 -4l-15 4l-2 10l6 14l7 4z" />
<glyph unicode="&#xc8;" horiz-adv-x="1304" d="M479 -250v4l6 13h33l31 -9l55 -4l10 -6l4 6l66 -6l14 -4l64 12l51 21l25 4l4 6l61 23l60 28l51 27l18 26l47 46l41 51l13 12l6 14l8 4l10 33l31 55l24 60l5 65l10 64l-6 31l4 63l-4 33l4 16l6 6h14l12 -30l5 -31l-2 -6l12 -21l-2 -63l-6 -98l-11 -33l-8 -15l-2 -22 l-14 -19l-2 -24h-4l-17 -27l-4 -14l-10 -12l-16 -54l-41 -53l-35 -35l-17 -4l-14 -10l-25 -6l-36 -55l-56 -35l-61 -21l-4 -6l-31 -12l-29 -2l-4 -6h-32l-64 -17l-65 4l-64 -2l-14 -2l-92 25zM1602 1327v4h14l4 -8l-4 -25l6 -30l-2 -31l-8 -33l-17 -28l-14 -41l-12 -13 l-4 -14l-23 -23l-12 -22l-25 -25l-14 -4l-16 -16l-60 -25l-57 -22l-2 -6l-66 -11l-33 -4l-16 2l-6 4l-4 -6l-66 2l-65 17l-8 14l8 12l14 4l64 -12h63l123 33l33 10l57 29l19 16l4 15l45 47l37 51l14 29l6 49l4 4l2 14l8 4v25zM629 655l4 -2v-8l-8 -12l-33 -4l-62 -23 l-28 -10l-27 -23l-12 -20l-8 -4l-21 -27l-53 -39l-4 -2l-4 31l-4 8l20 37l6 4l6 14l13 9l10 14h10l8 14l25 11l33 20h8l4 6l63 2l33 6zM1264 1386v-10l-31 -6l-31 2l-63 -16l-60 -29l-55 -33h-16l-4 9l-9 4l-2 8l17 28l22 25h8v4h11v4h8v6h31l14 7h16l62 20h32l31 -8z M905 569h-4l-10 23l4 16l33 43l4 17l16 18l4 14l6 2l33 54l23 22l16 -2l12 -8l2 -25l-16 -26l-12 -12l-4 -17l-37 -35l-12 -30l-27 -41zM381 457l2 -2v-33l-16 -45l8 -66l-4 -41l-13 -10l-14 2l-6 6l-10 62l-2 8l6 33l4 4l-6 31l18 51h33zM928 1057l2 4l6 2l16 -39l-4 -31 l13 -57l-5 -14l-8 -2l-12 8l-14 26l-17 64v16h4l4 15zM889 1589l-2 -4h-21l-6 6l-6 31l6 49l4 6l21 -4l10 -12l4 -14zM694 659l4 -2l-10 -14l-14 -4l-33 4l-2 6l12 19l19 6l16 -4zM1597 1382h19l4 -32l-2 -9l-6 -4l-17 4l-8 25zM1551 1716v-6l-27 -4h-69l-39 -2l-27 10l-4 6 l2 14l29 11l73 4l33 -4l27 -9z" />
<glyph unicode="&#xc9;" horiz-adv-x="1304" d="M479 -250v4l6 13h33l31 -9l55 -4l10 -6l4 6l66 -6l14 -4l64 12l51 21l25 4l4 6l61 23l60 28l51 27l18 26l47 46l41 51l13 12l6 14l8 4l10 33l31 55l24 60l5 65l10 64l-6 31l4 63l-4 33l4 16l6 6h14l12 -30l5 -31l-2 -6l12 -21l-2 -63l-6 -98l-11 -33l-8 -15l-2 -22 l-14 -19l-2 -24h-4l-17 -27l-4 -14l-10 -12l-16 -54l-41 -53l-35 -35l-17 -4l-14 -10l-25 -6l-36 -55l-56 -35l-61 -21l-4 -6l-31 -12l-29 -2l-4 -6h-32l-64 -17l-65 4l-64 -2l-14 -2l-92 25zM1602 1327v4h14l4 -8l-4 -25l6 -30l-2 -31l-8 -33l-17 -28l-14 -41l-12 -13 l-4 -14l-23 -23l-12 -22l-25 -25l-14 -4l-16 -16l-60 -25l-57 -22l-2 -6l-66 -11l-33 -4l-16 2l-6 4l-4 -6l-66 2l-65 17l-8 14l8 12l14 4l64 -12h63l123 33l33 10l57 29l19 16l4 15l45 47l37 51l14 29l6 49l4 4l2 14l8 4v25zM629 655l4 -2v-8l-8 -12l-33 -4l-62 -23 l-28 -10l-27 -23l-12 -20l-8 -4l-21 -27l-53 -39l-4 -2l-4 31l-4 8l20 37l6 4l6 14l13 9l10 14h10l8 14l25 11l33 20h8l4 6l63 2l33 6zM1264 1386v-10l-31 -6l-31 2l-63 -16l-60 -29l-55 -33h-16l-4 9l-9 4l-2 8l17 28l22 25h8v4h11v4h8v6h31l14 7h16l62 20h32l31 -8z M905 569h-4l-10 23l4 16l33 43l4 17l16 18l4 14l6 2l33 54l23 22l16 -2l12 -8l2 -25l-16 -26l-12 -12l-4 -17l-37 -35l-12 -30l-27 -41zM381 457l2 -2v-33l-16 -45l8 -66l-4 -41l-13 -10l-14 2l-6 6l-10 62l-2 8l6 33l4 4l-6 31l18 51h33zM928 1057l2 4l6 2l16 -39l-4 -31 l13 -57l-5 -14l-8 -2l-12 8l-14 26l-17 64v16h4l4 15zM889 1589l-2 -4h-21l-6 6l-6 31l6 49l4 6l21 -4l10 -12l4 -14zM694 659l4 -2l-10 -14l-14 -4l-33 4l-2 6l12 19l19 6l16 -4zM1597 1382h19l4 -32l-2 -9l-6 -4l-17 4l-8 25zM1772 1976l-3 -2l-45 -43l-49 -47l-10 -14 l-12 -2l-13 -13l-8 -2l-41 -28l-12 -13l-6 -16l-47 -45l-41 -35l-25 -4h-67l-68 -10h-14l-6 4l-33 2l-8 10l2 19l6 6l33 6h65l33 -4l16 -6l27 6l27 20l47 52l55 34l18 29l15 6l26 25l29 14l12 10l21 9l12 18l16 6l41 53l13 11l18 -2l8 -11l2 -14l-8 -12z" />
<glyph unicode="&#xca;" horiz-adv-x="1304" d="M479 -250v4l6 13h33l31 -9l55 -4l10 -6l4 6l66 -6l14 -4l64 12l51 21l25 4l4 6l61 23l60 28l51 27l18 26l47 46l41 51l13 12l6 14l8 4l10 33l31 55l24 60l5 65l10 64l-6 31l4 63l-4 33l4 16l6 6h14l12 -30l5 -31l-2 -6l12 -21l-2 -63l-6 -98l-11 -33l-8 -15l-2 -22 l-14 -19l-2 -24h-4l-17 -27l-4 -14l-10 -12l-16 -54l-41 -53l-35 -35l-17 -4l-14 -10l-25 -6l-36 -55l-56 -35l-61 -21l-4 -6l-31 -12l-29 -2l-4 -6h-32l-64 -17l-65 4l-64 -2l-14 -2l-92 25zM1602 1327v4h14l4 -8l-4 -25l6 -30l-2 -31l-8 -33l-17 -28l-14 -41l-12 -13 l-4 -14l-23 -23l-12 -22l-25 -25l-14 -4l-16 -16l-60 -25l-57 -22l-2 -6l-66 -11l-33 -4l-16 2l-6 4l-4 -6l-66 2l-65 17l-8 14l8 12l14 4l64 -12h63l123 33l33 10l57 29l19 16l4 15l45 47l37 51l14 29l6 49l4 4l2 14l8 4v25zM629 655l4 -2v-8l-8 -12l-33 -4l-62 -23 l-28 -10l-27 -23l-12 -20l-8 -4l-21 -27l-53 -39l-4 -2l-4 31l-4 8l20 37l6 4l6 14l13 9l10 14h10l8 14l25 11l33 20h8l4 6l63 2l33 6zM1264 1386v-10l-31 -6l-31 2l-63 -16l-60 -29l-55 -33h-16l-4 9l-9 4l-2 8l17 28l22 25h8v4h11v4h8v6h31l14 7h16l62 20h32l31 -8z M905 569h-4l-10 23l4 16l33 43l4 17l16 18l4 14l6 2l33 54l23 22l16 -2l12 -8l2 -25l-16 -26l-12 -12l-4 -17l-37 -35l-12 -30l-27 -41zM381 457l2 -2v-33l-16 -45l8 -66l-4 -41l-13 -10l-14 2l-6 6l-10 62l-2 8l6 33l4 4l-6 31l18 51h33zM928 1057l2 4l6 2l16 -39l-4 -31 l13 -57l-5 -14l-8 -2l-12 8l-14 26l-17 64v16h4l4 15zM889 1589l-2 -4h-21l-6 6l-6 31l6 49l4 6l21 -4l10 -12l4 -14zM694 659l4 -2l-10 -14l-14 -4l-33 4l-2 6l12 19l19 6l16 -4zM1597 1382h19l4 -32l-2 -9l-6 -4l-17 4l-8 25zM1395 1892l18 -18l-2 -14l-8 -15l-53 -43 l-54 -35l-20 -16l-12 -2l-9 -12l-10 -2l-4 -11l-12 -2l-6 -6l-27 -4l-70 -2h-16l-20 10l-3 9l11 14l22 6l64 6l30 19l11 10l12 2l4 8l14 4l2 8l21 13l4 8l14 6l13 14l28 17l15 4l32 24h11zM1659 1751l4 -2v-18l-10 -11l-45 -10v6l-23 8l-2 7l10 20l31 6zM981 1745v2l4 4 l10 -4l43 -2l21 -10l-19 -17l-63 4l-2 7z" />
<glyph unicode="&#xcb;" horiz-adv-x="1304" d="M479 -250v4l6 13h33l31 -9l55 -4l10 -6l4 6l66 -6l14 -4l64 12l51 21l25 4l4 6l61 23l60 28l51 27l18 26l47 46l41 51l13 12l6 14l8 4l10 33l31 55l24 60l5 65l10 64l-6 31l4 63l-4 33l4 16l6 6h14l12 -30l5 -31l-2 -6l12 -21l-2 -63l-6 -98l-11 -33l-8 -15l-2 -22 l-14 -19l-2 -24h-4l-17 -27l-4 -14l-10 -12l-16 -54l-41 -53l-35 -35l-17 -4l-14 -10l-25 -6l-36 -55l-56 -35l-61 -21l-4 -6l-31 -12l-29 -2l-4 -6h-32l-64 -17l-65 4l-64 -2l-14 -2l-92 25zM1602 1327v4h14l4 -8l-4 -25l6 -30l-2 -31l-8 -33l-17 -28l-14 -41l-12 -13 l-4 -14l-23 -23l-12 -22l-25 -25l-14 -4l-16 -16l-60 -25l-57 -22l-2 -6l-66 -11l-33 -4l-16 2l-6 4l-4 -6l-66 2l-65 17l-8 14l8 12l14 4l64 -12h63l123 33l33 10l57 29l19 16l4 15l45 47l37 51l14 29l6 49l4 4l2 14l8 4v25zM629 655l4 -2v-8l-8 -12l-33 -4l-62 -23 l-28 -10l-27 -23l-12 -20l-8 -4l-21 -27l-53 -39l-4 -2l-4 31l-4 8l20 37l6 4l6 14l13 9l10 14h10l8 14l25 11l33 20h8l4 6l63 2l33 6zM1264 1386v-10l-31 -6l-31 2l-63 -16l-60 -29l-55 -33h-16l-4 9l-9 4l-2 8l17 28l22 25h8v4h11v4h8v6h31l14 7h16l62 20h32l31 -8z M905 569h-4l-10 23l4 16l33 43l4 17l16 18l4 14l6 2l33 54l23 22l16 -2l12 -8l2 -25l-16 -26l-12 -12l-4 -17l-37 -35l-12 -30l-27 -41zM381 457l2 -2v-33l-16 -45l8 -66l-4 -41l-13 -10l-14 2l-6 6l-10 62l-2 8l6 33l4 4l-6 31l18 51h33zM928 1057l2 4l6 2l16 -39l-4 -31 l13 -57l-5 -14l-8 -2l-12 8l-14 26l-17 64v16h4l4 15zM889 1589l-2 -4h-21l-6 6l-6 31l6 49l4 6l21 -4l10 -12l4 -14zM694 659l4 -2l-10 -14l-14 -4l-33 4l-2 6l12 19l19 6l16 -4zM1597 1382h19l4 -32l-2 -9l-6 -4l-17 4l-8 25zM1677 1890l4 31h23l10 -27v-10h4l2 -35 l-12 -63l-16 -19l-6 -14l-46 -37l-14 -4l-8 -10l-64 -4l-16 2l-12 8l-2 10l6 13l22 4v6l31 6l35 20h8l4 11l15 4l20 14l16 27zM1319 1849l6 -2l6 -35l-8 -28l-20 -25l-56 -39l-28 -10l-7 -6l-53 -12l-8 2l-2 4h-10l-6 4l-5 16l9 11l49 14l61 26l15 5l22 63l12 14z" />
</font>
</defs>
</svg>
